<svg width="256" height="401" xmlns="http://www.w3.org/2000/svg" xmlns:xlink="http://www.w3.org/1999/xlink"><defs><path id="a" d="M0 .694h20.78v21.174H0z"/><path id="c" d="M0 .698h20.78v21.295H0z"/><path id="f" d="M0 .679h20.78v20.75H0z"/><linearGradient x1="50%" y1="86.969%" x2="50%" y2="-4.765%" id="e"><stop stop-color="#FCDE87" offset="0%"/><stop stop-color="#F5B444" offset="21%"/><stop stop-color="#E14D75" offset="38%"/><stop stop-color="#DE3A8D" offset="52%"/><stop stop-color="#804492" offset="74%"/><stop stop-color="#514F99" offset="100%"/></linearGradient></defs><g fill="none" fill-rule="evenodd"><path d="M25.89 389v-2.55h1.35c.66 0 1.198-.19 1.615-.57.417-.38.625-.867.625-1.46s-.207-1.078-.62-1.455c-.413-.377-.953-.565-1.62-.565h-2.41v6.6h1.06zm1.33-3.49h-1.33v-2.17h1.33c.367 0 .653.098.86.295.207.197.31.462.31.795s-.103.597-.31.79c-.207.193-.493.29-.86.29zm4.4 3.49v-2.55h1.21l1.88 2.55h1.21l-1.98-2.72c.4-.153.712-.393.935-.72a1.97 1.97 0 00.335-1.14c0-.593-.207-1.078-.62-1.455-.413-.377-.953-.565-1.62-.565h-2.41v6.6h1.06zm1.33-3.49h-1.33v-2.17h1.33c.36 0 .645.1.855.3.21.2.315.463.315.79s-.105.588-.315.785c-.21.197-.495.295-.855.295zm8.28 3.49v-.95h-3.4v-2.09h2.47v-.92h-2.47v-1.69h3.28v-.95h-4.34v6.6h4.46zm4.05.11c.607 0 1.158-.135 1.655-.405a3.05 3.05 0 001.175-1.115l-.8-.59c-.487.76-1.16 1.14-2.02 1.14-.68 0-1.247-.232-1.7-.695-.453-.463-.68-1.045-.68-1.745 0-.7.227-1.282.68-1.745.453-.463 1.02-.695 1.7-.695.86 0 1.533.38 2.02 1.14l.8-.59a3.102 3.102 0 00-1.18-1.11c-.5-.273-1.05-.41-1.65-.41-.947-.013-1.767.317-2.46.99-.693.673-1.03 1.48-1.01 2.42-.02.94.317 1.747 1.01 2.42.693.673 1.513 1.003 2.46.99zm5.06-.11v-6.6h-1.06v6.6h1.06zm4.62.11c.94.013 1.758-.317 2.455-.99.697-.673 1.035-1.48 1.015-2.42.02-.94-.318-1.747-1.015-2.42-.697-.673-1.515-1.003-2.455-.99-.947-.013-1.763.317-2.45.99-.687.673-1.023 1.48-1.01 2.42-.02.94.315 1.747 1.005 2.42.69.673 1.508 1.003 2.455.99zm.01-.97c-.687 0-1.253-.232-1.7-.695-.447-.463-.67-1.048-.67-1.755 0-.7.225-1.28.675-1.74.45-.46 1.015-.69 1.695-.69.673 0 1.237.232 1.69.695.453.463.68 1.042.68 1.735 0 .7-.227 1.283-.68 1.75-.453.467-1.017.7-1.69.7zm12.77.97v-6.71h-1.06v4.45l-4.01-4.56h-.37V389h1.06v-4.47l4.02 4.58h.36zm4.63 0c.94.013 1.758-.317 2.455-.99.697-.673 1.035-1.48 1.015-2.42.02-.94-.318-1.747-1.015-2.42-.697-.673-1.515-1.003-2.455-.99-.947-.013-1.763.317-2.45.99-.687.673-1.023 1.48-1.01 2.42-.02.94.315 1.747 1.005 2.42.69.673 1.508 1.003 2.455.99zm.01-.97c-.687 0-1.253-.232-1.7-.695-.447-.463-.67-1.048-.67-1.755 0-.7.225-1.28.675-1.74.45-.46 1.015-.69 1.695-.69.673 0 1.237.232 1.69.695.453.463.68 1.042.68 1.735 0 .7-.227 1.283-.68 1.75-.453.467-1.017.7-1.69.7zm5.69.86v-2.55h1.21l1.88 2.55h1.21l-1.98-2.72c.4-.153.712-.393.935-.72a1.97 1.97 0 00.335-1.14c0-.593-.207-1.078-.62-1.455-.413-.377-.953-.565-1.62-.565h-2.41v6.6h1.06zm1.33-3.49h-1.33v-2.17h1.33c.36 0 .645.1.855.3.21.2.315.463.315.79s-.105.588-.315.785c-.21.197-.495.295-.855.295zm4.88 3.49v-4.15l1.9 2.49h.36l1.89-2.48V389h1.06v-6.71h-.36l-2.77 3.69-2.77-3.69h-.37V389h1.06zm7.29 0l.47-1.1h2.97l.47 1.1h1.14l-2.91-6.71h-.36L90.44 389h1.13zm3.06-2.01h-2.21l1.11-2.73 1.1 2.73zm7.02 2.01v-.95h-3.02v-5.65h-1.06v6.6h4.08zm5.5.95v-1.19c.507-.073.912-.26 1.215-.56.303-.3.455-.677.455-1.13 0-.76-.497-1.33-1.49-1.71l-.74-.28c-.293-.127-.5-.248-.62-.365a.606.606 0 01-.18-.455c0-.213.087-.378.26-.495.173-.117.393-.175.66-.175.487 0 .9.247 1.24.74l.72-.54c-.347-.62-.853-.99-1.52-1.11v-1.17h-.97v1.19c-.433.087-.782.27-1.045.55-.263.28-.395.62-.395 1.02 0 .733.483 1.29 1.45 1.67l.69.27c.32.14.548.273.685.4a.626.626 0 01.205.48c0 .233-.097.42-.29.56-.193.14-.447.21-.76.21-.66 0-1.207-.337-1.64-1.01l-.73.54c.413.747 1.023 1.197 1.83 1.35v1.21h.97zm5.01-.95v-6.6h-.37l-2.29.75.26.93 1.34-.43V389h1.06zm3.8 0v-6.6h-.37l-2.29.75.26.93 1.34-.43V389h1.06zm2.31.11c.22 0 .403-.073.55-.22a.746.746 0 00.22-.55.759.759 0 00-.22-.56.746.746 0 00-.55-.22.77.77 0 00-.56.225.746.746 0 00-.23.555c0 .22.077.403.23.55a.78.78 0 00.56.22zm3.66-.11l1.64-2.33c.233-.32.403-.57.51-.75.127-.22.22-.423.28-.61.08-.233.12-.477.12-.73a2.122 2.122 0 00-.68-1.635 2.227 2.227 0 00-1.65-.655c-.64 0-1.19.22-1.65.66-.46.44-.69.98-.69 1.62 0 .613.217 1.135.65 1.565.433.43.937.645 1.51.645.107 0 .203-.01.29-.03l-1.59 2.25h1.26zm.22-3.12c-.373 0-.683-.123-.93-.37s-.37-.56-.37-.94c0-.373.123-.683.37-.93.253-.253.563-.38.93-.38.353 0 .657.127.91.38.247.247.37.557.37.93s-.123.683-.37.93c-.253.253-.557.38-.91.38zm5.24 3.12l1.64-2.33c.233-.32.403-.57.51-.75.127-.22.22-.423.28-.61.08-.233.12-.477.12-.73a2.122 2.122 0 00-.68-1.635 2.227 2.227 0 00-1.65-.655c-.64 0-1.19.22-1.65.66-.46.44-.69.98-.69 1.62 0 .613.217 1.135.65 1.565.433.43.937.645 1.51.645.107 0 .203-.01.29-.03l-1.59 2.25h1.26zm.22-3.12c-.373 0-.683-.123-.93-.37s-.37-.56-.37-.94c0-.373.123-.683.37-.93.253-.253.563-.38.93-.38.353 0 .657.127.91.38.247.247.37.557.37.93s-.123.683-.37.93c-.253.253-.557.38-.91.38zm5.8 3.23c.813 0 1.435-.322 1.865-.965.43-.643.645-1.478.645-2.505 0-1.013-.213-1.823-.64-2.43-.42-.613-1.043-.92-1.87-.92-.827 0-1.453.31-1.88.93-.427.607-.64 1.413-.64 2.42 0 1.02.217 1.853.65 2.5.433.647 1.057.97 1.87.97zm0-.97c-.947 0-1.42-.83-1.42-2.49 0-1.593.473-2.39 1.42-2.39.94 0 1.41.797 1.41 2.39 0 1.66-.47 2.49-1.41 2.49zm8.62.86c1.067 0 1.932-.31 2.595-.93.663-.62.995-1.413.995-2.38 0-.98-.33-1.773-.99-2.38-.66-.607-1.527-.91-2.6-.91h-2.07v6.6h2.07zm-.01-.95h-1v-4.69h1c.767 0 1.377.212 1.83.635.453.423.68.988.68 1.695 0 .7-.228 1.268-.685 1.705-.457.437-1.065.655-1.825.655zm9.22.95v-.95h-3.4v-2.09h2.47v-.92h-2.47v-1.69h3.28v-.95h-4.34v6.6h4.46zm3.15.11c.64 0 1.168-.177 1.585-.53.417-.353.625-.813.625-1.38 0-.427-.125-.783-.375-1.07-.25-.287-.652-.557-1.205-.81l-.74-.34a.89.89 0 00-.09-.05l-.39-.2c-.04-.02-.11-.072-.21-.155a.542.542 0 01-.185-.24 1.281 1.281 0 01-.045-.295c0-.253.093-.45.28-.59.187-.14.427-.21.72-.21.567 0 1.03.267 1.39.8l.74-.57a2.284 2.284 0 00-.875-.86 2.502 2.502 0 00-1.255-.32c-.587 0-1.08.167-1.48.5-.4.333-.6.763-.6 1.29 0 .42.128.772.385 1.055.257.283.642.542 1.155.775l.73.34c.367.173.62.325.76.455s.21.308.21.535c0 .28-.105.503-.315.67-.21.167-.485.25-.825.25-.673 0-1.25-.35-1.73-1.05l-.75.57a2.82 2.82 0 002.49 1.43zm4.53-.11v-2.55h1.35c.66 0 1.198-.19 1.615-.57.417-.38.625-.867.625-1.46s-.207-1.078-.62-1.455c-.413-.377-.953-.565-1.62-.565h-2.41v6.6h1.06zm1.33-3.49h-1.33v-2.17h1.33c.367 0 .653.098.86.295.207.197.31.462.31.795s-.103.597-.31.79c-.207.193-.493.29-.86.29zm5.99 3.6c.793 0 1.442-.25 1.945-.75.503-.5.755-1.177.755-2.03v-3.93h-1.06v4c0 .547-.15.973-.45 1.28-.3.307-.697.46-1.19.46-.5 0-.902-.153-1.205-.46-.303-.307-.455-.733-.455-1.28v-4h-1.06v3.93c0 .853.252 1.53.755 2.03.503.5 1.158.75 1.965.75zm6.72-7.35l1.29-1.67v-.19h-1.28l-.79 1.86h.78zm1.93 7.24v-.95h-3.4v-2.09h2.47v-.92h-2.47v-1.69h3.28v-.95h-4.34v6.6h4.46zm3.15.11c.64 0 1.168-.177 1.585-.53.417-.353.625-.813.625-1.38 0-.427-.125-.783-.375-1.07-.25-.287-.652-.557-1.205-.81l-.74-.34a.89.89 0 00-.09-.05l-.39-.2c-.04-.02-.11-.072-.21-.155a.542.542 0 01-.185-.24 1.281 1.281 0 01-.045-.295c0-.253.093-.45.28-.59.187-.14.427-.21.72-.21.567 0 1.03.267 1.39.8l.74-.57a2.284 2.284 0 00-.875-.86 2.502 2.502 0 00-1.255-.32c-.587 0-1.08.167-1.48.5-.4.333-.6.763-.6 1.29 0 .42.128.772.385 1.055.257.283.642.542 1.155.775l.73.34c.367.173.62.325.76.455s.21.308.21.535c0 .28-.105.503-.315.67-.21.167-.485.25-.825.25-.673 0-1.25-.35-1.73-1.05l-.75.57a2.82 2.82 0 002.49 1.43zm8.24-.11c1.067 0 1.932-.31 2.595-.93.663-.62.995-1.413.995-2.38 0-.98-.33-1.773-.99-2.38-.66-.607-1.527-.91-2.6-.91h-2.07v6.6h2.07zm-.01-.95h-1v-4.69h1c.767 0 1.377.212 1.83.635.453.423.68.988.68 1.695 0 .7-.228 1.268-.685 1.705-.457.437-1.065.655-1.825.655zm9.22.95v-.95h-3.4v-2.09h2.47v-.92h-2.47v-1.69h3.28v-.95h-4.34v6.6h4.46zm5.21 0v-.95h-3.02v-5.65h-1.06v6.6h4.08zm3.19 0l.47-1.1h2.97l.47 1.1h1.14l-2.91-6.71h-.36l-2.91 6.71h1.13zm3.06-2.01h-2.21l1.11-2.73 1.1 2.73zm6.48-5.33c.287 0 .525-.11.715-.33.19-.22.285-.5.285-.84 0-.033-.007-.13-.02-.29h-.84v.15c0 .233-.093.35-.28.35-.073 0-.22-.06-.44-.18l-.33-.2a1.336 1.336 0 00-.72-.22.916.916 0 00-.725.33c-.19.22-.285.5-.285.84 0 .033.007.13.02.29h.84v-.13c0-.24.093-.36.28-.36.093 0 .24.06.44.18l.32.18c.267.153.513.23.74.23zm1.9 7.45v-6.71h-1.06v4.45l-4.01-4.56h-.37V389h1.06v-4.47l4.02 4.58h.36zm4.63 0c.94.013 1.758-.317 2.455-.99.697-.673 1.035-1.48 1.015-2.42.02-.94-.318-1.747-1.015-2.42-.697-.673-1.515-1.003-2.455-.99-.947-.013-1.763.317-2.45.99-.687.673-1.023 1.48-1.01 2.42-.02.94.315 1.747 1.005 2.42.69.673 1.508 1.003 2.455.99zm.01-.97c-.687 0-1.253-.232-1.7-.695-.447-.463-.67-1.048-.67-1.755 0-.7.225-1.28.675-1.74.45-.46 1.015-.69 1.695-.69.673 0 1.237.232 1.69.695.453.463.68 1.042.68 1.735 0 .7-.227 1.283-.68 1.75-.453.467-1.017.7-1.69.7z" fill="#4D008C" fill-rule="nonzero"/><rect stroke="#FF0081" x="7.5" y="11.5" width="232" height="64" rx="10"/><path d="M127 87h102c5.523 0 10 5.49 10 12.262v246.476c0 6.772-4.477 12.262-10 12.262H18c-5.523 0-10-5.49-10-12.262V99.262C8 92.49 12.477 87 18 87h2" stroke="#FF0081"/><g fill-rule="nonzero"><path d="M239.336 323.823h-232v32.364c0 6.555 5.36 11.877 11.96 11.877h206.951c7.221 0 13.408-4.743 13.07-12.979v-30.57" fill="#FF0081"/><g fill="#FFF"><path d="M107.247 336.43l-1.288.99c-.448-.673-1.01-1.065-1.756-1.065-.616 0-1.14.28-1.14.896 0 .523.412.747 1.066 1.065l1.045.467c1.457.635 2.279 1.382 2.279 2.69 0 1.717-1.401 2.763-3.212 2.763-1.588 0-2.876-.803-3.55-2.036l1.29-.97c.504.69 1.158 1.344 2.26 1.344.803 0 1.307-.374 1.307-1.027 0-.598-.448-.803-1.177-1.139l-.99-.449c-1.307-.597-2.222-1.344-2.222-2.652 0-1.587 1.326-2.614 3.063-2.614 1.438 0 2.465.728 3.025 1.737zM114.568 336.56h-4.314v1.867h3.156v1.606h-3.156v2.334h4.482v1.7h-6.35v-9.207h6.182zM124.634 342.853h-3.772l-.523 1.195h-2.017l4.108-9.375h.635l4.109 9.375h-2.017l-.523-1.195zm-1.886-4.65l-1.214 3.1h2.428l-1.214-3.1zM135.503 336.97l-1.42 1.01c-.616-.972-1.475-1.55-2.633-1.55-1.718 0-2.97 1.25-2.97 3.043 0 1.774 1.252 3.006 2.97 3.006 1.158 0 2.017-.579 2.633-1.55l1.42 1.01c-.803 1.4-2.28 2.277-4.071 2.277-2.727 0-4.893-2.054-4.893-4.762 0-2.708 2.166-4.762 4.91-4.762 1.757 0 3.232.878 4.054 2.278zM143.888 340.238c0 2.465-1.681 3.978-3.903 3.978-2.241 0-3.903-1.513-3.903-3.978v-5.397h1.886v5.528c0 1.382.878 2.092 2.017 2.092 1.158 0 2.017-.71 2.017-2.092v-5.528h1.886v5.397zM154.234 334.692v9.375h-1.886v-4.93l-2.316 2.913h-.598l-2.315-2.914v4.931h-1.887v-9.375h.617l3.884 4.986 3.884-4.986zM163.385 340.238c0 2.465-1.681 3.978-3.904 3.978-2.241 0-3.903-1.513-3.903-3.978v-5.397h1.887v5.528c0 1.382.877 2.092 2.016 2.092 1.158 0 2.017-.71 2.017-2.092v-5.528h1.887v5.397zM166.615 342.35h4.034v1.698h-5.92v-9.207h1.886zM176.98 342.853h-3.772l-.523 1.195h-2.017l4.108-9.375h.635l4.109 9.375h-2.017l-.523-1.195zm-1.886-4.65l-1.214 3.1h2.428l-1.214-3.1zM187.737 334.86v9.375h-.635l-5.323-5.696v5.528h-1.886v-9.375h.616l5.342 5.64v-5.472zM199.465 337.83c0 1.773-1.382 2.987-3.325 2.987h-1.568v3.25h-1.886v-9.207h3.454c1.943 0 3.325 1.158 3.325 2.97zm-4.893-1.327v2.652h1.568c.878 0 1.4-.54 1.4-1.344 0-.766-.522-1.308-1.4-1.308h-1.568zM204.656 342.853h-3.772l-.523 1.195h-1.998l4.108-9.375h.635l4.109 9.375h-2.017l-.542-1.195zm-1.886-4.65l-1.214 3.1h2.428l-1.214-3.1zM213.228 344.048l-2.39-3.249h-1.382v3.25h-1.886v-9.208h3.454c1.943 0 3.325 1.177 3.325 2.97 0 1.176-.635 2.11-1.625 2.614l2.614 3.623h-2.11zm-3.772-4.912h1.568c.878 0 1.4-.522 1.4-1.325 0-.766-.522-1.308-1.4-1.308h-1.568v2.633z"/><path d="M221.576 342.853h-3.773l-.522 1.195h-2.017l4.108-9.375h.635l4.109 9.375h-2.017l-.523-1.195zm-1.868-4.65l-1.214 3.1h2.428l-1.214-3.1zM108.368 349.277h-4.818v2.092h3.548v1.792h-3.548v2.615h5.005v1.905h-7.115v-10.29h6.928zM111.823 355.757h4.5v1.905h-6.61v-10.29h2.11zM131.375 347.185v10.477h-2.11v-5.509l-2.596 3.268h-.691l-2.595-3.268v5.51h-2.111v-10.478h.69l4.353 5.584 4.35-5.584zM140.003 349.277h-4.818v2.092h3.548v1.792h-3.548v2.615h5.005v1.905h-7.115v-10.29h6.928zM147.922 349.128l-1.438 1.101c-.505-.747-1.121-1.176-1.961-1.176-.691 0-1.29.317-1.29.99 0 .597.449.84 1.196 1.176l1.177.523c1.625.71 2.54 1.55 2.54 3.007 0 1.923-1.57 3.081-3.605 3.081-1.774 0-3.212-.896-3.977-2.278l1.456-1.083c.56.784 1.289 1.494 2.52 1.494.898 0 1.477-.43 1.477-1.14 0-.672-.505-.896-1.308-1.288l-1.101-.504c-1.476-.673-2.503-1.513-2.503-2.97 0-1.774 1.475-2.913 3.418-2.913 1.643.037 2.8.86 3.399 1.98zM160.042 349.128l-1.438 1.101c-.505-.747-1.121-1.176-1.961-1.176-.691 0-1.29.317-1.29.99 0 .597.449.84 1.196 1.176l1.177.523c1.625.71 2.54 1.55 2.54 3.007 0 1.923-1.57 3.081-3.605 3.081-1.774 0-3.212-.896-3.977-2.278l1.456-1.083c.56.784 1.289 1.494 2.52 1.494.898 0 1.477-.43 1.477-1.14 0-.672-.504-.896-1.307-1.288l-1.102-.504c-1.476-.673-2.503-1.513-2.503-2.97 0-1.774 1.476-2.913 3.418-2.913 1.643.037 2.8.86 3.399 1.98zM163.515 357.662h-2.11v-10.29h2.11zM174.44 349.408l-1.494 1.232c-.691-.952-1.606-1.512-2.876-1.512-1.998 0-3.305 1.42-3.305 3.38 0 1.998 1.363 3.455 3.436 3.455 1.195 0 2.148-.505 2.708-1.289v-.84h-2.84v-1.83h4.95v3.044c-.896 1.624-2.708 2.801-4.911 2.801-3.082 0-5.51-2.316-5.51-5.34 0-3.027 2.409-5.342 5.51-5.342 1.83.018 3.342.84 4.332 2.241zM184.767 353.404c0 2.764-1.867 4.445-4.37 4.445-2.521 0-4.37-1.68-4.37-4.445v-6.032h2.11v6.2c0 1.55.99 2.335 2.26 2.335 1.289 0 2.26-.803 2.26-2.335v-6.2h2.11v6.032zM188.502 357.662h-2.11v-10.29h2.11zM197.093 349.277h-4.818v2.092h3.548v1.792h-3.548v2.615h5.005v1.905h-7.116v-10.29h6.929zM207.196 347.372v10.477h-.71l-5.957-6.368v6.181h-2.11v-10.477h.69l5.977 6.313v-6.126zM216.44 349.277h-3.305v8.385h-2.111v-8.385h-3.286v-1.905h8.702zM223.892 349.277h-4.82v2.092h3.55v1.792h-3.55v2.615h5.006v1.905h-7.115v-10.29h6.929z"/></g><g fill="#FFF" stroke="#FFF" stroke-width=".29"><path d="M92.102 350.304c-.803.3-1.625.616-2.428.915-.056-.13-.093-.243-.15-.373 1.065-.486 2.13-.99 3.213-1.457.13-.056.43-.019.485.075.56 1.046 1.083 2.11 1.625 3.156-.13.056-.261.131-.392.187-.411-.729-.822-1.476-1.307-2.372-.43.747-.747 1.326-1.065 1.905-2.372 4.09-5.976 6.162-10.645 6.181a8831.91 8831.91 0 01-54.475 0c-6.386-.019-11.335-4.613-12.045-10.887-.037-.299 0-.598.205-.897.318 1.195.542 2.41.99 3.567 1.625 4.295 4.67 6.891 9.263 7.545a22.48 22.48 0 003.156.224c17.517.02 35.034.02 52.552 0 4.687 0 8.291-2.036 10.682-6.125.261-.449.43-.934.635-1.4a1.396 1.396 0 01-.3-.244zM93.185 345.916c-.093-.486-.224-.972-.28-1.457-.58-4.669-4.258-8.684-8.908-9.636a16.122 16.122 0 00-3.156-.337c-17.797-.018-35.595-.018-53.392 0-4.482 0-7.993 1.812-10.44 5.584-.392.598-.653 1.29-.97 1.942.074.094.149.17.224.262.821-.318 1.643-.654 2.465-.97.056.13.112.26.15.372-1.159.542-2.335 1.102-3.642 1.718a937.63 937.63 0 00-1.681-3.548c.13-.075.261-.13.392-.205.41.765.803 1.531 1.307 2.465.224-.355.392-.56.504-.785 2.279-4.706 5.995-7.264 11.243-7.283 18.19-.037 36.379-.037 54.568-.018 6.462 0 11.653 5.023 11.97 11.503 0 .112-.055.243-.093.355-.093.02-.186.02-.261.038z"/></g><g fill="#FFF"><path d="M39.195 341.695l-2.52 2.148c-.916-1.27-2.092-1.924-3.512-1.924-1.157 0-2.091.355-2.763 1.065-.673.71-1.028 1.643-1.028 2.82 0 1.195.355 2.147 1.084 2.894.71.728 1.7 1.102 2.932 1.102 1.325 0 2.334-.41 3.062-1.25v-.655H33.2v-3.119h6.873v4.39c-.653 1.157-1.568 2.072-2.764 2.782-1.195.71-2.558 1.064-4.052 1.064-2.13 0-3.922-.69-5.379-2.073-1.456-1.382-2.185-3.08-2.185-5.136 0-2.035.729-3.753 2.185-5.135 1.457-1.382 3.25-2.073 5.379-2.073 2.54 0 4.538 1.027 5.938 3.1zM44.854 352.751h-3.623v-13.895h3.623zM59.364 341.695l-2.52 2.148c-.916-1.27-2.092-1.924-3.512-1.924-1.157 0-2.091.355-2.763 1.065-.673.71-1.028 1.643-1.028 2.82 0 1.195.355 2.147 1.084 2.894.71.728 1.699 1.102 2.932 1.102 1.325 0 2.334-.41 3.062-1.25v-.655h-3.25v-3.119h6.873v4.39c-.653 1.157-1.569 2.072-2.764 2.782-1.195.71-2.558 1.064-4.052 1.064-2.13 0-3.922-.69-5.379-2.073-1.456-1.382-2.185-3.08-2.185-5.136 0-2.035.729-3.753 2.185-5.135 1.457-1.382 3.25-2.073 5.379-2.073 2.54 0 4.538 1.027 5.938 3.1zM68.758 351.593h-4.986l-.504 1.158h-3.904l6.313-14.156h1.157l6.313 14.156h-3.903l-.486-1.158zm-2.484-6.126l-1.214 3.231h2.428l-1.214-3.23zM82.634 341.396l-2.428 1.85c-.336-.505-.673-.879-1.027-1.122-.355-.242-.766-.354-1.27-.354-.822 0-1.251.298-1.251.877a.79.79 0 00.261.617c.168.168.486.336.934.523l1.606.672c1.214.504 2.11 1.083 2.689 1.737.579.653.878 1.475.878 2.446 0 1.326-.486 2.39-1.438 3.175-.953.784-2.185 1.176-3.66 1.176-1.252 0-2.354-.28-3.325-.84a5.62 5.62 0 01-2.203-2.278l2.446-1.849c.878 1.195 1.924 1.793 3.1 1.793.953 0 1.438-.337 1.438-1.009 0-.317-.093-.54-.299-.69-.205-.15-.56-.356-1.12-.598l-1.438-.635c-2.353-1.028-3.511-2.428-3.511-4.184 0-1.232.448-2.222 1.363-2.988.915-.765 2.073-1.12 3.511-1.12 2.222 0 3.81.934 4.744 2.801z"/></g></g><g fill="#4D008C" fill-rule="nonzero"><path d="M48.704 139v-4.704H52.4v-6.912h-3.696v-7.776h-8.256v7.776h-5.424l7.728-20.064h-8.496L24.8 132.136v2.16h15.648V139h8.256zm18.98.576c4.16 0 7.392-1.552 9.696-4.656 2.304-3.104 3.456-7.104 3.456-12 0-4.832-1.144-8.736-3.432-11.712-2.288-2.976-5.528-4.464-9.72-4.464-4.192 0-7.432 1.488-9.72 4.464-2.288 2.976-3.432 6.88-3.432 11.712 0 4.896 1.152 8.896 3.456 12 2.304 3.104 5.536 4.656 9.696 4.656zm0-7.584c-3.136 0-4.704-3.008-4.704-9.024 0-2.976.384-5.16 1.152-6.552.768-1.392 1.952-2.088 3.552-2.088s2.784.696 3.552 2.088c.767 1.392 1.151 3.576 1.151 6.552 0 6.016-1.568 9.024-4.703 9.024zM106.547 139.577l.445-.001c3.391 0 6.463-.8 9.215-2.4 2.753-1.632 4.865-3.76 6.337-6.384v-9.984h-15.648v7.104h7.391v1.488c-1.632 1.888-3.952 2.832-6.96 2.832-2.784 0-5-.832-6.647-2.496-1.648-1.664-2.473-3.856-2.473-6.576 0-2.688.777-4.832 2.329-6.432 1.552-1.6 3.656-2.4 6.311-2.4 3.265 0 5.937 1.456 8.017 4.368l5.76-4.896c-3.168-4.704-7.712-7.056-13.632-7.056-4.769-.064-8.849 1.52-12.24 4.752-3.392 3.232-5.056 7.12-4.992 11.664-.065 4.576 1.6 8.472 4.992 11.688 3.392 3.216 7.472 4.792 12.24 4.728l-.445.001zm26.357-.577v-31.68h-8.256V139h8.256zm18.89.577l.445-.001c3.392 0 6.464-.8 9.216-2.4 2.752-1.632 4.864-3.76 6.336-6.384v-9.984h-15.648v7.104h7.392v1.488c-1.632 1.888-3.952 2.832-6.96 2.832-2.784 0-5-.832-6.648-2.496-1.648-1.664-2.472-3.856-2.472-6.576 0-2.688.776-4.832 2.328-6.432 1.552-1.6 3.656-2.4 6.312-2.4 3.264 0 5.936 1.456 8.016 4.368l5.76-4.896c-3.168-4.704-7.712-7.056-13.632-7.056-4.768-.064-8.848 1.52-12.24 4.752-3.392 3.232-5.056 7.12-4.992 11.664-.064 4.576 1.6 8.472 4.992 11.688 3.392 3.216 7.472 4.792 12.24 4.728l-.444.001zm23.43-.577l1.151-2.64h11.376l1.153 2.64h8.88l-14.4-32.256h-2.64L166.344 139h8.88zm9.6-9.264h-5.52l2.784-7.344 2.736 7.344zm23.944 9.84c3.36 0 6.136-.896 8.328-2.688 2.191-1.792 3.287-4.192 3.287-7.2 0-2.208-.648-4.056-1.944-5.544-1.296-1.488-3.351-2.824-6.167-4.008l-3.648-1.536c-1.024-.416-1.737-.808-2.136-1.176-.4-.368-.6-.84-.6-1.416 0-1.344.944-2.016 2.832-2.016 1.088 0 2.031.264 2.832.792.8.528 1.6 1.384 2.4 2.568l5.52-4.224c-2.113-4.256-5.728-6.384-10.849-6.384-3.263 0-5.927.864-7.992 2.592-2.064 1.728-3.095 3.984-3.095 6.768 0 4 2.672 7.184 8.016 9.552l3.264 1.44c1.311.576 2.175 1.04 2.591 1.392.416.352.624.864.624 1.536 0 1.536-1.088 2.304-3.263 2.304-1.505 0-2.8-.344-3.888-1.032-1.088-.688-2.144-1.704-3.168-3.048l-5.569 4.224c1.153 2.208 2.84 3.944 5.065 5.208 2.224 1.264 4.744 1.896 7.56 1.896z"/></g><g fill-rule="nonzero"><path d="M81.226 300.732c4.555 0 8.377-1.352 11.468-4.057 3.09-2.704 4.636-6.11 4.636-10.217.081-3.782-1.27-6.913-4.056-9.394-2.786-2.48-5.928-3.68-9.425-3.599-1.139 0-2.42.142-3.843.427v-4.697h15.006v-9.455H70.063v22.753h9.577c4.636 0 6.954 1.362 6.954 4.087 0 1.423-.529 2.532-1.586 3.325-1.057.793-2.46 1.189-4.209 1.189-1.667 0-3.1-.396-4.3-1.19-1.2-.793-2.41-2.104-3.63-3.934l-7.259 5.124c1.383 3.01 3.447 5.368 6.192 7.076 2.744 1.708 5.886 2.562 9.424 2.562zm23.902 0c1.952 0 3.568-.65 4.85-1.952 1.28-1.301 1.92-2.928 1.92-4.88s-.64-3.579-1.92-4.88c-1.282-1.301-2.898-1.952-4.85-1.952-2.034 0-3.7.65-5.002 1.952-1.302 1.301-1.952 2.928-1.952 4.88s.65 3.579 1.952 4.88c1.301 1.301 2.968 1.952 5.002 1.952zm21.218-.732l10.065-13.481c1.911-2.603 3.294-4.778 4.148-6.527.894-1.749 1.342-3.741 1.342-5.978 0-4.27-1.536-7.838-4.606-10.705s-6.7-4.301-10.888-4.301c-4.067-.081-7.686 1.342-10.858 4.27-3.172 2.928-4.718 6.466-4.636 10.614 0 3.7 1.19 6.842 3.568 9.425 2.38 2.582 5.195 4.097 8.449 4.544L113.963 300h12.383zm.06-20.862c-1.423 0-2.633-.488-3.629-1.464s-1.494-2.216-1.494-3.721.498-2.765 1.494-3.782 2.206-1.525 3.63-1.525c1.423 0 2.633.508 3.63 1.525.995 1.017 1.494 2.277 1.494 3.782 0 1.464-.488 2.694-1.464 3.69-.976.997-2.196 1.495-3.66 1.495zM157.812 300l10.065-13.481c1.912-2.603 3.294-4.778 4.148-6.527.895-1.749 1.342-3.741 1.342-5.978 0-4.27-1.535-7.838-4.605-10.705-3.07-2.867-6.7-4.301-10.889-4.301-4.066-.081-7.686 1.342-10.858 4.27-3.172 2.928-4.717 6.466-4.636 10.614 0 3.7 1.19 6.842 3.569 9.425 2.379 2.582 5.195 4.097 8.448 4.544L145.428 300h12.383zm.061-20.862c-1.423 0-2.633-.488-3.629-1.464s-1.495-2.216-1.495-3.721.499-2.765 1.495-3.782c.996-1.017 2.206-1.525 3.63-1.525 1.423 0 2.633.508 3.629 1.525s1.494 2.277 1.494 3.782c0 1.464-.488 2.694-1.464 3.69-.976.997-2.196 1.495-3.66 1.495zm30.307 21.594c4.555 0 8.378-1.352 11.468-4.057 3.091-2.704 4.636-6.11 4.636-10.217.082-3.782-1.27-6.913-4.056-9.394-2.786-2.48-5.927-3.68-9.425-3.599-1.138 0-2.42.142-3.843.427v-4.697h15.006v-9.455h-24.949v22.753h9.577c4.636 0 6.954 1.362 6.954 4.087 0 1.423-.528 2.532-1.586 3.325-1.057.793-2.46 1.189-4.209 1.189-1.667 0-3.1-.396-4.3-1.19-1.2-.793-2.41-2.104-3.63-3.934l-7.259 5.124c1.383 3.01 3.447 5.368 6.192 7.076 2.745 1.708 5.886 2.562 9.424 2.562z" fill="#4D008C"/><path d="M51.748 296.609H46.93a4.926 4.926 0 01-4.93-4.931V270.93a4.926 4.926 0 014.93-4.93h4.818a4.926 4.926 0 014.93 4.93v20.767c0 2.708-2.203 4.912-4.93 4.912z" fill="#FF0081"/><path d="M50.703 288.335v2.895H47.9v-2.932c-1.905-.411-3.324-1.55-4.202-3.193l2.167-1.606c.877 1.382 2.054 2.166 3.585 2.166 1.158 0 2.055-.448 2.055-1.401 0-.821-.766-1.214-1.83-1.643l-1.607-.598c-2.11-.784-3.53-2.11-3.53-4.127 0-1.961 1.401-3.361 3.362-3.847v-2.876h2.801v2.82c1.681.336 2.82 1.382 3.53 2.708l-2.129 1.606c-.766-1.12-1.606-1.606-2.726-1.606-.86 0-1.7.317-1.7 1.214 0 .766.635 1.12 1.588 1.494l1.774.616c2.371.878 3.604 2.204 3.604 4.165 0 2.278-1.662 3.772-3.94 4.145z" fill="#FFF"/><path d="M154.11 312v-2.33h1.13c.693 0 1.263-.2 1.71-.6.447-.4.67-.913.67-1.54 0-.633-.223-1.147-.67-1.54-.447-.393-1.017-.59-1.71-.59h-2.48v6.6h1.35zm1.13-3.51h-1.13v-1.9h1.13c.3 0 .542.087.725.26.183.173.275.4.275.68 0 .287-.088.518-.265.695-.177.177-.422.265-.735.265zm6.738 3.63c.954.02 1.782-.31 2.485-.99.704-.68 1.049-1.49 1.035-2.43.014-.94-.331-1.75-1.035-2.43-.703-.68-1.531-1.01-2.485-.99-.953-.02-1.778.31-2.475.99-.696.68-1.038 1.49-1.025 2.43-.013.94.329 1.75 1.025 2.43.697.68 1.522 1.01 2.475.99zm.01-1.25c-.613 0-1.12-.203-1.52-.61-.4-.407-.6-.927-.6-1.56s.2-1.153.6-1.56c.4-.407.907-.61 1.52-.61.607 0 1.112.205 1.515.615.404.41.605.928.605 1.555 0 .633-.201 1.153-.605 1.56-.403.407-.908.61-1.515.61zm6.159 1.13v-2.33h.99l1.71 2.33h1.52l-1.87-2.59a2.029 2.029 0 001.16-1.88c0-.633-.224-1.147-.67-1.54-.447-.393-1.017-.59-1.71-.59h-2.48v6.6h1.35zm1.13-3.52h-1.13v-1.89h1.13c.3 0 .541.087.725.26.183.173.275.4.275.68 0 .287-.089.517-.265.69-.177.173-.422.26-.735.26zm9.376 3.52v-6.6h-.45l-2.47.81.32 1.19 1.25-.4v5h1.35zm5.107 0l.37-.86h2.7l.37.86h1.45l-2.94-6.72h-.45l-2.95 6.72h1.45zm2.6-1.97h-1.76l.88-2.23.88 2.23zm6.998-5.28c.327 0 .6-.125.82-.375.22-.25.33-.575.33-.975 0-.02-.006-.13-.02-.33h-1.03v.12c0 .227-.093.34-.28.34-.126 0-.276-.057-.45-.17l-.3-.18c-.26-.14-.506-.21-.74-.21-.333 0-.61.125-.83.375-.22.25-.33.572-.33.965 0 .027.007.14.02.34h1.03v-.12c0-.22.094-.33.28-.33.1 0 .247.057.44.17l.3.16c.267.147.52.22.76.22zm1.97 7.37v-6.72h-1.35v3.94l-3.83-4.06h-.44V312h1.35v-3.96l3.82 4.08h.45zm4.789 0c.953.02 1.781-.31 2.485-.99.703-.68 1.048-1.49 1.035-2.43.013-.94-.332-1.75-1.035-2.43-.704-.68-1.532-1.01-2.485-.99-.954-.02-1.779.31-2.475.99-.697.68-1.039 1.49-1.025 2.43-.014.94.328 1.75 1.025 2.43.696.68 1.521 1.01 2.475.99zm.01-1.25c-.614 0-1.12-.203-1.52-.61-.4-.407-.6-.927-.6-1.56s.2-1.153.6-1.56c.4-.407.906-.61 1.52-.61.606 0 1.111.205 1.515.615.403.41.605.928.605 1.555 0 .633-.202 1.153-.605 1.56-.404.407-.909.61-1.515.61z" fill="#4D008C"/></g><g transform="translate(103.327 198.894)"><mask id="b" fill="#fff"><use xlink:href="#a"/></mask><path d="M20.78 11.281c0 5.846-4.652 10.587-10.39 10.587C4.65 21.868 0 17.128 0 11.28 0 5.434 4.651.693 10.39.693c5.738 0 10.39 4.741 10.39 10.588" fill="#0F5CA5" fill-rule="nonzero" mask="url(#b)"/></g><path d="M116.012 206.178l1.347-.003v-2.227a17.91 17.91 0 00-1.961-.101c-1.943-.003-3.271 1.158-3.271 3.293v1.84l-2.197-.004v2.497l2.197.002v6.4l2.626.004v-6.404l2.19.003.328-2.493-2.518-.003v-1.59c0-.725.203-1.215 1.259-1.214" fill="#FEFEFE" fill-rule="nonzero"/><g transform="translate(127.471 198.894)"><mask id="d" fill="#fff"><use xlink:href="#c"/></mask><path d="M20.78 11.346c0 5.88-4.652 10.647-10.389 10.647-5.738 0-10.39-4.767-10.39-10.647S4.652.697 10.39.697c5.737 0 10.39 4.768 10.39 10.65" fill="#0098D3" fill-rule="nonzero" mask="url(#d)"/></g><path d="M142.914 208.38c-.095 3.564-2.9 6.039-7.154 6.189-1.743.078-3-.388-4.162-.93 1.256.156 2.906-.232 3.774-.852-1.256-.077-2.03-.618-2.419-1.474.389.08.775.002 1.064.002-1.163-.31-1.932-.853-2.031-2.094.294.155.674.235 1.062.235-.869-.39-1.45-1.863-.768-2.792 1.255 1.087 2.799 2.019 5.316 2.176-.675-2.172 3-3.33 4.45-1.858.675-.075 1.161-.308 1.642-.458-.193.539-.58.85-1.062 1.159.482-.079.968-.153 1.354-.309-.1.386-.58.696-1.066 1.006" fill="#FEFEFE" fill-rule="nonzero"/><g transform="translate(55.038 199.788)" fill-rule="nonzero"><circle fill="url(#e)" cx="10.284" cy="10.284" r="10.284"/><path d="M13.049 4.113h-5.53a3.36 3.36 0 00-2.398.985A3.442 3.442 0 004.113 7.51v5.535c.014 1.891 1.537 3.416 3.406 3.409h5.53a3.36 3.36 0 002.402-.989c.639-.64 1-1.51 1.003-2.42V7.523c-.014-1.892-1.536-3.416-3.405-3.41zm2.311 8.944a2.341 2.341 0 01-.682 1.642 2.285 2.285 0 01-1.63.673h-5.53a2.285 2.285 0 01-1.629-.673 2.341 2.341 0 01-.682-1.642V7.51a2.341 2.341 0 01.682-1.642 2.285 2.285 0 011.63-.673h5.53c.612-.003 1.2.24 1.633.678.434.436.678 1.03.678 1.65v5.534z" fill="#FFF"/><path d="M10.25 7.404a2.88 2.88 0 102.913 2.88 2.89 2.89 0 00-2.913-2.88m0 4.77a1.89 1.89 0 111.912-1.89 1.9 1.9 0 01-1.912 1.89M13.992 5.759a.826.826 0 00-.587.245.816.816 0 000 1.16.825.825 0 001.403-.58.816.816 0 00-.241-.58.826.826 0 00-.588-.245" fill="#FFF"/></g><g><g transform="translate(79.183 199.788)"><mask id="g" fill="#fff"><use xlink:href="#f"/></mask><path d="M20.781 11.054c0 5.73-4.652 10.376-10.39 10.376S.001 16.784.001 11.054C0 5.324 4.652.68 10.39.68s10.39 4.645 10.39 10.375" fill="#FFE91B" fill-rule="nonzero" mask="url(#g)"/></g><g fill-rule="nonzero"><path d="M84.345 213.284c.362-.058.696-.206.987-.411.252-.162.488-.384.696-.649.363-.44.543-.87.572-.943v-.014c.097-.192.11-.37.054-.502-.11-.266-.445-.383-.68-.458l-.042-.015a.868.868 0 01-.112-.044 1.177 1.177 0 01-.362-.222c-.111-.102-.126-.206-.111-.265a.35.35 0 01.166-.221c.126-.073.293-.103.39-.044.32.163.585.207.78.104a.165.165 0 00.083-.147c0-.09-.014-.177-.014-.265v-.015c-.041-.767-.098-1.726.125-2.27a3.11 3.11 0 01.641-.974 2.799 2.799 0 011.961-.792h.209c.236 0 .696.03 1.197.266.292.134.542.31.765.531.264.266.487.59.64.975.237.546.168 1.504.126 2.257v.043c0 .06-.014.103-.014.162v.073c0 .06.028.12.083.149a.433.433 0 00.194.043h.028c.154-.013.32-.058.502-.146.07-.03.14-.03.166-.03.07 0 .126.015.195.046.153.058.266.177.266.295 0 .043-.015.118-.1.205-.082.09-.208.164-.387.25a.233.233 0 01-.099.032l-.041.013c-.223.073-.571.19-.682.457-.056.133-.042.31.057.515 0 .015 0 .015.012.031.126.295.822 1.74 2.255 1.994.055.013.097.059.097.132 0 .028-.014.06-.014.073-.04.09-.139.177-.306.265-.222.118-.57.207-1.03.279a.224.224 0 00-.11.089c-.029.044-.042.147-.07.28l-.014.074c-.015.06-.029.132-.042.192-.028.073-.069.117-.153.117-.042 0-.111 0-.223-.03-.154-.029-.348-.074-.598-.075-.152 0-.292.015-.43.045-.294.058-.558.235-.836.442-.377.278-.794.603-1.434.602h-.126c-.638-.002-1.057-.326-1.447-.607-.263-.19-.515-.384-.82-.443a2.143 2.143 0 00-.432-.045c-.25 0-.445.043-.585.073h-.012c-.07.015-.154.03-.223.03-.083 0-.14-.03-.168-.12a.875.875 0 01-.097-.25l-.014-.045c-.028-.118-.041-.22-.084-.28a.104.104 0 00-.096-.073 4.39 4.39 0 01-1.044-.282c-.153-.073-.265-.162-.307-.252-.014-.028-.014-.058-.014-.073v-.028c.056-.06.084-.09.126-.104" fill="#FEFEFE"/><path d="M89.688 205.438h-.21c-.34-.002-.7.062-1.07.236-.254.115-.476.27-.676.468a2.8 2.8 0 00-.576.875c-.102.248-.144.635-.14 1.174l.006.32.046.942c0 .168-.087.33-.245.414-.295.155-.649.105-1.078-.114.01.006.002.011-.014.017l-.06.027-.01.008.016.014c.027.028.091.07.197.122l.122.054.068.025c.464.146.732.298.867.627.083.194.075.419-.012.644l-.035.074-.003.025c-.091.234-.26.55-.493.864l-.123.156c-.23.293-.49.537-.76.71-.225.158-.468.283-.722.366l-.04.011.07.028c.162.059.355.112.56.156l.21.04c.176 0 .33.117.342.199.043.06.067.116.088.194l.04.172.038.137.024.06.15-.023-.05.006.115-.024a2.64 2.64 0 01.533-.056c.163 0 .338.018.49.05.228.045.415.133.657.296l.42.3c.394.281.66.414.988.443l.145.006h.125c.348 0 .613-.097.96-.33l.294-.212c.392-.292.646-.434.952-.495a2.33 2.33 0 01.834-.027l.338.06.03.007.012-.05.05-.255a.59.59 0 01.073-.203c.062-.1.154-.17.32-.227.383-.06.666-.13.852-.208l.061-.03-.079-.023a3.093 3.093 0 01-1.231-.81l-.15-.165c-.316-.37-.545-.762-.644-1.022l-.022-.03-.035-.066-.007-.027-.034-.08a.918.918 0 01-.046-.547l.033-.099c.122-.294.336-.438.716-.576l.15-.051.135-.029h-.033c.133-.065.216-.113.268-.157l.022-.022-.06-.025a.216.216 0 00-.051-.019l-.056-.002a1.774 1.774 0 01-.468.155l-.165.022h-.028a.737.737 0 01-.336-.08.46.46 0 01-.235-.33l-.007-.084.002-.132.011-.103v-.06l.036-.686.003-.103c.018-.626-.023-1.062-.143-1.34a2.586 2.586 0 00-.573-.872 2.312 2.312 0 00-.681-.472 2.447 2.447 0 00-.896-.232l-.172-.006zm5.561 7.992l-.007.078-.013.05.005-.05-.025.12a.803.803 0 01-.318.336l-.122.07c-.21.111-.498.198-.846.26l-.18.027-.077.38-.023.092c-.074.187-.22.308-.434.308a.943.943 0 01-.278-.036l-.134-.026a2.178 2.178 0 00-.409-.043c-.13 0-.249.012-.372.038-.17.034-.335.118-.584.294l-.274.2c-.464.34-.828.516-1.292.55l-.178.006h-.126c-.492 0-.852-.137-1.307-.44l-.445-.317c-.255-.184-.407-.266-.577-.3a1.841 1.841 0 00-.644-.018l-.31.054.05-.007c-.107.023-.2.036-.286.036-.216 0-.388-.114-.433-.277a1.293 1.293 0 01-.104-.24l-.016-.065-.02-.065-.032-.142-.122-.021a4.73 4.73 0 01-.752-.207l-.153-.062a1.021 1.021 0 01-.394-.3l-.055-.092-.01-.023a.41.41 0 01-.032-.121l-.002-.09.08-.205a.67.67 0 01.18-.154l.066-.028.1.28-.047-.294c.243-.039.478-.126.704-.258l.168-.109c.22-.141.432-.34.626-.587.215-.261.377-.534.473-.743l.05-.118.013-.04a.393.393 0 00.053-.216l-.009-.035c-.037-.09-.155-.167-.381-.248l-.268-.094-.029-.014c-.205-.092-.357-.184-.444-.277-.174-.16-.246-.373-.202-.541a.655.655 0 01.311-.427c.19-.11.418-.152.594-.09l.083.038c.18.091.316.13.41.128l.01-.002-.008-.12-.035-.817c-.019-.729.026-1.248.185-1.634.185-.426.416-.777.705-1.067.251-.25.533-.445.85-.589a3.022 3.022 0 011.142-.287l.182-.004h.208c.424 0 .87.08 1.322.294.321.147.601.342.854.593.304.306.544.667.703 1.067.144.332.197.768.193 1.36l-.008.335-.035.682-.002.102-.008.063.068-.008c.064-.013.132-.033.204-.061l.113-.05a.676.676 0 01.283-.053c.113 0 .209.023.303.066.261.1.46.316.46.576 0 .14-.06.285-.18.411a1.254 1.254 0 01-.344.248l-.119.06a.511.511 0 01-.145.058l-.047.01c-.304.099-.455.183-.498.286-.016.04-.013.106.02.196l.03.073.005.02.013.023c.095.22.241.483.435.742l.154.192c.402.469.881.782 1.46.885a.428.428 0 01.327.425z" fill="#1F140F"/></g></g><g fill-rule="nonzero"><path d="M30.096 221.183l1.502-5.447c-.977-1.691-1.502-3.569-1.502-5.523 0-5.935 4.883-10.82 10.856-10.82s10.933 4.885 10.933 10.82c0 5.936-4.96 10.97-10.933 10.97-1.878 0-3.68-.6-5.297-1.502l-5.56 1.502z" fill="#FEFEFE"/><path d="M35.956 217.727l.338.187c1.39.865 3.006 1.39 4.696 1.39 4.921 0 9.016-4.094 9.016-9.09 0-4.997-4.095-8.942-9.054-8.942-4.959 0-8.978 3.982-8.978 8.941 0 1.728.489 3.42 1.39 4.847l.225.338-.864 3.155 3.231-.826z" fill="#129F5C"/><path d="M38.06 205.18l-.714-.038a.852.852 0 00-.601.225c-.338.3-.902.865-1.052 1.616-.263 1.126.15 2.48 1.127 3.831.977 1.353 2.855 3.532 6.16 4.47 1.053.302 1.88.113 2.556-.3.526-.337.864-.864.976-1.427l.114-.526a.378.378 0 00-.189-.413l-2.366-1.09a.359.359 0 00-.451.113l-.94 1.202a.293.293 0 01-.3.075c-.638-.225-2.78-1.127-3.945-3.38-.037-.114-.037-.226.038-.301l.902-1.014c.075-.114.112-.263.075-.376l-1.09-2.442a.327.327 0 00-.3-.226" fill="#FEFEFE"/></g><g fill-rule="nonzero"><path d="M167.471 211.413v-2.91h-5.127v-9.484h-3.23v12.394h8.357zm4.286 0V199.02h-3.23v12.394h3.23zm7.629 0c2.385 0 4.188-1.502 4.188-3.68 0-1.465-.808-2.46-2.066-2.967.47-.526.751-1.24.751-2.085 0-2.197-1.821-3.662-4.188-3.662h-4.469v12.394h5.784zm-1.521-7.492H176.7v-2.179h1.164c.77 0 1.24.432 1.24 1.09 0 .657-.47 1.089-1.24 1.089zm1.314 4.77h-2.478v-2.179h2.478c.752 0 1.24.357 1.24 1.09 0 .732-.488 1.089-1.24 1.089zm8.737 2.722v-3.85h1.334l2.798 3.85h3.605l-3.267-4.6c1.201-.733 1.953-1.972 1.953-3.53 0-2.63-2.066-4.264-4.789-4.264h-4.864v12.394h3.23zm1.653-6.666h-1.653v-2.91h1.653c.901 0 1.483.581 1.483 1.445 0 .883-.582 1.465-1.483 1.465zm15.553 6.666v-2.91h-5.596v-2.16h3.831v-2.704h-3.83v-1.709h5.37v-2.91h-8.6v12.393h8.825zm5.507.226c2.554 0 4.545-1.427 4.545-3.869 0-1.821-1.108-2.873-3.174-3.737l-1.427-.6c-.77-.32-1.07-.545-1.07-1.015 0-.563.469-.788 1.107-.788.94 0 1.484.488 2.047 1.314l2.16-1.652c-.714-1.428-2.085-2.498-4.244-2.498-2.517 0-4.338 1.446-4.338 3.662 0 1.746 1.164 2.873 3.136 3.737l1.277.563c.864.376 1.258.564 1.258 1.146 0 .6-.413.901-1.277.901-1.39 0-2.16-.789-2.76-1.596l-2.179 1.653c.883 1.67 2.667 2.779 4.94 2.779z" fill="#DE2B85"/><path d="M163.552 220.356v-1.02h-3.649v-2.242h2.65v-.988h-2.65v-1.813h3.52v-1.02h-4.657v7.083h4.786zm7.157.118v-7.2h-1.137v4.775l-4.303-4.894h-.398v7.2h1.138v-4.796l4.314 4.915h.386zm5.934-.118v-2.737h1.299l2.017 2.737h1.298l-2.124-2.919a2.08 2.08 0 001.003-.773c.24-.35.36-.758.36-1.223 0-.637-.222-1.157-.666-1.561-.443-.404-1.023-.607-1.738-.607h-2.586v7.083h1.137zm1.427-3.745h-1.427v-2.329h1.427c.387 0 .692.107.918.322.225.215.338.497.338.848 0 .35-.113.631-.338.842-.226.211-.531.317-.918.317zm8.993 3.745v-1.02h-3.649v-2.242h2.65v-.988h-2.65v-1.813h3.52v-1.02h-4.657v7.083h4.786zm3.54 0c1.145 0 2.074-.333 2.785-.998.712-.666 1.068-1.517 1.068-2.554 0-1.052-.354-1.903-1.062-2.554-.708-.651-1.638-.977-2.79-.977h-2.221v7.083h2.22zm-.01-1.02h-1.073v-5.032h1.073c.823 0 1.477.227 1.964.681.486.454.73 1.06.73 1.819 0 .751-.245 1.36-.736 1.83-.49.468-1.142.702-1.958.702zm12.201 1.02v-1.234h.966v-.977h-.966v-2.178h-1.137v2.178h-2.114l2.006-4.872h-1.17l-2.264 5.538v.31h3.542v1.235h1.137zm5.355.118c.708 0 1.355-.168 1.942-.505a3.563 3.563 0 001.363-1.362v-1.996h-3.316v1.008h2.178v.762c-.465.716-1.17 1.073-2.114 1.073-.758 0-1.382-.252-1.872-.756-.49-.504-.735-1.136-.735-1.894 0-.751.238-1.374.713-1.867.476-.494 1.086-.74 1.83-.74.88 0 1.585.371 2.114 1.115l.826-.676c-.708-.987-1.685-1.48-2.93-1.48-1.03-.015-1.915.34-2.655 1.062-.74.722-1.1 1.588-1.079 2.597-.014 1.015.346 1.883 1.079 2.602.733.719 1.618 1.071 2.656 1.057z" fill="#4F008C"/></g><g fill-rule="nonzero"><path d="M108.335 181.264l1.703-6.174c-1.108-1.917-1.703-4.046-1.703-6.26 0-6.728 5.535-12.264 12.305-12.264s12.392 5.536 12.392 12.264-5.621 12.434-12.392 12.434c-2.129 0-4.172-.681-6.004-1.703l-6.301 1.703z" fill="#FEFEFE"/><path d="M114.977 177.346l.384.213c1.575.98 3.407 1.576 5.322 1.576 5.578 0 10.22-4.641 10.22-10.305 0-5.663-4.642-10.135-10.263-10.135-5.62 0-10.176 4.514-10.176 10.135 0 1.959.553 3.875 1.575 5.493l.255.383-.979 3.577 3.662-.937z" fill="#129F5C"/><path d="M117.362 163.124l-.81-.043c-.255 0-.51.085-.68.256-.384.34-1.023.98-1.193 1.831-.298 1.277.17 2.81 1.278 4.343 1.107 1.533 3.236 4.003 6.983 5.068 1.192.34 2.13.127 2.895-.34a2.51 2.51 0 001.108-1.62l.128-.595a.429.429 0 00-.214-.469l-2.682-1.234a.407.407 0 00-.511.127l-1.064 1.363a.332.332 0 01-.341.085c-.724-.255-3.152-1.277-4.472-3.832-.042-.128-.042-.256.043-.341l1.022-1.15c.086-.128.128-.297.086-.426l-1.236-2.767a.37.37 0 00-.34-.256" fill="#FEFEFE"/><g fill="#4F008C"><path d="M139.145 171.35V159.43h-2.438v11.919h2.438zm9.42 0v-2.204h-5.218v-9.715h-2.438v11.919h7.657zm3.281 0V159.43h-2.438v11.919h2.438zm4.202 0v-6.357l2.997 3.756h.795l2.998-3.756v6.357h2.438v-12.136h-.795l-5.038 6.447-5.039-6.447h-.794v12.136h2.438zm13.447 0V159.43h-2.438v11.919h2.438zm6.892 0v-9.716h3.829v-2.203h-10.077v2.203h3.81v9.716h2.438zm4.6 0l.667-1.553h4.876l.668 1.553h2.619l-5.31-12.136h-.812l-5.327 12.136h2.618zm4.694-3.558h-3.178l1.59-4.027 1.588 4.027zm8.698 3.558c1.878.024 3.438-.536 4.678-1.68 1.24-1.144 1.847-2.582 1.823-4.316.024-1.745-.577-3.175-1.805-4.289-1.228-1.113-2.793-1.658-4.696-1.634h-3.9v11.919h3.9zm-.018-2.204h-1.444v-7.512h1.444c1.228 0 2.203.331 2.926.993.722.663 1.083 1.571 1.083 2.727 0 1.144-.367 2.062-1.101 2.754-.735.692-1.704 1.038-2.908 1.038zm13.25 2.42c1.72.036 3.216-.56 4.487-1.788 1.27-1.228 1.893-2.69 1.869-4.388.024-1.697-.6-3.16-1.87-4.388-1.27-1.228-2.765-1.824-4.487-1.788-1.721-.036-3.211.56-4.47 1.788-1.257 1.228-1.874 2.69-1.85 4.388-.024 1.698.593 3.16 1.85 4.388 1.259 1.228 2.749 1.824 4.47 1.788zm.017-2.257c-1.107 0-2.022-.367-2.745-1.102-.722-.734-1.083-1.673-1.083-2.817 0-1.143.361-2.082 1.083-2.817.723-.734 1.638-1.101 2.745-1.101 1.096 0 2.008.37 2.736 1.11.728.74 1.093 1.677 1.093 2.808 0 1.144-.365 2.083-1.093 2.817-.728.735-1.64 1.102-2.736 1.102zM136.807 175.583a.689.689 0 00.695-.704.674.674 0 00-.199-.497.674.674 0 00-.496-.198.689.689 0 00-.705.695.689.689 0 00.704.704zm.569 4.66l-.181-3.793h-.786l-.18 3.792h1.147zm2.067 0v-5.96h-.957v5.96h.957zm5.87.099v-6.059h-.958v4.018l-3.62-4.117h-.335v6.058h.957v-4.036l3.63 4.136h.325zm3.737 0c.548 0 1.046-.122 1.495-.366.448-.244.802-.58 1.06-1.007l-.722-.533c-.44.687-1.047 1.03-1.824 1.03-.614 0-1.125-.21-1.535-.628-.409-.418-.614-.943-.614-1.575s.205-1.158.614-1.576c.41-.418.921-.627 1.535-.627.777 0 1.385.343 1.824 1.029l.722-.533a2.8 2.8 0 00-1.065-1.002 3.055 3.055 0 00-1.49-.37c-.855-.012-1.595.286-2.221.894-.626.608-.93 1.336-.912 2.185-.018.848.286 1.577.912 2.185.626.608 1.366.906 2.221.894zm6.844-.1v-.857h-2.727v-5.102h-.957v5.96h3.684zm2.727.1c.716 0 1.302-.226 1.756-.678.455-.451.682-1.062.682-1.832v-3.549h-.957v3.612c0 .493-.136.879-.406 1.155-.271.277-.63.416-1.075.416-.451 0-.814-.139-1.088-.416-.274-.276-.41-.662-.41-1.155v-3.612h-.958v3.549c0 .77.227 1.381.682 1.832.454.452 1.046.678 1.774.678zm5.86-.1v-2.401l2.059-3.558h-1.057l-1.48 2.591-1.472-2.59h-1.066l2.059 3.557v2.401h.957zm6.555 0v-.857h-3.07v-1.888h2.23v-.83h-2.23v-1.526h2.962v-.858h-3.919v5.96h4.027zm6.24 0v-.857h-2.728v-5.102h-.957v5.96h3.684zm4.107 0v-.857h-2.726v-5.102h-.957v5.96h3.683zm.894 0l.425-.993h2.681l.425.993h1.03l-2.628-6.058h-.325l-2.628 6.058h1.02zm2.763-1.815h-1.995l1.002-2.464.993 2.464zm3.16 1.815v-3.747l1.716 2.248h.325l1.707-2.239v3.738h.957v-6.058h-.325l-2.501 3.332-2.502-3.332h-.334v6.058h.957zm6.131 0l.425-.993h2.681l.425.993h1.029l-2.628-6.058h-.325l-2.627 6.058h1.02zm2.763-1.815H195.1l1.002-2.464.993 2.464zm4.072 1.815c.963 0 1.744-.28 2.343-.84.6-.56.899-1.276.899-2.148 0-.885-.298-1.601-.894-2.15-.596-.547-1.379-.82-2.348-.82h-1.869v5.958h1.87zm-.009-.857h-.903v-4.235h.903c.693 0 1.243.191 1.653.573.409.382.614.893.614 1.53 0 .633-.207 1.146-.619 1.54-.412.394-.962.592-1.648.592zm4.172.857l.424-.993h2.682l.424.993h1.03l-2.628-6.058h-.325l-2.628 6.058h1.02zm2.763-1.815h-1.996l1.002-2.464.994 2.464zm3.981 1.915c.578 0 1.055-.16 1.432-.479.376-.319.564-.734.564-1.246 0-.385-.113-.707-.339-.966-.225-.259-.588-.503-1.088-.731l-.668-.307a.803.803 0 00-.081-.046 55.723 55.723 0 00-.352-.18 1.26 1.26 0 01-.19-.14.49.49 0 01-.167-.217 1.157 1.157 0 01-.04-.266c0-.229.084-.406.252-.533.169-.126.386-.19.65-.19.512 0 .93.241 1.255.723l.669-.515a2.062 2.062 0 00-.79-.776 2.259 2.259 0 00-1.134-.29c-.53 0-.975.151-1.336.452-.361.301-.542.69-.542 1.165 0 .38.116.697.348.953.232.255.58.489 1.043.7l.659.306c.331.157.56.294.686.411.127.118.19.279.19.483a.733.733 0 01-.285.605c-.19.15-.438.226-.745.226-.607 0-1.128-.316-1.562-.948l-.677.514a2.546 2.546 0 002.248 1.291zm3.793-2.131l.171-3.928H214.9l.18 3.928h.786zm-.389 2.13a.674.674 0 00.497-.198.674.674 0 00.199-.497.685.685 0 00-.199-.505.674.674 0 00-.497-.199.689.689 0 00-.704.704.689.689 0 00.704.695z"/></g><path fill="#4F008C" d="M103.49 159.426v19.511h-1v-19.51zM28.712 176.019l9.595-.019v-2.736h-3.876l.893-.931c.963-1.013 1.66-1.89 2.09-2.631.43-.741.646-1.524.646-2.347 0-1.178-.44-2.16-1.32-2.945-.88-.785-1.973-1.178-3.278-1.178-1.343-.025-2.467.402-3.372 1.283-.906.88-1.346 1.877-1.32 2.992 0 .367.043.722.132 1.064h3.287a4.882 4.882 0 01-.076-.836c0-.469.117-.836.352-1.102.234-.266.547-.399.94-.399.393 0 .71.127.95.38s.361.602.361 1.045c0 .76-.5 1.685-1.5 2.774l-4.504 4.921v.665zm14.43.209c1.646 0 2.926-.614 3.838-1.843.912-1.229 1.368-2.812 1.368-4.75 0-1.913-.453-3.458-1.359-4.636-.906-1.178-2.188-1.767-3.847-1.767-1.66 0-2.942.589-3.848 1.767-.906 1.178-1.358 2.723-1.358 4.636 0 1.938.456 3.521 1.368 4.75.912 1.229 2.19 1.843 3.838 1.843zm0-3.002c-1.242 0-1.862-1.19-1.862-3.572 0-1.178.152-2.043.456-2.594.304-.55.772-.826 1.406-.826.633 0 1.102.275 1.406.826.304.551.456 1.416.456 2.594 0 2.381-.621 3.572-1.862 3.572zm10.021 3.002c1.647 0 2.926-.614 3.838-1.843.912-1.229 1.368-2.812 1.368-4.75 0-1.913-.453-3.458-1.358-4.636-.906-1.178-2.189-1.767-3.848-1.767-1.66 0-2.942.589-3.847 1.767-.906 1.178-1.359 2.723-1.359 4.636 0 1.938.456 3.521 1.368 4.75.912 1.229 2.191 1.843 3.838 1.843zm0-3.002c-1.241 0-1.862-1.19-1.862-3.572 0-1.178.152-2.043.456-2.594.304-.55.773-.826 1.406-.826.633 0 1.102.275 1.406.826.304.551.456 1.416.456 2.594 0 2.381-.62 3.572-1.862 3.572zm10.021 3.002c1.647 0 2.926-.614 3.838-1.843.912-1.229 1.368-2.812 1.368-4.75 0-1.913-.452-3.458-1.358-4.636-.906-1.178-2.188-1.767-3.848-1.767-1.659 0-2.941.589-3.847 1.767-.906 1.178-1.359 2.723-1.359 4.636 0 1.938.456 3.521 1.368 4.75.912 1.229 2.192 1.843 3.838 1.843zm0-3.002c-1.24 0-1.862-1.19-1.862-3.572 0-1.178.152-2.043.456-2.594.304-.55.773-.826 1.406-.826.634 0 1.102.275 1.406.826.304.551.456 1.416.456 2.594 0 2.381-.62 3.572-1.862 3.572zM74.492 176v-7.47l3.42 4.482h.648l3.402-4.464V176h1.908v-12.078h-.648l-4.986 6.642-4.986-6.642h-.666V176h1.908zm12.421 0v-11.88h-1.908V176h1.908zm10.928.198V164.12h-1.908v8.01l-7.218-8.208h-.666V176h1.908v-8.046l7.236 8.244h.648z"/></g><path fill="#E8E8E8" fill-rule="nonzero" d="M233 188v1H14v-1z"/><path d="M82.441 238v-3.262h1.582c.97 0 1.769-.28 2.394-.84.625-.56.938-1.279.938-2.156 0-.887-.313-1.605-.938-2.156-.625-.55-1.423-.826-2.394-.826h-3.472V238h1.89zm1.582-4.914h-1.582v-2.66h1.582c.42 0 .758.121 1.015.364.257.243.385.56.385.952 0 .401-.124.726-.371.973s-.59.371-1.029.371zM90.015 238l.518-1.204h3.78l.518 1.204h2.03l-4.116-9.408h-.63L87.985 238h2.03zm3.64-2.758h-2.464l1.232-3.122 1.232 3.122zm6.356 2.758v-3.262h1.386l2.394 3.262h2.128l-2.618-3.626a2.84 2.84 0 001.624-2.632c0-.887-.313-1.605-.938-2.156-.625-.55-1.423-.826-2.394-.826h-3.472V238h1.89zm1.582-4.928h-1.582v-2.646h1.582c.42 0 .758.121 1.015.364.257.243.385.56.385.952 0 .401-.124.723-.371.966s-.59.364-1.029.364zm6.636 4.928l.518-1.204h3.78l.518 1.204h2.03l-4.116-9.408h-.63l-4.13 9.408h2.03zm3.64-2.758h-2.464l1.232-3.122 1.232 3.122zm11.312 2.926c.943 0 1.717-.254 2.324-.763.607-.509.91-1.178.91-2.009 0-.616-.182-1.132-.546-1.547-.364-.415-.943-.8-1.736-1.155l-1.05-.462c-.41-.187-.693-.352-.847-.497a.742.742 0 01-.231-.567c0-.28.107-.5.322-.658.215-.159.49-.238.826-.238.7 0 1.288.355 1.764 1.064l1.288-.994a3.35 3.35 0 00-1.232-1.281c-.523-.313-1.13-.469-1.82-.469-.887 0-1.62.24-2.198.721-.579.48-.868 1.113-.868 1.897 0 1.11.747 1.997 2.24 2.66l.994.448c.467.215.78.394.938.539.159.145.238.348.238.609 0 .317-.117.567-.35.749-.233.182-.555.273-.966.273-.859 0-1.615-.448-2.268-1.344l-1.302.98a4.027 4.027 0 001.477 1.498c.62.364 1.318.546 2.093.546zm6.79-.168v-9.24h-1.89V238h1.89zm8.498 0v-1.708h-4.494v-2.338h3.178v-1.61h-3.178v-1.876h4.326v-1.708h-6.216V238h6.384zm3.528 0v-4.928l2.324 2.912h.616l2.324-2.912V238h1.89v-9.408h-.616l-3.906 4.998-3.906-4.998h-.616V238h1.89zm11.172 0v-3.262h1.582c.97 0 1.769-.28 2.394-.84.625-.56.938-1.279.938-2.156 0-.887-.313-1.605-.938-2.156-.625-.55-1.423-.826-2.394-.826h-3.472V238h1.89zm1.582-4.914h-1.582v-2.66h1.582c.42 0 .758.121 1.015.364.257.243.385.56.385.952 0 .401-.124.726-.371.973s-.59.371-1.029.371zm6.734 4.914v-3.262h1.386l2.394 3.262h2.128l-2.618-3.626a2.84 2.84 0 001.624-2.632c0-.887-.313-1.605-.938-2.156-.625-.55-1.423-.826-2.394-.826h-3.472V238h1.89zm1.582-4.928h-1.582v-2.646h1.582c.42 0 .758.121 1.015.364.257.243.385.56.385.952 0 .401-.124.723-.371.966s-.59.364-1.029.364zM174.939 238v-1.708h-4.494v-2.338h3.178v-1.61h-3.178v-1.876h4.326v-1.708h-6.216V238h6.384z" fill="#DB167A" fill-rule="nonzero"/><path d="M34.431 92.192V81.44h-2.16v6.304l-6.128-6.496h-.704V92h2.16v-6.336l6.113 6.528h.72zm6.7 0c1.302 0 2.374-.416 3.216-1.248.843-.832 1.264-1.936 1.264-3.312V81.44h-2.16v6.352c0 .757-.21 1.347-.632 1.768-.42.421-.983.632-1.688.632-.693 0-1.253-.21-1.68-.632-.426-.421-.64-1.01-.64-1.768V81.44h-2.16v6.192c0 1.376.42 2.48 1.256 3.312.838.832 1.913 1.248 3.225 1.248zM55.145 92v-1.952h-5.136v-2.672h3.631v-1.84h-3.632v-2.144h4.945V81.44h-7.105V92h7.297zm6.203.192l4.705-10.752h-2.433l-2.623 6.4-2.64-6.4h-2.449l4.72 10.752h.72zm11 0c1.407-.036 2.638-.564 3.693-1.584 1.125-1.088 1.677-2.384 1.655-3.888.022-1.504-.53-2.8-1.655-3.888-1.126-1.088-2.451-1.616-3.977-1.584-1.525-.032-2.845.496-3.96 1.584-1.114 1.088-1.66 2.384-1.64 3.888-.02 1.504.526 2.8 1.64 3.888 1.115 1.088 2.435 1.616 3.96 1.584h.284zm-.267-2c-.982 0-1.793-.325-2.433-.976-.64-.65-.96-1.483-.96-2.496s.32-1.845.96-2.496c.64-.65 1.451-.976 2.432-.976.971 0 1.78.328 2.425.984.645.656.968 1.485.968 2.488 0 1.013-.323 1.845-.968 2.496-.646.65-1.454.976-2.425.976zM85.286 92v-4.416h2.464c1.014 0 1.83-.288 2.448-.864.62-.576.928-1.317.928-2.224 0-.896-.309-1.63-.927-2.2-.62-.57-1.435-.856-2.449-.856H84.04V92h1.248zm2.432-5.536h-2.431V82.56h2.431c.662 0 1.18.179 1.553.536.373.357.56.83.56 1.416 0 .597-.187 1.072-.56 1.424-.374.352-.891.528-1.553.528zM99.364 92v-1.12h-5.008v-9.44h-1.248V92h6.255zm2.091 0l.897-2.144h5.183l.897 2.144h1.328l-4.577-10.736h-.464L100.144 92h1.311zm5.6-3.264h-4.224l2.112-5.2 2.112 5.2zm12.972 3.44V81.44h-1.248v7.936l-6.72-8.112h-.447V92h1.248v-7.92l6.72 8.096h.448z" fill="#4D008C" fill-rule="nonzero"/><g fill="#4D008C" fill-rule="nonzero"><path d="M36.102 60.66c4.106 0 7.553-1.22 10.34-3.657 2.786-2.439 4.18-5.51 4.18-9.213.073-3.41-1.146-6.233-3.658-8.47-2.511-2.237-5.344-3.318-8.497-3.245-1.027 0-2.182.128-3.465.385v-4.235h13.53V23.7H26.037v20.515h8.635c4.18 0 6.27 1.228 6.27 3.685 0 1.283-.477 2.283-1.43 2.998-.954.715-2.219 1.072-3.795 1.072-1.504 0-2.796-.357-3.878-1.072-1.081-.715-2.172-1.898-3.272-3.548l-6.545 4.62c1.246 2.713 3.107 4.84 5.582 6.38 2.475 1.54 5.308 2.31 8.498 2.31zm33.073 0c4.767 0 8.47-1.778 11.11-5.335 2.64-3.557 3.96-8.14 3.96-13.75 0-5.537-1.31-10.01-3.932-13.42s-6.335-5.115-11.138-5.115-8.516 1.705-11.137 5.115c-2.622 3.41-3.933 7.883-3.933 13.42 0 5.61 1.32 10.193 3.96 13.75 2.64 3.557 6.343 5.335 11.11 5.335zm0-8.69c-3.593 0-5.39-3.447-5.39-10.34 0-3.41.44-5.913 1.32-7.508.88-1.595 2.237-2.392 4.07-2.392 1.833 0 3.19.797 4.07 2.392.88 1.595 1.32 4.098 1.32 7.508 0 6.893-1.797 10.34-5.39 10.34zM92.951 38.508c1.344 0 2.497-.453 3.458-1.358.962-.905 1.442-2.011 1.442-3.318 0-1.325-.476-2.431-1.428-3.318s-2.109-1.33-3.472-1.33c-1.362 0-2.52.443-3.472 1.33s-1.428 1.993-1.428 3.318c0 1.307.481 2.413 1.442 3.318.962.905 2.114 1.358 3.458 1.358zM95.415 48l10.696-18.48h-3.78L91.663 48h3.752zM92.98 35.232c-.41 0-.728-.126-.952-.378-.224-.252-.336-.593-.336-1.022 0-.43.117-.77.35-1.022.234-.252.546-.378.938-.378.355 0 .649.13.882.392.234.261.35.597.35 1.008 0 .43-.116.77-.35 1.022a1.15 1.15 0 01-.882.378zm11.816 13.076c1.344 0 2.497-.453 3.458-1.358.962-.905 1.442-2.011 1.442-3.318 0-1.325-.476-2.431-1.428-3.318s-2.109-1.33-3.472-1.33c-1.362 0-2.52.443-3.472 1.33s-1.428 1.993-1.428 3.318c0 1.307.481 2.413 1.442 3.318.962.905 2.114 1.358 3.458 1.358zm.028-3.276c-.41 0-.728-.126-.952-.378-.224-.252-.336-.593-.336-1.022 0-.43.117-.77.35-1.022.234-.252.546-.378.938-.378.355 0 .649.13.882.392.234.261.35.597.35 1.008 0 .43-.116.77-.35 1.022a1.15 1.15 0 01-.882.378zM88.684 61c.96 0 1.738-.279 2.335-.837.597-.558.896-1.272.896-2.142 0-.882-.297-1.596-.891-2.142-.594-.546-1.374-.819-2.34-.819H86.82V61h1.863zm-.01-.855h-.9v-4.221h.9c.69 0 1.24.19 1.648.571.408.381.612.89.612 1.526 0 .63-.206 1.141-.617 1.534-.411.393-.958.59-1.642.59zm6.898.954c.546 0 1.042-.122 1.489-.365.447-.243.8-.577 1.058-1.003l-.72-.531c-.438.684-1.044 1.026-1.818 1.026-.612 0-1.122-.209-1.53-.626-.408-.417-.612-.94-.612-1.57 0-.63.204-1.154.612-1.57.408-.418.918-.626 1.53-.626.774 0 1.38.342 1.818 1.026l.72-.531a2.792 2.792 0 00-1.062-.999 3.045 3.045 0 00-1.485-.369c-.852-.012-1.59.285-2.214.891-.624.606-.927 1.332-.91 2.178-.017.846.286 1.572.91 2.178.624.606 1.362.903 2.214.891zM101.37 61v-5.085h2.007v-.855H98.42v.855h1.997V61h.955zm5.277.099c.846.012 1.583-.285 2.21-.891.627-.606.931-1.332.913-2.178.018-.846-.286-1.572-.913-2.178-.627-.606-1.364-.903-2.21-.891-.852-.012-1.587.285-2.205.891-.618.606-.92 1.332-.909 2.178-.018.846.284 1.572.905 2.178.621.606 1.357.903 2.21.891zm.01-.873c-.619 0-1.129-.209-1.53-.626-.403-.417-.604-.943-.604-1.579 0-.63.203-1.152.608-1.566.405-.414.913-.621 1.525-.621.606 0 1.113.209 1.521.625.408.418.612.938.612 1.562 0 .63-.204 1.155-.612 1.575-.408.42-.915.63-1.52.63zM126.228 51v-5.592h2.712c1.664 0 3.032-.48 4.104-1.44s1.608-2.192 1.608-3.696c0-1.52-.536-2.752-1.608-3.696-1.072-.944-2.44-1.416-4.104-1.416h-5.952V51h3.24zm2.712-8.424h-2.712v-4.56h2.712c.72 0 1.3.208 1.74.624.44.416.66.96.66 1.632 0 .688-.212 1.244-.636 1.668-.424.424-1.012.636-1.764.636zm14 8.712c2.288.048 4.276-.744 5.964-2.376 1.688-1.632 2.516-3.576 2.484-5.832.032-2.256-.796-4.2-2.484-5.832-1.688-1.632-3.676-2.424-5.964-2.376-2.288-.048-4.268.744-5.94 2.376-1.672 1.632-2.492 3.576-2.46 5.832-.032 2.256.788 4.2 2.46 5.832 1.672 1.632 3.652 2.424 5.94 2.376zm.024-3c-1.472 0-2.688-.488-3.648-1.464s-1.44-2.224-1.44-3.744.48-2.768 1.44-3.744c.96-.976 2.176-1.464 3.648-1.464 1.456 0 2.668.492 3.636 1.476s1.452 2.228 1.452 3.732c0 1.52-.484 2.768-1.452 3.744-.968.976-2.18 1.464-3.636 1.464zM155.572 51v-5.592h2.376L162.052 51h3.648l-4.488-6.216c.88-.432 1.564-1.044 2.052-1.836s.732-1.684.732-2.676c0-1.52-.536-2.752-1.608-3.696-1.072-.944-2.44-1.416-4.104-1.416h-5.952V51h3.24zm2.712-8.448h-2.712v-4.536h2.712c.72 0 1.3.208 1.74.624.44.416.66.96.66 1.632 0 .688-.212 1.24-.636 1.656-.424.416-1.012.624-1.764.624zM176.444 51V35.16h-1.08l-5.928 1.944.768 2.856 3-.96v12h3.24zm7.912 0l.888-2.064h6.48l.888 2.064h3.48l-7.056-16.128h-1.08L180.876 51h3.48zm6.24-4.728h-4.224l2.112-5.352 2.112 5.352zM205.22 33.6c.784 0 1.44-.3 1.968-.9.528-.6.792-1.38.792-2.34 0-.048-.016-.312-.048-.792h-2.472v.288c0 .544-.224.816-.672.816-.304 0-.664-.136-1.08-.408l-.72-.432c-.624-.336-1.216-.504-1.776-.504-.8 0-1.464.3-1.992.9-.528.6-.792 1.372-.792 2.316 0 .064.016.336.048.816h2.472v-.288c0-.528.224-.792.672-.792.24 0 .592.136 1.056.408l.72.384c.64.352 1.248.528 1.824.528zm4.728 17.688V35.16h-3.24v9.456l-9.192-9.744h-1.056V51h3.24v-9.504l9.168 9.792h1.08zm9.32 0c2.288.048 4.276-.744 5.964-2.376 1.688-1.632 2.516-3.576 2.484-5.832.032-2.256-.796-4.2-2.484-5.832-1.688-1.632-3.676-2.424-5.964-2.376-2.288-.048-4.268.744-5.94 2.376-1.672 1.632-2.492 3.576-2.46 5.832-.032 2.256.788 4.2 2.46 5.832 1.672 1.632 3.652 2.424 5.94 2.376zm.024-3c-1.472 0-2.688-.488-3.648-1.464s-1.44-2.224-1.44-3.744.48-2.768 1.44-3.744c.96-.976 2.176-1.464 3.648-1.464 1.456 0 2.668.492 3.636 1.476s1.452 2.228 1.452 3.732c0 1.52-.484 2.768-1.452 3.744-.968.976-2.18 1.464-3.636 1.464z"/></g></g></svg>