<svg xmlns="http://www.w3.org/2000/svg" xmlns:xlink="http://www.w3.org/1999/xlink" width="256" height="392" xmlns:v="https://vecta.io/nano"><g fill="none" fill-rule="evenodd"><path d="M25.9 380v-2.55h1.35c.66 0 1.198-.2 1.615-.57s.625-.867.625-1.46-.207-1.078-.62-1.455-.953-.565-1.62-.565h0-2.4v6.6h1.06zm1.33-3.5H25.9v-2.17h1.33c.367 0 .653.098.86.295s.3.462.3.795-.103.597-.3.8-.493.3-.86.3h0zm4.4 3.5v-2.55h1.2L34.7 380h1.2l-1.98-2.72c.4-.153.712-.393.935-.72a1.97 1.97 0 0 0 .335-1.14c0-.593-.207-1.078-.62-1.455s-.953-.565-1.62-.565h0-2.4v6.6h1.06zm1.33-3.5h-1.33v-2.17h1.33c.36 0 .645.1.855.3a1.04 1.04 0 0 1 .315.79c0 .327-.105.588-.315.785s-.495.295-.855.295h0zm8.28 3.5v-.95h-3.4v-2.1h2.47v-.92h-2.47v-1.7h3.28v-.95h-4.34v6.6h4.46zm4.05.1c.607 0 1.158-.135 1.655-.405a3.05 3.05 0 0 0 1.175-1.115h0l-.8-.6c-.487.76-1.16 1.14-2.02 1.14-.68 0-1.247-.232-1.7-.695s-.68-1.045-.68-1.745.227-1.282.68-1.745 1.02-.695 1.7-.695c.86 0 1.533.38 2.02 1.14h0l.8-.6a3.1 3.1 0 0 0-1.18-1.11c-.5-.273-1.05-.4-1.65-.4a3.34 3.34 0 0 0-2.46.99c-.693.673-1.03 1.48-1 2.42-.02.94.317 1.747 1 2.42a3.34 3.34 0 0 0 2.46.99zm5.06-.1v-6.6h-1.06v6.6h1.06zm4.62.1c.94.013 1.758-.317 2.455-1s1.035-1.48 1.015-2.42c.02-.94-.318-1.747-1.015-2.42s-1.515-1.003-2.455-1c-.947-.013-1.763.317-2.45 1a3.2 3.2 0 0 0-1.01 2.42 3.16 3.16 0 0 0 1.005 2.42c.7.673 1.508 1.003 2.455 1zm.01-.97c-.687 0-1.253-.232-1.7-.695s-.67-1.048-.67-1.755c0-.7.225-1.28.675-1.74s1.015-.7 1.695-.7c.673 0 1.237.232 1.7.695s.68 1.042.68 1.735c0 .7-.227 1.283-.68 1.75a2.26 2.26 0 0 1-1.69.7zm12.77.97v-6.7h-1.06v4.45l-4-4.56h-.37v6.7h1.06v-4.47l4.02 4.58h.36zm4.63 0c.94.013 1.758-.317 2.455-1s1.035-1.48 1.015-2.42c.02-.94-.318-1.747-1.015-2.42s-1.515-1.003-2.455-1c-.947-.013-1.763.317-2.45 1a3.2 3.2 0 0 0-1.01 2.42 3.16 3.16 0 0 0 1.005 2.42c.7.673 1.508 1.003 2.455 1zm.01-.97c-.687 0-1.253-.232-1.7-.695S70 377.397 70 376.7c0-.7.225-1.28.675-1.74s1.015-.7 1.695-.7c.673 0 1.237.232 1.7.695s.68 1.042.68 1.735c0 .7-.227 1.283-.68 1.75a2.26 2.26 0 0 1-1.69.7zm5.7.86v-2.55h1.2l1.88 2.55h1.2l-1.98-2.72c.4-.153.712-.393.935-.72a1.97 1.97 0 0 0 .335-1.14c0-.593-.207-1.078-.62-1.455s-.953-.565-1.62-.565h0H77v6.6h1.06zm1.33-3.5h-1.33v-2.17h1.33c.36 0 .645.1.855.3a1.04 1.04 0 0 1 .315.79c0 .327-.105.588-.315.785s-.495.295-.855.295h0zm4.88 3.5v-4.15l1.9 2.5h.36l1.9-2.48V380h1.06v-6.7h-.36l-2.77 3.7-2.77-3.7h-.37v6.7h1.06zm7.3 0l.47-1.1H95l.47 1.1h1.14l-2.9-6.7h-.36l-2.9 6.7h1.13zm3.06-2h-2.2l1.1-2.73 1.1 2.73zm7.02 2v-.95h-3.02v-5.65h-1.06v6.6h4.08zm5.5.95v-1.2c.507-.073.912-.26 1.215-.56s.455-.677.455-1.13c0-.76-.497-1.33-1.5-1.7h0l-.74-.28c-.293-.127-.5-.248-.62-.365s-.18-.268-.18-.455a.56.56 0 0 1 .26-.495c.173-.117.393-.175.66-.175.487 0 .9.247 1.24.74h0l.72-.54c-.347-.62-.853-1-1.52-1.1h0v-1.17h-.97v1.2c-.433.087-.782.27-1.045.55s-.395.62-.395 1.02c0 .733.483 1.3 1.45 1.67h0l.7.27c.32.14.548.273.685.4s.205.287.205.48c0 .233-.097.42-.3.56s-.447.2-.76.2c-.66 0-1.207-.337-1.64-1h0l-.73.54c.413.747 1.023 1.197 1.83 1.35h0v1.2h.97zm5-.95v-6.6h-.37l-2.3.75.26.93 1.34-.43V380h1.06zm3.47 0l1.64-2.33.5-.75c.127-.22.22-.423.28-.6.08-.233.12-.477.12-.73a2.12 2.12 0 0 0-.68-1.635c-.467-.45-1.017-.668-1.65-.655a2.3 2.3 0 0 0-1.65.66c-.46.44-.7.98-.7 1.62a2.12 2.12 0 0 0 .65 1.565c.433.43.937.645 1.5.645a1.29 1.29 0 0 0 .29-.03h0l-1.6 2.25h1.26zm.22-3.12a1.26 1.26 0 0 1-.93-.37c-.247-.247-.37-.56-.37-.94a1.26 1.26 0 0 1 .37-.93c.253-.253.563-.38.93-.38a1.24 1.24 0 0 1 .91.38 1.26 1.26 0 0 1 .37.93 1.26 1.26 0 0 1-.37.93 1.24 1.24 0 0 1-.91.38zm3.58 3.23c.22 0 .403-.073.55-.22s.22-.33.22-.55c0-.227-.073-.413-.22-.56s-.33-.22-.55-.22a.77.77 0 0 0-.56.225c-.153.15-.23.335-.23.555a.73.73 0 0 0 .23.55.78.78 0 0 0 .56.22zm3.66-.1l1.64-2.33.5-.75c.127-.22.22-.423.28-.6.08-.233.12-.477.12-.73a2.12 2.12 0 0 0-.68-1.635c-.467-.45-1.017-.668-1.65-.655a2.3 2.3 0 0 0-1.65.66c-.46.44-.7.98-.7 1.62a2.12 2.12 0 0 0 .65 1.565c.433.43.937.645 1.5.645a1.29 1.29 0 0 0 .29-.03h0l-1.6 2.25h1.26zm.22-3.12a1.26 1.26 0 0 1-.93-.37c-.247-.247-.37-.56-.37-.94a1.26 1.26 0 0 1 .37-.93c.253-.253.563-.38.93-.38a1.24 1.24 0 0 1 .91.38 1.26 1.26 0 0 1 .37.93 1.26 1.26 0 0 1-.37.93 1.24 1.24 0 0 1-.91.38zm5.24 3.12l1.64-2.33.5-.75c.127-.22.22-.423.28-.6.08-.233.12-.477.12-.73a2.12 2.12 0 0 0-.68-1.635c-.467-.45-1.017-.668-1.65-.655a2.3 2.3 0 0 0-1.65.66c-.46.44-.7.98-.7 1.62a2.12 2.12 0 0 0 .65 1.565c.433.43.937.645 1.5.645a1.29 1.29 0 0 0 .29-.03h0l-1.6 2.25h1.26zm.22-3.12a1.26 1.26 0 0 1-.93-.37c-.247-.247-.37-.56-.37-.94a1.26 1.26 0 0 1 .37-.93c.253-.253.563-.38.93-.38a1.24 1.24 0 0 1 .91.38 1.26 1.26 0 0 1 .37.93 1.26 1.26 0 0 1-.37.93 1.24 1.24 0 0 1-.91.38zm5.8 3.23c.813 0 1.435-.322 1.865-.965s.645-1.478.645-2.505c0-1.013-.213-1.823-.64-2.43-.42-.613-1.043-.92-1.87-.92s-1.453.3-1.88.93c-.427.607-.64 1.413-.64 2.42 0 1.02.217 1.853.65 2.5s1.057.97 1.87.97zm0-.97c-.947 0-1.42-.83-1.42-2.5 0-1.593.473-2.4 1.42-2.4.94 0 1.4.797 1.4 2.4 0 1.66-.47 2.5-1.4 2.5zm8.62.86c1.067 0 1.932-.3 2.595-.93s.995-1.413.995-2.38c0-.98-.33-1.773-1-2.38s-1.527-.9-2.6-.9h0-2.07v6.6h2.07zm-.01-.95h-1v-4.7h1c.767 0 1.377.212 1.83.635s.68.988.68 1.695c0 .7-.228 1.268-.685 1.705s-1.065.655-1.825.655h0zm9.22.95v-.95H149v-2.1h2.47v-.92H149v-1.7h3.28v-.95h-4.34v6.6h4.46zm3.15.1c.64 0 1.168-.177 1.585-.53s.625-.813.625-1.38c0-.427-.125-.783-.375-1.07s-.652-.557-1.205-.8h0l-.74-.34a.89.89 0 0 0-.09-.05l-.4-.2c-.04-.02-.1-.072-.2-.155s-.162-.163-.185-.24a1.28 1.28 0 0 1-.045-.295c0-.253.093-.45.28-.6s.427-.2.72-.2c.567 0 1.03.267 1.4.8h0l.74-.57c-.207-.36-.498-.647-.875-.86s-.795-.32-1.255-.32c-.587 0-1.08.167-1.48.5a1.6 1.6 0 0 0-.6 1.29c0 .42.128.772.385 1.055s.642.542 1.155.775h0l.73.34c.367.173.62.325.76.455s.2.308.2.535a.81.81 0 0 1-.315.67c-.2.167-.485.25-.825.25-.673 0-1.25-.35-1.73-1.05h0l-.75.57c.26.447.607.797 1.04 1.05a2.82 2.82 0 0 0 1.45.38zm4.53-.1v-2.55h1.35c.66 0 1.198-.2 1.615-.57s.625-.867.625-1.46-.207-1.078-.62-1.455-.953-.565-1.62-.565h0-2.4v6.6h1.06zm1.33-3.5h-1.33v-2.17h1.33c.367 0 .653.098.86.295s.3.462.3.795-.103.597-.3.8-.493.3-.86.3h0zm6 3.6c.793 0 1.442-.25 1.945-.75s.755-1.177.755-2.03h0v-3.93h-1.06v4c0 .547-.15.973-.45 1.28s-.697.46-1.2.46c-.5 0-.902-.153-1.205-.46s-.455-.733-.455-1.28h0v-4h-1.06v3.93c0 .853.252 1.53.755 2.03s1.158.75 1.965.75zm6.72-7.35l1.3-1.67v-.2h-1.28l-.8 1.86h.78zm1.93 7.24v-.95h-3.4v-2.1h2.47v-.92h-2.47v-1.7h3.28v-.95h-4.34v6.6h4.46zm3.15.1c.64 0 1.168-.177 1.585-.53s.625-.813.625-1.38c0-.427-.125-.783-.375-1.07s-.652-.557-1.205-.8h0l-.74-.34a.89.89 0 0 0-.09-.05l-.4-.2c-.04-.02-.1-.072-.2-.155s-.162-.163-.185-.24a1.28 1.28 0 0 1-.045-.295c0-.253.093-.45.28-.6s.427-.2.72-.2c.567 0 1.03.267 1.4.8h0l.74-.57c-.207-.36-.498-.647-.875-.86s-.795-.32-1.255-.32c-.587 0-1.08.167-1.48.5a1.6 1.6 0 0 0-.6 1.29c0 .42.128.772.385 1.055s.642.542 1.155.775h0l.73.34c.367.173.62.325.76.455s.2.308.2.535a.81.81 0 0 1-.315.67c-.2.167-.485.25-.825.25-.673 0-1.25-.35-1.73-1.05h0l-.75.57c.26.447.607.797 1.04 1.05a2.82 2.82 0 0 0 1.45.38zm8.24-.1c1.067 0 1.932-.3 2.595-.93s.995-1.413.995-2.38c0-.98-.33-1.773-1-2.38s-1.527-.9-2.6-.9h0-2.07v6.6h2.07zm-.01-.95h-1v-4.7h1c.767 0 1.377.212 1.83.635s.68.988.68 1.695c0 .7-.228 1.268-.685 1.705s-1.065.655-1.825.655h0zm9.22.95v-.95h-3.4v-2.1h2.47v-.92h-2.47v-1.7h3.28v-.95h-4.34v6.6h4.46zm5.2 0v-.95h-3.02v-5.65h-1.06v6.6h4.08zm3.2 0l.47-1.1h2.97l.47 1.1h1.14l-2.9-6.7h-.36l-2.9 6.7h1.13zm3.06-2h-2.2l1.1-2.73 1.1 2.73zm6.48-5.33c.287 0 .525-.1.715-.33s.285-.5.285-.84a5.48 5.48 0 0 0-.02-.29h0-.84v.15c0 .233-.093.35-.28.35-.073 0-.22-.06-.44-.18h0l-.33-.2c-.233-.147-.473-.22-.72-.22-.293 0-.535.1-.725.33s-.285.5-.285.84a5.48 5.48 0 0 0 .02.29h.84v-.13c0-.24.093-.36.28-.36.093 0 .24.06.44.18h0l.32.18c.267.153.513.23.74.23zm1.9 7.45v-6.7h-1.06v4.45l-4-4.56h-.37v6.7h1.06v-4.47l4.02 4.58h.36zm4.63 0c.94.013 1.758-.317 2.455-1s1.035-1.48 1.015-2.42c.02-.94-.318-1.747-1.015-2.42s-1.515-1.003-2.455-1c-.947-.013-1.763.317-2.45 1a3.2 3.2 0 0 0-1.01 2.42 3.16 3.16 0 0 0 1.005 2.42c.7.673 1.508 1.003 2.455 1zm.01-.97c-.687 0-1.253-.232-1.7-.695s-.67-1.048-.67-1.755c0-.7.225-1.28.675-1.74s1.015-.7 1.695-.7c.673 0 1.237.232 1.7.695s.68 1.042.68 1.735c0 .7-.227 1.283-.68 1.75a2.26 2.26 0 0 1-1.69.7z" fill="#4d008c" fill-rule="nonzero"/><g stroke="#ff0081"><rect x="7.5" y="11.5" width="232" height="64" rx="10"/><path d="M127 87h102c5.523 0 10 5.065 10 11.312v227.376c0 6.248-4.477 11.312-10 11.312H18c-5.523 0-10-5.065-10-11.312V98.312C8 92.065 12.477 87 18 87h2"/></g><g fill-rule="nonzero"><path d="M239.336 314.823h-232v32.364c0 6.555 5.36 11.877 11.96 11.877h206.95c7.22 0 13.408-4.743 13.07-12.98v-30.57" fill="#ff0081"/><g fill="#fff"><path d="M107.247 327.43l-1.288 1c-.448-.673-1-1.065-1.756-1.065-.616 0-1.14.28-1.14.896 0 .523.4.747 1.065 1.065l1.045.467c1.457.635 2.28 1.382 2.28 2.7 0 1.718-1.4 2.764-3.212 2.764-1.588 0-2.876-.803-3.55-2.036l1.3-.97c.504.7 1.158 1.345 2.26 1.345.803 0 1.307-.374 1.307-1.027 0-.598-.448-.803-1.177-1.14l-1-.45c-1.308-.597-2.223-1.344-2.223-2.652 0-1.587 1.326-2.614 3.063-2.614 1.438 0 2.465.728 3.025 1.737zm7.32.13h-4.314v1.868h3.156v1.606h-3.156v2.334h4.482v1.7h-6.35v-9.207h6.18z"/><use xlink:href="#B"/><path d="M135.503 327.97l-1.42 1c-.616-.97-1.475-1.55-2.633-1.55-1.718 0-2.97 1.25-2.97 3.044 0 1.774 1.25 3.006 2.97 3.006 1.158 0 2.017-.58 2.633-1.55l1.42 1c-.803 1.4-2.28 2.278-4.07 2.278-2.727 0-4.893-2.054-4.893-4.762s2.166-4.762 4.9-4.762c1.756 0 3.23.878 4.053 2.278zm8.385 3.268c0 2.465-1.68 3.978-3.903 3.978-2.24 0-3.903-1.513-3.903-3.978v-5.397h1.886v5.528c0 1.382.878 2.092 2.017 2.092 1.158 0 2.017-.7 2.017-2.092v-5.528h1.886v5.397zm10.346-5.546v9.375h-1.886v-4.93l-2.316 2.914h-.598l-2.315-2.914v4.93h-1.887v-9.375h.617l3.884 4.986 3.884-4.986zm9.15 5.546c0 2.465-1.68 3.978-3.904 3.978-2.24 0-3.903-1.513-3.903-3.978v-5.397h1.887v5.528c0 1.382.877 2.092 2.016 2.092 1.158 0 2.017-.7 2.017-2.092v-5.528h1.887v5.397zm3.23 2.112h4.034v1.7h-5.92v-9.207h1.886z"/><use xlink:href="#B" x="52.346"/><path d="M187.737 325.86v9.375h-.635l-5.323-5.696v5.528h-1.886v-9.375h.616l5.342 5.64v-5.472zm11.728 2.97c0 1.774-1.382 2.988-3.325 2.988h-1.568v3.25h-1.886v-9.207h3.454c1.943 0 3.325 1.158 3.325 2.97zm-4.893-1.326v2.652h1.568c.878 0 1.4-.54 1.4-1.344 0-.766-.523-1.308-1.4-1.308h-1.568zm10.084 6.35h-3.772l-.523 1.195h-1.998l4.108-9.375h.635l4.1 9.375H205.2l-.542-1.195zm-1.886-4.65l-1.214 3.1h2.428l-1.214-3.1zm10.458 5.845l-2.4-3.25h-1.382v3.25h-1.886v-9.207h3.454c1.943 0 3.325 1.177 3.325 2.97 0 1.176-.635 2.1-1.625 2.614l2.614 3.623h-2.1zm-3.772-4.912h1.568c.878 0 1.4-.522 1.4-1.325 0-.766-.523-1.308-1.4-1.308h-1.568v2.633z"/><path d="M221.576 333.853h-3.773l-.522 1.195h-2.017l4.108-9.375h.635l4.1 9.375H222.1l-.523-1.195zm-1.868-4.65l-1.214 3.1h2.428l-1.214-3.1zm-111.34 11.074h-4.818v2.092h3.548v1.792h-3.548v2.615h5.005v1.905h-7.115v-10.3h6.928zm3.455 6.48h4.5v1.905h-6.6v-10.3h2.1zm19.552-8.572v10.477h-2.1v-5.5l-2.596 3.268h-.7l-2.595-3.268v5.5h-2.1v-10.477h.7l4.352 5.584 4.35-5.584zm8.628 2.092h-4.818v2.092h3.548v1.792h-3.548v2.615h5.005v1.905h-7.115v-10.3h6.928zm7.92-.15l-1.438 1.1c-.505-.747-1.12-1.176-1.96-1.176-.7 0-1.3.317-1.3 1 0 .597.448.84 1.195 1.176l1.177.523c1.625.7 2.54 1.55 2.54 3.007 0 1.923-1.57 3.08-3.605 3.08-1.774 0-3.212-.896-3.977-2.278l1.456-1.083c.56.784 1.3 1.494 2.52 1.494.897 0 1.476-.43 1.476-1.14 0-.672-.505-.896-1.308-1.288l-1.1-.504c-1.476-.673-2.503-1.513-2.503-2.97 0-1.774 1.475-2.913 3.418-2.913 1.643.037 2.8.86 3.4 1.98zm12.12 0l-1.438 1.1c-.505-.747-1.12-1.176-1.96-1.176-.7 0-1.3.317-1.3 1 0 .597.448.84 1.195 1.176l1.177.523c1.625.7 2.54 1.55 2.54 3.007 0 1.923-1.57 3.08-3.605 3.08-1.774 0-3.212-.896-3.977-2.278l1.456-1.083c.56.784 1.3 1.494 2.52 1.494.897 0 1.476-.43 1.476-1.14 0-.672-.504-.896-1.307-1.288l-1.102-.504c-1.476-.673-2.503-1.513-2.503-2.97 0-1.774 1.476-2.913 3.418-2.913 1.643.037 2.8.86 3.4 1.98zm3.473 8.534h-2.1v-10.3h2.1zm10.925-8.254l-1.494 1.232c-.7-.952-1.606-1.512-2.876-1.512-1.998 0-3.305 1.42-3.305 3.38 0 1.998 1.363 3.455 3.436 3.455 1.195 0 2.148-.505 2.708-1.3v-.84h-2.84v-1.83h4.95v3.044c-.896 1.624-2.708 2.8-4.9 2.8-3.082 0-5.5-2.316-5.5-5.34s2.4-5.34 5.5-5.34c1.83.018 3.342.84 4.332 2.24zm10.327 3.996c0 2.764-1.867 4.445-4.37 4.445-2.52 0-4.37-1.68-4.37-4.445v-6.032h2.1v6.2c0 1.55 1 2.335 2.26 2.335 1.3 0 2.26-.803 2.26-2.335v-6.2h2.1v6.032zm3.735 4.258h-2.1v-10.3h2.1zm8.59-8.385h-4.818v2.092h3.548v1.792h-3.548v2.615h5.005v1.905h-7.116v-10.3h6.93zm10.103-1.905v10.477h-.7l-5.957-6.368v6.18h-2.1v-10.477h.7l5.976 6.313v-6.126zm9.244 1.905h-3.305v8.385h-2.1v-8.385h-3.286v-1.905h8.702zm7.452 0h-4.82v2.092h3.55v1.792h-3.55v2.615h5.005v1.905h-7.115v-10.3h6.93z"/><path d="M92.102 341.304l-2.428.915-.15-.373 3.212-1.457c.13-.056.43-.02.486.075l1.625 3.156-.392.187-1.307-2.372-1.064 1.905c-2.372 4.1-5.976 6.162-10.645 6.18H26.963c-6.387-.02-11.336-4.613-12.045-10.887-.037-.3 0-.598.205-.897.318 1.195.542 2.4 1 3.567 1.625 4.295 4.67 6.9 9.263 7.545a22.48 22.48 0 0 0 3.156.224h52.55c4.687 0 8.292-2.036 10.682-6.125.26-.45.43-.934.635-1.4-.13-.075-.224-.168-.3-.243zm1.083-4.388l-.28-1.457c-.58-4.67-4.258-8.684-8.908-9.636-1.027-.206-2.092-.337-3.156-.337-17.797-.018-35.594-.018-53.392 0-4.482 0-7.993 1.812-10.44 5.584-.392.598-.654 1.3-.97 1.942.075.094.15.17.224.262l2.465-.97c.056.13.112.26.15.373l-3.642 1.718-1.68-3.548c.13-.075.26-.13.392-.205l1.307 2.465c.224-.355.392-.56.504-.785 2.278-4.706 5.995-7.264 11.242-7.283l54.568-.018c6.462 0 11.653 5.023 11.97 11.503 0 .112-.056.243-.093.355-.093.02-.187.02-.26.038z" stroke="#fff" stroke-width=".29"/><path d="M39.195 332.695l-2.52 2.148c-.915-1.27-2.092-1.924-3.5-1.924-1.158 0-2.092.355-2.764 1.065s-1.027 1.643-1.027 2.82c0 1.196.355 2.148 1.083 2.895.7.728 1.7 1.102 2.932 1.102 1.326 0 2.334-.4 3.063-1.25v-.654H33.2v-3.12h6.872v4.4c-.654 1.158-1.57 2.073-2.764 2.783s-2.56 1.064-4.053 1.064c-2.13 0-3.922-.7-5.378-2.073s-2.185-3.08-2.185-5.136c0-2.035.728-3.753 2.185-5.135s3.25-2.073 5.378-2.073c2.54 0 4.538 1.027 5.94 3.1zm5.66 11.055H41.23v-13.895h3.623zm14.5-11.055l-2.52 2.148c-.915-1.27-2.092-1.924-3.5-1.924-1.158 0-2.092.355-2.764 1.065s-1.027 1.643-1.027 2.82c0 1.196.355 2.148 1.083 2.895.7.728 1.7 1.102 2.932 1.102 1.326 0 2.334-.4 3.063-1.25v-.654h-3.25v-3.12h6.872v4.4c-.654 1.158-1.57 2.073-2.764 2.783s-2.56 1.064-4.053 1.064c-2.13 0-3.922-.7-5.378-2.073s-2.185-3.08-2.185-5.136c0-2.035.728-3.753 2.185-5.135s3.25-2.073 5.378-2.073c2.54 0 4.538 1.027 5.94 3.1zm9.394 9.898H63.77l-.504 1.158h-3.903l6.312-14.156h1.158l6.312 14.156h-3.903l-.486-1.158zm-2.484-6.126l-1.214 3.23h2.428l-1.214-3.23zm16.36-4.07l-2.428 1.85c-.336-.504-.672-.878-1.027-1.12s-.766-.354-1.27-.354c-.822 0-1.25.298-1.25.877a.79.79 0 0 0 .261.617c.168.168.486.336.934.523l1.606.672c1.214.504 2.1 1.083 2.7 1.737s.878 1.475.878 2.446c0 1.326-.486 2.4-1.438 3.175s-2.185 1.176-3.66 1.176c-1.25 0-2.353-.28-3.324-.84a5.62 5.62 0 0 1-2.204-2.278l2.446-1.85c.878 1.195 1.923 1.793 3.1 1.793.952 0 1.438-.337 1.438-1 0-.317-.093-.54-.3-.7s-.56-.355-1.12-.597l-1.438-.635c-2.353-1.028-3.5-2.428-3.5-4.184 0-1.232.448-2.222 1.363-2.988s2.073-1.12 3.5-1.12c2.222 0 3.8.934 4.743 2.8z"/></g><path d="M36.304 139v-31.68h-2.64l-12.96 4.272 1.968 7.296 5.376-1.776V139h8.256zm13.692.576c4.16 0 7.392-1.552 9.696-4.656s3.456-7.104 3.456-12c0-4.832-1.144-8.736-3.432-11.712s-5.528-4.464-9.72-4.464-7.432 1.488-9.72 4.464-3.432 6.88-3.432 11.712c0 4.896 1.152 8.896 3.456 12s5.536 4.656 9.696 4.656zm0-7.584c-3.136 0-4.704-3.008-4.704-9.024 0-2.976.384-5.16 1.152-6.552s1.952-2.088 3.552-2.088 2.784.696 3.552 2.088 1.152 3.576 1.152 6.552c0 6.016-1.568 9.024-4.704 9.024zm25.404 7.584c4.16 0 7.392-1.552 9.696-4.656s3.456-7.104 3.456-12c0-4.832-1.144-8.736-3.432-11.712s-5.528-4.464-9.72-4.464-7.432 1.488-9.72 4.464-3.432 6.88-3.432 11.712c0 4.896 1.152 8.896 3.456 12s5.536 4.656 9.696 4.656zm0-7.584c-3.136 0-4.704-3.008-4.704-9.024 0-2.976.384-5.16 1.152-6.552s1.952-2.088 3.552-2.088 2.784.696 3.552 2.088 1.152 3.576 1.152 6.552c0 6.016-1.568 9.024-4.704 9.024zm37.147 7.585l.445-.001c3.392 0 6.464-.8 9.216-2.4 2.752-1.632 4.864-3.76 6.336-6.384h0v-9.984h-15.648v7.104h7.392v1.488c-1.632 1.888-3.952 2.832-6.96 2.832-2.784 0-5-.832-6.648-2.496s-2.472-3.856-2.472-6.576c0-2.688.776-4.832 2.328-6.432s3.656-2.4 6.312-2.4c3.264 0 5.936 1.456 8.016 4.368h0l5.76-4.896c-3.168-4.704-7.712-7.056-13.632-7.056-4.768-.064-8.848 1.52-12.24 4.752s-5.056 7.12-4.992 11.664c-.064 4.576 1.6 8.472 4.992 11.688s7.472 4.792 12.24 4.728l-.445.001zm26.357-.577v-31.68h-8.256V139h8.256zm18.9.577l.445-.001c3.392 0 6.464-.8 9.216-2.4 2.752-1.632 4.864-3.76 6.336-6.384h0v-9.984h-15.648v7.104h7.392v1.488c-1.632 1.888-3.952 2.832-6.96 2.832-2.784 0-5-.832-6.648-2.496s-2.472-3.856-2.472-6.576c0-2.688.776-4.832 2.328-6.432s3.656-2.4 6.312-2.4c3.264 0 5.936 1.456 8.016 4.368h0l5.76-4.896c-3.168-4.704-7.712-7.056-13.632-7.056-4.768-.064-8.848 1.52-12.24 4.752s-5.056 7.12-4.992 11.664c-.064 4.576 1.6 8.472 4.992 11.688s7.472 4.792 12.24 4.728l-.445.001zm23.43-.577l1.152-2.64h11.376l1.152 2.64h8.88l-14.4-32.256h-2.64L172.344 139h8.88zm9.6-9.264h-5.52l2.784-7.344 2.736 7.344zm23.944 9.84c3.36 0 6.136-.896 8.328-2.688s3.288-4.192 3.288-7.2c0-2.208-.648-4.056-1.944-5.544s-3.352-2.824-6.168-4.008h0l-3.648-1.536c-1.024-.416-1.736-.808-2.136-1.176s-.6-.84-.6-1.416c0-1.344.944-2.016 2.832-2.016 1.088 0 2.032.264 2.832.792s1.6 1.384 2.4 2.568h0l5.52-4.224c-2.112-4.256-5.728-6.384-10.848-6.384-3.264 0-5.928.864-7.992 2.592s-3.096 3.984-3.096 6.768c0 4 2.672 7.184 8.016 9.552h0l3.264 1.44c1.312.576 2.176 1.04 2.592 1.392s.624.864.624 1.536c0 1.536-1.088 2.304-3.264 2.304-1.504 0-2.8-.344-3.888-1.032s-2.144-1.704-3.168-3.048h0l-5.568 4.224c1.152 2.208 2.84 3.944 5.064 5.208s4.744 1.896 7.56 1.896z" fill="#4d008c"/><path d="M88.294 175.788l1.47-5.325c-.955-1.653-1.47-3.49-1.47-5.398 0-5.802 4.774-10.576 10.613-10.576s10.687 4.774 10.687 10.576-4.848 10.723-10.687 10.723c-1.836 0-3.598-.587-5.178-1.47l-5.435 1.47z" fill="#fefefe"/><path d="M94.023 172.41l.33.183c1.36.845 2.938 1.36 4.6 1.36 4.8 0 8.813-4.002 8.813-8.887s-4.003-8.74-8.85-8.74-8.776 3.893-8.776 8.74a8.9 8.9 0 0 0 1.358 4.738l.22.33-.844 3.085 3.158-.808z" fill="#129f5c"/><path d="M96.08 160.144l-.698-.037c-.22 0-.44.074-.587.22-.33.294-.88.845-1.028 1.58-.257 1.1.147 2.424 1.102 3.746s2.79 3.452 6.022 4.37c1.028.294 1.836.1 2.497-.293.515-.33.845-.845.955-1.396l.11-.514a.37.37 0 0 0-.184-.404l-2.313-1.065a.35.35 0 0 0-.441.11l-.918 1.175c-.074.073-.184.1-.294.073-.624-.22-2.718-1.1-3.856-3.304-.036-.11-.036-.22.037-.294l.88-.99c.074-.11.1-.257.074-.368l-1.066-2.387a.32.32 0 0 0-.293-.221" fill="#fefefe"/><path d="M118.2 164.897v-1.33h-3.15v-5.863h-1.47v7.192h4.62zm2.267 0v-7.192h-1.47v7.192h1.47zm4.555 0c1.395 0 2.365-.872 2.365-2.114 0-.872-.48-1.493-1.275-1.776.338-.327.534-.763.534-1.297 0-1.188-.948-2.005-2.278-2.005h-2.55v7.192h3.204zm-.774-4.283h-1.013v-1.645h1.013c.6 0 .937.316.937.817s-.327.828-.937.828zm.665 3.02h-1.678v-1.8h1.678c.643 0 1.024.35 1.024.904 0 .567-.38.904-1.024.904zm4.85 1.264v-2.54h1.08l1.863 2.54h1.656l-2.038-2.833a2.2 2.2 0 0 0 1.264-2.038c0-1.406-1.08-2.32-2.594-2.32h-2.703v7.192h1.47zm1.23-3.836h-1.23v-2.06h1.23c.687 0 1.1.425 1.1 1.024 0 .62-.403 1.035-1.1 1.035zm8.947 3.836v-1.33h-3.498v-1.82h2.474v-1.253h-2.474v-1.46h3.367v-1.33h-4.838v7.192h4.97zm8.707 0v-1.33h-3.498v-1.82h2.474v-1.253h-2.474v-1.46h3.367v-1.33h-4.838v7.192h4.97zm7.105.13v-7.323h-1.47v4.283l-4.174-4.413h-.48v7.323h1.47v-4.315l4.163 4.446h.5zm5.58-.13v-2.54h1.08l1.863 2.54h1.656l-2.038-2.833a2.2 2.2 0 0 0 1.264-2.038c0-1.406-1.08-2.32-2.594-2.32h-2.703v7.192h1.47zm1.23-3.836h-1.23v-2.06h1.23c.687 0 1.1.425 1.1 1.024 0 .62-.403 1.035-1.1 1.035zm7.214 3.967c2.114 0 3.836-1.613 3.836-3.727s-1.722-3.727-3.836-3.727-3.814 1.613-3.814 3.727 1.7 3.727 3.814 3.727zm.01-1.362c-1.34 0-2.3-.97-2.3-2.365 0-1.384.97-2.365 2.3-2.365 1.32 0 2.3.98 2.3 2.365 0 1.395-.992 2.365-2.3 2.365zm5.492 1.23l.403-.937h2.942l.403.937h1.58l-3.204-7.323h-.5l-3.215 7.323h1.58zm2.822-2.147h-1.896l.948-2.42.948 2.42zm4.664 2.147v-3.847l1.8 2.278h.48l1.8-2.278v3.847h1.47v-7.323h-.48l-3.04 3.9-3.04-3.9h-.48v7.323h1.47zm8.402 0v-7.192h-1.47v7.192h1.47zm7.476.13v-7.323h-1.47v4.283l-4.174-4.413h-.48v7.323h1.47v-4.315l4.163 4.446h.5zm4.784 0c1.537 0 2.8-.817 3.433-1.95v-2.125h-3.454v1.275h1.983v.588c-.392.545-1.057.894-1.896.894-1.45 0-2.397-1.013-2.397-2.408 0-1.373.915-2.365 2.3-2.365.883 0 1.526.392 2.005 1.057l1.046-.86a3.59 3.59 0 0 0-3.03-1.558c-2.17 0-3.847 1.613-3.847 3.727s1.7 3.727 3.847 3.727zm-86.386 8.95v-.572h-2.918v-2.027h2.158v-.572h-2.158v-1.65h2.82v-.572h-3.457v5.394h3.555zm6.15.1v-5.484h-.637v4.054l-3.433-4.144h-.23v5.484h.637v-4.046l3.433 4.136h.23zm5.976-.1v-3.882l1.733 2.354h.23l1.724-2.337v3.866h.637v-5.484h-.22l-2.264 3.114-2.248-3.114h-.23v5.484h.637zm8.807-5.917l.98-1.406v-.114h-.768l-.695 1.52h.482zm-2.035 5.917l.458-1.095h2.648l.458 1.095h.678l-2.337-5.484h-.237l-2.337 5.484h.67zm2.86-1.667h-2.158l1.08-2.656 1.08 2.656zm4.696 1.757c.507 0 .924-.14 1.25-.42a1.36 1.36 0 0 0 .49-1.083c0-.338-.1-.618-.298-.842s-.52-.444-.96-.662h0l-.597-.286-.507-.27a.84.84 0 0 1-.253-.245.68.68 0 0 1-.106-.392c0-.24.1-.43.274-.572a1.06 1.06 0 0 1 .682-.212c.518 0 .93.226 1.234.678h0l.466-.35a2 2 0 0 0-.715-.666 1.97 1.97 0 0 0-.977-.25c-.452 0-.836.13-1.152.392s-.474.6-.474 1.013c0 .338.1.616.302.834s.507.422.915.613h0l.605.286c.343.17.58.312.707.43s.192.3.192.52c0 .272-.1.5-.298.654s-.462.245-.8.245c-.6 0-1.1-.308-1.504-.924h0l-.474.35c.212.365.493.65.842.854s.73.306 1.144.306zm8.436-.1c.888 0 1.6-.253 2.133-.76s.8-1.155.8-1.945c0-.796-.266-1.443-.797-1.94s-1.244-.748-2.137-.748h0-1.602v5.394h1.602zm-.008-.572h-.956v-4.25h.956c.703 0 1.26.195 1.667.584s.613.9.613 1.532-.206 1.14-.617 1.537-.966.597-1.663.597h0zm8.415.572v-.572h-2.918v-2.027h2.158v-.572h-2.158v-1.65h2.82v-.572h-3.457v5.394h3.555zm6.36.1c.523 0 .973-.168 1.35-.503s.564-.767.564-1.295c0-.534-.176-.945-.527-1.234s-.8-.433-1.32-.433c-.24 0-.496.022-.768.065h0v-1.512h2.313v-.572h-2.95v2.574h1.218c.44 0 .78.098 1.018.294s.356.47.356.825-.12.643-.356.866-.538.335-.903.335c-.572 0-1.043-.283-1.414-.85h0l-.44.327a2.19 2.19 0 0 0 .764.813c.32.2.685.298 1.1.298zm5.653 0c.66 0 1.152-.264 1.48-.793s.5-1.215.5-2.043-.166-1.5-.5-1.986c-.327-.5-.817-.752-1.47-.752s-1.14.25-1.48.752c-.332.496-.5 1.158-.5 1.986s.163 1.5.5 2.043.828.793 1.487.793zm0-.588a1.06 1.06 0 0 1-.989-.588c-.218-.392-.327-.943-.327-1.65 0-1.438.44-2.158 1.316-2.158s1.308.72 1.308 2.158c0 .708-.108 1.26-.323 1.65a1.05 1.05 0 0 1-.985.588zm7.742.5v-2.256h1.26c.518 0 .934-.147 1.25-.44s.474-.673.474-1.136a1.46 1.46 0 0 0-.474-1.124c-.316-.292-.733-.437-1.25-.437h0-1.896v5.394h.637zm1.242-2.828h-1.242v-1.994h1.242c.338 0 .602.1.793.274s.286.424.286.723c0 .305-.095.548-.286.727s-.455.27-.793.27h0zm3.1 2.828l.458-1.095h2.648l.458 1.095h.678l-2.337-5.484h-.237l-2.337 5.484h.67zm2.86-1.667h-2.158l1.08-2.656 1.08 2.656zm3.724-4.25l.98-1.406v-.114h-.768l-.695 1.52h.482zm.074 5.917v-5.394h-.637v5.394h.637zm3.838.1c.507 0 .924-.14 1.25-.42a1.36 1.36 0 0 0 .49-1.083c0-.338-.1-.618-.298-.842s-.52-.444-.96-.662h0l-.597-.286-.507-.27a.84.84 0 0 1-.253-.245.68.68 0 0 1-.106-.392c0-.24.1-.43.274-.572a1.06 1.06 0 0 1 .682-.212c.518 0 .93.226 1.234.678h0l.466-.35a2 2 0 0 0-.715-.666 1.97 1.97 0 0 0-.977-.25c-.452 0-.836.13-1.152.392s-.474.6-.474 1.013c0 .338.1.616.302.834s.507.422.915.613h0l.605.286c.343.17.58.312.707.43s.192.3.192.52c0 .272-.1.5-.298.654s-.462.245-.8.245c-.6 0-1.1-.308-1.504-.924h0l-.474.35c.212.365.493.65.842.854s.73.306 1.144.306zm7.32-.1v-.572h-2.918v-2.027h2.158v-.572h-2.158v-1.65h2.82v-.572h-3.457v5.394h3.555zm3.43.1c.507 0 .924-.14 1.25-.42a1.36 1.36 0 0 0 .49-1.083c0-.338-.1-.618-.298-.842s-.52-.444-.96-.662h0l-.597-.286-.507-.27a.84.84 0 0 1-.253-.245.68.68 0 0 1-.106-.392c0-.24.1-.43.274-.572a1.06 1.06 0 0 1 .682-.212c.518 0 .93.226 1.234.678h0l.466-.35a2 2 0 0 0-.715-.666 1.97 1.97 0 0 0-.977-.25c-.452 0-.836.13-1.152.392s-.474.6-.474 1.013c0 .338.1.616.302.834s.507.422.915.613h0l.605.286c.343.17.58.312.707.43s.192.3.192.52c0 .272-.1.5-.298.654s-.462.245-.8.245c-.6 0-1.1-.308-1.504-.924h0l-.474.35c.212.365.493.65.842.854s.73.306 1.144.306zM46.906 159.593h.383v5.853h-1.176v-3.066l-1.446 1.812h-.383l-1.446-1.812v3.066h-1.176v-5.853h.383l2.43 3.1 2.43-3.1zm1.707 5.853v-5.75h1.176v5.75h-1.176zm6.2-5.75H56v5.853h-.392l-3.327-3.554v3.45h-1.176v-5.853h.383l3.336 3.536v-3.432zm2.44 3.37v-3.37h1.176v3.458c0 .412.116.733.348.962s.537.344.915.344c.383 0 .7-.115.92-.344s.344-.55.344-.962v-3.458h1.176v3.37c0 .75-.23 1.35-.688 1.803s-1.042.68-1.75.68c-.714 0-1.3-.226-1.755-.68s-.684-1.054-.684-1.803zm7.447 2.378v-4.686h-1.838v-1.063h4.86v1.063h-1.847v4.686H64.7zm3.467-2.874c-.012-.82.286-1.524.893-2.117s1.325-.88 2.156-.862c.83-.017 1.552.27 2.164.862s.913 1.298.9 2.117c.012.82-.3 1.524-.9 2.117s-1.334.88-2.164.862a2.89 2.89 0 0 1-2.156-.862 2.8 2.8 0 0 1-.893-2.117zm4.904 0c0-.546-.176-.997-.527-1.354s-.8-.536-1.32-.536-.976.177-1.324.53-.523.807-.523 1.36.174 1.005.523 1.36.8.53 1.324.53.968-.177 1.32-.53.527-.807.527-1.36zm1.803 1.707l.8-.6c.406.557.877.836 1.4.836.255 0 .456-.057.6-.17s.218-.27.218-.466c0-.163-.05-.3-.148-.38s-.293-.202-.584-.335l-.618-.28c-.93-.412-1.394-.964-1.394-1.655 0-.488.18-.88.54-1.18s.816-.45 1.367-.45c.43 0 .807.097 1.132.292a2.09 2.09 0 0 1 .766.797l-.8.618c-.296-.44-.662-.662-1.097-.662-.2 0-.38.05-.514.148a.48.48 0 0 0-.2.409.46.46 0 0 0 .144.353c.096.1.27.193.527.3l.653.287c.494.22.854.46 1.08.72s.34.58.34.962a1.55 1.55 0 0 1-.566 1.25c-.377.316-.86.475-1.446.475a2.52 2.52 0 0 1-1.302-.34c-.386-.227-.692-.537-.92-.932zm-33.22 8.633v-5.75h1.176v4.686h2.517v1.063h-3.693zm4.564 0v-5.75h1.176v5.75h-1.176zm6.942-1.7c0 .494-.177.9-.53 1.215s-.807.475-1.36.475H48.7v-5.75h2.038c.534 0 .97.15 1.3.45s.5.684.5 1.154c0 .424-.142.77-.427 1.036.68.25 1.02.723 1.02 1.42zm-2.508-3.05h-.8v1.315h.8c.238 0 .422-.058.553-.174s.196-.28.196-.488a.61.61 0 0 0-.196-.48c-.13-.117-.315-.174-.553-.174zm1.35 3.005c0-.22-.073-.396-.218-.527s-.345-.196-.6-.196h-1.34v1.446h1.34c.255 0 .456-.064.6-.192a.67.67 0 0 0 .218-.531zm6.968 1.733h-1.324l-1.5-2.03h-.862v2.03h-1.176v-5.75h2.16c.604 0 1.1.17 1.5.514s.584.8.584 1.34c0 .36-.1.684-.266.97s-.425.5-.745.666l1.63 2.256zm-3.676-4.712v1.646h.984c.273 0 .486-.075.64-.226s.23-.35.23-.6c0-.244-.08-.44-.24-.592s-.37-.226-.63-.226h-.984zm4.4 4.712v-5.75h3.867v1.063h-2.7v1.167h1.977v1.002H60.87v1.455h2.796v1.063H59.7zm4.6-1.167l.8-.6c.406.557.877.836 1.4.836.255 0 .456-.057.6-.17s.218-.27.218-.466c0-.163-.05-.3-.148-.38s-.293-.202-.584-.335l-.618-.28c-.93-.412-1.394-.964-1.394-1.655 0-.488.18-.88.54-1.18s.816-.45 1.367-.45c.43 0 .807.097 1.132.292a2.09 2.09 0 0 1 .766.797l-.8.618c-.296-.44-.662-.662-1.097-.662-.2 0-.38.05-.514.148a.48.48 0 0 0-.2.409.46.46 0 0 0 .144.353c.096.1.27.193.527.3l.653.287c.494.22.854.46 1.08.72s.34.58.34.962a1.55 1.55 0 0 1-.566 1.25c-.377.316-.86.475-1.446.475a2.52 2.52 0 0 1-1.302-.34c-.386-.227-.692-.537-.92-.932zm20.12-14.33v16.586h-.908v-16.586z" fill="#4f008c"/><path d="M42.95 199.336c4.116 0 7.42-2.184 9.072-5.124v-5.824h-9.128v4.144h4.312v.868c-.896 1.036-2.296 1.652-4.06 1.652-3.304 0-5.32-2.156-5.32-5.292 0-3.052 1.904-5.152 5.04-5.152 2.1 0 3.528.952 4.676 2.548l3.36-2.856c-1.792-2.632-4.536-4.116-7.952-4.116-5.684 0-10.052 4.144-10.052 9.576 0 5.46 4.396 9.576 10.052 9.576zM59.562 199v-18.48h-4.816V199h4.816zm12.777.336c4.116 0 7.42-2.184 9.072-5.124v-5.824h-9.128v4.144h4.312v.868c-.896 1.036-2.296 1.652-4.06 1.652-3.304 0-5.32-2.156-5.32-5.292 0-3.052 1.904-5.152 5.04-5.152 2.1 0 3.528.952 4.676 2.548l3.36-2.856c-1.792-2.632-4.536-4.116-7.952-4.116-5.684 0-10.052 4.144-10.052 9.576 0 5.46 4.396 9.576 10.052 9.576zM86.965 199l.672-1.54h6.636l.672 1.54h5.18l-8.4-18.816h-1.54L81.785 199h5.18zm5.6-5.404h-3.22l1.624-4.284 1.596 4.284zm15.325 5.74c3.808 0 6.776-2.128 6.776-5.768 0-2.716-1.652-4.284-4.732-5.572l-2.128-.896c-1.148-.476-1.596-.812-1.596-1.512 0-.84.7-1.176 1.652-1.176 1.4 0 2.212.728 3.052 1.96l3.22-2.464c-1.064-2.128-3.108-3.724-6.328-3.724-3.752 0-6.468 2.156-6.468 5.46 0 2.604 1.736 4.284 4.676 5.572l1.904.84c1.288.56 1.876.84 1.876 1.708 0 .896-.616 1.344-1.904 1.344-2.072 0-3.22-1.176-4.116-2.38l-3.248 2.464c1.316 2.492 3.976 4.144 7.364 4.144zm29.782-.336v-4.34h-7.644v-14.14h-4.816V199h12.46zm7.317 0v-18.48h-4.816V199h4.816zm12.3 0c3.556 0 6.244-2.24 6.244-5.488 0-2.184-1.204-3.668-3.08-4.424.7-.784 1.12-1.848 1.12-3.108 0-3.276-2.716-5.46-6.244-5.46h-6.664V199h8.624zm-2.268-11.172h-1.736v-3.248h1.736c1.148 0 1.848.644 1.848 1.624s-.7 1.624-1.848 1.624zm1.96 7.112h-3.696v-3.248h3.696c1.12 0 1.848.532 1.848 1.624s-.728 1.624-1.848 1.624zm13.953 4.06v-5.74h1.988l4.172 5.74h5.376l-4.872-6.86c1.792-1.092 2.912-2.94 2.912-5.264 0-3.92-3.08-6.356-7.14-6.356h-7.252V199h4.816zm2.464-9.94h-2.464v-4.34h2.464c1.344 0 2.212.868 2.212 2.156 0 1.316-.868 2.184-2.212 2.184zm24.117 9.94v-4.34h-8.344v-3.22h5.712v-4.032h-5.712v-2.548h8.008v-4.34h-12.824V199h13.16zm9.137.336c3.808 0 6.776-2.128 6.776-5.768 0-2.716-1.652-4.284-4.732-5.572l-2.128-.896c-1.148-.476-1.596-.812-1.596-1.512 0-.84.7-1.176 1.652-1.176 1.4 0 2.212.728 3.052 1.96l3.22-2.464c-1.064-2.128-3.108-3.724-6.328-3.724-3.752 0-6.468 2.156-6.468 5.46 0 2.604 1.736 4.284 4.676 5.572l1.904.84c1.288.56 1.876.84 1.876 1.708 0 .896-.616 1.344-1.904 1.344-2.072 0-3.22-1.176-4.116-2.38l-3.248 2.464c1.316 2.492 3.976 4.144 7.364 4.144z" fill="#e82070"/><path d="M44.276 219v-5.825H47.1c3.475 0 5.95-2.175 5.95-5.35 0-3.225-2.475-5.325-5.95-5.325h-6.2V219h3.375zm2.825-8.775h-2.825v-4.75H47.1c1.575 0 2.5.975 2.5 2.35 0 1.425-.925 2.4-2.5 2.4zM55.884 219l.925-2.15h6.75l.925 2.15h3.625l-7.35-16.8h-1.125L52.26 219h3.625zm6.475-4.925h-4.35l2.175-5.55 2.175 5.55zM73.817 219v-5.825h2.475L80.567 219h3.8l-4.675-6.5c1.775-.875 2.9-2.55 2.9-4.675 0-3.225-2.475-5.325-5.95-5.325h-6.2V219h3.375zm2.825-8.8h-2.825v-4.725h2.825c1.575 0 2.5.975 2.5 2.35 0 1.425-.925 2.375-2.5 2.375zm11.933 8.8l.925-2.15h6.75l.925 2.15h3.625l-7.35-16.8h-1.125L84.95 219h3.625zm6.475-4.925H90.7l2.175-5.55 2.175 5.55zm19.14 5.225c3.275 0 5.775-1.875 5.775-4.95 0-2.35-1.475-3.675-4.075-4.825l-1.875-.825c-1.2-.55-1.925-.95-1.925-1.9 0-1.1.95-1.6 2.05-1.6 1.35 0 2.35.7 3.15 1.9l2.3-1.775c-.975-1.8-2.825-3.125-5.45-3.125-3.1 0-5.475 1.825-5.475 4.675 0 2.325 1.65 3.675 4 4.75l1.775.8c1.3.6 2.1.975 2.1 2.05 0 1.15-.9 1.825-2.35 1.825-1.975 0-3.15-1.15-4.05-2.4l-2.325 1.75c1.225 2.2 3.525 3.65 6.375 3.65zm12.208-.3v-16.5h-3.375V219h3.375zm15.258 0v-3.05h-8.025v-4.175h5.675V208.9h-5.675v-3.35h7.725v-3.05h-11.1V219h11.4zm6.383 0v-8.825l4.15 5.225h1.1l4.15-5.225V219h3.375v-16.8h-1.1l-6.975 8.95-6.975-8.95h-1.1V219h3.375zm20.033 0v-5.825h2.825c3.475 0 5.95-2.175 5.95-5.35 0-3.225-2.475-5.325-5.95-5.325h-6.2V219h3.375zm2.825-8.775h-2.825v-4.75h2.825c1.575 0 2.5.975 2.5 2.35 0 1.425-.925 2.4-2.5 2.4zm12.11 8.775v-5.825h2.475l4.275 5.825h3.8l-4.675-6.5c1.775-.875 2.9-2.55 2.9-4.675 0-3.225-2.475-5.325-5.95-5.325h-6.2V219h3.375zm2.825-8.8h-2.825v-4.725h2.825c1.575 0 2.5.975 2.5 2.35 0 1.425-.925 2.375-2.5 2.375zm21.283 8.8v-3.05h-8.025v-4.175h5.675V208.9h-5.675v-3.35h7.725v-3.05h-11.1V219h11.4zM56.272 230v-5.844h-.328l-2.028.664.23.824 1.187-.38V230h.94zm3.657.097c.72 0 1.27-.285 1.65-.855s.57-1.3.57-2.218c0-.897-.2-1.615-.567-2.152-.372-.543-.924-.815-1.656-.815s-1.287.275-1.665.824c-.378.537-.567 1.252-.567 2.143 0 .903.192 1.64.576 2.214s.936.86 1.656.86zm0-.86c-.838 0-1.257-.735-1.257-2.205 0-1.4.42-2.116 1.257-2.116s1.25.705 1.25 2.116c0 1.47-.416 2.205-1.25 2.205zm5.534.86c.72 0 1.27-.285 1.65-.855s.57-1.3.57-2.218c0-.897-.2-1.615-.567-2.152-.372-.543-.924-.815-1.656-.815s-1.287.275-1.665.824c-.378.537-.567 1.252-.567 2.143 0 .903.192 1.64.576 2.214s.936.86 1.656.86zm0-.86c-.838 0-1.257-.735-1.257-2.205 0-1.4.42-2.116 1.257-2.116.832 0 1.25.705 1.25 2.116 0 1.47-.416 2.205-1.25 2.205zm8.705.86a3.18 3.18 0 0 0 1.603-.416 2.94 2.94 0 0 0 1.125-1.125h0V226.9H74.16v.832h1.798v.63c-.384.6-.965.886-1.744.886-.626 0-1.14-.208-1.545-.624s-.607-.937-.607-1.563c0-.62.196-1.133.6-1.54s.896-.6 1.5-.6c.726 0 1.308.307 1.744.92h0l.682-.558c-.584-.815-1.4-1.222-2.417-1.222-.85-.012-1.58.28-2.192.877s-.908 1.3-.9 2.143a2.81 2.81 0 0 0 .9 2.147 2.97 2.97 0 0 0 2.192.872zm4.817-.097v-5.844h-.94V230h.94zm4.197.097a3.18 3.18 0 0 0 1.603-.416 2.94 2.94 0 0 0 1.125-1.125h0V226.9h-2.736v.832h1.798v.63c-.384.6-.965.886-1.744.886-.626 0-1.14-.208-1.545-.624s-.607-.937-.607-1.563c0-.62.196-1.133.6-1.54s.896-.6 1.5-.6c.726 0 1.308.307 1.744.92h0l.682-.558c-.584-.815-1.4-1.222-2.417-1.222-.85-.012-1.58.28-2.192.877s-.908 1.3-.9 2.143a2.81 2.81 0 0 0 .9 2.147 2.97 2.97 0 0 0 2.192.872zm4.25-.097l.416-.974h2.63l.416.974h1l-2.577-5.942H89L86.433 230h1zm2.7-1.78h-1.957l.983-2.417.974 2.417zm4.436 1.877c.567 0 1.035-.156 1.404-.47s.553-.72.553-1.222c0-.378-.1-.694-.332-.948s-.577-.493-1.067-.717h0l-.655-.3a.79.79 0 0 0-.08-.044l-.283-.146-.062-.03a1.28 1.28 0 0 1-.186-.137.48.48 0 0 1-.164-.213c-.02-.068-.034-.155-.04-.26 0-.224.083-.398.248-.522s.378-.186.638-.186c.502 0 .912.236 1.23.708h0l.655-.505c-.183-.32-.44-.573-.775-.762s-.704-.283-1.1-.283c-.52 0-.956.148-1.3.443s-.53.676-.53 1.142c0 .372.114.683.34.934s.568.48 1.023.686h0l.646.3c.325.153.55.288.673.403s.186.273.186.474c0 .248-.093.446-.28.593s-.43.22-.73.22c-.596 0-1.107-.3-1.532-.93h0l-.664.505a2.53 2.53 0 0 0 .921.93 2.5 2.5 0 0 0 1.284.336zm7.855-.868v-1.638h1.56v-.806h-1.56v-1.62h-.903v1.62h-1.594v.806h1.594v1.638h.903zm6.854.868c.596 0 1.104-.186 1.523-.558a1.82 1.82 0 0 0 .629-1.426c0-.567-.193-1.012-.58-1.337s-.857-.487-1.412-.487a3.31 3.31 0 0 0-.744.08h0v-1.373h2.4v-.84h-3.33v2.94h1.346c.43 0 .763.1.996.27s.35.435.35.766-.114.598-.34.8-.518.306-.872.306c-.567 0-1.04-.3-1.417-.868h0l-.655.47a2.37 2.37 0 0 0 .85.921c.36.224.776.336 1.25.336zm5.357 0c.72 0 1.27-.285 1.65-.855s.57-1.3.57-2.218c0-.897-.2-1.615-.567-2.152-.372-.543-.924-.815-1.656-.815s-1.287.275-1.665.824c-.378.537-.567 1.252-.567 2.143 0 .903.192 1.64.576 2.214s.936.86 1.656.86zm0-.86c-.838 0-1.257-.735-1.257-2.205 0-1.4.42-2.116 1.257-2.116.832 0 1.25.705 1.25 2.116 0 1.47-.416 2.205-1.25 2.205zm8.705.86a3.18 3.18 0 0 0 1.603-.416 2.94 2.94 0 0 0 1.125-1.125h0V226.9h-2.736v.832h1.798v.63c-.384.6-.965.886-1.744.886-.626 0-1.14-.208-1.545-.624s-.607-.937-.607-1.563c0-.62.196-1.133.6-1.54s.896-.6 1.5-.6c.726 0 1.308.307 1.744.92h0l.682-.558c-.584-.815-1.4-1.222-2.417-1.222-.85-.012-1.58.28-2.192.877s-.908 1.3-.9 2.143a2.81 2.81 0 0 0 .9 2.147 2.97 2.97 0 0 0 2.192.872zm4.817-.097v-5.844h-.94V230h.94zm4.197.097a3.18 3.18 0 0 0 1.603-.416 2.94 2.94 0 0 0 1.125-1.125h0V226.9h-2.736v.832h1.798v.63c-.384.6-.965.886-1.744.886-.626 0-1.14-.208-1.545-.624s-.607-.937-.607-1.563c0-.62.196-1.133.6-1.54s.896-.6 1.5-.6c.726 0 1.308.307 1.744.92h0l.682-.558c-.584-.815-1.4-1.222-2.417-1.222-.85-.012-1.58.28-2.192.877s-.908 1.3-.9 2.143a2.81 2.81 0 0 0 .9 2.147 2.97 2.97 0 0 0 2.192.872zm4.25-.097l.416-.974h2.63l.416.974h1l-2.577-5.942h-.32L135.615 230h1zm2.7-1.78h-1.957l.983-2.417.974 2.417zm4.436 1.877c.567 0 1.035-.156 1.404-.47s.553-.72.553-1.222c0-.378-.1-.694-.332-.948s-.577-.493-1.067-.717h0l-.655-.3a.79.79 0 0 0-.08-.044l-.283-.146-.062-.03a1.28 1.28 0 0 1-.186-.137.48.48 0 0 1-.164-.213c-.02-.068-.034-.155-.04-.26 0-.224.083-.398.248-.522s.378-.186.638-.186c.502 0 .912.236 1.23.708h0l.655-.505c-.183-.32-.44-.573-.775-.762s-.704-.283-1.1-.283c-.52 0-.956.148-1.3.443s-.53.676-.53 1.142c0 .372.114.683.34.934s.568.48 1.023.686h0l.646.3c.325.153.55.288.673.403s.186.273.186.474c0 .248-.093.446-.28.593s-.43.22-.73.22c-.596 0-1.107-.3-1.532-.93h0l-.664.505a2.53 2.53 0 0 0 .921.93 2.5 2.5 0 0 0 1.284.336zm9.6-.097v-.84h-3v-1.85h2.187v-.815h-2.187v-1.497h2.905v-.84h-3.843V230h3.95zm5.906.097v-5.942h-.94v3.94l-3.55-4.038h-.328V230h.94v-3.958l3.56 4.056h.32zm4.897-.097v-2.258h1.07L166.9 230h1.07l-1.753-2.4c.354-.136.63-.348.828-.638s.297-.626.297-1c0-.525-.183-.955-.55-1.288s-.844-.5-1.435-.5h0-2.134V230h.94zm1.178-3.1h-1.178v-1.922h1.178c.32 0 .57.1.757.266s.28.4.28.7-.093.52-.28.695-.438.26-.757.26h0zm7.42 3.1v-.84h-3v-1.85h2.187v-.815h-2.187v-1.497h2.905v-.84h-3.843V230h3.95zm2.922 0c.945 0 1.7-.275 2.298-.824s.88-1.252.88-2.108c0-.868-.292-1.57-.877-2.108s-1.352-.806-2.302-.806h0-1.833V230h1.833zm-.01-.84h-.886v-4.153h.886c.68 0 1.22.187 1.62.562s.602.875.602 1.5-.202 1.123-.607 1.5-.943.58-1.616.58h0zm10.068.84v-1.018h.797v-.806h-.797v-1.798h-.94v1.798h-1.744l1.656-4.02h-.965l-1.868 4.57v.257h2.922V230h.94zm4.42.097a3.18 3.18 0 0 0 1.603-.416 2.94 2.94 0 0 0 1.125-1.125h0V226.9h-2.736v.832h1.798v.63c-.384.6-.965.886-1.744.886-.626 0-1.14-.208-1.545-.624s-.607-.937-.607-1.563c0-.62.196-1.133.6-1.54s.896-.6 1.5-.6c.726 0 1.308.307 1.744.92h0l.682-.558c-.584-.815-1.4-1.222-2.417-1.222-.85-.012-1.58.28-2.192.877s-.908 1.3-.9 2.143a2.81 2.81 0 0 0 .9 2.147 2.97 2.97 0 0 0 2.192.872z" fill="#4d008c"/><path d="M87.324 289l10.065-13.48c1.91-2.603 3.294-4.778 4.148-6.527.895-1.75 1.342-3.74 1.342-5.978 0-4.27-1.535-7.84-4.605-10.705s-6.7-4.3-10.89-4.3c-4.067-.08-7.686 1.342-10.858 4.27s-4.717 6.466-4.636 10.614c0 3.7 1.2 6.842 3.57 9.425s5.195 4.097 8.45 4.544h0L74.94 289h12.383zm.06-20.862c-1.423 0-2.633-.488-3.63-1.464s-1.495-2.216-1.495-3.72.498-2.765 1.495-3.782a4.89 4.89 0 0 1 3.629-1.525 4.89 4.89 0 0 1 3.63 1.525c.996 1.017 1.495 2.277 1.495 3.782 0 1.464-.488 2.694-1.464 3.69s-2.196 1.494-3.66 1.494zm19.693 21.594c1.952 0 3.57-.65 4.85-1.952s1.92-2.928 1.92-4.88-.64-3.58-1.92-4.88-2.897-1.952-4.85-1.952c-2.033 0-3.7.65-5.002 1.952s-1.952 2.928-1.952 4.88.65 3.58 1.952 4.88 2.97 1.952 5.002 1.952zm21.218-.732l10.065-13.48c1.91-2.603 3.294-4.778 4.148-6.527.895-1.75 1.342-3.74 1.342-5.978 0-4.27-1.535-7.84-4.606-10.705s-6.7-4.3-10.888-4.3c-4.067-.08-7.686 1.342-10.858 4.27s-4.717 6.466-4.636 10.614c0 3.7 1.19 6.842 3.57 9.425s5.195 4.097 8.448 4.544h0L115.913 289h12.383zm.06-20.862c-1.423 0-2.633-.488-3.63-1.464s-1.495-2.216-1.495-3.72.498-2.765 1.495-3.782a4.89 4.89 0 0 1 3.63-1.525 4.89 4.89 0 0 1 3.63 1.525c.996 1.017 1.494 2.277 1.494 3.782 0 1.464-.488 2.694-1.464 3.69s-2.196 1.494-3.66 1.494zM159.762 289l10.065-13.48c1.91-2.603 3.294-4.778 4.148-6.527.895-1.75 1.342-3.74 1.342-5.978 0-4.27-1.535-7.84-4.605-10.705s-6.7-4.3-10.89-4.3c-4.067-.08-7.686 1.342-10.858 4.27s-4.717 6.466-4.636 10.614c0 3.7 1.19 6.842 3.568 9.425s5.195 4.097 8.45 4.544h0L147.38 289h12.383zm.06-20.862c-1.423 0-2.633-.488-3.63-1.464s-1.494-2.216-1.494-3.72.498-2.765 1.494-3.782a4.89 4.89 0 0 1 3.63-1.525 4.89 4.89 0 0 1 3.63 1.525c.996 1.017 1.495 2.277 1.495 3.782 0 1.464-.488 2.694-1.464 3.69s-2.196 1.494-3.66 1.494zm30.307 21.594c4.555 0 8.377-1.352 11.468-4.056s4.636-6.1 4.636-10.218c.08-3.782-1.27-6.913-4.056-9.394s-5.927-3.68-9.424-3.6c-1.14 0-2.42.142-3.843.427h0v-4.697h15.006v-9.455h-24.95v22.753h9.577c4.636 0 6.954 1.362 6.954 4.087 0 1.423-.53 2.53-1.586 3.325s-2.46 1.2-4.21 1.2c-1.667 0-3.1-.397-4.3-1.2s-2.4-2.104-3.63-3.934h0l-7.26 5.124c1.383 3.01 3.447 5.368 6.192 7.076s5.886 2.562 9.424 2.562z" fill="#4d008c"/><path d="M51.748 285.61H46.93c-2.727 0-4.93-2.204-4.93-4.93V259.93c0-2.726 2.204-4.93 4.93-4.93h4.818c2.727 0 4.93 2.204 4.93 4.93v20.767c0 2.708-2.204 4.912-4.93 4.912z" fill="#ff0081"/><path d="M50.703 277.335v2.895h-2.8v-2.932a6.09 6.09 0 0 1-4.202-3.193l2.166-1.606c.878 1.382 2.054 2.166 3.586 2.166 1.158 0 2.054-.448 2.054-1.4 0-.82-.766-1.214-1.83-1.643l-1.606-.598c-2.1-.784-3.53-2.1-3.53-4.127 0-1.96 1.4-3.36 3.36-3.847v-2.876h2.8v2.82c1.68.336 2.82 1.382 3.53 2.708l-2.13 1.606c-.766-1.12-1.606-1.606-2.727-1.606-.86 0-1.7.317-1.7 1.214 0 .766.635 1.12 1.587 1.494l1.774.616c2.372.878 3.604 2.204 3.604 4.165 0 2.278-1.662 3.772-3.94 4.145z" fill="#fff"/><path d="M154.1 302v-2.33h1.13c.693 0 1.263-.2 1.7-.6s.67-.913.67-1.54c0-.633-.223-1.147-.67-1.54s-1.017-.6-1.7-.6h0-2.48v6.6h1.35zm1.13-3.5h-1.13v-1.9h1.13c.3 0 .542.087.725.26s.275.4.275.68c0 .287-.088.518-.265.695s-.422.265-.735.265h0zm6.738 3.63c.953.02 1.782-.3 2.485-1s1.048-1.5 1.035-2.43c.013-.94-.332-1.75-1.035-2.43s-1.532-1-2.485-1c-.953-.02-1.778.3-2.475 1s-1.038 1.5-1.025 2.43c-.013.94.328 1.75 1.025 2.43s1.522 1 2.475 1zm.01-1.25c-.613 0-1.12-.203-1.52-.6s-.6-.927-.6-1.56.2-1.153.6-1.56.907-.6 1.52-.6c.607 0 1.112.205 1.515.615s.605.928.605 1.555c0 .633-.202 1.153-.605 1.56s-.908.6-1.515.6zm6.158 1.13v-2.33h1l1.7 2.33h1.52l-1.87-2.6a2.03 2.03 0 0 0 .855-.765c.203-.33.305-.702.305-1.115 0-.633-.223-1.147-.67-1.54s-1.017-.6-1.7-.6h0-2.48v6.6h1.35zm1.13-3.52h-1.13v-1.9h1.13c.3 0 .542.087.725.26s.275.4.275.68c0 .287-.088.517-.265.7s-.422.26-.735.26h0zm9.377 3.52v-6.6h-.45l-2.47.8.32 1.2 1.25-.4v5h1.35zm5.107 0l.37-.86h2.7l.37.86h1.45l-2.94-6.72h-.45L182.3 302h1.45zm2.6-1.97h-1.76l.88-2.23.88 2.23zm6.998-5.28c.327 0 .6-.125.82-.375s.33-.575.33-.975c0-.02-.007-.13-.02-.33h0-1.03v.12c0 .227-.093.34-.28.34-.127 0-.277-.057-.45-.17h0l-.3-.18c-.26-.14-.507-.2-.74-.2a1.06 1.06 0 0 0-.83.375c-.22.25-.33.572-.33.965a10.54 10.54 0 0 0 .02.34h1.03v-.12c0-.22.093-.33.28-.33.1 0 .247.057.44.17h0l.3.16c.267.147.52.22.76.22zm1.97 7.37v-6.72h-1.35v3.94l-3.83-4.06h-.44V302h1.35v-3.96l3.82 4.08h.45zm4.788 0c.953.02 1.782-.3 2.485-1s1.048-1.5 1.035-2.43c.013-.94-.332-1.75-1.035-2.43s-1.532-1-2.485-1c-.953-.02-1.778.3-2.475 1s-1.038 1.5-1.025 2.43c-.013.94.328 1.75 1.025 2.43s1.522 1 2.475 1zm.01-1.25c-.613 0-1.12-.203-1.52-.6s-.6-.927-.6-1.56.2-1.153.6-1.56.907-.6 1.52-.6c.607 0 1.112.205 1.515.615s.605.928.605 1.555c0 .633-.202 1.153-.605 1.56s-.908.6-1.515.6z" fill="#4d008c"/><path d="M34.432 92.192V81.44h-2.16v6.304l-6.128-6.496h-.704V92h2.16v-6.336l6.112 6.528h.72zm6.7 0c1.3 0 2.373-.416 3.216-1.248s1.264-1.936 1.264-3.312h0V81.44h-2.16v6.352c0 .757-.2 1.347-.632 1.768s-.984.632-1.688.632c-.693 0-1.253-.2-1.68-.632s-.64-1-.64-1.768h0V81.44h-2.16v6.192c0 1.376.42 2.48 1.256 3.312s1.912 1.248 3.224 1.248zM55.144 92v-1.952h-5.136v-2.672h3.632v-1.84h-3.632v-2.144h4.944V81.44h-7.104V92h7.296zm6.204.192l4.704-10.752H63.62l-2.624 6.4-2.64-6.4h-2.448l4.72 10.752h.72zm11-.001c1.407-.036 2.637-.563 3.692-1.583 1.125-1.088 1.677-2.384 1.656-3.888.02-1.504-.53-2.8-1.656-3.888s-2.45-1.616-3.976-1.584c-1.525-.032-2.845.496-3.96 1.584s-1.66 2.384-1.64 3.888c-.02 1.504.525 2.8 1.64 3.888s2.435 1.616 3.96 1.584l.284-.001zm-.268-2c-.98 0-1.792-.325-2.432-.976s-.96-1.483-.96-2.496.32-1.845.96-2.496 1.45-.976 2.432-.976c.97 0 1.78.328 2.424.984s.968 1.485.968 2.488c0 1.013-.323 1.845-.968 2.496s-1.453.976-2.424.976zM85.288 92v-4.416h2.464c1.013 0 1.83-.288 2.448-.864s.928-1.317.928-2.224c0-.896-.3-1.63-.928-2.2s-1.435-.856-2.448-.856h0-3.712V92h1.248zm2.432-5.536h-2.432V82.56h2.432c.66 0 1.18.18 1.552.536s.56.83.56 1.416c0 .597-.187 1.072-.56 1.424s-.9.528-1.552.528h0zM99.364 92v-1.12h-5.008v-9.44h-1.248V92h6.256zm2.092 0l.896-2.144h5.184l.896 2.144h1.328l-4.576-10.736h-.464L100.144 92h1.312zm5.6-3.264h-4.224l2.112-5.2 2.112 5.2zm12.972 3.44V81.44h-1.248v7.936l-6.72-8.112h-.448V92h1.248v-7.92l6.72 8.096h.448zM36.102 60.66c4.107 0 7.553-1.22 10.34-3.657s4.18-5.5 4.18-9.212c.073-3.4-1.146-6.233-3.657-8.47s-5.344-3.318-8.498-3.245c-1.027 0-2.182.128-3.465.385h0v-4.235h13.53V23.7H26.037v20.515h8.635c4.18 0 6.27 1.228 6.27 3.685 0 1.283-.477 2.282-1.43 2.998s-2.218 1.072-3.795 1.072c-1.503 0-2.796-.358-3.878-1.072S29.667 49 28.567 47.35h0l-6.545 4.62c1.247 2.713 3.107 4.84 5.583 6.38s5.308 2.3 8.497 2.3zm33.073 0c4.767 0 8.47-1.778 11.1-5.335s3.96-8.14 3.96-13.75c0-5.537-1.3-10-3.933-13.42s-6.334-5.115-11.138-5.115-8.516 1.705-11.137 5.115-3.933 7.883-3.933 13.42c0 5.6 1.32 10.193 3.96 13.75s6.343 5.335 11.1 5.335zm0-8.7c-3.593 0-5.4-3.447-5.4-10.34 0-3.4.44-5.912 1.32-7.507s2.237-2.393 4.07-2.393 3.2.798 4.07 2.393 1.32 4.097 1.32 7.507c0 6.893-1.797 10.34-5.4 10.34zM92.95 38.508c1.344 0 2.497-.453 3.458-1.358a4.38 4.38 0 0 0 1.442-3.318c0-1.325-.476-2.43-1.428-3.318s-2.1-1.33-3.472-1.33-2.52.443-3.472 1.33-1.428 1.993-1.428 3.318a4.38 4.38 0 0 0 1.442 3.318c.96.905 2.114 1.358 3.458 1.358zM95.415 48l10.696-18.48h-3.78L91.663 48h3.752zM92.98 35.232c-.4 0-.728-.126-.952-.378s-.336-.593-.336-1.022.117-.77.35-1.022.546-.378.938-.378a1.13 1.13 0 0 1 .882.392c.233.26.35.597.35 1.008 0 .43-.117.77-.35 1.022a1.15 1.15 0 0 1-.882.378zm11.816 13.076c1.344 0 2.497-.453 3.458-1.358a4.38 4.38 0 0 0 1.442-3.318c0-1.325-.476-2.43-1.428-3.318s-2.1-1.33-3.472-1.33-2.52.443-3.472 1.33-1.428 1.993-1.428 3.318a4.38 4.38 0 0 0 1.442 3.318c.96.905 2.114 1.358 3.458 1.358zm.028-3.276c-.4 0-.728-.126-.952-.378s-.336-.593-.336-1.022.117-.77.35-1.022.546-.378.938-.378a1.13 1.13 0 0 1 .882.392c.233.26.35.597.35 1.008 0 .43-.117.77-.35 1.022a1.15 1.15 0 0 1-.882.378zM88.684 61c.96 0 1.74-.28 2.336-.837s.895-1.272.895-2.142c0-.882-.297-1.596-.9-2.142s-1.374-.82-2.34-.82h0-1.863V61h1.863zm-.01-.855h-.9v-4.22h.9c.7 0 1.24.2 1.647.572s.612.9.612 1.526c0 .63-.206 1.142-.617 1.535s-.96.6-1.642.6h0zm6.897.954c.546 0 1.043-.12 1.5-.364a2.69 2.69 0 0 0 1.058-1.003h0l-.72-.53c-.438.684-1.044 1.026-1.818 1.026-.612 0-1.122-.2-1.53-.626s-.612-.94-.612-1.57.204-1.154.612-1.57.918-.625 1.53-.625c.774 0 1.38.342 1.818 1.026h0l.72-.53a2.79 2.79 0 0 0-1.062-.999c-.45-.246-.945-.37-1.485-.37-.852-.012-1.6.285-2.214.9s-.927 1.332-.9 2.178c-.018.846.285 1.572.9 2.178s1.362.903 2.214.9zm5.8-.1v-5.085h2.007v-.855h-4.96v.855h1.998V61h.954zm5.277.1c.846.012 1.582-.285 2.2-.9a2.83 2.83 0 0 0 .913-2.178 2.83 2.83 0 0 0-.913-2.178c-.627-.606-1.364-.903-2.2-.9a2.98 2.98 0 0 0-2.205.89 2.88 2.88 0 0 0-.909 2.178c-.018.846.284 1.572.904 2.178a2.99 2.99 0 0 0 2.21.891zm.01-.873c-.618 0-1.128-.2-1.53-.626s-.603-.944-.603-1.58c0-.63.203-1.152.608-1.566s.913-.62 1.525-.62a2.04 2.04 0 0 1 1.521.625c.408.417.612.938.612 1.562 0 .63-.204 1.155-.612 1.575s-.915.63-1.52.63zM126.228 51v-5.592h2.712c1.664 0 3.032-.48 4.104-1.44s1.608-2.192 1.608-3.696c0-1.52-.536-2.752-1.608-3.696s-2.44-1.416-4.104-1.416h0-5.952V51h3.24zm2.712-8.424h-2.712v-4.56h2.712c.72 0 1.3.208 1.74.624s.66.96.66 1.632c0 .688-.212 1.244-.636 1.668s-1.012.636-1.764.636h0zm14 8.712c2.288.048 4.276-.744 5.964-2.376s2.516-3.576 2.484-5.832c.032-2.256-.796-4.2-2.484-5.832s-3.676-2.424-5.964-2.376c-2.288-.048-4.268.744-5.94 2.376s-2.492 3.576-2.46 5.832c-.032 2.256.788 4.2 2.46 5.832s3.652 2.424 5.94 2.376zm.024-3c-1.472 0-2.688-.488-3.648-1.464s-1.44-2.224-1.44-3.744.48-2.768 1.44-3.744 2.176-1.464 3.648-1.464c1.456 0 2.668.492 3.636 1.476s1.452 2.228 1.452 3.732c0 1.52-.484 2.768-1.452 3.744s-2.18 1.464-3.636 1.464zM155.572 51v-5.592h2.376L162.052 51h3.648l-4.488-6.216c.88-.432 1.564-1.044 2.052-1.836s.732-1.684.732-2.676c0-1.52-.536-2.752-1.608-3.696s-2.44-1.416-4.104-1.416h0-5.952V51h3.24zm2.712-8.448h-2.712v-4.536h2.712c.72 0 1.3.208 1.74.624s.66.96.66 1.632c0 .688-.212 1.24-.636 1.656s-1.012.624-1.764.624h0zM176.444 51V35.16h-1.08l-5.928 1.944.768 2.856 3-.96v12h3.24zm7.912 0l.888-2.064h6.48l.888 2.064h3.48l-7.056-16.128h-1.08L180.876 51h3.48zm6.24-4.728h-4.224l2.112-5.352 2.112 5.352zM205.22 33.6c.784 0 1.44-.3 1.968-.9s.792-1.38.792-2.34a30.08 30.08 0 0 0-.048-.792h0-2.472v.288c0 .544-.224.816-.672.816-.304 0-.664-.136-1.08-.408h0l-.72-.432c-.624-.336-1.216-.504-1.776-.504a2.54 2.54 0 0 0-1.992.9c-.528.6-.792 1.372-.792 2.316 0 .064.016.336.048.816h2.472v-.288c0-.528.224-.792.672-.792.24 0 .592.136 1.056.408h0l.72.384c.64.352 1.248.528 1.824.528zm4.728 17.688V35.16h-3.24v9.456l-9.192-9.744h-1.056V51h3.24v-9.504l9.168 9.792h1.08zm9.32 0c2.288.048 4.276-.744 5.964-2.376s2.516-3.576 2.484-5.832c.032-2.256-.796-4.2-2.484-5.832s-3.676-2.424-5.964-2.376c-2.288-.048-4.268.744-5.94 2.376s-2.492 3.576-2.46 5.832c-.032 2.256.788 4.2 2.46 5.832s3.652 2.424 5.94 2.376zm.024-3c-1.472 0-2.688-.488-3.648-1.464s-1.44-2.224-1.44-3.744.48-2.768 1.44-3.744 2.176-1.464 3.648-1.464c1.456 0 2.668.492 3.636 1.476s1.452 2.228 1.452 3.732c0 1.52-.484 2.768-1.452 3.744s-2.18 1.464-3.636 1.464z" fill="#4d008c"/></g></g><defs ><path id="B" d="M124.634 333.853h-3.772l-.523 1.195h-2.017l4.108-9.375h.635l4.11 9.375h-2.017l-.523-1.195zm-1.886-4.65l-1.214 3.1h2.428l-1.214-3.1z"/></defs></svg>