<svg width="256" height="274" xmlns="http://www.w3.org/2000/svg"><defs><radialGradient cx="29.022%" cy="99.807%" fx="29.022%" fy="99.807%" r="100.922%" gradientTransform="matrix(.99999 0 0 1 0 0)" id="a"><stop stop-color="#F9D173" offset="0%"/><stop stop-color="#EC9F55" offset="24.63%"/><stop stop-color="#EA5C3C" offset="37.93%"/><stop stop-color="#BC3082" offset="69.95%"/><stop stop-color="#6068AB" offset="97.24%"/><stop stop-color="#5C6BAD" offset="98.52%"/></radialGradient></defs><g fill="none" fill-rule="evenodd"><rect fill="#FFF" width="256" height="274" rx="10"/><path d="M19.166 43.312c1.837 0 3.501-.433 4.992-1.3 1.49-.884 2.635-2.037 3.432-3.458v-5.408h-8.476v3.848h4.004v.806c-.884 1.023-2.14 1.534-3.77 1.534-1.508 0-2.708-.45-3.601-1.352-.893-.901-1.339-2.089-1.339-3.562 0-1.456.42-2.617 1.261-3.484.84-.867 1.98-1.3 3.419-1.3 1.768 0 3.215.789 4.342 2.366l3.12-2.652c-1.716-2.548-4.177-3.822-7.384-3.822-2.583-.035-4.793.823-6.63 2.574-1.837 1.75-2.739 3.857-2.704 6.318v.321c.045 2.34.947 4.344 2.704 6.01 1.837 1.742 4.047 2.596 6.63 2.561zM34.729 43v-5.33h1.846L40.45 43h4.992l-4.524-6.37c1.803-1.11 2.704-2.739 2.704-4.888 0-1.768-.624-3.194-1.872-4.277-1.248-1.083-2.834-1.625-4.758-1.625h-6.734V43h4.472zm2.288-9.23H34.73v-4.03h2.288c.624 0 1.122.182 1.495.546.373.364.56.85.56 1.456 0 .607-.187 1.096-.56 1.469-.373.373-.87.559-1.495.559zM50.474 43l.624-1.43h6.162l.624 1.43h4.81l-7.8-17.472h-1.43L45.664 43h4.81zm5.2-5.018h-2.99l1.508-3.978 1.482 3.978zM70.795 43V29.87h5.148v-4.03H61.175v4.03h5.148V43h4.472zm11.715 0V25.84h-4.472V43h4.472zm9.271.312c1.82 0 3.324-.485 4.511-1.456 1.188-.97 1.781-2.27 1.781-3.9 0-1.196-.35-2.197-1.053-3.003-.702-.806-1.815-1.53-3.34-2.171l-1.977-.832c-.554-.225-.94-.438-1.157-.637a.995.995 0 01-.325-.767c0-.728.512-1.092 1.534-1.092.59 0 1.101.143 1.534.429.434.286.867.75 1.3 1.391l2.99-2.288c-1.144-2.305-3.102-3.458-5.876-3.458-1.768 0-3.21.468-4.329 1.404-1.118.936-1.677 2.158-1.677 3.666 0 2.167 1.448 3.891 4.342 5.174l1.768.78c.711.312 1.179.563 1.404.754.226.19.338.468.338.832 0 .832-.589 1.248-1.768 1.248-.814 0-1.516-.186-2.106-.559-.589-.373-1.161-.923-1.716-1.651l-3.016 2.288c.624 1.196 1.539 2.136 2.743 2.821 1.205.685 2.57 1.027 4.095 1.027zm20.83-.312v-5.33h2.263c1.889 0 3.466-.555 4.732-1.664 1.265-1.11 1.898-2.53 1.898-4.264 0-1.768-.624-3.194-1.872-4.277-1.248-1.083-2.834-1.625-4.758-1.625h-6.734V43h4.472zm2.289-9.23h-2.288v-4.03h2.288c.624 0 1.122.182 1.495.546.372.364.559.85.559 1.456 0 .607-.187 1.096-.56 1.469-.372.373-.87.559-1.494.559zm17.827 9.541c2.371-.044 4.446-.902 6.225-2.573 1.863-1.75 2.769-3.857 2.717-6.318.052-2.444-.854-4.55-2.717-6.318-1.864-1.768-4.052-2.626-6.565-2.574-2.514-.052-4.693.806-6.54 2.574-1.845 1.768-2.742 3.874-2.69 6.318-.052 2.461.84 4.567 2.678 6.318 1.837 1.75 4.02 2.609 6.552 2.574h.34zm-.314-4.107c-1.387 0-2.514-.433-3.38-1.3-.867-.901-1.3-2.063-1.3-3.484 0-1.421.433-2.574 1.3-3.458.866-.884 1.993-1.326 3.38-1.326 1.334 0 2.448.446 3.34 1.339.893.893 1.34 2.041 1.34 3.445 0 1.421-.442 2.574-1.326 3.458-.884.884-2.002 1.326-3.354 1.326zM148.808 43v-5.33h1.846l3.874 5.33h4.992l-4.524-6.37c1.802-1.11 2.704-2.739 2.704-4.888 0-1.768-.624-3.194-1.872-4.277-1.248-1.083-2.834-1.625-4.758-1.625h-6.734V43h4.472zm2.288-9.23h-2.288v-4.03h2.288c.624 0 1.122.182 1.495.546.372.364.559.85.559 1.456 0 .607-.187 1.096-.56 1.469-.372.373-.87.559-1.494.559zM175.8 43V25.84h-1.43l-7.02 2.314 1.066 3.952 2.912-.962V43h4.472zm13.16 0l.624-1.43h6.162l.624 1.43h4.81l-7.8-17.472h-1.43L184.15 43h4.81zm5.2-5.018h-2.99l1.508-3.978 1.482 3.978zm18.761-13.572c.953 0 1.777-.373 2.47-1.118.693-.745 1.04-1.725 1.04-2.938a6.67 6.67 0 00-.078-.988h-3.328v.208c0 .537-.234.806-.702.806-.26 0-.65-.13-1.17-.39l-.728-.364c-.728-.347-1.395-.52-2.002-.52-.953 0-1.777.373-2.47 1.118-.693.745-1.04 1.725-1.04 2.938 0 .33.026.659.078.988h3.328v-.208c0-.537.234-.806.702-.806.26 0 .65.13 1.17.39l.728.364c.728.347 1.395.52 2.002.52zm5.356 18.902V25.84h-4.472v8.58l-9.308-8.892h-1.43V43h4.472v-8.71l9.308 9.022h1.43zm12.238 0c2.37-.045 4.445-.903 6.224-2.574 1.863-1.75 2.77-3.857 2.717-6.318.052-2.444-.854-4.55-2.717-6.318-1.863-1.768-4.052-2.626-6.565-2.574-2.513-.052-4.693.806-6.539 2.574-1.846 1.768-2.743 3.874-2.69 6.318-.053 2.461.84 4.567 2.677 6.318 1.837 1.75 4.021 2.609 6.552 2.574h.34zm-.315-4.108c-1.387 0-2.513-.433-3.38-1.3-.867-.901-1.3-2.063-1.3-3.484 0-1.421.433-2.574 1.3-3.458.867-.884 1.993-1.326 3.38-1.326 1.335 0 2.448.446 3.341 1.339.893.893 1.34 2.041 1.34 3.445 0 1.421-.443 2.574-1.327 3.458-.884.884-2.002 1.326-3.354 1.326z" fill="#4D008C" fill-rule="nonzero"/><path d="M70.19 62.32l.49.87-.435.246L63.908 67H239v1H63.908l6.337 3.564.436.245-.49.872-.436-.245-8-4.5-.775-.436.775-.436 8-4.5.436-.245z" fill="#FF2083" fill-rule="nonzero"/><path d="M13.44 72v-3.728h1.808c1.11 0 2.021-.32 2.736-.96.715-.64 1.072-1.461 1.072-2.464 0-1.013-.357-1.835-1.072-2.464-.715-.63-1.627-.944-2.736-.944H11.28V72h2.16zm1.808-5.616H13.44v-3.04h1.808c.48 0 .867.139 1.16.416.293.277.44.64.44 1.088 0 .459-.141.83-.424 1.112-.283.283-.675.424-1.176.424zM27.568 72v-1.952h-4.624V61.44h-2.16V72h6.784zm2.912 0l.592-1.376h4.32L35.984 72h2.32L33.6 61.248h-.72L28.16 72h2.32zm4.16-3.152h-2.816l1.408-3.568 1.408 3.568zm14.096 3.344V61.44h-2.16v6.304l-6.128-6.496h-.704V72h2.16v-6.336l6.112 6.528h.72z" fill="#4D008C" fill-rule="nonzero"/><path d="M239 215v27.914c0 6.123-4.477 11.086-10 11.086H18c-5.523 0-10-4.963-10-11.086v-27.24" stroke="#FF0081"/><g fill-rule="nonzero"><path d="M113.513 197.276h109.64a4.96 4.96 0 004.963-4.963v-14.71a4.96 4.96 0 00-4.964-4.962H113.514v24.635z" fill="#FF0081"/><path d="M223.192 197.618H21.266A5.27 5.27 0 0116 192.353v-14.79a5.27 5.27 0 015.266-5.266h201.926a5.27 5.27 0 015.266 5.266v14.79c0 2.885-2.36 5.265-5.266 5.265zM21.266 172.963a4.59 4.59 0 00-4.58 4.58v14.789a4.59 4.59 0 004.58 4.58h201.926a4.59 4.59 0 004.58-4.58v-14.789a4.59 4.59 0 00-4.58-4.58H21.266z" fill="#FF0081"/><path d="M92.812 184.14c0 4.38-3.551 7.95-7.95 7.95-4.378 0-7.949-3.55-7.949-7.95 0-4.377 3.551-7.95 7.95-7.95 4.378 0 7.949 3.573 7.949 7.95z" fill="#0076F4"/><path d="M86.618 180.57h1.009v-1.696c-.182-.019-.767-.08-1.473-.08-1.473 0-2.462.888-2.462 2.502v1.392h-1.654v1.896h1.654v4.863h1.978v-4.863h1.654l.242-1.896H85.67v-1.21c0-.525.14-.908.948-.908z" fill="#FFF"/><path d="M110.99 184.14c0 4.38-3.55 7.95-7.949 7.95-4.378 0-7.95-3.55-7.95-7.95 0-4.377 3.552-7.95 7.95-7.95 4.4 0 7.95 3.573 7.95 7.95z" fill="#00A8F2"/><path d="M106.673 182.668c-.06 3.107-2.037 5.266-5.044 5.387-1.23.06-2.119-.343-2.945-.807.887.141 2.057-.201 2.663-.747-.888-.06-1.433-.544-1.716-1.291.283.06.546 0 .747 0-.827-.263-1.372-.747-1.433-1.816.202.141.485.202.747.202-.605-.343-1.029-1.635-.545-2.442.888.949 1.977 1.756 3.754 1.897-.485-1.897 2.118-2.905 3.147-1.614.484-.06.827-.262 1.17-.404-.142.465-.403.747-.747 1.01.344-.061.686-.142.949-.263-.06.343-.404.625-.747.888z" fill="#FFF"/><path d="M74.552 184.14c0 4.38-3.55 7.95-7.95 7.95-4.378 0-7.949-3.55-7.949-7.95 0-4.377 3.551-7.95 7.95-7.95 4.398 0 7.95 3.573 7.95 7.95z" fill="#FDF700"/><path d="M62.487 186.22c.282-.04.544-.142.787-.303.201-.121.383-.284.544-.484.283-.324.424-.647.444-.687v-.02c.08-.142.08-.263.04-.363-.08-.202-.342-.283-.544-.344l-.04-.02c-.04 0-.061-.02-.081-.04-.142-.06-.222-.1-.283-.161-.08-.081-.1-.142-.08-.202.02-.06.06-.121.14-.161.102-.06.223-.081.303-.041.263.12.465.162.606.08.04-.02.06-.06.06-.1 0-.06-.02-.12-.02-.202v-.02c-.04-.565-.08-1.27.1-1.675.142-.282.304-.524.505-.726.182-.16.364-.302.606-.383a2.32 2.32 0 01.948-.202h.161a2.399 2.399 0 011.554.586c.202.201.383.423.504.725.182.404.142 1.11.101 1.655v.04c0 .04-.02.081-.02.121v.06c0 .04.02.082.06.101.041.02.101.041.162.041h.02c.121 0 .242-.04.404-.101.06-.02.1-.02.141-.02.06 0 .1.02.161.04.121.04.202.142.202.222 0 .04-.02.08-.08.141a.986.986 0 01-.303.182c-.02.02-.06.02-.08.02l-.041.02c-.182.061-.444.141-.545.343-.04.1-.04.223.04.384v.02c.101.222.646 1.292 1.776 1.473.04.02.08.04.08.1v.042c-.04.08-.1.14-.242.2a2.705 2.705 0 01-.807.203c-.04.02-.06.04-.08.06-.02.04-.04.1-.06.202l-.021.06c-.02.04-.02.101-.04.142-.02.06-.06.08-.121.08-.04 0-.081 0-.182-.02-.121-.02-.283-.06-.464-.06-.121 0-.222 0-.343.04-.222.04-.444.182-.666.323-.303.202-.625.444-1.13.444h-.1c-.505 0-.828-.242-1.15-.444-.203-.141-.404-.283-.646-.323-.101-.02-.222-.04-.343-.04-.202 0-.343.04-.464.06h-.02c-.061.02-.122.02-.182.02s-.101-.02-.141-.08c-.04-.08-.06-.12-.081-.181l-.02-.041a1.271 1.271 0 00-.06-.202c-.021-.04-.041-.06-.082-.06a5.507 5.507 0 01-.827-.202.625.625 0 01-.242-.181c-.02-.02-.02-.041-.02-.041v-.04c.141-.021.161-.04.202-.06z" stroke="#201712" stroke-width=".222" fill="#FFF"/><g><path d="M20.701 192.09l1.09-3.975a8.066 8.066 0 01-1.09-4.035c0-4.338 3.571-7.888 7.93-7.888 4.358 0 7.97 3.57 7.97 7.888 0 4.339-3.612 8.01-7.97 8.01-1.372 0-2.684-.443-3.874-1.09l-4.056 1.09z" fill="#FFF"/><path d="M24.979 189.568l.242.142c1.009.625 2.199 1.008 3.43 1.008 3.591 0 6.577-2.985 6.577-6.638 0-3.652-2.986-6.517-6.597-6.517-3.612 0-6.558 2.906-6.558 6.517 0 1.251.363 2.502 1.009 3.53l.161.244-.625 2.3 2.36-.586z" fill="#00A655"/><path d="M26.512 180.428l-.525-.02a.708.708 0 00-.443.162c-.243.221-.666.625-.767 1.17-.202.827.1 1.816.827 2.804.706.989 2.078 2.583 4.5 3.269.766.222 1.371.08 1.856-.222.383-.242.625-.625.706-1.049l.08-.383c.02-.102-.02-.242-.14-.303l-1.736-.788c-.1-.06-.242-.019-.323.081l-.686.868c-.06.06-.141.081-.222.06-.464-.16-2.038-.827-2.885-2.46-.02-.082-.02-.163.02-.223l.666-.747c.06-.08.08-.2.06-.282l-.786-1.775a.217.217 0 00-.202-.162z" fill="#FFF"/></g><g><path d="M7.849 15.697A7.85 7.85 0 107.848 0a7.85 7.85 0 000 15.698z" fill="url(#a)" transform="translate(40.03 176.292)"/><path d="M49.897 179.661H45.84c-1.372 0-2.502 1.11-2.502 2.462v4.015c0 1.372 1.13 2.462 2.502 2.482h4.056c1.372 0 2.502-1.11 2.502-2.461v-4.015a2.485 2.485 0 00-2.502-2.483zm1.695 6.498c0 .928-.767 1.674-1.695 1.674H45.84c-.928 0-1.695-.746-1.695-1.674v-4.015c0-.93.767-1.676 1.695-1.676h4.056c.928 0 1.695.747 1.695 1.676v4.015z" fill="#FFF"/><path d="M47.879 181.84c-1.291 0-2.34 1.03-2.34 2.3 0 1.272 1.049 2.3 2.34 2.3s2.34-1.028 2.34-2.3a2.334 2.334 0 00-2.34-2.3zm0 3.814a1.529 1.529 0 01-1.533-1.514c0-.826.686-1.512 1.533-1.512.847 0 1.533.686 1.533 1.512 0 .828-.686 1.514-1.533 1.514zM50.3 181.154a.648.648 0 00-.424.162c-.1.1-.181.263-.181.403 0 .162.06.303.181.404.101.1.263.161.424.161.162 0 .303-.06.424-.16a.624.624 0 00.182-.405.507.507 0 00-.182-.403.648.648 0 00-.424-.162z" fill="#FFF"/></g><g fill="#FFF"><path d="M194.643 177.039h-3.45v1.775h2.603v.97h-2.603v2.198h3.57v1.009h-4.7v-6.94h4.56v.988zM201.341 176.03v7.061h-.383l-4.238-4.801v4.7h-1.11v-7.06h.384l4.217 4.8v-4.68h1.13zM194.44 191.829l-1.976-2.684h-1.27v2.684h-1.112v-6.942h2.543c1.413 0 2.36.867 2.36 2.119 0 .908-.503 1.634-1.33 1.957l2.077 2.866h-1.291zm-3.247-3.673h1.392c.786 0 1.23-.464 1.23-1.13 0-.665-.444-1.15-1.23-1.15h-1.392v2.28zM200.857 185.896h-3.45v1.776h2.602v.968h-2.602v2.199h3.571v1.009h-4.7v-6.94h4.559v.988zM207.777 188.357c0 2.018-1.493 3.491-3.772 3.491h-2.18v-6.94h2.18c2.28-.021 3.772 1.392 3.772 3.45zm-4.842-2.461v4.943h1.049c1.635 0 2.644-1.05 2.644-2.482 0-1.492-1.01-2.461-2.644-2.461h-1.05zM216.373 190.617h-.949v1.212h-1.11v-1.212h-3.47v-.302l2.22-5.428h1.15l-1.957 4.782h2.058v-2.138h1.11v2.138h.948zM223.192 186.22l-.807.665c-.484-.686-1.17-1.09-2.077-1.09-1.493 0-2.502 1.09-2.502 2.562 0 1.493 1.049 2.604 2.562 2.604.928 0 1.654-.425 2.078-1.05v-.747h-2.138v-.988h3.247v1.957c-.605 1.09-1.816 1.836-3.247 1.836-2.058 0-3.653-1.554-3.653-3.591 0-2.038 1.614-3.592 3.653-3.592 1.23-.02 2.219.526 2.884 1.433zM120.958 189.65h7.183v2.258h-9.705v-15.697h2.522zM131.813 191.908h-2.522v-15.697h2.522zM146.482 187.35c0 2.642-1.998 4.558-5.085 4.558H134.658v-15.697h5.508c2.846 0 4.702 1.735 4.702 4.177 0 1.21-.485 2.24-1.332 2.945 1.836.626 2.946 2.079 2.946 4.016zm-9.342-8.92v4.238h2.764c1.594 0 2.421-.888 2.421-2.138 0-1.251-.827-2.1-2.42-2.1h-2.765zm6.8 8.859c0-1.474-.97-2.442-2.765-2.442h-4.035v4.882h4.035c1.776-.02 2.765-.968 2.765-2.44zM158.163 191.908l-4.459-6.052h-2.884v6.052h-2.523v-15.697h5.73c3.189 0 5.327 1.958 5.327 4.803 0 2.058-1.15 3.691-3.027 4.419l4.701 6.456h-2.865v.02zm-7.343-8.292h3.167c1.775 0 2.785-1.07 2.785-2.562 0-1.514-.989-2.582-2.785-2.582h-3.167v5.144zM172.408 178.491h-7.788v4.016h5.872v2.179h-5.872v4.963h8.09v2.26h-10.592V176.21h10.31v2.28zM184.232 178.774l-1.756 1.352c-.807-1.21-1.957-1.897-3.309-1.897-1.25 0-2.381.626-2.381 1.897 0 1.19.909 1.614 2.18 2.24l1.755.806c2.381 1.09 3.753 2.3 3.753 4.46 0 2.783-2.26 4.539-5.246 4.539-2.624 0-4.722-1.332-5.912-3.39l1.776-1.352c.907 1.312 2.159 2.502 4.115 2.502 1.614 0 2.704-.827 2.704-2.179 0-1.23-.928-1.714-2.3-2.36l-1.735-.808c-2.018-.928-3.652-2.138-3.652-4.358 0-2.582 2.24-4.257 4.943-4.257 2.3 0 4.117 1.19 5.065 2.805z"/></g></g><g fill="#4F008C" fill-rule="nonzero"><path d="M205.98 157.097v-8.619l3.947 5.172h.747l3.926-5.151v8.598h2.201v-13.936h-.747l-5.753 7.664-5.753-7.664h-.769v13.936h2.202zm13.978 0V143.39h-2.201v13.707h2.201zm12.254.229V143.39h-2.202v9.242l-8.328-9.47h-.769v13.935h2.202v-9.283l8.35 9.512h.747zM164.89 157.559v-13.667h-1.138l-5.591 1.843.849 3.147 2.32-.766v9.443h3.56zm6.098.248c1.794 0 3.188-.67 4.182-2.008.994-1.34 1.491-3.065 1.491-5.177 0-2.085-.493-3.77-1.48-5.053-.987-1.284-2.385-1.926-4.193-1.926-1.809 0-3.207.642-4.194 1.926-.987 1.284-1.48 2.968-1.48 5.053 0 2.112.497 3.838 1.49 5.177.995 1.339 2.389 2.008 4.184 2.008zm0-3.272c-1.353 0-2.03-1.297-2.03-3.893 0-1.283.166-2.226.497-2.826.331-.6.842-.901 1.533-.901.69 0 1.2.3 1.532.9.331.601.497 1.544.497 2.827 0 2.596-.677 3.893-2.03 3.893zm11.149 3.272c1.795 0 3.189-.67 4.183-2.008.994-1.34 1.49-3.065 1.49-5.177 0-2.085-.493-3.77-1.48-5.053-.987-1.284-2.385-1.926-4.193-1.926-1.809 0-3.206.642-4.193 1.926-.988 1.284-1.481 2.968-1.481 5.053 0 2.112.497 3.838 1.49 5.177.995 1.339 2.39 2.008 4.184 2.008zm0-3.272c-1.353 0-2.03-1.297-2.03-3.893 0-1.283.166-2.226.498-2.826.33-.6.842-.901 1.532-.901.69 0 1.2.3 1.532.9.332.601.497 1.544.497 2.827 0 2.596-.676 3.893-2.03 3.893zm11.15 3.272c1.794 0 3.188-.67 4.182-2.008.994-1.34 1.491-3.065 1.491-5.177 0-2.085-.493-3.77-1.48-5.053-.988-1.284-2.385-1.926-4.194-1.926-1.808 0-3.206.642-4.193 1.926-.987 1.284-1.48 2.968-1.48 5.053 0 2.112.496 3.838 1.49 5.177.994 1.339 2.389 2.008 4.183 2.008zm0-3.272c-1.354 0-2.03-1.297-2.03-3.893 0-1.283.166-2.226.497-2.826.331-.6.842-.901 1.532-.901.69 0 1.201.3 1.533.9.33.601.497 1.544.497 2.827 0 2.596-.677 3.893-2.03 3.893z"/></g><path stroke="#4F008C" stroke-linecap="square" d="M148.463 140.516v21.29"/><g fill-rule="nonzero"><path d="M20.74 119V89.96h-2.42L6.44 93.876l1.804 6.688 4.928-1.628V119h7.568zm14.582.528c3.286 0 6.043-.975 8.272-2.926 2.23-1.95 3.344-4.407 3.344-7.37.059-2.728-.916-4.987-2.926-6.776-2.009-1.79-4.275-2.655-6.798-2.596-.821 0-1.745.103-2.772.308V96.78h10.824v-6.82H27.27v16.412h6.908c3.344 0 5.016.983 5.016 2.948 0 1.027-.381 1.826-1.144 2.398-.762.572-1.774.858-3.036.858-1.202 0-2.236-.286-3.102-.858-.865-.572-1.738-1.518-2.618-2.838l-5.236 3.696c.998 2.17 2.486 3.872 4.466 5.104 1.98 1.232 4.246 1.848 6.798 1.848zM87.74 119V89.96h-2.42l-11.88 3.916 1.804 6.688 4.928-1.628V119h7.568zm14.582.528c3.286 0 6.043-.975 8.272-2.926 2.23-1.95 3.344-4.407 3.344-7.37.059-2.728-.916-4.987-2.926-6.776-2.009-1.79-4.275-2.655-6.798-2.596-.821 0-1.745.103-2.772.308V96.78h10.824v-6.82H94.27v16.412h6.908c3.344 0 5.016.983 5.016 2.948 0 1.027-.381 1.826-1.144 2.398-.762.572-1.774.858-3.036.858-1.202 0-2.236-.286-3.102-.858-.865-.572-1.738-1.518-2.618-2.838l-5.236 3.696c.998 2.17 2.486 3.872 4.466 5.104 1.98 1.232 4.246 1.848 6.798 1.848zM139.164 120.517l.425-.001c3.04 0 5.791-.717 8.256-2.15 2.466-1.462 4.358-3.368 5.677-5.719v-8.944h-14.018v6.364h6.621v1.333c-1.462 1.691-3.54 2.537-6.234 2.537-2.494 0-4.48-.745-5.956-2.236-1.476-1.49-2.215-3.454-2.215-5.891 0-2.408.696-4.329 2.086-5.762 1.39-1.433 3.275-2.15 5.654-2.15 2.925 0 5.318 1.304 7.182 3.913l5.16-4.386c-2.838-4.214-6.91-6.321-12.212-6.321-4.272-.057-7.927 1.362-10.965 4.257-3.04 2.895-4.53 6.378-4.472 10.449-.058 4.1 1.433 7.59 4.472 10.47 3.038 2.882 6.693 4.293 10.965 4.236h-.426zm23.638-.517V91.62h-7.396V120h7.396zm16.897.517l.425-.001c3.039 0 5.79-.717 8.256-2.15 2.465-1.462 4.358-3.368 5.676-5.719v-8.944h-14.018v6.364h6.622v1.333c-1.462 1.691-3.54 2.537-6.235 2.537-2.494 0-4.479-.745-5.955-2.236-1.477-1.49-2.215-3.454-2.215-5.891 0-2.408.695-4.329 2.086-5.762 1.39-1.433 3.275-2.15 5.654-2.15 2.924 0 5.318 1.304 7.181 3.913l5.16-4.386c-2.838-4.214-6.909-6.321-12.212-6.321-4.271-.057-7.926 1.362-10.965 4.257-3.038 2.895-4.53 6.378-4.472 10.449v.408c.044 3.923 1.535 7.278 4.472 10.063 3.039 2.88 6.694 4.292 10.965 4.235h-.425zm21.015-.517l1.032-2.365h10.191l1.032 2.365h7.955l-12.9-28.896h-2.365L192.759 120h7.955zm8.6-8.299h-4.945l2.494-6.579 2.451 6.579zm21.45 8.815c3.01 0 5.497-.803 7.46-2.408 1.964-1.605 2.946-3.755 2.946-6.45 0-1.978-.58-3.634-1.742-4.967-1.16-1.333-3.002-2.53-5.525-3.59l-3.268-1.376c-.917-.373-1.555-.724-1.914-1.053-.358-.33-.537-.753-.537-1.269 0-1.204.846-1.806 2.537-1.806.975 0 1.82.237 2.537.71.716.472 1.433 1.24 2.15 2.3l4.945-3.784c-1.892-3.813-5.132-5.719-9.718-5.719-2.924 0-5.31.774-7.16 2.322-1.849 1.548-2.773 3.569-2.773 6.063 0 3.583 2.393 6.436 7.18 8.557l2.925 1.29c1.175.516 1.95.932 2.322 1.247.373.315.559.774.559 1.376 0 1.376-.975 2.064-2.924 2.064-1.347 0-2.508-.308-3.483-.924-.975-.617-1.92-1.527-2.838-2.731l-4.988 3.784c1.032 1.978 2.544 3.533 4.536 4.666 1.993 1.132 4.25 1.698 6.773 1.698z" fill="#4D008C"/><path fill="#FF0081" d="M64.375 111.8v-5.88h5.67v-5.04h-5.67V95h-5.67v5.88H53v5.04h5.705v5.88z"/></g><path d="M13.549 157v-5.796h3.234c1.33 0 2.401-.378 3.213-1.134.812-.756 1.218-1.729 1.218-2.919 0-1.176-.406-2.138-1.218-2.887-.812-.75-1.883-1.124-3.213-1.124h-4.872V157h1.638zm3.192-7.266h-3.192v-5.124h3.192c.868 0 1.547.234 2.037.703.49.47.735 1.089.735 1.859 0 .784-.245 1.407-.735 1.869-.49.462-1.169.693-2.037.693zm13.175 7.498l.307-.001c1.96.028 3.661-.665 5.103-2.079 1.442-1.414 2.142-3.108 2.1-5.082v-.31c-.034-1.842-.734-3.432-2.1-4.772-1.442-1.414-3.143-2.107-5.103-2.079-1.974-.028-3.675.665-5.103 2.079-1.428 1.414-2.121 3.108-2.079 5.082-.042 1.96.655 3.654 2.09 5.082 1.435 1.428 3.132 2.121 5.092 2.079h-.307zm.328-1.513c-1.568 0-2.877-.542-3.927-1.627-1.05-1.086-1.575-2.433-1.575-4.043 0-1.61.525-2.95 1.575-4.022 1.05-1.07 2.359-1.606 3.927-1.606 1.526-.028 2.828.511 3.906 1.617 1.078 1.106 1.603 2.443 1.575 4.011.028 1.582-.497 2.93-1.575 4.042-1.078 1.113-2.38 1.656-3.906 1.628zM41.983 157v-5.817h2.961L49.249 157h1.911l-4.431-6.006c.91-.266 1.624-.739 2.142-1.418.518-.678.777-1.487.777-2.425 0-1.176-.406-2.138-1.218-2.887-.812-.75-1.883-1.124-3.213-1.124h-4.872V157h1.638zm3.171-7.287h-3.171v-5.103h3.171c.868 0 1.55.234 2.047.703.498.47.746 1.089.746 1.859 0 .784-.245 1.404-.735 1.859-.49.455-1.176.682-2.058.682zm18.123 7.539c1.386 0 2.583-.476 3.591-1.428s1.512-2.128 1.512-3.528c.028-1.302-.434-2.418-1.386-3.35-.952-.93-2.023-1.382-3.213-1.354h-.084l3.192-4.452H63.55l-3.465 4.788c-.882 1.218-1.435 2.163-1.659 2.835-.154.49-.231.994-.231 1.512-.028 1.386.473 2.569 1.502 3.549s2.222 1.456 3.58 1.428zm0-2.604a2.178 2.178 0 01-1.627-.682c-.441-.456-.662-1.012-.662-1.67 0-.658.22-1.211.662-1.659a2.194 2.194 0 011.627-.672c.644 0 1.187.22 1.627.661.442.441.662.998.662 1.67 0 .672-.224 1.232-.672 1.68-.434.448-.973.672-1.617.672zM79.489 157v-7.392l3.486 4.368h.924l3.486-4.368V157h2.835v-14.112h-.924l-5.859 7.497-5.859-7.497h-.924V157h2.835zm23.499 0v-2.562h-6.741v-3.507h4.767v-2.415h-4.767v-2.814h6.489v-2.562h-9.324V157h9.576zm6.846.252c1.414 0 2.576-.381 3.486-1.144.91-.763 1.365-1.768 1.365-3.014 0-.924-.273-1.697-.819-2.32-.546-.623-1.414-1.201-2.604-1.733l-1.575-.693c-.616-.28-1.04-.528-1.27-.745-.231-.218-.347-.501-.347-.851 0-.42.161-.749.483-.987.322-.238.735-.357 1.239-.357 1.05 0 1.932.532 2.646 1.596l1.932-1.491a5.026 5.026 0 00-1.848-1.921c-.784-.47-1.694-.704-2.73-.704-1.33 0-2.429.36-3.297 1.081-.868.721-1.302 1.67-1.302 2.846 0 1.666 1.12 2.996 3.36 3.99l1.491.672c.7.322 1.169.591 1.407.808.238.218.357.522.357.914 0 .476-.175.85-.525 1.124-.35.273-.833.409-1.449.409-1.288 0-2.422-.672-3.402-2.016l-1.953 1.47a6.04 6.04 0 002.216 2.247c.93.546 1.977.819 3.139.819zM126.76 157v-2.562h-6.741v-3.507h4.767v-2.415h-4.767v-2.814h6.489v-2.562h-9.324V157h9.576zm6.846.252c1.414 0 2.576-.381 3.486-1.144.91-.763 1.365-1.768 1.365-3.014 0-.924-.273-1.697-.819-2.32-.546-.623-1.414-1.201-2.604-1.733l-1.575-.693c-.616-.28-1.04-.528-1.27-.745-.231-.218-.347-.501-.347-.851 0-.42.161-.749.483-.987.322-.238.735-.357 1.239-.357 1.05 0 1.932.532 2.646 1.596l1.932-1.491a5.026 5.026 0 00-1.848-1.921c-.784-.47-1.694-.704-2.73-.704-1.33 0-2.429.36-3.297 1.081-.868.721-1.302 1.67-1.302 2.846 0 1.666 1.12 2.996 3.36 3.99l1.491.672c.7.322 1.169.591 1.407.808.238.218.357.522.357.914 0 .476-.175.85-.525 1.124-.35.273-.833.409-1.449.409-1.288 0-2.422-.672-3.402-2.016l-1.953 1.47a6.04 6.04 0 002.215 2.247c.931.546 1.978.819 3.14.819z" fill="#4F008C" fill-rule="nonzero"/><g fill="#4D008C" fill-rule="nonzero"><path d="M51.024 227v-4.08h2.16c1.056 0 1.917-.304 2.584-.912.667-.608 1-1.387 1-2.336 0-.95-.33-1.725-.992-2.328-.661-.603-1.525-.904-2.592-.904h-3.856V227h1.696zm2.128-5.584h-2.128v-3.472h2.128c.587 0 1.045.157 1.376.472.33.315.496.739.496 1.272s-.165.955-.496 1.264c-.33.31-.79.464-1.376.464zM59.568 227v-4.192c0-.683.213-1.216.64-1.6.427-.384.981-.576 1.664-.576h.512v-1.488a2.63 2.63 0 00-.64-.08c-.939 0-1.701.368-2.288 1.104v-1.024h-1.568V227h1.68zm7.248.176c1.205 0 2.25-.421 3.136-1.264l-.8-1.152c-.693.619-1.456.928-2.288.928-.672 0-1.24-.184-1.704-.552-.464-.368-.75-.872-.856-1.512h5.856c.085-.395.128-.747.128-1.056 0-1.024-.347-1.88-1.04-2.568-.693-.688-1.557-1.032-2.592-1.032-1.11-.021-2.07.376-2.88 1.192s-1.205 1.79-1.184 2.92c0 1.163.405 2.136 1.216 2.92.81.784 1.813 1.176 3.008 1.176zm1.792-4.864h-4.272c.128-.587.397-1.053.808-1.4.41-.347.893-.52 1.448-.52.565 0 1.04.173 1.424.52.384.347.581.813.592 1.4zm6.624 4.864c.704 0 1.344-.16 1.92-.48a3.737 3.737 0 001.392-1.344l-1.184-.912c-.576.79-1.28 1.184-2.112 1.184-.704 0-1.29-.245-1.76-.736-.47-.49-.704-1.099-.704-1.824 0-.715.235-1.317.704-1.808.47-.49 1.056-.736 1.76-.736.853 0 1.557.4 2.112 1.2l1.184-.928c-.736-1.216-1.84-1.824-3.312-1.824-1.13-.021-2.112.376-2.944 1.192-.832.816-1.237 1.784-1.216 2.904 0 1.141.403 2.112 1.208 2.912.805.8 1.79 1.2 2.952 1.2zm5.376-9.856c.31 0 .576-.107.8-.32a1.04 1.04 0 00.336-.784c0-.31-.112-.573-.336-.792a1.106 1.106 0 00-.8-.328c-.32 0-.592.11-.816.328a1.066 1.066 0 00-.336.792c0 .31.112.57.336.784.224.213.496.32.816.32zm.832 9.68v-7.856h-1.68V227h1.68zm5.44.176c1.141.021 2.128-.379 2.96-1.2.832-.821 1.237-1.792 1.216-2.912.021-1.11-.384-2.075-1.216-2.896-.832-.821-1.819-1.221-2.96-1.2-1.13-.021-2.11.376-2.936 1.192-.827.816-1.23 1.784-1.208 2.904-.021 1.11.381 2.077 1.208 2.904s1.805 1.23 2.936 1.208zm0-1.552c-.693 0-1.272-.243-1.736-.728-.464-.485-.696-1.09-.696-1.816 0-.725.235-1.336.704-1.832a2.304 2.304 0 011.744-.744c.683 0 1.259.248 1.728.744.47.496.704 1.107.704 1.832 0 .715-.235 1.317-.704 1.808-.47.49-1.05.736-1.744.736zm12.64 1.552c1.227 0 2.144-.432 2.752-1.296V227h1.568v-12h-1.696v5.104c-.619-.757-1.493-1.136-2.624-1.136-1.088-.021-2.005.37-2.752 1.176-.747.805-1.11 1.784-1.088 2.936 0 1.163.365 2.136 1.096 2.92.73.784 1.645 1.176 2.744 1.176zm.288-1.536c-.693 0-1.27-.243-1.728-.728-.459-.485-.688-1.101-.688-1.848 0-.747.232-1.36.696-1.84.464-.48 1.037-.72 1.72-.72.65 0 1.208.227 1.672.68.464.453.696 1.085.696 1.896 0 .81-.23 1.44-.688 1.888-.459.448-1.019.672-1.68.672zm9.552 1.536c1.205 0 2.25-.421 3.136-1.264l-.8-1.152c-.693.619-1.456.928-2.288.928-.672 0-1.24-.184-1.704-.552-.464-.368-.75-.872-.856-1.512h5.856c.085-.395.128-.747.128-1.056 0-1.024-.347-1.88-1.04-2.568-.693-.688-1.557-1.032-2.592-1.032-1.11-.021-2.07.376-2.88 1.192s-1.205 1.79-1.184 2.92c0 1.163.405 2.136 1.216 2.92.81.784 1.813 1.176 3.008 1.176zm1.792-4.864h-4.272c.128-.587.397-1.053.808-1.4.41-.347.893-.52 1.448-.52.565 0 1.04.173 1.424.52.384.347.581.813.592 1.4zm4.64 4.688v-12h-1.68v12h1.68zm7.312 2.88v-3.84c.661.757 1.536 1.136 2.624 1.136 1.11 0 2.03-.392 2.76-1.176.73-.784 1.096-1.763 1.096-2.936 0-1.163-.365-2.136-1.096-2.92-.73-.784-1.65-1.176-2.76-1.176-1.227 0-2.139.427-2.736 1.28v-1.104h-1.568v10.736h1.68zm2.352-4.24c-.661 0-1.221-.224-1.68-.672-.459-.448-.688-1.083-.688-1.904 0-.81.23-1.44.688-1.888.459-.448 1.019-.672 1.68-.672.683 0 1.253.243 1.712.728.459.485.688 1.101.688 1.848 0 .747-.23 1.36-.688 1.84-.459.48-1.03.72-1.712.72zm7.104 1.36v-12h-1.68v12h1.68zm3.952.176c1.088 0 1.925-.352 2.512-1.056v.88h1.568v-4.752c0-1.035-.29-1.84-.872-2.416-.581-.576-1.363-.864-2.344-.864-1.44 0-2.544.56-3.312 1.68l.976.992c.65-.779 1.376-1.168 2.176-1.168.533 0 .947.144 1.24.432.293.288.44.704.44 1.248v.512h-2.224c-.885 0-1.59.203-2.112.608-.523.405-.784.95-.784 1.632 0 .683.25 1.232.752 1.648.501.416 1.163.624 1.984.624zm.352-1.296c-.416 0-.75-.093-1-.28a.898.898 0 01-.376-.76c0-.64.464-.96 1.392-.96h2.016v.144c0 .533-.195.976-.584 1.328-.39.352-.872.528-1.448.528zm7.104 1.12v-4.688c0-.533.168-.97.504-1.312.336-.341.765-.512 1.288-.512.512 0 .925.168 1.24.504.315.336.472.776.472 1.32V227h1.68v-4.912c0-.95-.264-1.707-.792-2.272-.528-.565-1.245-.848-2.152-.848-.97 0-1.755.315-2.352.944v-.768h-1.568V227h1.68zm14.56 1.52v-1.904c.81-.117 1.459-.416 1.944-.896.485-.48.728-1.083.728-1.808 0-1.216-.795-2.128-2.384-2.736l-1.184-.448c-.47-.203-.8-.397-.992-.584-.192-.187-.288-.43-.288-.728a.9.9 0 01.416-.792c.277-.187.63-.28 1.056-.28.779 0 1.44.395 1.984 1.184l1.152-.864c-.555-.992-1.365-1.584-2.432-1.776v-1.872h-1.552v1.904c-.693.139-1.25.432-1.672.88-.421.448-.632.992-.632 1.632 0 1.173.773 2.064 2.32 2.672l1.104.432c.512.224.877.437 1.096.64.219.203.328.459.328.768 0 .373-.155.672-.464.896-.31.224-.715.336-1.216.336-1.056 0-1.93-.539-2.624-1.616l-1.168.864c.661 1.195 1.637 1.915 2.928 2.16v1.936h1.552zm7.008-1.52l2.624-3.728c.373-.512.645-.912.816-1.2a5.14 5.14 0 00.448-.976c.128-.373.192-.763.192-1.168.021-1.024-.341-1.896-1.088-2.616-.747-.72-1.627-1.07-2.64-1.048a3.686 3.686 0 00-2.64 1.056c-.736.704-1.104 1.568-1.104 2.592 0 .981.347 1.816 1.04 2.504.693.688 1.499 1.032 2.416 1.032.17 0 .325-.016.464-.048l-2.544 3.6h2.016zm.352-4.992c-.597 0-1.093-.197-1.488-.592-.395-.395-.592-.896-.592-1.504 0-.597.197-1.093.592-1.488a2.024 2.024 0 011.488-.608c.565 0 1.05.203 1.456.608.395.395.592.89.592 1.488 0 .597-.197 1.093-.592 1.488-.405.405-.89.608-1.456.608zm5.248 5.168c.352 0 .645-.117.88-.352s.352-.528.352-.88c0-.363-.117-.661-.352-.896a1.194 1.194 0 00-.88-.352c-.352 0-.65.12-.896.36-.245.24-.368.536-.368.888s.123.645.368.88.544.352.896.352zm5.376-.176l2.624-3.728c.373-.512.645-.912.816-1.2a5.14 5.14 0 00.448-.976c.128-.373.192-.763.192-1.168.021-1.024-.341-1.896-1.088-2.616-.747-.72-1.627-1.07-2.64-1.048a3.686 3.686 0 00-2.64 1.056c-.736.704-1.104 1.568-1.104 2.592 0 .981.347 1.816 1.04 2.504.693.688 1.499 1.032 2.416 1.032.17 0 .325-.016.464-.048l-2.544 3.6h2.016zm.352-4.992c-.597 0-1.093-.197-1.488-.592-.395-.395-.592-.896-.592-1.504 0-.597.197-1.093.592-1.488a2.024 2.024 0 011.488-.608c.565 0 1.05.203 1.456.608.395.395.592.89.592 1.488 0 .597-.197 1.093-.592 1.488-.405.405-.89.608-1.456.608zm7.904 4.992l2.624-3.728c.373-.512.645-.912.816-1.2a5.14 5.14 0 00.448-.976c.128-.373.192-.763.192-1.168.021-1.024-.341-1.896-1.088-2.616-.747-.72-1.627-1.07-2.64-1.048a3.686 3.686 0 00-2.64 1.056c-.736.704-1.104 1.568-1.104 2.592 0 .981.347 1.816 1.04 2.504.693.688 1.499 1.032 2.416 1.032.17 0 .325-.016.464-.048l-2.544 3.6h2.016zm.352-4.992c-.597 0-1.093-.197-1.488-.592-.395-.395-.592-.896-.592-1.504 0-.597.197-1.093.592-1.488a2.024 2.024 0 011.488-.608c.565 0 1.05.203 1.456.608.395.395.592.89.592 1.488 0 .597-.197 1.093-.592 1.488-.405.405-.89.608-1.456.608zm8.8 5.168c1.301 0 2.296-.515 2.984-1.544.688-1.03 1.032-2.365 1.032-4.008 0-1.621-.341-2.917-1.024-3.888-.672-.981-1.67-1.472-2.992-1.472-1.323 0-2.325.496-3.008 1.488-.683.97-1.024 2.261-1.024 3.872 0 1.632.347 2.965 1.04 4 .693 1.035 1.69 1.552 2.992 1.552zm0-1.552c-1.515 0-2.272-1.328-2.272-3.984 0-2.55.757-3.824 2.272-3.824 1.504 0 2.256 1.275 2.256 3.824 0 2.656-.752 3.984-2.256 3.984z"/></g></g></svg>