<svg xmlns="http://www.w3.org/2000/svg" xmlns:xlink="http://www.w3.org/1999/xlink" width="240" height="238" fill="none" xmlns:v="https://vecta.io/nano"><path fill="#fff" d="M0 0h240v238H0z"/><g fill="#471086"><path fill-rule="evenodd" d="M7 32h228v.973H8.076V232H7V32z"/><path d="M23.62 72h2.214v-4.05h2.502c2.772 0 5.04-1.476 5.04-4.302v-.036c0-2.538-1.836-4.212-4.788-4.212H23.62V72zm2.214-6.048v-4.536h2.574c1.656 0 2.718.774 2.718 2.25v.036c0 1.314-1.044 2.25-2.718 2.25h-2.574zM35.877 72h2.178V58.86h-2.178V72zm8.121.198c1.458 0 2.448-.612 3.096-1.386V72h2.124v-5.634c0-1.242-.324-2.25-1.026-2.934-.666-.684-1.728-1.062-3.15-1.062-1.512 0-2.538.306-3.582.774l.576 1.71c.864-.36 1.656-.594 2.718-.594 1.53 0 2.358.72 2.358 2.07v.234a7.94 7.94 0 0 0-2.556-.396c-2.322 0-3.924 1.008-3.924 3.06v.036c0 1.908 1.584 2.934 3.366 2.934zm.612-1.584c-1.044 0-1.854-.522-1.854-1.44v-.036c0-.99.828-1.584 2.232-1.584.864 0 1.602.162 2.16.378v.648c0 1.206-1.098 2.034-2.538 2.034zM52.186 72h2.178v-5.364c0-1.476.882-2.358 2.142-2.358 1.296 0 2.034.846 2.034 2.322V72h2.178v-6.066c0-2.196-1.242-3.636-3.384-3.636-1.476 0-2.358.774-2.97 1.656v-1.458h-2.178V72zm17.283 0h14.504v-3.724h-8.54l3.192-2.464c3.472-2.716 5.152-4.284 5.152-7.588v-.056c0-3.668-2.716-6.048-6.748-6.048-3.5 0-5.376 1.456-7.308 4.06l3.024 2.436c1.456-1.792 2.464-2.632 4.004-2.632 1.568 0 2.632.868 2.632 2.548 0 1.624-.924 2.688-3.388 4.704l-6.524 5.348V72zm24.333.336c4.508 0 7.448-2.632 7.448-6.776v-.056c0-4.396-3.052-6.272-6.86-6.272-1.092 0-1.792.14-2.576.336l.224-3.388h8.344V52.4h-12.04l-.56 9.66 2.492 1.652c.924-.42 2.044-.728 3.276-.728 2.044 0 3.472.98 3.472 2.66v.056c0 1.764-1.26 2.716-3.276 2.716-1.764 0-3.192-.784-4.676-2.128l-2.604 3.108c1.904 1.82 4.172 2.94 7.336 2.94z"/><use xlink:href="#B"/><path d="M134.958 72h4.312V52.4h-4.312V72z"/><use xlink:href="#B" x="30.804"/><path d="M163.886 72h4.396l1.792-4.396h8.288L180.154 72h4.508l-8.4-19.74h-3.976l-8.4 19.74zm7.728-8.204l2.604-6.356 2.604 6.356h-5.208zm22.491 8.484c4.228 0 7.196-2.184 7.196-6.076v-.056c0-3.416-2.24-4.816-6.216-5.88-3.388-.896-4.228-1.26-4.228-2.576v-.056c0-.98.84-1.708 2.52-1.708s3.332.728 5.096 1.932l2.24-3.248c-2.016-1.596-4.396-2.492-7.28-2.492-4.032 0-6.86 2.352-6.86 5.908v.056c0 3.864 2.52 5.012 6.496 5.992 3.276.812 3.948 1.4 3.948 2.492v.056c0 1.148-1.036 1.848-2.828 1.848-2.24 0-4.06-.924-5.852-2.38l-2.548 3.052c2.352 2.128 5.32 3.136 8.316 3.136zM24.282 99h2.674v-9.87h-1.974l-2.87.812.518 2.1 1.652-.392V99zm4.1 0h2.758v-2.73h-2.758V99z"/><use xlink:href="#C"/><use xlink:href="#C" x="10.087"/><use xlink:href="#C" x="20.174"/><path d="M67.034 99h1.078v-7.924l3.57 5.236h.056l3.57-5.25V99h1.106v-9.8h-1.12l-3.57 5.348-3.57-5.348h-1.12V99zm12.113 0h1.106v-9.8h-1.106V99zm3.836 0h1.078v-8.036L90.389 99h.882v-9.8h-1.078v7.854L84.019 89.2h-1.036V99z"/></g><path d="M106.85 97.46h1.05v-2.884h2.898v-1.008H107.9v-2.884h-1.05v2.884h-2.898v1.008h2.898v2.884z" fill="#e92070"/><path d="M121 101l1.093-3.984c-.707-1.221-1.093-2.635-1.093-4.048 0-4.37 3.599-7.968 7.968-7.968S137 88.598 137 92.968 133.338 101 128.968 101c-1.349 0-2.699-.45-3.92-1.092L121 101z" fill="#fff"/><path fill-rule="evenodd" d="M128.968 85.25c-4.231 0-7.718 3.487-7.718 7.718a7.89 7.89 0 0 0 1.059 3.923l.052.091-1.004 3.664 3.721-1.004.087.046c1.199.631 2.508 1.064 3.803 1.064 4.231 0 7.782-3.551 7.782-7.782s-3.548-7.718-7.782-7.718zm-8.218 7.718c0-4.508 3.71-8.218 8.218-8.218s8.282 3.708 8.282 8.218-3.774 8.282-8.282 8.282c-1.37 0-2.728-.445-3.949-1.076l-4.375 1.181 1.18-4.305a8.39 8.39 0 0 1-1.074-4.082z" fill="#cccdd1"/><path d="M125.305 98.494l.257.129c1.029.643 2.185 1.028 3.47 1.028 3.599 0 6.619-3.02 6.619-6.683s-3.02-6.554-6.683-6.554-6.618 2.956-6.618 6.554a6.68 6.68 0 0 0 1.028 3.534l.192.257-.642 2.313 2.377-.578z" fill="#009e56"/><path d="M126.848 89.241h-.514a.58.58 0 0 0-.45.193c-.257.193-.643.643-.771 1.157-.193.835.128 1.799.835 2.827.707.964 2.121 2.57 4.498 3.277.771.193 1.349.064 1.863-.193.386-.257.643-.643.707-1.028l.065-.386c0-.129 0-.257-.129-.321l-1.735-.771c-.128-.064-.257 0-.321.064l-.707.9c-.064.064-.129.064-.193.064-.45-.193-2.056-.835-2.891-2.506v-.193l.642-.771c.065-.064.065-.193.065-.257l-.772-1.799c0-.129-.128-.257-.192-.257z" fill="#fff"/><path d="M144.005 98h2.91V87.5h-2.91V98zm4.682 0h7.995v-2.55h-5.085V87.5h-2.91V98zm9.183 0h2.91V87.5h-2.91V98zm4.682 0h2.85v-6.015l2.67 4.095h.06l2.685-4.11V98h2.895V87.5h-3.075l-2.505 4.065-2.505-4.065h-3.075V98zm12.948 0h2.91V87.5h-2.91V98zm7.247 0h2.91v-7.95h3.15V87.5h-9.195v2.55h3.135V98zm5.015 0h3.045l.75-1.89h4.065l.75 1.89h3.12l-4.47-10.575h-2.805L187.762 98zm4.65-4.155l1.185-2.97 1.17 2.97h-2.355zM200.36 98h4.005c3.765 0 5.97-2.25 5.97-5.28v-.03c0-3.03-2.175-5.19-5.91-5.19h-4.065V98zm4.095-7.935c1.755 0 2.91.99 2.91 2.67v.03c0 1.695-1.155 2.655-2.91 2.655h-1.185v-5.355h1.185zm12.535 8.145c3.24 0 5.67-2.445 5.67-5.46v-.03c0-3.015-2.4-5.43-5.64-5.43s-5.67 2.445-5.67 5.46v.03c0 3.015 2.4 5.43 5.64 5.43zm.03-2.625c-1.605 0-2.7-1.32-2.7-2.835v-.03c0-1.515 1.065-2.805 2.67-2.805s2.685 1.305 2.685 2.835v.03c0 1.515-1.065 2.805-2.655 2.805zM224 113H22v41h202v-41z" fill="#471086"/><path d="M73.385 141.701c4.633 0 8.389-3.739 8.389-8.35S78.018 125 73.385 125s-8.389 3.739-8.389 8.351 3.756 8.35 8.389 8.35z" fill="#0076ed"/><path d="M75.249 129.601h1.088v-1.779c-.194-.038-.816-.077-1.554-.077-1.554 0-2.602.928-2.602 2.629v1.469h-1.748v2.01h1.748v5.103h2.097v-5.103h1.748l.272-2.01h-2.02v-1.276c-.039-.58.116-.966.971-.966z" fill="#fff"/><path d="M92.611 141.701c4.633 0 8.389-3.739 8.389-8.35S97.244 125 92.611 125s-8.389 3.739-8.389 8.351 3.756 8.35 8.389 8.35z" fill="#00a0eb"/><path d="M96.456 131.804c-.078 3.286-2.175 5.529-5.321 5.683-1.321.077-2.253-.348-3.107-.85.932.154 2.175-.194 2.796-.774-.932-.077-1.515-.579-1.787-1.353.272.078.583 0 .777 0-.854-.27-1.437-.773-1.515-1.933a1.4 1.4 0 0 0 .777.232c-.66-.348-1.088-1.701-.583-2.551.932 1.005 2.097 1.855 3.962 2.01-.505-2.01 2.253-3.054 3.34-1.701.505-.077.855-.271 1.243-.425-.155.502-.427.773-.777 1.082.349-.077.738-.154 1.01-.27-.117.27-.466.541-.816.85z" fill="#fff"/><path d="M54.081 141.701c4.633 0 8.389-3.739 8.389-8.35S58.715 125 54.081 125s-8.389 3.739-8.389 8.351 3.756 8.35 8.389 8.35z" fill="#f6f000"/><path d="M49.731 135.554a1.89 1.89 0 0 0 .816-.309c.194-.116.388-.309.583-.503.311-.348.466-.657.466-.734.078-.155.078-.271.039-.387-.078-.193-.388-.309-.583-.348h-.039c-.039 0-.078-.038-.078-.038-.155-.039-.233-.116-.311-.155-.078-.077-.116-.155-.078-.193 0-.039.039-.116.155-.155s.233-.077.311-.039c.272.116.505.155.66.078.039-.039.078-.078.078-.116v-.194c-.039-.58-.078-1.353.117-1.739a2.77 2.77 0 0 1 .544-.774c.194-.154.388-.309.621-.425.427-.193.816-.193 1.01-.193h.155c.194 0 .583.039 1.01.193.233.116.466.232.621.425.233.194.388.464.544.774.194.425.155 1.159.117 1.739v.194c0 .038.039.077.078.116s.117.038.155.038h.039c.117 0 .272-.038.427-.116.039-.038.117-.038.155-.038s.117 0 .155.038c.116.039.233.155.233.232 0 .039 0 .078-.078.155s-.155.116-.311.193c-.039 0-.039.039-.078.039h-.039c-.194.039-.466.155-.583.348-.039.116-.039.232.039.386v.039c.117.232.699 1.353 1.864 1.546.039 0 .078.039.078.116v.039c-.039.077-.117.155-.272.232-.194.077-.466.155-.855.232-.039 0-.078.039-.078.077-.039.039-.039.116-.039.232v.039c0 .039-.039.116-.039.155-.039.038-.078.077-.117.077s-.078 0-.194-.039-.272-.038-.505-.038c-.116 0-.233 0-.35.038-.233.039-.466.194-.699.348-.311.232-.66.464-1.204.464h-.117c-.544 0-.893-.27-1.204-.464-.233-.154-.427-.309-.699-.348-.117-.038-.233-.038-.35-.038-.194 0-.388.038-.505.038-.039 0-.117.039-.194.039s-.116-.039-.155-.077c-.039-.078-.078-.155-.078-.194v-.038c-.039-.078-.039-.155-.078-.232 0-.039-.039-.039-.078-.039-.388-.039-.66-.155-.855-.232-.116-.039-.233-.116-.272-.193v-.078c-.039-.193 0-.193.039-.193z" fill="#fff"/><path fill-rule="evenodd" d="M53.182 129.838c-.187.094-.349.22-.538.37-.193.196-.326.392-.465.67-.06.12-.099.343-.109.652-.009.295.009.618.029.908l.001.012v.204c0 .134-.065.229-.094.268s-.066.075-.082.092l-.043.043-.05.025a.69.69 0 0 1-.175.06.77.77 0 0 1 .304.349l.004.01.003.01c.064.191.061.387-.034.602-.013.055-.032.102-.044.13a1.82 1.82 0 0 1-.108.209 3.48 3.48 0 0 1-.389.522l-.007.008-.007.007-.017.017c-.18.179-.397.395-.626.533-.136.09-.284.169-.446.231.151.056.328.108.551.132l.033.001a.52.52 0 0 1 .111.021c.05.017.123.052.182.128.033.042.054.087.066.13.022.055.035.104.042.132l.014.05.037.074v.013c.02-.004.047-.008.079-.008s.074-.005.155-.014l.03-.003.32-.021c.116-.001.269-.001.429.046.307.052.547.217.731.343l.077.052.113.072c.286.182.529.337.902.337h.117c.427 0 .7-.174.996-.395l.008-.006.008-.005.028-.018c.206-.137.483-.321.781-.378.161-.049.316-.049.419-.049h.052c.158 0 .322 0 .47.029l.005-.062a.54.54 0 0 1 .057-.188.45.45 0 0 1 .101-.156.43.43 0 0 1 .25-.122l.455-.106c-.395-.175-.706-.437-.939-.691a3.86 3.86 0 0 1-.593-.867l-.037-.073v-.047c-.082-.203-.082-.389-.021-.572l.012-.036.02-.033c.087-.145.213-.249.334-.323-.025-.001-.058-.003-.093-.009-.053-.009-.17-.034-.266-.131-.02-.02-.056-.055-.086-.095s-.094-.134-.094-.267v-.205l.001-.012.028-.894c-.009-.294-.046-.525-.112-.672-.153-.305-.281-.514-.452-.656l-.027-.022-.022-.028c-.096-.12-.249-.203-.487-.322-.378-.134-.717-.166-.873-.166h-.155c-.185 0-.507.002-.861.16zm4.207 3.185c.015.009.021.014.025.018m1.212 2.745l.311.156c-.084.169-.233.291-.428.388l-.013.006-.013.005c-.19.076-.434.147-.752.216v.041a.44.44 0 0 1-.007.078l-.011.049-.018.058-.001.003-.001.004v.107l-.102.102c-.02.02-.055.056-.096.086a.45.45 0 0 1-.267.093h-.001c-.024 0-.066 0-.124-.01s-.111-.024-.179-.046c-.05-.017-.137-.021-.395-.021-.124 0-.185.002-.24.021l-.026.008-.027.005c-.143.023-.308.125-.556.289-.325.242-.749.527-1.404.527h-.117c-.589 0-1.004-.268-1.286-.451l-.102-.065-.009-.006-.1-.067c-.2-.134-.305-.205-.455-.226l-.031-.005-.03-.009c-.055-.019-.116-.021-.24-.021a2.14 2.14 0 0 0-.243.017l-.03.003-.195.018c-.005.001-.012.003-.023.006-.037.011-.116.033-.207.033a.54.54 0 0 1-.396-.174l-.045-.045-.028-.054-.06-.126-.031-.082a.5.5 0 0 1-.02-.105c-.339-.069-.587-.169-.756-.236l-.028-.011a1.05 1.05 0 0 1-.244-.123.68.68 0 0 1-.219-.241l-.037-.074v-.127c-.008-.044-.014-.088-.015-.129a.48.48 0 0 1 .031-.202c.041-.102.121-.182.227-.22a.37.37 0 0 1 .102-.021c.258-.034.474-.126.665-.253l.007-.005.007-.004c.148-.088.308-.244.508-.443a2.75 2.75 0 0 0 .304-.408c.033-.055.055-.098.066-.126l.001-.044.037-.074c.023-.045.026-.069.027-.078-.003-.02-.004-.021-.006-.023a.4.4 0 0 0-.079-.052 1 1 0 0 0-.212-.077h-.002a.44.44 0 0 1-.234-.07c-.085-.028-.152-.063-.206-.095l-.097-.061-.056-.029-.04-.039c-.054-.054-.117-.129-.157-.221-.027-.063-.069-.207-.004-.349.051-.167.199-.297.374-.355.061-.021.139-.047.218-.061s.21-.028.346.035c.099.042.181.067.246.079l-.028-.947c.01-.32.049-.676.182-.943a3.12 3.12 0 0 1 .609-.863l.014-.014.026-.02c.188-.15.407-.324.673-.456l.012-.006c.496-.224.945-.224 1.149-.224h.16c.23 0 .659.044 1.128.214l.019.007.018.009.025.012c.208.103.487.242.69.479.279.241.455.561.607.862l.006.012c.127.278.167.625.177.946.01.315-.009.646-.027.928.046-.009.103-.027.166-.056.08-.055.162-.072.204-.079a.66.66 0 0 1 .132-.009c.026-.001.079-.001.137.009a.51.51 0 0 1 .19.07c.093.04.175.1.237.162a.69.69 0 0 1 .11.141.48.48 0 0 1 .066.236c0 .03 0 .105-.035.193s-.088.152-.145.209c-.118.117-.243.179-.379.247-.007.003-.015.007-.022.011l-.004.002a.34.34 0 0 1-.027.018c-.027.016-.059.03-.095.041a.4.4 0 0 1-.106.014c-.06.015-.131.04-.193.074-.05.027-.084.053-.106.075.001.012.004.035.027.081l.037.074v.037c.074.139.221.39.447.636.253.276.589.53 1.018.63l.477-.949v1.468h-.348zm-8.891.116h0z" fill="#201712"/><path d="M34.312 141.624c4.59 0 8.312-3.704 8.312-8.273s-3.721-8.273-8.312-8.273S26 128.782 26 133.351s3.721 8.273 8.312 8.273z" fill="url(#A)"/><g fill="#fff"><path d="M36.448 128.634h-4.272c-1.437 0-2.641 1.16-2.641 2.59v4.214c0 1.431 1.165 2.59 2.641 2.59h4.272c1.437 0 2.641-1.159 2.641-2.59v-4.214c0-1.43-1.204-2.59-2.641-2.59zm1.787 6.843c0 .966-.816 1.778-1.787 1.778h-4.272c-.971 0-1.787-.812-1.787-1.778v-4.214c0-.967.816-1.778 1.787-1.778h4.272c.971 0 1.787.811 1.787 1.778v4.214zm-3.923-4.562a2.436 2.436 0 1 0 0 4.871 2.436 2.436 0 1 0 0-4.871zm0 4.021c-.893 0-1.631-.696-1.631-1.585s.738-1.586 1.631-1.586 1.631.735 1.631 1.586c-.039.889-.777 1.585-1.631 1.585zm2.563-4.717c-.155 0-.311.077-.427.193a.62.62 0 0 0-.194.426.62.62 0 0 0 .194.425c.117.116.272.193.427.193s.311-.077.427-.193a.62.62 0 0 0 .194-.425.62.62 0 0 0-.194-.426c-.117-.116-.272-.193-.427-.193z"/><use xlink:href="#D"/><path d="M112.999 148h.968v-3.984l3.088 3.984h.824v-5.6h-.968v3.872l-3-3.872h-.912v5.6zm8.559 0h.984v-1.952h1.232L125.15 148h1.168l-1.512-2.12c.776-.224 1.328-.776 1.328-1.696v-.016c0-.488-.168-.904-.464-1.208-.36-.352-.912-.56-1.616-.56h-2.496v5.6zm.984-2.824v-1.88h1.432c.728 0 1.16.328 1.16.928v.016c0 .568-.448.936-1.152.936h-1.44z"/><use xlink:href="#D" x="19.539"/><path d="M132.539 148h2.088c1.76 0 2.976-1.224 2.976-2.8v-.016c0-1.576-1.216-2.784-2.976-2.784h-2.088v5.6zm2.088-4.704c1.176 0 1.944.808 1.944 1.904v.016c0 1.096-.768 1.888-1.944 1.888h-1.104v-3.808h1.104zm8.984 4.704h.944v-1.256h.8v-.808h-.8v-3.576h-.84l-3.112 3.68.184.704h2.824V148zm-1.84-2.064l1.84-2.216v2.216h-1.84zm7.293 2.16a3.57 3.57 0 0 0 2.336-.872v-2.352h-2.384v.856h1.432v1.048c-.344.256-.824.424-1.352.424-1.144 0-1.904-.848-1.904-2v-.016c0-1.072.784-1.976 1.816-1.976.712 0 1.136.232 1.568.6l.624-.744c-.576-.488-1.176-.76-2.152-.76-1.688 0-2.888 1.328-2.888 2.896v.016c0 1.632 1.152 2.88 2.904 2.88z"/><use xlink:href="#E"/><use xlink:href="#F"/><use xlink:href="#G"/><use xlink:href="#F" x="11.942"/><path d="M182.082 148.08c1.176 0 2-.624 2-1.672v-.016c0-.928-.608-1.352-1.792-1.64-1.08-.256-1.336-.448-1.336-.88v-.016c0-.368.336-.664.912-.664.512 0 1.016.2 1.52.576l.528-.744c-.568-.456-1.216-.704-2.032-.704-1.112 0-1.912.664-1.912 1.624v.016c0 1.032.672 1.384 1.864 1.672 1.04.24 1.264.456 1.264.856v.016c0 .416-.384.704-.992.704-.688 0-1.232-.264-1.768-.728l-.592.704a3.45 3.45 0 0 0 2.336.896zm3.133-.08h.984v-5.6h-.984v5.6z"/><use xlink:href="#D" x="79.898"/><path d="M192.897 148h.968v-4l1.752 2.624h.032l1.768-2.64V148h.984v-5.6h-1.048l-1.704 2.648-1.704-2.648h-1.048v5.6z"/><use xlink:href="#E" x="44.842"/><use xlink:href="#G" x="39.164"/><use xlink:href="#D" x="103.007"/><path d="M107.736 139h14.924v-4.76h-9.492V119.4h-5.432V139zm19.381 0h5.432v-19.6h-5.432V139zm10.98 0h10.108c4.676 0 7.42-2.044 7.42-5.404v-.056c0-2.66-1.512-4.004-3.892-4.788 1.736-.756 3.024-2.1 3.024-4.368v-.056c0-1.344-.476-2.38-1.26-3.192-1.148-1.12-2.884-1.736-5.348-1.736h-10.052V139zm11.312-13.496c0 1.148-.952 1.708-2.604 1.708h-3.416v-3.444h3.556c1.596 0 2.464.588 2.464 1.68v.056zm.784 7.28v.056c0 1.148-.924 1.792-2.604 1.792h-4.2v-3.612h4.144c1.82 0 2.66.7 2.66 1.764zm9.88 6.216h5.432v-5.936h2.408l3.948 5.936h6.244l-4.676-6.832c2.436-1.036 4.032-3.024 4.032-6.048v-.056c0-1.932-.588-3.416-1.736-4.564-1.316-1.316-3.388-2.1-6.384-2.1h-9.268V139zm5.432-10.192v-4.732h3.584c1.792 0 2.94.784 2.94 2.352v.056c0 1.428-1.092 2.324-2.912 2.324h-3.612zM182.158 139h15.904v-4.62h-10.528v-3.108h9.408v-4.284h-9.408v-2.996h10.388V119.4h-15.764V139zm28.363.336c4.76 0 7.924-2.38 7.924-6.384v-.056c0-3.668-2.8-5.124-7.28-6.104-2.744-.616-3.416-1.008-3.416-1.904v-.056c0-.728.644-1.26 1.96-1.26 1.736 0 3.696.644 5.488 1.932l2.716-3.836c-2.128-1.708-4.732-2.604-8.064-2.604-4.704 0-7.588 2.632-7.588 6.272v.056c0 4.004 3.22 5.18 7.392 6.132 2.688.644 3.332 1.064 3.332 1.904v.056c0 .84-.784 1.344-2.268 1.344-2.268 0-4.396-.812-6.356-2.352l-3.024 3.612c2.436 2.156 5.712 3.248 9.184 3.248z"/></g><path fill-rule="evenodd" d="M222.5 169H22v-1h201.5v8.5h-1V169z" fill="#471086"/><g fill="#e92070"><path d="M106.153 182.288c-2.128-1.482-4.332-2.432-7.068-2.774v-2.318h-3.952v2.204c-4.788.494-7.98 3.268-7.98 7.448v.076c0 4.56 2.698 6.536 8.17 8.056v6.042c-2.28-.456-4.104-1.52-6.194-3.078l-2.964 4.332c2.546 1.938 5.662 3.192 8.968 3.61v3.838h3.952v-3.762c4.75-.494 8.056-3.23 8.056-7.486v-.076c0-4.256-2.47-6.574-8.246-8.132v-5.776c1.558.418 3.192 1.216 4.712 2.242l2.546-4.446zm-4.56 16.492c0 1.33-.912 2.166-2.698 2.432v-5.32c2.09.76 2.698 1.558 2.698 2.812v.076zm-8.892-12.274c0-1.216.76-2.09 2.622-2.356v5.168c-2.09-.76-2.622-1.52-2.622-2.736v-.076z"/><use xlink:href="#H"/><path d="M134.685 206h6.156v-6.08h-6.156V206z"/><use xlink:href="#H" x="34.142"/><use xlink:href="#H" x="58.542"/><path d="M205.074 206.456c7.106 0 11.856-6.042 11.856-13.756v-.076c0-7.752-4.75-13.68-11.78-13.68-7.106 0-11.856 6.042-11.856 13.756v.076c0 7.752 4.636 13.68 11.78 13.68zm.076-5.282c-3.534 0-5.852-3.61-5.852-8.474v-.076c0-4.864 2.28-8.398 5.776-8.398s5.852 3.648 5.852 8.474v.076c0 4.864-2.242 8.398-5.776 8.398z"/></g><g fill="#471086"><path d="M117.015 221.108c1.179 0 1.899-.432 2.556-1.116l-.711-.72c-.54.504-1.035.81-1.809.81-1.206 0-2.079-.999-2.079-2.232v-.018c0-1.233.882-2.223 2.079-2.223.72 0 1.26.315 1.764.783l.711-.819a3.28 3.28 0 0 0-2.466-.981c-1.908 0-3.249 1.467-3.249 3.258v.018c0 1.809 1.368 3.24 3.204 3.24zm2.999-.108h1.134l.648-1.521h2.979l.639 1.521h1.17l-2.772-6.345h-1.026L120.014 221zm2.187-2.502l1.08-2.52 1.089 2.52h-2.169zm5.284 2.502h1.107v-2.196h1.386l1.548 2.196h1.314l-1.701-2.385c.873-.252 1.494-.873 1.494-1.908v-.018c0-.549-.189-1.017-.522-1.359-.405-.396-1.026-.63-1.818-.63h-2.808v6.3zm1.107-3.177v-2.115h1.611c.819 0 1.305.369 1.305 1.044v.018c0 .639-.504 1.053-1.296 1.053h-1.62zm8.205 3.285c1.116 0 2.007-.45 2.628-.981v-2.646h-2.682v.963h1.611v1.179c-.387.288-.927.477-1.521.477-1.287 0-2.142-.954-2.142-2.25v-.018c0-1.206.882-2.223 2.043-2.223.801 0 1.278.261 1.764.675l.702-.837c-.648-.549-1.323-.855-2.421-.855-1.899 0-3.249 1.494-3.249 3.258v.018c0 1.836 1.296 3.24 3.267 3.24z"/><use xlink:href="#I"/><path d="M150.671 221h1.107v-2.565h3.177v-1.008h-3.177v-1.719h3.582V214.7h-4.689v6.3zm5.789 0h1.107v-6.3h-1.107v6.3zm4.009.09c.63 0 1.161-.189 1.53-.558s.594-.927.594-1.674V214.7h-1.143v4.122c0 .846-.405 1.242-.999 1.242-.531 0-.9-.27-1.269-.747l-.729.756a2.37 2.37 0 0 0 2.016 1.017z"/><use xlink:href="#I" x="23.244"/><path d="M173.914 221h1.089v-4.5l1.971 2.952h.036l1.989-2.97V221h1.107v-6.3h-1.179l-1.917 2.979-1.917-2.979h-1.179v6.3zm7.634 0h4.716v-.99h-3.609v-1.692h3.159v-.99h-3.159v-1.638h3.564v-.99h-4.671v6.3zm5.849 0h1.089v-4.482L191.96 221h.927v-6.3h-1.089v4.356l-3.375-4.356h-1.026v6.3zm9.136.09c1.323 0 2.25-.702 2.25-1.881v-.018c0-1.044-.684-1.521-2.016-1.845-1.215-.288-1.503-.504-1.503-.99v-.018c0-.414.378-.747 1.026-.747.576 0 1.143.225 1.71.648l.594-.837a3.49 3.49 0 0 0-2.286-.792c-1.251 0-2.151.747-2.151 1.827v.018c0 1.161.756 1.557 2.097 1.881 1.17.27 1.422.513 1.422.963v.018c0 .468-.432.792-1.116.792-.774 0-1.386-.297-1.989-.819l-.666.792a3.88 3.88 0 0 0 2.628 1.008zm5.954.009c1.647 0 2.709-.945 2.709-2.826V214.7h-1.107v3.627c0 1.161-.603 1.746-1.584 1.746-.99 0-1.593-.621-1.593-1.791V214.7h-1.107v3.627c0 1.827 1.044 2.772 2.682 2.772zm3.28-.099h1.134l.648-1.521h2.979l.639 1.521h1.17l-2.772-6.345h-1.026L205.767 221zm2.187-2.502l1.08-2.52 1.089 2.52h-2.169zm5.284 2.502h4.419v-1.008h-3.312V214.7h-1.107v6.3z"/></g><path d="M7 3H235V31H7V3Z" fill="#e92070"/><g fill="#fff"><path d="M58.376 12.44h-2.16V23H63v-1.952h-4.624V12.44zm9.231-4h-2.608l-1.152 2.976h1.568l2.192-2.592V8.44zm-1.84 4h-2.16V23h2.16V12.44zm8.25 0v6.288l-6.128-6.48h-.704V23h2.16v-6.336l6.112 6.528h.72V12.44h-2.16zm10.678 0h-7.104V23h7.296v-1.952h-5.136v-2.672h3.632v-1.84h-3.632v-2.144h4.944V12.44z"/><path d="M92.579 23h2.32l-4.704-10.752h-.72L84.755 23h2.32l.592-1.376h4.32L92.579 23zm-1.36-3.152h-2.784l1.392-3.552 1.392 3.552zM104.048 23h2.32l-4.704-10.752h-.72L96.224 23h2.32l.592-1.376h4.32l.592 1.376zm-1.36-3.152h-2.784l1.392-3.552 1.392 3.552zm7.578-7.408h-3.456V23h3.456c3.392 0 5.76-2.192 5.76-5.312 0-3.168-2.368-5.248-5.76-5.248zm-.016 1.952c2.128 0 3.552 1.216 3.552 3.296 0 2.032-1.424 3.36-3.552 3.36h-1.28v-6.656h1.28zm8.767-1.952h-2.16V23h2.16V12.44zm6.442-.192c-3.152 0-5.632 2.368-5.632 5.472s2.48 5.472 5.616 5.472c2.048 0 3.76-1.008 4.672-2.624l-1.632-1.152c-.704 1.12-1.696 1.776-3.024 1.776-1.968 0-3.408-1.424-3.408-3.456 0-2.048 1.44-3.488 3.408-3.488 1.328 0 2.32.656 3.024 1.776l1.632-1.152c-.928-1.616-2.624-2.624-4.656-2.624zm7.651.192h-2.16V23h2.16V12.44zm6.411-.192c-3.104 0-5.6 2.368-5.6 5.472s2.496 5.472 5.6 5.472 5.632-2.368 5.632-5.472-2.528-5.472-5.632-5.472zm.016 2c1.936 0 3.392 1.44 3.392 3.472 0 2.048-1.456 3.472-3.392 3.472-1.968 0-3.392-1.424-3.392-3.472 0-2.032 1.424-3.472 3.392-3.472zm13.277-1.808v6.288l-6.128-6.48h-.704V23h2.16v-6.336l6.112 6.528h.72V12.44h-2.16zM163.204 23h2.32l-4.704-10.752h-.72L155.38 23h2.32l.592-1.376h4.32l.592 1.376zm-1.36-3.152h-2.784l1.392-3.552 1.392 3.552zm6.282-7.408h-2.16V23h6.784v-1.952h-4.624V12.44z"/></g><defs><radialGradient id="A" cx="0" cy="0" r="1" gradientUnits="userSpaceOnUse" gradientTransform="translate(30.816 141.575) scale(16.7456 16.6681)"><stop stop-color="#f2ca74"/><stop offset=".246" stop-color="#e59855"/><stop offset=".379" stop-color="#e25c3c"/><stop offset=".7" stop-color="#b53181"/><stop offset=".985" stop-color="#5c6ba5"/></radialGradient><path id="B" d="M122.521 72.336c3.584 0 6.356-1.4 8.372-3.108v-8.512h-8.512v3.724h4.34v2.8c-1.092.784-2.464 1.176-4.06 1.176-3.472 0-5.936-2.632-5.936-6.216v-.056c0-3.332 2.492-6.104 5.628-6.104 2.24 0 3.64.728 5.124 1.988l2.716-3.276c-2.016-1.736-4.2-2.688-7.7-2.688-5.936 0-10.276 4.564-10.276 10.136v.056c0 5.824 4.2 10.08 10.304 10.08z"/><path id="C" d="M36.427 99.196c2.8 0 4.55-2.324 4.55-5.096v-.028c0-2.772-1.736-5.068-4.522-5.068s-4.55 2.324-4.55 5.096v.028c0 2.772 1.736 5.068 4.522 5.068zm.028-2.408c-1.092 0-1.82-1.12-1.82-2.688v-.028c0-1.568.714-2.674 1.792-2.674 1.092 0 1.82 1.134 1.82 2.702v.028c0 1.554-.7 2.66-1.792 2.66z"/><path id="D" d="M107.72 148h4.192v-.88h-3.208v-1.504h2.808v-.88h-2.808v-1.456h3.168v-.88h-4.152v5.6z"/><path id="E" d="M154.92 148h.984v-1.8h1.112c1.232 0 2.24-.656 2.24-1.912v-.016c0-1.128-.816-1.872-2.128-1.872h-2.208v5.6zm.984-2.688v-2.016h1.144c.736 0 1.208.344 1.208 1v.016c0 .584-.464 1-1.208 1h-1.144z"/><path id="F" d="M159.141 148h1.008l.576-1.352h2.648l.568 1.352h1.04l-2.464-5.64h-.912l-2.464 5.64zm1.944-2.224l.96-2.24.968 2.24h-1.928z"/><path id="G" d="M165.862 148h.984v-1.952h1.232l1.376 1.952h1.168l-1.512-2.12c.776-.224 1.328-.776 1.328-1.696v-.016c0-.488-.168-.904-.464-1.208-.36-.352-.912-.56-1.616-.56h-2.496v5.6zm.984-2.824v-1.88h1.432c.728 0 1.16.328 1.16.928v.016c0 .568-.448.936-1.152.936h-1.44z"/><path id="H" d="M119.928 201.136c-2.28 0-3.876-.722-5.814-2.28l-3.078 4.446c2.28 1.862 4.826 3.154 8.74 3.154 7.562 0 11.628-5.89 11.628-14.516v-.076c0-5.244-1.254-8.132-3.154-10.032-2.014-2.014-4.142-2.888-7.676-2.888-6.004 0-10.146 3.952-10.146 9.31v.076c0 5.358 3.724 8.588 9.5 8.588 2.28 0 4.028-.646 5.396-1.824-.19 2.28-1.406 6.042-5.396 6.042zm.95-9.082c-2.888 0-4.636-1.596-4.636-3.99v-.076c0-2.394 1.634-4.028 4.522-4.028 2.926 0 4.674 1.672 4.674 4.066v.076c0 2.28-1.672 3.952-4.56 3.952z"/><path id="I" d="M143.692 221.108c1.935 0 3.303-1.485 3.303-3.258v-.018c0-1.773-1.35-3.24-3.285-3.24s-3.303 1.485-3.303 3.258v.018c0 1.773 1.35 3.24 3.285 3.24zm.018-1.026c-1.251 0-2.142-1.008-2.142-2.232v-.018c0-1.224.873-2.223 2.124-2.223s2.142 1.017 2.142 2.241v.018c0 1.224-.873 2.214-2.124 2.214z"/></defs></svg>