<svg xmlns="http://www.w3.org/2000/svg" xmlns:xlink="http://www.w3.org/1999/xlink" width="240" height="291" fill="none" xmlns:v="https://vecta.io/nano"><path fill="#fff" d="M0 0h240v291H0z"/><g fill="#471086"><path fill-rule="evenodd" d="M8 33h228v1.236H9.076V287H8V33z"/><path d="M24.62 73h2.214v-4.05h2.502c2.772 0 5.04-1.476 5.04-4.302v-.036c0-2.538-1.836-4.212-4.788-4.212H24.62V73zm2.214-6.048v-4.536h2.574c1.656 0 2.718.774 2.718 2.25v.036c0 1.314-1.044 2.25-2.718 2.25h-2.574zM37.058 73h2.178V59.86h-2.178V73zm8.3.198c1.458 0 2.448-.612 3.096-1.386V73h2.124v-5.634c0-1.242-.324-2.25-1.026-2.934-.666-.684-1.728-1.062-3.15-1.062-1.512 0-2.538.306-3.582.774l.576 1.71c.864-.36 1.656-.594 2.718-.594 1.53 0 2.358.72 2.358 2.07v.234a7.94 7.94 0 0 0-2.556-.396c-2.322 0-3.924 1.008-3.924 3.06v.036c0 1.908 1.584 2.934 3.366 2.934zm.612-1.584c-1.044 0-1.854-.522-1.854-1.44v-.036c0-.99.828-1.584 2.232-1.584.864 0 1.602.162 2.16.378v.648c0 1.206-1.098 2.034-2.538 2.034zM53.726 73h2.178v-5.364c0-1.476.882-2.358 2.142-2.358 1.296 0 2.034.846 2.034 2.322V73h2.178v-6.066c0-2.196-1.242-3.636-3.384-3.636-1.476 0-2.358.774-2.97 1.656v-1.458h-2.178V73zm21.255 0h4.256V53.26h-2.94l-5.628 1.68.896 3.528 3.416-.84V73zm17.021.336c5.236 0 8.736-4.452 8.736-10.136v-.056c0-5.712-3.499-10.08-8.679-10.08-5.236 0-8.736 4.452-8.736 10.136v.056c0 5.712 3.416 10.08 8.68 10.08zm.056-3.892c-2.604 0-4.312-2.66-4.312-6.244v-.056c0-3.584 1.68-6.188 4.256-6.188s4.312 2.688 4.312 6.244v.056c0 3.584-1.652 6.188-4.256 6.188zm20.397 3.892c5.236 0 8.736-4.452 8.736-10.136v-.056c0-5.712-3.5-10.08-8.68-10.08-5.236 0-8.736 4.452-8.736 10.136v.056c0 5.712 3.416 10.08 8.68 10.08zm.056-3.892c-2.604 0-4.312-2.66-4.312-6.244v-.056c0-3.584 1.68-6.188 4.256-6.188s4.312 2.688 4.312 6.244v.056c0 3.584-1.652 6.188-4.256 6.188z"/><use xlink:href="#B"/><path d="M155.615 73h4.312V53.4h-4.312V73z"/><use xlink:href="#B" x="31.364"/><path d="M185.103 73h4.396l1.792-4.396h8.288L201.371 73h4.508l-8.4-19.74h-3.976l-8.4 19.74zm7.728-8.204l2.604-6.356 2.604 6.356h-5.208z"/><use xlink:href="#C"/><path d="M23.744 91h2.28v-4.812l2.136 3.276h.048l2.148-3.288V91h2.316v-8.4h-2.46l-2.004 3.252-2.004-3.252h-2.46V91zm10.478 0h2.328v-8.4h-2.328V91zm3.866 0h2.304v-4.608l3.6 4.608h2.028v-8.4h-2.304v4.44L40.26 82.6h-2.172V91zm13.202.156c2.388 0 3.936-1.2 3.936-3.9V82.6h-2.352v4.728c0 1.176-.612 1.728-1.56 1.728-.936 0-1.548-.576-1.548-1.788V82.6h-2.352v4.716c0 2.628 1.5 3.84 3.876 3.84zM58.655 91h2.328v-6.36h2.52V82.6h-7.356v2.04h2.508V91zm9.743.168c2.592 0 4.536-1.956 4.536-4.368v-.024c0-2.412-1.92-4.344-4.512-4.344s-4.536 1.956-4.536 4.368v.024c0 2.412 1.92 4.344 4.512 4.344zm.024-2.1c-1.284 0-2.16-1.056-2.16-2.268v-.024c0-1.212.852-2.244 2.136-2.244s2.148 1.044 2.148 2.268v.024c0 1.212-.852 2.244-2.124 2.244zm8.954 2.076c2.04 0 3.396-1.02 3.396-2.736v-.024c0-1.572-1.2-2.196-3.12-2.616-1.176-.264-1.464-.432-1.464-.816v-.024c0-.312.276-.54.84-.54.744 0 1.584.276 2.352.828l1.164-1.644c-.912-.732-2.028-1.116-3.456-1.116-2.016 0-3.252 1.128-3.252 2.688v.024c0 1.716 1.38 2.22 3.168 2.628 1.152.276 1.428.456 1.428.816v.024c0 .36-.336.576-.972.576-.972 0-1.884-.348-2.724-1.008l-1.296 1.548c1.044.924 2.448 1.392 3.936 1.392zM24.188 104h5.676v-.876h-4.728V95.6h-.948v8.4zm7.467 0h.948v-8.4h-.948v8.4zm3.408 0h3.732c1.836 0 3.048-.852 3.048-2.292v-.024c0-1.14-.804-1.74-1.8-2.028.66-.288 1.332-.852 1.332-1.944v-.024c0-.516-.18-.972-.54-1.344-.48-.468-1.236-.744-2.196-.744h-3.576v8.4zm5.352-6.156c0 .996-.78 1.5-1.932 1.5h-2.484v-2.892h2.556c1.2 0 1.86.54 1.86 1.368v.024zm.468 3.804c0 .948-.78 1.5-2.064 1.5h-2.82v-2.964h2.652c1.476 0 2.232.528 2.232 1.44v.024zm2.84 2.352h.948v-3.264h2.4L49.507 104h1.164l-2.58-3.432c1.32-.228 2.28-1.056 2.28-2.448v-.024c0-.672-.228-1.236-.648-1.656-.528-.528-1.344-.84-2.388-.84h-3.612v8.4zm.948-4.116v-3.408h2.592c1.356 0 2.148.612 2.148 1.656v.024c0 1.08-.912 1.728-2.16 1.728h-2.58zM52.395 104h6.132v-.864h-5.184v-2.94h4.584v-.864h-4.584v-2.868h5.124V95.6h-6.072v8.4zm10.919.12c1.668 0 2.868-.936 2.868-2.376v-.024c0-1.284-.864-1.956-2.736-2.376-1.86-.384-2.28-.84-2.28-1.632v-.024c0-.768.684-1.356 1.788-1.356.864 0 1.644.276 2.424.912l.552-.732c-.864-.684-1.716-1.032-2.952-1.032-1.596 0-2.76.984-2.76 2.292v.024c0 1.38.888 2.004 2.82 2.424 1.764.384 2.184.816 2.184 1.596v.024c0 .828-.732 1.428-1.872 1.428-1.164 0-2.004-.384-2.88-1.188l-.588.696c1.008.912 2.088 1.344 3.432 1.344z"/></g><path d="M76.85 102.46h1.05v-2.884h2.898v-1.008H77.9v-2.884h-1.05v2.884h-2.898v1.008h2.898v2.884z" fill="#e92070"/><path d="M93 101l1.092-3.984C93.386 95.795 93 94.382 93 92.968c0-4.37 3.598-7.968 7.968-7.968S109 88.598 109 92.968 105.337 101 100.968 101c-1.35 0-2.699-.45-3.92-1.092L93 101z" fill="#fff"/><path fill-rule="evenodd" d="M100.968 85.25c-4.232 0-7.718 3.487-7.718 7.718 0 1.369.374 2.74 1.059 3.923l.052.091-1.005 3.664 3.721-1.004.087.046c1.199.631 2.508 1.064 3.803 1.064 4.231 0 7.782-3.551 7.782-7.782s-3.548-7.718-7.782-7.718zm-8.218 7.718c0-4.508 3.71-8.218 8.218-8.218s8.282 3.708 8.282 8.218-3.775 8.282-8.282 8.282c-1.371 0-2.729-.445-3.949-1.076l-4.376 1.181 1.181-4.305c-.695-1.237-1.074-2.659-1.074-4.082z" fill="#cccdd1"/><path d="M97.305 98.494l.257.129c1.028.643 2.185 1.028 3.47 1.028 3.598 0 6.619-3.02 6.619-6.683s-3.021-6.554-6.683-6.554-6.619 2.956-6.619 6.554c0 1.285.385 2.506 1.028 3.534l.193.257-.642 2.313 2.377-.578z" fill="#009e56"/><path d="M98.847 89.241h-.514c-.193 0-.321.064-.45.193a2.29 2.29 0 0 0-.771 1.157c-.193.835.129 1.799.835 2.827.707.964 2.12 2.57 4.498 3.277.771.193 1.349.064 1.863-.193.386-.257.643-.643.707-1.028l.064-.386c0-.129 0-.257-.128-.321l-1.735-.771c-.129-.064-.257 0-.321.064l-.707.9c-.064.064-.129.064-.193.064-.45-.193-2.056-.835-2.892-2.506v-.193l.643-.771c.064-.064.064-.193.064-.257l-.771-1.799c0-.129-.129-.257-.193-.257z" fill="#fff"/><g fill="#471086"><path d="M113.682 91h5.863v-1.87h-3.729V83.3h-2.134V91zm6.844 0h2.134v-7.7h-2.134V91zm3.544 0h3.971c1.837 0 2.915-.803 2.915-2.123v-.022c0-1.045-.594-1.573-1.529-1.881.682-.297 1.188-.825 1.188-1.716v-.022c0-.528-.187-.935-.495-1.254-.451-.44-1.133-.682-2.101-.682h-3.949V91zm4.444-5.302c0 .451-.374.671-1.023.671h-1.342v-1.353h1.397c.627 0 .968.231.968.66v.022zm.308 2.86v.022c0 .451-.363.704-1.023.704h-1.65v-1.419h1.628c.715 0 1.045.275 1.045.693zM131.933 91h2.134v-2.332h.946L136.564 91h2.453l-1.837-2.684c.957-.407 1.584-1.188 1.584-2.376v-.022c0-.759-.231-1.342-.682-1.793-.517-.517-1.331-.825-2.508-.825h-3.641V91zm2.134-4.004v-1.859h1.408c.704 0 1.155.308 1.155.924v.022c0 .561-.429.913-1.144.913h-1.419zM139.839 91h6.248v-1.815h-4.136v-1.221h3.696v-1.683h-3.696v-1.177h4.081V83.3h-6.193V91zm10.399 0h6.248v-1.815h-4.136v-1.221h3.696v-1.683h-3.696v-1.177h4.081V83.3h-6.193V91zm7.347 0h2.112v-4.224l3.3 4.224h1.859v-7.7h-2.112v4.07l-3.168-4.07h-1.991V91zm11.688 0h2.134v-2.332h.946L173.904 91h2.453l-1.837-2.684c.957-.407 1.584-1.188 1.584-2.376v-.022c0-.759-.231-1.342-.682-1.793-.517-.517-1.331-.825-2.508-.825h-3.641V91zm2.134-4.004v-1.859h1.408c.704 0 1.155.308 1.155.924v.022c0 .561-.429.913-1.144.913h-1.419zm9.655 4.158c2.376 0 4.158-1.793 4.158-4.004v-.022c0-2.211-1.76-3.982-4.136-3.982s-4.158 1.793-4.158 4.004v.022c0 2.211 1.76 3.982 4.136 3.982zm.022-1.925c-1.177 0-1.98-.968-1.98-2.079v-.022c0-1.111.781-2.057 1.958-2.057s1.969.957 1.969 2.079v.022c0 1.111-.781 2.057-1.947 2.057zM185.221 91h2.233l.55-1.386h2.981l.55 1.386h2.288l-3.278-7.755h-2.057L185.221 91zm3.41-3.047l.869-2.178.858 2.178h-1.727zm5.94 3.047h2.09v-4.411l1.958 3.003h.044l1.969-3.014V91h2.123v-7.7H200.5l-1.837 2.981-1.837-2.981h-2.255V91zm9.604 0h2.134v-7.7h-2.134V91zm3.544 0h2.112v-4.224l3.3 4.224h1.859v-7.7h-2.112v4.07l-3.168-4.07h-1.991V91zm12.564.154c1.408 0 2.53-.517 3.344-1.199v-3.454h-3.531v1.562h1.507v.935c-.308.209-.704.319-1.232.319-1.221 0-2.09-.891-2.09-2.145v-.022c0-1.177.858-2.101 1.969-2.101.77 0 1.309.264 1.859.726l1.254-1.518c-.814-.704-1.771-1.111-3.124-1.111-2.376 0-4.136 1.76-4.136 4.004v.022c0 2.332 1.782 3.982 4.18 3.982z"/><use xlink:href="#D"/><path d="M121.499 102h1.21v-4.98l3.86 4.98h1.03v-7h-1.21v4.84l-3.75-4.84h-1.14v7zm10.699 0h1.21v-5l2.19 3.28h.04l2.21-3.3V102h1.23v-7h-1.31l-2.13 3.31-2.13-3.31h-1.31v7zm7.981 0h1.26l.72-1.69h3.31l.71 1.69h1.3l-3.08-7.05h-1.14l-3.08 7.05zm2.43-2.78l1.2-2.8 1.21 2.8h-2.41zm.72-4.9h.94l1.28-.97-1.1-.48-1.12 1.45z"/><use xlink:href="#E"/><path d="M157.657 102h2.61c2.2 0 3.72-1.53 3.72-3.5v-.02c0-1.97-1.52-3.48-3.72-3.48h-2.61v7zm2.61-5.88c1.47 0 2.43 1.01 2.43 2.38v.02c0 1.37-.96 2.36-2.43 2.36h-1.38v-4.76h1.38z"/><use xlink:href="#D" x="50.479"/><path d="M177.016 102.12c1.55 0 2.6-.94 2.6-2.37v-.02c0-1.48-1.08-2.2-2.44-2.2-.47 0-.78.08-1.11.2l.11-1.64h3.13V95h-4.19l-.2 3.43.74.49c.36-.17.79-.31 1.29-.31.85 0 1.45.45 1.45 1.16v.02c0 .73-.55 1.21-1.39 1.21-.65 0-1.24-.32-1.8-.84l-.76.89c.66.64 1.5 1.07 2.57 1.07zm6.701 0c1.84 0 3.06-1.62 3.06-3.62v-.02c0-2-1.21-3.6-3.04-3.6-1.84 0-3.06 1.62-3.06 3.62v.02c0 2 1.2 3.6 3.04 3.6zm.02-1.11c-1.09 0-1.79-1.13-1.79-2.51v-.02c0-1.39.69-2.49 1.77-2.49s1.79 1.13 1.79 2.51v.02c0 1.37-.68 2.49-1.77 2.49zm7.304.99h1.23v-2.25h1.39c1.54 0 2.8-.82 2.8-2.39v-.02c0-1.41-1.02-2.34-2.66-2.34h-2.76v7zm1.23-3.36v-2.52h1.43c.92 0 1.51.43 1.51 1.25v.02c0 .73-.58 1.25-1.51 1.25h-1.43zm4.047 3.36h1.26l.72-1.69h3.31l.71 1.69h1.3l-3.08-7.05h-1.14l-3.08 7.05zm2.43-2.78l1.2-2.8 1.21 2.8h-2.41zm6.04 2.78h1.23v-7h-1.23v7z"/><use xlink:href="#E" x="59.33"/><use xlink:href="#D" x="99.189"/><use xlink:href="#E" x="72.226"/><path fill-rule="evenodd" d="M223.5 217H23v-1h201.5v8.5h-1V217z"/><path d="M23.27 230h1.134l.648-1.521h2.979L28.67 230h1.17l-2.772-6.345h-1.026L23.27 230zm2.187-2.502l1.08-2.52 1.089 2.52h-2.169zM30.38 230h2.349c1.98 0 3.348-1.377 3.348-3.15v-.018c0-1.773-1.368-3.132-3.348-3.132H30.38v6.3zm2.349-5.292c1.323 0 2.187.909 2.187 2.142v.018c0 1.233-.864 2.124-2.187 2.124h-1.242v-4.284h1.242zM36.88 230h4.716v-.99h-3.609v-1.692h3.159v-.99h-3.159v-1.638h3.564v-.99H36.88v6.3zm5.49 0h1.089v-4.5l1.971 2.952h.036l1.989-2.97V230h1.107v-6.3h-1.179l-1.917 2.979-1.917-2.979H42.37v6.3zm6.733 0h1.134l.648-1.521h2.979l.639 1.521h1.17l-2.772-6.345h-1.026L49.103 230zm2.187-2.502l1.08-2.52 1.089 2.52H51.29zm.648-4.41h.846l1.152-.873-.99-.432-1.008 1.305z"/><use xlink:href="#F"/><path d="M65.031 230h1.116v-5.274h1.998V223.7h-5.112v1.026h1.998V230zm3.748 0h4.716v-.99h-3.609v-1.692h3.159v-.99h-3.159v-1.638h3.564v-.99h-4.671v6.3zm7.647 0h2.349c1.98 0 3.348-1.377 3.348-3.15v-.018c0-1.773-1.368-3.132-3.348-3.132h-2.349v6.3zm2.349-5.292c1.323 0 2.187.909 2.187 2.142v.018c0 1.233-.864 2.124-2.187 2.124h-1.242v-4.284h1.242zM81.947 230h1.134l.648-1.521h2.979l.639 1.521h1.17l-2.772-6.345h-1.026L81.947 230zm2.187-2.502l1.08-2.52 1.089 2.52h-2.169zM89.057 230h1.089v-4.5l1.971 2.952h.036l1.989-2.97V230h1.107v-6.3H94.07l-1.917 2.979-1.917-2.979h-1.179v6.3z"/><use xlink:href="#G"/><use xlink:href="#F" x="47.285"/><path d="M24.344 275h2.464v-3.36h1.872c2.512 0 4.528-1.328 4.528-3.936v-.032c0-2.304-1.616-3.872-4.288-3.872h-4.576V275zm2.464-5.552v-3.424h1.904c1.232 0 2 .592 2 1.696v.032c0 .96-.72 1.696-1.952 1.696h-1.952zm12.704 5.744c3.456 0 5.968-2.608 5.968-5.792v-.032c0-3.184-2.48-5.76-5.936-5.76s-5.968 2.608-5.968 5.792v.032c0 3.184 2.48 5.76 5.936 5.76zm.032-2.272c-1.984 0-3.392-1.6-3.392-3.52v-.032c0-1.92 1.376-3.488 3.36-3.488s3.392 1.6 3.392 3.52v.032c0 1.92-1.376 3.488-3.36 3.488zm7.161 2.08h2.464v-3.584h1.936l2.4 3.584h2.88l-2.736-4c1.424-.528 2.4-1.664 2.4-3.472v-.032c0-1.072-.32-1.92-.96-2.56-.752-.752-1.84-1.136-3.264-1.136h-5.12V275zm2.464-5.76v-3.216h2.448c1.216 0 1.936.528 1.936 1.6v.032c0 .96-.672 1.584-1.888 1.584h-2.496zM60.585 275h8.288v-2.128h-4.88l1.824-1.408c1.984-1.552 2.944-2.448 2.944-4.336v-.032c0-2.096-1.552-3.456-3.856-3.456-2 0-3.072.832-4.176 2.32l1.728 1.392c.832-1.024 1.408-1.504 2.288-1.504.896 0 1.504.496 1.504 1.456 0 .928-.528 1.536-1.936 2.688l-3.728 3.056V275zm12.445 0h2.512l1.024-2.512h4.736L82.326 275h2.576l-4.8-11.28H77.83L73.03 275zm4.416-4.688l1.488-3.632 1.488 3.632h-2.976zM85.671 275h2.432v-7.12l5.424 7.12h2.096v-11.2h-2.432v6.896l-5.248-6.896h-2.272V275zm6.416-12.08c1.104 0 1.632-.864 2-2.208l-1.296-.4c-.24.512-.432.784-.928.784-.256 0-.56-.112-.944-.256-.464-.176-.992-.368-1.552-.368-1.12 0-1.616.88-2 2.208l1.296.4c.24-.512.432-.784.928-.784.256 0 .56.112.944.256.464.176.992.368 1.552.368zm10.704 12.272c3.456 0 5.968-2.608 5.968-5.792v-.032c0-3.184-2.48-5.76-5.936-5.76s-5.967 2.608-5.967 5.792v.032c0 3.184 2.48 5.76 5.935 5.76zm.032-2.272c-1.984 0-3.391-1.6-3.391-3.52v-.032c0-1.92 1.376-3.488 3.359-3.488s3.392 1.6 3.392 3.52v.032c0 1.92-1.376 3.488-3.36 3.488zm11.068 2.24c2.416 0 4.112-1.248 4.112-3.472v-.032c0-1.952-1.28-2.752-3.552-3.36-1.936-.512-2.416-.72-2.416-1.472v-.032c0-.56.48-.976 1.44-.976s1.904.416 2.912 1.104l1.28-1.856c-1.152-.912-2.512-1.424-4.16-1.424-2.304 0-3.92 1.344-3.92 3.376v.032c0 2.208 1.44 2.864 3.712 3.424 1.872.464 2.256.8 2.256 1.424v.032c0 .656-.592 1.056-1.616 1.056-1.28 0-2.32-.528-3.344-1.36l-1.456 1.744c1.344 1.216 3.04 1.792 4.752 1.792z"/></g><g fill="#491966"><path d="M125.529 270h1.048v-6.056h-.73l-1.624.515.223.859 1.083-.3V270z"/><use xlink:href="#H"/><use xlink:href="#H" x="6.216"/><path d="M146.038 270.103c1.065 0 1.915-.429 2.508-.936v-2.526h-2.56v.919h1.538v1.126c-.369.275-.885.455-1.452.455-1.228 0-2.044-.911-2.044-2.148v-.017c0-1.151.842-2.121 1.95-2.121a2.35 2.35 0 0 1 1.683.644l.67-.799c-.618-.524-1.262-.816-2.31-.816-1.813 0-3.101 1.426-3.101 3.109v.018c0 1.752 1.237 3.092 3.118 3.092zm3.944-.103h1.057v-6.013h-1.057V270z"/><use xlink:href="#I"/><path d="M158.869 270h1.083l.618-1.452h2.843l.61 1.452h1.117l-2.646-6.056h-.979L158.869 270zm2.088-2.388l1.03-2.405 1.04 2.405h-2.07zm7.218 2.474c1.263 0 2.147-.67 2.147-1.795v-.018c0-.996-.652-1.451-1.924-1.761-1.159-.274-1.434-.481-1.434-.944v-.018c0-.395.36-.713.979-.713.55 0 1.091.215 1.632.619l.567-.799a3.33 3.33 0 0 0-2.182-.756c-1.194 0-2.053.713-2.053 1.744v.017c0 1.108.722 1.486 2.002 1.795 1.116.258 1.357.49 1.357.919v.018c0 .446-.413.756-1.065.756-.739 0-1.323-.284-1.899-.782l-.635.756c.721.644 1.589.962 2.508.962zm7.426-.997h.979v-1.64h1.649v-.954h-1.649v-1.632h-.979v1.632h-1.65v.954h1.65v1.64zm8.397 1.014c1.332 0 2.233-.807 2.233-2.036v-.017c0-1.271-.927-1.89-2.095-1.89-.404 0-.671.069-.954.172l.095-1.409h2.688v-.936h-3.599l-.172 2.946.636.421c.309-.146.678-.266 1.108-.266.73 0 1.245.387 1.245.996v.018c0 .627-.472 1.039-1.194 1.039-.558 0-1.065-.275-1.546-.722l-.653.765c.567.55 1.289.919 2.208.919zm5.842 0c1.58 0 2.628-1.392 2.628-3.11v-.017c0-1.718-1.039-3.092-2.611-3.092-1.581 0-2.629 1.391-2.629 3.109v.018c0 1.718 1.031 3.092 2.612 3.092zm.017-.953c-.936 0-1.538-.971-1.538-2.157v-.017c0-1.194.593-2.139 1.521-2.139s1.537.971 1.537 2.156v.018c0 1.177-.584 2.139-1.52 2.139zm9.298.953a3.83 3.83 0 0 0 2.508-.936v-2.526h-2.56v.919h1.538v1.126c-.369.275-.885.455-1.452.455-1.228 0-2.044-.911-2.044-2.148v-.017c0-1.151.842-2.121 1.95-2.121a2.35 2.35 0 0 1 1.683.644l.671-.799c-.619-.524-1.263-.816-2.311-.816-1.813 0-3.101 1.426-3.101 3.109v.018c0 1.752 1.237 3.092 3.118 3.092zm3.944-.103h1.057v-6.013h-1.057V270z"/><use xlink:href="#I" x="53.117"/><path d="M211.986 270h1.083l.618-1.452h2.843l.61 1.452h1.117l-2.646-6.056h-.979L211.986 270zm2.088-2.388l1.03-2.405 1.04 2.405h-2.07zm7.218 2.474c1.263 0 2.147-.67 2.147-1.795v-.018c0-.996-.652-1.451-1.924-1.761-1.159-.274-1.434-.481-1.434-.944v-.018c0-.395.361-.713.979-.713.55 0 1.091.215 1.632.619l.567-.799a3.33 3.33 0 0 0-2.182-.756c-1.194 0-2.053.713-2.053 1.744v.017c0 1.108.722 1.486 2.002 1.795 1.116.258 1.357.49 1.357.919v.018c0 .446-.412.756-1.065.756-.739 0-1.323-.284-1.899-.782l-.635.756c.721.644 1.589.962 2.508.962zM124.773 279h4.501v-.945h-3.445v-1.615h3.016v-.945h-3.016v-1.563h3.402v-.945h-4.458V279zm5.755 0h1.039v-4.278l3.316 4.278h.884v-6.013h-1.039v4.158l-3.221-4.158h-.979V279zm9.361 0h1.057v-2.096h1.323l1.477 2.096H145l-1.623-2.276c.833-.241 1.426-.834 1.426-1.821v-.018c0-.524-.181-.97-.498-1.297-.387-.378-.98-.601-1.736-.601h-2.68V279zm1.057-3.032v-2.019h1.537c.782 0 1.246.352 1.246.997v.017c0 .61-.481 1.005-1.237 1.005h-1.546zm5.151 3.032h4.501v-.945h-3.445v-1.615h3.016v-.945h-3.016v-1.563h3.402v-.945h-4.458V279zm5.755 0h2.242c1.889 0 3.195-1.314 3.195-3.007v-.017c0-1.692-1.306-2.989-3.195-2.989h-2.242V279zm2.242-5.051c1.262 0 2.087.868 2.087 2.044v.018c0 1.177-.825 2.027-2.087 2.027h-1.186v-4.089h1.186zm9.818 5.051h1.014v-1.349h.859v-.867h-.859v-3.84h-.902l-3.342 3.951.198.756h3.032V279zm-1.976-2.216l1.976-2.38v2.38h-1.976z"/><use xlink:href="#I" x="14.353" y="9"/></g><g fill="#e92070"><use xlink:href="#B" x="-111.11" y="183"/><path d="M44.225 256h4.312v-19.6h-4.312V256z"/><use xlink:href="#B" x="-80.307" y="183"/><path d="M73.152 256h4.396l1.792-4.396h8.288L89.42 256h4.508l-8.4-19.74h-3.976l-8.4 19.74zm7.728-8.204l2.604-6.356 2.604 6.356H80.88z"/><use xlink:href="#C" x="-112.23" y="183"/><path d="M122.145 256h14.084v-3.92h-9.772V236.4h-4.312V256zm17.251 0h4.312v-19.6h-4.312V256zm8.931 0h9.324c4.424 0 7.336-1.792 7.336-5.376v-.056c0-2.604-1.4-3.948-3.668-4.816 1.4-.728 2.576-2.044 2.576-4.228v-.056c0-1.316-.448-2.436-1.344-3.332-1.148-1.148-2.856-1.736-5.124-1.736h-9.1V256zm11.284-13.748c0 1.456-1.204 2.072-3.108 2.072h-3.976v-4.144h4.256c1.82 0 2.828.7 2.828 2.016v.056zm1.092 7.84c0 1.456-1.148 2.128-3.052 2.128h-5.124v-4.312h4.984c2.24 0 3.192.812 3.192 2.128v.056zm7.551 5.908h4.312v-6.272h3.388l4.2 6.272h5.04l-4.788-7c2.492-.924 4.2-2.912 4.2-6.076v-.056c0-1.876-.56-3.36-1.68-4.48-1.316-1.316-3.22-1.988-5.712-1.988h-8.96V256zm4.312-10.08v-5.628h4.284c2.128 0 3.388.924 3.388 2.8v.056c0 1.68-1.176 2.772-3.304 2.772h-4.368zM188.208 256h14.924v-3.836h-10.64v-4.116h9.24v-3.836h-9.24v-3.976h10.5V236.4h-14.784V256z"/><use xlink:href="#C" x="-1.944" y="183"/></g><path fill-rule="evenodd" d="M223.5 120H23v-1h201.5v8.5h-1V120z" fill="#471086"/><g fill="#e92070"><path d="M92.231 133.288c-2.128-1.482-4.332-2.432-7.068-2.774v-2.318h-3.952v2.204c-4.788.494-7.98 3.268-7.98 7.448v.076c0 4.56 2.698 6.536 8.17 8.056v6.042c-2.28-.456-4.104-1.52-6.194-3.078l-2.964 4.332c2.546 1.938 5.662 3.192 8.968 3.61v3.838h3.952v-3.762c4.75-.494 8.056-3.23 8.056-7.486v-.076c0-4.256-2.47-6.574-8.246-8.132v-5.776c1.558.418 3.192 1.216 4.712 2.242l2.546-4.446zm-4.56 16.492c0 1.33-.912 2.166-2.698 2.432v-5.32c2.09.76 2.698 1.558 2.698 2.812v.076zm-8.892-12.274c0-1.216.76-2.09 2.622-2.356v5.168c-2.09-.76-2.622-1.52-2.622-2.736v-.076zM101.521 157h5.776v-26.79h-3.99l-7.638 2.28 1.216 4.788 4.636-1.14V157zm21.77.456c5.776 0 10.146-3.724 10.146-9.196v-.076c0-5.548-4.066-8.474-9.348-8.474-2.432 0-4.104.76-5.51 1.71.19-2.318 1.368-6.156 5.358-6.156 2.28 0 3.724.798 5.434 2.128l3.078-4.522c-2.356-1.862-4.674-2.926-8.322-2.926-7.942 0-11.666 6.308-11.666 14.516v.076c0 5.282 1.216 8.132 3.154 10.07 1.862 1.862 4.18 2.85 7.676 2.85zm-.228-5.016c-2.888 0-4.636-1.672-4.636-3.952v-.076c0-2.28 1.672-3.838 4.56-3.838s4.636 1.596 4.636 3.876v.076c0 2.28-1.672 3.914-4.56 3.914zm14.482 4.56h6.156v-6.08h-6.156V157z"/><use xlink:href="#J"/><use xlink:href="#J" x="24.78"/><path d="M209.074 157.456c7.106 0 11.856-6.042 11.856-13.756v-.076c0-7.752-4.75-13.68-11.78-13.68-7.106 0-11.856 6.042-11.856 13.756v.076c0 7.752 4.636 13.68 11.78 13.68zm.076-5.282c-3.534 0-5.852-3.61-5.852-8.474v-.076c0-4.864 2.28-8.398 5.776-8.398s5.852 3.648 5.852 8.474v.076c0 4.864-2.242 8.398-5.776 8.398z"/></g><g fill="#471086"><path d="M116.485 172.108c1.179 0 1.899-.432 2.556-1.116l-.711-.72c-.54.504-1.035.81-1.809.81-1.206 0-2.079-.999-2.079-2.232v-.018c0-1.233.882-2.223 2.079-2.223.72 0 1.26.315 1.764.783l.711-.819a3.28 3.28 0 0 0-2.466-.981c-1.908 0-3.249 1.467-3.249 3.258v.018c0 1.809 1.368 3.24 3.204 3.24zm3.089-.108h1.134l.648-1.521h2.979l.639 1.521h1.17l-2.772-6.345h-1.026L119.574 172zm2.187-2.502l1.08-2.52 1.089 2.52h-2.169zm5.374 2.502h1.107v-2.196h1.386l1.548 2.196h1.314l-1.701-2.385c.873-.252 1.494-.873 1.494-1.908v-.018c0-.549-.189-1.017-.522-1.359-.405-.396-1.026-.63-1.818-.63h-2.808v6.3zm1.107-3.177v-2.115h1.611c.819 0 1.305.369 1.305 1.044v.018c0 .639-.504 1.053-1.296 1.053h-1.62zm8.295 3.285c1.116 0 2.007-.45 2.628-.981v-2.646h-2.682v.963h1.611v1.179c-.387.288-.927.477-1.521.477-1.287 0-2.142-.954-2.142-2.25v-.018c0-1.206.882-2.223 2.043-2.223.801 0 1.278.261 1.764.675l.702-.837c-.648-.549-1.323-.855-2.421-.855-1.899 0-3.249 1.494-3.249 3.258v.018c0 1.836 1.296 3.24 3.267 3.24z"/><use xlink:href="#G" x="44.185" y="-58"/><path d="M150.681 172h1.107v-2.565h3.177v-1.008h-3.177v-1.719h3.582V165.7h-4.689v6.3zm5.879 0h1.107v-6.3h-1.107v6.3zm4.099.09c.63 0 1.161-.189 1.53-.558s.594-.927.594-1.674V165.7h-1.143v4.122c0 .846-.405 1.242-.999 1.242-.531 0-.9-.27-1.269-.747l-.729.756a2.37 2.37 0 0 0 2.016 1.017z"/><use xlink:href="#G" x="67.879" y="-58"/><path d="M174.374 172h1.089v-4.5l1.971 2.952h.036l1.989-2.97V172h1.107v-6.3h-1.179l-1.917 2.979-1.917-2.979h-1.179v6.3zm7.724 0h4.716v-.99h-3.609v-1.692h3.159v-.99h-3.159v-1.638h3.564v-.99h-4.671v6.3zm5.939 0h1.089v-4.482L192.6 172h.927v-6.3h-1.089v4.356l-3.375-4.356h-1.026v6.3z"/><use xlink:href="#F" x="138.95" y="-58"/><path d="M203.307 172.099c1.647 0 2.709-.945 2.709-2.826V165.7h-1.107v3.627c0 1.161-.603 1.746-1.584 1.746-.99 0-1.593-.621-1.593-1.791V165.7h-1.107v3.627c0 1.827 1.044 2.772 2.682 2.772zm3.37-.099h1.134l.648-1.521h2.979l.639 1.521h1.17l-2.772-6.345h-1.026L206.677 172zm2.187-2.502l1.08-2.52 1.089 2.52h-2.169zm5.374 2.502h4.419v-1.008h-3.312V165.7h-1.107v6.3zm-15.958 33.883l-1.364-1.364c-.051-.05-.101-.05-.152 0s-.05.101 0 .152l1.111 1.111H27.294a3.73 3.73 0 0 1-3.738-3.738v-13.436a3.73 3.73 0 0 1 3.738-3.738H46.54c.101 0 .151-.051.151-.152s-.05-.151-.151-.151H27.294c-2.273 0-4.091 1.818-4.091 4.091v13.437c0 2.273 1.818 4.091 4.092 4.091h170.581l-1.111 1.111s-.05.051-.05.101.05.101.101.101.05 0 .101-.05l1.364-1.364c.05-.051.05-.152 0-.202z"/><path d="M196.814 207.65c-.101 0-.152-.05-.202-.101s-.101-.151-.101-.202c0-.101.05-.151.101-.202l.808-.808H27.294A4.29 4.29 0 0 1 23 202.043v-13.386a4.29 4.29 0 0 1 4.294-4.293h19.245c.202 0 .354.151.354.353s-.152.354-.354.354H27.294a3.6 3.6 0 0 0-3.586 3.586v13.437a3.6 3.6 0 0 0 3.586 3.586H197.42l-.808-.808c-.051-.051-.101-.152-.101-.202a.38.38 0 0 1 .101-.202.31.31 0 0 1 .404 0l1.364 1.364c.05.05.101.151.101.202a.39.39 0 0 1-.101.202l-1.364 1.364c-.051.05-.152.05-.202.05zm23.893-23.134H49.722l1.111-1.111s.051-.051.051-.101a.11.11 0 0 0-.101-.101c-.05 0-.05 0-.101.05l-1.364 1.364c-.05.051-.05.101 0 .152l1.364 1.364c.05.05.101.05.151 0s.051-.101 0-.152l-1.111-1.111h170.934a3.73 3.73 0 0 1 3.738 3.738v13.436a3.73 3.73 0 0 1-3.738 3.738h-19.245c-.101 0-.152.05-.152.152s.051.151.152.151h19.245c2.273 0 4.092-1.818 4.092-4.091v-13.437c0-2.222-1.819-4.041-4.041-4.041z"/><path d="M220.706 206.286h-19.245c-.202 0-.353-.151-.353-.353s.151-.354.353-.354h19.245c1.97 0 3.587-1.616 3.587-3.586v-13.437c0-1.97-1.617-3.586-3.587-3.586H50.176l.808.808c.101.101.101.303 0 .455a.31.31 0 0 1-.404 0l-1.364-1.364c-.051-.051-.101-.152-.101-.202 0-.101.05-.152.101-.202l1.364-1.364c.05-.05.101-.101.202-.101.152 0 .303.152.303.303 0 .101-.05.152-.101.202l-.808.808h170.53a4.29 4.29 0 0 1 4.294 4.294v13.386c-.051 2.374-1.97 4.293-4.294 4.293zm-194.23-11.774c0-2.389 1.913-4.3 4.462-4.3 1.488 0 2.497.425 3.347 1.168l-1.328 1.593c-.584-.478-1.169-.796-2.019-.796-1.169 0-2.125 1.008-2.125 2.229 0 1.327.956 2.283 2.231 2.283.584 0 1.009-.106 1.328-.319v-1.008h-1.647v-1.646h3.825v3.663c-.903.743-2.072 1.274-3.613 1.274-2.55.106-4.462-1.646-4.462-4.141zM35.507 190h2.337v1.646h-2.337V190zm.053 2.23h2.231v6.317H35.56v-6.317zm3.188 7.538l.744-1.486c.691.371 1.381.583 2.231.583 1.116 0 1.647-.53 1.647-1.539v-.265c-.478.53-1.009.955-1.966.955-1.594 0-2.869-1.115-2.869-2.92s1.328-2.973 2.762-2.973c1.009 0 1.541.372 2.019.903v-.743H45.6v4.831c0 1.168-.266 2.017-.85 2.548-.584.584-1.488.902-2.816.902-1.222-.106-2.231-.371-3.187-.796zm4.675-4.672c0-.743-.531-1.274-1.328-1.274-.744 0-1.328.531-1.328 1.221s.531 1.221 1.328 1.221 1.328-.478 1.328-1.168zm2.869 1.646c0-1.327 1.009-2.017 2.497-2.017.584 0 1.169.106 1.541.265v-.106c0-.69-.425-1.062-1.275-1.062-.691 0-1.222.106-1.753.372l-.478-1.54c.744-.318 1.488-.477 2.603-.477 1.169 0 1.912.265 2.444.796.478.478.691 1.115.691 2.017v3.663h-2.231v-.69c-.478.478-1.062.796-1.912.796-1.222-.053-2.125-.743-2.125-2.017zm4.037-.478v-.318c-.212-.106-.531-.16-.903-.16-.638 0-1.009.319-1.009.797 0 .424.319.69.797.69.691.053 1.116-.372 1.116-1.009zm2.656 1.487l.85-1.327c.744.477 1.541.743 2.178.743.372 0 .584-.106.584-.319 0-.265-.372-.371-1.062-.531-1.275-.318-2.284-.743-2.284-2.017 0-1.327 1.116-2.07 2.55-2.07.956 0 1.912.265 2.656.743l-.744 1.38c-.637-.371-1.381-.584-1.912-.584-.319 0-.531.106-.531.319 0 .265.372.371 1.063.584 1.275.318 2.284.796 2.284 2.017 0 1.38-1.062 2.123-2.603 2.123-1.116-.106-2.178-.424-3.028-1.061zm9.889.335c1.261 0 2.145-.669 2.145-1.793v-.018c0-.995-.652-1.45-1.922-1.758-1.158-.275-1.433-.481-1.433-.944v-.017c0-.395.36-.713.978-.713.549 0 1.09.215 1.63.618l.566-.798c-.609-.489-1.304-.755-2.179-.755-1.193 0-2.051.712-2.051 1.742v.017c0 1.107.721 1.484 1.999 1.793 1.115.258 1.356.489 1.356.918v.018c0 .446-.412.755-1.064.755-.738 0-1.321-.284-1.896-.781l-.635.755a3.7 3.7 0 0 0 2.505.961z"/><use xlink:href="#K"/><path d="M72.521 198h1.081l.618-1.45h2.84l.609 1.45h1.115l-2.643-6.049h-.978L72.521 198zm2.085-2.385l1.03-2.403 1.038 2.403h-2.068zm7.105 2.488c1.124 0 1.81-.412 2.437-1.064l-.678-.686c-.515.48-.987.772-1.725.772-1.15 0-1.982-.953-1.982-2.128v-.017c0-1.176.841-2.119 1.982-2.119.686 0 1.201.3 1.682.746l.678-.781c-.575-.549-1.244-.935-2.351-.935-1.819 0-3.097 1.399-3.097 3.106v.017c0 1.725 1.304 3.089 3.055 3.089zm5.494-.009c1.57 0 2.583-.901 2.583-2.694v-3.406h-1.055v3.458c0 1.107-.575 1.664-1.51 1.664-.944 0-1.519-.592-1.519-1.707v-3.415h-1.055v3.458c0 1.741.995 2.642 2.557 2.642zm3.516-.094h1.038v-4.29l1.879 2.814h.034l1.896-2.831V198h1.055v-6.006H95.5l-1.828 2.84-1.828-2.84H90.72V198zm9.397.094c1.57 0 2.582-.901 2.582-2.694v-3.406h-1.055v3.458c0 1.107-.575 1.664-1.51 1.664-.944 0-1.519-.592-1.519-1.707v-3.415h-1.055v3.458c0 1.741.995 2.642 2.557 2.642zm3.516-.094h4.213v-.961h-3.157v-5.045h-1.056V198zm4.283 0h1.081l.618-1.45h2.84l.609 1.45h1.115l-2.642-6.049h-.978L107.917 198zm2.085-2.385l1.029-2.403 1.039 2.403h-2.068zm4.693 2.385h1.039v-4.273l3.312 4.273h.883v-6.006h-1.038v4.153l-3.217-4.153h-.979V198zm8.322 0h1.055v-1.93h1.193c1.321 0 2.402-.704 2.402-2.051v-.017c0-1.21-.875-2.008-2.282-2.008h-2.368V198zm1.055-2.883v-2.162h1.227c.789 0 1.296.369 1.296 1.072v.018c0 .626-.498 1.072-1.296 1.072h-1.227zm3.043 2.883h1.081l.618-1.45h2.84l.609 1.45h1.115l-2.642-6.049h-.978L127.115 198zm2.085-2.385l1.03-2.403 1.038 2.403H129.2zm4.694 2.385h1.055v-2.094h1.321l1.476 2.094h1.253l-1.622-2.274c.832-.24 1.424-.832 1.424-1.819v-.017c0-.523-.18-.969-.497-1.295-.386-.378-.978-.601-1.734-.601h-2.676V198zm1.055-3.029v-2.016h1.536c.78 0 1.244.352 1.244.995v.017c0 .61-.481 1.004-1.236 1.004h-1.544zm4.115 3.029h1.081l.618-1.45h2.84l.609 1.45h1.116l-2.643-6.049h-.978L139.064 198zm2.085-2.385l1.03-2.403 1.038 2.403h-2.068zM147.9 198h4.496v-.944h-3.44v-1.613h3.011v-.944h-3.011v-1.561h3.397v-.944H147.9V198zm5.234 0h4.212v-.961h-3.157v-5.045h-1.055V198zm6.854 0h1.039v-4.29l1.879 2.814h.034l1.896-2.831V198h1.055v-6.006h-1.123l-1.828 2.84-1.828-2.84h-1.124V198zm6.935 0h4.495v-.944h-3.44v-1.613h3.011v-.944h-3.011v-1.561h3.398v-.944h-4.453V198zm7.335.086c1.261 0 2.145-.669 2.145-1.793v-.018c0-.995-.652-1.45-1.922-1.758-1.158-.275-1.433-.481-1.433-.944v-.017c0-.395.36-.713.978-.713.549 0 1.09.215 1.63.618l.567-.798a3.33 3.33 0 0 0-2.18-.755c-1.192 0-2.05.712-2.05 1.742v.017c0 1.107.72 1.484 1.999 1.793 1.115.258 1.355.489 1.355.918v.018c0 .446-.411.755-1.064.755-.737 0-1.321-.284-1.896-.781l-.635.755c.721.643 1.588.961 2.506.961zm7.031 0c1.261 0 2.145-.669 2.145-1.793v-.018c0-.995-.652-1.45-1.922-1.758-1.159-.275-1.433-.481-1.433-.944v-.017c0-.395.36-.713.978-.713.549 0 1.09.215 1.63.618l.566-.798c-.609-.489-1.304-.755-2.179-.755-1.192 0-2.05.712-2.05 1.742v.017c0 1.107.72 1.484 1.999 1.793 1.115.258 1.355.489 1.355.918v.018c0 .446-.412.755-1.064.755-.737 0-1.321-.284-1.896-.781l-.635.755c.721.643 1.588.961 2.506.961zm2.931-.086h1.055v-6.006h-1.055V198zm4.997.103a3.83 3.83 0 0 0 2.505-.935v-2.523h-2.557v.918h1.536v1.124a2.45 2.45 0 0 1-1.45.455c-1.227 0-2.042-.909-2.042-2.145v-.017c0-1.15.841-2.119 1.948-2.119.763 0 1.218.248 1.681.643l.67-.798c-.618-.523-1.262-.815-2.308-.815-1.811 0-3.098 1.424-3.098 3.106v.017c0 1.75 1.236 3.089 3.115 3.089zm5.827-.009c1.57 0 2.583-.901 2.583-2.694v-3.406h-1.056v3.458c0 1.107-.574 1.664-1.51 1.664-.943 0-1.518-.592-1.518-1.707v-3.415h-1.056v3.458c0 1.741.996 2.642 2.557 2.642zm3.577-.094h1.055v-6.006h-1.055V198z"/><use xlink:href="#K" x="135.023"/><path d="M206.002 198h1.038v-4.273l3.312 4.273h.884v-6.006h-1.038v4.153l-3.218-4.153h-.978V198zm7.74 0h1.063v-5.028h1.905v-.978h-4.873v.978h1.905V198z"/><use xlink:href="#K" x="151.569"/></g><path d="M8 4H236V32H8V4Z" fill="#e92070"/><path d="M59.376 13.44h-2.16V24H64v-1.952h-4.624V13.44zm10.231-4h-2.608l-1.152 2.976h1.568l2.192-2.592V9.44zm-1.84 4h-2.16V24h2.16V13.44zm9.25 0v6.288l-6.128-6.48h-.704V24h2.16v-6.336l6.112 6.528h.72V13.44h-2.16zm11.678 0h-7.104V24h7.296v-1.952h-5.136v-2.672h3.632v-1.84h-3.632v-2.144h4.944V13.44zM97.579 24h2.32l-4.704-10.752h-.72L89.755 24h2.32l.592-1.376h4.32L97.579 24zm-1.36-3.152h-2.784l1.392-3.552 1.392 3.552zM111.048 24h2.32l-4.704-10.752h-.72L103.224 24h2.32l.592-1.376h4.32l.592 1.376zm-1.36-3.152h-2.784l1.392-3.552 1.392 3.552zm8.578-7.408h-3.456V24h3.456c3.392 0 5.76-2.192 5.76-5.312 0-3.168-2.368-5.248-5.76-5.248zm-.016 1.952c2.128 0 3.552 1.216 3.552 3.296 0 2.032-1.424 3.36-3.552 3.36h-1.28v-6.656h1.28zm9.767-1.952h-2.16V24h2.16V13.44zm7.442-.192c-3.152 0-5.632 2.368-5.632 5.472s2.48 5.472 5.616 5.472c2.048 0 3.76-1.008 4.672-2.624l-1.632-1.152c-.704 1.12-1.696 1.776-3.024 1.776-1.968 0-3.408-1.424-3.408-3.456 0-2.048 1.44-3.488 3.408-3.488 1.328 0 2.32.656 3.024 1.776l1.632-1.152c-.928-1.616-2.624-2.624-4.656-2.624zm8.651.192h-2.16V24h2.16V13.44zm7.411-.192c-3.104 0-5.6 2.368-5.6 5.472s2.496 5.472 5.6 5.472 5.632-2.368 5.632-5.472-2.528-5.472-5.632-5.472zm.016 2c1.936 0 3.392 1.44 3.392 3.472 0 2.048-1.456 3.472-3.392 3.472-1.968 0-3.392-1.424-3.392-3.472 0-2.032 1.424-3.472 3.392-3.472zm14.277-1.808v6.288l-6.128-6.48h-.704V24h2.16v-6.336l6.112 6.528h.72V13.44h-2.16zM177.204 24h2.32l-4.704-10.752h-.72L169.38 24h2.32l.592-1.376h4.32l.592 1.376zm-1.36-3.152h-2.784l1.392-3.552 1.392 3.552zm7.282-7.408h-2.16V24h6.784v-1.952h-4.624V13.44z" fill="#fff"/><defs ><path id="B" d="M142.898 73.336c3.584 0 6.356-1.4 8.372-3.108v-8.512h-8.512v3.724h4.34v2.8c-1.092.784-2.464 1.176-4.06 1.176-3.472 0-5.936-2.632-5.936-6.216v-.056c0-3.332 2.492-6.104 5.628-6.104 2.24 0 3.64.728 5.124 1.988l2.716-3.276c-2.016-1.736-4.2-2.688-7.7-2.688-5.936 0-10.276 4.564-10.276 10.136v.056c0 5.824 4.2 10.08 10.304 10.08z"/><path id="C" d="M215.602 73.28c4.228 0 7.196-2.184 7.196-6.076v-.056c0-3.416-2.24-4.816-6.216-5.88-3.388-.896-4.228-1.26-4.228-2.576v-.056c0-.98.84-1.708 2.52-1.708s3.332.728 5.096 1.932l2.24-3.248c-2.016-1.596-4.396-2.492-7.28-2.492-4.032 0-6.86 2.352-6.86 5.908v.056c0 3.864 2.52 5.012 6.496 5.992 3.276.812 3.948 1.4 3.948 2.492v.056c0 1.148-1.036 1.848-2.828 1.848-2.24 0-4.06-.924-5.852-2.38l-2.548 3.052c2.352 2.128 5.32 3.136 8.316 3.136z"/><path id="D" d="M114.9 102h5.24v-1.1h-4.01v-1.88h3.51v-1.1h-3.51V96.1h3.96V95h-5.19v7z"/><path id="E" d="M150.912 102.1c1.47 0 2.5-.78 2.5-2.09v-.02c0-1.16-.76-1.69-2.24-2.05-1.35-.32-1.67-.56-1.67-1.1v-.02c0-.46.42-.83 1.14-.83.64 0 1.27.25 1.9.72l.66-.93c-.71-.57-1.52-.88-2.54-.88-1.39 0-2.39.83-2.39 2.03v.02c0 1.29.84 1.73 2.33 2.09 1.3.3 1.58.57 1.58 1.07v.02c0 .52-.48.88-1.24.88-.86 0-1.54-.33-2.21-.91l-.74.88a4.31 4.31 0 0 0 2.92 1.12z"/><path id="F" d="M58.313 230.09c1.323 0 2.25-.702 2.25-1.881v-.018c0-1.044-.684-1.521-2.016-1.845-1.215-.288-1.503-.504-1.503-.99v-.018c0-.414.378-.747 1.026-.747.576 0 1.143.225 1.71.648l.594-.837a3.49 3.49 0 0 0-2.286-.792c-1.251 0-2.151.747-2.151 1.827v.018c0 1.161.756 1.557 2.097 1.881 1.17.27 1.422.513 1.422.963v.018c0 .468-.432.792-1.116.792-.774 0-1.386-.297-1.989-.819l-.666.792a3.88 3.88 0 0 0 2.628 1.008z"/><path id="G" d="M99.337 230.108c1.935 0 3.303-1.485 3.303-3.258v-.018c0-1.773-1.35-3.24-3.285-3.24s-3.303 1.485-3.303 3.258v.018c0 1.773 1.35 3.24 3.285 3.24zm.018-1.026c-1.251 0-2.142-1.008-2.142-2.232v-.018c0-1.224.873-2.223 2.124-2.223s2.142 1.017 2.142 2.241v.018c0 1.224-.873 2.214-2.124 2.214z"/><path id="H" d="M130.507 270.103c1.58 0 2.628-1.392 2.628-3.11v-.017c0-1.718-1.039-3.092-2.611-3.092-1.581 0-2.629 1.391-2.629 3.109v.018c0 1.718 1.031 3.092 2.612 3.092zm.017-.953c-.937 0-1.538-.971-1.538-2.157v-.017c0-1.194.593-2.139 1.521-2.139s1.537.971 1.537 2.156v.018c0 1.177-.584 2.139-1.52 2.139z"/><path id="I" d="M155.5 270.103c1.066 0 1.916-.429 2.509-.936v-2.526h-2.56v.919h1.537v1.126c-.369.275-.884.455-1.451.455-1.229 0-2.045-.911-2.045-2.148v-.017c0-1.151.842-2.121 1.95-2.121.765 0 1.22.249 1.684.644l.67-.799c-.619-.524-1.263-.816-2.311-.816-1.812 0-3.101 1.426-3.101 3.109v.018c0 1.752 1.237 3.092 3.118 3.092z"/><path id="J" d="M157.31 152.136c-2.28 0-3.876-.722-5.814-2.28l-3.078 4.446c2.28 1.862 4.826 3.154 8.74 3.154 7.562 0 11.628-5.89 11.628-14.516v-.076c0-5.244-1.254-8.132-3.154-10.032-2.014-2.014-4.142-2.888-7.676-2.888-6.004 0-10.146 3.952-10.146 9.31v.076c0 5.358 3.724 8.588 9.5 8.588 2.28 0 4.028-.646 5.396-1.824-.19 2.28-1.406 6.042-5.396 6.042zm.95-9.082c-2.888 0-4.636-1.596-4.636-3.99v-.076c0-2.394 1.634-4.028 4.522-4.028 2.926 0 4.674 1.672 4.674 4.066v.076c0 2.28-1.672 3.952-4.56 3.952z"/><path id="K" d="M65.746 198h4.496v-.944h-3.441v-1.613h3.012v-.944h-3.012v-1.561h3.398v-.944h-4.453V198z"/></defs></svg>