<svg xmlns="http://www.w3.org/2000/svg" xmlns:xlink="http://www.w3.org/1999/xlink" width="240" height="270" fill="none" xmlns:v="https://vecta.io/nano"><path fill="#fff" d="M0 0h240v270H0z"/><g fill="#471086"><path fill-rule="evenodd" d="M8 33h228v1.129H9.076V265H8V33z"/><path d="M24.62 74h2.214v-4.05h2.502c2.772 0 5.04-1.476 5.04-4.302v-.036c0-2.538-1.836-4.212-4.788-4.212H24.62V74zm2.214-6.048v-4.536h2.574c1.656 0 2.718.774 2.718 2.25v.036c0 1.314-1.044 2.25-2.718 2.25h-2.574zM37.058 74h2.178V60.86h-2.178V74zm8.3.198c1.458 0 2.448-.612 3.096-1.386V74h2.124v-5.634c0-1.242-.324-2.25-1.026-2.934-.666-.684-1.728-1.062-3.15-1.062-1.512 0-2.538.306-3.582.774l.576 1.71c.864-.36 1.656-.594 2.718-.594 1.53 0 2.358.72 2.358 2.07v.234a7.94 7.94 0 0 0-2.556-.396c-2.322 0-3.924 1.008-3.924 3.06v.036c0 1.908 1.584 2.934 3.366 2.934zm.612-1.584c-1.044 0-1.854-.522-1.854-1.44v-.036c0-.99.828-1.584 2.232-1.584.864 0 1.602.162 2.16.378v.648c0 1.206-1.098 2.034-2.538 2.034zM53.726 74h2.178v-5.364c0-1.476.882-2.358 2.142-2.358 1.296 0 2.034.846 2.034 2.322V74h2.178v-6.066c0-2.196-1.242-3.636-3.384-3.636-1.476 0-2.358.774-2.97 1.656v-1.458h-2.178V74z"/></g><path d="M34.48 179.175l1.47-5.362a10.95 10.95 0 0 1-1.47-5.448c0-5.881 4.843-10.724 10.724-10.724s10.81 4.843 10.81 10.724-4.929 10.81-10.81 10.81c-1.816 0-3.632-.606-5.275-1.47l-5.448 1.47z" fill="#fff"/><path fill-rule="evenodd" d="M45.204 157.978c-5.695 0-10.387 4.692-10.387 10.387a10.61 10.61 0 0 0 1.425 5.279l.07.122-1.352 4.931 5.008-1.352.117.062c1.614.849 3.375 1.431 5.119 1.431 5.695 0 10.474-4.778 10.474-10.473s-4.775-10.387-10.474-10.387zm-11.06 10.387c0-6.067 4.993-11.06 11.06-11.06s11.146 4.99 11.146 11.06-5.08 11.146-11.146 11.146c-1.844 0-3.672-.599-5.314-1.447L34 179.653l1.589-5.794a11.29 11.29 0 0 1-1.445-5.494z" fill="#cccdd1"/><path d="M40.274 175.802l.346.173c1.384.865 2.94 1.384 4.67 1.384 4.843 0 8.907-4.065 8.907-8.994s-4.065-8.821-8.994-8.821-8.907 3.978-8.907 8.821c0 1.729.519 3.372 1.384 4.756l.259.346-.865 3.113 3.2-.778z" fill="#009e56"/><path d="M42.35 163.349h-.692c-.259 0-.432.086-.605.259-.346.26-.865.865-1.038 1.557-.259 1.124.173 2.421 1.124 3.805.951 1.297 2.854 3.459 6.054 4.411 1.038.259 1.816.086 2.508-.26.519-.346.865-.865.951-1.384l.086-.518c0-.173 0-.346-.173-.433l-2.335-1.038c-.173-.086-.346 0-.432.087l-.951 1.211c-.086.086-.173.086-.259.086-.605-.259-2.767-1.124-3.892-3.373v-.259l.865-1.038c.087-.086.087-.259.087-.346l-1.038-2.421c0-.173-.173-.346-.259-.346z" fill="#fff"/><g fill="#471086"><path d="M62.315 165.716h7.891V163.2h-5.019v-7.847h-2.872v10.363zm9.211 0h2.872v-10.363h-2.872v10.363zm4.769 0h5.344c2.472 0 3.923-1.08 3.923-2.857v-.03c0-1.406-.799-2.117-2.058-2.531.918-.4 1.599-1.11 1.599-2.31v-.029a2.33 2.33 0 0 0-.666-1.688c-.607-.592-1.525-.918-2.828-.918h-5.315v10.363zm5.981-7.135c0 .607-.503.903-1.377.903h-1.806v-1.821h1.88c.844 0 1.303.311 1.303.888v.03zm.415 3.849v.029c0 .607-.489.948-1.377.948h-2.221v-1.91h2.191c.962 0 1.406.37 1.406.933zm4.187 3.286h2.872v-3.138h1.273l2.087 3.138h3.301l-2.472-3.612c1.288-.548 2.132-1.599 2.132-3.198v-.029c0-1.022-.311-1.806-.918-2.413-.696-.696-1.791-1.111-3.375-1.111h-4.9v10.363zm2.872-5.388v-2.502h1.895c.948 0 1.554.414 1.554 1.243v.03c0 .755-.577 1.229-1.54 1.229h-1.91zm7.768 5.388h8.409v-2.442h-5.566v-1.644h4.974v-2.265h-4.974v-1.584h5.492v-2.428h-8.335v10.363zm13.995 0h8.409v-2.442h-5.567v-1.644h4.975v-2.265h-4.975v-1.584h5.493v-2.428h-8.335v10.363zm9.889 0h2.842v-5.685l4.442 5.685h2.501v-10.363h-2.842v5.478l-4.264-5.478h-2.679v10.363zm15.729 0h2.872v-3.138h1.274l2.087 3.138h3.301l-2.472-3.612c1.288-.548 2.132-1.599 2.132-3.198v-.029c0-1.022-.311-1.806-.918-2.413-.696-.696-1.791-1.111-3.375-1.111h-4.901v10.363zm2.872-5.388v-2.502h1.895c.948 0 1.555.414 1.555 1.243v.03c0 .755-.578 1.229-1.54 1.229h-1.91zm12.995 5.596c3.198 0 5.596-2.414 5.596-5.389v-.03c0-2.976-2.369-5.359-5.566-5.359s-5.597 2.413-5.597 5.389v.029c0 2.976 2.369 5.36 5.567 5.36zm.03-2.591c-1.585 0-2.665-1.303-2.665-2.798v-.03c0-1.495 1.051-2.768 2.635-2.768s2.65 1.288 2.65 2.798v.029c0 1.496-1.051 2.769-2.62 2.769zm5.568 2.383h3.005l.74-1.865h4.012l.741 1.865h3.079l-4.412-10.437h-2.768l-4.397 10.437zm4.589-4.101l1.17-2.931 1.155 2.931h-2.325zm7.993 4.101h2.813v-5.936l2.635 4.041h.06l2.65-4.056v5.951h2.857v-10.363h-3.035l-2.472 4.012-2.473-4.012h-3.035v10.363zm12.927 0h2.872v-10.363h-2.872v10.363zm4.769 0h2.843v-5.685l4.441 5.685h2.502v-10.363h-2.843v5.478l-4.263-5.478h-2.68v10.363zm16.909.208c1.895 0 3.405-.696 4.501-1.614v-4.649h-4.753v2.103h2.029v1.258c-.415.281-.948.429-1.659.429-1.643 0-2.812-1.199-2.812-2.887v-.029c0-1.584 1.154-2.828 2.65-2.828 1.036 0 1.761.355 2.502.977l1.687-2.043c-1.095-.947-2.383-1.495-4.204-1.495-3.198 0-5.567 2.369-5.567 5.389v.029c0 3.139 2.399 5.36 5.626 5.36zM63.954 180.521h7.052v-1.481h-5.397v-2.53h4.724v-1.48h-4.724v-2.45h5.33v-1.48h-6.985v9.421zm8.881 0h1.628v-6.703l5.195 6.703h1.386V171.1h-1.628v6.514L74.37 171.1h-1.534v9.421zm14.399 0h1.629v-6.73l2.947 4.415h.054l2.974-4.442v6.757h1.655V171.1H94.73l-2.867 4.454-2.867-4.454h-1.763v9.421zm10.742 0h1.696l.969-2.275h4.454l.956 2.275h1.75l-4.146-9.489h-1.534l-4.145 9.489zm3.27-3.742l1.615-3.768 1.629 3.768h-3.244zm.969-6.594h1.265l1.723-1.306-1.48-.646-1.508 1.952zm10.206 10.47c1.979 0 3.365-1.05 3.365-2.813v-.027c0-1.561-1.023-2.274-3.015-2.759-1.817-.43-2.248-.753-2.248-1.48v-.027c0-.619.566-1.117 1.535-1.117.861 0 1.709.337 2.557.969l.888-1.252c-.955-.767-2.046-1.184-3.418-1.184-1.871 0-3.217 1.117-3.217 2.732v.027c0 1.736 1.131 2.328 3.136 2.813 1.75.404 2.126.767 2.126 1.44v.027c0 .7-.646 1.184-1.668 1.184-1.158 0-2.073-.444-2.975-1.224l-.996 1.184c1.131 1.009 2.49 1.507 3.93 1.507zm9.077-.134h3.513c2.961 0 5.006-2.06 5.006-4.711v-.027c0-2.651-2.045-4.683-5.006-4.683h-3.513v9.421zm3.513-7.914c1.978 0 3.27 1.359 3.27 3.203v.027c0 1.844-1.292 3.176-3.27 3.176h-1.857v-6.406h1.857zm6.88 7.914h7.052v-1.481h-5.396v-2.53h4.724v-1.48h-4.724v-2.45h5.329v-1.48h-6.985v9.421zm15.662.161c2.086 0 3.499-1.265 3.499-3.19v-.026c0-1.992-1.453-2.961-3.283-2.961-.633 0-1.05.107-1.494.269l.148-2.207h4.212V171.1h-5.639l-.269 4.616.996.659c.484-.228 1.063-.417 1.736-.417 1.144 0 1.951.606 1.951 1.561v.027c0 .983-.74 1.629-1.87 1.629-.875 0-1.669-.431-2.423-1.131l-1.023 1.198c.889.861 2.019 1.44 3.459 1.44zm9.018 0c2.476 0 4.118-2.18 4.118-4.872v-.027c0-2.691-1.628-4.845-4.091-4.845-2.476 0-4.118 2.18-4.118 4.872v.027c0 2.692 1.615 4.845 4.091 4.845zm.027-1.494c-1.467 0-2.409-1.521-2.409-3.378v-.027c0-1.87.928-3.351 2.382-3.351s2.409 1.521 2.409 3.378v.027c0 1.844-.915 3.351-2.382 3.351zm9.83 1.333h1.656v-3.029h1.871c2.072 0 3.768-1.103 3.768-3.216v-.027c0-1.898-1.373-3.149-3.58-3.149h-3.715v9.421zm1.656-4.522v-3.392h1.924c1.239 0 2.033.579 2.033 1.682v.027c0 .983-.781 1.683-2.033 1.683h-1.924zm5.446 4.522h1.696l.969-2.275h4.454l.956 2.275h1.75l-4.146-9.489h-1.534l-4.145 9.489zm3.27-3.742l1.615-3.768 1.629 3.768H176.8zm8.13 3.742h1.655V171.1h-1.655v9.421zm7.34.134c1.978 0 3.364-1.05 3.364-2.813v-.027c0-1.561-1.022-2.274-3.014-2.759-1.817-.43-2.248-.753-2.248-1.48v-.027c0-.619.565-1.117 1.534-1.117.862 0 1.71.337 2.557.969l.889-1.252c-.956-.767-2.046-1.184-3.419-1.184-1.87 0-3.216 1.117-3.216 2.732v.027c0 1.736 1.13 2.328 3.136 2.813 1.749.404 2.126.767 2.126 1.44v.027c0 .7-.646 1.184-1.669 1.184-1.157 0-2.072-.444-2.974-1.224l-.996 1.184c1.13 1.009 2.49 1.507 3.93 1.507zm5.177-.134h7.052v-1.481h-5.397v-2.53h4.724v-1.48h-4.724v-2.45h5.329v-1.48h-6.984v9.421zm12.178.134c1.979 0 3.365-1.05 3.365-2.813v-.027c0-1.561-1.023-2.274-3.015-2.759-1.817-.43-2.247-.753-2.247-1.48v-.027c0-.619.565-1.117 1.534-1.117.861 0 1.709.337 2.557.969l.888-1.252c-.955-.767-2.045-1.184-3.418-1.184-1.871 0-3.217 1.117-3.217 2.732v.027c0 1.736 1.131 2.328 3.136 2.813 1.75.404 2.127.767 2.127 1.44v.027c0 .7-.646 1.184-1.669 1.184-1.158 0-2.073-.444-2.975-1.224l-.996 1.184c1.131 1.009 2.49 1.507 3.93 1.507z"/><path fill-rule="evenodd" d="M223.5 200H23v-1h201.5v8.5h-1V200z"/></g><g fill="#e92070"><path d="M85.811 213.288c-2.128-1.482-4.332-2.432-7.068-2.774v-2.318h-3.952v2.204c-4.788.494-7.98 3.268-7.98 7.448v.076c0 4.56 2.698 6.536 8.17 8.056v6.042c-2.28-.456-4.104-1.52-6.194-3.078l-2.964 4.332c2.546 1.938 5.662 3.192 8.968 3.61v3.838h3.952v-3.762c4.75-.494 8.056-3.23 8.056-7.486v-.076c0-4.256-2.47-6.574-8.246-8.132v-5.776c1.558.418 3.192 1.216 4.712 2.242l2.546-4.446zm-4.56 16.492c0 1.33-.912 2.166-2.698 2.432v-5.32c2.09.76 2.698 1.558 2.698 2.812v.076zm-8.892-12.274c0-1.216.76-2.09 2.622-2.356v5.168c-2.09-.76-2.622-1.52-2.622-2.736v-.076zM90.199 237h19.684v-5.054h-11.59l4.332-3.344c4.712-3.686 6.992-5.814 6.992-10.298v-.076c0-4.978-3.686-8.208-9.158-8.208-4.75 0-7.296 1.976-9.918 5.51l4.104 3.306c1.976-2.432 3.344-3.572 5.434-3.572 2.128 0 3.572 1.178 3.572 3.458 0 2.204-1.254 3.648-4.598 6.384l-8.854 7.258V237zm33.024.456c6.118 0 10.108-3.572 10.108-9.196v-.076c0-5.966-4.142-8.512-9.31-8.512-1.482 0-2.432.19-3.496.456l.304-4.598h11.324v-5.13h-16.34l-.76 13.11 3.382 2.242c1.254-.57 2.774-.988 4.446-.988 2.774 0 4.712 1.33 4.712 3.61v.076c0 2.394-1.71 3.686-4.446 3.686-2.394 0-4.332-1.064-6.346-2.888l-3.534 4.218c2.584 2.47 5.662 3.99 9.956 3.99zm14.322-.456h6.156v-6.08h-6.156V237z"/><use xlink:href="#B"/><use xlink:href="#B" x="24.78"/><path d="M209.074 237.456c7.106 0 11.856-6.042 11.856-13.756v-.076c0-7.752-4.75-13.68-11.78-13.68-7.106 0-11.856 6.042-11.856 13.756v.076c0 7.752 4.636 13.68 11.78 13.68zm.076-5.282c-3.534 0-5.852-3.61-5.852-8.474v-.076c0-4.864 2.28-8.398 5.776-8.398s5.852 3.648 5.852 8.474v.076c0 4.864-2.242 8.398-5.776 8.398z"/></g><g fill="#471086"><path d="M116.485 252.108c1.179 0 1.899-.432 2.556-1.116l-.711-.72c-.54.504-1.035.81-1.809.81-1.206 0-2.079-.999-2.079-2.232v-.018c0-1.233.882-2.223 2.079-2.223.72 0 1.26.315 1.764.783l.711-.819a3.28 3.28 0 0 0-2.466-.981c-1.908 0-3.249 1.467-3.249 3.258v.018c0 1.809 1.368 3.24 3.204 3.24zm3.089-.108h1.134l.648-1.521h2.979l.639 1.521h1.17l-2.772-6.345h-1.026L119.574 252zm2.187-2.502l1.08-2.52 1.089 2.52h-2.169zm5.374 2.502h1.107v-2.196h1.386l1.548 2.196h1.314l-1.701-2.385c.873-.252 1.494-.873 1.494-1.908v-.018c0-.549-.189-1.017-.522-1.359-.405-.396-1.026-.63-1.818-.63h-2.808v6.3zm1.107-3.177v-2.115h1.611c.819 0 1.305.369 1.305 1.044v.018c0 .639-.504 1.053-1.296 1.053h-1.62zm8.295 3.285c1.116 0 2.007-.45 2.628-.981v-2.646h-2.682v.963h1.611v1.179c-.387.288-.927.477-1.521.477-1.287 0-2.142-.954-2.142-2.25v-.018c0-1.206.882-2.223 2.043-2.223.801 0 1.278.261 1.764.675l.702-.837c-.648-.549-1.323-.855-2.421-.855-1.899 0-3.249 1.494-3.249 3.258v.018c0 1.836 1.296 3.24 3.267 3.24z"/><use xlink:href="#C"/><path d="M150.681 252h1.107v-2.565h3.177v-1.008h-3.177v-1.719h3.582V245.7h-4.689v6.3zm5.879 0h1.107v-6.3h-1.107v6.3zm4.099.09c.63 0 1.161-.189 1.53-.558s.594-.927.594-1.674V245.7h-1.143v4.122c0 .846-.405 1.242-.999 1.242-.531 0-.9-.27-1.269-.747l-.729.756a2.37 2.37 0 0 0 2.016 1.017z"/><use xlink:href="#C" x="23.694"/><path d="M174.374 252h1.089v-4.5l1.971 2.952h.036l1.989-2.97V252h1.107v-6.3h-1.179l-1.917 2.979-1.917-2.979h-1.179v6.3zm7.724 0h4.716v-.99h-3.609v-1.692h3.159v-.99h-3.159v-1.638h3.564v-.99h-4.671v6.3zm5.939 0h1.089v-4.482L192.6 252h.927v-6.3h-1.089v4.356l-3.375-4.356h-1.026v6.3zm9.226.09c1.323 0 2.25-.702 2.25-1.881v-.018c0-1.044-.684-1.521-2.016-1.845-1.215-.288-1.503-.504-1.503-.99v-.018c0-.414.378-.747 1.026-.747.576 0 1.143.225 1.71.648l.594-.837a3.49 3.49 0 0 0-2.286-.792c-1.251 0-2.151.747-2.151 1.827v.018c0 1.161.756 1.557 2.097 1.881 1.17.27 1.422.513 1.422.963v.018c0 .468-.432.792-1.116.792-.774 0-1.386-.297-1.989-.819l-.666.792a3.88 3.88 0 0 0 2.628 1.008zm6.044.009c1.647 0 2.709-.945 2.709-2.826V245.7h-1.107v3.627c0 1.161-.603 1.746-1.584 1.746-.99 0-1.593-.621-1.593-1.791V245.7h-1.107v3.627c0 1.827 1.044 2.772 2.682 2.772zm3.37-.099h1.134l.648-1.521h2.979l.639 1.521h1.17l-2.772-6.345h-1.026L206.677 252zm2.187-2.502l1.08-2.52 1.089 2.52h-2.169zm5.374 2.502h4.419v-1.008h-3.312V245.7h-1.107v6.3zM23.224 142H50.94v-8.84H33.312V105.6H23.224V142zm34.954 0h10.088v-36.4H58.178V142zm19.352 0h18.772c8.684 0 13.78-3.796 13.78-10.036v-.104c0-4.94-2.808-7.436-7.228-8.892 3.224-1.404 5.616-3.9 5.616-8.112v-.104c0-2.496-.884-4.42-2.34-5.928-2.132-2.08-5.356-3.224-9.932-3.224H77.53V142zm21.008-25.064c0 2.132-1.768 3.172-4.836 3.172h-6.344v-6.396h6.604c2.964 0 4.576 1.092 4.576 3.12v.104zm1.456 13.52v.104c0 2.132-1.716 3.328-4.836 3.328h-7.8v-6.708h7.696c3.38 0 4.94 1.3 4.94 3.276zM117.301 142h10.088v-11.024h4.472L139.193 142h11.596l-8.684-12.688c4.524-1.924 7.488-5.616 7.488-11.232v-.104c0-3.588-1.092-6.344-3.224-8.476-2.444-2.444-6.292-3.9-11.856-3.9h-17.212V142zm10.088-18.928v-8.788h6.656c3.328 0 5.46 1.456 5.46 4.368v.104c0 2.652-2.028 4.316-5.408 4.316h-6.708zM157.276 142h29.536v-8.58H167.26v-5.772h17.472v-7.956H167.26v-5.564h19.292V105.6h-29.276V142zm51.635.624c8.84 0 14.716-4.42 14.716-11.856v-.104c0-6.812-5.2-9.516-13.52-11.336-5.096-1.144-6.344-1.872-6.344-3.536v-.104c0-1.352 1.196-2.34 3.64-2.34 3.224 0 6.864 1.196 10.192 3.588l5.044-7.124c-3.952-3.172-8.788-4.836-14.976-4.836-8.736 0-14.092 4.888-14.092 11.648v.104c0 7.436 5.98 9.62 13.728 11.388 4.992 1.196 6.188 1.976 6.188 3.536v.104c0 1.56-1.456 2.496-4.212 2.496-4.212 0-8.164-1.508-11.804-4.368l-5.616 6.708c4.524 4.004 10.608 6.032 17.056 6.032z"/></g><g fill="#e92070"><use xlink:href="#D"/><path d="M39.304 101h3.08V87h-3.08v14z"/><use xlink:href="#D" x="24.002"/><path d="M61.966 101h3.14l1.28-3.14h5.92l1.28 3.14h3.22l-6-14.1h-2.84l-6 14.1zm5.52-5.86l1.86-4.54 1.86 4.54h-3.72z"/><use xlink:href="#E"/><path d="M103.901 101h3.08v-5.58l5.38-8.42h-3.5l-3.4 5.62-3.34-5.62h-3.6l5.38 8.48V101zm17.972 0h3.02v-9.08l3.9 5.92h.08l3.94-5.98V101h3.06V87h-3.32l-3.68 5.92-3.68-5.92h-3.32v14zm18.303 0h3.08V87h-3.08v14zm7.379 0h3.04v-8.9l6.78 8.9h2.62V87h-3.04v8.62l-6.56-8.62h-2.84v14zm22.441.22c3.76 0 6.14-2.08 6.14-6.32V87h-3.08v8.02c0 2.24-1.12 3.36-3.02 3.36s-3.02-1.16-3.02-3.46V87h-3.08v8c0 4.14 2.3 6.22 6.06 6.22zm13.337-.22h3.08V89.84h4.26V87h-11.6v2.84h4.26V101zm16.703.24c4.32 0 7.46-3.26 7.46-7.24v-.04c0-3.98-3.1-7.2-7.42-7.2s-7.46 3.26-7.46 7.24v.04c0 3.98 3.1 7.2 7.42 7.2zm.04-2.84c-2.48 0-4.24-2-4.24-4.4v-.04c0-2.4 1.72-4.36 4.2-4.36s4.24 2 4.24 4.4v.04c0 2.4-1.72 4.36-4.2 4.36z"/><use xlink:href="#E" x="131.359"/><path d="M8 4H236V32H8V4Z"/></g><path d="M59.376 13.44h-2.16V24H64v-1.952h-4.624V13.44zm10.231-4h-2.608l-1.152 2.976h1.568l2.192-2.592V9.44zm-1.84 4h-2.16V24h2.16V13.44zm9.25 0v6.288l-6.128-6.48h-.704V24h2.16v-6.336l6.112 6.528h.72V13.44h-2.16zm11.678 0h-7.104V24h7.296v-1.952h-5.136v-2.672h3.632v-1.84h-3.632v-2.144h4.944V13.44zM97.579 24h2.32l-4.704-10.752h-.72L89.755 24h2.32l.592-1.376h4.32L97.579 24zm-1.36-3.152h-2.784l1.392-3.552 1.392 3.552zM111.048 24h2.32l-4.704-10.752h-.72L103.224 24h2.32l.592-1.376h4.32l.592 1.376zm-1.36-3.152h-2.784l1.392-3.552 1.392 3.552zm8.578-7.408h-3.456V24h3.456c3.392 0 5.76-2.192 5.76-5.312 0-3.168-2.368-5.248-5.76-5.248zm-.016 1.952c2.128 0 3.552 1.216 3.552 3.296 0 2.032-1.424 3.36-3.552 3.36h-1.28v-6.656h1.28zm9.767-1.952h-2.16V24h2.16V13.44zm7.442-.192c-3.152 0-5.632 2.368-5.632 5.472s2.48 5.472 5.616 5.472c2.048 0 3.76-1.008 4.672-2.624l-1.632-1.152c-.704 1.12-1.696 1.776-3.024 1.776-1.968 0-3.408-1.424-3.408-3.456 0-2.048 1.44-3.488 3.408-3.488 1.328 0 2.32.656 3.024 1.776l1.632-1.152c-.928-1.616-2.624-2.624-4.656-2.624zm8.651.192h-2.16V24h2.16V13.44zm7.411-.192c-3.104 0-5.6 2.368-5.6 5.472s2.496 5.472 5.6 5.472 5.632-2.368 5.632-5.472-2.528-5.472-5.632-5.472zm.016 2c1.936 0 3.392 1.44 3.392 3.472 0 2.048-1.456 3.472-3.392 3.472-1.968 0-3.392-1.424-3.392-3.472 0-2.032 1.424-3.472 3.392-3.472zm14.277-1.808v6.288l-6.128-6.48h-.704V24h2.16v-6.336l6.112 6.528h.72V13.44h-2.16zM177.204 24h2.32l-4.704-10.752h-.72L169.38 24h2.32l.592-1.376h4.32l.592 1.376zm-1.36-3.152h-2.784l1.392-3.552 1.392 3.552zm7.282-7.408h-2.16V24h6.784v-1.952h-4.624V13.44z" fill="#fff"/><defs ><path id="B" d="M157.31 232.136c-2.28 0-3.876-.722-5.814-2.28l-3.078 4.446c2.28 1.862 4.826 3.154 8.74 3.154 7.562 0 11.628-5.89 11.628-14.516v-.076c0-5.244-1.254-8.132-3.154-10.032-2.014-2.014-4.142-2.888-7.676-2.888-6.004 0-10.146 3.952-10.146 9.31v.076c0 5.358 3.724 8.588 9.5 8.588 2.28 0 4.028-.646 5.396-1.824-.19 2.28-1.406 6.042-5.396 6.042zm.95-9.082c-2.888 0-4.636-1.596-4.636-3.99v-.076c0-2.394 1.634-4.028 4.522-4.028 2.926 0 4.674 1.672 4.674 4.066v.076c0 2.28-1.672 3.952-4.56 3.952z"/><path id="C" d="M143.522 252.108c1.935 0 3.303-1.485 3.303-3.258v-.018c0-1.773-1.35-3.24-3.285-3.24s-3.303 1.485-3.303 3.258v.018c0 1.773 1.35 3.24 3.285 3.24zm.018-1.026c-1.251 0-2.142-1.008-2.142-2.232v-.018c0-1.224.873-2.223 2.124-2.223s2.142 1.017 2.142 2.241v.018c0 1.224-.873 2.214-2.124 2.214z"/><path id="D" d="M29.42 101.24c2.56 0 4.54-1 5.98-2.22v-6.08h-6.08v2.66h3.1v2c-.78.56-1.76.84-2.9.84-2.48 0-4.24-1.88-4.24-4.44v-.04c0-2.38 1.78-4.36 4.02-4.36 1.6 0 2.6.52 3.66 1.42l1.94-2.34c-1.44-1.24-3-1.92-5.5-1.92-4.24 0-7.34 3.26-7.34 7.24v.04c0 4.16 3 7.2 7.36 7.2z"/><path id="E" d="M84.552 101.2c3.02 0 5.14-1.56 5.14-4.34v-.04c0-2.44-1.6-3.44-4.44-4.2-2.42-.64-3.02-.9-3.02-1.84v-.04c0-.7.6-1.22 1.8-1.22s2.38.52 3.64 1.38l1.6-2.32c-1.44-1.14-3.14-1.78-5.2-1.78-2.88 0-4.9 1.68-4.9 4.22v.04c0 2.76 1.8 3.58 4.64 4.28 2.34.58 2.82 1 2.82 1.78v.04c0 .82-.74 1.32-2.02 1.32-1.6 0-2.9-.66-4.18-1.7l-1.82 2.18c1.68 1.52 3.8 2.24 5.94 2.24z"/></defs></svg>