<svg width="245" height="339" viewBox="0 0 245 339" fill="none" xmlns="http://www.w3.org/2000/svg">
<path d="M237.301 0.267273H18.692C8.70089 0.267273 0.595947 8.37222 0.595947 18.3633V320.618C0.595947 330.609 8.70089 338.714 18.692 338.714H237.283C247.274 338.714 255.379 330.609 255.379 320.618V18.3633C255.398 8.37222 247.293 0.267273 237.301 0.267273Z" fill="white"/>
<path d="M238.147 265.919H7.7533V266.61V267.301V298.283C7.7533 304.838 13.0757 310.16 19.6306 310.16H225.149C232.32 310.16 238.464 305.417 238.128 297.181V267.301V266.61" fill="#FF0081"/>
<path d="M107.664 278.526L106.376 279.516C105.928 278.843 105.367 278.451 104.62 278.451C104.004 278.451 103.481 278.731 103.481 279.347C103.481 279.87 103.892 280.094 104.546 280.412L105.591 280.879C107.048 281.514 107.87 282.261 107.87 283.568C107.87 285.286 106.469 286.332 104.658 286.332C103.07 286.332 101.782 285.529 101.109 284.296L102.398 283.325C102.902 284.016 103.556 284.67 104.658 284.67C105.461 284.67 105.965 284.296 105.965 283.643C105.965 283.045 105.517 282.84 104.788 282.504L103.799 282.055C102.491 281.458 101.576 280.711 101.576 279.403C101.576 277.816 102.902 276.789 104.639 276.789C106.077 276.789 107.104 277.517 107.664 278.526Z" fill="white"/>
<path d="M114.985 278.655H110.671V280.523H113.827V282.129H110.671V284.463H115.153V286.163H108.804V276.956H114.985V278.655Z" fill="white"/>
<path d="M125.051 284.949H121.279L120.756 286.144H118.739L122.847 276.769H123.482L127.591 286.144H125.574L125.051 284.949ZM123.165 280.299L121.951 283.399H124.379L123.165 280.299Z" fill="white"/>
<path d="M135.92 279.066L134.5 280.075C133.884 279.104 133.025 278.525 131.867 278.525C130.149 278.525 128.898 279.776 128.898 281.569C128.898 283.343 130.149 284.575 131.867 284.575C133.025 284.575 133.884 283.996 134.5 283.025L135.92 284.034C135.117 285.434 133.641 286.312 131.849 286.312C129.122 286.312 126.956 284.258 126.956 281.55C126.956 278.842 129.122 276.788 131.867 276.788C133.623 276.788 135.098 277.666 135.92 279.066Z" fill="white"/>
<path d="M144.305 282.334C144.305 284.799 142.624 286.312 140.402 286.312C138.161 286.312 136.499 284.799 136.499 282.334V276.937H138.385V282.465C138.385 283.847 139.263 284.557 140.402 284.557C141.56 284.557 142.419 283.847 142.419 282.465V276.937H144.305V282.334Z" fill="white"/>
<path d="M154.651 276.788V286.163H152.765V281.232L150.449 284.146H149.851L147.536 281.232V286.163H145.649V276.788H146.266L150.15 281.774L154.034 276.788H154.651Z" fill="white"/>
<path d="M163.802 282.334C163.802 284.799 162.121 286.312 159.898 286.312C157.657 286.312 155.995 284.799 155.995 282.334V276.937H157.882V282.465C157.882 283.847 158.759 284.557 159.898 284.557C161.056 284.557 161.915 283.847 161.915 282.465V276.937H163.802V282.334Z" fill="white"/>
<path d="M167.032 284.445H171.066V286.144H165.146V276.937H167.032V284.445Z" fill="white"/>
<path d="M177.397 284.949H173.625L173.102 286.144H171.085L175.193 276.769H175.828L179.937 286.144H177.92L177.397 284.949ZM175.511 280.299L174.297 283.399H176.725L175.511 280.299Z" fill="white"/>
<path d="M188.154 276.956V286.331H187.519L182.196 280.635V286.163H180.31V276.788H180.926L186.268 282.428V276.956H188.154Z" fill="white"/>
<path d="M199.882 279.925C199.882 281.699 198.5 282.913 196.557 282.913H194.989V286.163H193.103V276.956H196.557C198.5 276.956 199.882 278.114 199.882 279.925ZM194.989 278.599V281.251H196.557C197.435 281.251 197.958 280.71 197.958 279.907C197.958 279.141 197.435 278.599 196.557 278.599H194.989Z" fill="white"/>
<path d="M205.073 284.949H201.301L200.778 286.144H198.78L202.888 276.769H203.523L207.632 286.144H205.615L205.073 284.949ZM203.187 280.299L201.973 283.399H204.401L203.187 280.299Z" fill="white"/>
<path d="M213.645 286.144L211.255 282.895H209.873V286.144H207.987V276.937H211.441C213.384 276.937 214.766 278.114 214.766 279.907C214.766 281.083 214.131 282.017 213.141 282.521L215.755 286.144H213.645ZM209.873 281.232H211.441C212.319 281.232 212.842 280.71 212.842 279.907C212.842 279.141 212.319 278.599 211.441 278.599H209.873V281.232Z" fill="white"/>
<path d="M221.993 284.949H218.22L217.698 286.144H215.681L219.789 276.769H220.424L224.533 286.144H222.516L221.993 284.949ZM220.125 280.299L218.911 283.399H221.339L220.125 280.299Z" fill="white"/>
<path d="M108.785 291.373H103.967V293.465H107.515V295.257H103.967V297.872H108.972V299.777H101.857V289.487H108.785V291.373Z" fill="white"/>
<path d="M112.24 297.853H116.74V299.758H110.13V289.468H112.24V297.853Z" fill="white"/>
<path d="M131.792 289.281V299.758H129.682V294.249L127.086 297.517H126.395L123.8 294.249V299.758H121.689V289.281H122.38L126.732 294.865L131.083 289.281H131.792Z" fill="white"/>
<path d="M140.42 291.373H135.602V293.465H139.15V295.257H135.602V297.872H140.607V299.777H133.492V289.487H140.42V291.373Z" fill="white"/>
<path d="M148.339 291.224L146.901 292.325C146.396 291.578 145.78 291.149 144.94 291.149C144.249 291.149 143.651 291.466 143.651 292.139C143.651 292.736 144.099 292.979 144.846 293.315L146.023 293.838C147.648 294.548 148.563 295.388 148.563 296.845C148.563 298.768 146.994 299.926 144.958 299.926C143.184 299.926 141.746 299.03 140.981 297.648L142.437 296.565C142.997 297.349 143.726 298.059 144.958 298.059C145.855 298.059 146.434 297.629 146.434 296.919C146.434 296.247 145.929 296.023 145.126 295.631L144.025 295.127C142.549 294.454 141.522 293.614 141.522 292.157C141.522 290.383 142.997 289.244 144.94 289.244C146.583 289.281 147.741 290.103 148.339 291.224Z" fill="white"/>
<path d="M160.459 291.224L159.021 292.325C158.516 291.578 157.9 291.149 157.06 291.149C156.369 291.149 155.771 291.466 155.771 292.139C155.771 292.736 156.219 292.979 156.966 293.315L158.143 293.838C159.768 294.548 160.683 295.388 160.683 296.845C160.683 298.768 159.114 299.926 157.078 299.926C155.304 299.926 153.866 299.03 153.101 297.648L154.557 296.565C155.118 297.349 155.846 298.059 157.078 298.059C157.975 298.059 158.554 297.629 158.554 296.919C158.554 296.247 158.05 296.023 157.247 295.631L156.145 295.127C154.669 294.454 153.642 293.614 153.642 292.157C153.642 290.383 155.118 289.244 157.06 289.244C158.703 289.281 159.861 290.103 160.459 291.224Z" fill="white"/>
<path d="M163.932 299.758H161.822V289.468H163.932V299.758Z" fill="white"/>
<path d="M174.857 291.504L173.363 292.736C172.672 291.784 171.757 291.224 170.487 291.224C168.489 291.224 167.182 292.643 167.182 294.604C167.182 296.602 168.545 298.059 170.618 298.059C171.813 298.059 172.766 297.554 173.326 296.77V295.93H170.487V294.1H175.436V297.144C174.54 298.768 172.728 299.945 170.525 299.945C167.443 299.945 165.015 297.629 165.015 294.604C165.015 291.578 167.424 289.263 170.525 289.263C172.355 289.281 173.867 290.103 174.857 291.504Z" fill="white"/>
<path d="M185.184 295.5C185.184 298.264 183.317 299.945 180.814 299.945C178.293 299.945 176.444 298.264 176.444 295.5V289.468H178.555V295.668C178.555 297.218 179.544 298.003 180.814 298.003C182.103 298.003 183.074 297.2 183.074 295.668V289.468H185.184V295.5Z" fill="white"/>
<path d="M188.919 299.758H186.809V289.468H188.919V299.758Z" fill="white"/>
<path d="M197.51 291.373H192.692V293.465H196.24V295.257H192.692V297.872H197.697V299.777H190.581V289.487H197.51V291.373Z" fill="white"/>
<path d="M207.613 289.468V299.945H206.903L200.946 293.577V299.758H198.836V289.281H199.527L205.503 295.594V289.468H207.613Z" fill="white"/>
<path d="M216.857 291.373H213.552V299.758H211.441V291.373H208.155V289.468H216.857V291.373Z" fill="white"/>
<path d="M224.309 291.373H219.49V293.465H223.039V295.257H219.49V297.872H224.495V299.777H217.38V289.487H224.309V291.373Z" fill="white"/>
<path d="M51.9944 134.989H48.2968V139.713H40.0238V134.989H24.3368V132.822L33.8237 107.947H42.3395L34.5894 128.06H40.0238V120.273H48.2968V128.06H51.9944V134.989Z" fill="#4D008C"/>
<path d="M74.6472 111.869C76.9069 114.876 78.0461 118.779 78.0461 123.597C78.0461 128.471 76.9069 132.468 74.6286 135.605C72.3502 138.742 69.1008 140.292 64.8615 140.292C60.6223 140.292 57.3729 138.724 55.0945 135.605C52.8162 132.468 51.677 128.471 51.677 123.597C51.677 118.779 52.8162 114.876 55.0759 111.869C57.3355 108.862 60.6036 107.368 64.8615 107.368C69.1194 107.368 72.3689 108.862 74.6472 111.869ZM61.276 117.061C60.5103 118.461 60.1181 120.646 60.1181 123.634C60.1181 129.666 61.6868 132.673 64.8429 132.673C67.9989 132.673 69.5676 129.666 69.5676 123.634C69.5676 120.646 69.1755 118.461 68.4098 117.061C67.6441 115.66 66.4489 114.969 64.8429 114.969C63.2368 114.969 62.0603 115.66 61.276 117.061Z" fill="#4D008C"/>
<path d="M121.577 114.446L115.807 119.358C113.715 116.444 111.045 114.969 107.777 114.969C105.106 114.969 102.996 115.772 101.446 117.397C99.8957 119.021 99.1114 121.15 99.1114 123.821C99.1114 126.547 99.9331 128.751 101.558 130.413C103.201 132.075 105.424 132.916 108.243 132.916C111.25 132.916 113.584 131.963 115.228 130.077V128.583H107.814V121.468H123.501V131.478C122.026 134.111 119.915 136.24 117.17 137.846C114.425 139.471 111.344 140.274 107.907 140.274C103.033 140.274 98.9246 138.705 95.6192 135.549C92.295 132.411 90.6329 128.49 90.6329 123.802C90.6329 119.152 92.295 115.249 95.6192 112.074C98.9433 108.918 103.033 107.331 107.907 107.331C113.827 107.368 118.384 109.721 121.577 114.446Z" fill="#4D008C"/>
<path d="M133.922 139.713H125.649V107.947H133.922V139.713Z" fill="#4D008C"/>
<path d="M166.528 114.446L160.758 119.358C158.666 116.444 155.996 114.969 152.727 114.969C150.057 114.969 147.947 115.772 146.397 117.397C144.847 119.021 144.062 121.15 144.062 123.821C144.062 126.547 144.884 128.751 146.509 130.413C148.152 132.075 150.374 132.916 153.194 132.916C156.201 132.916 158.535 131.963 160.179 130.077V128.583H152.765V121.468H168.452V131.478C166.976 134.111 164.866 136.24 162.121 137.846C159.376 139.471 156.294 140.274 152.858 140.274C147.984 140.274 143.875 138.705 140.57 135.549C137.246 132.411 135.584 128.49 135.584 123.802C135.584 119.152 137.246 115.249 140.57 112.074C143.894 108.918 147.984 107.331 152.858 107.331C158.759 107.368 163.316 109.721 166.528 114.446Z" fill="#4D008C"/>
<path d="M187.407 137.062H175.996L174.839 139.713H165.931L180.366 107.368H183.018L197.454 139.713H188.546L187.407 137.062ZM181.73 123.055L178.947 130.413H184.475L181.73 123.055Z" fill="#4D008C"/>
<path d="M218.538 113.755L213.01 117.994C212.245 116.837 211.46 115.996 210.657 115.436C209.854 114.894 208.902 114.614 207.763 114.614C205.876 114.614 204.924 115.286 204.924 116.631C204.924 117.21 205.129 117.677 205.522 118.05C205.914 118.424 206.642 118.816 207.669 119.227L211.33 120.758C214.093 121.916 216.129 123.242 217.474 124.736C218.818 126.23 219.472 128.098 219.472 130.339C219.472 133.383 218.37 135.792 216.166 137.584C213.963 139.359 211.18 140.255 207.819 140.255C204.961 140.255 202.422 139.62 200.218 138.331C198.014 137.043 196.315 135.325 195.157 133.14L200.741 128.901C202.758 131.627 205.129 132.99 207.819 132.99C210.004 132.99 211.087 132.225 211.087 130.675C211.087 129.965 210.863 129.442 210.414 129.087C209.966 128.732 209.107 128.284 207.856 127.743L204.588 126.305C199.228 123.97 196.558 120.777 196.558 116.724C196.558 113.905 197.585 111.626 199.658 109.908C201.731 108.19 204.401 107.331 207.669 107.331C212.767 107.368 216.39 109.497 218.538 113.755Z" fill="#4D008C"/>
<path d="M114.033 199.567H215.513C218.052 199.567 220.107 197.513 220.107 194.973V181.359C220.107 178.819 218.052 176.765 215.513 176.765H114.033V199.567Z" fill="#FF0081"/>
<path d="M215.55 199.884H28.6507C25.9615 199.884 23.7765 197.699 23.7765 195.01V181.321C23.7765 178.632 25.9615 176.447 28.6507 176.447H215.55C218.239 176.447 220.424 178.632 220.424 181.321V195.01C220.424 197.681 218.239 199.884 215.55 199.884ZM28.6507 177.063C26.3163 177.063 24.4114 178.968 24.4114 181.303V194.991C24.4114 197.326 26.3163 199.231 28.6507 199.231H215.55C217.884 199.231 219.789 197.326 219.789 194.991V181.303C219.789 178.968 217.884 177.063 215.55 177.063H28.6507Z" fill="#FF0081"/>
<path d="M94.8723 187.409C94.8723 191.462 91.5855 194.767 87.5143 194.767C83.4618 194.767 80.1564 191.481 80.1564 187.409C80.1564 183.357 83.4432 180.051 87.5143 180.051C91.5668 180.051 94.8723 183.357 94.8723 187.409Z" fill="#0076F4"/>
<path d="M89.139 184.104H90.0727V182.535C89.9047 182.517 89.3631 182.46 88.7095 182.46C87.3462 182.46 86.4311 183.282 86.4311 184.776V186.065H84.8998V187.82H86.4311V192.321H88.2613V187.82H89.7926L90.0167 186.065H88.2613V184.944C88.2613 184.459 88.392 184.104 89.139 184.104Z" fill="white"/>
<path d="M111.698 187.409C111.698 191.462 108.412 194.767 104.34 194.767C100.288 194.767 96.9824 191.481 96.9824 187.409C96.9824 183.357 100.269 180.051 104.34 180.051C108.412 180.051 111.698 183.357 111.698 187.409Z" fill="#00A8F2"/>
<path d="M107.702 186.046C107.646 188.922 105.816 190.92 103.033 191.032C101.894 191.088 101.072 190.715 100.307 190.285C101.128 190.416 102.211 190.099 102.772 189.594C101.95 189.538 101.446 189.09 101.184 188.399C101.446 188.455 101.689 188.399 101.875 188.399C101.11 188.156 100.605 187.708 100.549 186.718C100.736 186.849 100.998 186.905 101.24 186.905C100.68 186.588 100.288 185.392 100.736 184.645C101.558 185.523 102.566 186.27 104.21 186.401C103.762 184.645 106.171 183.712 107.123 184.907C107.571 184.851 107.889 184.664 108.206 184.533C108.075 184.963 107.833 185.224 107.515 185.467C107.833 185.411 108.15 185.336 108.393 185.224C108.337 185.542 108.019 185.803 107.702 186.046Z" fill="white"/>
<path d="M77.9714 187.409C77.9714 191.462 74.6846 194.767 70.6134 194.767C66.561 194.767 63.2555 191.481 63.2555 187.409C63.2555 183.357 66.5423 180.051 70.6134 180.051C74.6846 180.051 77.9714 183.357 77.9714 187.409Z" fill="#FDF700"/>
<path d="M66.8037 189.333C67.0651 189.296 67.3079 189.202 67.532 189.053C67.7188 188.941 67.8868 188.791 68.0362 188.605C68.2977 188.306 68.4284 188.007 68.4471 187.97V187.951C68.5218 187.82 68.5218 187.708 68.4844 187.615C68.4097 187.428 68.167 187.353 67.9802 187.297L67.9429 187.279C67.9055 187.279 67.8868 187.26 67.8682 187.241C67.7374 187.185 67.6627 187.148 67.6067 187.092C67.532 187.017 67.5133 186.961 67.532 186.905C67.5507 186.849 67.588 186.793 67.6627 186.756C67.7561 186.7 67.8682 186.681 67.9429 186.718C68.1856 186.83 68.3724 186.868 68.5031 186.793C68.5405 186.774 68.5591 186.737 68.5591 186.7C68.5591 186.644 68.5405 186.588 68.5405 186.513V186.494C68.5031 185.971 68.4658 185.318 68.6338 184.944C68.7646 184.683 68.914 184.459 69.1007 184.272C69.2688 184.123 69.4369 183.992 69.661 183.917C70.0345 183.749 70.3706 183.73 70.5387 183.73H70.6881C70.8562 183.73 71.1923 183.749 71.5658 183.917C71.7712 184.011 71.958 184.123 72.1261 184.272C72.3128 184.459 72.4809 184.664 72.5929 184.944C72.761 185.318 72.7237 185.971 72.6863 186.476V186.513C72.6863 186.55 72.6676 186.588 72.6676 186.625V186.681C72.6676 186.718 72.6863 186.756 72.7237 186.774C72.761 186.793 72.817 186.812 72.8731 186.812H72.8917C73.0038 186.812 73.1158 186.774 73.2652 186.718C73.3213 186.7 73.3586 186.7 73.396 186.7C73.452 186.7 73.4893 186.718 73.5454 186.737C73.6574 186.774 73.7321 186.868 73.7321 186.942C73.7321 186.98 73.7134 187.017 73.6574 187.073C73.6014 187.129 73.508 187.185 73.3773 187.241C73.3586 187.26 73.3213 187.26 73.3026 187.26L73.2652 187.279C73.0972 187.335 72.8544 187.409 72.761 187.596C72.7237 187.689 72.7237 187.802 72.7984 187.951V187.97C72.8917 188.175 73.396 189.165 74.4418 189.333C74.4791 189.352 74.5165 189.37 74.5165 189.426C74.5165 189.445 74.5165 189.464 74.5165 189.464C74.4791 189.538 74.4231 189.594 74.2924 189.65C74.1243 189.725 73.8815 189.8 73.5454 189.837C73.508 189.856 73.4893 189.874 73.4707 189.893C73.452 189.93 73.4333 189.986 73.4146 190.08L73.396 190.136C73.3773 190.173 73.3773 190.229 73.3586 190.267C73.3399 190.323 73.3026 190.341 73.2466 190.341C73.2092 190.341 73.1719 190.341 73.0785 190.323C72.9664 190.304 72.817 190.267 72.649 190.267C72.5369 190.267 72.4435 190.267 72.3315 190.304C72.1261 190.341 71.9206 190.472 71.7152 190.603C71.4351 190.79 71.1363 191.014 70.6694 191.014H70.6134C70.5947 191.014 70.5947 191.014 70.5947 191.014C70.576 191.014 70.576 191.014 70.576 191.014C70.1092 191.014 69.8104 190.79 69.5116 190.603C69.3248 190.472 69.1381 190.341 68.914 190.304C68.8206 190.285 68.7085 190.267 68.5965 190.267C68.4097 190.267 68.279 190.304 68.167 190.323H68.1483C68.0923 190.341 68.0362 190.341 67.9802 190.341C67.9242 190.341 67.8868 190.323 67.8495 190.267C67.8121 190.192 67.7935 190.155 67.7748 190.099L67.7561 190.061C67.7374 189.986 67.7188 189.912 67.7001 189.874C67.6814 189.837 67.6627 189.818 67.6254 189.818C67.2892 189.762 67.0278 189.688 66.8597 189.632C66.7477 189.576 66.673 189.52 66.6356 189.464C66.6169 189.445 66.6169 189.426 66.6169 189.426V189.389C66.7477 189.37 66.7663 189.352 66.8037 189.333Z" fill="white" stroke="#201712" stroke-width="0.222438" stroke-miterlimit="10"/>
<path d="M28.1278 194.767L29.1363 191.088C28.4826 189.949 28.1278 188.679 28.1278 187.353C28.1278 183.338 31.4333 180.052 35.4671 180.052C39.5009 180.052 42.8437 183.357 42.8437 187.353C42.8437 191.369 39.5009 194.767 35.4671 194.767C34.1972 194.767 32.9833 194.357 31.8815 193.759L28.1278 194.767Z" fill="white"/>
<path d="M32.0869 192.433L32.311 192.564C33.2448 193.143 34.3466 193.497 35.4858 193.497C38.8099 193.497 41.5738 190.734 41.5738 187.353C41.5738 183.973 38.8099 181.321 35.4671 181.321C32.1243 181.321 29.3977 184.011 29.3977 187.353C29.3977 188.511 29.7339 189.669 30.3315 190.621L30.4809 190.846L29.9019 192.975L32.0869 192.433Z" fill="#00A655"/>
<path d="M33.5062 183.973L33.0206 183.954C32.8712 183.954 32.7218 184.011 32.6098 184.104C32.3857 184.309 31.9935 184.683 31.9001 185.187C31.7134 185.953 31.9935 186.868 32.6658 187.783C33.3194 188.698 34.5893 190.173 36.8303 190.808C37.54 191.014 38.1002 190.883 38.5484 190.603C38.9033 190.379 39.1274 190.024 39.2021 189.632L39.2768 189.277C39.2954 189.183 39.2581 189.053 39.146 188.997L37.54 188.268C37.4466 188.212 37.3159 188.25 37.2412 188.343L36.6062 189.146C36.5502 189.202 36.4755 189.221 36.4008 189.202C35.9713 189.053 34.5146 188.436 33.7303 186.924C33.7116 186.849 33.7116 186.774 33.749 186.718L34.3652 186.027C34.4213 185.953 34.4399 185.841 34.4213 185.766L33.6929 184.123C33.6743 184.048 33.5996 183.973 33.5062 183.973Z" fill="white"/>
<path d="M189.125 180.836H185.932V182.479H188.341V183.376H185.932V185.411H189.237V186.345H184.886V179.921H189.106V180.836H189.125Z" fill="white"/>
<path d="M195.325 179.902V186.438H194.97L191.048 181.994V186.345H190.021V179.809H190.376L194.279 184.253V179.921H195.325V179.902Z" fill="white"/>
<path d="M188.938 194.525L187.108 192.041H185.932V194.525H184.904V188.1H187.257C188.565 188.1 189.442 188.903 189.442 190.061C189.442 190.902 188.976 191.574 188.21 191.873L190.133 194.525H188.938ZM185.932 191.126H187.22C187.948 191.126 188.359 190.696 188.359 190.08C188.359 189.464 187.948 189.015 187.22 189.015H185.932V191.126Z" fill="white"/>
<path d="M194.877 189.034H191.683V190.678H194.092V191.574H191.683V193.609H194.989V194.543H190.638V188.119H194.858V189.034H194.877Z" fill="white"/>
<path d="M201.282 191.312C201.282 193.18 199.9 194.543 197.79 194.543H195.773V188.119H197.79C199.9 188.1 201.282 189.408 201.282 191.312ZM196.8 189.034V193.609H197.771C199.284 193.609 200.218 192.638 200.218 191.312C200.218 189.931 199.284 189.034 197.771 189.034H196.8Z" fill="white"/>
<path d="M209.238 193.404H208.36V194.525H207.333V193.404H204.121V193.124L206.175 188.1H207.24L205.428 192.526H207.333V190.547H208.36V192.526H209.238V193.404Z" fill="white"/>
<path d="M215.55 189.333L214.803 189.949C214.355 189.314 213.72 188.941 212.88 188.941C211.498 188.941 210.564 189.949 210.564 191.312C210.564 192.694 211.535 193.722 212.936 193.722C213.795 193.722 214.467 193.329 214.859 192.75V192.059H212.88V191.144H215.886V192.956C215.326 193.964 214.205 194.655 212.88 194.655C210.975 194.655 209.499 193.217 209.499 191.331C209.499 189.445 210.993 188.007 212.88 188.007C214.019 187.988 214.934 188.493 215.55 189.333Z" fill="white"/>
<path d="M120.924 192.508H127.572V194.599H118.589V180.07H120.924V192.508Z" fill="white"/>
<path d="M130.971 194.599H128.637V180.07H130.971V194.599Z" fill="white"/>
<path d="M144.548 190.379C144.548 192.825 142.699 194.599 139.842 194.599H134.706H133.604V180.07H135.901H138.702C141.336 180.07 143.054 181.676 143.054 183.936C143.054 185.056 142.605 186.009 141.821 186.662C143.521 187.241 144.548 188.586 144.548 190.379ZM135.901 182.124V186.046H138.46C139.935 186.046 140.701 185.224 140.701 184.067C140.701 182.909 139.935 182.124 138.46 182.124H135.901ZM142.195 190.323C142.195 188.959 141.298 188.063 139.636 188.063H135.901V192.582H139.636C141.28 192.564 142.195 191.686 142.195 190.323Z" fill="white"/>
<path d="M155.36 194.599L151.233 188.997H148.563V194.599H146.228V180.07H151.532C154.483 180.07 156.462 181.882 156.462 184.515C156.462 186.42 155.398 187.932 153.661 188.605L158.012 194.581H155.36V194.599ZM148.563 186.924H151.495C153.138 186.924 154.072 185.934 154.072 184.552C154.072 183.151 153.157 182.162 151.495 182.162H148.563V186.924Z" fill="white"/>
<path d="M168.545 182.18H161.336V185.897H166.771V187.914H161.336V192.508H168.825V194.599H159.021V180.07H168.564V182.18H168.545Z" fill="white"/>
<path d="M179.489 182.442L177.864 183.693C177.117 182.573 176.052 181.938 174.801 181.938C173.643 181.938 172.597 182.517 172.597 183.693C172.597 184.795 173.438 185.187 174.614 185.766L176.239 186.513C178.443 187.521 179.713 188.642 179.713 190.64C179.713 193.217 177.621 194.842 174.857 194.842C172.429 194.842 170.487 193.609 169.385 191.705L171.029 190.453C171.869 191.667 173.027 192.769 174.838 192.769C176.332 192.769 177.341 192.003 177.341 190.752C177.341 189.613 176.482 189.165 175.212 188.567L173.606 187.82C171.738 186.961 170.226 185.841 170.226 183.786C170.226 181.396 172.299 179.846 174.801 179.846C176.93 179.846 178.611 180.948 179.489 182.442Z" fill="white"/>
<path d="M53.283 194.674C57.2951 194.674 60.5476 191.421 60.5476 187.409C60.5476 183.397 57.2951 180.145 53.283 180.145C49.2709 180.145 46.0184 183.397 46.0184 187.409C46.0184 191.421 49.2709 194.674 53.283 194.674Z" fill="url(#paint0_radial)"/>
<path d="M55.1507 183.263H51.397C50.1271 183.263 49.0813 184.291 49.0813 185.542V189.258C49.0813 190.528 50.1271 191.537 51.397 191.555H55.1507C56.4206 191.555 57.4664 190.528 57.4664 189.277V185.561C57.4664 184.291 56.4392 183.263 55.1507 183.263ZM56.7194 189.277C56.7194 190.136 56.0097 190.827 55.1507 190.827H51.397C50.5379 190.827 49.8283 190.136 49.8283 189.277V185.561C49.8283 184.701 50.5379 184.01 51.397 184.01H55.1507C56.0097 184.01 56.7194 184.701 56.7194 185.561V189.277Z" fill="white"/>
<path d="M53.2831 185.28C52.0879 185.28 51.1168 186.233 51.1168 187.409C51.1168 188.586 52.0879 189.538 53.2831 189.538C54.4783 189.538 55.4494 188.586 55.4494 187.409C55.4307 186.233 54.4783 185.28 53.2831 185.28ZM53.2831 188.81C52.4988 188.81 51.8638 188.175 51.8638 187.409C51.8638 186.644 52.4988 186.009 53.2831 186.009C54.0675 186.009 54.7024 186.644 54.7024 187.409C54.7024 188.175 54.0675 188.81 53.2831 188.81Z" fill="white"/>
<path d="M55.5241 184.645C55.3747 184.645 55.244 184.701 55.1319 184.795C55.0386 184.888 54.9639 185.038 54.9639 185.168C54.9639 185.318 55.0199 185.448 55.1319 185.542C55.2253 185.635 55.3747 185.691 55.5241 185.691C55.6735 185.691 55.8042 185.635 55.9163 185.542C56.0097 185.448 56.0844 185.299 56.0844 185.168C56.0844 185.019 56.0283 184.888 55.9163 184.795C55.8042 184.701 55.6735 184.645 55.5241 184.645Z" fill="white"/>
<path d="M27.3621 167.016H31.1718V168.211H26.0175V159.882H27.3621V167.016Z" fill="#4D008C"/>
<path d="M34.5519 168.211H33.2073V159.882H34.5519V168.211Z" fill="#4D008C"/>
<path d="M43.5906 165.802C43.5906 167.203 42.5261 168.23 40.8827 168.23H37.9321H37.2971V159.901H38.6044H40.2104C41.7231 159.901 42.7129 160.816 42.7129 162.123C42.7129 162.758 42.4514 163.319 42.0032 163.692C43.0117 163.991 43.5906 164.757 43.5906 165.802ZM38.6417 161.059V163.3H40.117C40.9574 163.3 41.4056 162.833 41.4056 162.161C41.4056 161.488 40.9574 161.059 40.117 161.059H38.6417ZM42.246 165.765C42.246 164.981 41.7231 164.458 40.7893 164.458H38.6417V167.054H40.7893C41.7231 167.054 42.246 166.549 42.246 165.765Z" fill="#4D008C"/>
<path d="M51.0419 168.211L48.6701 164.999H47.1388V168.211H45.7942V159.882H48.8382C50.5376 159.882 51.6581 160.91 51.6581 162.441C51.6581 163.543 51.0605 164.402 50.0521 164.794L52.5545 168.23H51.0419V168.211ZM47.1388 163.823H48.8195C49.772 163.823 50.2949 163.263 50.2949 162.46C50.2949 161.657 49.772 161.078 48.8195 161.078H47.1388V163.823Z" fill="#4D008C"/>
<path d="M59.9312 161.078H55.7854V163.207H58.9041V164.364H55.7854V166.998H60.0806V168.193H54.4408V159.864H59.9126V161.078H59.9312Z" fill="#4D008C"/>
<path d="M67.5319 161.246L66.5982 161.974C66.1686 161.339 65.571 160.966 64.8427 160.966C64.1704 160.966 63.5728 161.302 63.5728 161.974C63.5728 162.609 64.0584 162.833 64.7307 163.169L65.6644 163.599C66.9343 164.178 67.6626 164.831 67.6626 165.97C67.6626 167.446 66.4674 168.38 64.8801 168.38C63.4981 168.38 62.359 167.67 61.7427 166.568L62.6951 165.84C63.1806 166.531 63.8529 167.166 64.8801 167.166C65.7391 167.166 66.318 166.717 66.318 166.008C66.318 165.354 65.8325 165.093 65.0855 164.757L64.1704 164.327C63.1059 163.842 62.2282 163.188 62.2282 162.011C62.2282 160.629 63.4234 159.752 64.8614 159.752C66.0566 159.752 67.0277 160.387 67.5319 161.246Z" fill="#4D008C"/>
<path d="M32.2549 150.863V157.754H31.1717V153.496L29.2295 156.036H28.856L26.9138 153.496V157.754H25.8307V150.863H26.2042L29.0428 154.654L31.8814 150.863H32.2549Z" fill="#4D008C"/>
<path d="M34.7759 157.735H33.6927V150.974H34.7759V157.735Z" fill="#4D008C"/>
<path d="M41.7603 150.974V157.865H41.3868L37.2597 153.178V157.753H36.1765V150.862H36.55L40.6585 155.55V150.974H41.7603Z" fill="#4D008C"/>
<path d="M48.6887 155.008C48.6887 156.82 47.4935 157.866 45.9248 157.866C44.3187 157.866 43.1422 156.82 43.1422 155.008V150.974H44.2254V155.083C44.2254 156.278 44.9724 156.876 45.9248 156.876C46.8772 156.876 47.6055 156.278 47.6055 155.083V150.974H48.6887V155.008Z" fill="#4D008C"/>
<path d="M55.0009 151.946H52.7039V157.753H51.6208V151.946H49.3424V150.974H55.0009V151.946Z" fill="#4D008C"/>
<path d="M62.2281 154.355C62.2281 156.353 60.622 157.847 58.6612 157.847C56.6816 157.847 55.1129 156.334 55.1129 154.355C55.1129 152.375 56.7003 150.862 58.6612 150.862C60.622 150.862 62.2281 152.375 62.2281 154.355ZM56.2334 154.355C56.2334 155.811 57.2605 156.876 58.6612 156.876C60.0431 156.876 61.0889 155.811 61.0889 154.355C61.0889 152.935 60.0431 151.852 58.6612 151.852C57.2605 151.852 56.2334 152.917 56.2334 154.355Z" fill="#4D008C"/>
<path d="M67.4758 152.076L66.7101 152.655C66.3553 152.132 65.8697 151.833 65.2908 151.833C64.7492 151.833 64.2637 152.095 64.2637 152.655C64.2637 153.159 64.6558 153.346 65.2161 153.626L65.9818 153.981C67.0089 154.448 67.6065 154.971 67.6065 155.905C67.6065 157.1 66.6354 157.865 65.3468 157.865C64.2263 157.865 63.3112 157.287 62.7883 156.39L63.554 155.811C63.9462 156.371 64.4878 156.894 65.3281 156.894C66.0191 156.894 66.5047 156.54 66.5047 155.942C66.5047 155.4 66.1125 155.195 65.5149 154.934L64.7679 154.579C63.8902 154.187 63.1805 153.664 63.1805 152.693C63.1805 151.572 64.1516 150.862 65.3095 150.862C66.2806 150.862 67.0649 151.367 67.4758 152.076Z" fill="#4D008C"/>
<path d="M108.785 163.225H105.554V164.887H107.982V165.802H105.554V167.857H108.897V168.79H104.508V162.291H108.785V163.225Z" fill="#4D008C"/>
<path d="M116.46 162.291V168.902H116.106L112.147 164.402V168.79H111.101V162.179H111.474L115.415 166.661V162.273H116.46V162.291Z" fill="#4D008C"/>
<path d="M128.991 162.179V168.79H127.945V164.719L126.078 167.166H125.723L123.856 164.719V168.79H122.81V162.179H123.183L125.91 165.821L128.636 162.179H128.991Z" fill="#4D008C"/>
<path d="M135.528 167.707H132.596L132.129 168.79H131.008L133.865 162.179H134.22L137.078 168.79H135.957L135.528 167.707ZM134.052 164.122L132.969 166.811H135.117L134.052 164.122ZM134.444 161.657H133.679L134.463 159.826H135.714V160.013L134.444 161.657Z" fill="#4D008C"/>
<path d="M143.128 163.356L142.4 163.916C142.064 163.412 141.597 163.132 141.037 163.132C140.514 163.132 140.047 163.393 140.047 163.916C140.047 164.402 140.42 164.588 140.962 164.85L141.69 165.186C142.68 165.634 143.24 166.138 143.24 167.035C143.24 168.193 142.307 168.921 141.055 168.921C139.972 168.921 139.094 168.361 138.609 167.52L139.356 166.96C139.729 167.502 140.252 167.987 141.055 167.987C141.728 167.987 142.176 167.651 142.176 167.072C142.176 166.568 141.784 166.363 141.223 166.101L140.514 165.765C139.673 165.373 139.001 164.887 139.001 163.954C139.001 162.889 139.935 162.198 141.055 162.198C141.989 162.179 142.736 162.684 143.128 163.356Z" fill="#4D008C"/>
<path d="M154.875 165.541C154.875 167.427 153.493 168.809 151.345 168.809H149.31V162.31H151.345C153.493 162.291 154.875 163.617 154.875 165.541ZM150.355 163.244V167.857H151.345C152.877 167.857 153.81 166.886 153.81 165.541C153.81 164.159 152.858 163.244 151.345 163.244H150.355Z" fill="#4D008C"/>
<path d="M161.374 163.225H158.143V164.887H160.571V165.802H158.143V167.857H161.486V168.79H157.097V162.291H161.374V163.225Z" fill="#4D008C"/>
<path d="M171.645 166.699C171.645 168.043 170.524 168.902 169.255 168.902C168.115 168.902 167.331 168.286 166.92 167.502L167.648 166.979C168.003 167.539 168.47 167.95 169.217 167.95C169.983 167.95 170.562 167.483 170.562 166.717C170.562 165.97 170.039 165.56 169.068 165.56H167.574V162.291H171.122V163.225H168.582V164.738C168.844 164.682 169.105 164.663 169.404 164.663C170.543 164.663 171.645 165.336 171.645 166.699Z" fill="#4D008C"/>
<path d="M178.667 165.485C178.667 167.352 177.901 168.902 176.202 168.902C174.484 168.902 173.718 167.352 173.718 165.485C173.718 163.599 174.502 162.179 176.202 162.179C177.901 162.179 178.667 163.599 178.667 165.485ZM174.782 165.504C174.782 166.96 175.175 167.95 176.183 167.95C177.173 167.95 177.565 166.96 177.565 165.504C177.565 164.066 177.173 163.151 176.183 163.151C175.175 163.151 174.782 164.066 174.782 165.504Z" fill="#4D008C"/>
<path d="M189.386 164.29C189.386 165.466 188.508 166.288 187.183 166.288H185.857V168.79H184.811V162.291H187.183C188.49 162.291 189.386 163.095 189.386 164.29ZM185.838 163.225V165.354H187.145C187.892 165.354 188.303 164.906 188.303 164.29C188.303 163.655 187.892 163.225 187.145 163.225H185.838Z" fill="#4D008C"/>
<path d="M194.634 167.707H191.702L191.235 168.79H190.115L192.972 162.179H193.327L196.184 168.79H195.063L194.634 167.707ZM193.177 164.122L192.094 166.811H194.242L193.177 164.122Z" fill="#4D008C"/>
<path d="M199.284 168.79H198.238V162.291H199.284V168.79ZM200.404 160.013L199.135 161.657H198.369L199.153 159.826H200.404V160.013Z" fill="#4D008C"/>
<path d="M205.97 163.356L205.241 163.916C204.905 163.412 204.438 163.132 203.878 163.132C203.355 163.132 202.888 163.393 202.888 163.916C202.888 164.402 203.262 164.588 203.803 164.85L204.532 165.186C205.521 165.634 206.082 166.138 206.082 167.035C206.082 168.193 205.148 168.921 203.897 168.921C202.813 168.921 201.936 168.361 201.45 167.52L202.197 166.96C202.571 167.502 203.094 167.987 203.897 167.987C204.569 167.987 205.017 167.651 205.017 167.072C205.017 166.568 204.625 166.363 204.065 166.101L203.355 165.765C202.515 165.373 201.842 164.887 201.842 163.954C201.842 162.889 202.776 162.198 203.897 162.198C204.83 162.179 205.577 162.684 205.97 163.356Z" fill="#4D008C"/>
<path d="M212.674 163.225H209.443V164.887H211.871V165.802H209.443V167.857H212.786V168.79H208.397V162.291H212.674V163.225Z" fill="#4D008C"/>
<path d="M219.042 163.356L218.314 163.916C217.978 163.412 217.511 163.132 216.95 163.132C216.428 163.132 215.961 163.393 215.961 163.916C215.961 164.402 216.334 164.588 216.876 164.85L217.604 165.186C218.594 165.634 219.154 166.138 219.154 167.035C219.154 168.193 218.22 168.921 216.969 168.921C215.886 168.921 215.008 168.361 214.523 167.52L215.27 166.96C215.643 167.502 216.166 167.987 216.969 167.987C217.641 167.987 218.09 167.651 218.09 167.072C218.09 166.568 217.697 166.363 217.137 166.101L216.428 165.765C215.587 165.373 214.915 164.887 214.915 163.954C214.915 162.889 215.849 162.198 216.969 162.198C217.903 162.179 218.65 162.684 219.042 163.356Z" fill="#4D008C"/>
<path d="M106.637 156.372H110.279V158.444H104.359V149.649H106.656V156.372H106.637Z" fill="#4D008C"/>
<path d="M113.398 158.426H111.101V149.63H113.398V158.426Z" fill="#4D008C"/>
<path d="M121.876 155.83C121.876 156.596 121.596 157.212 121.036 157.716C120.476 158.202 119.766 158.444 118.907 158.444H115.975H114.798V149.649H117.002H117.973C118.832 149.649 119.542 149.891 120.102 150.377C120.662 150.862 120.942 151.479 120.942 152.263C120.942 152.842 120.756 153.346 120.401 153.738C121.372 154.112 121.876 154.803 121.876 155.83ZM117.002 151.572V153.122H117.824C118.104 153.122 118.309 153.047 118.477 152.917C118.645 152.786 118.701 152.581 118.701 152.356C118.701 152.132 118.627 151.946 118.477 151.796C118.328 151.647 118.104 151.591 117.824 151.591H117.002V151.572ZM119.635 155.737C119.635 155.214 119.336 154.971 118.757 154.971H117.002V156.521H118.757C119.336 156.502 119.635 156.241 119.635 155.737Z" fill="#4D008C"/>
<path d="M127.964 158.426L125.985 155.699H125.032V158.426H122.735V149.63H126.19C127.18 149.63 127.983 149.91 128.618 150.452C129.253 150.993 129.57 151.74 129.57 152.655C129.57 153.757 129.103 154.597 128.188 155.158L130.504 158.426H127.964ZM125.032 153.701H126.209C126.526 153.701 126.788 153.608 126.974 153.421C127.161 153.234 127.255 152.973 127.255 152.674C127.255 152.356 127.161 152.114 126.974 151.927C126.788 151.74 126.526 151.647 126.209 151.647H125.032V153.701Z" fill="#4D008C"/>
<path d="M137.171 151.703H133.361V152.917H136.069V154.84H133.361V156.372H137.32V158.444H131.064V149.649H137.171V151.703Z" fill="#4D008C"/>
<path d="M147.853 151.703H144.062V152.917H146.77V154.84H144.062V156.372H148.021V158.444H141.765V149.649H147.872V151.703H147.853Z" fill="#4D008C"/>
<path d="M156.873 149.649V158.594H156.145L151.383 153.981V158.444H149.086V149.48H149.814L154.576 154.037V149.649H156.873Z" fill="#4D008C"/>
<path d="M166.864 158.426L164.885 155.699H163.932V158.426H161.635V149.63H165.09C166.08 149.63 166.883 149.91 167.518 150.452C168.153 150.993 168.47 151.74 168.47 152.655C168.47 153.757 168.003 154.597 167.088 155.158L169.404 158.426H166.864ZM163.932 153.701H165.109C165.426 153.701 165.688 153.608 165.874 153.421C166.061 153.234 166.155 152.973 166.155 152.674C166.155 152.356 166.061 152.114 165.874 151.927C165.688 151.74 165.426 151.647 165.109 151.647H163.932V153.701Z" fill="#4D008C"/>
<path d="M177.416 150.788C178.331 151.665 178.798 152.749 178.798 154.037C178.798 155.326 178.331 156.409 177.416 157.287C176.501 158.164 175.361 158.594 174.054 158.594C172.747 158.594 171.608 158.164 170.693 157.287C169.778 156.409 169.329 155.326 169.329 154.037C169.329 152.749 169.778 151.665 170.693 150.788C171.608 149.91 172.728 149.48 174.054 149.48C175.38 149.48 176.482 149.929 177.416 150.788ZM172.317 152.263C171.869 152.711 171.645 153.309 171.645 154.037C171.645 154.765 171.869 155.363 172.317 155.811C172.766 156.259 173.344 156.484 174.054 156.484C174.745 156.484 175.324 156.259 175.772 155.811C176.22 155.363 176.445 154.765 176.445 154.037C176.445 153.309 176.22 152.711 175.772 152.263C175.324 151.815 174.745 151.591 174.054 151.591C173.344 151.591 172.766 151.815 172.317 152.263Z" fill="#4D008C"/>
<path d="M184.624 157.697H181.468L181.151 158.426H178.686L182.682 149.48H183.41L187.407 158.426H184.942L184.624 157.697ZM183.055 153.832L182.29 155.867H183.821L183.055 153.832Z" fill="#4D008C"/>
<path d="M196.912 149.48V158.426H194.615V154.728L192.785 156.857H192.057L190.245 154.747V158.426H187.948V149.48H188.677L192.412 154.056L196.147 149.48H196.912Z" fill="#4D008C"/>
<path d="M200.591 158.426H198.294V149.63H200.591V158.426Z" fill="#4D008C"/>
<path d="M209.779 149.649V158.594H209.051L204.289 153.981V158.444H201.992V149.48H202.72L207.482 154.037V149.649H209.779Z" fill="#4D008C"/>
<path d="M219.285 151.441L217.679 152.805C217.1 152.002 216.353 151.591 215.457 151.591C214.728 151.591 214.131 151.815 213.701 152.263C213.272 152.711 213.048 153.309 213.048 154.037C213.048 154.784 213.272 155.4 213.72 155.867C214.168 156.334 214.784 156.558 215.569 156.558C216.409 156.558 217.044 156.297 217.492 155.774V155.363H215.438V153.384H219.771V156.147C219.36 156.876 218.781 157.455 218.015 157.903C217.249 158.351 216.409 158.575 215.457 158.575C214.112 158.575 212.973 158.146 212.058 157.268C211.143 156.39 210.676 155.307 210.676 154.018C210.676 152.73 211.143 151.647 212.058 150.769C212.973 149.891 214.112 149.462 215.457 149.462C217.137 149.48 218.407 150.134 219.285 151.441Z" fill="#4D008C"/>
<path d="M81.1459 168.772L82.4718 163.991C81.6127 162.497 81.1459 160.853 81.1459 159.135C81.1459 153.925 85.4411 149.63 90.6888 149.63C95.9365 149.63 100.288 153.925 100.288 159.135C100.288 164.346 95.9365 168.772 90.6888 168.772C89.0454 168.772 87.458 168.249 86.0387 167.446L81.1459 168.772Z" fill="white"/>
<path d="M86.3002 165.746L86.599 165.914C87.8129 166.68 89.2322 167.128 90.7262 167.128C95.0588 167.128 98.6444 163.524 98.6444 159.135C98.6444 154.747 95.0401 151.273 90.6888 151.273C86.3376 151.273 82.808 154.765 82.808 159.135C82.808 160.648 83.2375 162.142 84.0219 163.393L84.2273 163.692L83.4616 166.456L86.3002 165.746Z" fill="#209455"/>
<path d="M88.149 154.728L87.5141 154.691C87.3087 154.691 87.1219 154.765 86.9912 154.896C86.6924 155.158 86.2068 155.662 86.0761 156.315C85.852 157.305 86.2068 158.5 87.0659 159.677C87.9249 160.872 89.5683 162.777 92.4816 163.599C93.3967 163.86 94.125 163.692 94.7226 163.337C95.1895 163.038 95.4883 162.572 95.5817 162.086L95.6751 161.619C95.7124 161.488 95.6377 161.32 95.507 161.264L93.4341 160.312C93.3033 160.237 93.1353 160.275 93.0419 160.405L92.2202 161.47C92.1455 161.544 92.0521 161.563 91.9587 161.544C91.3985 161.339 89.5123 160.555 88.4852 158.575C88.4478 158.482 88.4478 158.37 88.5225 158.314L89.3069 157.417C89.3816 157.324 89.4003 157.193 89.3816 157.081L88.4292 154.934C88.3731 154.821 88.2798 154.728 88.149 154.728Z" fill="white"/>
<path d="M75.3754 151.367V168.79" stroke="#4D008C" stroke-width="0.954946" stroke-miterlimit="10"/>
<path d="M39.6127 283.791L37.0916 285.939C36.1765 284.669 35 284.015 33.5807 284.015C32.4229 284.015 31.4891 284.37 30.8168 285.08C30.1445 285.789 29.7897 286.723 29.7897 287.899C29.7897 289.095 30.1445 290.047 30.8728 290.794C31.5825 291.522 32.5723 291.896 33.8048 291.896C35.1307 291.896 36.1392 291.485 36.8675 290.645V289.991H33.6181V286.872H40.4905V291.261C39.8368 292.419 38.9218 293.334 37.7266 294.044C36.5314 294.753 35.1681 295.108 33.6741 295.108C31.5451 295.108 29.7523 294.417 28.2957 293.035C26.839 291.653 26.1107 289.954 26.1107 287.899C26.1107 285.864 26.839 284.146 28.2957 282.764C29.7523 281.382 31.5451 280.691 33.6741 280.691C36.2139 280.691 38.2121 281.718 39.6127 283.791Z" fill="white"/>
<path d="M45.2713 294.847H41.6483V280.952H45.2713V294.847Z" fill="white"/>
<path d="M59.7817 283.791L57.2606 285.939C56.3455 284.669 55.169 284.015 53.7497 284.015C52.5918 284.015 51.6581 284.37 50.9858 285.08C50.3135 285.789 49.9586 286.723 49.9586 287.899C49.9586 289.095 50.3135 290.047 51.0418 290.794C51.7514 291.522 52.7412 291.896 53.9738 291.896C55.2997 291.896 56.3081 291.485 57.0365 290.645V289.991H53.787V286.872H60.6594V291.261C60.0058 292.419 59.0907 293.334 57.8955 294.044C56.7003 294.753 55.337 295.108 53.843 295.108C51.7141 295.108 49.9213 294.417 48.4646 293.035C47.008 291.653 46.2797 289.954 46.2797 287.899C46.2797 285.864 47.008 284.146 48.4646 282.764C49.9213 281.382 51.7141 280.691 53.843 280.691C56.3828 280.691 58.3811 281.718 59.7817 283.791Z" fill="white"/>
<path d="M69.1753 293.689H64.189L63.6848 294.847H59.7817L66.0939 280.691H67.2517L73.5639 294.847H69.6608L69.1753 293.689ZM66.6915 287.563L65.4776 290.794H67.9054L66.6915 287.563Z" fill="white"/>
<path d="M83.0508 283.492L80.623 285.341C80.2869 284.837 79.9507 284.463 79.5959 284.22C79.2411 283.978 78.8302 283.866 78.326 283.866C77.5043 283.866 77.0748 284.164 77.0748 284.743C77.0748 285.005 77.1682 285.21 77.3362 285.36C77.5043 285.528 77.8218 285.696 78.27 285.883L79.876 286.555C81.0899 287.059 81.9863 287.638 82.5652 288.292C83.1442 288.945 83.443 289.767 83.443 290.738C83.443 292.064 82.9574 293.128 82.005 293.913C81.0526 294.697 79.82 295.089 78.3447 295.089C77.0935 295.089 75.9916 294.809 75.0205 294.249C74.0494 293.689 73.3211 292.923 72.8169 291.971L75.2633 290.122C76.141 291.317 77.1868 291.915 78.3634 291.915C79.3158 291.915 79.8013 291.578 79.8013 290.906C79.8013 290.589 79.708 290.365 79.5025 290.215C79.2971 290.066 78.9423 289.86 78.382 289.618L76.9441 288.983C74.591 287.955 73.4332 286.555 73.4332 284.799C73.4332 283.567 73.8814 282.577 74.7964 281.811C75.7115 281.046 76.8694 280.691 78.3073 280.691C80.5297 280.691 82.117 281.625 83.0508 283.492Z" fill="white"/>
<path d="M92.519 292.4C91.716 292.699 90.8943 293.016 90.0913 293.315C90.0353 293.184 89.9979 293.072 89.9419 292.942C91.0064 292.456 92.0708 291.952 93.154 291.485C93.2847 291.429 93.5835 291.466 93.6395 291.56C94.1998 292.606 94.7227 293.67 95.2643 294.716C95.1335 294.772 95.0028 294.847 94.8721 294.903C94.4612 294.174 94.0504 293.427 93.5648 292.531C93.1353 293.278 92.8178 293.857 92.5004 294.436C90.1286 298.526 86.5244 300.598 81.8556 300.617C63.7035 300.673 45.5515 300.673 27.3807 300.617C20.9938 300.598 16.045 296.004 15.3353 289.73C15.298 289.431 15.3353 289.132 15.5407 288.833C15.8582 290.028 16.0823 291.242 16.5305 292.4C18.1552 296.695 21.1993 299.291 25.7933 299.945C26.8391 300.094 27.9036 300.169 28.9494 300.169C46.4665 300.188 63.9837 300.188 81.5008 300.169C86.1882 300.169 89.7925 298.133 92.1829 294.044C92.4443 293.595 92.6124 293.11 92.8178 292.643C92.6871 292.568 92.5937 292.475 92.519 292.4Z" fill="white" stroke="white" stroke-width="0.290079" stroke-miterlimit="10"/>
<path d="M93.6022 288.012C93.5088 287.526 93.3781 287.04 93.3221 286.555C92.7431 281.886 89.0642 277.871 84.4141 276.919C83.387 276.713 82.3225 276.582 81.258 276.582C63.4608 276.564 45.6635 276.564 27.8662 276.582C23.3842 276.582 19.8733 278.394 17.4269 282.166C17.0347 282.764 16.7733 283.455 16.4558 284.108C16.5305 284.202 16.6052 284.277 16.6799 284.37C17.5016 284.052 18.3233 283.716 19.145 283.399C19.201 283.53 19.2571 283.66 19.2944 283.772C18.1366 284.314 16.96 284.874 15.6528 285.49C15.0552 284.22 14.5136 283.081 13.972 281.942C14.1028 281.867 14.2335 281.811 14.3642 281.737C14.7751 282.502 15.1672 283.268 15.6715 284.202C15.8956 283.847 16.0636 283.642 16.1757 283.417C18.454 278.711 22.1704 276.153 27.418 276.134C45.6075 276.097 63.7969 276.097 81.9864 276.116C88.4479 276.116 93.6395 281.139 93.957 287.619C93.957 287.731 93.901 287.862 93.8636 287.974C93.7703 287.993 93.6769 287.993 93.6022 288.012Z" fill="white" stroke="white" stroke-width="0.290079" stroke-miterlimit="10"/>
<path d="M21.0873 88.0957C13.5426 88.0957 7.41724 92.7831 7.41724 98.591V299.104C7.41724 304.894 13.5426 309.6 21.0873 309.6H226.792" stroke="#FF0081" stroke-width="0.919015" stroke-miterlimit="10"/>
<path d="M226.942 309.693C233.478 308.909 238.427 304.333 238.427 299.104V98.591C238.427 92.8018 232.301 88.0957 224.757 88.0957H122.436" stroke="#FF0081" stroke-width="0.919015" stroke-miterlimit="10"/>
<path d="M44.7857 41.0161C47.1761 43.0703 48.3713 45.8156 48.3713 49.2518C48.3713 52.8374 47.0267 55.8067 44.3562 58.1597C41.6856 60.5128 38.3428 61.6893 34.3277 61.6893C31.209 61.6893 28.4637 60.9423 26.092 59.4296C23.7203 57.917 21.9275 55.8814 20.7136 53.2856L27.0444 48.8222C28.0716 50.3909 29.1174 51.5114 30.1818 52.2211C31.2463 52.9307 32.4975 53.2856 33.9542 53.2856C35.4482 53.2856 36.6621 52.9307 37.5958 52.2398C38.5296 51.5488 38.9964 50.5777 38.9964 49.3451C38.9964 46.9734 36.9795 45.7782 32.9271 45.7782H24.5793V25.9641H46.317V34.1997H33.2445V38.2895C34.5518 38.0468 35.6723 37.916 36.5874 37.916C39.6687 37.9347 42.3953 38.9618 44.7857 41.0161Z" fill="#4D008C"/>
<path d="M75.6181 30.2966C78.1205 33.6021 79.3718 37.9347 79.3718 43.2384C79.3718 48.6168 78.1205 53.0428 75.5994 56.4977C73.0783 59.9525 69.4927 61.6893 64.8053 61.6893C60.1178 61.6893 56.5322 59.9525 54.0111 56.4977C51.49 53.0428 50.2388 48.6168 50.2388 43.2384C50.2388 37.916 51.49 33.6021 53.9924 30.2966C56.4949 26.9912 60.0992 25.3291 64.8053 25.3291C69.5114 25.3291 73.1156 26.9912 75.6181 30.2966ZM60.8648 36.0485C60.0058 37.5986 59.5949 40.0076 59.5949 43.3131C59.5949 49.9801 61.3317 53.3042 64.8053 53.3042C68.2788 53.3042 70.0156 49.9801 70.0156 43.3131C70.0156 40.0263 69.5861 37.5986 68.7457 36.0485C67.8866 34.4985 66.5794 33.7328 64.8053 33.7328C63.0311 33.7328 61.7239 34.4985 60.8648 36.0485Z" fill="#4D008C"/>
<path d="M92.7992 31.0436C93.789 31.9587 94.2746 33.0979 94.2746 34.4798C94.2746 35.8431 93.789 37.001 92.7992 37.9347C91.8095 38.8685 90.6143 39.3167 89.2136 39.3167C87.813 39.3167 86.5991 38.8498 85.628 37.9347C84.6383 37.001 84.1527 35.8618 84.1527 34.4798C84.1527 33.1166 84.6383 31.9587 85.628 31.0436C86.6178 30.1286 87.813 29.6617 89.2136 29.6617C90.6143 29.6617 91.8095 30.1286 92.7992 31.0436ZM91.7534 49.1397H87.869L98.906 30.0165H102.809L91.7534 49.1397ZM88.2425 33.434C88.0184 33.6955 87.8877 34.0503 87.8877 34.4985C87.8877 34.9467 87.9998 35.3015 88.2425 35.563C88.4666 35.8244 88.8028 35.9552 89.2323 35.9552C89.6058 35.9552 89.9046 35.8244 90.1474 35.563C90.3902 35.3015 90.5022 34.9467 90.5022 34.4985C90.5022 34.069 90.3902 33.7328 90.1474 33.4527C89.9046 33.1913 89.6058 33.0419 89.2323 33.0419C88.8028 33.0419 88.4666 33.1726 88.2425 33.434ZM105.05 41.1842C106.04 42.0992 106.525 43.2384 106.525 44.6203C106.525 46.0023 106.04 47.1415 105.05 48.0752C104.06 49.009 102.865 49.4572 101.464 49.4572C100.064 49.4572 98.8499 48.9903 97.8788 48.0752C96.8891 47.1415 96.4035 46.0023 96.4035 44.6203C96.4035 43.2384 96.8891 42.0992 97.8788 41.1842C98.8686 40.2691 100.064 39.8022 101.464 39.8022C102.865 39.8022 104.06 40.2691 105.05 41.1842ZM100.512 43.5745C100.269 43.836 100.157 44.1908 100.157 44.639C100.157 45.0872 100.269 45.442 100.512 45.7035C100.755 45.9649 101.072 46.0957 101.502 46.0957C101.875 46.0957 102.174 45.9649 102.417 45.7035C102.66 45.442 102.772 45.0872 102.772 44.639C102.772 44.2095 102.66 43.8733 102.417 43.5932C102.174 43.3131 101.875 43.1824 101.502 43.1824C101.072 43.1824 100.755 43.3131 100.512 43.5745Z" fill="#4D008C"/>
<path d="M89.4378 58.9814C89.4378 60.5875 88.2052 61.7267 86.4685 61.7267H84.6757V56.2736H86.4685C88.2052 56.2736 89.4378 57.338 89.4378 58.9814ZM85.7962 57.282V60.7182H86.4498C87.5516 60.7182 88.2799 60.0272 88.2799 58.9814C88.2799 57.8983 87.5516 57.282 86.4498 57.282H85.7962Z" fill="#4D008C"/>
<path d="M95.2644 57.5248L94.424 58.1224C94.0692 57.5434 93.5463 57.2073 92.8553 57.2073C91.8469 57.2073 91.0999 57.9543 91.0999 59.0001C91.0999 60.0459 91.8469 60.7929 92.8553 60.7929C93.5463 60.7929 94.0505 60.4567 94.424 59.8778L95.2644 60.4754C94.7975 61.3158 93.9011 61.8387 92.8553 61.8387C91.2306 61.8387 89.9607 60.6061 89.9607 59.0188C89.9607 57.4127 91.2493 56.1988 92.874 56.1988C93.9011 56.1615 94.7788 56.6844 95.2644 57.5248Z" fill="#4D008C"/>
<path d="M100.176 57.282H98.4205V61.7267H97.3V57.282H95.5632V56.2736H100.176V57.282Z" fill="#4D008C"/>
<path d="M106.152 59.0001C106.152 60.6061 104.845 61.82 103.239 61.82C101.633 61.82 100.344 60.5875 100.344 59.0001C100.344 57.3941 101.633 56.1802 103.239 56.1802C104.845 56.1802 106.152 57.3941 106.152 59.0001ZM101.502 59.0001C101.502 60.0646 102.23 60.7929 103.257 60.7929C104.266 60.7929 105.013 60.0646 105.013 59.0001C105.013 57.9543 104.266 57.2073 103.257 57.2073C102.249 57.2073 101.502 57.9356 101.502 59.0001Z" fill="#4D008C"/>
<path d="M130.224 41.9311C130.224 44.7324 128.039 46.6559 124.958 46.6559H122.455V51.8102H119.467V37.225H124.958C128.039 37.225 130.224 39.0925 130.224 41.9311ZM122.455 39.8582V44.0601H124.958C126.358 44.0601 127.161 43.201 127.161 41.9311C127.161 40.7173 126.34 39.8582 124.958 39.8582H122.455Z" fill="#4D008C"/>
<path d="M146.845 44.527C146.845 48.8222 143.352 52.0904 139.057 52.0904C134.762 52.0904 131.326 48.8222 131.326 44.527C131.326 40.2317 134.781 36.9636 139.057 36.9636C143.334 36.9636 146.845 40.2317 146.845 44.527ZM134.407 44.527C134.407 47.3656 136.368 49.3265 139.094 49.3265C141.765 49.3265 143.782 47.3656 143.782 44.527C143.782 41.7257 141.765 39.7275 139.094 39.7275C136.368 39.7275 134.407 41.7257 134.407 44.527Z" fill="#4D008C"/>
<path d="M157.882 51.8102L154.109 46.6559H151.906V51.8102H148.918V37.225H154.408C157.489 37.225 159.674 39.0739 159.674 41.9311C159.674 43.8173 158.685 45.2926 157.116 46.0583L161.243 51.8102H157.882ZM151.906 44.0414H154.408C155.809 44.0414 156.612 43.201 156.612 41.9498C156.612 40.7359 155.79 39.8769 154.408 39.8769H151.906V44.0414Z" fill="#4D008C"/>
<path d="M173.55 37.225V51.8102H170.562V40.7546L167.798 41.6323L167.088 38.9992L172.541 37.2064H173.55V37.225Z" fill="#4D008C"/>
<path d="M190.04 49.9241H184.064L183.242 51.8289H180.03L186.548 36.9823H187.537L194.036 51.8289H190.824L190.04 49.9241ZM187.052 42.5661L185.128 47.4776H188.975L187.052 42.5661Z" fill="#4D008C"/>
<path d="M208.024 37.2251V52.0717H207.034L198.593 43.0517V51.8102H195.605V36.9636H196.576L205.036 45.9089V37.2251H208.024ZM197.472 35.5817C197.435 35.3389 197.398 35.0961 197.398 34.8347C197.398 33.0045 198.574 31.8654 199.956 31.8654C200.46 31.8654 201.039 32.0148 201.6 32.3322L202.291 32.7244C202.627 32.8925 202.926 33.0979 203.262 33.0979C203.673 33.0979 203.878 32.7618 203.878 32.3509V32.0895H206.156C206.194 32.3322 206.194 32.575 206.194 32.8178C206.194 34.6666 205.036 35.8058 203.654 35.8058C203.131 35.8058 202.571 35.6377 201.992 35.3202L201.32 34.9654C200.983 34.76 200.647 34.5919 200.33 34.5919C199.938 34.5919 199.732 34.9281 199.732 35.3202V35.5817H197.472Z" fill="#4D008C"/>
<path d="M225.597 44.527C225.597 48.8222 222.105 52.0904 217.81 52.0904C213.514 52.0904 210.078 48.8222 210.078 44.527C210.078 40.2317 213.533 36.9636 217.81 36.9636C222.086 36.9636 225.597 40.2317 225.597 44.527ZM213.159 44.527C213.159 47.3656 215.12 49.3265 217.847 49.3265C220.517 49.3265 222.534 47.3656 222.534 44.527C222.534 41.7257 220.517 39.7275 217.847 39.7275C215.12 39.7275 213.159 41.7257 213.159 44.527Z" fill="#4D008C"/>
<path d="M51.8449 246.124H47.0268C44.3002 246.124 42.0966 243.92 42.0966 241.193V220.445C42.0966 217.719 44.3002 215.515 47.0268 215.515H51.8449C54.5715 215.515 56.7751 217.719 56.7751 220.445V241.212C56.7751 243.92 54.5715 246.124 51.8449 246.124Z" fill="#FF0081"/>
<path d="M50.7991 237.85V240.745H47.9979V237.813C46.093 237.402 44.6737 236.263 43.796 234.62L45.9623 233.014C46.84 234.396 48.0166 235.18 49.5479 235.18C50.7058 235.18 51.6022 234.732 51.6022 233.779C51.6022 232.958 50.8365 232.565 49.772 232.136L48.166 231.538C46.0557 230.754 44.6364 229.428 44.6364 227.411C44.6364 225.45 46.037 224.05 47.9979 223.564V220.688H50.7991V223.508C52.4799 223.844 53.6191 224.89 54.3287 226.216L52.1998 227.822C51.4341 226.702 50.5937 226.216 49.4732 226.216C48.6142 226.216 47.7738 226.533 47.7738 227.43C47.7738 228.196 48.4087 228.55 49.3612 228.924L51.1353 229.54C53.507 230.418 54.7396 231.744 54.7396 233.705C54.7396 235.983 53.0775 237.477 50.7991 237.85Z" fill="white"/>
<path d="M91.5481 224.124C93.8451 226.589 94.9843 229.615 94.9843 233.2C94.9843 237.29 93.5089 240.67 90.5583 243.378C87.6076 246.086 84.1341 247.431 80.175 247.431C76.1785 247.431 72.705 246.086 69.7543 243.378C66.8037 240.67 65.347 237.253 65.347 233.088C65.347 230.997 65.7579 229.092 66.5796 227.392C67.4013 225.693 68.7459 223.601 70.6134 221.118L80.231 208.232H92.0709L83.4991 219.848C86.5805 220.24 89.251 221.659 91.5481 224.124ZM83.6485 236.767C84.601 235.796 85.0865 234.582 85.0865 233.144C85.0865 231.706 84.601 230.511 83.6485 229.577C82.6961 228.644 81.5383 228.177 80.175 228.177C78.8117 228.177 77.6539 228.644 76.7014 229.577C75.749 230.511 75.2635 231.688 75.2635 233.144C75.2635 234.601 75.749 235.796 76.7014 236.767C77.6539 237.738 78.8117 238.224 80.175 238.224C81.5383 238.224 82.6961 237.738 83.6485 236.767Z" fill="#4D008C"/>
<path d="M107.384 236.263C108.617 237.533 109.215 239.064 109.215 240.894C109.215 242.762 108.598 244.312 107.384 245.563C106.152 246.814 104.621 247.431 102.753 247.431C100.811 247.431 99.2235 246.814 97.9722 245.563C96.721 244.312 96.1047 242.762 96.1047 240.894C96.1047 239.064 96.721 237.514 97.9722 236.263C99.2235 234.993 100.811 234.358 102.753 234.358C104.621 234.377 106.171 234.993 107.384 236.263Z" fill="#4D008C"/>
<path d="M134.332 211.593C137.264 214.301 138.74 217.719 138.74 221.883C138.74 223.975 138.329 225.88 137.507 227.579C136.686 229.279 135.341 231.37 133.473 233.854L123.856 246.74H112.016L120.588 235.124C117.506 234.732 114.836 233.312 112.539 230.829C110.242 228.364 109.103 225.338 109.103 221.753C109.103 217.663 110.578 214.283 113.529 211.575C116.479 208.867 119.953 207.522 123.912 207.522C127.927 207.541 131.4 208.886 134.332 211.593ZM127.385 225.394C128.338 224.461 128.823 223.284 128.823 221.827C128.823 220.371 128.338 219.175 127.385 218.204C126.433 217.233 125.275 216.748 123.912 216.748C122.549 216.748 121.391 217.233 120.438 218.204C119.486 219.175 119 220.389 119 221.827C119 223.265 119.486 224.461 120.438 225.394C121.391 226.328 122.549 226.795 123.912 226.795C125.275 226.795 126.433 226.328 127.385 225.394Z" fill="#4D008C"/>
<path d="M165.538 211.593C168.47 214.301 169.946 217.719 169.946 221.883C169.946 223.975 169.535 225.88 168.713 227.579C167.891 229.279 166.547 231.37 164.679 233.854L155.062 246.74H143.222L151.794 235.124C148.712 234.732 146.042 233.312 143.745 230.829C141.448 228.364 140.308 225.338 140.308 221.753C140.308 217.663 141.784 214.283 144.734 211.575C147.685 208.867 151.159 207.522 155.118 207.522C159.133 207.541 162.606 208.886 165.538 211.593ZM158.591 225.394C159.544 224.461 160.029 223.284 160.029 221.827C160.029 220.371 159.544 219.175 158.591 218.204C157.639 217.233 156.481 216.748 155.118 216.748C153.754 216.748 152.597 217.233 151.644 218.204C150.692 219.175 150.206 220.389 150.206 221.827C150.206 223.265 150.692 224.461 151.644 225.394C152.597 226.328 153.754 226.795 155.118 226.795C156.481 226.795 157.639 226.328 158.591 225.394Z" fill="#4D008C"/>
<path d="M196.688 224.741C199.321 227 200.629 230.007 200.629 233.779C200.629 237.701 199.153 240.969 196.221 243.546C193.289 246.124 189.629 247.431 185.222 247.431C181.804 247.431 178.779 246.609 176.183 244.947C173.569 243.285 171.608 241.044 170.301 238.205L177.248 233.312C178.368 235.031 179.526 236.263 180.684 237.047C181.842 237.832 183.224 238.205 184.83 238.205C186.454 238.205 187.799 237.832 188.826 237.066C189.853 236.3 190.376 235.255 190.376 233.891C190.376 231.277 188.154 229.988 183.728 229.988H174.577V208.232H198.406V217.271H184.064V221.771C185.502 221.491 186.735 221.36 187.743 221.36C191.086 221.36 194.074 222.481 196.688 224.741Z" fill="#4D008C"/>
<path d="M229.463 12.7235H17.2402C12.0859 12.7235 7.92139 16.888 7.92139 22.0423V66.0593C7.92139 71.1949 12.0859 75.3781 17.2402 75.3781H229.463C234.598 75.3781 238.782 71.2136 238.782 66.0593V22.0423C238.763 16.888 234.598 12.7235 229.463 12.7235Z" stroke="#FF0081" stroke-width="0.933544" stroke-miterlimit="10"/>
<path d="M34.8882 82.568V93.5115H34.1598L27.9411 86.8632V93.3061H25.7374V82.3625H26.4471L32.6845 88.9548V82.5493H34.8882V82.568Z" fill="#4D008C"/>
<path d="M45.6822 88.8614C45.6822 91.7373 43.7214 93.4928 41.1255 93.4928C38.511 93.4928 36.5688 91.7373 36.5688 88.8614V82.5679H38.7725V89.0295C38.7725 90.6355 39.7996 91.4759 41.1255 91.4759C42.4701 91.4759 43.4786 90.6542 43.4786 89.0295V82.5679H45.6822V88.8614Z" fill="#4D008C"/>
<path d="M54.5901 84.5475H49.5666V86.7325H53.2642V88.6H49.5666V91.3265H54.7956V93.3061H47.3629V82.5679H54.5901V84.5475Z" fill="#4D008C"/>
<path d="M65.2909 82.5679L60.5101 93.5115H59.7818L54.9823 82.5679H57.4661L60.1553 89.0855L62.8258 82.5679H65.2909Z" fill="#4D008C"/>
<path d="M76.0851 87.9276C76.0851 91.0837 73.508 93.4928 70.3519 93.4928C67.1958 93.4928 64.656 91.0837 64.656 87.9276C64.656 84.7716 67.1958 82.3625 70.3519 82.3625C73.508 82.3625 76.0851 84.7716 76.0851 87.9276ZM66.9157 87.9276C66.9157 90.0192 68.3723 91.4572 70.3706 91.4572C72.3314 91.4572 73.8254 90.0006 73.8254 87.9276C73.8254 85.8547 72.3501 84.3981 70.3706 84.3981C68.3723 84.3981 66.9157 85.8734 66.9157 87.9276Z" fill="#4D008C"/>
<path d="M89.4004 86.0228C89.4004 88.0957 87.7943 89.515 85.5347 89.515H83.6858V93.3061H81.5009V82.5679H85.5347C87.7943 82.5679 89.4004 83.9312 89.4004 86.0228ZM83.6858 84.4915V87.5915H85.5347C86.5618 87.5915 87.1594 86.9566 87.1594 86.0228C87.1594 85.1264 86.5618 84.4915 85.5347 84.4915H83.6858Z" fill="#4D008C"/>
<path d="M92.3883 91.3265H97.0944V93.3061H90.1847V82.5679H92.3883V91.3265Z" fill="#4D008C"/>
<path d="M104.621 91.9054H100.232L99.6343 93.306H97.2812L102.081 82.3625H102.809L107.59 93.306H105.218L104.621 91.9054ZM102.417 86.4897L100.998 90.1126H103.836L102.417 86.4897Z" fill="#4D008C"/>
<path d="M117.282 82.5679V93.5115H116.554L110.335 86.8632V93.306H108.131V82.3625H108.841L115.078 88.9548V82.5492H117.282V82.5679Z" fill="#4D008C"/>
<path d="M155.995 254.639C155.995 256.003 154.931 256.918 153.456 256.918H152.242V259.401H150.804V252.361H153.456C154.931 252.361 155.995 253.257 155.995 254.639ZM152.242 253.631V255.666H153.456C154.128 255.666 154.52 255.256 154.52 254.639C154.52 254.06 154.128 253.631 153.456 253.631H152.242Z" fill="#4D008C"/>
<path d="M163.932 255.891C163.932 257.963 162.252 259.532 160.179 259.532C158.106 259.532 156.444 257.945 156.444 255.891C156.444 253.818 158.106 252.249 160.179 252.249C162.252 252.249 163.932 253.818 163.932 255.891ZM157.919 255.891C157.919 257.254 158.871 258.206 160.179 258.206C161.467 258.206 162.438 257.254 162.438 255.891C162.438 254.527 161.467 253.575 160.179 253.575C158.871 253.556 157.919 254.527 157.919 255.891Z" fill="#4D008C"/>
<path d="M169.18 259.401L167.35 256.918H166.285V259.401H164.847V252.361H167.499C168.974 252.361 170.039 253.257 170.039 254.639C170.039 255.554 169.553 256.264 168.806 256.638L170.805 259.42H169.18V259.401ZM166.285 255.648H167.499C168.171 255.648 168.564 255.237 168.564 254.639C168.564 254.06 168.171 253.631 167.499 253.631H166.285V255.648Z" fill="#4D008C"/>
<path d="M176.575 252.361V259.401H175.137V254.06L173.811 254.49L173.475 253.22L176.108 252.361H176.575Z" fill="#4D008C"/>
<path d="M184.363 258.486H181.487L181.095 259.401H179.545L182.701 252.23H183.186L186.324 259.401H184.774L184.363 258.486ZM182.925 254.938L181.991 257.31H183.84L182.925 254.938Z" fill="#4D008C"/>
<path d="M192.972 252.361V259.532H192.486L188.415 255.181V259.401H186.977V252.23H187.444L191.534 256.544V252.342H192.972V252.361ZM187.874 251.558C187.855 251.446 187.836 251.315 187.836 251.203C187.836 250.325 188.396 249.765 189.069 249.765C189.312 249.765 189.592 249.84 189.853 249.989L190.189 250.176C190.357 250.269 190.507 250.363 190.656 250.363C190.862 250.363 190.955 250.195 190.955 250.008V249.877H192.057C192.075 249.989 192.075 250.12 192.075 250.232C192.075 251.128 191.515 251.67 190.843 251.67C190.581 251.67 190.32 251.577 190.04 251.427L189.722 251.259C189.554 251.166 189.405 251.072 189.237 251.072C189.05 251.072 188.957 251.24 188.957 251.427V251.558H187.874Z" fill="#4D008C"/>
<path d="M201.376 255.891C201.376 257.963 199.695 259.532 197.622 259.532C195.549 259.532 193.887 257.945 193.887 255.891C193.887 253.818 195.549 252.249 197.622 252.249C199.695 252.249 201.376 253.818 201.376 255.891ZM195.362 255.891C195.362 257.254 196.315 258.206 197.622 258.206C198.911 258.206 199.882 257.254 199.882 255.891C199.882 254.527 198.911 253.575 197.622 253.575C196.315 253.556 195.362 254.527 195.362 255.891Z" fill="#4D008C"/>
<path d="M29.9579 321.029C29.9579 322.243 29.0428 323.102 27.6796 323.102H26.2976V325.698H25.2145V318.975H27.6609C29.0428 318.975 29.9579 319.796 29.9579 321.029ZM26.2976 319.927V322.131H27.6422C28.4079 322.131 28.8374 321.664 28.8374 321.029C28.8374 320.375 28.4266 319.927 27.6422 319.927H26.2976Z" fill="#4D008C"/>
<path d="M35.0936 325.679L33.1887 323.083H31.9562V325.679H30.873V318.956H33.3195C34.6827 318.956 35.5978 319.796 35.5978 321.01C35.5978 321.888 35.1123 322.579 34.3092 322.896L36.3261 325.66H35.0936V325.679ZM31.9562 322.131H33.3008C34.0665 322.131 34.496 321.664 34.496 321.029C34.496 320.375 34.0665 319.927 33.3008 319.927H31.9562V322.131Z" fill="#4D008C"/>
<path d="M41.4244 319.927H38.0816V321.645H40.6027V322.579H38.0816V324.708H41.5364V325.679H36.9984V318.956H41.4057V319.927H41.4244Z" fill="#4D008C"/>
<path d="M48.3528 320.394L47.5311 320.992C47.0642 320.263 46.3732 319.834 45.4768 319.834C44.0949 319.834 43.0491 320.879 43.0491 322.317C43.0491 323.755 44.0949 324.801 45.4768 324.801C46.3732 324.801 47.0642 324.372 47.5311 323.643L48.3528 324.241C47.7925 325.175 46.7281 325.791 45.4768 325.791C43.516 325.791 41.9473 324.297 41.9473 322.317C41.9473 320.357 43.516 318.844 45.4768 318.844C46.7467 318.863 47.7925 319.46 48.3528 320.394Z" fill="#4D008C"/>
<path d="M50.4445 325.679H49.3613V318.956H50.4445V325.679Z" fill="#4D008C"/>
<path d="M58.4933 322.317C58.4933 324.297 56.906 325.791 54.9638 325.791C53.0029 325.791 51.4342 324.278 51.4342 322.317C51.4342 320.357 53.0029 318.844 54.9638 318.844C56.906 318.863 58.4933 320.357 58.4933 322.317ZM52.5547 322.317C52.5547 323.755 53.5632 324.82 54.9638 324.82C56.3457 324.82 57.3728 323.774 57.3728 322.317C57.3728 320.898 56.327 319.852 54.9638 319.852C53.5818 319.834 52.5547 320.898 52.5547 322.317Z" fill="#4D008C"/>
<path d="M67.6068 318.975V325.81H67.2333L63.1435 321.16V325.698H62.0603V318.863H62.4338L66.505 323.494V318.975H67.6068Z" fill="#4D008C"/>
<path d="M75.6557 322.317C75.6557 324.297 74.0683 325.791 72.1261 325.791C70.1653 325.791 68.5966 324.278 68.5966 322.317C68.5966 320.357 70.1653 318.844 72.1261 318.844C74.0683 318.863 75.6557 320.357 75.6557 322.317ZM69.7357 322.317C69.7357 323.755 70.7442 324.82 72.1448 324.82C73.5268 324.82 74.5539 323.774 74.5539 322.317C74.5539 320.898 73.5081 319.852 72.1448 319.852C70.7442 319.834 69.7357 320.898 69.7357 322.317Z" fill="#4D008C"/>
<path d="M80.8846 325.679L78.9798 323.083H77.7472V325.679H76.6641V318.956H79.1105C80.4738 318.956 81.3888 319.796 81.3888 321.01C81.3888 321.888 80.9033 322.579 80.1003 322.896L82.1172 325.66H80.8846V325.679ZM77.7472 322.131H79.0918C79.8575 322.131 80.287 321.664 80.287 321.029C80.287 320.375 79.8575 319.927 79.0918 319.927H77.7472V322.131Z" fill="#4D008C"/>
<path d="M89.1764 318.863V325.698H88.0932V321.477L86.1697 323.998H85.7962L83.854 321.477V325.698H82.8082V318.863H83.1817L86.0017 322.616L88.8216 318.863H89.1764Z" fill="#4D008C"/>
<path d="M94.6108 324.558H91.5854L91.0999 325.679H89.942L92.9113 318.844H93.2848L96.2542 325.679H95.0963L94.6108 324.558ZM93.1168 320.842L91.9963 323.625H94.2186L93.1168 320.842Z" fill="#4D008C"/>
<path d="M98.1216 324.708H101.203V325.679H97.0571V318.956H98.1403V324.708H98.1216Z" fill="#4D008C"/>
<path d="M106.413 325.436V326.65H105.424V325.436C104.583 325.287 103.967 324.783 103.556 324.054L104.303 323.513C104.583 323.98 104.957 324.316 105.424 324.465V322.579C104.602 322.261 103.967 321.757 103.967 320.898C103.967 320.058 104.583 319.479 105.424 319.292V318.078H106.413V319.273C107.142 319.404 107.627 319.834 107.963 320.394L107.235 320.935C106.992 320.581 106.731 320.357 106.413 320.245V321.907L106.6 321.981C107.552 322.355 108.113 322.878 108.113 323.718C108.113 324.67 107.403 325.287 106.413 325.436ZM105.424 321.477V320.282C105.199 320.375 105.031 320.562 105.031 320.861C105.031 321.16 105.181 321.346 105.424 321.477ZM107.048 323.737C107.048 323.363 106.787 323.158 106.413 322.971V324.465C106.787 324.353 107.048 324.11 107.048 323.737Z" fill="#4D008C"/>
<path d="M111.325 318.975V325.698H110.26V320.245L108.897 320.674L108.636 319.722L110.97 318.956H111.325V318.975Z" fill="#4D008C"/>
<path d="M117.095 323.531C117.095 324.913 115.956 325.81 114.649 325.81C113.51 325.81 112.707 325.156 112.296 324.353L113.043 323.83C113.417 324.39 113.883 324.82 114.612 324.82C115.415 324.82 115.994 324.316 115.994 323.55C115.994 322.803 115.452 322.373 114.444 322.373H113.697V322.075L115.265 319.964H112.744V318.975H116.927V319.273L115.303 321.458C116.218 321.608 117.095 322.317 117.095 323.531Z" fill="#4D008C"/>
<path d="M119.467 325.007C119.467 325.474 119.112 325.791 118.683 325.791C118.235 325.791 117.88 325.474 117.88 325.007C117.88 324.54 118.235 324.222 118.683 324.222C119.131 324.222 119.467 324.558 119.467 325.007Z" fill="#4D008C"/>
<path d="M124.771 321.178C124.771 322 124.379 322.56 123.837 323.307L122.175 325.679H120.886L122.511 323.382C122.418 323.401 122.324 323.419 122.212 323.419C121.054 323.419 120.009 322.467 120.009 321.178C120.009 319.852 121.092 318.863 122.399 318.863C123.688 318.863 124.771 319.834 124.771 321.178ZM123.706 321.178C123.706 320.413 123.127 319.852 122.399 319.852C121.652 319.852 121.073 320.431 121.073 321.178C121.073 321.944 121.652 322.504 122.399 322.504C123.127 322.504 123.706 321.925 123.706 321.178Z" fill="#4D008C"/>
<path d="M130.149 321.178C130.149 322 129.757 322.56 129.216 323.307L127.554 325.679H126.265L127.89 323.382C127.796 323.401 127.703 323.419 127.591 323.419C126.433 323.419 125.387 322.467 125.387 321.178C125.387 319.852 126.47 318.863 127.778 318.863C129.048 318.863 130.149 319.834 130.149 321.178ZM129.085 321.178C129.085 320.413 128.506 319.852 127.778 319.852C127.031 319.852 126.452 320.431 126.452 321.178C126.452 321.944 127.031 322.504 127.778 322.504C128.506 322.504 129.085 321.925 129.085 321.178Z" fill="#4D008C"/>
<path d="M136.051 322.261C136.051 324.185 135.266 325.791 133.492 325.791C131.718 325.791 130.934 324.185 130.934 322.261C130.934 320.319 131.755 318.844 133.492 318.844C135.229 318.844 136.051 320.319 136.051 322.261ZM132.054 322.28C132.054 323.793 132.465 324.82 133.492 324.82C134.519 324.82 134.93 323.793 134.93 322.28C134.93 320.786 134.519 319.852 133.492 319.852C132.446 319.834 132.054 320.786 132.054 322.28Z" fill="#4D008C"/>
<path d="M145.556 322.317C145.556 324.278 144.118 325.679 141.896 325.679H139.786V318.956H141.896C144.118 318.975 145.556 320.338 145.556 322.317ZM140.869 319.946V324.727H141.877C143.446 324.727 144.436 323.718 144.436 322.317C144.436 320.879 143.464 319.946 141.877 319.946H140.869Z" fill="#4D008C"/>
<path d="M150.953 319.927H147.61V321.645H150.131V322.579H147.61V324.708H151.065V325.679H146.527V318.956H150.935V319.927H150.953Z" fill="#4D008C"/>
<path d="M156.238 320.058L155.491 320.637C155.136 320.114 154.651 319.815 154.072 319.815C153.53 319.815 153.063 320.076 153.063 320.637C153.063 321.141 153.456 321.328 153.997 321.589L154.744 321.944C155.753 322.411 156.35 322.934 156.35 323.849C156.35 325.044 155.379 325.791 154.109 325.791C152.989 325.791 152.092 325.212 151.569 324.334L152.335 323.755C152.727 324.316 153.269 324.82 154.091 324.82C154.782 324.82 155.248 324.465 155.248 323.886C155.248 323.363 154.856 323.158 154.259 322.878L153.512 322.523C152.653 322.131 151.943 321.608 151.943 320.655C151.943 319.554 152.895 318.825 154.053 318.825C155.062 318.863 155.827 319.367 156.238 320.058Z" fill="#4D008C"/>
<path d="M162.177 321.029C162.177 322.243 161.262 323.102 159.899 323.102H158.517V325.698H157.433V318.975H159.88C161.262 318.975 162.177 319.796 162.177 321.029ZM158.535 319.927V322.131H159.88C160.646 322.131 161.075 321.664 161.075 321.029C161.075 320.375 160.664 319.927 159.88 319.927H158.535Z" fill="#4D008C"/>
<path d="M168.545 322.971C168.545 324.764 167.368 325.791 165.8 325.791C164.194 325.791 163.036 324.745 163.036 322.971V318.975H164.119V323.046C164.119 324.222 164.866 324.82 165.8 324.82C166.734 324.82 167.462 324.222 167.462 323.046V318.975H168.545V322.971Z" fill="#4D008C"/>
<path d="M174.297 319.927H170.954V321.645H173.475V322.579H170.954V324.708H174.409V325.679H169.871V318.956H174.278V319.927H174.297ZM173.755 316.622L172.448 318.321H171.664L172.467 316.435H173.755V316.622Z" fill="#4D008C"/>
<path d="M179.563 320.058L178.816 320.637C178.461 320.114 177.976 319.815 177.397 319.815C176.855 319.815 176.389 320.076 176.389 320.637C176.389 321.141 176.781 321.328 177.322 321.589L178.069 321.944C179.078 322.411 179.675 322.934 179.675 323.849C179.675 325.044 178.704 325.791 177.434 325.791C176.314 325.791 175.417 325.212 174.895 324.334L175.66 323.755C176.052 324.316 176.594 324.82 177.416 324.82C178.107 324.82 178.574 324.465 178.574 323.886C178.574 323.363 178.181 323.158 177.584 322.878L176.837 322.523C175.978 322.131 175.268 321.608 175.268 320.655C175.268 319.554 176.22 318.825 177.378 318.825C178.387 318.863 179.171 319.367 179.563 320.058Z" fill="#4D008C"/>
<path d="M189.106 322.317C189.106 324.278 187.668 325.679 185.446 325.679H183.336V318.956H185.446C187.668 318.975 189.106 320.338 189.106 322.317ZM184.419 319.946V324.727H185.427C186.996 324.727 187.986 323.718 187.986 322.317C187.986 320.879 187.015 319.946 185.427 319.946H184.419Z" fill="#4D008C"/>
<path d="M194.522 319.927H191.179V321.645H193.7V322.579H191.179V324.708H194.634V325.679H190.096V318.956H194.503V319.927H194.522Z" fill="#4D008C"/>
<path d="M196.688 324.708H199.77V325.679H195.605V318.956H196.688V324.708Z" fill="#4D008C"/>
<path d="M206.138 324.558H203.112L202.627 325.679H201.469L204.438 318.844H204.812L207.781 325.679H206.623L206.138 324.558ZM204.625 320.842L203.505 323.625H205.727L204.625 320.842Z" fill="#4D008C"/>
<path d="M214.093 318.975V325.81H213.72L209.63 321.16V325.698H208.547V318.863H208.92L213.01 323.494V318.975H214.093ZM209.499 318.116C209.481 318.022 209.481 317.929 209.481 317.817C209.481 317.107 209.91 316.622 210.508 316.622C210.751 316.622 211.012 316.696 211.236 316.846L211.572 317.051C211.74 317.144 211.852 317.238 212.02 317.238C212.207 317.238 212.301 317.088 212.301 316.883V316.734H213.16C213.178 316.827 213.178 316.92 213.178 317.032C213.178 317.742 212.749 318.228 212.17 318.228C211.908 318.228 211.666 318.134 211.404 317.985L211.087 317.798C210.919 317.705 210.788 317.611 210.638 317.611C210.452 317.611 210.358 317.779 210.358 317.985V318.116H209.499Z" fill="#4D008C"/>
<path d="M222.161 322.317C222.161 324.297 220.574 325.791 218.631 325.791C216.671 325.791 215.102 324.278 215.102 322.317C215.102 320.357 216.671 318.844 218.631 318.844C220.574 318.863 222.161 320.357 222.161 322.317ZM216.222 322.317C216.222 323.755 217.231 324.82 218.631 324.82C220.013 324.82 221.04 323.774 221.04 322.317C221.04 320.898 219.995 319.852 218.631 319.852C217.231 319.834 216.222 320.898 216.222 322.317Z" fill="#4D008C"/>
<defs>
<radialGradient id="paint0_radial" cx="0" cy="0" r="1" gradientUnits="userSpaceOnUse" gradientTransform="translate(50.235 194.646) scale(14.663)">
<stop stop-color="#F9D173"/>
<stop offset="0.2463" stop-color="#EC9F55"/>
<stop offset="0.3793" stop-color="#EA5C3C"/>
<stop offset="0.6995" stop-color="#BC3082"/>
<stop offset="0.9724" stop-color="#6068AB"/>
<stop offset="0.9852" stop-color="#5C6BAD"/>
</radialGradient>
</defs>
</svg>
