<?xml version="1.0" encoding="UTF-8"?>
<svg width="256px" height="303px" viewBox="0 0 256 303" version="1.1" xmlns="http://www.w3.org/2000/svg" xmlns:xlink="http://www.w3.org/1999/xlink">
    <!-- Generator: Sketch 64 (93537) - https://sketch.com -->
    <title>consumer-gratis-nuevo-plan</title>
    <desc>Created with Sketch.</desc>
    <defs>
        <radialGradient cx="29.0215566%" cy="99.807282%" fx="29.0215566%" fy="99.807282%" r="100.922293%" gradientTransform="translate(0.290216,0.998073),scale(0.999986,1.000000),translate(-0.290216,-0.998073)" id="radialGradient-1">
            <stop stop-color="#F9D173" offset="0%"></stop>
            <stop stop-color="#EC9F55" offset="24.63%"></stop>
            <stop stop-color="#EA5C3C" offset="37.93%"></stop>
            <stop stop-color="#BC3082" offset="69.95%"></stop>
            <stop stop-color="#6068AB" offset="97.24%"></stop>
            <stop stop-color="#5C6BAD" offset="98.52%"></stop>
        </radialGradient>
    </defs>
    <g id="Page-1" stroke="none" stroke-width="1" fill="none" fill-rule="evenodd">
        <g id="blindaje-copy" transform="translate(-129.000000, -35.000000)">
            <g id="consumer-gratis-nuevo-plan" transform="translate(129.000000, 35.000000)">
                <rect id="Rectangle" fill="#FFFFFF" x="0" y="0" width="256" height="303" rx="10"></rect>
                <path d="M19.166,72.312 C21.0033333,72.312 22.6673333,71.8786667 24.158,71.012 C25.6486667,70.128 26.7926667,68.9753333 27.59,67.554 L27.59,67.554 L27.59,62.146 L19.114,62.146 L19.114,65.994 L23.118,65.994 L23.118,66.8 C22.234,67.8226667 20.9773333,68.334 19.348,68.334 C17.84,68.334 16.6396667,67.8833333 15.747,66.982 C14.8543333,66.0806667 14.408,64.8933333 14.408,63.42 C14.408,61.964 14.8283333,60.8026667 15.669,59.936 C16.5096667,59.0693333 17.6493333,58.636 19.088,58.636 C20.856,58.636 22.3033333,59.4246667 23.43,61.002 L23.43,61.002 L26.55,58.35 C24.834,55.802 22.3726667,54.528 19.166,54.528 C16.5833333,54.4933333 14.3733333,55.3513333 12.536,57.102 C10.6986667,58.8526667 9.79733333,60.9586667 9.832,63.42 L9.83278639,63.7412155 C9.87747952,66.0814776 10.7785507,68.0847391 12.536,69.751 C14.3733333,71.493 16.5833333,72.3466667 19.166,72.312 Z M34.729074,72 L34.729074,66.67 L36.575074,66.67 L40.449074,72 L45.441074,72 L40.917074,65.63 C42.7197407,64.5206667 43.621074,62.8913333 43.621074,60.742 C43.621074,58.974 42.997074,57.5483333 41.749074,56.465 C40.501074,55.3816667 38.915074,54.84 36.991074,54.84 L36.991074,54.84 L30.257074,54.84 L30.257074,72 L34.729074,72 Z M37.017074,62.77 L34.729074,62.77 L34.729074,58.74 L37.017074,58.74 C37.641074,58.74 38.1394073,58.922 38.512074,59.286 C38.8847407,59.65 39.071074,60.1353333 39.071074,60.742 C39.071074,61.3486667 38.8847407,61.8383333 38.512074,62.211 C38.1394073,62.5836667 37.641074,62.77 37.017074,62.77 L37.017074,62.77 Z M50.474148,72 L51.098148,70.57 L57.260148,70.57 L57.884148,72 L62.694148,72 L54.894148,54.528 L53.464148,54.528 L45.664148,72 L50.474148,72 Z M55.674148,66.982 L52.684148,66.982 L54.192148,63.004 L55.674148,66.982 Z M70.795222,72 L70.795222,58.87 L75.943222,58.87 L75.943222,54.84 L61.175222,54.84 L61.175222,58.87 L66.323222,58.87 L66.323222,72 L70.795222,72 Z M82.510296,72 L82.510296,54.84 L78.038296,54.84 L78.038296,72 L82.510296,72 Z M91.78137,72.312 C93.60137,72.312 95.1050367,71.8266667 96.29237,70.856 C97.4797033,69.8853333 98.07337,68.5853333 98.07337,66.956 C98.07337,65.76 97.72237,64.759 97.02037,63.953 C96.31837,63.147 95.2047033,62.4233333 93.67937,61.782 L93.67937,61.782 L91.70337,60.95 C91.1487033,60.7246667 90.7630367,60.5123333 90.54637,60.313 C90.3297033,60.1136667 90.22137,59.858 90.22137,59.546 C90.22137,58.818 90.7327033,58.454 91.75537,58.454 C92.3447033,58.454 92.8560367,58.597 93.28937,58.883 C93.7227033,59.169 94.1560367,59.6326667 94.58937,60.274 L94.58937,60.274 L97.57937,57.986 C96.43537,55.6806667 94.4767033,54.528 91.70337,54.528 C89.93537,54.528 88.49237,54.996 87.37437,55.932 C86.25637,56.868 85.69737,58.09 85.69737,59.598 C85.69737,61.7646667 87.1447033,63.4893333 90.03937,64.772 L90.03937,64.772 L91.80737,65.552 C92.5180367,65.864 92.9860367,66.1153333 93.21137,66.306 C93.4367033,66.4966667 93.54937,66.774 93.54937,67.138 C93.54937,67.97 92.9600367,68.386 91.78137,68.386 C90.9667033,68.386 90.2647033,68.1996667 89.67537,67.827 C89.0860367,67.4543333 88.5140367,66.904 87.95937,66.176 L87.95937,66.176 L84.94337,68.464 C85.56737,69.66 86.4817033,70.6003333 87.68637,71.285 C88.8910367,71.9696667 90.2560367,72.312 91.78137,72.312 Z M112.611518,72 L112.611518,66.67 L114.873518,66.67 C116.762851,66.67 118.340185,66.1153333 119.605518,65.006 C120.870851,63.8966667 121.503518,62.4753333 121.503518,60.742 C121.503518,58.974 120.879518,57.5483333 119.631518,56.465 C118.383518,55.3816667 116.797518,54.84 114.873518,54.84 L114.873518,54.84 L108.139518,54.84 L108.139518,72 L112.611518,72 Z M114.899518,62.77 L112.611518,62.77 L112.611518,58.74 L114.899518,58.74 C115.523518,58.74 116.021851,58.922 116.394518,59.286 C116.767185,59.65 116.953518,60.1353333 116.953518,60.742 C116.953518,61.3486667 116.767185,61.8383333 116.394518,62.211 C116.021851,62.5836667 115.523518,62.77 114.899518,62.77 L114.899518,62.77 Z M132.727305,72.3111942 C135.098193,72.2668223 137.172956,71.4090909 138.951592,69.738 C140.814925,67.9873333 141.720592,65.8813333 141.668592,63.42 C141.720592,60.976 140.814925,58.87 138.951592,57.102 C137.088259,55.334 134.899925,54.476 132.386592,54.528 C129.873259,54.476 127.693592,55.334 125.847592,57.102 C124.001592,58.87 123.104592,60.976 123.156592,63.42 C123.104592,65.8813333 123.997259,67.9873333 125.834592,69.738 C127.671925,71.4886667 129.855925,72.3466667 132.386592,72.312 L132.727305,72.3111942 Z M132.412592,68.204 C131.025925,68.204 129.899259,67.7706667 129.032592,66.904 C128.165925,66.0026667 127.732592,64.8413333 127.732592,63.42 C127.732592,61.9986667 128.165925,60.846 129.032592,59.962 C129.899259,59.078 131.025925,58.636 132.412592,58.636 C133.747259,58.636 134.860925,59.0823333 135.753592,59.975 C136.646259,60.8676667 137.092592,62.016 137.092592,63.42 C137.092592,64.8413333 136.650592,65.994 135.766592,66.878 C134.882592,67.762 133.764592,68.204 132.412592,68.204 Z M148.807666,72 L148.807666,66.67 L150.653666,66.67 L154.527666,72 L159.519666,72 L154.995666,65.63 C156.798333,64.5206667 157.699666,62.8913333 157.699666,60.742 C157.699666,58.974 157.075666,57.5483333 155.827666,56.465 C154.579666,55.3816667 152.993666,54.84 151.069666,54.84 L151.069666,54.84 L144.335666,54.84 L144.335666,72 L148.807666,72 Z M151.095666,62.77 L148.807666,62.77 L148.807666,58.74 L151.095666,58.74 C151.719666,58.74 152.217999,58.922 152.590666,59.286 C152.963333,59.65 153.149666,60.1353333 153.149666,60.742 C153.149666,61.3486667 152.963333,61.8383333 152.590666,62.211 C152.217999,62.5836667 151.719666,62.77 151.095666,62.77 L151.095666,62.77 Z M175.799814,72 L175.799814,54.84 L174.369814,54.84 L167.349814,57.154 L168.415814,61.106 L171.327814,60.144 L171.327814,72 L175.799814,72 Z M188.959962,72 L189.583962,70.57 L195.745962,70.57 L196.369962,72 L201.179962,72 L193.379962,54.528 L191.949962,54.528 L184.149962,72 L188.959962,72 Z M194.159962,66.982 L191.169962,66.982 L192.677962,63.004 L194.159962,66.982 Z M212.921036,53.41 C213.874369,53.41 214.697703,53.0373333 215.391036,52.292 C216.084369,51.5466667 216.431036,50.5673333 216.431036,49.354 C216.431036,49.042 216.405036,48.7126667 216.353036,48.366 L216.353036,48.366 L213.025036,48.366 L213.025036,48.574 C213.025036,49.1113333 212.791036,49.38 212.323036,49.38 C212.063036,49.38 211.673036,49.25 211.153036,48.99 L211.153036,48.99 L210.425036,48.626 C209.697036,48.2793333 209.029703,48.106 208.423036,48.106 C207.469703,48.106 206.646369,48.4786667 205.953036,49.224 C205.259703,49.9693333 204.913036,50.9486667 204.913036,52.162 C204.913036,52.4913333 204.939036,52.8206667 204.991036,53.15 L204.991036,53.15 L208.319036,53.15 L208.319036,52.942 C208.319036,52.4046667 208.553036,52.136 209.021036,52.136 C209.281036,52.136 209.671036,52.266 210.191036,52.526 L210.191036,52.526 L210.919036,52.89 C211.647036,53.2366667 212.314369,53.41 212.921036,53.41 Z M218.277036,72.312 L218.277036,54.84 L213.805036,54.84 L213.805036,63.42 L204.497036,54.528 L203.067036,54.528 L203.067036,72 L207.539036,72 L207.539036,63.29 L216.847036,72.312 L218.277036,72.312 Z M230.514823,72.3111942 C232.885711,72.2668223 234.960474,71.4090909 236.73911,69.738 C238.602443,67.9873333 239.50811,65.8813333 239.45611,63.42 C239.50811,60.976 238.602443,58.87 236.73911,57.102 C234.875777,55.334 232.687443,54.476 230.17411,54.528 C227.660777,54.476 225.48111,55.334 223.63511,57.102 C221.78911,58.87 220.89211,60.976 220.94411,63.42 C220.89211,65.8813333 221.784777,67.9873333 223.62211,69.738 C225.459443,71.4886667 227.643443,72.3466667 230.17411,72.312 L230.514823,72.3111942 Z M230.20011,68.204 C228.813443,68.204 227.686777,67.7706667 226.82011,66.904 C225.953443,66.0026667 225.52011,64.8413333 225.52011,63.42 C225.52011,61.9986667 225.953443,60.846 226.82011,59.962 C227.686777,59.078 228.813443,58.636 230.20011,58.636 C231.534777,58.636 232.648443,59.0823333 233.54111,59.975 C234.433777,60.8676667 234.88011,62.016 234.88011,63.42 C234.88011,64.8413333 234.43811,65.994 233.55411,66.878 C232.67011,67.762 231.55211,68.204 230.20011,68.204 Z" id="GRATISPOR1AÑO" fill="#4D008C" fill-rule="nonzero"></path>
                <path id="Line-3" d="M70.1906571,91.3190816 L70.6809184,92.1906571 L70.2451306,92.4357878 L63.908,96 L239,96 L239,97 L63.908,97 L70.2451306,100.564212 L70.6809184,100.809343 L70.1906571,101.680918 L69.7548694,101.435788 L61.7548694,96.9357878 L60.9801356,96.5 L61.7548694,96.0642122 L69.7548694,91.5642122 L70.1906571,91.3190816 Z" fill="#FF2083" fill-rule="nonzero"></path>
                <path d="M13.44,101 L13.44,97.272 L15.248,97.272 C16.3573333,97.272 17.2693333,96.952 17.984,96.312 C18.6986667,95.672 19.056,94.8506667 19.056,93.848 C19.056,92.8346667 18.6986667,92.0133333 17.984,91.384 C17.2693333,90.7546667 16.3573333,90.44 15.248,90.44 L15.248,90.44 L11.28,90.44 L11.28,101 L13.44,101 Z M15.248,95.384 L13.44,95.384 L13.44,92.344 L15.248,92.344 C15.728,92.344 16.1146667,92.4826667 16.408,92.76 C16.7013333,93.0373333 16.848,93.4 16.848,93.848 C16.848,94.3066667 16.7066667,94.6773333 16.424,94.96 C16.1413333,95.2426667 15.7493333,95.384 15.248,95.384 L15.248,95.384 Z M27.568,101 L27.568,99.048 L22.944,99.048 L22.944,90.44 L20.784,90.44 L20.784,101 L27.568,101 Z M30.48,101 L31.072,99.624 L35.392,99.624 L35.984,101 L38.304,101 L33.6,90.248 L32.88,90.248 L28.16,101 L30.48,101 Z M34.64,97.848 L31.824,97.848 L33.232,94.28 L34.64,97.848 Z M48.736,101.192 L48.736,90.44 L46.576,90.44 L46.576,96.744 L40.448,90.248 L39.744,90.248 L39.744,101 L41.904,101 L41.904,94.664 L48.016,101.192 L48.736,101.192 Z" id="PLAN" fill="#4D008C" fill-rule="nonzero"></path>
                <path d="M239,244 C239,250.203117 239,259.507793 239,271.914027 C239,278.036641 234.522847,283 229,283 L18,283 C12.4771525,283 8,278.036641 8,271.914027 C8,259.655394 8,250.575328 8,244.673828" id="Shape" stroke="#FF0081"></path>
                <g id="PLAN-BASAL" transform="translate(6.000000, 112.000000)">
                    <g id="Group" transform="translate(10.000000, 56.000000)">
                        <g id="REDES-SOCIALES" transform="translate(-0.000000, 33.297010)" fill-rule="nonzero">
                            <path d="M97.513304,24.9788945 L207.1525,24.9788945 C209.895641,24.9788945 212.115867,22.7597487 212.115867,20.0155276 L212.115867,5.30693467 C212.115867,2.56271357 209.895641,0.343567839 207.1525,0.343567839 L97.513304,0.343567839 L97.513304,24.9788945 Z" id="Path" fill="#FF0081"></path>
                            <path d="M207.192475,25.3213819 L5.26609548,25.3213819 C2.36067839,25.3213819 0,22.9607035 0,20.0555025 L0,5.2658794 C0,2.36067839 2.36067839,1.5353436e-14 5.26609548,1.5353436e-14 L207.192475,1.5353436e-14 C210.097676,1.5353436e-14 212.458354,2.36067839 212.458354,5.2658794 L212.458354,20.0555025 C212.458354,22.9412563 210.097676,25.3213819 207.192475,25.3213819 Z M5.26609548,0.665527638 C2.74400503,0.665527638 0.685947236,2.72369347 0.685947236,5.24643216 L0.685947236,20.0349749 C0.685947236,22.5577136 2.74400503,24.6158794 5.26609548,24.6158794 L207.192475,24.6158794 C209.714133,24.6158794 211.772299,22.5577136 211.772299,20.0349749 L211.772299,5.24643216 C211.772299,2.72369347 209.714133,0.665527638 207.192475,0.665527638 L5.26609548,0.665527638 Z" id="Shape" fill="#FF0081"></path>
                            <g id="FACE" transform="translate(60.912957, 3.893769)">
                                <path d="M15.8990879,7.94959799 C15.8990879,12.3284673 12.3480226,15.899196 7.94948995,15.899196 C3.5711608,15.899196 -7.676718e-15,12.348995 -7.676718e-15,7.94959799 C-7.676718e-15,3.57180905 3.55106533,0 7.94948995,0 C12.3278191,0 15.8990879,3.57180905 15.8990879,7.94959799 Z" id="Path" fill="#0076F4"></path>
                                <path d="M9.7048191,4.37886935 L10.7135905,4.37886935 L10.7135905,2.68371859 C10.5320829,2.66427136 9.94693719,2.60268844 9.24078643,2.60268844 C7.76787437,2.60268844 6.77919849,3.49077889 6.77919849,5.1048995 L6.77919849,6.49753769 L5.12477889,6.49753769 L5.12477889,8.39364322 L6.77919849,8.39364322 L6.77919849,13.2565327 L8.75655025,13.2565327 L8.75655025,8.39364322 L10.4109698,8.39364322 L10.6530879,6.49753769 L8.75655025,6.49753769 L8.75655025,5.28640704 C8.75655025,4.76241206 8.89775879,4.37886935 9.7048191,4.37886935 Z" id="Path" fill="#FFFFFF"></path>
                            </g>
                            <g id="TW" transform="translate(79.091802, 3.893769)">
                                <path d="M15.8987638,7.94959799 C15.8987638,12.3284673 12.3485628,15.899196 7.94916583,15.899196 C3.57137688,15.899196 0,12.348995 0,7.94959799 C0,3.57180905 3.55084925,0 7.94916583,0 C12.3485628,0 15.8987638,3.57180905 15.8987638,7.94959799 Z" id="Path" fill="#00A8F2"></path>
                                <path d="M11.5814774,6.47701005 C11.5209749,9.58424623 9.5438392,11.7428894 6.5370804,11.8638945 C5.30650251,11.924397 4.41841206,11.521407 3.59190452,11.0568342 C4.47891457,11.1983668 5.64898995,10.8558794 6.25509548,10.3102764 C5.36700503,10.2497739 4.82248241,9.76575377 4.53941709,9.01919598 C4.82248241,9.07969849 5.0850201,9.01919598 5.28597487,9.01919598 C4.45946734,8.75665829 3.91386432,8.27263819 3.85336181,7.2030402 C4.05539698,7.34457286 4.33846231,7.40507538 4.5999196,7.40507538 C3.99489447,7.06258794 3.57137688,5.77042714 4.05539698,4.96336683 C4.94348744,5.9119598 6.03253266,6.7190201 7.80871357,6.86055276 C7.32469347,4.96336683 9.92738191,3.95535176 10.9559246,5.24643216 C11.4399447,5.18592965 11.7835126,4.98389447 12.126,4.84236181 C11.9844673,5.30693467 11.7230101,5.5889196 11.3794422,5.85145729 C11.7230101,5.79095477 12.0654975,5.70992462 12.3280352,5.5889196 C12.2675327,5.93248744 11.9239648,6.21447236 11.5814774,6.47701005 Z" id="Path" fill="#FFFFFF"></path>
                            </g>
                            <g id="SNAPCHAT" transform="translate(42.653191, 3.893769)">
                                <path d="M15.8990879,7.94959799 C15.8990879,12.3284673 12.3480226,15.899196 7.94948995,15.899196 C3.57126884,15.899196 0,12.348995 0,7.94959799 C0,3.57180905 3.55106533,0 7.94948995,0 C12.3480226,0 15.8990879,3.57180905 15.8990879,7.94959799 Z" id="Path" fill="#FDF700"></path>
                                <path d="M3.83348241,10.0282915 C4.1158995,9.98831658 4.37822111,9.88675879 4.6203392,9.72577889 C4.82215829,9.60477387 5.00366583,9.44271357 5.16507789,9.24175879 C5.44760302,8.91871859 5.58881156,8.59567839 5.60901508,8.55570352 L5.60901508,8.53517588 C5.68972111,8.39364322 5.68972111,8.27263819 5.64931407,8.1721608 C5.56860804,7.97012563 5.30639447,7.88909548 5.10457538,7.82859296 L5.06427638,7.80914573 C5.02386935,7.80914573 5.00366583,7.78861809 4.98357035,7.76809045 C4.84225377,7.70758794 4.76154774,7.66761307 4.70104523,7.60711055 C4.6203392,7.5260804 4.60013568,7.46557789 4.6203392,7.40507538 C4.64054271,7.34457286 4.68084171,7.28407035 4.76154774,7.24409548 C4.86245729,7.18359296 4.98357035,7.16306533 5.06427638,7.2030402 C5.32648995,7.32404523 5.52830905,7.3651005 5.66951759,7.28407035 C5.70992462,7.26354271 5.7300201,7.22356784 5.7300201,7.18359296 C5.7300201,7.12309045 5.70992462,7.06258794 5.70992462,6.98155779 L5.70992462,6.96103015 C5.66951759,6.3959799 5.62921859,5.69047739 5.81072613,5.28640704 C5.95204271,5.00442211 6.11345477,4.76241206 6.31516583,4.56037688 C6.49678141,4.39939698 6.67839698,4.25786432 6.92051508,4.17683417 C7.32404523,3.99532663 7.68716834,3.97479899 7.86878392,3.97479899 L8.03019598,3.97479899 C8.21181156,3.97479899 8.57493467,3.99532663 8.97846482,4.17683417 C9.2003794,4.27839196 9.40219849,4.39939698 9.58381407,4.56037688 C9.78552513,4.76241206 9.9671407,4.98389447 10.0881457,5.28640704 C10.2697613,5.69047739 10.2294623,6.3959799 10.1890553,6.94158291 L10.1890553,6.98155779 C10.1890553,7.02153266 10.1688518,7.06258794 10.1688518,7.10256281 L10.1688518,7.16306533 C10.1688518,7.2030402 10.1890553,7.24409548 10.2294623,7.26354271 C10.2697613,7.28407035 10.3302638,7.30459799 10.3908744,7.30459799 L10.4109698,7.30459799 C10.5320829,7.30459799 10.6530879,7.26354271 10.8145,7.2030402 C10.8751106,7.18359296 10.9154095,7.18359296 10.9558166,7.18359296 C11.0163191,7.18359296 11.0566181,7.2030402 11.1172286,7.22356784 C11.2382337,7.26354271 11.3189397,7.3651005 11.3189397,7.44505025 C11.3189397,7.48610553 11.2987362,7.5260804 11.2382337,7.58658291 C11.1777312,7.64708543 11.0768216,7.70758794 10.9356131,7.76809045 C10.9154095,7.78861809 10.8751106,7.78861809 10.854907,7.78861809 L10.8145,7.80914573 C10.6329925,7.86964824 10.3706709,7.94959799 10.2697613,8.15163317 C10.2294623,8.25211055 10.2294623,8.37419598 10.3101683,8.53517588 L10.3101683,8.55570352 C10.4109698,8.77718593 10.9558166,9.84678392 12.085701,10.0282915 C12.126,10.0488191 12.166407,10.0682663 12.166407,10.1287688 C12.166407,10.1492965 12.166407,10.1698241 12.166407,10.1698241 C12.126,10.2497739 12.0654975,10.3102764 11.9242889,10.3707789 C11.7426734,10.451809 11.4803518,10.5328392 11.1172286,10.5728141 C11.0768216,10.5933417 11.0566181,10.6127889 11.0365226,10.6333166 C11.0163191,10.6732915 10.9961156,10.733794 10.9759121,10.8353518 L10.9558166,10.8958543 C10.9356131,10.9358291 10.9356131,10.9963317 10.9154095,11.0373869 C10.895206,11.0978894 10.854907,11.1173367 10.7944045,11.1173367 C10.7539975,11.1173367 10.7136985,11.1173367 10.6127889,11.0978894 C10.4916759,11.0773618 10.3302638,11.0373869 10.1487563,11.0373869 C10.0276432,11.0373869 9.92673367,11.0373869 9.80572864,11.0773618 C9.58381407,11.1173367 9.36179146,11.2588693 9.13987688,11.400402 C8.83725628,11.6024372 8.51443216,11.8444472 8.00999246,11.8444472 L7.94948995,11.8444472 C7.92928643,11.8444472 7.92928643,11.8444472 7.92928643,11.8444472 C7.90908291,11.8444472 7.90908291,11.8444472 7.90908291,11.8444472 C7.40475126,11.8444472 7.08192714,11.6024372 6.75910302,11.400402 C6.55728392,11.2588693 6.35557286,11.1173367 6.11345477,11.0773618 C6.01254523,11.0568342 5.89143216,11.0373869 5.77042714,11.0373869 C5.56860804,11.0373869 5.4273995,11.0773618 5.30639447,11.0978894 L5.28619095,11.0978894 C5.22568844,11.1173367 5.16507789,11.1173367 5.10457538,11.1173367 C5.04407286,11.1173367 5.00366583,11.0978894 4.96336683,11.0373869 C4.9229598,10.9563568 4.90286432,10.9163819 4.8826608,10.8558794 L4.86245729,10.8148241 C4.84225377,10.733794 4.82215829,10.6538442 4.80195477,10.6127889 C4.78175126,10.5728141 4.76154774,10.5522864 4.72124874,10.5522864 C4.35801759,10.4917839 4.0756005,10.4118342 3.89398492,10.3513317 C3.7729799,10.2908291 3.69227387,10.2303266 3.65186683,10.1698241 C3.63166332,10.1492965 3.63166332,10.1287688 3.63166332,10.1287688 L3.63166332,10.088794 C3.7729799,10.0682663 3.79307538,10.0488191 3.83348241,10.0282915 Z" id="Path" stroke="#201712" stroke-width="0.222438" fill="#FFFFFF"></path>
                            </g>
                            <g id="WSP" transform="translate(4.701153, 3.894849)">
                                <path d="M3.838359e-15,15.8981156 L1.08958543,11.9233166 C0.383326633,10.6927387 3.838359e-15,9.32062814 3.838359e-15,7.88801508 C3.838359e-15,3.55020101 3.57126884,1.5353436e-14 7.92939447,1.5353436e-14 C12.2875201,1.5353436e-14 15.8990879,3.57072864 15.8990879,7.88801508 C15.8990879,12.2269095 12.2875201,15.8981156 7.92939447,15.8981156 C6.55739196,15.8981156 5.24589196,15.4551508 4.05550503,14.8090704 L3.838359e-15,15.8981156 Z" id="Path" fill="#FFFFFF"></path>
                                <path d="M4.2774196,13.3764573 L4.51953769,13.5179899 C5.52841709,14.1435427 6.71880402,14.526005 7.94959799,14.526005 C11.5409623,14.526005 14.5270854,11.5408543 14.5270854,7.88801508 C14.5270854,4.23625628 11.5409623,1.37103015 7.92939447,1.37103015 C4.31782663,1.37103015 1.37200251,4.27731156 1.37200251,7.88801508 C1.37200251,9.1391206 1.73523367,10.3902261 2.38088191,11.4187688 L2.54229397,11.6618593 L1.91674121,13.9620352 L4.2774196,13.3764573 Z" id="Path" fill="#00A655"></path>
                                <path d="M5.81083417,4.23625628 L5.28619095,4.21572864 C5.12477889,4.21572864 4.96336683,4.27731156 4.84236181,4.37778894 C4.60024372,4.59927136 4.17651005,5.00334171 4.0756005,5.54786432 C3.87388945,6.37545226 4.17651005,7.3640201 4.90286432,8.35258794 C5.60901508,9.34115578 6.98101759,10.9347487 9.40219849,11.620804 C10.1689598,11.8433668 10.774201,11.7018342 11.2584372,11.3993216 C11.6418719,11.1573116 11.8839899,10.7737688 11.964696,10.3502513 L12.045402,9.96670854 C12.0654975,9.86515075 12.0251985,9.72469849 11.9040854,9.66419598 L10.1689598,8.87658291 C10.0680503,8.8160804 9.92684171,8.85713568 9.84613568,8.95761307 L9.1600804,9.82517588 C9.09957789,9.88567839 9.01887186,9.90620603 8.93816583,9.88567839 C8.47413317,9.72469849 6.90031156,9.05809045 6.05295226,7.42452261 C6.03274874,7.34349246 6.03274874,7.26246231 6.07315578,7.2019598 L6.7388995,6.45540201 C6.79951005,6.37545226 6.81960553,6.25444724 6.79951005,6.17341709 L6.01254523,4.39831658 C5.99244975,4.31728643 5.91174372,4.23625628 5.81083417,4.23625628 Z" id="Path" fill="#FFFFFF"></path>
                            </g>
                            <g id="INSTA" transform="translate(24.030193, 3.995327)">
                                <path d="M7.84868844,15.6971608 C12.1833693,15.6971608 15.6973769,12.1826131 15.6973769,7.8480402 C15.6973769,3.51346734 12.1833693,0 7.84868844,0 C3.51400754,0 0,3.51346734 0,7.8480402 C0,12.1826131 3.51400754,15.6971608 7.84868844,15.6971608 Z" id="Path" fill="url(#radialGradient-1)"></path>
                                <path d="M9.86655528,3.36869347 L5.81105025,3.36869347 C4.43904774,3.36869347 3.30916332,4.47934673 3.30916332,5.83092965 L3.30916332,9.84570352 C3.30916332,11.2178141 4.43904774,12.3079397 5.81105025,12.3273869 L9.86655528,12.3273869 C11.2385578,12.3273869 12.3684422,11.2178141 12.3684422,9.86623116 L12.3684422,5.85145729 C12.3684422,4.47934673 11.2586533,3.36869347 9.86655528,3.36869347 Z M11.5613819,9.86623116 C11.5613819,10.7942965 10.7946206,11.5408543 9.86655528,11.5408543 L5.81105025,11.5408543 C4.88287688,11.5408543 4.11622362,10.7942965 4.11622362,9.86623116 L4.11622362,5.85145729 C4.11622362,4.92231156 4.88287688,4.17575377 5.81105025,4.17575377 L9.86655528,4.17575377 C10.7946206,4.17575377 11.5613819,4.92231156 11.5613819,5.85145729 L11.5613819,9.86623116 Z" id="Shape" fill="#FFFFFF"></path>
                                <path d="M7.84879648,5.54786432 C6.5575,5.54786432 5.50832161,6.57748744 5.50832161,7.8480402 C5.50832161,9.11967337 6.5575,10.1482161 7.84879648,10.1482161 C9.14009296,10.1482161 10.1892714,9.11967337 10.1892714,7.8480402 C10.1690678,6.57748744 9.14009296,5.54786432 7.84879648,5.54786432 Z M7.84879648,9.36168342 C7.00143719,9.36168342 6.31538191,8.67562814 6.31538191,7.8480402 C6.31538191,7.02153266 7.00143719,6.33547739 7.84879648,6.33547739 C8.69626382,6.33547739 9.38221106,7.02153266 9.38221106,7.8480402 C9.38221106,8.67562814 8.69626382,9.36168342 7.84879648,9.36168342 Z" id="Shape" fill="#FFFFFF"></path>
                                <path d="M10.2699774,4.86180905 C10.1085653,4.86180905 9.96735678,4.92231156 9.84624372,5.02386935 C9.74544221,5.12434673 9.66473618,5.28640704 9.66473618,5.4268593 C9.66473618,5.5889196 9.72523869,5.72937186 9.84624372,5.83092965 C9.94715327,5.93140704 10.1085653,5.99190955 10.2699774,5.99190955 C10.4313894,5.99190955 10.572598,5.93140704 10.6937111,5.83092965 C10.7946206,5.72937186 10.8753266,5.56839196 10.8753266,5.4268593 C10.8753266,5.2658794 10.8147161,5.12434673 10.6937111,5.02386935 C10.572598,4.92231156 10.4313894,4.86180905 10.2699774,4.86180905 Z" id="Path" fill="#FFFFFF"></path>
                            </g>
                            <g id="LIBRE-RED-4G" transform="translate(102.435616, 3.632312)" fill="#FFFFFF">
                                <polygon id="Path" points="76.2072362 1.10957286 72.7575126 1.10957286 72.7575126 2.88467337 75.360201 2.88467337 75.360201 3.85379397 72.7575126 3.85379397 72.7575126 6.05241206 76.3282412 6.05241206 76.3282412 7.06150754 71.6274121 7.06150754 71.6274121 0.121005025 76.1867085 0.121005025 76.1867085 1.10957286"></polygon>
                                <polygon id="Path" points="82.9057286 0.100477387 82.9057286 7.16198492 82.5221859 7.16198492 78.2848492 2.36067839 78.2848492 7.06150754 77.1752764 7.06150754 77.1752764 1.5353436e-14 77.5588191 1.5353436e-14 81.7756281 4.80130653 81.7756281 0.121005025 82.9057286 0.121005025"></polygon>
                                <path d="M76.005201,15.899196 L74.0280653,13.2154774 L72.7575126,13.2154774 L72.7575126,15.899196 L71.6468593,15.899196 L71.6468593,8.95761307 L74.1890452,8.95761307 C75.6022111,8.95761307 76.5497236,9.82517588 76.5497236,11.0762814 C76.5497236,11.9848995 76.0462563,12.7109296 75.2186683,13.0339698 L77.2962814,15.899196 L76.005201,15.899196 Z M72.7575126,12.2269095 L74.1490704,12.2269095 C74.935603,12.2269095 75.3796482,11.7623367 75.3796482,11.096809 C75.3796482,10.4312814 74.935603,9.9461809 74.1490704,9.9461809 L72.7575126,9.9461809 L72.7575126,12.2269095 Z" id="Shape"></path>
                                <polygon id="Path" points="82.4217085 9.96670854 78.9709045 9.96670854 78.9709045 11.7428894 81.573593 11.7428894 81.573593 12.7109296 78.9709045 12.7109296 78.9709045 14.9095477 82.5427136 14.9095477 82.5427136 15.9186432 77.8418844 15.9186432 77.8418844 8.9781407 82.4011809 8.9781407 82.4011809 9.96670854"></polygon>
                                <path d="M89.3416834,12.4278643 C89.3416834,14.4460553 87.8485678,15.9186432 85.5689196,15.9186432 L83.3897487,15.9186432 L83.3897487,8.9781407 L85.5689196,8.9781407 C87.8485678,8.95761307 89.3416834,10.3707789 89.3416834,12.4278643 Z M84.4993216,9.96670854 L84.4993216,14.9095477 L85.548392,14.9095477 C87.1830402,14.9095477 88.1921357,13.8604774 88.1921357,12.4278643 C88.1921357,10.9358291 87.1830402,9.96670854 85.548392,9.96670854 L84.4993216,9.96670854 Z" id="Shape"></path>
                                <polygon id="Path" points="97.9373618 14.6880653 96.9887688 14.6880653 96.9887688 15.899196 95.879196 15.899196 95.879196 14.6880653 92.4089447 14.6880653 92.4089447 14.3855528 94.6280905 8.95761307 95.7787186 8.95761307 93.8210302 13.7394724 95.879196 13.7394724 95.879196 11.6013568 96.9887688 11.6013568 96.9887688 13.7394724 97.9373618 13.7394724"></polygon>
                                <path d="M104.756859,10.2897487 L103.949799,10.9552764 C103.465779,10.2692211 102.779724,9.86623116 101.872186,9.86623116 C100.37907,9.86623116 99.3699749,10.9552764 99.3699749,12.4278643 C99.3699749,13.9209799 100.419045,15.0316332 101.932688,15.0316332 C102.860754,15.0316332 103.586784,14.6070352 104.010302,13.9814824 L104.010302,13.2349246 L101.872186,13.2349246 L101.872186,12.2463568 L105.119874,12.2463568 L105.119874,14.2040452 C104.514849,15.2930905 103.303719,16.0396482 101.872186,16.0396482 C99.8140201,16.0396482 98.2193467,14.4860302 98.2193467,12.448392 C98.2193467,10.4107538 99.8334673,8.85713568 101.872186,8.85713568 C103.102764,8.83660804 104.091332,9.38221106 104.756859,10.2897487 Z" id="Path"></path>
                                <polygon id="Path" points="2.52273869 13.7200251 9.70525126 13.7200251 9.70525126 15.9791457 0 15.9791457 0 0.281984925 2.52273869 0.281984925"></polygon>
                                <polygon id="Path" points="13.3775377 15.9791457 10.8558794 15.9791457 10.8558794 0.281984925 13.3775377 0.281984925"></polygon>
                                <path d="M28.0461558,11.4198492 C28.0461558,14.0625126 26.0484925,15.9791457 22.9617839,15.9791457 L17.4128392,15.9791457 L16.2222362,15.9791457 L16.2222362,0.281984925 L18.7039196,0.281984925 L21.7301256,0.281984925 C24.5759045,0.281984925 26.4320352,2.01711055 26.4320352,4.4588191 C26.4320352,5.66886935 25.9469347,6.69849246 25.0998995,7.40399497 C26.9365829,8.02954774 28.0461558,9.48268844 28.0461558,11.4198492 Z M18.7039196,2.50113065 L18.7039196,6.73846734 L21.4686683,6.73846734 C23.0622613,6.73846734 23.8898492,5.85037688 23.8898492,4.60035176 C23.8898492,3.34924623 23.0622613,2.50113065 21.4686683,2.50113065 L18.7039196,2.50113065 Z M25.5039698,11.3593467 C25.5039698,9.88567839 24.5348492,8.91763819 22.7392211,8.91763819 L18.7039196,8.91763819 L18.7039196,13.7999749 L22.7392211,13.7999749 C24.515402,13.7805276 25.5039698,12.8319347 25.5039698,11.3593467 Z" id="Shape"></path>
                                <path d="M39.7274623,15.9791457 L35.2686432,9.92673367 L32.3839698,9.92673367 L32.3839698,15.9791457 L29.8612312,15.9791457 L29.8612312,0.281984925 L35.5916834,0.281984925 C38.7799497,0.281984925 40.9180653,2.23967337 40.9180653,5.08437186 C40.9180653,7.14253769 39.7685176,8.77610553 37.8918593,9.50321608 L42.5926884,15.9596985 L39.7274623,15.9596985 L39.7274623,15.9791457 Z M32.3839698,7.6870603 L35.5517085,7.6870603 C37.326809,7.6870603 38.3359045,6.61746231 38.3359045,5.12434673 C38.3359045,3.61070352 37.3473367,2.54218593 35.5517085,2.54218593 L32.3839698,2.54218593 L32.3839698,7.6870603 Z" id="Shape"></path>
                                <polygon id="Path" points="53.9725628 2.56163317 46.1839447 2.56163317 46.1839447 6.57748744 52.0559296 6.57748744 52.0559296 8.75665829 46.1839447 8.75665829 46.1839447 13.7200251 54.2750754 13.7200251 54.2750754 15.9791457 43.6828141 15.9791457 43.6828141 0.281984925 53.9930905 0.281984925 53.9930905 2.56163317"></polygon>
                                <path d="M65.7964824,2.84469849 L64.0408291,4.19628141 C63.2337688,2.98623116 62.0831407,2.30017588 60.7315578,2.30017588 C59.4804523,2.30017588 58.3503518,2.92572864 58.3503518,4.19628141 C58.3503518,5.38688442 59.2589698,5.81040201 60.5295226,6.43595477 L62.2851759,7.24301508 C64.6663819,8.3320603 66.0384925,9.54319095 66.0384925,11.7018342 C66.0384925,14.4860302 63.7782915,16.2416834 60.7920603,16.2416834 C58.1688442,16.2416834 56.0707035,14.9095477 54.8801005,12.8524623 L56.6562814,11.499799 C57.5638191,12.811407 58.8149246,14.0020101 60.7715327,14.0020101 C62.3856533,14.0020101 63.4757789,13.1744221 63.4757789,11.8228392 C63.4757789,10.5922613 62.5477136,10.1082412 61.175603,9.4621608 L59.4404774,8.6551005 C57.4222864,7.72703518 55.7887186,6.51698492 55.7887186,4.29675879 C55.7887186,1.71459799 58.028392,0.0399748744 60.7315578,0.0399748744 C63.0317337,0.0399748744 64.8478894,1.23057789 65.7964824,2.84469849 Z" id="Path"></path>
                            </g>
                        </g>
                        <g id="promo_wsp_minutos" transform="translate(131.321872, 0.000000)">
                            <g id="minutos_libres" transform="translate(0.000000, 0.839733)">
                                <g id="Group-3" transform="translate(10.838932, 3.321608)" fill="#4F008C" fill-rule="nonzero">
                                    <path d="M47.8198569,13.9359272 L47.8198569,5.31683661 L51.7659466,10.488291 L52.5136268,10.488291 L56.4389475,5.3376055 L56.4389475,13.9359272 L58.6404502,13.9359272 L58.6404502,-1.50990331e-14 L57.89277,-1.50990331e-14 L52.1397867,7.66372152 L46.3868033,-1.50990331e-14 L45.6183543,-1.50990331e-14 L45.6183543,13.9359272 L47.8198569,13.9359272 Z M61.7973219,13.9359272 L61.7973219,0.228457823 L59.5958193,0.228457823 L59.5958193,13.9359272 L61.7973219,13.9359272 Z M74.0509688,14.164385 L74.0509688,0.228457823 L71.8494661,0.228457823 L71.8494661,9.47061521 L63.52114,-1.50990331e-14 L62.752691,-1.50990331e-14 L62.752691,13.9359272 L64.9541937,13.9359272 L64.9541937,4.65223203 L73.3032887,14.164385 L74.0509688,14.164385 Z" id="MIN"></path>
                                    <path d="M6.73000419,14.3974531 L6.73000419,0.730367662 L5.5910804,0.730367662 L-1.0658141e-14,2.57335342 L0.849015913,5.72092461 L3.16827889,4.95473952 L3.16827889,14.3974531 L6.73000419,14.3974531 Z M12.8266974,14.6459456 C14.6213652,14.6459456 16.015684,13.9763964 17.0096538,12.6372981 C18.0036237,11.2981999 18.5006086,9.57255778 18.5006086,7.46037185 C18.5006086,5.37579619 18.007075,3.6915695 17.0200077,2.40769178 C16.0329404,1.12381406 14.6351703,0.4818752 12.8266974,0.4818752 C11.0182245,0.4818752 9.62045436,1.12381406 8.63338708,2.40769178 C7.6463198,3.6915695 7.15278616,5.37579619 7.15278616,7.46037185 C7.15278616,9.57255778 7.64977108,11.2981999 8.64374093,12.6372981 C9.63771078,13.9763964 11.0320296,14.6459456 12.8266974,14.6459456 Z M12.8266974,11.3741281 C11.473794,11.3741281 10.7973423,10.0764453 10.7973423,7.48107955 C10.7973423,6.19720183 10.9630039,5.25500125 11.2943272,4.6544778 C11.6256505,4.05395435 12.1364405,3.75369262 12.8266974,3.75369262 C13.5169542,3.75369262 14.0277443,4.05395435 14.3590676,4.6544778 C14.6903908,5.25500125 14.8560525,6.19720183 14.8560525,7.48107955 C14.8560525,10.0764453 14.1796008,11.3741281 12.8266974,11.3741281 Z M23.9760706,14.6459456 C25.7707384,14.6459456 27.1650572,13.9763964 28.1590271,12.6372981 C29.1529969,11.2981999 29.6499819,9.57255778 29.6499819,7.46037185 C29.6499819,5.37579619 29.1564482,3.6915695 28.1693809,2.40769178 C27.1823137,1.12381406 25.7845436,0.4818752 23.9760706,0.4818752 C22.1675977,0.4818752 20.7698276,1.12381406 19.7827603,2.40769178 C18.7956931,3.6915695 18.3021594,5.37579619 18.3021594,7.46037185 C18.3021594,9.57255778 18.7991443,11.2981999 19.7931142,12.6372981 C20.787084,13.9763964 22.1814029,14.6459456 23.9760706,14.6459456 Z M23.9760706,11.3741281 C22.6231672,11.3741281 21.9467155,10.0764453 21.9467155,7.48107955 C21.9467155,6.19720183 22.1123772,5.25500125 22.4437005,4.6544778 C22.7750237,4.05395435 23.2858138,3.75369262 23.9760706,3.75369262 C24.6663275,3.75369262 25.1771175,4.05395435 25.5084408,4.6544778 C25.8397641,5.25500125 26.0054257,6.19720183 26.0054257,7.48107955 C26.0054257,10.0764453 25.328974,11.3741281 23.9760706,11.3741281 Z M35.1254439,14.6459456 C36.9201117,14.6459456 38.3144305,13.9763964 39.3084003,12.6372981 C40.3023702,11.2981999 40.7993551,9.57255778 40.7993551,7.46037185 C40.7993551,5.37579619 40.3058215,3.6915695 39.3187542,2.40769178 C38.3316869,1.12381406 36.9339168,0.4818752 35.1254439,0.4818752 C33.316971,0.4818752 31.9192009,1.12381406 30.9321336,2.40769178 C29.9450663,3.6915695 29.4515327,5.37579619 29.4515327,7.46037185 C29.4515327,9.57255778 29.9485176,11.2981999 30.9424874,12.6372981 C31.9364573,13.9763964 33.3307761,14.6459456 35.1254439,14.6459456 Z M35.1254439,11.3741281 C33.7725405,11.3741281 33.0960888,10.0764453 33.0960888,7.48107955 C33.0960888,6.19720183 33.2617504,5.25500125 33.5930737,4.6544778 C33.924397,4.05395435 34.4351871,3.75369262 35.1254439,3.75369262 C35.8157007,3.75369262 36.3264908,4.05395435 36.6578141,4.6544778 C36.9891374,5.25500125 37.154799,6.19720183 37.154799,7.48107955 C37.154799,10.0764453 36.4783473,11.3741281 35.1254439,11.3741281 Z" id="1000"></path>
                                </g>
                                <line x1="1.14086586" y1="0.675866357" x2="1.14086586" y2="21.9656566" id="Line-2" stroke="#4F008C" stroke-linecap="square"></line>
                            </g>
                        </g>
                    </g>
                    <g id="GIGAS" fill-rule="nonzero">
                        <path d="M14.74,36 L14.74,6.96 L12.32,6.96 L0.44,10.876 L2.244,17.564 L7.172,15.936 L7.172,36 L14.74,36 Z M29.3223333,36.528 C32.6076667,36.528 35.365,35.5526667 37.5943333,33.602 C39.8236667,31.6513333 40.9383333,29.1946667 40.9383333,26.232 C40.997,23.504 40.0216667,21.2453333 38.0123333,19.456 C36.003,17.6666667 33.737,16.8013333 31.2143333,16.86 C30.393,16.86 29.469,16.9626667 28.4423333,17.168 L28.4423333,17.168 L28.4423333,13.78 L39.2663333,13.78 L39.2663333,6.96 L21.2703333,6.96 L21.2703333,23.372 L28.1783333,23.372 C31.5223333,23.372 33.1943333,24.3546667 33.1943333,26.32 C33.1943333,27.3466667 32.813,28.146 32.0503333,28.718 C31.2876667,29.29 30.2756667,29.576 29.0143333,29.576 C27.8116667,29.576 26.7776667,29.29 25.9123333,28.718 C25.047,28.146 24.1743333,27.2 23.2943333,25.88 L23.2943333,25.88 L18.0583333,29.576 C19.0556667,31.7466667 20.5443333,33.448 22.5243333,34.68 C24.5043333,35.912 26.7703333,36.528 29.3223333,36.528 Z" id="15" fill="#4D008C"></path>
                        <path d="M81.74,36 L81.74,6.96 L79.32,6.96 L67.44,10.876 L69.244,17.564 L74.172,15.936 L74.172,36 L81.74,36 Z M96.3223333,36.528 C99.6076667,36.528 102.365,35.5526667 104.594333,33.602 C106.823667,31.6513333 107.938333,29.1946667 107.938333,26.232 C107.997,23.504 107.021667,21.2453333 105.012333,19.456 C103.003,17.6666667 100.737,16.8013333 98.2143333,16.86 C97.393,16.86 96.469,16.9626667 95.4423333,17.168 L95.4423333,17.168 L95.4423333,13.78 L106.266333,13.78 L106.266333,6.96 L88.2703333,6.96 L88.2703333,23.372 L95.1783333,23.372 C98.5223333,23.372 100.194333,24.3546667 100.194333,26.32 C100.194333,27.3466667 99.813,28.146 99.0503333,28.718 C98.2876667,29.29 97.2756667,29.576 96.0143333,29.576 C94.8116667,29.576 93.7776667,29.29 92.9123333,28.718 C92.047,28.146 91.1743333,27.2 90.2943333,25.88 L90.2943333,25.88 L85.0583333,29.576 C86.0556667,31.7466667 87.5443333,33.448 89.5243333,34.68 C91.5043333,35.912 93.7703333,36.528 96.3223333,36.528 Z" id="15" fill="#4D008C"></path>
                        <path d="M133.164421,37.5168361 L133.5895,37.516 C136.628167,37.516 139.380167,36.7993333 141.8455,35.366 C144.310833,33.904 146.202833,31.9976667 147.5215,29.647 L147.5215,29.647 L147.5215,20.703 L133.5035,20.703 L133.5035,27.067 L140.1255,27.067 L140.1255,28.4 C138.6635,30.0913333 136.585167,30.937 133.8905,30.937 C131.3965,30.937 129.411333,30.1916667 127.935,28.701 C126.458667,27.2103333 125.7205,25.2466667 125.7205,22.81 C125.7205,20.402 126.415667,18.4813333 127.806,17.048 C129.196333,15.6146667 131.081167,14.898 133.4605,14.898 C136.3845,14.898 138.778167,16.2023333 140.6415,18.811 L140.6415,18.811 L145.8015,14.425 C142.9635,10.211 138.892833,8.104 133.5895,8.104 C129.318167,8.04666667 125.663167,9.46566667 122.6245,12.361 C119.585833,15.2563333 118.095167,18.7393333 118.1525,22.81 C118.095167,26.9093333 119.585833,30.3995 122.6245,33.2805 C125.663167,36.1615 129.318167,37.5733333 133.5895,37.516 L133.164421,37.5168361 Z M156.802333,37 L156.802333,8.62 L149.406333,8.62 L149.406333,37 L156.802333,37 Z M173.699088,37.5168361 L174.124167,37.516 C177.162833,37.516 179.914833,36.7993333 182.380167,35.366 C184.8455,33.904 186.7375,31.9976667 188.056167,29.647 L188.056167,29.647 L188.056167,20.703 L174.038167,20.703 L174.038167,27.067 L180.660167,27.067 L180.660167,28.4 C179.198167,30.0913333 177.119833,30.937 174.425167,30.937 C171.931167,30.937 169.946,30.1916667 168.469667,28.701 C166.993333,27.2103333 166.255167,25.2466667 166.255167,22.81 C166.255167,20.402 166.950333,18.4813333 168.340667,17.048 C169.731,15.6146667 171.615833,14.898 173.995167,14.898 C176.919167,14.898 179.312833,16.2023333 181.176167,18.811 L181.176167,18.811 L186.336167,14.425 C183.498167,10.211 179.4275,8.104 174.124167,8.104 C169.852833,8.04666667 166.197833,9.46566667 163.159167,12.361 C160.1205,15.2563333 158.629833,18.7393333 158.687167,22.81 L158.686593,23.2179028 C158.730931,27.1413343 160.221789,30.4955333 163.159167,33.2805 C166.197833,36.1615 169.852833,37.5733333 174.124167,37.516 L173.699088,37.5168361 Z M194.714,37 L195.746,34.635 L205.937,34.635 L206.969,37 L214.924,37 L202.024,8.104 L199.659,8.104 L186.759,37 L194.714,37 Z M203.314,28.701 L198.369,28.701 L200.863,22.122 L203.314,28.701 Z M224.763833,37.516 C227.773833,37.516 230.260667,36.7133333 232.224333,35.108 C234.188,33.5026667 235.169833,31.3526667 235.169833,28.658 C235.169833,26.68 234.589333,25.0245 233.428333,23.6915 C232.267333,22.3585 230.4255,21.1616667 227.902833,20.101 L227.902833,20.101 L224.634833,18.725 C223.7175,18.3523333 223.079667,18.0011667 222.721333,17.6715 C222.363,17.3418333 222.183833,16.919 222.183833,16.403 C222.183833,15.199 223.0295,14.597 224.720833,14.597 C225.6955,14.597 226.541167,14.8335 227.257833,15.3065 C227.9745,15.7795 228.691167,16.5463333 229.407833,17.607 L229.407833,17.607 L234.352833,13.823 C232.460833,10.0103333 229.2215,8.104 224.634833,8.104 C221.710833,8.104 219.324333,8.878 217.475333,10.426 C215.626333,11.974 214.701833,13.995 214.701833,16.489 C214.701833,20.0723333 217.0955,22.9246667 221.882833,25.046 L221.882833,25.046 L224.806833,26.336 C225.982167,26.852 226.756167,27.2676667 227.128833,27.583 C227.5015,27.8983333 227.687833,28.357 227.687833,28.959 C227.687833,30.335 226.713167,31.023 224.763833,31.023 C223.4165,31.023 222.2555,30.7148333 221.280833,30.0985 C220.306167,29.4821667 219.360167,28.572 218.442833,27.368 L218.442833,27.368 L213.454833,31.152 C214.486833,33.13 215.999,34.6851667 217.991333,35.8175 C219.983667,36.9498333 222.241167,37.516 224.763833,37.516 Z" fill="#4D008C"></path>
                        <polygon id="+" fill="#FF0081" points="58.375 28.8 58.375 22.92 64.045 22.92 64.045 17.88 58.375 17.88 58.375 12 52.705 12 52.705 17.88 47 17.88 47 22.92 52.705 22.92 52.705 28.8"></polygon>
                    </g>
                    <path d="M7.549,74 L7.549,68.204 L10.783,68.204 C12.113,68.204 13.184,67.826 13.996,67.07 C14.808,66.314 15.214,65.341 15.214,64.151 C15.214,62.975 14.808,62.0125 13.996,61.2635 C13.184,60.5145 12.113,60.14 10.783,60.14 L10.783,60.14 L5.911,60.14 L5.911,74 L7.549,74 Z M10.741,66.734 L7.549,66.734 L7.549,61.61 L10.741,61.61 C11.609,61.61 12.288,61.8445 12.778,62.3135 C13.268,62.7825 13.513,63.402 13.513,64.172 C13.513,64.956 13.268,65.579 12.778,66.041 C12.288,66.503 11.609,66.734 10.741,66.734 L10.741,66.734 Z M23.9157078,74.2315235 L24.223,74.231 C26.183,74.259 27.884,73.566 29.326,72.152 C30.768,70.738 31.468,69.044 31.426,67.07 L31.4264654,66.7606427 C31.3922604,64.9184598 30.6921053,63.3275789 29.326,61.988 C27.884,60.574 26.183,59.881 24.223,59.909 C22.249,59.881 20.548,60.574 19.12,61.988 C17.692,63.402 16.999,65.096 17.041,67.07 C16.999,69.03 17.6955,70.724 19.1305,72.152 C20.5655,73.58 22.263,74.273 24.223,74.231 L23.9157078,74.2315235 Z M24.244,72.719 C22.676,72.719 21.367,72.1765 20.317,71.0915 C19.267,70.0065 18.742,68.659 18.742,67.049 C18.742,65.439 19.267,64.0985 20.317,63.0275 C21.367,61.9565 22.676,61.421 24.244,61.421 C25.77,61.393 27.072,61.932 28.15,63.038 C29.228,64.144 29.753,65.481 29.725,67.049 C29.753,68.631 29.228,69.9785 28.15,71.0915 C27.072,72.2045 25.77,72.747 24.244,72.719 Z M35.983,74 L35.983,68.183 L38.944,68.183 L43.249,74 L45.16,74 L40.729,67.994 C41.639,67.728 42.353,67.2555 42.871,66.5765 C43.389,65.8975 43.648,65.089 43.648,64.151 C43.648,62.975 43.242,62.0125 42.43,61.2635 C41.618,60.5145 40.547,60.14 39.217,60.14 L39.217,60.14 L34.345,60.14 L34.345,74 L35.983,74 Z M39.154,66.713 L35.983,66.713 L35.983,61.61 L39.154,61.61 C40.022,61.61 40.7045,61.8445 41.2015,62.3135 C41.6985,62.7825 41.947,63.402 41.947,64.172 C41.947,64.956 41.702,65.5755 41.212,66.0305 C40.722,66.4855 40.036,66.713 39.154,66.713 L39.154,66.713 Z M57.277,74.252 C58.663,74.252 59.86,73.776 60.868,72.824 C61.876,71.872 62.38,70.696 62.38,69.296 C62.408,67.994 61.946,66.8775 60.994,65.9465 C60.042,65.0155 58.971,64.564 57.781,64.592 L57.781,64.592 L57.697,64.592 L60.889,60.14 L57.55,60.14 L54.085,64.928 C53.203,66.146 52.65,67.091 52.426,67.763 C52.272,68.253 52.195,68.757 52.195,69.275 C52.167,70.661 52.6675,71.844 53.6965,72.824 C54.7255,73.804 55.919,74.28 57.277,74.252 Z M57.277,71.648 C56.633,71.648 56.0905,71.4205 55.6495,70.9655 C55.2085,70.5105 54.988,69.954 54.988,69.296 C54.988,68.638 55.2085,68.085 55.6495,67.637 C56.0905,67.189 56.633,66.965 57.277,66.965 C57.921,66.965 58.4635,67.1855 58.9045,67.6265 C59.3455,68.0675 59.566,68.624 59.566,69.296 C59.566,69.968 59.342,70.528 58.894,70.976 C58.46,71.424 57.921,71.648 57.277,71.648 Z M73.489,74 L73.489,66.608 L76.975,70.976 L77.899,70.976 L81.385,66.608 L81.385,74 L84.22,74 L84.22,59.888 L83.296,59.888 L77.437,67.385 L71.578,59.888 L70.654,59.888 L70.654,74 L73.489,74 Z M96.988,74 L96.988,71.438 L90.247,71.438 L90.247,67.931 L95.014,67.931 L95.014,65.516 L90.247,65.516 L90.247,62.702 L96.736,62.702 L96.736,60.14 L87.412,60.14 L87.412,74 L96.988,74 Z M103.834,74.252 C105.248,74.252 106.41,73.8705 107.32,73.1075 C108.23,72.3445 108.685,71.34 108.685,70.094 C108.685,69.17 108.412,68.3965 107.866,67.7735 C107.32,67.1505 106.452,66.573 105.262,66.041 L105.262,66.041 L103.687,65.348 C103.071,65.068 102.6475,64.8195 102.4165,64.6025 C102.1855,64.3855 102.07,64.102 102.07,63.752 C102.07,63.332 102.231,63.003 102.553,62.765 C102.875,62.527 103.288,62.408 103.792,62.408 C104.842,62.408 105.724,62.94 106.438,64.004 L106.438,64.004 L108.37,62.513 C107.922,61.701 107.306,61.0605 106.522,60.5915 C105.738,60.1225 104.828,59.888 103.792,59.888 C102.462,59.888 101.363,60.2485 100.495,60.9695 C99.627,61.6905 99.193,62.639 99.193,63.815 C99.193,65.481 100.313,66.811 102.553,67.805 L102.553,67.805 L104.044,68.477 C104.744,68.799 105.213,69.0685 105.451,69.2855 C105.689,69.5025 105.808,69.807 105.808,70.199 C105.808,70.675 105.633,71.0495 105.283,71.3225 C104.933,71.5955 104.45,71.732 103.834,71.732 C102.546,71.732 101.412,71.06 100.432,69.716 L100.432,69.716 L98.479,71.186 C99.025,72.138 99.7635,72.887 100.6945,73.433 C101.6255,73.979 102.672,74.252 103.834,74.252 Z M120.76,74 L120.76,71.438 L114.019,71.438 L114.019,67.931 L118.786,67.931 L118.786,65.516 L114.019,65.516 L114.019,62.702 L120.508,62.702 L120.508,60.14 L111.184,60.14 L111.184,74 L120.76,74 Z M127.606,74.252 C129.02,74.252 130.182,73.8705 131.092,73.1075 C132.002,72.3445 132.457,71.34 132.457,70.094 C132.457,69.17 132.184,68.3965 131.638,67.7735 C131.092,67.1505 130.224,66.573 129.034,66.041 L129.034,66.041 L127.459,65.348 C126.843,65.068 126.4195,64.8195 126.1885,64.6025 C125.9575,64.3855 125.842,64.102 125.842,63.752 C125.842,63.332 126.003,63.003 126.325,62.765 C126.647,62.527 127.06,62.408 127.564,62.408 C128.614,62.408 129.496,62.94 130.21,64.004 L130.21,64.004 L132.142,62.513 C131.694,61.701 131.078,61.0605 130.294,60.5915 C129.51,60.1225 128.6,59.888 127.564,59.888 C126.234,59.888 125.135,60.2485 124.267,60.9695 C123.399,61.6905 122.965,62.639 122.965,63.815 C122.965,65.481 124.085,66.811 126.325,67.805 L126.325,67.805 L127.816,68.477 C128.516,68.799 128.985,69.0685 129.223,69.2855 C129.461,69.5025 129.58,69.807 129.58,70.199 C129.58,70.675 129.405,71.0495 129.055,71.3225 C128.705,71.5955 128.222,71.732 127.606,71.732 C126.318,71.732 125.184,71.06 124.204,69.716 L124.204,69.716 L122.251,71.186 C122.797,72.138 123.5355,72.887 124.4665,73.433 C125.3975,73.979 126.444,74.252 127.606,74.252 Z" id="POR6MESES" fill="#4F008C" fill-rule="nonzero"></path>
                </g>
                <g id="precio" transform="translate(48.000000, 243.000000)" fill="#4D008C" fill-rule="nonzero">
                    <path d="M3.024,13 L3.024,8.92 L5.184,8.92 C6.24,8.92 7.10133333,8.616 7.768,8.008 C8.43466667,7.4 8.768,6.62133333 8.768,5.672 C8.768,4.72266667 8.43733333,3.94666667 7.776,3.344 C7.11466667,2.74133333 6.25066667,2.44 5.184,2.44 L5.184,2.44 L1.328,2.44 L1.328,13 L3.024,13 Z M5.152,7.416 L3.024,7.416 L3.024,3.944 L5.152,3.944 C5.73866667,3.944 6.19733333,4.10133333 6.528,4.416 C6.85866667,4.73066667 7.024,5.15466667 7.024,5.688 C7.024,6.22133333 6.85866667,6.64266667 6.528,6.952 C6.19733333,7.26133333 5.73866667,7.416 5.152,7.416 L5.152,7.416 Z M11.568,13 L11.568,8.808 C11.568,8.12533333 11.7813333,7.592 12.208,7.208 C12.6346667,6.824 13.1893333,6.632 13.872,6.632 L13.872,6.632 L14.384,6.632 L14.384,5.144 C14.1706667,5.09066667 13.9573333,5.064 13.744,5.064 C12.8053333,5.064 12.0426667,5.432 11.456,6.168 L11.456,6.168 L11.456,5.144 L9.888,5.144 L9.888,13 L11.568,13 Z M18.816,13.176 C20.0213333,13.176 21.0666667,12.7546667 21.952,11.912 L21.952,11.912 L21.152,10.76 C20.4586667,11.3786667 19.696,11.688 18.864,11.688 C18.192,11.688 17.624,11.504 17.16,11.136 C16.696,10.768 16.4106667,10.264 16.304,9.624 L16.304,9.624 L22.16,9.624 C22.2453333,9.22933333 22.288,8.87733333 22.288,8.568 C22.288,7.544 21.9413333,6.688 21.248,6 C20.5546667,5.312 19.6906667,4.968 18.656,4.968 C17.5466667,4.94666667 16.5866667,5.344 15.776,6.16 C14.9653333,6.976 14.5706667,7.94933333 14.592,9.08 C14.592,10.2426667 14.9973333,11.216 15.808,12 C16.6186667,12.784 17.6213333,13.176 18.816,13.176 Z M20.608,8.312 L16.336,8.312 C16.464,7.72533333 16.7333333,7.25866667 17.144,6.912 C17.5546667,6.56533333 18.0373333,6.392 18.592,6.392 C19.1573333,6.392 19.632,6.56533333 20.016,6.912 C20.4,7.25866667 20.5973333,7.72533333 20.608,8.312 L20.608,8.312 Z M27.232,13.176 C27.936,13.176 28.576,13.016 29.152,12.696 C29.728,12.376 30.192,11.928 30.544,11.352 L30.544,11.352 L29.36,10.44 C28.784,11.2293333 28.08,11.624 27.248,11.624 C26.544,11.624 25.9573333,11.3786667 25.488,10.888 C25.0186667,10.3973333 24.784,9.78933333 24.784,9.064 C24.784,8.34933333 25.0186667,7.74666667 25.488,7.256 C25.9573333,6.76533333 26.544,6.52 27.248,6.52 C28.1013333,6.52 28.8053333,6.92 29.36,7.72 L29.36,7.72 L30.544,6.792 C29.808,5.576 28.704,4.968 27.232,4.968 C26.1013333,4.94666667 25.12,5.344 24.288,6.16 C23.456,6.976 23.0506667,7.944 23.072,9.064 C23.072,10.2053333 23.4746667,11.176 24.28,11.976 C25.0853333,12.776 26.0693333,13.176 27.232,13.176 Z M32.608,3.32 C32.9173333,3.32 33.184,3.21333333 33.408,3 C33.632,2.78666667 33.744,2.52533333 33.744,2.216 C33.744,1.90666667 33.632,1.64266667 33.408,1.424 C33.184,1.20533333 32.9173333,1.096 32.608,1.096 C32.288,1.096 32.016,1.20533333 31.792,1.424 C31.568,1.64266667 31.456,1.90666667 31.456,2.216 C31.456,2.52533333 31.568,2.78666667 31.792,3 C32.016,3.21333333 32.288,3.32 32.608,3.32 Z M33.44,13 L33.44,5.144 L31.76,5.144 L31.76,13 L33.44,13 Z M38.88,13.176 C40.0213333,13.1973333 41.008,12.7973333 41.84,11.976 C42.672,11.1546667 43.0773333,10.184 43.056,9.064 C43.0773333,7.95466667 42.672,6.98933333 41.84,6.168 C41.008,5.34666667 40.0213333,4.94666667 38.88,4.968 C37.7493333,4.94666667 36.7706667,5.344 35.944,6.16 C35.1173333,6.976 34.7146667,7.944 34.736,9.064 C34.7146667,10.1733333 35.1173333,11.1413333 35.944,11.968 C36.7706667,12.7946667 37.7493333,13.1973333 38.88,13.176 Z M38.88,11.624 C38.1866667,11.624 37.608,11.3813333 37.144,10.896 C36.68,10.4106667 36.448,9.80533333 36.448,9.08 C36.448,8.35466667 36.6826667,7.744 37.152,7.248 C37.6213333,6.752 38.2026667,6.504 38.896,6.504 C39.5786667,6.504 40.1546667,6.752 40.624,7.248 C41.0933333,7.744 41.328,8.35466667 41.328,9.08 C41.328,9.79466667 41.0933333,10.3973333 40.624,10.888 C40.1546667,11.3786667 39.5733333,11.624 38.88,11.624 Z M51.52,13.176 C52.7466667,13.176 53.664,12.744 54.272,11.88 L54.272,11.88 L54.272,13 L55.84,13 L55.84,1 L54.144,1 L54.144,6.104 C53.5253333,5.34666667 52.6506667,4.968 51.52,4.968 C50.432,4.94666667 49.5146667,5.33866667 48.768,6.144 C48.0213333,6.94933333 47.6586667,7.928 47.68,9.08 C47.68,10.2426667 48.0453333,11.216 48.776,12 C49.5066667,12.784 50.4213333,13.176 51.52,13.176 Z M51.808,11.64 C51.1146667,11.64 50.5386667,11.3973333 50.08,10.912 C49.6213333,10.4266667 49.392,9.81066667 49.392,9.064 C49.392,8.31733333 49.624,7.704 50.088,7.224 C50.552,6.744 51.1253333,6.504 51.808,6.504 C52.4586667,6.504 53.016,6.73066667 53.48,7.184 C53.944,7.63733333 54.176,8.26933333 54.176,9.08 C54.176,9.89066667 53.9466667,10.52 53.488,10.968 C53.0293333,11.416 52.4693333,11.64 51.808,11.64 Z M61.36,13.176 C62.5653333,13.176 63.6106667,12.7546667 64.496,11.912 L64.496,11.912 L63.696,10.76 C63.0026667,11.3786667 62.24,11.688 61.408,11.688 C60.736,11.688 60.168,11.504 59.704,11.136 C59.24,10.768 58.9546667,10.264 58.848,9.624 L58.848,9.624 L64.704,9.624 C64.7893333,9.22933333 64.832,8.87733333 64.832,8.568 C64.832,7.544 64.4853333,6.688 63.792,6 C63.0986667,5.312 62.2346667,4.968 61.2,4.968 C60.0906667,4.94666667 59.1306667,5.344 58.32,6.16 C57.5093333,6.976 57.1146667,7.94933333 57.136,9.08 C57.136,10.2426667 57.5413333,11.216 58.352,12 C59.1626667,12.784 60.1653333,13.176 61.36,13.176 Z M63.152,8.312 L58.88,8.312 C59.008,7.72533333 59.2773333,7.25866667 59.688,6.912 C60.0986667,6.56533333 60.5813333,6.392 61.136,6.392 C61.7013333,6.392 62.176,6.56533333 62.56,6.912 C62.944,7.25866667 63.1413333,7.72533333 63.152,8.312 L63.152,8.312 Z M67.792,13 L67.792,1 L66.112,1 L66.112,13 L67.792,13 Z M75.104,15.88 L75.104,12.04 C75.7653333,12.7973333 76.64,13.176 77.728,13.176 C78.8373333,13.176 79.7573333,12.784 80.488,12 C81.2186667,11.216 81.584,10.2373333 81.584,9.064 C81.584,7.90133333 81.2186667,6.928 80.488,6.144 C79.7573333,5.36 78.8373333,4.968 77.728,4.968 C76.5013333,4.968 75.5893333,5.39466667 74.992,6.248 L74.992,6.248 L74.992,5.144 L73.424,5.144 L73.424,15.88 L75.104,15.88 Z M77.456,11.64 C76.7946667,11.64 76.2346667,11.416 75.776,10.968 C75.3173333,10.52 75.088,9.88533333 75.088,9.064 C75.088,8.25333333 75.3173333,7.624 75.776,7.176 C76.2346667,6.728 76.7946667,6.504 77.456,6.504 C78.1386667,6.504 78.7093333,6.74666667 79.168,7.232 C79.6266667,7.71733333 79.856,8.33333333 79.856,9.08 C79.856,9.82666667 79.6266667,10.44 79.168,10.92 C78.7093333,11.4 78.1386667,11.64 77.456,11.64 Z M84.56,13 L84.56,1 L82.88,1 L82.88,13 L84.56,13 Z M88.512,13.176 C89.6,13.176 90.4373333,12.824 91.024,12.12 L91.024,12.12 L91.024,13 L92.592,13 L92.592,8.248 C92.592,7.21333333 92.3013333,6.408 91.72,5.832 C91.1386667,5.256 90.3573333,4.968 89.376,4.968 C87.936,4.968 86.832,5.528 86.064,6.648 L86.064,6.648 L87.04,7.64 C87.6906667,6.86133333 88.416,6.472 89.216,6.472 C89.7493333,6.472 90.1626667,6.616 90.456,6.904 C90.7493333,7.192 90.896,7.608 90.896,8.152 L90.896,8.152 L90.896,8.664 L88.672,8.664 C87.7866667,8.664 87.0826667,8.86666667 86.56,9.272 C86.0373333,9.67733333 85.776,10.2213333 85.776,10.904 C85.776,11.5866667 86.0266667,12.136 86.528,12.552 C87.0293333,12.968 87.6906667,13.176 88.512,13.176 Z M88.864,11.88 C88.448,11.88 88.1146667,11.7866667 87.864,11.6 C87.6133333,11.4133333 87.488,11.16 87.488,10.84 C87.488,10.2 87.952,9.88 88.88,9.88 L88.88,9.88 L90.896,9.88 L90.896,10.024 C90.896,10.5573333 90.7013333,11 90.312,11.352 C89.9226667,11.704 89.44,11.88 88.864,11.88 Z M95.968,13 L95.968,8.312 C95.968,7.77866667 96.136,7.34133333 96.472,7 C96.808,6.65866667 97.2373333,6.488 97.76,6.488 C98.272,6.488 98.6853333,6.656 99,6.992 C99.3146667,7.328 99.472,7.768 99.472,8.312 L99.472,8.312 L99.472,13 L101.152,13 L101.152,8.088 C101.152,7.13866667 100.888,6.38133333 100.36,5.816 C99.832,5.25066667 99.1146667,4.968 98.208,4.968 C97.2373333,4.968 96.4533333,5.28266667 95.856,5.912 L95.856,5.912 L95.856,5.144 L94.288,5.144 L94.288,13 L95.968,13 Z M110.528,14.52 L110.528,12.616 C111.338667,12.4986667 111.986667,12.2 112.472,11.72 C112.957333,11.24 113.2,10.6373333 113.2,9.912 C113.2,8.696 112.405333,7.784 110.816,7.176 L110.816,7.176 L109.632,6.728 C109.162667,6.52533333 108.832,6.33066667 108.64,6.144 C108.448,5.95733333 108.352,5.71466667 108.352,5.416 C108.352,5.07466667 108.490667,4.81066667 108.768,4.624 C109.045333,4.43733333 109.397333,4.344 109.824,4.344 C110.602667,4.344 111.264,4.73866667 111.808,5.528 L111.808,5.528 L112.96,4.664 C112.405333,3.672 111.594667,3.08 110.528,2.888 L110.528,2.888 L110.528,1.016 L108.976,1.016 L108.976,2.92 C108.282667,3.05866667 107.725333,3.352 107.304,3.8 C106.882667,4.248 106.672,4.792 106.672,5.432 C106.672,6.60533333 107.445333,7.496 108.992,8.104 L108.992,8.104 L110.096,8.536 C110.608,8.76 110.973333,8.97333333 111.192,9.176 C111.410667,9.37866667 111.52,9.63466667 111.52,9.944 C111.52,10.3173333 111.365333,10.616 111.056,10.84 C110.746667,11.064 110.341333,11.176 109.84,11.176 C108.784,11.176 107.909333,10.6373333 107.216,9.56 L107.216,9.56 L106.048,10.424 C106.709333,11.6186667 107.685333,12.3386667 108.976,12.584 L108.976,12.584 L108.976,14.52 L110.528,14.52 Z M117.536,13 L120.16,9.272 C120.533333,8.76 120.805333,8.36 120.976,8.072 C121.178667,7.72 121.328,7.39466667 121.424,7.096 C121.552,6.72266667 121.616,6.33333333 121.616,5.928 C121.637333,4.904 121.274667,4.032 120.528,3.312 C119.781333,2.592 118.901333,2.24266667 117.888,2.264 C116.864,2.264 115.984,2.616 115.248,3.32 C114.512,4.024 114.144,4.888 114.144,5.912 C114.144,6.89333333 114.490667,7.728 115.184,8.416 C115.877333,9.104 116.682667,9.448 117.6,9.448 C117.770667,9.448 117.925333,9.432 118.064,9.4 L118.064,9.4 L115.52,13 L117.536,13 Z M117.888,8.008 C117.290667,8.008 116.794667,7.81066667 116.4,7.416 C116.005333,7.02133333 115.808,6.52 115.808,5.912 C115.808,5.31466667 116.005333,4.81866667 116.4,4.424 C116.805333,4.01866667 117.301333,3.816 117.888,3.816 C118.453333,3.816 118.938667,4.01866667 119.344,4.424 C119.738667,4.81866667 119.936,5.31466667 119.936,5.912 C119.936,6.50933333 119.738667,7.00533333 119.344,7.4 C118.938667,7.80533333 118.453333,8.008 117.888,8.008 Z M123.136,13.176 C123.488,13.176 123.781333,13.0586667 124.016,12.824 C124.250667,12.5893333 124.368,12.296 124.368,11.944 C124.368,11.5813333 124.250667,11.2826667 124.016,11.048 C123.781333,10.8133333 123.488,10.696 123.136,10.696 C122.784,10.696 122.485333,10.816 122.24,11.056 C121.994667,11.296 121.872,11.592 121.872,11.944 C121.872,12.296 121.994667,12.5893333 122.24,12.824 C122.485333,13.0586667 122.784,13.176 123.136,13.176 Z M128.512,13 L131.136,9.272 C131.509333,8.76 131.781333,8.36 131.952,8.072 C132.154667,7.72 132.304,7.39466667 132.4,7.096 C132.528,6.72266667 132.592,6.33333333 132.592,5.928 C132.613333,4.904 132.250667,4.032 131.504,3.312 C130.757333,2.592 129.877333,2.24266667 128.864,2.264 C127.84,2.264 126.96,2.616 126.224,3.32 C125.488,4.024 125.12,4.888 125.12,5.912 C125.12,6.89333333 125.466667,7.728 126.16,8.416 C126.853333,9.104 127.658667,9.448 128.576,9.448 C128.746667,9.448 128.901333,9.432 129.04,9.4 L129.04,9.4 L126.496,13 L128.512,13 Z M128.864,8.008 C128.266667,8.008 127.770667,7.81066667 127.376,7.416 C126.981333,7.02133333 126.784,6.52 126.784,5.912 C126.784,5.31466667 126.981333,4.81866667 127.376,4.424 C127.781333,4.01866667 128.277333,3.816 128.864,3.816 C129.429333,3.816 129.914667,4.01866667 130.32,4.424 C130.714667,4.81866667 130.912,5.31466667 130.912,5.912 C130.912,6.50933333 130.714667,7.00533333 130.32,7.4 C129.914667,7.80533333 129.429333,8.008 128.864,8.008 Z M136.768,13 L139.392,9.272 C139.765333,8.76 140.037333,8.36 140.208,8.072 C140.410667,7.72 140.56,7.39466667 140.656,7.096 C140.784,6.72266667 140.848,6.33333333 140.848,5.928 C140.869333,4.904 140.506667,4.032 139.76,3.312 C139.013333,2.592 138.133333,2.24266667 137.12,2.264 C136.096,2.264 135.216,2.616 134.48,3.32 C133.744,4.024 133.376,4.888 133.376,5.912 C133.376,6.89333333 133.722667,7.728 134.416,8.416 C135.109333,9.104 135.914667,9.448 136.832,9.448 C137.002667,9.448 137.157333,9.432 137.296,9.4 L137.296,9.4 L134.752,13 L136.768,13 Z M137.12,8.008 C136.522667,8.008 136.026667,7.81066667 135.632,7.416 C135.237333,7.02133333 135.04,6.52 135.04,5.912 C135.04,5.31466667 135.237333,4.81866667 135.632,4.424 C136.037333,4.01866667 136.533333,3.816 137.12,3.816 C137.685333,3.816 138.170667,4.01866667 138.576,4.424 C138.970667,4.81866667 139.168,5.31466667 139.168,5.912 C139.168,6.50933333 138.970667,7.00533333 138.576,7.4 C138.170667,7.80533333 137.685333,8.008 137.12,8.008 Z M145.92,13.176 C147.221333,13.176 148.216,12.6613333 148.904,11.632 C149.592,10.6026667 149.936,9.26666667 149.936,7.624 C149.936,6.00266667 149.594667,4.70666667 148.912,3.736 C148.24,2.75466667 147.242667,2.264 145.92,2.264 C144.597333,2.264 143.594667,2.76 142.912,3.752 C142.229333,4.72266667 141.888,6.01333333 141.888,7.624 C141.888,9.256 142.234667,10.5893333 142.928,11.624 C143.621333,12.6586667 144.618667,13.176 145.92,13.176 Z M145.92,11.624 C144.405333,11.624 143.648,10.296 143.648,7.64 C143.648,5.09066667 144.405333,3.816 145.92,3.816 C147.424,3.816 148.176,5.09066667 148.176,7.64 C148.176,10.296 147.424,11.624 145.92,11.624 Z" id="Preciodelplan$9.990"></path>
                </g>
                <path d="M49.955,27 L49.955,19.09 L53.077,19.09 L53.077,17.76 L45.363,17.76 L45.363,19.09 L48.471,19.09 L48.471,27 L49.955,27 Z M60.707,27 L60.707,25.67 L55.947,25.67 L55.947,22.744 L59.405,22.744 L59.405,21.456 L55.947,21.456 L55.947,19.09 L60.539,19.09 L60.539,17.76 L54.463,17.76 L54.463,27 L60.707,27 Z M67.833,27 L67.833,23.43 L69.527,23.43 L72.159,27 L73.853,27 L71.081,23.192 C71.641,22.9773333 72.0773333,22.6413333 72.39,22.184 C72.7026667,21.7266667 72.859,21.1946667 72.859,20.588 C72.859,19.7573333 72.5696667,19.0783333 71.991,18.551 C71.4123333,18.0236667 70.6563333,17.76 69.723,17.76 L69.723,17.76 L66.349,17.76 L66.349,27 L67.833,27 Z M69.695,22.114 L67.833,22.114 L67.833,19.076 L69.695,19.076 C70.199,19.076 70.598,19.216 70.892,19.496 C71.186,19.776 71.333,20.1446667 71.333,20.602 C71.333,21.0593333 71.186,21.4256667 70.892,21.701 C70.598,21.9763333 70.199,22.114 69.695,22.114 L69.695,22.114 Z M81.427,27 L81.427,25.67 L76.667,25.67 L76.667,22.744 L80.125,22.744 L80.125,21.456 L76.667,21.456 L76.667,19.09 L81.259,19.09 L81.259,17.76 L75.183,17.76 L75.183,27 L81.427,27 Z M87.461,27.154 C88.385,27.154 89.2296667,26.9346667 89.995,26.496 C90.7603333,26.0573333 91.353,25.4646667 91.773,24.718 L91.773,24.718 L91.773,22.114 L87.447,22.114 L87.447,23.43 L90.289,23.43 L90.289,24.424 C89.6823333,25.3573333 88.763,25.824 87.531,25.824 C86.5416667,25.824 85.7273333,25.495 85.088,24.837 C84.4486667,24.179 84.129,23.3553333 84.129,22.366 C84.129,21.386 84.4393333,20.574 85.06,19.93 C85.6806667,19.286 86.4763333,18.964 87.447,18.964 C88.595,18.964 89.5143333,19.4493333 90.205,20.42 L90.205,20.42 L91.283,19.538 C90.359,18.25 89.085,17.606 87.461,17.606 C86.117,17.5873333 84.962,18.0493333 83.996,18.992 C83.03,19.9346667 82.561,21.064 82.589,22.38 C82.5703333,23.7053333 83.0393333,24.837 83.996,25.775 C84.9526667,26.713 86.1076667,27.1726667 87.461,27.154 Z M99.305,27 L99.305,25.67 L95.077,25.67 L95.077,17.76 L93.593,17.76 L93.593,27 L99.305,27 Z M101.531,27 L102.189,25.46 L106.347,25.46 L107.005,27 L108.601,27 L104.527,17.606 L104.023,17.606 L99.949,27 L101.531,27 Z M105.815,24.186 L102.721,24.186 L104.275,20.364 L105.815,24.186 Z M111.555,27 L111.555,21.19 L114.215,24.676 L114.719,24.676 L117.365,21.204 L117.365,27 L118.849,27 L118.849,17.606 L118.345,17.606 L114.467,22.772 L110.589,17.606 L110.071,17.606 L110.071,27 L111.555,27 Z M125.457,27.154 C126.773,27.1726667 127.918667,26.7106667 128.894,25.768 C129.869333,24.8253333 130.343,23.696 130.315,22.38 C130.343,21.064 129.869333,19.9346667 128.894,18.992 C127.918667,18.0493333 126.773,17.5873333 125.457,17.606 C124.131667,17.5873333 122.988333,18.0493333 122.027,18.992 C121.065667,19.9346667 120.594333,21.064 120.613,22.38 C120.585,23.696 121.054,24.8253333 122.02,25.768 C122.986,26.7106667 124.131667,27.1726667 125.457,27.154 Z M125.471,25.796 C124.509667,25.796 123.716333,25.4716667 123.091,24.823 C122.465667,24.1743333 122.153,23.3553333 122.153,22.366 C122.153,21.386 122.468,20.574 123.098,19.93 C123.728,19.286 124.519,18.964 125.471,18.964 C126.413667,18.964 127.202333,19.2883333 127.837,19.937 C128.471667,20.5856667 128.789,21.3953333 128.789,22.366 C128.789,23.346 128.471667,24.1626667 127.837,24.816 C127.202333,25.4693333 126.413667,25.796 125.471,25.796 Z M134.921,27.154 C135.817,27.154 136.556667,26.9066667 137.14,26.412 C137.723333,25.9173333 138.015,25.2733333 138.015,24.48 C138.015,23.8826667 137.84,23.3833333 137.49,22.982 C137.14,22.5806667 136.577667,22.2026667 135.803,21.848 L135.803,21.848 L134.767,21.372 C134.739,21.3533333 134.697,21.33 134.641,21.302 C134.333,21.1433333 134.151,21.05 134.095,21.022 C134.039,20.994 133.941,20.9216667 133.801,20.805 C133.661,20.6883333 133.574667,20.5763333 133.542,20.469 C133.509333,20.3616667 133.488333,20.224 133.479,20.056 C133.479,19.7013333 133.609667,19.426 133.871,19.23 C134.132333,19.034 134.468333,18.936 134.879,18.936 C135.672333,18.936 136.321,19.3093333 136.825,20.056 L136.825,20.056 L137.861,19.258 C137.571667,18.754 137.163333,18.3526667 136.636,18.054 C136.108667,17.7553333 135.523,17.606 134.879,17.606 C134.057667,17.606 133.367,17.8393333 132.807,18.306 C132.247,18.7726667 131.967,19.3746667 131.967,20.112 C131.967,20.7 132.146667,21.1923333 132.506,21.589 C132.865333,21.9856667 133.404333,22.3473333 134.123,22.674 L134.123,22.674 L135.145,23.15 C135.658333,23.3926667 136.013,23.605 136.209,23.787 C136.405,23.969 136.503,24.2186667 136.503,24.536 C136.503,24.928 136.356,25.2406667 136.062,25.474 C135.768,25.7073333 135.383,25.824 134.907,25.824 C133.964333,25.824 133.157,25.334 132.485,24.354 L132.485,24.354 L131.435,25.152 C131.799,25.7773333 132.284333,26.2673333 132.891,26.622 C133.497667,26.9766667 134.174333,27.154 134.921,27.154 Z M147.549,27.154 C148.659667,27.154 149.567333,26.804 150.272,26.104 C150.976667,25.404 151.329,24.4566667 151.329,23.262 L151.329,23.262 L151.329,17.76 L149.845,17.76 L149.845,23.36 C149.845,24.1253333 149.635,24.7226667 149.215,25.152 C148.795,25.5813333 148.239667,25.796 147.549,25.796 C146.849,25.796 146.286667,25.5813333 145.862,25.152 C145.437333,24.7226667 145.225,24.1253333 145.225,23.36 L145.225,23.36 L145.225,17.76 L143.741,17.76 L143.741,23.262 C143.741,24.4566667 144.093333,25.404 144.798,26.104 C145.502667,26.804 146.419667,27.154 147.549,27.154 Z M161.171,27.154 L161.171,17.76 L159.687,17.76 L159.687,23.99 L154.073,17.606 L153.555,17.606 L153.555,27 L155.039,27 L155.039,20.742 L160.667,27.154 L161.171,27.154 Z M168.913,27 L168.913,23.43 L170.803,23.43 C171.727,23.43 172.480667,23.164 173.064,22.632 C173.647333,22.1 173.939,21.4186667 173.939,20.588 C173.939,19.7573333 173.649667,19.0783333 173.071,18.551 C172.492333,18.0236667 171.736333,17.76 170.803,17.76 L170.803,17.76 L167.429,17.76 L167.429,27 L168.913,27 Z M170.775,22.114 L168.913,22.114 L168.913,19.076 L170.775,19.076 C171.288333,19.076 171.689667,19.2136667 171.979,19.489 C172.268333,19.7643333 172.413,20.1353333 172.413,20.602 C172.413,21.0686667 172.268333,21.4373333 171.979,21.708 C171.689667,21.9786667 171.288333,22.114 170.775,22.114 L170.775,22.114 Z M181.303,27 L181.303,25.67 L177.075,25.67 L177.075,17.76 L175.591,17.76 L175.591,27 L181.303,27 Z M183.529,27 L184.187,25.46 L188.345,25.46 L189.003,27 L190.599,27 L186.525,17.606 L186.021,17.606 L181.947,27 L183.529,27 Z M187.813,24.186 L184.719,24.186 L186.273,20.364 L187.813,24.186 Z M199.685,27.154 L199.685,17.76 L198.201,17.76 L198.201,23.99 L192.587,17.606 L192.069,17.606 L192.069,27 L193.553,27 L193.553,20.742 L199.181,27.154 L199.685,27.154 Z M65.11,41 L65.11,39.67 L60.35,39.67 L60.35,36.744 L63.808,36.744 L63.808,35.456 L60.35,35.456 L60.35,33.09 L64.942,33.09 L64.942,31.76 L58.866,31.76 L58.866,41 L65.11,41 Z M67.686,41 L69.912,37.556 L72.152,41 L73.846,41 L70.766,36.282 L73.636,31.76 L71.942,31.76 L69.926,35.022 L67.882,31.76 L66.174,31.76 L69.1,36.282 L65.978,41 L67.686,41 Z M79.628,41.154 C80.4773333,41.154 81.2496667,40.965 81.945,40.587 C82.6403333,40.209 83.1886667,39.6886667 83.59,39.026 L83.59,39.026 L82.47,38.2 C81.7886667,39.264 80.846,39.796 79.642,39.796 C78.69,39.796 77.8966667,39.4716667 77.262,38.823 C76.6273333,38.1743333 76.31,37.36 76.31,36.38 C76.31,35.4 76.6273333,34.5856667 77.262,33.937 C77.8966667,33.2883333 78.69,32.964 79.642,32.964 C80.846,32.964 81.7886667,33.496 82.47,34.56 L82.47,34.56 L83.59,33.734 C83.1886667,33.0806667 82.638,32.5626667 81.938,32.18 C81.238,31.7973333 80.468,31.606 79.628,31.606 C78.3026667,31.5873333 77.1546667,32.0493333 76.184,32.992 C75.2133333,33.9346667 74.742,35.064 74.77,36.38 C74.742,37.696 75.2133333,38.8253333 76.184,39.768 C77.1546667,40.7106667 78.3026667,41.1726667 79.628,41.154 Z M91.08,41 L91.08,39.67 L86.852,39.67 L86.852,31.76 L85.368,31.76 L85.368,41 L91.08,41 Z M96.288,41.154 C97.3986667,41.154 98.3063333,40.804 99.011,40.104 C99.7156667,39.404 100.068,38.4566667 100.068,37.262 L100.068,37.262 L100.068,31.76 L98.584,31.76 L98.584,37.36 C98.584,38.1253333 98.374,38.7226667 97.954,39.152 C97.534,39.5813333 96.9786667,39.796 96.288,39.796 C95.588,39.796 95.0256667,39.5813333 94.601,39.152 C94.1763333,38.7226667 93.964,38.1253333 93.964,37.36 L93.964,37.36 L93.964,31.76 L92.48,31.76 L92.48,37.262 C92.48,38.4566667 92.8323333,39.404 93.537,40.104 C94.2416667,40.804 95.1586667,41.154 96.288,41.154 Z M105.122,41.154 C106.018,41.154 106.757667,40.9066667 107.341,40.412 C107.924333,39.9173333 108.216,39.2733333 108.216,38.48 C108.216,37.8826667 108.041,37.3833333 107.691,36.982 C107.341,36.5806667 106.778667,36.2026667 106.004,35.848 L106.004,35.848 L104.968,35.372 C104.94,35.3533333 104.898,35.33 104.842,35.302 C104.534,35.1433333 104.352,35.05 104.296,35.022 C104.24,34.994 104.142,34.9216667 104.002,34.805 C103.862,34.6883333 103.775667,34.5763333 103.743,34.469 C103.710333,34.3616667 103.689333,34.224 103.68,34.056 C103.68,33.7013333 103.810667,33.426 104.072,33.23 C104.333333,33.034 104.669333,32.936 105.08,32.936 C105.873333,32.936 106.522,33.3093333 107.026,34.056 L107.026,34.056 L108.062,33.258 C107.772667,32.754 107.364333,32.3526667 106.837,32.054 C106.309667,31.7553333 105.724,31.606 105.08,31.606 C104.258667,31.606 103.568,31.8393333 103.008,32.306 C102.448,32.7726667 102.168,33.3746667 102.168,34.112 C102.168,34.7 102.347667,35.1923333 102.707,35.589 C103.066333,35.9856667 103.605333,36.3473333 104.324,36.674 L104.324,36.674 L105.346,37.15 C105.859333,37.3926667 106.214,37.605 106.41,37.787 C106.606,37.969 106.704,38.2186667 106.704,38.536 C106.704,38.928 106.557,39.2406667 106.263,39.474 C105.969,39.7073333 105.584,39.824 105.108,39.824 C104.165333,39.824 103.358,39.334 102.686,38.354 L102.686,38.354 L101.636,39.152 C102,39.7773333 102.485333,40.2673333 103.092,40.622 C103.698667,40.9766667 104.375333,41.154 105.122,41.154 Z M111.604,41 L111.604,31.76 L110.12,31.76 L110.12,41 L111.604,41 Z M117.652,41.154 L121.726,31.76 L120.06,31.76 L117.4,38.186 L114.74,31.76 L113.074,31.76 L117.148,41.154 L117.652,41.154 Z M127.48,41.154 C128.796,41.1726667 129.941667,40.7106667 130.917,39.768 C131.892333,38.8253333 132.366,37.696 132.338,36.38 C132.366,35.064 131.892333,33.9346667 130.917,32.992 C129.941667,32.0493333 128.796,31.5873333 127.48,31.606 C126.154667,31.5873333 125.011333,32.0493333 124.05,32.992 C123.088667,33.9346667 122.617333,35.064 122.636,36.38 C122.608,37.696 123.077,38.8253333 124.043,39.768 C125.009,40.7106667 126.154667,41.1726667 127.48,41.154 Z M127.494,39.796 C126.532667,39.796 125.739333,39.4716667 125.114,38.823 C124.488667,38.1743333 124.176,37.3553333 124.176,36.366 C124.176,35.386 124.491,34.574 125.121,33.93 C125.751,33.286 126.542,32.964 127.494,32.964 C128.436667,32.964 129.225333,33.2883333 129.86,33.937 C130.494667,34.5856667 130.812,35.3953333 130.812,36.366 C130.812,37.346 130.494667,38.1626667 129.86,38.816 C129.225333,39.4693333 128.436667,39.796 127.494,39.796 Z M139.52,41 L139.52,37.43 L141.41,37.43 C142.334,37.43 143.087667,37.164 143.671,36.632 C144.254333,36.1 144.546,35.4186667 144.546,34.588 C144.546,33.7573333 144.256667,33.0783333 143.678,32.551 C143.099333,32.0236667 142.343333,31.76 141.41,31.76 L141.41,31.76 L138.036,31.76 L138.036,41 L139.52,41 Z M141.382,36.114 L139.52,36.114 L139.52,33.076 L141.382,33.076 C141.895333,33.076 142.296667,33.2136667 142.586,33.489 C142.875333,33.7643333 143.02,34.1353333 143.02,34.602 C143.02,35.0686667 142.875333,35.4373333 142.586,35.708 C142.296667,35.9786667 141.895333,36.114 141.382,36.114 L141.382,36.114 Z M146.926,41 L147.584,39.46 L151.742,39.46 L152.4,41 L153.996,41 L149.922,31.606 L149.418,31.606 L145.344,41 L146.926,41 Z M151.21,38.186 L148.116,38.186 L149.67,34.364 L151.21,38.186 Z M156.95,41 L156.95,37.43 L158.644,37.43 L161.276,41 L162.97,41 L160.198,37.192 C160.758,36.9773333 161.194333,36.6413333 161.507,36.184 C161.819667,35.7266667 161.976,35.1946667 161.976,34.588 C161.976,33.7573333 161.686667,33.0783333 161.108,32.551 C160.529333,32.0236667 159.773333,31.76 158.84,31.76 L158.84,31.76 L155.466,31.76 L155.466,41 L156.95,41 Z M158.812,36.114 L156.95,36.114 L156.95,33.076 L158.812,33.076 C159.316,33.076 159.715,33.216 160.009,33.496 C160.303,33.776 160.45,34.1446667 160.45,34.602 C160.45,35.0593333 160.303,35.4256667 160.009,35.701 C159.715,35.9763333 159.316,36.114 158.812,36.114 L158.812,36.114 Z M165.028,41 L165.686,39.46 L169.844,39.46 L170.502,41 L172.098,41 L168.024,31.606 L167.52,31.606 L163.446,41 L165.028,41 Z M169.312,38.186 L166.218,38.186 L167.772,34.364 L169.312,38.186 Z M181.142,41 L181.142,33.09 L184.264,33.09 L184.264,31.76 L176.55,31.76 L176.55,33.09 L179.658,33.09 L179.658,41 L181.142,41 Z M187.134,41 L187.134,31.76 L185.65,31.76 L185.65,41 L187.134,41 Z" id="TEREGLAMOSUNPLANEXCLUSIVOPARATI" fill="#4D008C" fill-rule="nonzero"></path>
            </g>
        </g>
    </g>
</svg>