<svg xmlns="http://www.w3.org/2000/svg" xmlns:xlink="http://www.w3.org/1999/xlink" width="252" height="310" fill="none" xmlns:v="https://vecta.io/nano"><style><![CDATA[.B{fill:#fff}.C{fill:#471086}.D{fill-rule:evenodd}.E{fill:#e92070}]]></style><g clip-path="url(#B)"><path d="M0 0h252v310H0z" class="B"/><g class="C"><path d="M6 60h228v.973H7.076V260H6V60z" class="D"/><path d="M22.62 100h2.214v-4.05h2.502c2.772 0 5.04-1.476 5.04-4.302v-.036c0-2.538-1.836-4.212-4.788-4.212H22.62V100zm2.214-6.048v-4.536h2.574c1.656 0 2.718.774 2.718 2.25v.036c0 1.314-1.044 2.25-2.718 2.25h-2.574zM34.878 100h2.178V86.86h-2.178V100zm8.12.198c1.458 0 2.448-.612 3.096-1.386V100h2.124v-5.634c0-1.242-.324-2.25-1.026-2.934-.666-.684-1.728-1.062-3.15-1.062-1.512 0-2.538.306-3.582.774l.576 1.71c.864-.36 1.656-.594 2.718-.594 1.53 0 2.358.72 2.358 2.07v.234a7.94 7.94 0 0 0-2.556-.396c-2.322 0-3.924 1.008-3.924 3.06v.036c0 1.908 1.584 2.934 3.366 2.934zm.612-1.584c-1.044 0-1.854-.522-1.854-1.44v-.036c0-.99.828-1.584 2.232-1.584.864 0 1.602.162 2.16.378v.648c0 1.206-1.098 2.034-2.538 2.034zM51.186 100h2.178v-5.364c0-1.476.882-2.358 2.142-2.358 1.296 0 2.034.846 2.034 2.322v5.4h2.178v-6.066c0-2.196-1.242-3.636-3.384-3.636-1.476 0-2.358.774-2.97 1.656v-1.458h-2.178V100zm17.283 0h14.504v-3.724h-8.54l3.192-2.464c3.472-2.716 5.152-4.284 5.152-7.588v-.056c0-3.668-2.716-6.048-6.748-6.048-3.5 0-5.376 1.456-7.308 4.06l3.024 2.436c1.456-1.792 2.464-2.632 4.004-2.632 1.568 0 2.632.868 2.632 2.548 0 1.624-.924 2.688-3.388 4.704l-6.524 5.348V100zm24.333.336c4.508 0 7.448-2.632 7.448-6.776v-.056c0-4.396-3.052-6.272-6.86-6.272-1.092 0-1.792.14-2.576.336l.224-3.388h8.344V80.4h-12.04l-.56 9.66 2.492 1.652c.924-.42 2.044-.728 3.276-.728 2.044 0 3.472.98 3.472 2.66v.056c0 1.764-1.26 2.716-3.276 2.716-1.764 0-3.192-.784-4.676-2.128l-2.604 3.108c1.904 1.82 4.172 2.94 7.336 2.94z"/><use xlink:href="#C"/><path d="M133.959 100h4.312V80.4h-4.312V100zm18.366.336c3.584 0 6.356-1.4 8.372-3.108v-8.512h-8.512v3.724h4.34v2.8c-1.092.784-2.464 1.176-4.06 1.176-3.472 0-5.936-2.632-5.936-6.216v-.056c0-3.332 2.492-6.104 5.628-6.104 2.24 0 3.64.728 5.124 1.988l2.716-3.276c-2.016-1.736-4.2-2.688-7.7-2.688-5.936 0-10.276 4.564-10.276 10.136v.056c0 5.824 4.2 10.08 10.304 10.08zm10.561-.336h4.396l1.792-4.396h8.288l1.792 4.396h4.508l-8.4-19.74h-3.976l-8.4 19.74zm7.728-8.204l2.604-6.356 2.604 6.356h-5.208zm22.492 8.484c4.228 0 7.196-2.184 7.196-6.076v-.056c0-3.416-2.24-4.816-6.216-5.88-3.388-.896-4.228-1.26-4.228-2.576v-.056c0-.98.84-1.708 2.52-1.708s3.332.728 5.096 1.932l2.24-3.248c-2.016-1.596-4.396-2.492-7.28-2.492-4.032 0-6.86 2.352-6.86 5.908v.056c0 3.864 2.52 5.012 6.496 5.992 3.276.812 3.948 1.4 3.948 2.492v.056c0 1.148-1.036 1.848-2.828 1.848-2.24 0-4.06-.924-5.852-2.38l-2.548 3.052c2.352 2.128 5.32 3.136 8.316 3.136zM23.282 127h2.674v-9.87h-1.974l-2.87.812.518 2.1 1.652-.392V127zm4.1 0h2.758v-2.73h-2.758V127z"/><use xlink:href="#D"/><path d="M45.514 127.196c2.8 0 4.55-2.324 4.55-5.096v-.028c0-2.772-1.736-5.068-4.522-5.068s-4.55 2.324-4.55 5.096v.028c0 2.772 1.736 5.068 4.522 5.068zm.028-2.408c-1.092 0-1.82-1.12-1.82-2.688v-.028c0-1.568.714-2.674 1.792-2.674 1.092 0 1.82 1.134 1.82 2.702v.028c0 1.554-.7 2.66-1.792 2.66zm10.059 2.408c2.8 0 4.55-2.324 4.55-5.096v-.028c0-2.772-1.736-5.068-4.522-5.068s-4.55 2.324-4.55 5.096v.028c0 2.772 1.736 5.068 4.522 5.068zm.028-2.408c-1.092 0-1.82-1.12-1.82-2.688v-.028c0-1.568.714-2.674 1.792-2.674 1.092 0 1.82 1.134 1.82 2.702v.028c0 1.554-.7 2.66-1.792 2.66zM66.034 127h1.078v-7.924l3.57 5.236h.056l3.57-5.25V127h1.106v-9.8h-1.12l-3.57 5.348-3.57-5.348h-1.12v9.8zm12.113 0h1.106v-9.8h-1.106v9.8zm3.836 0h1.078v-8.036L89.389 127h.882v-9.8h-1.078v7.854l-6.174-7.854h-1.036v9.8z"/></g><path d="M105.85 125.46h1.05v-2.884h2.898v-1.008H106.9v-2.884h-1.05v2.884h-2.898v1.008h2.898v2.884z" class="E"/><path d="M120 129l1.093-3.984c-.707-1.221-1.093-2.634-1.093-4.048 0-4.37 3.599-7.968 7.968-7.968s8.032 3.598 8.032 7.968-3.662 8.032-8.032 8.032c-1.349 0-2.699-.45-3.92-1.092L120 129z" class="B"/><path d="M127.968 113.25c-4.231 0-7.718 3.486-7.718 7.718a7.89 7.89 0 0 0 1.059 3.923l.052.09-1.004 3.664 3.721-1.004.087.045c1.199.631 2.508 1.064 3.803 1.064 4.231 0 7.782-3.551 7.782-7.782s-3.548-7.718-7.782-7.718zm-8.218 7.718c0-4.508 3.71-8.218 8.218-8.218s8.282 3.708 8.282 8.218-3.774 8.282-8.282 8.282c-1.37 0-2.728-.445-3.949-1.076l-4.375 1.181 1.18-4.305a8.39 8.39 0 0 1-1.074-4.082z" fill="#cccdd1" class="D"/><path d="M124.305 126.494l.257.129c1.029.642 2.185 1.028 3.47 1.028 3.599 0 6.619-3.02 6.619-6.683s-3.02-6.554-6.683-6.554-6.618 2.955-6.618 6.554a6.68 6.68 0 0 0 1.028 3.534l.192.257-.642 2.313 2.377-.578z" fill="#009e56"/><path d="M125.848 117.241h-.514a.58.58 0 0 0-.45.193c-.257.193-.643.642-.771 1.156-.193.836.128 1.8.835 2.828.707.964 2.121 2.57 4.498 3.277.771.193 1.349.064 1.863-.193.386-.257.643-.643.707-1.028l.065-.386c0-.128 0-.257-.129-.321l-1.735-.771c-.128-.064-.257 0-.321.064l-.707.9c-.064.064-.129.064-.193.064-.45-.193-2.056-.835-2.891-2.506v-.193l.642-.771c.065-.064.065-.193.065-.257l-.772-1.799c0-.129-.128-.257-.192-.257z" class="B"/><g class="C"><path d="M143.005 126h2.91v-10.5h-2.91V126zm4.682 0h7.995v-2.55h-5.085v-7.95h-2.91V126zm9.183 0h2.91v-10.5h-2.91V126zm4.682 0h2.85v-6.015l2.67 4.095h.06l2.685-4.11V126h2.895v-10.5h-3.075l-2.505 4.065-2.505-4.065h-3.075V126zm12.948 0h2.91v-10.5h-2.91V126zm7.247 0h2.91v-7.95h3.15v-2.55h-9.195v2.55h3.135V126zm5.015 0h3.045l.75-1.89h4.065l.75 1.89h3.12l-4.47-10.575h-2.805L186.762 126zm4.65-4.155l1.185-2.97 1.17 2.97h-2.355zM199.36 126h4.005c3.765 0 5.97-2.25 5.97-5.28v-.03c0-3.03-2.175-5.19-5.91-5.19h-4.065V126zm4.095-7.935c1.755 0 2.91.99 2.91 2.67v.03c0 1.695-1.155 2.655-2.91 2.655h-1.185v-5.355h1.185zm12.535 8.145c3.24 0 5.67-2.445 5.67-5.46v-.03c0-3.015-2.4-5.43-5.64-5.43s-5.67 2.445-5.67 5.46v.03c0 3.015 2.4 5.43 5.64 5.43zm.03-2.625c-1.605 0-2.7-1.32-2.7-2.835v-.03c0-1.515 1.065-2.805 2.67-2.805s2.685 1.305 2.685 2.835v.03c0 1.515-1.065 2.805-2.655 2.805zM223 141H21v41h202v-41z"/></g><path d="M72.385 169.701c4.633 0 8.389-3.739 8.389-8.35S77.018 153 72.385 153s-8.389 3.739-8.389 8.351 3.756 8.35 8.389 8.35z" fill="#0076ed"/><path d="M74.249 157.601h1.088v-1.779c-.194-.038-.816-.077-1.554-.077-1.554 0-2.602.928-2.602 2.629v1.469h-1.748v2.01h1.748v5.103h2.097v-5.103h1.748l.272-2.01h-2.02v-1.276c-.039-.58.116-.966.971-.966z" class="B"/><path d="M91.611 169.701c4.633 0 8.389-3.739 8.389-8.35S96.244 153 91.611 153s-8.389 3.739-8.389 8.351 3.756 8.35 8.389 8.35z" fill="#00a0eb"/><path d="M95.456 159.804c-.078 3.286-2.175 5.529-5.321 5.683-1.321.077-2.253-.348-3.107-.85.932.154 2.175-.194 2.796-.774-.932-.077-1.515-.579-1.787-1.353.272.078.583 0 .777 0-.854-.27-1.437-.773-1.515-1.933a1.4 1.4 0 0 0 .777.232c-.66-.348-1.088-1.701-.583-2.551.932 1.005 2.097 1.855 3.962 2.01-.505-2.01 2.253-3.054 3.34-1.701.505-.077.855-.271 1.243-.425-.155.502-.427.773-.777 1.082.349-.077.738-.154 1.01-.27-.117.27-.466.541-.816.85z" class="B"/><path d="M53.081 169.701c4.633 0 8.389-3.739 8.389-8.35S57.715 153 53.081 153s-8.389 3.739-8.389 8.351 3.756 8.35 8.389 8.35z" fill="#f6f000"/><path d="M48.731 163.554a1.89 1.89 0 0 0 .816-.309c.194-.116.388-.309.583-.503.311-.348.466-.657.466-.734.078-.155.078-.271.039-.387-.078-.193-.388-.309-.583-.348h-.039c-.039 0-.078-.038-.078-.038-.155-.039-.233-.116-.311-.155-.078-.077-.116-.155-.078-.193 0-.039.039-.116.155-.155s.233-.077.311-.039c.272.116.505.155.66.078.039-.039.078-.078.078-.116v-.194c-.039-.58-.078-1.353.117-1.739a2.77 2.77 0 0 1 .544-.774c.194-.154.388-.309.621-.425.427-.193.816-.193 1.01-.193h.155c.194 0 .583.039 1.01.193.233.116.466.232.621.425.233.194.388.464.544.774.194.425.155 1.159.117 1.739v.194c0 .038.039.077.078.116s.117.038.155.038h.039c.117 0 .272-.038.427-.116.039-.038.117-.038.155-.038s.117 0 .155.038c.116.039.233.155.233.232 0 .039 0 .078-.078.155s-.155.116-.311.193c-.039 0-.039.039-.078.039h-.039c-.194.039-.466.155-.583.348-.039.116-.039.232.039.386v.039c.117.232.699 1.353 1.864 1.546.039 0 .078.039.078.116v.039c-.039.077-.117.155-.272.232-.194.077-.466.155-.855.232-.039 0-.078.039-.078.077-.039.039-.039.116-.039.232v.039c0 .039-.039.116-.039.155-.039.038-.078.077-.117.077s-.078 0-.194-.039-.272-.038-.505-.038c-.116 0-.233 0-.35.038-.233.039-.466.194-.699.348-.311.232-.66.464-1.204.464h-.117c-.544 0-.893-.27-1.204-.464-.233-.154-.427-.309-.699-.348-.117-.038-.233-.038-.35-.038-.194 0-.388.038-.505.038-.039 0-.117.039-.194.039s-.116-.039-.155-.077c-.039-.078-.078-.155-.078-.194v-.038c-.039-.078-.039-.155-.078-.232 0-.039-.039-.039-.078-.039-.388-.039-.66-.155-.855-.232-.116-.039-.233-.116-.272-.193v-.078c-.039-.193 0-.193.039-.193z" class="B"/><path d="M52.182 157.838c-.187.094-.349.22-.538.37-.193.196-.326.392-.465.67-.06.12-.099.343-.109.652-.009.295.009.618.029.908l.001.012v.204c0 .134-.065.229-.094.268s-.066.075-.082.092l-.043.043-.05.025a.69.69 0 0 1-.175.06.77.77 0 0 1 .304.349l.004.01.003.01c.064.191.061.387-.034.602-.013.055-.032.102-.044.13a1.82 1.82 0 0 1-.108.209 3.48 3.48 0 0 1-.389.522l-.007.008-.007.007-.017.017c-.18.179-.397.395-.626.533-.136.09-.284.169-.446.231.151.056.328.108.551.132l.033.001a.52.52 0 0 1 .111.021c.05.017.123.052.182.128.033.042.054.087.066.13.022.055.035.104.042.132l.014.05.037.074v.013c.02-.004.047-.008.079-.008s.074-.005.155-.014l.03-.003.32-.021c.116-.001.269-.001.429.046.307.052.547.217.731.343l.077.052.113.072c.286.182.529.337.902.337h.117c.427 0 .7-.174.996-.395l.008-.006.008-.005.028-.018c.206-.137.483-.321.781-.378.161-.049.316-.049.419-.049h.052c.158 0 .322 0 .47.029l.005-.062a.54.54 0 0 1 .057-.188.45.45 0 0 1 .101-.156.43.43 0 0 1 .25-.122l.455-.106c-.395-.175-.706-.437-.939-.691a3.86 3.86 0 0 1-.593-.867l-.037-.073v-.047c-.082-.203-.082-.389-.021-.572l.012-.036.02-.033c.087-.145.213-.249.334-.323-.025-.001-.058-.003-.093-.009-.053-.009-.17-.034-.266-.131-.02-.02-.056-.055-.086-.095s-.094-.134-.094-.267v-.205l.001-.012.028-.894c-.009-.294-.046-.525-.112-.672-.153-.305-.281-.514-.452-.656l-.027-.022-.022-.028c-.096-.12-.249-.203-.487-.322-.378-.134-.717-.166-.873-.166h-.155c-.185 0-.507.002-.861.16zm4.207 3.185c.015.009.021.014.025.018m1.212 2.745l.311.156c-.084.169-.233.291-.428.388l-.013.006-.013.005c-.19.076-.434.147-.752.216v.041a.44.44 0 0 1-.007.078l-.011.049-.018.058-.001.003-.001.004v.107l-.102.102c-.02.02-.055.056-.096.086a.45.45 0 0 1-.267.093h-.001c-.024 0-.066 0-.124-.01s-.111-.024-.179-.046c-.05-.017-.137-.021-.395-.021-.124 0-.185.002-.24.021l-.026.008-.027.005c-.143.023-.308.125-.556.289-.325.242-.749.527-1.404.527h-.117c-.589 0-1.004-.268-1.286-.451l-.102-.065-.009-.006-.1-.067c-.2-.134-.305-.205-.455-.226l-.031-.005-.03-.009c-.055-.019-.116-.021-.24-.021a2.14 2.14 0 0 0-.243.017l-.03.003-.195.018c-.005.001-.012.003-.023.006-.037.011-.116.033-.207.033a.54.54 0 0 1-.396-.174l-.045-.045-.028-.054-.06-.126-.031-.082a.5.5 0 0 1-.02-.105c-.339-.069-.587-.169-.756-.236l-.028-.011a1.05 1.05 0 0 1-.244-.123.68.68 0 0 1-.219-.241l-.037-.074v-.127c-.008-.044-.014-.088-.015-.129a.48.48 0 0 1 .031-.202c.041-.102.121-.182.227-.22a.37.37 0 0 1 .102-.021c.258-.034.474-.126.665-.253l.007-.005.007-.004c.148-.088.308-.244.508-.443a2.75 2.75 0 0 0 .304-.408c.033-.055.055-.098.066-.126l.001-.044.037-.074c.023-.045.026-.069.027-.078-.003-.02-.004-.021-.006-.023a.4.4 0 0 0-.079-.052 1 1 0 0 0-.212-.077h-.002a.44.44 0 0 1-.234-.07c-.085-.028-.152-.063-.206-.095l-.097-.061-.056-.029-.04-.039c-.054-.054-.117-.129-.157-.221-.027-.063-.069-.207-.004-.349.051-.167.199-.297.374-.355.061-.021.139-.047.218-.061s.21-.028.346.035c.099.042.181.067.246.079l-.028-.947c.01-.32.049-.676.182-.943a3.12 3.12 0 0 1 .609-.863l.014-.014.026-.02c.188-.15.407-.324.673-.456l.012-.006c.496-.224.945-.224 1.149-.224h.16c.23 0 .659.044 1.128.214l.019.007.018.009.025.012c.208.103.487.242.69.479.279.241.455.561.607.862l.006.012c.127.278.167.625.177.946.01.315-.009.646-.027.928.046-.009.103-.027.166-.056.08-.055.162-.072.204-.079a.66.66 0 0 1 .132-.009c.026-.001.079-.001.137.009a.51.51 0 0 1 .19.07c.093.04.175.1.237.162a.69.69 0 0 1 .11.141.48.48 0 0 1 .066.236c0 .03 0 .105-.035.193s-.088.152-.145.209c-.118.117-.243.179-.379.247-.007.003-.015.007-.022.011l-.004.002a.34.34 0 0 1-.027.018c-.027.016-.059.03-.095.041a.4.4 0 0 1-.106.014c-.06.015-.131.04-.193.074-.05.027-.084.053-.106.075.001.012.004.035.027.081l.037.074v.037c.074.139.221.39.447.636.253.276.589.53 1.018.63l.477-.949v1.468h-.348zm-8.891.116h0z" fill="#201712" class="D"/><path d="M33.312 169.624c4.59 0 8.312-3.704 8.312-8.273s-3.721-8.273-8.312-8.273S25 156.782 25 161.351s3.721 8.273 8.312 8.273z" fill="url(#A)"/><g class="B"><path d="M35.448 156.634h-4.272c-1.437 0-2.641 1.16-2.641 2.59v4.214c0 1.431 1.165 2.59 2.641 2.59h4.272c1.437 0 2.641-1.159 2.641-2.59v-4.214c0-1.43-1.204-2.59-2.641-2.59zm1.787 6.843c0 .966-.816 1.778-1.787 1.778h-4.272c-.971 0-1.787-.812-1.787-1.778v-4.214c0-.967.816-1.778 1.787-1.778h4.272c.971 0 1.787.811 1.787 1.778v4.214zm-3.923-4.562a2.436 2.436 0 1 0 0 4.871 2.436 2.436 0 1 0 0-4.871zm0 4.021c-.893 0-1.631-.696-1.631-1.585s.738-1.586 1.631-1.586 1.631.735 1.631 1.586c-.039.889-.777 1.585-1.631 1.585zm2.563-4.717c-.155 0-.311.077-.427.193a.62.62 0 0 0-.194.426.62.62 0 0 0 .194.425c.117.116.272.193.427.193s.311-.077.427-.193a.62.62 0 0 0 .194-.425.62.62 0 0 0-.194-.426c-.117-.116-.272-.193-.427-.193z"/><use xlink:href="#E"/><path d="M111.999 176h.968v-3.984l3.088 3.984h.824v-5.6h-.968v3.872l-3-3.872h-.912v5.6zm8.559 0h.984v-1.952h1.232L124.15 176h1.168l-1.512-2.12c.776-.224 1.328-.776 1.328-1.696v-.016c0-.488-.168-.904-.464-1.208-.36-.352-.912-.56-1.616-.56h-2.496v5.6zm.984-2.824v-1.88h1.432c.728 0 1.16.328 1.16.928v.016c0 .568-.448.936-1.152.936h-1.44zm4.717 2.824h4.192v-.88h-3.208v-1.504h2.808v-.88h-2.808v-1.456h3.168v-.88h-4.152v5.6zm5.28 0h2.088c1.76 0 2.976-1.224 2.976-2.8v-.016c0-1.576-1.216-2.784-2.976-2.784h-2.088v5.6zm2.088-4.704c1.176 0 1.944.808 1.944 1.904v.016c0 1.096-.768 1.888-1.944 1.888h-1.104v-3.808h1.104zm8.984 4.704h.944v-1.256h.8v-.808h-.8v-3.576h-.84l-3.112 3.68.184.704h2.824V176zm-1.84-2.064l1.84-2.216v2.216h-1.84zm7.293 2.16a3.57 3.57 0 0 0 2.336-.872v-2.352h-2.384v.856h1.432v1.048c-.344.256-.824.424-1.352.424-1.144 0-1.904-.848-1.904-2v-.016c0-1.072.784-1.976 1.816-1.976.712 0 1.136.232 1.568.6l.624-.744c-.576-.488-1.176-.76-2.152-.76-1.688 0-2.888 1.328-2.888 2.896v.016c0 1.632 1.152 2.88 2.904 2.88z"/><use xlink:href="#F"/><use xlink:href="#G"/><use xlink:href="#H"/><path d="M170.083 176h1.008l.576-1.352h2.648l.568 1.352h1.04l-2.464-5.64h-.912l-2.464 5.64zm1.944-2.224l.96-2.24.968 2.24h-1.928zm9.055 2.304c1.176 0 2-.624 2-1.672v-.016c0-.928-.608-1.352-1.792-1.64-1.08-.256-1.336-.448-1.336-.88v-.016c0-.368.336-.664.912-.664.512 0 1.016.2 1.52.576l.528-.744c-.568-.456-1.216-.704-2.032-.704-1.112 0-1.912.664-1.912 1.624v.016c0 1.032.672 1.384 1.864 1.672 1.04.24 1.264.456 1.264.856v.016c0 .416-.384.704-.992.704-.688 0-1.232-.264-1.768-.728l-.592.704a3.45 3.45 0 0 0 2.336.896zm3.133-.08h.984v-5.6h-.984v5.6zm2.403 0h4.192v-.88h-3.208v-1.504h2.808v-.88h-2.808v-1.456h3.168v-.88h-4.152v5.6zm5.279 0h.968v-4l1.752 2.624h.032l1.768-2.64V176h.984v-5.6h-1.048l-1.704 2.648-1.704-2.648h-1.048v5.6zm6.865 0h.984v-1.8h1.112c1.232 0 2.24-.656 2.24-1.912v-.016c0-1.128-.816-1.872-2.128-1.872h-2.208v5.6zm.984-2.688v-2.016h1.144c.736 0 1.208.344 1.208 1v.016c0 .584-.464 1-1.208 1h-1.144zm4.28 2.688h.984v-1.952h1.232l1.376 1.952h1.168l-1.512-2.12c.776-.224 1.328-.776 1.328-1.696v-.016c0-.488-.168-.904-.464-1.208-.36-.352-.912-.56-1.616-.56h-2.496v5.6zm.984-2.824v-1.88h1.432c.728 0 1.16.328 1.16.928v.016c0 .568-.448.936-1.152.936h-1.44zm4.717 2.824h4.192v-.88h-3.208v-1.504h2.808v-.88h-2.808v-1.456h3.168v-.88h-4.152v5.6zm-102.991-9h14.924v-4.76h-9.492V147.4h-5.432V167zm19.381 0h5.432v-19.6h-5.432V167zm10.98 0h10.108c4.676 0 7.42-2.044 7.42-5.404v-.056c0-2.66-1.512-4.004-3.892-4.788 1.736-.756 3.024-2.1 3.024-4.368v-.056c0-1.344-.476-2.38-1.26-3.192-1.148-1.12-2.884-1.736-5.348-1.736h-10.052V167zm11.312-13.496c0 1.148-.952 1.708-2.604 1.708h-3.416v-3.444h3.556c1.596 0 2.464.588 2.464 1.68v.056zm.784 7.28v.056c0 1.148-.924 1.792-2.604 1.792h-4.2v-3.612h4.144c1.82 0 2.66.7 2.66 1.764zm9.88 6.216h5.432v-5.936h2.408l3.948 5.936h6.244l-4.676-6.832c2.436-1.036 4.032-3.024 4.032-6.048v-.056c0-1.932-.588-3.416-1.736-4.564-1.316-1.316-3.388-2.1-6.384-2.1h-9.268V167zm5.432-10.192v-4.732h3.584c1.792 0 2.94.784 2.94 2.352v.056c0 1.428-1.092 2.324-2.912 2.324h-3.612zM181.158 167h15.904v-4.62h-10.528v-3.108h9.408v-4.284h-9.408v-2.996h10.388V147.4h-15.764V167zm28.363.336c4.76 0 7.924-2.38 7.924-6.384v-.056c0-3.668-2.8-5.124-7.28-6.104-2.744-.616-3.416-1.008-3.416-1.904v-.056c0-.728.644-1.26 1.96-1.26 1.736 0 3.696.644 5.488 1.932l2.716-3.836c-2.128-1.708-4.732-2.604-8.064-2.604-4.704 0-7.588 2.632-7.588 6.272v.056c0 4.004 3.22 5.18 7.392 6.132 2.688.644 3.332 1.064 3.332 1.904v.056c0 .84-.784 1.344-2.268 1.344-2.268 0-4.396-.812-6.356-2.352l-3.024 3.612c2.436 2.156 5.712 3.248 9.184 3.248z"/></g><path d="M221.5 197H21v-1h201.5v8.5h-1V197z" class="C D"/><g class="E"><path d="M105.153 210.288c-2.128-1.482-4.332-2.432-7.068-2.774v-2.318h-3.952v2.204c-4.788.494-7.98 3.268-7.98 7.448v.076c0 4.56 2.698 6.536 8.17 8.056v6.042c-2.28-.456-4.104-1.52-6.194-3.078l-2.964 4.332c2.546 1.938 5.662 3.192 8.968 3.61v3.838h3.952v-3.762c4.75-.494 8.056-3.23 8.056-7.486v-.076c0-4.256-2.47-6.574-8.246-8.132v-5.776c1.558.418 3.192 1.216 4.712 2.242l2.546-4.446zm-4.56 16.492c0 1.33-.912 2.166-2.698 2.432v-5.32c2.09.76 2.698 1.558 2.698 2.812v.076zm-8.892-12.274c0-1.216.76-2.09 2.622-2.356v5.168c-2.09-.76-2.622-1.52-2.622-2.736v-.076z"/><use xlink:href="#I"/><path d="M133.685 234h6.156v-6.08h-6.156V234zm19.385-4.864c-2.28 0-3.876-.722-5.814-2.28l-3.078 4.446c2.28 1.862 4.826 3.154 8.74 3.154 7.562 0 11.628-5.89 11.628-14.516v-.076c0-5.244-1.254-8.132-3.154-10.032-2.014-2.014-4.142-2.888-7.676-2.888-6.004 0-10.146 3.952-10.146 9.31v.076c0 5.358 3.724 8.588 9.5 8.588 2.28 0 4.028-.646 5.396-1.824-.19 2.28-1.406 6.042-5.396 6.042zm.95-9.082c-2.888 0-4.636-1.596-4.636-3.99v-.076c0-2.394 1.634-4.028 4.522-4.028 2.926 0 4.674 1.672 4.674 4.066v.076c0 2.28-1.672 3.952-4.56 3.952zm23.45 9.082c-2.28 0-3.876-.722-5.814-2.28l-3.078 4.446c2.28 1.862 4.826 3.154 8.74 3.154 7.562 0 11.628-5.89 11.628-14.516v-.076c0-5.244-1.254-8.132-3.154-10.032-2.014-2.014-4.142-2.888-7.676-2.888-6.004 0-10.146 3.952-10.146 9.31v.076c0 5.358 3.724 8.588 9.5 8.588 2.28 0 4.028-.646 5.396-1.824-.19 2.28-1.406 6.042-5.396 6.042zm.95-9.082c-2.888 0-4.636-1.596-4.636-3.99v-.076c0-2.394 1.634-4.028 4.522-4.028 2.926 0 4.674 1.672 4.674 4.066v.076c0 2.28-1.672 3.952-4.56 3.952zm25.654 14.402c7.106 0 11.856-6.042 11.856-13.756v-.076c0-7.752-4.75-13.68-11.78-13.68-7.106 0-11.856 6.042-11.856 13.756v.076c0 7.752 4.636 13.68 11.78 13.68zm.076-5.282c-3.534 0-5.852-3.61-5.852-8.474v-.076c0-4.864 2.28-8.398 5.776-8.398s5.852 3.648 5.852 8.474v.076c0 4.864-2.242 8.398-5.776 8.398z"/></g><g class="C"><path d="M116.015 249.108c1.179 0 1.899-.432 2.556-1.116l-.711-.72c-.54.504-1.035.81-1.809.81-1.206 0-2.079-.999-2.079-2.232v-.018c0-1.233.882-2.223 2.079-2.223.72 0 1.26.315 1.764.783l.711-.819a3.28 3.28 0 0 0-2.466-.981c-1.908 0-3.249 1.467-3.249 3.258v.018c0 1.809 1.368 3.24 3.204 3.24zm2.999-.108h1.134l.648-1.521h2.979l.639 1.521h1.17l-2.772-6.345h-1.026L119.014 249zm2.187-2.502l1.08-2.52 1.089 2.52h-2.169zm5.284 2.502h1.107v-2.196h1.386l1.548 2.196h1.314l-1.701-2.385c.873-.252 1.494-.873 1.494-1.908v-.018c0-.549-.189-1.017-.522-1.359-.405-.396-1.026-.63-1.818-.63h-2.808v6.3zm1.107-3.177v-2.115h1.611c.819 0 1.305.369 1.305 1.044v.018c0 .639-.504 1.053-1.296 1.053h-1.62zm8.205 3.285c1.116 0 2.007-.45 2.628-.981v-2.646h-2.682v.963h1.611v1.179c-.387.288-.927.477-1.521.477-1.287 0-2.142-.954-2.142-2.25v-.018c0-1.206.882-2.223 2.043-2.223.801 0 1.278.261 1.764.675l.702-.837c-.648-.549-1.323-.855-2.421-.855-1.899 0-3.249 1.494-3.249 3.258v.018c0 1.836 1.296 3.24 3.267 3.24z"/><use xlink:href="#J"/><path d="M149.671 249h1.107v-2.565h3.177v-1.008h-3.177v-1.719h3.582V242.7h-4.689v6.3zm5.789 0h1.107v-6.3h-1.107v6.3zm4.009.09c.63 0 1.161-.189 1.53-.558s.594-.927.594-1.674V242.7h-1.143v4.122c0 .846-.405 1.242-.999 1.242-.531 0-.9-.27-1.269-.747l-.729.756a2.37 2.37 0 0 0 2.016 1.017zm6.467.018c1.935 0 3.303-1.485 3.303-3.258v-.018c0-1.773-1.35-3.24-3.285-3.24s-3.303 1.485-3.303 3.258v.018c0 1.773 1.35 3.24 3.285 3.24zm.018-1.026c-1.251 0-2.142-1.008-2.142-2.232v-.018c0-1.224.873-2.223 2.124-2.223s2.142 1.017 2.142 2.241v.018c0 1.224-.873 2.214-2.124 2.214zm6.96.918h1.089v-4.5l1.971 2.952h.036l1.989-2.97V249h1.107v-6.3h-1.179l-1.917 2.979-1.917-2.979h-1.179v6.3zm7.634 0h4.716v-.99h-3.609v-1.692h3.159v-.99h-3.159v-1.638h3.564v-.99h-4.671v6.3zm5.849 0h1.089v-4.482L190.96 249h.927v-6.3h-1.089v4.356l-3.375-4.356h-1.026v6.3zm9.136.09c1.323 0 2.25-.702 2.25-1.881v-.018c0-1.044-.684-1.521-2.016-1.845-1.215-.288-1.503-.504-1.503-.99v-.018c0-.414.378-.747 1.026-.747.576 0 1.143.225 1.71.648l.594-.837a3.49 3.49 0 0 0-2.286-.792c-1.251 0-2.151.747-2.151 1.827v.018c0 1.161.756 1.557 2.097 1.881 1.17.27 1.422.513 1.422.963v.018c0 .468-.432.792-1.116.792-.774 0-1.386-.297-1.989-.819l-.666.792a3.88 3.88 0 0 0 2.628 1.008zm5.954.009c1.647 0 2.709-.945 2.709-2.826V242.7h-1.107v3.627c0 1.161-.603 1.746-1.584 1.746-.99 0-1.593-.621-1.593-1.791V242.7h-1.107v3.627c0 1.827 1.044 2.772 2.682 2.772zm3.28-.099h1.134l.648-1.521h2.979l.639 1.521h1.17l-2.772-6.345h-1.026L204.767 249zm2.187-2.502l1.08-2.52 1.089 2.52h-2.169zm5.284 2.502h4.419v-1.008h-3.312V242.7h-1.107v6.3z"/></g><g fill="#320565"><path d="M232.811 229.17l9.059-6.199-9.059.954v5.245zM6.79 242.998v6.676l-7.986-5.439v-.895l7.986-.342z"/></g><path d="M-2.057 222.981l242.192-21.189L242 223.11-1.148 244.234l-.909-21.253z" class="C"/><g class="B"><path d="M45.542 236.502c2.189-.191 3.863-1.148 5.035-2.319l-.47-5.369-5.489.48.212 2.428 2.343-.205.127 1.454c-.45.367-1.051.592-1.872.663-1.898.166-3.37-1.101-3.541-3.05l-.003-.034c-.16-1.83 1.048-3.383 2.775-3.534 1.197-.105 2.071.232 2.989.876l1.743-2.531c-1.361-.984-2.904-1.486-5.008-1.302-3.694.323-6.19 3.298-5.885 6.787l.003.034c.317 3.626 3.312 5.948 7.04 5.622zm6.845-.84l3.318-.29-.317-3.626 1.471-.128 2.728 3.414 3.814-.334-3.221-3.922c1.432-.763 2.301-2.063 2.139-3.909l-.003-.035c-.103-1.18-.542-2.055-1.304-2.694-.874-.734-2.181-1.102-4.011-.942l-5.66.495 1.047 11.971zm2.773-6.515l-.253-2.89 2.189-.191c1.094-.096 1.837.321 1.921 1.279l.003.034c.076.872-.543 1.478-1.654 1.575l-2.206.193z"/><path d="M63.35 234.703l3.471-.304.666-2.229 4.634-.406 1.044 2.08 3.557-.311-6.151-11.61-3.198.28-4.024 12.5zm4.887-5.201l1.055-3.504 1.63 3.269-2.685.235zm10.864 3.823l3.317-.29-.793-9.064 3.591-.314-.254-2.907-10.483.917.254 2.907 3.574-.313.793 9.064zm8.28-.725l3.318-.29-1.047-11.97-3.318.29 1.047 11.97zm10.058-.673c2.907-.254 4.713-1.877 4.499-4.322l-.003-.034c-.196-2.241-1.984-2.98-4.773-3.339-1.709-.23-2.14-.433-2.188-.981l-.003-.034c-.039-.444.326-.804 1.13-.874 1.06-.093 2.292.196 3.455.887l1.454-2.488c-1.391-.93-3.029-1.338-5.064-1.16-2.873.252-4.494 2.013-4.299 4.236l.003.034c.214 2.446 2.243 2.992 4.842 3.351 1.676.249 2.092.471 2.137.984l.003.035c.045.513-.407.862-1.313.942-1.385.121-2.728-.261-4.008-1.097l-1.654 2.367c1.603 1.187 3.662 1.679 5.783 1.493zm10.836-1.155l3.317-.29-.299-3.42 1.659-.145c2.958-.259 5-1.937 4.752-4.775l-.003-.035c-.231-2.633-2.316-4.019-5.326-3.755l-5.147.45 1.047 11.97zm2.791-6.309l-.277-3.164 1.573-.138c1.18-.103 1.962.363 2.052 1.389l.003.034c.082.941-.598 1.638-1.761 1.74l-1.59.139zm14.602 5.029c3.693-.323 6.22-3.353 5.919-6.79l-.003-.034c-.301-3.438-3.278-5.951-6.971-5.628s-6.221 3.353-5.92 6.79l.003.034c.301 3.437 3.278 5.951 6.972 5.628zm-.228-2.996c-1.83.161-3.21-1.235-3.361-2.962l-.003-.035c-.151-1.727.935-3.304 2.764-3.464s3.191 1.22 3.344 2.965l.003.034c.151 1.727-.934 3.304-2.747 3.462zm8.211 2.056l3.317-.29-.317-3.625 1.471-.129 2.728 3.414 3.814-.333-3.221-3.923c1.432-.763 2.301-2.062 2.139-3.909l-.003-.034c-.103-1.18-.541-2.055-1.304-2.695-.874-.733-2.181-1.101-4.011-.941l-5.66.495 1.047 11.97zm2.773-6.515l-.253-2.89 2.189-.191c1.094-.096 1.837.322 1.921 1.279l.003.034c.076.873-.543 1.478-1.654 1.575l-2.206.193zm15.646 4.904l3.266-.286-1.055-12.056-2.411.211-3.419 1.299.857 2.509 1.976-.655.786 8.978zm8.947-.783l3.472-.304.666-2.229 4.635-.406 1.043 2.08 3.557-.311-6.151-11.61-3.197.28-4.025 12.5zm4.887-5.201l1.055-3.504 1.63 3.269-2.685.235zm15.643-9.484c1.162-.102 1.705-.994 1.916-2.718l-1.594-.292c-.176.55-.341.823-.82.865-.257.022-.644-.064-1.119-.178-.563-.14-1.197-.292-1.761-.242-1.18.103-1.704 1.01-1.932 2.736l1.594.292c.174-.567.357-.841.836-.883.239-.021.627.083 1.102.196.581.139 1.213.273 1.778.224zm-6.166 13.428l3.283-.287-.574-6.566 5.704 6.117 2.89-.252-1.047-11.971-3.283.287.553 6.328-5.478-5.897-3.096.271 1.048 11.97zm19.313-1.448c3.694-.323 6.22-3.353 5.919-6.79l-.003-.034c-.3-3.438-3.277-5.951-6.971-5.628s-6.22 3.353-5.919 6.79l.002.034c.301 3.437 3.278 5.951 6.972 5.628zm-.228-2.996c-1.829.16-3.209-1.235-3.361-2.962l-.003-.035c-.151-1.727.935-3.304 2.765-3.464s3.191 1.22 3.343 2.965l.003.034c.152 1.727-.934 3.304-2.747 3.462z"/></g><g fill="#4d008c"><path d="M70.198 279.5h3.393c2.86 0 4.836-1.989 4.836-4.55v-.026c0-2.561-1.976-4.524-4.836-4.524h-3.393v9.1zm3.393-7.644c1.911 0 3.159 1.313 3.159 3.094v.026c0 1.781-1.248 3.068-3.159 3.068h-1.794v-6.188h1.794z"/><use xlink:href="#K"/><use xlink:href="#L"/><use xlink:href="#M"/><path d="M104.591 279.643c1.066 0 1.703-.559 2.145-1.209v1.066h1.586v-6.864h-1.586v3.874c0 1.066-.637 1.69-1.547 1.69-.936 0-1.469-.598-1.469-1.664v-3.9h-1.573v4.368c0 1.599.897 2.639 2.444 2.639zm7.763-7.878h1.183l1.599-1.495-1.43-.637-1.352 2.132zm.819 7.891c1.261 0 2.158-.507 2.808-1.287l-.923-.819c-.546.533-1.092.819-1.859.819-1.014 0-1.807-.624-1.976-1.742h5.044l.026-.442c0-1.976-1.105-3.692-3.289-3.692-1.963 0-3.354 1.612-3.354 3.575v.026c0 2.119 1.534 3.562 3.523 3.562zm-1.963-4.069c.143-1.066.819-1.807 1.781-1.807 1.04 0 1.638.793 1.742 1.807h-3.523zm8.755 4.043c1.43 0 2.548-.715 2.548-2.158v-.026c0-1.235-1.131-1.69-2.132-2.002-.806-.26-1.547-.468-1.547-.975v-.026c0-.39.351-.676.962-.676.572 0 1.274.247 1.937.65l.624-1.118a4.76 4.76 0 0 0-2.522-.78c-1.365 0-2.444.793-2.444 2.093v.026c0 1.313 1.131 1.729 2.145 2.015.806.247 1.534.429 1.534.962v.026c0 .455-.39.741-1.066.741-.702 0-1.495-.286-2.249-.845l-.702 1.066c.858.676 1.937 1.027 2.912 1.027zm10.372.013c1.118 0 1.833-.572 2.34-1.287v1.144h1.573v-9.49h-1.573v3.692c-.494-.65-1.209-1.209-2.34-1.209-1.638 0-3.185 1.287-3.185 3.562v.026c0 2.275 1.573 3.562 3.185 3.562zm.377-1.365c-1.066 0-1.976-.871-1.976-2.197v-.026c0-1.365.897-2.197 1.976-2.197 1.053 0 1.989.871 1.989 2.197v.026c0 1.313-.936 2.197-1.989 2.197zm8.396 1.378c1.261 0 2.158-.507 2.808-1.287l-.923-.819c-.546.533-1.092.819-1.859.819-1.014 0-1.807-.624-1.976-1.742h5.044l.026-.442c0-1.976-1.105-3.692-3.289-3.692-1.963 0-3.354 1.612-3.354 3.575v.026c0 2.119 1.534 3.562 3.523 3.562zm-1.963-4.069c.143-1.066.819-1.807 1.781-1.807 1.04 0 1.638.793 1.742 1.807h-3.523zm11.366 3.913h1.586v-9.165h-1.105l-2.457.78.338 1.3 1.638-.455v7.54z"/><use xlink:href="#N"/><path d="M163.089 279.5h1.573v-3.874c0-1.066.637-1.703 1.547-1.703.936 0 1.469.611 1.469 1.677v3.9h1.573v-4.381c0-1.586-.897-2.626-2.444-2.626-1.066 0-1.703.559-2.145 1.196v-1.053h-1.573v6.864zm4.121-7.735c.793 0 1.17-.572 1.456-1.625l-.871-.26c-.195.442-.338.65-.715.65-.208 0-.494-.117-.78-.247-.325-.13-.702-.273-1.092-.273-.793 0-1.17.572-1.456 1.612l.871.273c.195-.442.338-.65.715-.65.221 0 .494.117.78.247.325.13.702.273 1.092.273zm6.944 7.891c2.119 0 3.679-1.625 3.679-3.575v-.026c0-1.963-1.547-3.562-3.653-3.562s-3.666 1.625-3.666 3.588v.026c0 1.95 1.547 3.549 3.64 3.549zm.026-1.378c-1.222 0-2.093-1.001-2.093-2.197v-.026c0-1.196.806-2.184 2.067-2.184 1.235 0 2.106 1.001 2.106 2.21v.026c0 1.183-.806 2.171-2.08 2.171zm8.632 3.302h1.573v-3.146c.481.637 1.196 1.209 2.34 1.209 1.625 0 3.185-1.287 3.185-3.562v-.026c0-2.288-1.573-3.562-3.185-3.562-1.118 0-1.833.572-2.34 1.287v-1.144h-1.573v8.944zm3.536-3.302c-1.066 0-2.002-.884-2.002-2.197v-.026c0-1.313.936-2.197 2.002-2.197s1.963.871 1.963 2.197v.026c0 1.352-.884 2.197-1.963 2.197zm6.902 1.365c1.053 0 1.768-.442 2.236-1.001v.858h1.534v-4.069c0-.897-.234-1.625-.741-2.119-.481-.494-1.248-.767-2.275-.767-1.092 0-1.833.221-2.587.559l.416 1.235c.624-.26 1.196-.429 1.963-.429 1.105 0 1.703.52 1.703 1.495v.169c-.533-.169-1.079-.286-1.846-.286-1.677 0-2.834.728-2.834 2.21v.026c0 1.378 1.144 2.119 2.431 2.119zm.442-1.144c-.754 0-1.339-.377-1.339-1.04v-.026c0-.715.598-1.144 1.612-1.144a4.36 4.36 0 0 1 1.56.273v.468c0 .871-.793 1.469-1.833 1.469zm8.007 3.107c1.235 0 2.197-.299 2.821-.923.572-.572.871-1.43.871-2.587v-5.46h-1.573v1.027c-.533-.637-1.248-1.17-2.405-1.17-1.599 0-3.12 1.196-3.12 3.224v.026c0 2.015 1.508 3.211 3.12 3.211 1.131 0 1.846-.52 2.418-1.261v.533c0 1.378-.767 2.106-2.171 2.106-.936 0-1.703-.273-2.444-.728l-.585 1.183c.884.533 1.937.819 3.068.819zm.13-3.991c-1.079 0-1.95-.767-1.95-1.885v-.026c0-1.131.858-1.885 1.95-1.885s2.015.767 2.015 1.885v.026c0 1.118-.923 1.885-2.015 1.885zm7.252 2.028c1.053 0 1.768-.442 2.236-1.001v.858h1.534v-4.069c0-.897-.234-1.625-.741-2.119-.481-.494-1.248-.767-2.275-.767-1.092 0-1.833.221-2.587.559l.416 1.235c.624-.26 1.196-.429 1.963-.429 1.105 0 1.703.52 1.703 1.495v.169c-.533-.169-1.079-.286-1.846-.286-1.677 0-2.834.728-2.834 2.21v.026c0 1.378 1.144 2.119 2.431 2.119zm.442-1.144c-.754 0-1.339-.377-1.339-1.04v-.026c0-.715.598-1.144 1.612-1.144a4.36 4.36 0 0 1 1.56.273v.468c0 .871-.793 1.469-1.833 1.469zm7.305 1.131c1.43 0 2.548-.715 2.548-2.158v-.026c0-1.235-1.131-1.69-2.132-2.002-.806-.26-1.547-.468-1.547-.975v-.026c0-.39.351-.676.962-.676.572 0 1.274.247 1.937.65l.624-1.118a4.76 4.76 0 0 0-2.522-.78c-1.365 0-2.444.793-2.444 2.093v.026c0 1.313 1.131 1.729 2.145 2.015.806.247 1.534.429 1.534.962v.026c0 .455-.39.741-1.066.741-.702 0-1.495-.286-2.249-.845l-.702 1.066c.858.676 1.937 1.027 2.912 1.027zm-92.196 18.002c1.441 0 2.321-.528 3.124-1.364l-.869-.88c-.66.616-1.265.99-2.211.99-1.474 0-2.541-1.221-2.541-2.728v-.022c0-1.507 1.078-2.717 2.541-2.717.88 0 1.54.385 2.156.957l.869-1.001c-.737-.704-1.595-1.199-3.014-1.199-2.332 0-3.971 1.793-3.971 3.982v.022c0 2.211 1.672 3.96 3.916 3.96z"/><use xlink:href="#O"/><path d="M135.04 297.5h1.331v-2.211c0-1.54.814-2.299 1.98-2.299h.077v-1.408c-1.023-.044-1.694.55-2.057 1.419v-1.309h-1.331v5.808zm6.748 1.782c1.045 0 1.859-.253 2.387-.781.484-.484.737-1.21.737-2.189v-4.62h-1.331v.869c-.451-.539-1.056-.99-2.035-.99-1.353 0-2.64 1.012-2.64 2.728v.022c0 1.705 1.276 2.717 2.64 2.717.957 0 1.562-.44 2.046-1.067v.451c0 1.166-.649 1.782-1.837 1.782-.792 0-1.441-.231-2.068-.616l-.495 1.001c.748.451 1.639.693 2.596.693zm.11-3.377c-.913 0-1.65-.649-1.65-1.595v-.022c0-.957.726-1.595 1.65-1.595s1.705.649 1.705 1.595v.022c0 .946-.781 1.595-1.705 1.595z"/><use xlink:href="#P"/><path d="M156.747 297.5h1.331v-4.664h1.518v-1.1h-1.54v-.319c0-.605.264-.88.77-.88.286 0 .517.055.781.143v-1.122a3.56 3.56 0 0 0-1.078-.154c-.572 0-1.001.154-1.309.462s-.473.792-.473 1.43v.429h-.737v1.111h.737v4.664zm3.641-6.699h1.43v-1.265h-1.43v1.265zm.055 6.699h1.331v-5.808h-1.331v5.808zm2.872-6.699h1.43v-1.265h-1.43v1.265zm-.297 8.492c1.078 0 1.683-.539 1.683-1.716v-5.885h-1.331v5.808c0 .506-.253.704-.627.704-.121 0-.242-.011-.374-.033v1.067a3.76 3.76 0 0 0 .649.055zm5.964-1.661c1.793 0 3.113-1.375 3.113-3.025v-.022c0-1.661-1.309-3.014-3.091-3.014s-3.102 1.375-3.102 3.036v.022c0 1.65 1.309 3.003 3.08 3.003zm.022-1.166c-1.034 0-1.771-.847-1.771-1.859v-.022c0-1.012.682-1.848 1.749-1.848 1.045 0 1.782.847 1.782 1.87v.022c0 1.001-.682 1.837-1.76 1.837zm7.304 1.034h1.331v-3.278c0-.891.506-1.441 1.243-1.441s1.177.506 1.177 1.408v3.311h1.331v-3.278c0-.935.517-1.441 1.243-1.441.748 0 1.177.495 1.177 1.419v3.3h1.331v-3.707c0-1.419-.77-2.222-2.035-2.222-.88 0-1.496.407-1.958 1.023-.308-.616-.902-1.023-1.738-1.023-.891 0-1.397.484-1.771 1.001v-.88h-1.331v5.808zm12.894.132c1.067 0 1.826-.429 2.376-1.089l-.781-.693c-.462.451-.924.693-1.573.693-.858 0-1.529-.528-1.672-1.474h4.268l.022-.374c0-1.672-.935-3.124-2.783-3.124-1.661 0-2.838 1.364-2.838 3.025v.022c0 1.793 1.298 3.014 2.981 3.014zm-1.661-3.443c.121-.902.693-1.529 1.507-1.529.88 0 1.386.671 1.474 1.529h-2.981zm5.418 3.311h1.331v-3.278c0-.902.539-1.441 1.309-1.441.792 0 1.243.517 1.243 1.419v3.3h1.331v-3.707c0-1.342-.759-2.222-2.068-2.222-.902 0-1.441.473-1.815 1.012v-.891h-1.331v5.808zm8.592.11c1.21 0 2.156-.605 2.156-1.826v-.022c0-1.045-.957-1.43-1.804-1.694-.682-.22-1.309-.396-1.309-.825v-.022c0-.33.297-.572.814-.572.484 0 1.078.209 1.639.55l.528-.946c-.616-.407-1.408-.66-2.134-.66-1.155 0-2.068.671-2.068 1.771v.022c0 1.111.957 1.463 1.815 1.705.682.209 1.298.363 1.298.814v.022c0 .385-.33.627-.902.627-.594 0-1.265-.242-1.903-.715l-.594.902a4.08 4.08 0 0 0 2.464.869zm5.302.011c.902 0 1.441-.473 1.815-1.023v.902h1.342v-5.808h-1.342v3.278c0 .902-.539 1.43-1.309 1.43-.792 0-1.243-.506-1.243-1.408v-3.3h-1.331v3.696c0 1.353.759 2.233 2.068 2.233zm6.271 0c.891 0 1.496-.374 1.892-.847v.726h1.298v-3.443c0-.759-.198-1.375-.627-1.793-.407-.418-1.056-.649-1.925-.649-.924 0-1.551.187-2.189.473l.352 1.045c.528-.22 1.012-.363 1.661-.363.935 0 1.441.44 1.441 1.265v.143a4.85 4.85 0 0 0-1.562-.242c-1.419 0-2.398.616-2.398 1.87v.022c0 1.166.968 1.793 2.057 1.793zm.374-.968c-.638 0-1.133-.319-1.133-.88v-.022c0-.605.506-.968 1.364-.968a3.69 3.69 0 0 1 1.32.231v.396c0 .737-.671 1.243-1.551 1.243zm4.267.847h1.331v-8.03h-1.331v8.03z"/></g><g class="E"><path d="M66.516 287.392c-.952-.663-1.938-1.088-3.162-1.241v-1.037h-1.768v.986c-2.142.221-3.57 1.462-3.57 3.332v.034c0 2.04 1.207 2.924 3.655 3.604v2.703c-1.02-.204-1.836-.68-2.771-1.377l-1.326 1.938c1.139.867 2.533 1.428 4.012 1.615v1.717h1.768v-1.683c2.125-.221 3.604-1.445 3.604-3.349v-.034c0-1.904-1.105-2.941-3.689-3.638v-2.584c.697.187 1.428.544 2.108 1.003l1.139-1.989zm-2.04 7.378c0 .595-.408.969-1.207 1.088v-2.38c.935.34 1.207.697 1.207 1.258v.034zm-3.978-5.491c0-.544.34-.935 1.173-1.054v2.312c-.935-.34-1.173-.68-1.173-1.224v-.034z"/><use xlink:href="#Q"/><path d="M79.28 298h2.754v-2.72H79.28V298zm8.672-2.176c-1.02 0-1.734-.323-2.601-1.02l-1.377 1.989c1.02.833 2.159 1.411 3.91 1.411 3.383 0 5.202-2.635 5.202-6.494v-.034c0-2.346-.561-3.638-1.411-4.488-.901-.901-1.853-1.292-3.434-1.292-2.686 0-4.539 1.768-4.539 4.165v.034c0 2.397 1.666 3.842 4.25 3.842 1.02 0 1.802-.289 2.414-.816-.085 1.02-.629 2.703-2.414 2.703zm.425-4.063c-1.292 0-2.074-.714-2.074-1.785v-.034c0-1.071.731-1.802 2.023-1.802 1.309 0 2.091.748 2.091 1.819v.034c0 1.02-.748 1.768-2.04 1.768zm10.491 4.063c-1.02 0-1.734-.323-2.601-1.02l-1.377 1.989c1.02.833 2.159 1.411 3.91 1.411 3.383 0 5.202-2.635 5.202-6.494v-.034c0-2.346-.561-3.638-1.411-4.488-.901-.901-1.853-1.292-3.434-1.292-2.686 0-4.539 1.768-4.539 4.165v.034c0 2.397 1.666 3.842 4.25 3.842 1.02 0 1.802-.289 2.414-.816-.085 1.02-.629 2.703-2.414 2.703zm.425-4.063c-1.292 0-2.074-.714-2.074-1.785v-.034c0-1.071.731-1.802 2.023-1.802 1.309 0 2.091.748 2.091 1.819v.034c0 1.02-.748 1.768-2.04 1.768zm11.477 6.443c3.179 0 5.304-2.703 5.304-6.154v-.034c0-3.468-2.125-6.12-5.27-6.12-3.179 0-5.304 2.703-5.304 6.154v.034c0 3.468 2.074 6.12 5.27 6.12zm.034-2.363c-1.581 0-2.618-1.615-2.618-3.791v-.034c0-2.176 1.02-3.757 2.584-3.757s2.618 1.632 2.618 3.791v.034c0 2.176-1.003 3.757-2.584 3.757z"/></g><path d="M225.5 264.5H25v-1h201.5v8.5h-1v-7.5z" class="C D"/><path d="M6 6H234V55H6V6Z" class="E"/><g class="B"><path d="M69.056 13.8h-4.96V27h2.7v-4.66h2.26c2.78 0 4.76-1.74 4.76-4.28 0-2.58-1.98-4.26-4.76-4.26zm0 2.38c1.26 0 2 .78 2 1.88 0 1.14-.74 1.92-2 1.92h-2.26v-3.8h2.26z"/><use xlink:href="#R"/><path d="M102.678 27l-3.74-5.2c1.42-.7 2.32-2.04 2.32-3.74 0-2.58-1.98-4.26-4.76-4.26h-4.96V27h2.7v-4.66h1.98l3.42 4.66h3.04zm-8.44-10.82h2.26c1.26 0 2 .78 2 1.88 0 1.14-.74 1.9-2 1.9h-2.26v-3.78zm19.505-2.38h-11.16v2.44h4.22V27h2.7V16.24h4.24V13.8z"/><use xlink:href="#S"/><path d="M142.93 13.8h-2.7v7.94c0 1.98-1.24 3-2.9 3-1.64 0-2.9-1.02-2.9-3V13.8h-2.7v7.74c0 3.54 2.38 5.7 5.6 5.7 3.2 0 5.6-2.16 5.6-5.7V13.8zm11.464 0v7.86l-7.66-8.1h-.88V27h2.7v-7.92l7.64 8.16h.9V13.8h-2.7zM168.632 27h2.9l-5.88-13.44h-.9l-5.9 13.44h2.9l.74-1.72h5.4l.74 1.72zm-1.7-3.94h-3.48l1.74-4.44 1.74 4.44zM41.63 34.8h-2.7V48h8.48v-2.44h-5.78V34.8zm12.789-5h-3.26l-1.44 3.72h1.96l2.74-3.24v-.48zm-2.3 5h-2.7V48h2.7V34.8zm11.562 0v7.86l-7.66-8.1h-.88V48h2.7v-7.92l7.64 8.16h.9V34.8h-2.7zm14.598 0h-8.88V48h9.12v-2.44h-6.42v-3.34h4.54v-2.3h-4.54v-2.68h6.18V34.8zM89.384 48h2.9l-5.88-13.44h-.9L79.604 48h2.9l.74-1.72h5.4l.74 1.72zm-1.7-3.94h-3.48l1.74-4.44 1.74 4.44zM106.22 48h2.9l-5.88-13.44h-.9L96.44 48h2.9l.74-1.72h5.4l.74 1.72zm-1.7-3.94h-3.48l1.74-4.44 1.74 4.44zm10.722-9.26h-4.32V48h4.32c4.24 0 7.2-2.74 7.2-6.64 0-3.96-2.96-6.56-7.2-6.56zm-.02 2.44c2.66 0 4.44 1.52 4.44 4.12 0 2.54-1.78 4.2-4.44 4.2h-1.6v-8.32h1.6zm12.209-2.44h-2.7V48h2.7V34.8zm9.303-.24c-3.94 0-7.04 2.96-7.04 6.84s3.1 6.84 7.02 6.84c2.56 0 4.7-1.26 5.84-3.28l-2.04-1.44c-.88 1.4-2.12 2.22-3.78 2.22-2.46 0-4.26-1.78-4.26-4.32 0-2.56 1.8-4.36 4.26-4.36 1.66 0 2.9.82 3.78 2.22l2.04-1.44c-1.16-2.02-3.28-3.28-5.82-3.28zm10.814.24h-2.7V48h2.7V34.8zm9.263-.24c-3.88 0-7 2.96-7 6.84s3.12 6.84 7 6.84 7.04-2.96 7.04-6.84-3.16-6.84-7.04-6.84zm.02 2.5c2.42 0 4.24 1.8 4.24 4.34 0 2.56-1.82 4.34-4.24 4.34-2.46 0-4.24-1.78-4.24-4.34 0-2.54 1.78-4.34 4.24-4.34zm17.846-2.26v7.86l-7.66-8.1h-.88V48h2.7v-7.92l7.64 8.16h.9V34.8h-2.7zM188.915 48h2.9l-5.88-13.44h-.9l-5.9 13.44h2.9l.74-1.72h5.4l.74 1.72zm-1.7-3.94h-3.48l1.74-4.44 1.74 4.44zm9.103-9.26h-2.7V48h8.48v-2.44h-5.78V34.8z"/></g></g><defs><radialGradient id="A" cx="0" cy="0" r="1" gradientUnits="userSpaceOnUse" gradientTransform="translate(29.816 169.575) scale(16.7456 16.6681)"><stop stop-color="#f2ca74"/><stop offset=".246" stop-color="#e59855"/><stop offset=".379" stop-color="#e25c3c"/><stop offset=".7" stop-color="#b53181"/><stop offset=".985" stop-color="#5c6ba5"/></radialGradient><clipPath id="B"><path d="M0 0h252v310H0z" class="B"/></clipPath><path id="C" d="M121.522 100.336c3.584 0 6.356-1.4 8.372-3.108v-8.512h-8.512v3.724h4.34v2.8c-1.092.784-2.464 1.176-4.06 1.176-3.472 0-5.936-2.632-5.936-6.216v-.056c0-3.332 2.492-6.104 5.628-6.104 2.24 0 3.64.728 5.124 1.988l2.716-3.276c-2.016-1.736-4.2-2.688-7.7-2.688-5.936 0-10.276 4.564-10.276 10.136v.056c0 5.824 4.2 10.08 10.304 10.08z"/><path id="D" d="M35.427 127.196c2.8 0 4.55-2.324 4.55-5.096v-.028c0-2.772-1.736-5.068-4.522-5.068s-4.55 2.324-4.55 5.096v.028c0 2.772 1.736 5.068 4.522 5.068zm.028-2.408c-1.092 0-1.82-1.12-1.82-2.688v-.028c0-1.568.714-2.674 1.792-2.674 1.092 0 1.82 1.134 1.82 2.702v.028c0 1.554-.7 2.66-1.792 2.66z"/><path id="E" d="M106.72 176h4.192v-.88h-3.208v-1.504h2.808v-.88h-2.808v-1.456h3.168v-.88h-4.152v5.6z"/><path id="F" d="M153.92 176h.984v-1.8h1.112c1.232 0 2.24-.656 2.24-1.912v-.016c0-1.128-.816-1.872-2.128-1.872h-2.208v5.6zm.984-2.688v-2.016h1.144c.736 0 1.208.344 1.208 1v.016c0 .584-.464 1-1.208 1h-1.144z"/><path id="G" d="M158.141 176h1.008l.576-1.352h2.648l.568 1.352h1.04l-2.464-5.64h-.912l-2.464 5.64zm1.944-2.224l.96-2.24.968 2.24h-1.928z"/><path id="H" d="M164.862 176h.984v-1.952h1.232l1.376 1.952h1.168l-1.512-2.12c.776-.224 1.328-.776 1.328-1.696v-.016c0-.488-.168-.904-.464-1.208-.36-.352-.912-.56-1.616-.56h-2.496v5.6zm.984-2.824v-1.88h1.432c.728 0 1.16.328 1.16.928v.016c0 .568-.448.936-1.152.936h-1.44z"/><path id="I" d="M118.928 229.136c-2.28 0-3.876-.722-5.814-2.28l-3.078 4.446c2.28 1.862 4.826 3.154 8.74 3.154 7.562 0 11.628-5.89 11.628-14.516v-.076c0-5.244-1.254-8.132-3.154-10.032-2.014-2.014-4.142-2.888-7.676-2.888-6.004 0-10.146 3.952-10.146 9.31v.076c0 5.358 3.724 8.588 9.5 8.588 2.28 0 4.028-.646 5.396-1.824-.19 2.28-1.406 6.042-5.396 6.042zm.95-9.082c-2.888 0-4.636-1.596-4.636-3.99v-.076c0-2.394 1.634-4.028 4.522-4.028 2.926 0 4.674 1.672 4.674 4.066v.076c0 2.28-1.672 3.952-4.56 3.952z"/><path id="J" d="M142.692 249.108c1.935 0 3.303-1.485 3.303-3.258v-.018c0-1.773-1.35-3.24-3.285-3.24s-3.303 1.485-3.303 3.258v.018c0 1.773 1.35 3.24 3.285 3.24zm.018-1.026c-1.251 0-2.142-1.008-2.142-2.232v-.018c0-1.224.873-2.223 2.124-2.223s2.142 1.017 2.142 2.241v.018c0 1.224-.873 2.214-2.124 2.214z"/><path id="K" d="M83.071 279.656c1.261 0 2.158-.507 2.808-1.287l-.923-.819c-.546.533-1.092.819-1.859.819-1.014 0-1.807-.624-1.976-1.742h5.044l.026-.442c0-1.976-1.105-3.692-3.289-3.692-1.963 0-3.354 1.612-3.354 3.575v.026c0 2.119 1.534 3.562 3.523 3.562zm-1.963-4.069c.143-1.066.819-1.807 1.781-1.807 1.04 0 1.638.793 1.742 1.807h-3.523z"/><path id="L" d="M89.864 279.63c1.43 0 2.548-.715 2.548-2.158v-.026c0-1.235-1.131-1.69-2.132-2.002-.806-.26-1.547-.468-1.547-.975v-.026c0-.39.351-.676.962-.676.572 0 1.274.247 1.937.65l.624-1.118a4.76 4.76 0 0 0-2.522-.78c-1.365 0-2.444.793-2.444 2.093v.026c0 1.313 1.131 1.729 2.145 2.015.806.247 1.534.429 1.534.962v.026c0 .455-.39.741-1.066.741-.702 0-1.495-.286-2.249-.845l-.702 1.066c.858.676 1.937 1.027 2.912 1.027z"/><path id="M" d="M93.764 281.58h1.573v-3.146c.481.637 1.196 1.209 2.34 1.209 1.625 0 3.185-1.287 3.185-3.562v-.026c0-2.288-1.573-3.562-3.185-3.562-1.118 0-1.833.572-2.34 1.287v-1.144h-1.573v8.944zm3.536-3.302c-1.066 0-2.002-.884-2.002-2.197v-.026c0-1.313.936-2.197 2.002-2.197s1.963.871 1.963 2.197v.026c0 1.352-.884 2.197-1.963 2.197z"/><path id="N" d="M157.695 279.643c1.053 0 1.768-.442 2.236-1.001v.858h1.534v-4.069c0-.897-.234-1.625-.741-2.119-.481-.494-1.248-.767-2.275-.767-1.092 0-1.833.221-2.587.559l.416 1.235c.624-.26 1.196-.429 1.963-.429 1.105 0 1.703.52 1.703 1.495v.169c-.533-.169-1.079-.286-1.846-.286-1.677 0-2.834.728-2.834 2.21v.026c0 1.378 1.144 2.119 2.431 2.119zm.442-1.144c-.754 0-1.339-.377-1.339-1.04v-.026c0-.715.598-1.144 1.612-1.144a4.36 4.36 0 0 1 1.56.273v.468c0 .871-.793 1.469-1.833 1.469z"/><path id="O" d="M130.476 297.621c.891 0 1.496-.374 1.892-.847v.726h1.298v-3.443c0-.759-.198-1.375-.627-1.793-.407-.418-1.056-.649-1.925-.649-.924 0-1.551.187-2.189.473l.352 1.045c.528-.22 1.012-.363 1.661-.363.935 0 1.441.44 1.441 1.265v.143a4.85 4.85 0 0 0-1.562-.242c-1.419 0-2.398.616-2.398 1.87v.022c0 1.166.968 1.793 2.057 1.793zm.374-.968c-.638 0-1.133-.319-1.133-.88v-.022c0-.605.506-.968 1.364-.968a3.69 3.69 0 0 1 1.32.231v.396c0 .737-.671 1.243-1.551 1.243z"/><path id="P" d="M149.124 297.632c1.793 0 3.113-1.375 3.113-3.025v-.022c0-1.661-1.309-3.014-3.091-3.014s-3.102 1.375-3.102 3.036v.022c0 1.65 1.309 3.003 3.08 3.003zm.022-1.166c-1.034 0-1.771-.847-1.771-1.859v-.022c0-1.012.682-1.848 1.749-1.848 1.045 0 1.782.847 1.782 1.87v.022c0 1.001-.682 1.837-1.76 1.837z"/><path id="Q" d="M72.678 295.824c-1.02 0-1.734-.323-2.601-1.02l-1.377 1.989c1.02.833 2.159 1.411 3.91 1.411 3.383 0 5.202-2.635 5.202-6.494v-.034c0-2.346-.561-3.638-1.411-4.488-.901-.901-1.853-1.292-3.434-1.292-2.686 0-4.539 1.768-4.539 4.165v.034c0 2.397 1.666 3.842 4.25 3.842 1.02 0 1.802-.289 2.414-.816-.085 1.02-.629 2.703-2.414 2.703zm.425-4.063c-1.292 0-2.074-.714-2.074-1.785v-.034c0-1.071.731-1.802 2.023-1.802 1.309 0 2.091.748 2.091 1.819v.034c0 1.02-.748 1.768-2.04 1.768z"/><path id="R" d="M82.211 13.56c-3.88 0-7 2.96-7 6.84s3.12 6.84 7 6.84 7.04-2.96 7.04-6.84-3.16-6.84-7.04-6.84zm.02 2.5c2.42 0 4.24 1.8 4.24 4.34 0 2.56-1.82 4.34-4.24 4.34-2.46 0-4.24-1.78-4.24-4.34 0-2.54 1.78-4.34 4.24-4.34z"/><path id="S" d="M122.538 27h2.9l-5.88-13.44h-.9l-5.9 13.44h2.9l.74-1.72h5.4l.74 1.72zm-1.7-3.94h-3.48l1.74-4.44 1.74 4.44z"/></defs></svg>