<svg xmlns="http://www.w3.org/2000/svg" xmlns:xlink="http://www.w3.org/1999/xlink" width="254" height="216" fill="none" xmlns:v="https://vecta.io/nano"><path d="M0 10H250V216H0V10Z" fill="#4f008c"/><path d="M4 0H254V210H4V0Z" fill="#fff"/><g fill="#e92070"><path d="M69.454 28v-8.892H63.89v2.548h2.028v1.794c0 .936-.676 1.846-2.054 1.846-1.326 0-2.028-.91-2.028-1.846v-8.216c0-.962.65-1.846 2.002-1.846 1.378 0 1.95.832 1.95 1.794v1.404h3.588v-1.3c0-2.704-1.872-5.018-5.564-5.018s-5.746 2.444-5.746 5.018v8.112c0 2.678 1.742 5.044 5.174 5.044 1.638 0 3.042-.728 3.718-2.028L67.426 28h2.028zm5.944 0V10.684H71.68V28h3.718zm13.734 0v-8.892h-5.564v2.548h2.028v1.794c0 .936-.676 1.846-2.054 1.846-1.326 0-2.028-.91-2.028-1.846v-8.216c0-.962.65-1.846 2.002-1.846 1.378 0 1.95.832 1.95 1.794v1.404h3.588v-1.3c0-2.704-1.872-5.018-5.564-5.018s-5.746 2.444-5.746 5.018v8.112c0 2.678 1.742 5.044 5.174 5.044 1.638 0 3.042-.728 3.718-2.028L87.104 28h2.028zm13.301 0l-4.03-17.316h-4.16L90.187 28h3.484l.728-3.432h3.588L98.715 28h3.718zm-4.94-6.188h-2.548l1.326-6.318 1.222 6.318z"/><use xlink:href="#B"/><path d="M130.172 28v-3.198h-5.694V10.684h-3.718V28h9.412zm5.3 0V10.684h-3.718V28h3.718zm13.318-3.978v-1.664c0-1.612-.676-2.834-2.522-3.224 1.768-.312 2.418-1.586 2.418-3.224v-1.248c0-2.47-1.534-3.978-4.342-3.978H138V28h6.422c2.808 0 4.368-1.482 4.368-3.978zm-3.64-7.514c0 1.014-.52 1.508-1.482 1.508h-1.924v-4.42h2.08c.962 0 1.326.546 1.326 1.404v1.508zm.078 7.202c0 .858-.364 1.378-1.326 1.378h-2.158V20.59h2.002c.962 0 1.482.52 1.482 1.534v1.586zm17.316 4.394v-1.092c-.468-.416-.728-.962-.728-1.768V22.41c0-1.196-.754-2.496-2.314-2.86 1.56-.416 2.236-1.482 2.236-2.886v-1.872c0-2.496-1.69-4.108-4.498-4.108H151V28h3.718v-7.072h2.002c1.066 0 1.534.78 1.534 1.69v2.834c0 1.612.572 2.652 2.08 2.652h2.21zM158.15 16.82c0 1.04-.52 1.534-1.482 1.534h-1.95v-4.758h2.106c.962 0 1.326.546 1.326 1.404v1.82zM173.798 28v-3.25h-5.928v-4.342h4.082V17.6h-4.082v-3.796h5.928v-3.12h-9.646V28h9.646z"/><use xlink:href="#B" x="72.007"/></g><path d="M21.74 20.191v-1.71c0-1.9-1.121-3.135-3.249-3.135h-4.579V28h2.717v-4.693h1.862c2.128 0 3.249-1.235 3.249-3.116zm-2.603.038c0 .684-.266 1.064-.969 1.064h-1.539v-3.819h1.539c.703 0 .969.38.969 1.064v1.691zM30.03 28v-2.337h-4.161V15.346h-2.717V28h6.878zm9.343 0l-2.945-12.654h-3.04L30.424 28h2.546l.532-2.508h2.622L36.656 28h2.717zm-3.61-4.522h-1.862l.969-4.617.893 4.617zM48.808 28V15.346h-2.451v7.258l-1.026-2.071-2.717-5.187h-2.261V28h2.489v-7.144l1.083 2.071L46.718 28h2.09z" fill="#4f008c"/><path d="M244 19.5h.5v-1h-.5v1zm-44.354-.854a.5.5 0 0 0 0 .707l3.182 3.182a.5.5 0 1 0 .708-.707L200.707 19l2.829-2.828a.5.5 0 1 0-.708-.707l-3.182 3.182zM244 18.5h-44v1h44v-1z" fill="#ff2083"/><g fill="#4f008c"><path d="M24.863 52V40.678h-3.247l-1.343 5.763-.425 1.989-.408-1.989-1.36-5.763h-3.264V52h2.176v-8.024l.544 2.567L18.828 52h1.819l1.36-5.457.561-2.567V52h2.295zm3.555 0V40.678h-2.431V52h2.431zm8.718 0V40.678h-2.193v6.494l-.918-1.853-2.431-4.641h-2.023V52h2.227v-6.392l.969 1.853L35.266 52h1.87zm8.476-2.89v-8.432h-2.363v8.398c0 .765-.459 1.19-1.275 1.19-.799 0-1.241-.425-1.241-1.19v-8.398h-2.465v8.432c0 1.887 1.564 3.179 3.706 3.179 2.159 0 3.638-1.292 3.638-3.179zm7.819-6.358v-2.074h-7.31v2.074h2.448V52H51v-9.248h2.431z"/><path d="M61.147 48.821v-4.964c0-2.006-1.377-3.451-3.723-3.451-2.329 0-3.723 1.445-3.723 3.451v4.964c0 2.023 1.394 3.468 3.723 3.468 2.346 0 3.723-1.445 3.723-3.468zm-2.448.136c0 .765-.459 1.275-1.275 1.275-.799 0-1.258-.51-1.258-1.275v-5.236c0-.765.459-1.275 1.258-1.275.816 0 1.275.51 1.275 1.275v5.236z"/><use xlink:href="#C"/><path d="M78.446 52v-2.091h-3.723v-9.231h-2.431V52h6.154zm2.965 0V40.678H78.98V52h2.431zm8.208-2.601v-1.088c0-1.054-.442-1.853-1.649-2.108 1.156-.204 1.581-1.037 1.581-2.108v-.816c0-1.615-1.003-2.601-2.839-2.601h-4.148V52h4.199c1.836 0 2.856-.969 2.856-2.601zm-2.38-4.913c0 .663-.34.986-.969.986h-1.258v-2.89h1.36c.629 0 .867.357.867.918v.986zm.051 4.709c0 .561-.238.901-.867.901h-1.411v-2.941h1.309c.629 0 .969.34.969 1.003v1.037zm10.822 2.873v-.714c-.306-.272-.476-.629-.476-1.156v-1.853c0-.782-.493-1.632-1.513-1.87 1.02-.272 1.462-.969 1.462-1.887v-1.224c0-1.632-1.105-2.686-2.941-2.686h-4.08V52h2.431v-4.624h1.309c.697 0 1.003.51 1.003 1.105v1.853c0 1.054.374 1.734 1.36 1.734h1.445zm-2.873-7.378c0 .68-.34 1.003-.969 1.003h-1.275v-3.111h1.377c.629 0 .867.357.867.918v1.19zm9.732 7.31v-2.125h-3.876v-2.839h2.669V45.2h-2.669v-2.482h3.876v-2.04h-6.307V52h6.307z"/><use xlink:href="#C" x="43.582"/><path d="M156.33 46v-1.599h-2.847v-7.059h-1.859V46h4.706zm2.65 0v-8.658h-1.859V46h1.859zm6.659-1.989v-.832c0-.806-.338-1.417-1.261-1.612.884-.156 1.209-.793 1.209-1.612v-.624c0-1.235-.767-1.989-2.171-1.989h-3.172V46h3.211c1.404 0 2.184-.741 2.184-1.989zm-1.82-3.757c0 .507-.26.754-.741.754h-.962v-2.21h1.04c.481 0 .663.273.663.702v.754zm.039 3.601c0 .429-.182.689-.663.689h-1.079v-2.249h1.001c.481 0 .741.26.741.767v.793z"/><use xlink:href="#D"/><path d="M178.143 46v-1.625h-2.964v-2.171h2.041V40.8h-2.041v-1.898h2.964v-1.56h-4.823V46h4.823zm8.075 0v-1.625h-2.964v-2.171h2.041V40.8h-2.041v-1.898h2.964v-1.56h-4.823V46h4.823zm6.776 0v-8.658h-1.677v4.966l-.702-1.417-1.859-3.549h-1.547V46h1.703v-4.888l.741 1.417L191.564 46h1.43z"/><use xlink:href="#D" x="29.771"/><path d="M208.694 43.569v-3.796c0-1.534-1.053-2.639-2.847-2.639-1.781 0-2.847 1.105-2.847 2.639v3.796c0 1.547 1.066 2.652 2.847 2.652 1.794 0 2.847-1.105 2.847-2.652zm-1.872.104c0 .585-.351.975-.975.975-.611 0-.962-.39-.962-.975v-4.004c0-.585.351-.975.962-.975.624 0 .975.39.975.975v4.004zM215.256 46l-2.015-8.658h-2.08L209.133 46h1.742l.364-1.716h1.794l.364 1.716h1.859zm-2.47-3.094h-1.274l.663-3.159.611 3.159zM223.609 46v-8.658h-2.483l-1.027 4.407-.325 1.521-.312-1.521-1.04-4.407h-2.496V46h1.664v-6.136l.416 1.963.988 4.173h1.391l1.04-4.173.429-1.963V46h1.755zm3.101 0v-8.658h-1.859V46h1.859zm7.049 0v-8.658h-1.677v4.966l-.702-1.417-1.859-3.549h-1.547V46h1.703v-4.888l.741 1.417L232.329 46h1.43zm6.864 0v-4.446h-2.782v1.274h1.014v.897c0 .468-.338.923-1.027.923-.663 0-1.014-.455-1.014-.923v-4.108c0-.481.325-.923 1.001-.923.689 0 .975.416.975.897v.702h1.794v-.65c0-1.352-.936-2.509-2.782-2.509s-2.873 1.222-2.873 2.509v4.056c0 1.339.871 2.522 2.587 2.522.819 0 1.521-.364 1.859-1.014l.234.793h1.014z"/><use xlink:href="#E"/><path d="M160.711 55v-7.326h-1.232v4.345l-.484-1.166-1.353-3.179h-1.177V55h1.254v-4.29l.517 1.166L159.655 55h1.056zm9.812 0v-7.326h-1.826l-.748 3.718-.242 1.353-.231-1.353-.759-3.718h-1.837V55h1.221v-5.313l.286 1.595.737 3.718h1.034l.781-3.718.297-1.595V55h1.287zm5.738 0l-1.463-7.326h-1.529L171.795 55h1.276l.264-1.441h1.298l.242 1.441h1.386zm-1.804-2.519h-.935l.495-2.827.44 2.827zm.748-6.732h-1.122l-.407 1.507h.649l.88-1.507z"/><use xlink:href="#F"/><path d="M189.465 53.086v-3.432c0-1.155-.715-1.98-2.002-1.98h-2.112V55h2.112c1.287 0 2.002-.748 2.002-1.914zm-1.375-.066c0 .517-.22.803-.726.803h-.649v-4.972h.649c.506 0 .726.286.726.814v3.355z"/><use xlink:href="#E" x="39.633"/><path d="M202.151 47.674h-3.41l-.209 3.817 1.1.165c.088-.308.341-.583.737-.583.319 0 .55.231.55.594v1.65c0 .462-.231.715-.671.715-.429 0-.671-.297-.671-.748v-.473h-1.133v.616c0 .869.594 1.738 1.782 1.738 1.199 0 1.936-.715 1.936-1.804v-1.903c0-.803-.495-1.364-1.265-1.364-.572 0-.99.22-1.243.572l.121-1.837h1.529c.583 0 .781-.341.847-1.155zm5.428 5.588v-3.839c0-1.144-.759-1.903-1.958-1.903-1.188 0-1.947.759-1.947 1.903v3.839c0 1.133.759 1.903 1.947 1.903 1.199 0 1.958-.77 1.958-1.903zm-1.254.088c0 .352-.264.638-.704.638-.429 0-.693-.286-.693-.638v-4.026c0-.352.264-.638.693-.638.44 0 .704.286.704.638v4.026zm9.294-2.794v-1.232c0-1.056-.627-1.65-1.661-1.65h-2.255V55h1.364v-2.805h.891c1.034 0 1.661-.594 1.661-1.639zm-1.32.033c0 .363-.143.55-.484.55h-.748v-2.343h.748c.341 0 .484.187.484.55v1.243zM220.828 55l-1.463-7.326h-1.529L216.362 55h1.276l.264-1.441h1.298l.242 1.441h1.386zm-1.804-2.519h-.935l.495-2.827.44 2.827zM223.48 55v-7.326h-1.364V55h1.364z"/><use xlink:href="#F" x="47.668"/><use xlink:href="#E" x="79.09"/><use xlink:href="#F" x="58.006"/></g><path d="M125.54 47.319v-1.871h-2.345V43h-1.85v2.447H119v1.871h2.345v2.447h1.85v-2.447h2.345z" fill="#e92070"/><g fill-rule="evenodd"><path d="M133.533 52.6l.3.166C135.067 53.534 136.5 54 138 54c4.366 0 8-3.633 8-8.067S142.366 38 137.966 38 130 41.533 130 45.933c0 1.533.433 3.034 1.233 4.3l.2.3-.766 2.8 2.866-.733z" fill="#00a655"/><path d="M135.4 41.467l-.634-.034c-.2 0-.399.067-.533.2-.3.267-.8.767-.933 1.434-.234 1 .133 2.2 1 3.4s2.533 3.133 5.466 3.967c.934.267 1.667.1 2.267-.266.467-.3.767-.767.867-1.267l.1-.466c.033-.133-.033-.3-.167-.367l-2.1-.967c-.133-.067-.299-.034-.4.1l-.833 1.067a.26.26 0 0 1-.267.066c-.566-.2-2.467-1-3.5-2.999-.033-.1-.033-.2.034-.267l.8-.9c.066-.1.099-.233.066-.334l-.967-2.166a.29.29 0 0 0-.266-.2z" fill="#fefefe"/></g><path fill="#4f008c" d="M14 61h230v40H14z"/><path d="M87.994 81.698c0 4.24-3.439 7.698-7.698 7.698-4.24 0-7.698-3.438-7.698-7.698 0-4.239 3.439-7.698 7.698-7.698 4.24 0 7.698 3.459 7.698 7.698z" fill="#0076f4"/><path d="M81.994 78.24h.977v-1.641a13.52 13.52 0 0 0-1.426-.079c-1.426 0-2.384.86-2.384 2.423v1.349h-1.602v1.836h1.602v4.709h1.915v-4.709h1.602l.234-1.836h-1.837v-1.173c0-.507.137-.879.918-.879z" fill="#fff"/><path d="M111.389 81.698a7.7 7.7 0 0 1-7.698 7.698c-4.239 0-7.698-3.438-7.698-7.698 0-4.239 3.439-7.698 7.698-7.698s7.698 3.459 7.698 7.698z" fill="#00a8f2"/><path d="M107.208 80.272c-.058 3.009-1.973 5.099-4.885 5.216-1.191.059-2.051-.332-2.852-.781.859.137 1.992-.195 2.579-.723-.86-.059-1.387-.527-1.661-1.25.274.059.528 0 .723 0-.801-.254-1.329-.723-1.388-1.759.196.137.47.196.723.196-.586-.332-.996-1.583-.527-2.365.86.919 1.915 1.7 3.635 1.837-.469-1.837 2.051-2.813 3.047-1.563.469-.059.802-.254 1.133-.391-.137.45-.39.723-.723.977.333-.059.665-.137.919-.254-.059.333-.391.606-.723.86z" fill="#fff"/><path d="M64.597 81.698c0 4.24-3.439 7.698-7.698 7.698-4.24 0-7.698-3.438-7.698-7.698 0-4.239 3.439-7.698 7.698-7.698s7.698 3.459 7.698 7.698z" fill="#fdf700"/><path d="M52.912 83.711c.273-.039.528-.137.762-.293.195-.117.371-.274.528-.469.274-.313.41-.626.43-.664v-.02c.078-.137.078-.254.039-.351-.078-.196-.332-.274-.528-.333l-.039-.019c-.039 0-.059-.02-.078-.04-.137-.059-.215-.097-.274-.156-.078-.079-.098-.137-.078-.196a.26.26 0 0 1 .137-.156c.098-.059.215-.079.293-.04.254.117.449.157.586.078.039-.02.059-.059.059-.097 0-.059-.02-.117-.02-.196v-.02c-.039-.547-.078-1.23.098-1.622.137-.273.293-.507.488-.703.176-.156.352-.293.586-.371.391-.176.742-.196.918-.196h.156c.176 0 .528.02.918.196.215.098.41.215.586.371.195.196.371.41.488.703.176.391.137 1.075.098 1.603v.039c0 .039-.02.079-.02.117v.059c0 .039.02.079.059.097s.098.04.156.04h.019c.117 0 .234-.04.391-.098.059-.019.098-.019.137-.019.059 0 .098.019.156.039.117.039.195.137.195.215 0 .04-.02.078-.078.137s-.156.117-.293.176c-.02.02-.059.02-.078.02l-.039.02c-.176.058-.43.136-.527.332-.039.097-.039.216.039.371v.02c.098.215.625 1.25 1.719 1.426.039.02.078.039.078.097v.04c-.039.077-.098.136-.234.195-.176.079-.43.157-.782.196-.039.02-.059.039-.078.059a.78.78 0 0 0-.059.196l-.02.059c-.02.039-.02.097-.039.137-.02.059-.059.077-.117.077-.039 0-.078 0-.176-.019-.117-.02-.274-.059-.449-.059-.117 0-.215 0-.332.039-.215.039-.43.176-.645.313-.293.196-.606.43-1.094.43h-.098c-.488 0-.801-.234-1.114-.43-.195-.137-.391-.274-.625-.313-.098-.02-.215-.039-.332-.039-.195 0-.332.039-.449.059h-.02c-.059.019-.117.019-.176.019s-.098-.019-.137-.077l-.078-.176-.019-.04-.059-.196c-.02-.039-.039-.059-.078-.059a5.35 5.35 0 0 1-.801-.195c-.117-.059-.195-.117-.234-.176-.02-.02-.02-.04-.02-.04v-.039c.137-.02.156-.039.195-.059z" fill="#fff" stroke="#201712" stroke-width=".222"/><path d="M33.601 89.201c4.198 0 7.601-3.403 7.601-7.601A7.6 7.6 0 1 0 26 81.6c0 4.197 3.403 7.601 7.6 7.601z" fill="url(#A)"/><g fill="#fff"><path d="M31.626 77.262h3.927c1.348 0 2.423 1.076 2.423 2.404v3.888c0 1.309-1.094 2.383-2.423 2.383h-3.927c-1.329-.019-2.423-1.074-2.423-2.403v-3.888c0-1.309 1.094-2.384 2.423-2.384zm3.929 7.914c.899 0 1.641-.723 1.641-1.622v-3.888c0-.9-.742-1.623-1.641-1.623h-3.927c-.899 0-1.641.723-1.641 1.623v3.888c0 .899.742 1.622 1.641 1.622h3.927zm-4.22-3.576c0-1.23 1.016-2.227 2.266-2.227a2.26 2.26 0 0 1 2.267 2.227c0 1.231-1.016 2.227-2.267 2.227s-2.266-.996-2.266-2.227zm.78 0c0 .801.664 1.466 1.485 1.466a1.48 1.48 0 0 0 1.485-1.466 1.48 1.48 0 0 0-1.485-1.465c-.82 0-1.485.664-1.485 1.465z" fill-rule="evenodd"/><path d="M35.944 78.708a.63.63 0 0 0-.41.157.6.6 0 0 0-.176.39c0 .157.059.293.176.391.098.097.254.156.41.156s.293-.059.41-.156c.098-.098.176-.254.176-.391a.49.49 0 0 0-.176-.39.63.63 0 0 0-.41-.157zM139.3 83v-3.92h-6.12v-9.4h-5.48V83h11.6zm9.322 0V69.68h-5.48V83h5.48zm17.095-3.28v-.5c0-1.42-.78-2.52-2.84-2.92 1.98-.38 2.8-1.64 2.8-2.92V73c0-1.88-1.34-3.32-4.46-3.32h-8.2V83h8.32c3.1 0 4.38-1.44 4.38-3.28zm-5.34-5.2c0 .54-.32.76-1.02.76h-.84v-2.2h.84c.7 0 1.02.22 1.02.74v.7zm0 4.36c0 .54-.32.76-1.02.76h-.84v-2.2h.84c.7 0 1.02.22 1.02.76v.68zM183.008 83v-.14a3.69 3.69 0 0 1-.6-2.08v-1.7c0-1.22-.6-2.3-2.36-2.52 1.62-.36 2.44-1.42 2.44-2.7v-.8c0-1.98-1.72-3.38-4.72-3.38h-8.04V83h5.48v-4.86h.84c.82 0 1 .44 1 1.14v1.66c0 1.08.54 2.06 1.22 2.06h4.74zm-5.94-8.24c0 .58-.3.88-1.02.88h-.84v-2.52h.84c.72 0 1.02.22 1.02.8v.84zM198.372 83v-3.94h-6.16v-1.64h3.88V75h-3.88v-1.64h6.16v-3.68h-11.66V83h11.66zm16.535-4.12c0-4.38-7.5-4.12-7.5-5.5 0-.44.44-.64 1.1-.64 1.06 0 2.64.58 4.04 1.48l2.36-2.6c-1.3-1.22-3.36-2.36-6.56-2.36-3.98 0-5.98 2-5.98 4.38 0 4.4 7.34 4.28 7.34 5.66 0 .46-.42.64-1.3.64-1.22 0-3.14-.76-4.6-1.9l-2.32 2.94c1.54 1.4 4.16 2.44 7.06 2.44 4.24 0 6.36-1.98 6.36-4.54z"/><use xlink:href="#G"/><path d="M137.093 93v-7.326h-1.419v4.202l-.594-1.199-1.573-3.003h-1.309V93h1.441v-4.136l.627 1.199L135.883 93h1.21z"/><use xlink:href="#H"/><use xlink:href="#G" x="17.358"/><path d="M154.33 90.888v-3.014c0-1.221-.814-2.2-2.332-2.2h-2.442V93h2.442c1.518 0 2.332-.88 2.332-2.112zm-1.573-.121c0 .583-.275.924-.88.924h-.748v-4.708h.748c.605 0 .88.341.88.924v2.86zm8.314.627v-1.166h-.693v-4.554h-1.232l-2.794 4.708v1.012h2.695V93h1.331v-1.606h.693zm-2.024-1.166h-1.342l1.342-2.31v2.31z"/><path d="M166.244 93v-3.762h-2.354v1.078h.858v.759c0 .396-.286.781-.869.781-.561 0-.858-.385-.858-.781v-3.476c0-.407.275-.781.847-.781.583 0 .825.352.825.759v.594h1.518v-.55c0-1.144-.792-2.123-2.354-2.123s-2.431 1.034-2.431 2.123v3.432c0 1.133.737 2.134 2.189 2.134.693 0 1.287-.308 1.573-.858l.198.671h.858z"/><use xlink:href="#I"/><path d="M178.029 93l-1.705-7.326h-1.76L172.848 93h1.474l.308-1.452h1.518l.308 1.452h1.573zm-2.09-2.618h-1.078l.561-2.673.517 2.673z"/><use xlink:href="#H" x="38.774"/><path d="M188.347 93l-1.705-7.326h-1.76L183.166 93h1.474l.308-1.452h1.518l.308 1.452h1.573zm-2.09-2.618h-1.078l.561-2.673.517 2.673zm8.535.583c0-1.067-.715-1.639-1.738-2.2-.935-.484-1.353-.77-1.353-1.287 0-.44.297-.726.759-.726.55 0 .825.385.825.88v.231h1.419v-.297c0-1.166-.891-2.068-2.233-2.068-1.496 0-2.299 1.012-2.299 2.134s.935 1.705 1.815 2.178c.847.44 1.265.759 1.265 1.287 0 .506-.275.825-.836.825-.572 0-.88-.33-.88-.946v-.242h-1.441v.374c0 1.254.913 2.079 2.354 2.079 1.463 0 2.343-1.034 2.343-2.222zM196.945 93v-7.326h-1.573V93h1.573z"/><use xlink:href="#G" x="70.236"/><path d="M208.935 93v-7.326h-2.101l-.869 3.729-.275 1.287-.264-1.287-.88-3.729h-2.112V93h1.408v-5.192l.352 1.661.836 3.531h1.177l.88-3.531.363-1.661V93h1.485z"/><use xlink:href="#I" x="41.138"/><use xlink:href="#H" x="75.263"/><use xlink:href="#G" x="92.622"/></g><path d="M14 172v22.5h230V172" stroke="#e92070"/><path d="M74.713 149.48h11.808V155l-23.376.048v-1.392l11.328-12.288c1.6-1.76 2.736-3.232 3.408-4.416.704-1.216 1.056-2.4 1.056-3.552 0-1.376-.4-2.496-1.2-3.36s-1.872-1.296-3.216-1.296-2.432.448-3.264 1.344c-.8.896-1.2 2.064-1.2 3.504 0 .48.08 1.248.24 2.304h-6.528c-.224-.8-.336-1.696-.336-2.688 0-2.816 1.04-5.264 3.12-7.344 2.112-2.08 4.8-3.12 8.064-3.12 3.168 0 5.792.976 7.872 2.928 2.08 1.92 3.12 4.32 3.12 7.2 0 2.144-.576 4.144-1.728 6-1.216 1.92-2.912 4.016-5.088 6.288l-4.08 4.32zm39.215-4.896c0 3.2-1.168 5.84-3.504 7.92-2.336 2.048-5.216 3.072-8.64 3.072-2.624 0-4.976-.64-7.056-1.92-2.048-1.28-3.616-3.04-4.704-5.28l4.512-3.168c1.888 2.912 4.24 4.368 7.056 4.368 1.664 0 3.024-.432 4.08-1.296 1.056-.896 1.584-2.096 1.584-3.6 0-3.04-2.16-4.56-6.48-4.56h-7.392v-16.8h18.72v5.856h-12.48v5.76c1.28-.256 2.48-.384 3.6-.384 2.912 0 5.424.912 7.536 2.736 2.112 1.792 3.168 4.224 3.168 7.296zm4.438 6.528c0-1.248.432-2.304 1.296-3.168s1.936-1.296 3.216-1.296c1.248 0 2.288.432 3.12 1.296.864.864 1.296 1.92 1.296 3.168 0 1.28-.416 2.352-1.248 3.216-.832.832-1.888 1.248-3.168 1.248s-2.352-.416-3.216-1.248c-.864-.864-1.296-1.936-1.296-3.216zm35.411-16.992c0 1.76-.352 3.328-1.056 4.704-.64 1.344-1.744 3.088-3.312 5.232L141.537 155h-7.68l7.344-10.176h-.24c-2.688.064-5.12-.96-7.296-3.072-2.176-2.144-3.232-4.704-3.168-7.68-.064-3.136 1.072-5.824 3.408-8.064 2.368-2.24 5.104-3.328 8.208-3.264 3.168 0 5.904 1.088 8.208 3.264s3.456 4.88 3.456 8.112zm-7.968 3.744c1.024-1.024 1.536-2.288 1.536-3.792s-.512-2.768-1.536-3.792c-.992-1.056-2.224-1.584-3.696-1.584-1.44 0-2.672.512-3.696 1.536s-1.536 2.304-1.536 3.84c0 1.504.512 2.768 1.536 3.792s2.256 1.536 3.696 1.536c1.472 0 2.704-.512 3.696-1.536zm34.921-3.744c0 1.76-.352 3.328-1.056 4.704-.64 1.344-1.744 3.088-3.312 5.232L168.49 155h-7.68l7.344-10.176h-.24c-2.688.064-5.12-.96-7.296-3.072-2.176-2.144-3.232-4.704-3.168-7.68-.064-3.136 1.072-5.824 3.408-8.064 2.368-2.24 5.104-3.328 8.208-3.264 3.168 0 5.904 1.088 8.208 3.264s3.456 4.88 3.456 8.112zm-7.968 3.744c1.024-1.024 1.536-2.288 1.536-3.792s-.512-2.768-1.536-3.792c-.992-1.056-2.224-1.584-3.696-1.584-1.44 0-2.672.512-3.696 1.536s-1.536 2.304-1.536 3.84c0 1.504.512 2.768 1.536 3.792s2.256 1.536 3.696 1.536c1.472 0 2.704-.512 3.696-1.536zm12.457 1.056c0-4.864 1.072-8.768 3.216-11.712 2.144-2.976 5.264-4.464 9.36-4.464s7.2 1.488 9.312 4.464c2.144 2.944 3.216 6.848 3.216 11.712 0 4.896-1.088 8.896-3.264 12s-5.264 4.656-9.264 4.656c-4.032 0-7.136-1.552-9.312-4.656s-3.264-7.104-3.264-12zm18.432.048c0-6.816-1.952-10.224-5.856-10.224-3.936 0-5.904 3.408-5.904 10.224 0 7.072 1.968 10.608 5.904 10.608 3.904 0 5.856-3.536 5.856-10.608z" fill="#e92070"/><g fill="#4f008c"><path d="M113.121 165.092v-.972h-1.332v.96c0 .468-.264.792-.804.792s-.816-.324-.816-.768v-4.2c0-.444.276-.768.816-.768s.804.324.804.792v.96h1.332v-.972c0-1.2-.744-2.088-2.16-2.088-1.428 0-2.304.96-2.304 2.196v3.96c0 1.236.876 2.196 2.304 2.196 1.416 0 2.16-.888 2.16-2.088zm6.168 1.908l-1.596-7.992h-1.668L114.417 167h1.392l.288-1.572h1.416l.264 1.572h1.512zm-1.968-2.748h-1.02l.54-3.084.48 3.084zm8.13 2.796v-.444c-.18-.192-.288-.444-.288-.816v-1.464c0-.516-.3-1.044-.924-1.212.624-.192.9-.636.9-1.236v-1.128c0-1.116-.732-1.74-1.824-1.74h-2.46V167h1.488v-3.312h.78c.42 0 .612.312.612.684v1.5c0 .696.228 1.176.816 1.176h.9zm-1.764-5.1c0 .432-.204.636-.588.636h-.756v-2.352h.816c.372 0 .528.216.528.576v1.14zM131.58 167v-4.056h-2.22v1.08h.78v1.116c0 .396-.264.744-.792.744-.516 0-.792-.348-.792-.744v-4.26a.71.71 0 0 1 .78-.744c.528 0 .768.336.768.72v.888h1.428v-.828c0-1.128-.768-2.076-2.208-2.076s-2.28.984-2.28 2.076v4.176c0 1.152.732 2.088 2.052 2.088.648 0 1.2-.288 1.464-.816l.204.636h.816z"/><use xlink:href="#J"/><path d="M146.458 160.256v-1.248h-3.732V167h1.488v-3.396h1.656v-1.248h-1.656v-2.1h2.244zM149.62 167v-7.992h-1.488V167h1.488zm6.039-1.968v-6.024h-1.5v6.12c0 .492-.24.744-.672.744s-.684-.252-.684-.744v-1.308h-1.428v1.284c0 1.26.804 2.076 2.136 2.076 1.368 0 2.148-.876 2.148-2.148z"/><use xlink:href="#J" x="24.172"/><path d="M173.053 167v-7.992h-1.992l-.816 4.056-.264 1.476-.252-1.476-.828-4.056h-2.004V167h1.332v-5.796l.312 1.74.804 4.056h1.128l.852-4.056.324-1.74V167h1.404zm5.844 0v-1.332h-2.328v-2.22h1.608v-1.176h-1.608v-1.98h2.328v-1.284h-3.816V167h3.816zm6.421 0v-7.992h-1.344v4.74l-.528-1.272-1.476-3.468h-1.284V167h1.368v-4.68l.564 1.272 1.548 3.408h1.152zm6.229-2.028c0-1.08-.672-1.8-1.62-2.508-.888-.648-1.284-.996-1.284-1.668a.67.67 0 0 1 .72-.72c.504 0 .756.36.756.852v.48h1.356v-.516c0-1.188-.84-2.052-2.1-2.052-1.44 0-2.184.996-2.184 2.148 0 1.116.888 1.908 1.704 2.496.792.588 1.2 1.02 1.2 1.656 0 .492-.264.804-.792.804-.54 0-.816-.324-.816-.912v-.468h-1.368v.552c0 1.248.852 2.064 2.22 2.064 1.32 0 2.208-.924 2.208-2.208zm6.244.18v-6.144h-1.452v6.144c0 .468-.264.732-.756.732-.48 0-.744-.264-.744-.732v-6.144h-1.512v6.144c0 1.2.96 2.028 2.256 2.028s2.208-.828 2.208-2.028zm6.401 1.848l-1.596-7.992h-1.668L199.32 167h1.392l.288-1.572h1.416l.264 1.572h1.512zm-1.968-2.748h-1.02l.54-3.084.48 3.084zm7.253 2.748v-1.32h-2.232v-6.672h-1.488V167h3.72z"/></g><path d="M50.886 147.645v2.196h-2.124v-2.232c-1.452-.324-2.514-1.134-3.186-2.43l1.638-1.224c.696 1.092 1.602 1.638 2.718 1.638.48 0 .858-.09 1.134-.27.288-.18.432-.444.432-.792a.8.8 0 0 0-.324-.666c-.204-.18-.558-.372-1.062-.576l-1.224-.45c-1.788-.672-2.682-1.716-2.682-3.132a2.73 2.73 0 0 1 .702-1.872c.468-.528 1.086-.882 1.854-1.062v-2.16h2.124v2.124c1.2.252 2.094.942 2.682 2.07l-1.62 1.224c-.552-.816-1.242-1.224-2.07-1.224-.384 0-.696.078-.936.234s-.36.384-.36.684c0 .252.09.462.27.63.192.156.504.324.936.504l1.35.468c1.824.672 2.736 1.728 2.736 3.168 0 .828-.27 1.524-.81 2.088s-1.266.918-2.178 1.062z" fill="#e92070"/><defs><radialGradient id="A" cx="0" cy="0" r="1" gradientUnits="userSpaceOnUse" gradientTransform="translate(30.4116 89.1715) scale(15.341 15.3408)"><stop stop-color="#f9d173"/><stop offset=".246" stop-color="#ec9f55"/><stop offset=".379" stop-color="#ea5c3c"/><stop offset=".7" stop-color="#bc3082"/><stop offset=".972" stop-color="#6068ab"/><stop offset=".985" stop-color="#5c6bad"/></radialGradient><path id="B" d="M114.279 23.19c0-2.522-1.69-3.874-4.108-5.2-2.21-1.144-3.198-1.82-3.198-3.042 0-1.04.702-1.716 1.794-1.716 1.3 0 1.95.91 1.95 2.08v.546h3.354v-.702c0-2.756-2.106-4.888-5.278-4.888-3.536 0-5.434 2.392-5.434 5.044s2.21 4.03 4.29 5.148c2.002 1.04 2.99 1.794 2.99 3.042 0 1.196-.65 1.95-1.976 1.95-1.352 0-2.08-.78-2.08-2.236v-.572h-3.406v.884c0 2.964 2.158 4.914 5.564 4.914 3.458 0 5.538-2.444 5.538-5.252z"/><path id="C" d="M69.054 48.855c0-1.649-1.105-2.533-2.686-3.4-1.445-.748-2.091-1.19-2.091-1.989 0-.68.459-1.122 1.173-1.122.85 0 1.275.595 1.275 1.36v.357h2.193v-.459c0-1.802-1.377-3.196-3.451-3.196-2.312 0-3.553 1.564-3.553 3.298s1.445 2.635 2.805 3.366c1.309.68 1.955 1.173 1.955 1.989 0 .782-.425 1.275-1.292 1.275-.884 0-1.36-.51-1.36-1.462v-.374h-2.227v.578c0 1.938 1.411 3.213 3.638 3.213 2.261 0 3.621-1.598 3.621-3.434z"/><path id="D" d="M172.516 46.052v-.546c-.234-.208-.364-.481-.364-.884v-1.417c0-.598-.377-1.248-1.157-1.43.78-.208 1.118-.741 1.118-1.443v-.936c0-1.248-.845-2.054-2.249-2.054h-3.12V46h1.859v-3.536h1.001c.533 0 .767.39.767.845v1.417c0 .806.286 1.326 1.04 1.326h1.105zm-2.197-5.642c0 .52-.26.767-.741.767h-.975v-2.379h1.053c.481 0 .663.273.663.702v.91z"/><path id="E" d="M154.971 55v-1.221h-2.134v-2.035h1.474v-1.078h-1.474v-1.815h2.134v-1.177h-3.498V55h3.498z"/><path id="F" d="M181.388 53.141c0-.99-.616-1.65-1.485-2.299-.814-.594-1.177-.913-1.177-1.529 0-.407.264-.66.66-.66.462 0 .693.33.693.781v.44h1.243v-.473c0-1.089-.77-1.881-1.925-1.881-1.32 0-2.002.913-2.002 1.969 0 1.023.814 1.749 1.562 2.288.726.539 1.1.935 1.1 1.518 0 .451-.242.737-.726.737-.495 0-.748-.297-.748-.836v-.429h-1.254v.506c0 1.144.781 1.892 2.035 1.892 1.21 0 2.024-.847 2.024-2.024z"/><path id="G" d="M131.609 93v-1.375h-2.508v-1.837h1.727V88.6h-1.727v-1.606h2.508v-1.32h-4.081V93h4.081z"/><path id="H" d="M144.456 93.044v-.462c-.198-.176-.308-.407-.308-.748v-1.199a1.23 1.23 0 0 0-.979-1.21c.66-.176.946-.627.946-1.221v-.792c0-1.056-.715-1.738-1.903-1.738h-2.64V93h1.573v-2.992h.847c.451 0 .649.33.649.715v1.199c0 .682.242 1.122.88 1.122h.935zm-1.859-4.774c0 .44-.22.649-.627.649h-.825v-2.013h.891c.407 0 .561.231.561.594v.77z"/><path id="I" d="M173.13 88.479v-.99c0-1.1-.649-1.815-1.881-1.815h-2.651V93h1.573v-2.717h1.078c1.232 0 1.881-.715 1.881-1.804zm-1.507.022c0 .396-.154.616-.561.616h-.891v-2.211h.891c.407 0 .561.22.561.616v.979z"/><path id="J" d="M137.935 164.996v-3.984c0-1.26-.864-2.172-2.268-2.172-1.392 0-2.268.912-2.268 2.172v3.984c0 1.272.876 2.184 2.268 2.184 1.404 0 2.268-.912 2.268-2.184zm-1.5.096c0 .468-.276.78-.768.78-.48 0-.756-.312-.756-.78v-4.176c0-.468.276-.78.756-.78.492 0 .768.312.768.78v4.176z"/></defs></svg>