<svg xmlns="http://www.w3.org/2000/svg" xmlns:xlink="http://www.w3.org/1999/xlink" width="252" height="362" fill="none" xmlns:v="https://vecta.io/nano"><style><![CDATA[.B{fill:#471086}.C{fill-rule:evenodd}.D{fill:#e92070}]]></style><path fill="#fff" d="M0 0h252v362H0z"/><g class="B"><path d="M9 59h228v1.216H10.076V309H9V59z" class="C"/><path d="M25.432 98h2.214v-4.05h2.502c2.772 0 5.04-1.476 5.04-4.302v-.036c0-2.538-1.836-4.212-4.788-4.212h-4.968V98zm2.214-6.048v-4.536h2.574c1.656 0 2.718.774 2.718 2.25v.036c0 1.314-1.044 2.25-2.718 2.25h-2.574zM37.869 98h2.178V84.86h-2.178V98zm8.301.198c1.458 0 2.448-.612 3.096-1.386V98h2.124v-5.634c0-1.242-.324-2.25-1.026-2.934-.666-.684-1.728-1.062-3.15-1.062-1.512 0-2.538.306-3.582.774l.576 1.71c.864-.36 1.656-.594 2.718-.594 1.53 0 2.358.72 2.358 2.07v.234a7.94 7.94 0 0 0-2.556-.396c-2.322 0-3.924 1.008-3.924 3.06v.036c0 1.908 1.584 2.934 3.366 2.934zm.612-1.584c-1.044 0-1.854-.522-1.854-1.44v-.036c0-.99.828-1.584 2.232-1.584.864 0 1.602.162 2.16.378v.648c0 1.206-1.098 2.034-2.538 2.034zM54.538 98h2.178v-5.364c0-1.476.882-2.358 2.142-2.358 1.296 0 2.034.846 2.034 2.322V98h2.178v-6.066c0-2.196-1.242-3.636-3.384-3.636-1.476 0-2.358.774-2.97 1.656v-1.458h-2.178V98zm21.255 0h4.256V78.26h-2.94l-5.628 1.68.896 3.528 3.416-.84V98z"/><use xlink:href="#B"/><use xlink:href="#B" x="20.453"/><use xlink:href="#C"/><path d="M156.427 98h4.312V78.4h-4.312V98z"/><use xlink:href="#C" x="31.363"/><path d="M185.914 98h4.396l1.792-4.396h8.288L202.182 98h4.508l-8.4-19.74h-3.976l-8.4 19.74zm7.728-8.204l2.604-6.356 2.604 6.356h-5.208z"/><use xlink:href="#D"/><path d="M23.744 116h2.28v-4.812l2.136 3.276h.048l2.148-3.288V116h2.316v-8.4h-2.46l-2.004 3.252-2.004-3.252h-2.46v8.4zm10.478 0h2.328v-8.4h-2.328v8.4zm3.866 0h2.304v-4.608l3.6 4.608h2.028v-8.4h-2.304v4.44l-3.456-4.44h-2.172v8.4zm13.202.156c2.388 0 3.936-1.2 3.936-3.9V107.6h-2.352v4.728c0 1.176-.612 1.728-1.56 1.728-.936 0-1.548-.576-1.548-1.788V107.6h-2.352v4.716c0 2.628 1.5 3.84 3.876 3.84zm7.365-.156h2.328v-6.36h2.52v-2.04h-7.356v2.04h2.508V116zm9.743.168c2.592 0 4.536-1.956 4.536-4.368v-.024c0-2.412-1.92-4.344-4.512-4.344s-4.536 1.956-4.536 4.368v.024c0 2.412 1.92 4.344 4.512 4.344zm.024-2.1c-1.284 0-2.16-1.056-2.16-2.268v-.024c0-1.212.852-2.244 2.136-2.244s2.148 1.044 2.148 2.268v.024c0 1.212-.852 2.244-2.124 2.244zm8.954 2.076c2.04 0 3.396-1.02 3.396-2.736v-.024c0-1.572-1.2-2.196-3.12-2.616-1.176-.264-1.464-.432-1.464-.816v-.024c0-.312.276-.54.84-.54.744 0 1.584.276 2.352.828l1.164-1.644c-.912-.732-2.028-1.116-3.456-1.116-2.016 0-3.252 1.128-3.252 2.688v.024c0 1.716 1.38 2.22 3.168 2.628 1.152.276 1.428.456 1.428.816v.024c0 .36-.336.576-.972.576-.972 0-1.884-.348-2.724-1.008l-1.296 1.548c1.044.924 2.448 1.392 3.936 1.392zM24.188 129h5.676v-.876h-4.728V120.6h-.948v8.4zm7.467 0h.948v-8.4h-.948v8.4zm3.408 0h3.732c1.836 0 3.048-.852 3.048-2.292v-.024c0-1.14-.804-1.74-1.8-2.028.66-.288 1.332-.852 1.332-1.944v-.024c0-.516-.18-.972-.54-1.344-.48-.468-1.236-.744-2.196-.744h-3.576v8.4zm5.352-6.156c0 .996-.78 1.5-1.932 1.5h-2.484v-2.892h2.556c1.2 0 1.86.54 1.86 1.368v.024zm.468 3.804c0 .948-.78 1.5-2.064 1.5h-2.82v-2.964h2.652c1.476 0 2.232.528 2.232 1.44v.024zm2.84 2.352h.948v-3.264h2.4L49.507 129h1.164l-2.58-3.432c1.32-.228 2.28-1.056 2.28-2.448v-.024c0-.672-.228-1.236-.648-1.656-.528-.528-1.344-.84-2.388-.84h-3.612v8.4zm.948-4.116v-3.408h2.592c1.356 0 2.148.612 2.148 1.656v.024c0 1.08-.912 1.728-2.16 1.728h-2.58zM52.395 129h6.132v-.864h-5.184v-2.94h4.584v-.864h-4.584v-2.868h5.124v-.864h-6.072v8.4zm10.919.12c1.668 0 2.868-.936 2.868-2.376v-.024c0-1.284-.864-1.956-2.736-2.376-1.86-.384-2.28-.84-2.28-1.632v-.024c0-.768.684-1.356 1.788-1.356.864 0 1.644.276 2.424.912l.552-.732c-.864-.684-1.716-1.032-2.952-1.032-1.596 0-2.76.984-2.76 2.292v.024c0 1.38.888 2.004 2.82 2.424 1.764.384 2.184.816 2.184 1.596v.024c0 .828-.732 1.428-1.872 1.428-1.164 0-2.004-.384-2.88-1.188l-.588.696c1.008.912 2.088 1.344 3.432 1.344z"/></g><path d="M76.85 127.46h1.05v-2.884h2.898v-1.008H77.9v-2.884h-1.05v2.884h-2.898v1.008h2.898v2.884z" class="D"/><path d="M93 126l1.092-3.984c-.707-1.221-1.092-2.634-1.092-4.048 0-4.37 3.598-7.968 7.968-7.968s8.032 3.598 8.032 7.968-3.663 8.032-8.032 8.032c-1.35 0-2.699-.45-3.92-1.092L93 126z" fill="#fff"/><path d="M100.968 110.25c-4.232 0-7.718 3.486-7.718 7.718 0 1.369.374 2.739 1.059 3.923l.052.09-1.005 3.664 3.721-1.004.087.045c1.199.631 2.508 1.064 3.803 1.064 4.231 0 7.782-3.551 7.782-7.782s-3.548-7.718-7.782-7.718zm-8.218 7.718c0-4.508 3.71-8.218 8.218-8.218s8.282 3.708 8.282 8.218-3.775 8.282-8.282 8.282c-1.371 0-2.729-.445-3.949-1.076l-4.376 1.181 1.181-4.305c-.695-1.237-1.074-2.659-1.074-4.082z" fill="#cccdd1" class="C"/><path d="M97.305 123.494l.257.129c1.028.642 2.185 1.028 3.47 1.028 3.598 0 6.619-3.02 6.619-6.683s-3.021-6.554-6.683-6.554-6.619 2.955-6.619 6.554c0 1.285.385 2.506 1.028 3.534l.193.257-.642 2.313 2.377-.578z" fill="#009e56"/><path d="M98.847 114.241h-.514a.58.58 0 0 0-.45.193 2.29 2.29 0 0 0-.771 1.156c-.193.836.129 1.8.835 2.828.707.964 2.12 2.57 4.498 3.277.771.193 1.349.064 1.863-.193.386-.257.643-.643.707-1.028l.064-.386c0-.128 0-.257-.128-.321l-1.735-.771c-.129-.064-.257 0-.321.064l-.707.9c-.064.064-.129.064-.193.064-.45-.193-2.056-.835-2.892-2.506v-.193l.643-.771c.064-.064.064-.193.064-.257l-.771-1.799c0-.129-.129-.257-.193-.257z" fill="#fff"/><g class="B"><path d="M113.682 116h5.863v-1.87h-3.729v-5.83h-2.134v7.7zm6.844 0h2.134v-7.7h-2.134v7.7zm3.544 0h3.971c1.837 0 2.915-.803 2.915-2.123v-.022c0-1.045-.594-1.573-1.529-1.881.682-.297 1.188-.825 1.188-1.716v-.022c0-.528-.187-.935-.495-1.254-.451-.44-1.133-.682-2.101-.682h-3.949v7.7zm4.444-5.302c0 .451-.374.671-1.023.671h-1.342v-1.353h1.397c.627 0 .968.231.968.66v.022zm.308 2.86v.022c0 .451-.363.704-1.023.704h-1.65v-1.419h1.628c.715 0 1.045.275 1.045.693z"/><use xlink:href="#E"/><path d="M139.839 116h6.248v-1.815h-4.136v-1.221h3.696v-1.683h-3.696v-1.177h4.081V108.3h-6.193v7.7zm10.399 0h6.248v-1.815h-4.136v-1.221h3.696v-1.683h-3.696v-1.177h4.081V108.3h-6.193v7.7zm7.347 0h2.112v-4.224l3.3 4.224h1.859v-7.7h-2.112v4.07l-3.168-4.07h-1.991v7.7z"/><use xlink:href="#E" x="37.34"/><path d="M181.062 116.154c2.376 0 4.158-1.793 4.158-4.004v-.022c0-2.211-1.76-3.982-4.136-3.982s-4.158 1.793-4.158 4.004v.022c0 2.211 1.76 3.982 4.136 3.982zm.022-1.925c-1.177 0-1.98-.968-1.98-2.079v-.022c0-1.111.781-2.057 1.958-2.057s1.969.957 1.969 2.079v.022c0 1.111-.781 2.057-1.947 2.057zm4.137 1.771h2.233l.55-1.386h2.981l.55 1.386h2.288l-3.278-7.755h-2.057L185.221 116zm3.41-3.047l.869-2.178.858 2.178h-1.727zm5.94 3.047h2.09v-4.411l1.958 3.003h.044l1.969-3.014V116h2.123v-7.7H200.5l-1.837 2.981-1.837-2.981h-2.255v7.7zm9.604 0h2.134v-7.7h-2.134v7.7zm3.544 0h2.112v-4.224l3.3 4.224h1.859v-7.7h-2.112v4.07l-3.168-4.07h-1.991v7.7zm12.564.154c1.408 0 2.53-.517 3.344-1.199v-3.454h-3.531v1.562h1.507v.935c-.308.209-.704.319-1.232.319-1.221 0-2.09-.891-2.09-2.145v-.022c0-1.177.858-2.101 1.969-2.101.77 0 1.309.264 1.859.726l1.254-1.518c-.814-.704-1.771-1.111-3.124-1.111-2.376 0-4.136 1.76-4.136 4.004v.022c0 2.332 1.782 3.982 4.18 3.982z"/><use xlink:href="#F"/><path d="M121.499 127h1.21v-4.98l3.86 4.98h1.03v-7h-1.21v4.84l-3.75-4.84h-1.14v7zm10.699 0h1.21v-5l2.19 3.28h.04l2.21-3.3V127h1.23v-7h-1.31l-2.13 3.31-2.13-3.31h-1.31v7zm7.981 0h1.26l.72-1.69h3.31l.71 1.69h1.3l-3.08-7.05h-1.14l-3.08 7.05zm2.43-2.78l1.2-2.8 1.21 2.8h-2.41zm.72-4.9h.94l1.28-.97-1.1-.48-1.12 1.45z"/><use xlink:href="#G"/><path d="M157.657 127h2.61c2.2 0 3.72-1.53 3.72-3.5v-.02c0-1.97-1.52-3.48-3.72-3.48h-2.61v7zm2.61-5.88c1.47 0 2.43 1.01 2.43 2.38v.02c0 1.37-.96 2.36-2.43 2.36h-1.38v-4.76h1.38z"/><use xlink:href="#F" x="50.479"/><path d="M177.016 127.12c1.55 0 2.6-.94 2.6-2.37v-.02c0-1.48-1.08-2.2-2.44-2.2-.47 0-.78.08-1.11.2l.11-1.64h3.13V120h-4.19l-.2 3.43.74.49c.36-.17.79-.31 1.29-.31.85 0 1.45.45 1.45 1.16v.02c0 .73-.55 1.21-1.39 1.21-.65 0-1.24-.32-1.8-.84l-.76.89c.66.64 1.5 1.07 2.57 1.07zm6.701 0c1.84 0 3.06-1.62 3.06-3.62v-.02c0-2-1.21-3.6-3.04-3.6-1.84 0-3.06 1.62-3.06 3.62v.02c0 2 1.2 3.6 3.04 3.6zm.02-1.11c-1.09 0-1.79-1.13-1.79-2.51v-.02c0-1.39.69-2.49 1.77-2.49s1.79 1.13 1.79 2.51v.02c0 1.37-.68 2.49-1.77 2.49zm7.304.99h1.23v-2.25h1.39c1.54 0 2.8-.82 2.8-2.39v-.02c0-1.41-1.02-2.34-2.66-2.34h-2.76v7zm1.23-3.36v-2.52h1.43c.92 0 1.51.43 1.51 1.25v.02c0 .73-.58 1.25-1.51 1.25h-1.43zm4.047 3.36h1.26l.72-1.69h3.31l.71 1.69h1.3l-3.08-7.05h-1.14l-3.08 7.05zm2.43-2.78l1.2-2.8 1.21 2.8h-2.41zm6.04 2.78h1.23v-7h-1.23v7z"/><use xlink:href="#G" x="59.33"/><use xlink:href="#F" x="99.189"/><use xlink:href="#G" x="72.226"/><path d="M223.5 242H23v-1h201.5v8.5h-1V242z" class="C"/><path d="M23.27 255h1.134l.648-1.521h2.979L28.67 255h1.17l-2.772-6.345h-1.026L23.27 255zm2.187-2.502l1.08-2.52 1.089 2.52h-2.169zM30.38 255h2.349c1.98 0 3.348-1.377 3.348-3.15v-.018c0-1.773-1.368-3.132-3.348-3.132H30.38v6.3zm2.349-5.292c1.323 0 2.187.909 2.187 2.142v.018c0 1.233-.864 2.124-2.187 2.124h-1.242v-4.284h1.242zM36.88 255h4.716v-.99h-3.609v-1.692h3.159v-.99h-3.159v-1.638h3.564v-.99H36.88v6.3zm5.49 0h1.089v-4.5l1.971 2.952h.036l1.989-2.97V255h1.107v-6.3h-1.179l-1.917 2.979-1.917-2.979H42.37v6.3zm6.733 0h1.134l.648-1.521h2.979l.639 1.521h1.17l-2.772-6.345h-1.026L49.103 255zm2.187-2.502l1.08-2.52 1.089 2.52H51.29zm.648-4.41h.846l1.152-.873-.99-.432-1.008 1.305z"/><use xlink:href="#H"/><path d="M65.031 255h1.116v-5.274h1.998V248.7h-5.112v1.026h1.998V255zm3.748 0h4.716v-.99h-3.609v-1.692h3.159v-.99h-3.159v-1.638h3.564v-.99h-4.671v6.3zm7.647 0h2.349c1.98 0 3.348-1.377 3.348-3.15v-.018c0-1.773-1.368-3.132-3.348-3.132h-2.349v6.3zm2.349-5.292c1.323 0 2.187.909 2.187 2.142v.018c0 1.233-.864 2.124-2.187 2.124h-1.242v-4.284h1.242zM81.947 255h1.134l.648-1.521h2.979l.639 1.521h1.17l-2.772-6.345h-1.026L81.947 255zm2.187-2.502l1.08-2.52 1.089 2.52h-2.169zM89.057 255h1.089v-4.5l1.971 2.952h.036l1.989-2.97V255h1.107v-6.3H94.07l-1.917 2.979-1.917-2.979h-1.179v6.3z"/><use xlink:href="#I"/><use xlink:href="#H" x="47.285"/><path d="M24.344 300h2.464v-3.36h1.872c2.512 0 4.528-1.328 4.528-3.936v-.032c0-2.304-1.616-3.872-4.288-3.872h-4.576V300zm2.464-5.552v-3.424h1.904c1.232 0 2 .592 2 1.696v.032c0 .96-.72 1.696-1.952 1.696h-1.952zm12.704 5.744c3.456 0 5.968-2.608 5.968-5.792v-.032c0-3.184-2.48-5.76-5.936-5.76s-5.968 2.608-5.968 5.792v.032c0 3.184 2.48 5.76 5.936 5.76zm.032-2.272c-1.984 0-3.392-1.6-3.392-3.52v-.032c0-1.92 1.376-3.488 3.36-3.488s3.392 1.6 3.392 3.52v.032c0 1.92-1.376 3.488-3.36 3.488zm7.161 2.08h2.464v-3.584h1.936l2.4 3.584h2.88l-2.736-4c1.424-.528 2.4-1.664 2.4-3.472v-.032c0-1.072-.32-1.92-.96-2.56-.752-.752-1.84-1.136-3.264-1.136h-5.12V300zm2.464-5.76v-3.216h2.448c1.216 0 1.936.528 1.936 1.6v.032c0 .96-.672 1.584-1.888 1.584h-2.496zM60.585 300h8.288v-2.128h-4.88l1.824-1.408c1.984-1.552 2.944-2.448 2.944-4.336v-.032c0-2.096-1.552-3.456-3.856-3.456-2 0-3.072.832-4.176 2.32l1.728 1.392c.832-1.024 1.408-1.504 2.288-1.504.896 0 1.504.496 1.504 1.456 0 .928-.528 1.536-1.936 2.688l-3.728 3.056V300zm12.445 0h2.512l1.024-2.512h4.736L82.326 300h2.576l-4.8-11.28H77.83L73.03 300zm4.416-4.688l1.488-3.632 1.488 3.632h-2.976zM85.671 300h2.432v-7.12l5.424 7.12h2.096v-11.2h-2.432v6.896l-5.248-6.896h-2.272V300zm6.416-12.08c1.104 0 1.632-.864 2-2.208l-1.296-.4c-.24.512-.432.784-.928.784-.256 0-.56-.112-.944-.256-.464-.176-.992-.368-1.552-.368-1.12 0-1.616.88-2 2.208l1.296.4c.24-.512.432-.784.928-.784.256 0 .56.112.944.256.464.176.992.368 1.552.368zm10.704 12.272c3.456 0 5.968-2.608 5.968-5.792v-.032c0-3.184-2.48-5.76-5.936-5.76s-5.967 2.608-5.967 5.792v.032c0 3.184 2.48 5.76 5.935 5.76zm.032-2.272c-1.984 0-3.391-1.6-3.391-3.52v-.032c0-1.92 1.376-3.488 3.359-3.488s3.392 1.6 3.392 3.52v.032c0 1.92-1.376 3.488-3.36 3.488zm11.068 2.24c2.416 0 4.112-1.248 4.112-3.472v-.032c0-1.952-1.28-2.752-3.552-3.36-1.936-.512-2.416-.72-2.416-1.472v-.032c0-.56.48-.976 1.44-.976s1.904.416 2.912 1.104l1.28-1.856c-1.152-.912-2.512-1.424-4.16-1.424-2.304 0-3.92 1.344-3.92 3.376v.032c0 2.208 1.44 2.864 3.712 3.424 1.872.464 2.256.8 2.256 1.424v.032c0 .656-.592 1.056-1.616 1.056-1.28 0-2.32-.528-3.344-1.36l-1.456 1.744c1.344 1.216 3.04 1.792 4.752 1.792z"/></g><g fill="#491966"><path d="M125.529 295h1.048v-6.056h-.73l-1.624.515.223.859 1.083-.3V295z"/><use xlink:href="#J"/><use xlink:href="#J" x="6.216"/><path d="M146.038 295.103c1.065 0 1.915-.429 2.508-.936v-2.526h-2.56v.919h1.538v1.126c-.369.275-.885.455-1.452.455-1.228 0-2.044-.911-2.044-2.148v-.017c0-1.151.842-2.121 1.95-2.121a2.35 2.35 0 0 1 1.683.644l.67-.799c-.618-.524-1.262-.816-2.31-.816-1.813 0-3.101 1.426-3.101 3.109v.018c0 1.752 1.237 3.092 3.118 3.092zm3.944-.103h1.057v-6.013h-1.057V295z"/><use xlink:href="#K"/><path d="M158.869 295h1.083l.618-1.452h2.843l.61 1.452h1.117l-2.646-6.056h-.979L158.869 295zm2.088-2.388l1.03-2.405 1.04 2.405h-2.07zm7.218 2.474c1.263 0 2.147-.67 2.147-1.795v-.018c0-.996-.652-1.451-1.924-1.761-1.159-.274-1.434-.481-1.434-.944v-.018c0-.395.36-.713.979-.713.55 0 1.091.215 1.632.619l.567-.799a3.33 3.33 0 0 0-2.182-.756c-1.194 0-2.053.713-2.053 1.744v.017c0 1.108.722 1.486 2.002 1.795 1.116.258 1.357.49 1.357.919v.018c0 .446-.413.756-1.065.756-.739 0-1.323-.284-1.899-.782l-.635.756c.721.644 1.589.962 2.508.962zm7.426-.997h.979v-1.64h1.649v-.954h-1.649v-1.632h-.979v1.632h-1.65v.954h1.65v1.64zm6.696.911h1.194l2.706-5.214v-.799h-4.226v.928h3.024L182.297 295zm6.717.103c1.332 0 2.234-.807 2.234-2.036v-.017c0-1.271-.928-1.89-2.096-1.89a2.56 2.56 0 0 0-.954.172l.095-1.409h2.689v-.936h-3.6l-.171 2.946.635.421a2.57 2.57 0 0 1 1.108-.266c.731 0 1.246.387 1.246.996v.018c0 .627-.473 1.039-1.194 1.039-.558 0-1.065-.275-1.546-.722l-.653.765c.567.55 1.288.919 2.207.919z"/><use xlink:href="#K" x="42.455"/><path d="M201.9 295h1.056v-6.013H201.9V295zm5.518.103c1.065 0 1.915-.429 2.508-.936v-2.526h-2.56v.919h1.538v1.126c-.369.275-.885.455-1.452.455-1.228 0-2.044-.911-2.044-2.148v-.017c0-1.151.842-2.121 1.95-2.121.764 0 1.219.249 1.683.644l.67-.799c-.618-.524-1.262-.816-2.31-.816-1.813 0-3.101 1.426-3.101 3.109v.018c0 1.752 1.237 3.092 3.118 3.092zm3.369-.103h1.082l.618-1.452h2.844l.61 1.452h1.116l-2.645-6.056h-.98L210.787 295zm2.087-2.388l1.031-2.405 1.039 2.405h-2.07zm7.218 2.474c1.263 0 2.148-.67 2.148-1.795v-.018c0-.996-.653-1.451-1.924-1.761-1.16-.274-1.435-.481-1.435-.944v-.018c0-.395.361-.713.979-.713.55 0 1.091.215 1.633.619l.566-.799c-.609-.49-1.305-.756-2.181-.756-1.194 0-2.053.713-2.053 1.744v.017c0 1.108.721 1.486 2.001 1.795 1.117.258 1.357.49 1.357.919v.018c0 .446-.412.756-1.065.756-.739 0-1.323-.284-1.898-.782l-.636.756c.722.644 1.589.962 2.508.962zM124.773 304h4.501v-.945h-3.445v-1.615h3.016v-.945h-3.016v-1.563h3.402v-.945h-4.458V304zm5.755 0h1.039v-4.278l3.316 4.278h.884v-6.013h-1.039v4.158l-3.221-4.158h-.979V304zm9.361 0h1.057v-2.096h1.323l1.477 2.096H145l-1.623-2.276c.833-.241 1.426-.834 1.426-1.821v-.018c0-.524-.181-.97-.498-1.297-.387-.378-.98-.601-1.736-.601h-2.68V304zm1.057-3.032v-2.019h1.537c.782 0 1.246.352 1.246.997v.017c0 .61-.481 1.005-1.237 1.005h-1.546zm5.151 3.032h4.501v-.945h-3.445v-1.615h3.016v-.945h-3.016v-1.563h3.402v-.945h-4.458V304zm5.755 0h2.242c1.889 0 3.195-1.314 3.195-3.007v-.017c0-1.692-1.306-2.989-3.195-2.989h-2.242V304zm2.242-5.051c1.262 0 2.087.868 2.087 2.044v.018c0 1.177-.825 2.027-2.087 2.027h-1.186v-4.089h1.186zm9.818 5.051h1.014v-1.349h.859v-.867h-.859v-3.84h-.902l-3.342 3.951.198.756h3.032V304zm-1.976-2.216l1.976-2.38v2.38h-1.976z"/><use xlink:href="#K" x="14.353" y="9"/></g><g class="D"><use xlink:href="#C" x="-111.922" y="183"/><path d="M44.225 281h4.312v-19.6h-4.312V281z"/><use xlink:href="#C" x="-81.119" y="183"/><path d="M73.152 281h4.396l1.792-4.396h8.288L89.42 281h4.508l-8.4-19.74h-3.976l-8.4 19.74zm7.728-8.204l2.604-6.356 2.604 6.356H80.88z"/><use xlink:href="#D" x="-113.042" y="183"/><path d="M122.145 281h14.084v-3.92h-9.772V261.4h-4.312V281zm17.251 0h4.312v-19.6h-4.312V281zm8.931 0h9.324c4.424 0 7.336-1.792 7.336-5.376v-.056c0-2.604-1.4-3.948-3.668-4.816 1.4-.728 2.576-2.044 2.576-4.228v-.056c0-1.316-.448-2.436-1.344-3.332-1.148-1.148-2.856-1.736-5.124-1.736h-9.1V281zm11.284-13.748c0 1.456-1.204 2.072-3.108 2.072h-3.976v-4.144h4.256c1.82 0 2.828.7 2.828 2.016v.056zm1.092 7.84c0 1.456-1.148 2.128-3.052 2.128h-5.124v-4.312h4.984c2.24 0 3.192.812 3.192 2.128v.056zm7.551 5.908h4.312v-6.272h3.388l4.2 6.272h5.04l-4.788-7c2.492-.924 4.2-2.912 4.2-6.076v-.056c0-1.876-.56-3.36-1.68-4.48-1.316-1.316-3.22-1.988-5.712-1.988h-8.96V281zm4.312-10.08v-5.628h4.284c2.128 0 3.388.924 3.388 2.8v.056c0 1.68-1.176 2.772-3.304 2.772h-4.368zM188.208 281h14.924v-3.836h-10.64v-4.116h9.24v-3.836h-9.24v-3.976h10.5V261.4h-14.784V281z"/><use xlink:href="#D" x="-2.756" y="183"/></g><path d="M223.5 145H23v-1h201.5v8.5h-1V145z" class="B C"/><g class="D"><path d="M92.231 158.288c-2.128-1.482-4.332-2.432-7.068-2.774v-2.318h-3.952v2.204c-4.788.494-7.98 3.268-7.98 7.448v.076c0 4.56 2.698 6.536 8.17 8.056v6.042c-2.28-.456-4.104-1.52-6.194-3.078l-2.964 4.332c2.546 1.938 5.662 3.192 8.968 3.61v3.838h3.952v-3.762c4.75-.494 8.056-3.23 8.056-7.486v-.076c0-4.256-2.47-6.574-8.246-8.132v-5.776c1.558.418 3.192 1.216 4.712 2.242l2.546-4.446zm-4.56 16.492c0 1.33-.912 2.166-2.698 2.432v-5.32c2.09.76 2.698 1.558 2.698 2.812v.076zm-8.892-12.274c0-1.216.76-2.09 2.622-2.356v5.168c-2.09-.76-2.622-1.52-2.622-2.736v-.076zM101.521 182h5.776v-26.79h-3.99l-7.638 2.28 1.216 4.788 4.636-1.14V182zm21.77.456c5.776 0 10.146-3.724 10.146-9.196v-.076c0-5.548-4.066-8.474-9.348-8.474-2.432 0-4.104.76-5.51 1.71.19-2.318 1.368-6.156 5.358-6.156 2.28 0 3.724.798 5.434 2.128l3.078-4.522c-2.356-1.862-4.674-2.926-8.322-2.926-7.942 0-11.666 6.308-11.666 14.516v.076c0 5.282 1.216 8.132 3.154 10.07 1.862 1.862 4.18 2.85 7.676 2.85zm-.228-5.016c-2.888 0-4.636-1.672-4.636-3.952v-.076c0-2.28 1.672-3.838 4.56-3.838s4.636 1.596 4.636 3.876v.076c0 2.28-1.672 3.914-4.56 3.914zm14.482 4.56h6.156v-6.08h-6.156V182z"/><use xlink:href="#L"/><use xlink:href="#L" x="24.78"/><path d="M209.074 182.456c7.106 0 11.856-6.042 11.856-13.756v-.076c0-7.752-4.75-13.68-11.78-13.68-7.106 0-11.856 6.042-11.856 13.756v.076c0 7.752 4.636 13.68 11.78 13.68zm.076-5.282c-3.534 0-5.852-3.61-5.852-8.474v-.076c0-4.864 2.28-8.398 5.776-8.398s5.852 3.648 5.852 8.474v.076c0 4.864-2.242 8.398-5.776 8.398z"/></g><g class="B"><path d="M116.485 197.108c1.179 0 1.899-.432 2.556-1.116l-.711-.72c-.54.504-1.035.81-1.809.81-1.206 0-2.079-.999-2.079-2.232v-.018c0-1.233.882-2.223 2.079-2.223.72 0 1.26.315 1.764.783l.711-.819a3.28 3.28 0 0 0-2.466-.981c-1.908 0-3.249 1.467-3.249 3.258v.018c0 1.809 1.368 3.24 3.204 3.24zm3.089-.108h1.134l.648-1.521h2.979l.639 1.521h1.17l-2.772-6.345h-1.026L119.574 197zm2.187-2.502l1.08-2.52 1.089 2.52h-2.169zm5.374 2.502h1.107v-2.196h1.386l1.548 2.196h1.314l-1.701-2.385c.873-.252 1.494-.873 1.494-1.908v-.018c0-.549-.189-1.017-.522-1.359-.405-.396-1.026-.63-1.818-.63h-2.808v6.3zm1.107-3.177v-2.115h1.611c.819 0 1.305.369 1.305 1.044v.018c0 .639-.504 1.053-1.296 1.053h-1.62zm8.295 3.285c1.116 0 2.007-.45 2.628-.981v-2.646h-2.682v.963h1.611v1.179c-.387.288-.927.477-1.521.477-1.287 0-2.142-.954-2.142-2.25v-.018c0-1.206.882-2.223 2.043-2.223.801 0 1.278.261 1.764.675l.702-.837c-.648-.549-1.323-.855-2.421-.855-1.899 0-3.249 1.494-3.249 3.258v.018c0 1.836 1.296 3.24 3.267 3.24z"/><use xlink:href="#I" x="44.185" y="-58"/><path d="M150.681 197h1.107v-2.565h3.177v-1.008h-3.177v-1.719h3.582V190.7h-4.689v6.3zm5.879 0h1.107v-6.3h-1.107v6.3zm4.099.09c.63 0 1.161-.189 1.53-.558s.594-.927.594-1.674V190.7h-1.143v4.122c0 .846-.405 1.242-.999 1.242-.531 0-.9-.27-1.269-.747l-.729.756a2.37 2.37 0 0 0 2.016 1.017z"/><use xlink:href="#I" x="67.879" y="-58"/><path d="M174.374 197h1.089v-4.5l1.971 2.952h.036l1.989-2.97V197h1.107v-6.3h-1.179l-1.917 2.979-1.917-2.979h-1.179v6.3zm7.724 0h4.716v-.99h-3.609v-1.692h3.159v-.99h-3.159v-1.638h3.564v-.99h-4.671v6.3zm5.939 0h1.089v-4.482L192.6 197h.927v-6.3h-1.089v4.356l-3.375-4.356h-1.026v6.3z"/><use xlink:href="#H" x="138.95" y="-58"/><path d="M203.307 197.099c1.647 0 2.709-.945 2.709-2.826V190.7h-1.107v3.627c0 1.161-.603 1.746-1.584 1.746-.99 0-1.593-.621-1.593-1.791V190.7h-1.107v3.627c0 1.827 1.044 2.772 2.682 2.772zm3.37-.099h1.134l.648-1.521h2.979l.639 1.521h1.17l-2.772-6.345h-1.026L206.677 197zm2.187-2.502l1.08-2.52 1.089 2.52h-2.169zm5.374 2.502h4.419v-1.008h-3.312V190.7h-1.107v6.3zm-15.958 33.883l-1.364-1.364c-.051-.05-.101-.05-.152 0s-.05.101 0 .152l1.111 1.111H27.294a3.73 3.73 0 0 1-3.738-3.738v-13.436a3.73 3.73 0 0 1 3.738-3.738H46.54c.101 0 .151-.051.151-.152s-.05-.151-.151-.151H27.294c-2.273 0-4.091 1.818-4.091 4.091v13.437c0 2.273 1.818 4.091 4.092 4.091h170.581l-1.111 1.111s-.05.051-.05.101.05.101.101.101.05 0 .101-.05l1.364-1.364c.05-.051.05-.152 0-.202z"/><path d="M196.814 232.65c-.101 0-.152-.05-.202-.101s-.101-.151-.101-.202c0-.101.05-.151.101-.202l.808-.808H27.294A4.29 4.29 0 0 1 23 227.043v-13.386a4.29 4.29 0 0 1 4.294-4.293h19.245c.202 0 .354.151.354.353s-.152.354-.354.354H27.294a3.6 3.6 0 0 0-3.586 3.586v13.437a3.6 3.6 0 0 0 3.586 3.586H197.42l-.808-.808c-.051-.051-.101-.152-.101-.202a.38.38 0 0 1 .101-.202.31.31 0 0 1 .404 0l1.364 1.364c.05.05.101.151.101.202a.39.39 0 0 1-.101.202l-1.364 1.364c-.051.05-.152.05-.202.05zm23.893-23.134H49.722l1.111-1.111s.051-.051.051-.101a.11.11 0 0 0-.101-.101c-.05 0-.05 0-.101.05l-1.364 1.364c-.05.051-.05.101 0 .152l1.364 1.364c.05.05.101.05.151 0s.051-.101 0-.152l-1.111-1.111h170.934a3.73 3.73 0 0 1 3.738 3.738v13.436a3.73 3.73 0 0 1-3.738 3.738h-19.245c-.101 0-.152.05-.152.152s.051.151.152.151h19.245c2.273 0 4.092-1.818 4.092-4.091v-13.437c0-2.222-1.819-4.041-4.041-4.041z"/><path d="M220.706 231.286h-19.245c-.202 0-.353-.151-.353-.353s.151-.354.353-.354h19.245c1.97 0 3.587-1.616 3.587-3.586v-13.437c0-1.97-1.617-3.586-3.587-3.586H50.176l.808.808c.101.101.101.303 0 .455a.31.31 0 0 1-.404 0l-1.364-1.364c-.051-.051-.101-.152-.101-.202 0-.101.05-.152.101-.202l1.364-1.364c.05-.05.101-.101.202-.101.152 0 .303.152.303.303 0 .101-.05.152-.101.202l-.808.808h170.53a4.29 4.29 0 0 1 4.294 4.294v13.386c-.051 2.374-1.97 4.293-4.294 4.293zm-194.23-11.774c0-2.389 1.913-4.3 4.462-4.3 1.488 0 2.497.425 3.347 1.168l-1.328 1.593c-.584-.478-1.169-.796-2.019-.796-1.169 0-2.125 1.008-2.125 2.229 0 1.327.956 2.283 2.231 2.283.584 0 1.009-.106 1.328-.319v-1.008h-1.647v-1.646h3.825v3.663c-.903.743-2.072 1.274-3.613 1.274-2.55.106-4.462-1.646-4.462-4.141zM35.507 215h2.337v1.646h-2.337V215zm.053 2.23h2.231v6.317H35.56v-6.317zm3.188 7.538l.744-1.486c.691.371 1.381.583 2.231.583 1.116 0 1.647-.53 1.647-1.539v-.265c-.478.53-1.009.955-1.966.955-1.594 0-2.869-1.115-2.869-2.92s1.328-2.973 2.762-2.973c1.009 0 1.541.372 2.019.903v-.743H45.6v4.831c0 1.168-.266 2.017-.85 2.548-.584.584-1.488.902-2.816.902-1.222-.106-2.231-.371-3.187-.796zm4.675-4.672c0-.743-.531-1.274-1.328-1.274-.744 0-1.328.531-1.328 1.221s.531 1.221 1.328 1.221 1.328-.478 1.328-1.168zm2.869 1.646c0-1.327 1.009-2.017 2.497-2.017.584 0 1.169.106 1.541.265v-.106c0-.69-.425-1.062-1.275-1.062-.691 0-1.222.106-1.753.372l-.478-1.54c.744-.318 1.488-.477 2.603-.477 1.169 0 1.912.265 2.444.796.478.478.691 1.115.691 2.017v3.663h-2.231v-.69c-.478.478-1.062.796-1.912.796-1.222-.053-2.125-.743-2.125-2.017zm4.037-.478v-.318c-.212-.106-.531-.16-.903-.16-.638 0-1.009.319-1.009.797 0 .424.319.69.797.69.691.053 1.116-.372 1.116-1.009zm2.656 1.487l.85-1.327c.744.477 1.541.743 2.178.743.372 0 .584-.106.584-.319 0-.265-.372-.371-1.062-.531-1.275-.318-2.284-.743-2.284-2.017 0-1.327 1.116-2.07 2.55-2.07.956 0 1.912.265 2.656.743l-.744 1.38c-.637-.371-1.381-.584-1.912-.584-.319 0-.531.106-.531.319 0 .265.372.371 1.063.584 1.275.318 2.284.796 2.284 2.017 0 1.38-1.062 2.123-2.603 2.123-1.116-.106-2.178-.424-3.028-1.061zm9.889.335c1.261 0 2.145-.669 2.145-1.793v-.018c0-.995-.652-1.45-1.922-1.758-1.158-.275-1.433-.481-1.433-.944v-.017c0-.395.36-.713.978-.713.549 0 1.09.215 1.63.618l.566-.798c-.609-.489-1.304-.755-2.179-.755-1.193 0-2.051.712-2.051 1.742v.017c0 1.107.721 1.484 1.999 1.793 1.115.258 1.356.489 1.356.918v.018c0 .446-.412.755-1.064.755-.738 0-1.321-.284-1.896-.781l-.635.755a3.7 3.7 0 0 0 2.505.961z"/><use xlink:href="#M"/><path d="M72.521 223h1.081l.618-1.45h2.84l.609 1.45h1.115l-2.643-6.049h-.978L72.521 223zm2.085-2.385l1.03-2.403 1.038 2.403h-2.068zm7.105 2.488c1.124 0 1.81-.412 2.437-1.064l-.678-.686c-.515.48-.987.772-1.725.772-1.15 0-1.982-.953-1.982-2.128v-.017c0-1.176.841-2.119 1.982-2.119.686 0 1.201.3 1.682.746l.678-.781c-.575-.549-1.244-.935-2.351-.935-1.819 0-3.097 1.399-3.097 3.106v.017c0 1.725 1.304 3.089 3.055 3.089zm5.494-.009c1.57 0 2.583-.901 2.583-2.694v-3.406h-1.055v3.458c0 1.107-.575 1.664-1.51 1.664-.944 0-1.519-.592-1.519-1.707v-3.415h-1.055v3.458c0 1.741.995 2.642 2.557 2.642zm3.516-.094h1.038v-4.29l1.879 2.814h.034l1.896-2.831V223h1.055v-6.006H95.5l-1.828 2.84-1.828-2.84H90.72V223zm9.397.094c1.57 0 2.582-.901 2.582-2.694v-3.406h-1.055v3.458c0 1.107-.575 1.664-1.51 1.664-.944 0-1.519-.592-1.519-1.707v-3.415h-1.055v3.458c0 1.741.995 2.642 2.557 2.642zm3.516-.094h4.213v-.961h-3.157v-5.045h-1.056V223zm4.283 0h1.081l.618-1.45h2.84l.609 1.45h1.115l-2.642-6.049h-.978L107.917 223zm2.085-2.385l1.029-2.403 1.039 2.403h-2.068zm4.693 2.385h1.039v-4.273l3.312 4.273h.883v-6.006h-1.038v4.153l-3.217-4.153h-.979V223zm8.322 0h1.055v-1.931h1.193c1.321 0 2.402-.703 2.402-2.05v-.017c0-1.21-.875-2.008-2.282-2.008h-2.368V223zm1.055-2.883v-2.162h1.227c.789 0 1.296.369 1.296 1.072v.018c0 .626-.498 1.072-1.296 1.072h-1.227zm3.043 2.883h1.081l.618-1.45h2.84l.609 1.45h1.115l-2.642-6.049h-.978L127.115 223zm2.085-2.385l1.03-2.403 1.038 2.403H129.2zm4.694 2.385h1.055v-2.094h1.321l1.476 2.094h1.253l-1.622-2.274c.832-.24 1.424-.832 1.424-1.819v-.017c0-.523-.18-.969-.497-1.295-.386-.378-.978-.601-1.734-.601h-2.676V223zm1.055-3.029v-2.016h1.536c.78 0 1.244.352 1.244.995v.017c0 .61-.481 1.004-1.236 1.004h-1.544zm4.115 3.029h1.081l.618-1.45h2.84l.609 1.45h1.116l-2.643-6.049h-.978L139.064 223zm2.085-2.385l1.03-2.403 1.038 2.403h-2.068zM147.9 223h4.496v-.944h-3.44v-1.613h3.011v-.944h-3.011v-1.561h3.397v-.944H147.9V223zm5.234 0h4.212v-.961h-3.157v-5.045h-1.055V223zm6.854 0h1.039v-4.29l1.879 2.814h.034l1.896-2.831V223h1.055v-6.006h-1.123l-1.828 2.84-1.828-2.84h-1.124V223zm6.935 0h4.495v-.944h-3.44v-1.613h3.011v-.944h-3.011v-1.561h3.398v-.944h-4.453V223zm7.335.086c1.261 0 2.145-.669 2.145-1.793v-.018c0-.995-.652-1.45-1.922-1.758-1.158-.275-1.433-.481-1.433-.944v-.017c0-.395.36-.713.978-.713.549 0 1.09.215 1.63.618l.567-.798a3.33 3.33 0 0 0-2.18-.755c-1.192 0-2.05.712-2.05 1.742v.017c0 1.107.72 1.484 1.999 1.793 1.115.258 1.355.489 1.355.918v.018c0 .446-.411.755-1.064.755-.737 0-1.321-.284-1.896-.781l-.635.755c.721.643 1.588.961 2.506.961zm7.031 0c1.261 0 2.145-.669 2.145-1.793v-.018c0-.995-.652-1.45-1.922-1.758-1.159-.275-1.433-.481-1.433-.944v-.017c0-.395.36-.713.978-.713.549 0 1.09.215 1.63.618l.566-.798c-.609-.489-1.304-.755-2.179-.755-1.192 0-2.05.712-2.05 1.742v.017c0 1.107.72 1.484 1.999 1.793 1.115.258 1.355.489 1.355.918v.018c0 .446-.412.755-1.064.755-.737 0-1.321-.284-1.896-.781l-.635.755c.721.643 1.588.961 2.506.961zm2.931-.086h1.055v-6.006h-1.055V223zm4.997.103a3.83 3.83 0 0 0 2.505-.935v-2.523h-2.557v.918h1.536v1.124a2.45 2.45 0 0 1-1.45.455c-1.227 0-2.042-.909-2.042-2.145v-.017c0-1.15.841-2.119 1.948-2.119.763 0 1.218.248 1.681.643l.67-.798c-.618-.523-1.262-.815-2.308-.815-1.811 0-3.098 1.424-3.098 3.106v.017c0 1.75 1.236 3.089 3.115 3.089zm5.827-.009c1.57 0 2.583-.901 2.583-2.694v-3.406h-1.056v3.458c0 1.107-.574 1.664-1.51 1.664-.943 0-1.518-.592-1.518-1.707v-3.415h-1.056v3.458c0 1.741.996 2.642 2.557 2.642zm3.577-.094h1.055v-6.006h-1.055V223z"/><use xlink:href="#M" x="135.023"/><path d="M206.002 223h1.038v-4.273l3.312 4.273h.884v-6.006h-1.038v4.153l-3.218-4.153h-.978V223zm7.74 0h1.063v-5.028h1.905v-.978h-4.873v.978h1.905V223z"/><use xlink:href="#M" x="151.569"/></g><path d="M235.811 175.17l9.059-6.199-9.059.954v5.245zM9.79 188.998v6.676l-7.986-5.439v-.895l7.986-.342z" fill="#320565"/><path d="M.943 168.981l242.192-21.189L245 169.11 1.852 190.234.943 168.981z" class="B"/><g fill="#fff"><path d="M48.542 182.502c2.189-.191 3.863-1.148 5.035-2.319l-.47-5.369-5.489.48.212 2.428 2.343-.205.127 1.454c-.45.367-1.051.592-1.872.663-1.898.166-3.37-1.101-3.541-3.05l-.003-.034c-.16-1.83 1.048-3.383 2.775-3.534 1.197-.105 2.071.232 2.989.876l1.743-2.531c-1.361-.984-2.904-1.486-5.008-1.302-3.694.323-6.19 3.298-5.885 6.787l.003.034c.317 3.626 3.312 5.948 7.04 5.622zm6.845-.84l3.318-.29-.317-3.626 1.471-.128 2.728 3.414 3.814-.334-3.221-3.922c1.432-.763 2.301-2.063 2.139-3.909l-.003-.035c-.103-1.18-.542-2.055-1.304-2.694-.874-.734-2.181-1.102-4.011-.942l-5.66.495 1.047 11.971zm2.773-6.515l-.253-2.89 2.189-.191c1.094-.096 1.837.321 1.921 1.279l.003.034c.076.872-.543 1.478-1.654 1.575l-2.206.193z"/><path d="M66.35 180.703l3.471-.304.666-2.229 4.634-.406 1.044 2.08 3.557-.311-6.151-11.61-3.198.28-4.024 12.5zm4.887-5.201l1.055-3.504 1.63 3.269-2.685.235zm10.864 3.823l3.317-.29-.793-9.064 3.591-.314-.254-2.907-10.483.917.254 2.907 3.574-.313.793 9.064zm8.28-.725l3.318-.29-1.047-11.97-3.318.29 1.047 11.97zm10.058-.673c2.907-.254 4.713-1.877 4.499-4.322l-.003-.034c-.196-2.241-1.984-2.98-4.773-3.339-1.709-.23-2.14-.433-2.188-.981l-.003-.034c-.039-.444.326-.804 1.13-.874 1.06-.093 2.292.196 3.455.887l1.454-2.488c-1.391-.93-3.029-1.338-5.064-1.16-2.873.252-4.494 2.013-4.299 4.236l.003.034c.214 2.446 2.243 2.992 4.842 3.351 1.676.249 2.091.471 2.136.984l.003.035c.045.513-.407.862-1.313.942-1.385.121-2.728-.261-4.008-1.097l-1.654 2.367c1.603 1.187 3.662 1.679 5.782 1.493zm10.836-1.155l3.317-.29-.299-3.42 1.659-.145c2.958-.259 5-1.937 4.752-4.775l-.003-.035c-.231-2.633-2.316-4.019-5.326-3.755l-5.147.45 1.047 11.97zm2.791-6.309l-.277-3.164 1.573-.138c1.18-.103 1.962.363 2.052 1.389l.003.034c.082.941-.598 1.638-1.761 1.74l-1.59.139zm14.602 5.029c3.693-.323 6.22-3.353 5.919-6.79l-.003-.034c-.301-3.438-3.278-5.951-6.971-5.628s-6.221 3.353-5.92 6.79l.003.034c.301 3.437 3.278 5.951 6.972 5.628zm-.228-2.996c-1.83.161-3.21-1.235-3.361-2.962l-.003-.035c-.151-1.727.935-3.304 2.764-3.464s3.191 1.22 3.344 2.965l.003.034c.151 1.727-.934 3.304-2.747 3.462zm8.211 2.056l3.317-.29-.317-3.625 1.471-.129 2.728 3.414 3.814-.333-3.221-3.923c1.432-.763 2.301-2.062 2.139-3.909l-.003-.034c-.103-1.18-.541-2.055-1.304-2.695-.874-.733-2.181-1.101-4.011-.941l-5.66.495 1.047 11.97zm2.773-6.515l-.253-2.89 2.189-.191c1.094-.096 1.837.322 1.921 1.279l.003.034c.076.873-.543 1.478-1.654 1.575l-2.206.193zm15.646 4.904l3.266-.286-1.055-12.056-2.411.211-3.419 1.299.857 2.509 1.976-.655.786 8.978zm8.947-.783l3.472-.304.666-2.229 4.635-.406 1.043 2.08 3.557-.311-6.151-11.61-3.197.28-4.025 12.5zm4.887-5.201l1.055-3.504 1.63 3.269-2.685.235zm15.643-9.484c1.162-.102 1.705-.994 1.916-2.718l-1.594-.292c-.176.55-.341.823-.82.865-.257.022-.644-.064-1.119-.178-.563-.14-1.197-.292-1.761-.242-1.18.103-1.704 1.01-1.932 2.736l1.594.292c.174-.567.357-.841.836-.883.239-.021.627.083 1.102.196.581.139 1.213.273 1.778.224zm-6.166 13.428l3.283-.287-.574-6.566 5.704 6.117 2.89-.252-1.047-11.971-3.283.287.553 6.328-5.478-5.897-3.096.271 1.048 11.97zm19.313-1.448c3.694-.323 6.22-3.353 5.919-6.79l-.003-.034c-.3-3.438-3.277-5.951-6.971-5.628s-6.22 3.353-5.919 6.79l.002.034c.301 3.437 3.278 5.951 6.972 5.628zm-.228-2.996c-1.829.16-3.209-1.235-3.361-2.962l-.003-.035c-.151-1.727.935-3.304 2.765-3.464s3.191 1.22 3.343 2.965l.003.034c.152 1.727-.934 3.304-2.747 3.462z"/></g><g fill="#4d008c"><path d="M68.198 330.5h3.393c2.86 0 4.836-1.989 4.836-4.55v-.026c0-2.561-1.976-4.524-4.836-4.524h-3.393v9.1zm3.393-7.644c1.911 0 3.159 1.313 3.159 3.094v.026c0 1.781-1.248 3.068-3.159 3.068h-1.794v-6.188h1.794z"/><use xlink:href="#N"/><use xlink:href="#O"/><use xlink:href="#P"/><path d="M102.591 330.643c1.066 0 1.703-.559 2.145-1.209v1.066h1.586v-6.864h-1.586v3.874c0 1.066-.637 1.69-1.547 1.69-.936 0-1.469-.598-1.469-1.664v-3.9h-1.573v4.368c0 1.599.897 2.639 2.444 2.639zm7.763-7.878h1.183l1.599-1.495-1.43-.637-1.352 2.132zm.819 7.891c1.261 0 2.158-.507 2.808-1.287l-.923-.819c-.546.533-1.092.819-1.859.819-1.014 0-1.807-.624-1.976-1.742h5.044l.026-.442c0-1.976-1.105-3.692-3.289-3.692-1.963 0-3.354 1.612-3.354 3.575v.026c0 2.119 1.534 3.562 3.523 3.562zm-1.963-4.069c.143-1.066.819-1.807 1.781-1.807 1.04 0 1.638.793 1.742 1.807h-3.523z"/><use xlink:href="#O" x="30.101"/><path d="M128.337 330.643c1.118 0 1.833-.572 2.34-1.287v1.144h1.573v-9.49h-1.573v3.692c-.494-.65-1.209-1.209-2.34-1.209-1.638 0-3.185 1.287-3.185 3.562v.026c0 2.275 1.573 3.562 3.185 3.562zm.377-1.365c-1.066 0-1.976-.871-1.976-2.197v-.026c0-1.365.897-2.197 1.976-2.197 1.053 0 1.989.871 1.989 2.197v.026c0 1.313-.936 2.197-1.989 2.197z"/><use xlink:href="#N" x="56.039"/><path d="M146.513 330.5h1.586v-9.165h-1.105l-2.457.78.338 1.3 1.638-.455v7.54z"/><use xlink:href="#Q"/><path d="M161.089 330.5h1.573v-3.874c0-1.066.637-1.703 1.547-1.703.936 0 1.469.611 1.469 1.677v3.9h1.573v-4.381c0-1.586-.897-2.626-2.444-2.626-1.066 0-1.703.559-2.145 1.196v-1.053h-1.573v6.864zm4.121-7.735c.793 0 1.17-.572 1.456-1.625l-.871-.26c-.195.442-.338.65-.715.65-.208 0-.494-.117-.78-.247-.325-.13-.702-.273-1.092-.273-.793 0-1.17.572-1.456 1.612l.871.273c.195-.442.338-.65.715-.65.221 0 .494.117.78.247.325.13.702.273 1.092.273zm6.944 7.891c2.119 0 3.679-1.625 3.679-3.575v-.026c0-1.963-1.547-3.562-3.653-3.562s-3.666 1.625-3.666 3.588v.026c0 1.95 1.547 3.549 3.64 3.549zm.026-1.378c-1.222 0-2.093-1.001-2.093-2.197v-.026c0-1.196.806-2.184 2.067-2.184 1.235 0 2.106 1.001 2.106 2.21v.026c0 1.183-.806 2.171-2.08 2.171z"/><use xlink:href="#P" x="89.048"/><use xlink:href="#Q" x="35.555"/><path d="M199.699 332.606c1.235 0 2.197-.299 2.821-.923.572-.572.871-1.43.871-2.587v-5.46h-1.573v1.027c-.533-.637-1.248-1.17-2.405-1.17-1.599 0-3.12 1.196-3.12 3.224v.026c0 2.015 1.508 3.211 3.12 3.211 1.131 0 1.846-.52 2.418-1.261v.533c0 1.378-.767 2.106-2.171 2.106-.936 0-1.703-.273-2.444-.728l-.585 1.183c.884.533 1.937.819 3.068.819zm.13-3.991c-1.079 0-1.95-.767-1.95-1.885v-.026c0-1.131.858-1.885 1.95-1.885s2.015.767 2.015 1.885v.026c0 1.118-.923 1.885-2.015 1.885z"/><use xlink:href="#Q" x="51.386"/><use xlink:href="#O" x="126.964"/><path d="M122.632 348.632c1.441 0 2.321-.528 3.124-1.364l-.869-.88c-.66.616-1.265.99-2.211.99-1.474 0-2.541-1.221-2.541-2.728v-.022c0-1.507 1.078-2.717 2.541-2.717.88 0 1.54.385 2.156.957l.869-1.001c-.737-.704-1.595-1.199-3.014-1.199-2.332 0-3.971 1.793-3.971 3.982v.022c0 2.211 1.672 3.96 3.916 3.96z"/><use xlink:href="#R"/><path d="M133.04 348.5h1.331v-2.211c0-1.54.814-2.299 1.98-2.299h.077v-1.408c-1.023-.044-1.694.55-2.057 1.419v-1.309h-1.331v5.808zm6.748 1.782c1.045 0 1.859-.253 2.387-.781.484-.484.737-1.21.737-2.189v-4.62h-1.331v.869c-.451-.539-1.056-.99-2.035-.99-1.353 0-2.64 1.012-2.64 2.728v.022c0 1.705 1.276 2.717 2.64 2.717.957 0 1.562-.44 2.046-1.067v.451c0 1.166-.649 1.782-1.837 1.782-.792 0-1.441-.231-2.068-.616l-.495 1.001c.748.451 1.639.693 2.596.693zm.11-3.377c-.913 0-1.65-.649-1.65-1.595v-.022c0-.957.726-1.595 1.65-1.595s1.705.649 1.705 1.595v.022c0 .946-.781 1.595-1.705 1.595z"/><use xlink:href="#S"/><path d="M154.747 348.5h1.331v-4.664h1.518v-1.1h-1.54v-.319c0-.605.264-.88.77-.88.286 0 .517.055.781.143v-1.122a3.56 3.56 0 0 0-1.078-.154c-.572 0-1.001.154-1.309.462s-.473.792-.473 1.43v.429h-.737v1.111h.737v4.664zm3.641-6.699h1.43v-1.265h-1.43v1.265zm.055 6.699h1.331v-5.808h-1.331v5.808zm2.872-6.699h1.43v-1.265h-1.43v1.265zm-.297 8.492c1.078 0 1.683-.539 1.683-1.716v-5.885h-1.331v5.808c0 .506-.253.704-.627.704-.121 0-.242-.011-.374-.033v1.067a3.76 3.76 0 0 0 .649.055z"/><use xlink:href="#S" x="19.858"/><path d="M174.308 348.5h1.331v-3.278c0-.891.506-1.441 1.243-1.441s1.177.506 1.177 1.408v3.311h1.331v-3.278c0-.935.517-1.441 1.243-1.441.748 0 1.177.495 1.177 1.419v3.3h1.331v-3.707c0-1.419-.77-2.222-2.035-2.222-.88 0-1.496.407-1.958 1.023-.308-.616-.902-1.023-1.738-1.023-.891 0-1.397.484-1.771 1.001v-.88h-1.331v5.808zm12.894.132c1.067 0 1.826-.429 2.376-1.089l-.781-.693c-.462.451-.924.693-1.573.693-.858 0-1.529-.528-1.672-1.474h4.268l.022-.374c0-1.672-.935-3.124-2.783-3.124-1.661 0-2.838 1.364-2.838 3.025v.022c0 1.793 1.298 3.014 2.981 3.014zm-1.661-3.443c.121-.902.693-1.529 1.507-1.529.88 0 1.386.671 1.474 1.529h-2.981zm5.418 3.311h1.331v-3.278c0-.902.539-1.441 1.309-1.441.792 0 1.243.517 1.243 1.419v3.3h1.331v-3.707c0-1.342-.759-2.222-2.068-2.222-.902 0-1.441.473-1.815 1.012v-.891h-1.331v5.808zm8.592.11c1.21 0 2.156-.605 2.156-1.826v-.022c0-1.045-.957-1.43-1.804-1.694-.682-.22-1.309-.396-1.309-.825v-.022c0-.33.297-.572.814-.572.484 0 1.078.209 1.639.55l.528-.946c-.616-.407-1.408-.66-2.134-.66-1.155 0-2.068.671-2.068 1.771v.022c0 1.111.957 1.463 1.815 1.705.682.209 1.298.363 1.298.814v.022c0 .385-.33.627-.902.627-.594 0-1.265-.242-1.903-.715l-.594.902a4.08 4.08 0 0 0 2.464.869zm5.302.011c.902 0 1.441-.473 1.815-1.023v.902h1.342v-5.808h-1.342v3.278c0 .902-.539 1.43-1.309 1.43-.792 0-1.243-.506-1.243-1.408v-3.3h-1.331v3.696c0 1.353.759 2.233 2.068 2.233z"/><use xlink:href="#R" x="82.648"/><path d="M215.765 348.5h1.331v-8.03h-1.331v8.03z"/></g><g class="D"><path d="M57.518 338.392c-.952-.663-1.938-1.088-3.162-1.241v-1.037h-1.768v.986c-2.142.221-3.57 1.462-3.57 3.332v.034c0 2.04 1.207 2.924 3.655 3.604v2.703c-1.02-.204-1.836-.68-2.771-1.377l-1.326 1.938c1.139.867 2.533 1.428 4.012 1.615v1.717h1.768v-1.683c2.125-.221 3.604-1.445 3.604-3.349v-.034c0-1.904-1.105-2.941-3.689-3.638v-2.584c.697.187 1.428.544 2.108 1.003l1.139-1.989zm-2.04 7.378c0 .595-.408.969-1.207 1.088v-2.38c.935.34 1.207.697 1.207 1.258v.034zm-3.978-5.491c0-.544.34-.935 1.173-1.054v2.312c-.935-.34-1.173-.68-1.173-1.224v-.034zM61.504 349h2.584v-11.985h-1.785l-3.417 1.02.544 2.142 2.074-.51V349zm9.569.204c2.584 0 4.539-1.666 4.539-4.114v-.034c0-2.482-1.819-3.791-4.182-3.791-1.088 0-1.836.34-2.465.765.085-1.037.612-2.754 2.397-2.754 1.02 0 1.666.357 2.431.952l1.377-2.023c-1.054-.833-2.091-1.309-3.723-1.309-3.553 0-5.219 2.822-5.219 6.494v.034c0 2.363.544 3.638 1.411 4.505.833.833 1.87 1.275 3.434 1.275zm-.102-2.244c-1.292 0-2.074-.748-2.074-1.768v-.034c0-1.02.748-1.717 2.04-1.717s2.074.714 2.074 1.734v.034c0 1.02-.748 1.751-2.04 1.751zM77.28 349h2.754v-2.72H77.28V349z"/><use xlink:href="#T"/><use xlink:href="#T" x="10.916"/><path d="M108.77 349.204c3.179 0 5.304-2.703 5.304-6.154v-.034c0-3.468-2.125-6.12-5.27-6.12-3.179 0-5.304 2.703-5.304 6.154v.034c0 3.468 2.074 6.12 5.27 6.12zm.034-2.363c-1.581 0-2.618-1.615-2.618-3.791v-.034c0-2.176 1.02-3.757 2.584-3.757s2.618 1.632 2.618 3.791v.034c0 2.176-1.003 3.757-2.584 3.757z"/></g><path d="M223.5 315.5H23v-1h201.5v8.5h-1v-7.5z" class="B C"/><path d="M9 6H237V55H9V6Z" class="D"/><g fill="#fff"><path d="M72.056 13.8h-4.96V27h2.7v-4.66h2.26c2.78 0 4.76-1.74 4.76-4.28 0-2.58-1.98-4.26-4.76-4.26zm0 2.38c1.26 0 2 .78 2 1.88 0 1.14-.74 1.92-2 1.92h-2.26v-3.8h2.26z"/><use xlink:href="#U"/><path d="M105.678 27l-3.74-5.2c1.42-.7 2.32-2.04 2.32-3.74 0-2.58-1.98-4.26-4.76-4.26h-4.96V27h2.7v-4.66h1.98l3.42 4.66h3.04zm-8.44-10.82h2.26c1.26 0 2 .78 2 1.88 0 1.14-.74 1.9-2 1.9h-2.26v-3.78zm19.505-2.38h-11.16v2.44h4.22V27h2.7V16.24h4.24V13.8z"/><use xlink:href="#V"/><path d="M145.93 13.8h-2.7v7.94c0 1.98-1.24 3-2.9 3-1.64 0-2.9-1.02-2.9-3V13.8h-2.7v7.74c0 3.54 2.38 5.7 5.6 5.7 3.2 0 5.6-2.16 5.6-5.7V13.8zm11.464 0v7.86l-7.66-8.1h-.88V27h2.7v-7.92l7.64 8.16h.9V13.8h-2.7z"/><use xlink:href="#V" x="46.094"/><path d="M44.63 34.8h-2.7V48h8.48v-2.44h-5.78V34.8zm12.789-5h-3.26l-1.44 3.72h1.96l2.74-3.24v-.48zm-2.3 5h-2.7V48h2.7V34.8zm11.562 0v7.86l-7.66-8.1h-.88V48h2.7v-7.92l7.64 8.16h.9V34.8h-2.7zm14.598 0h-8.88V48h9.12v-2.44h-6.42v-3.34h4.54v-2.3h-4.54v-2.68h6.18V34.8zM92.384 48h2.9l-5.88-13.44h-.9L82.604 48h2.9l.74-1.72h5.4l.74 1.72zm-1.7-3.94h-3.48l1.74-4.44 1.74 4.44zM109.22 48h2.9l-5.88-13.44h-.9L99.44 48h2.9l.74-1.72h5.4l.74 1.72zm-1.7-3.94h-3.48l1.74-4.44 1.74 4.44zm10.722-9.26h-4.32V48h4.32c4.24 0 7.2-2.74 7.2-6.64 0-3.96-2.96-6.56-7.2-6.56zm-.02 2.44c2.66 0 4.44 1.52 4.44 4.12 0 2.54-1.78 4.2-4.44 4.2h-1.6v-8.32h1.6zm12.209-2.44h-2.7V48h2.7V34.8zm9.303-.24c-3.94 0-7.04 2.96-7.04 6.84s3.1 6.84 7.02 6.84c2.56 0 4.7-1.26 5.84-3.28l-2.04-1.44c-.88 1.4-2.12 2.22-3.78 2.22-2.46 0-4.26-1.78-4.26-4.32 0-2.56 1.8-4.36 4.26-4.36 1.66 0 2.9.82 3.78 2.22l2.04-1.44c-1.16-2.02-3.28-3.28-5.82-3.28zm10.814.24h-2.7V48h2.7V34.8z"/><use xlink:href="#U" x="74.6" y="21"/><path d="M177.677 34.8v7.86l-7.66-8.1h-.88V48h2.7v-7.92l7.64 8.16h.9V34.8h-2.7z"/><use xlink:href="#V" x="66.377" y="21"/><path d="M199.318 34.8h-2.7V48h8.48v-2.44h-5.78V34.8z"/></g><defs ><path id="B" d="M92.813 98.336c5.236 0 8.736-4.452 8.736-10.136v-.056c0-5.712-3.5-10.08-8.68-10.08-5.236 0-8.736 4.452-8.736 10.136v.056c0 5.712 3.416 10.08 8.68 10.08zm.056-3.892c-2.604 0-4.312-2.66-4.312-6.244v-.056c0-3.584 1.68-6.188 4.256-6.188s4.312 2.688 4.312 6.244v.056c0 3.584-1.652 6.188-4.256 6.188z"/><path id="C" d="M143.71 98.336c3.584 0 6.356-1.4 8.372-3.108v-8.512h-8.512v3.724h4.34v2.8c-1.092.784-2.464 1.176-4.06 1.176-3.472 0-5.936-2.632-5.936-6.216v-.056c0-3.332 2.492-6.104 5.628-6.104 2.24 0 3.64.728 5.124 1.988l2.716-3.276c-2.016-1.736-4.2-2.688-7.7-2.688-5.936 0-10.276 4.564-10.276 10.136v.056c0 5.824 4.2 10.08 10.304 10.08z"/><path id="D" d="M216.414 98.28c4.228 0 7.196-2.184 7.196-6.076v-.056c0-3.416-2.24-4.816-6.216-5.88-3.388-.896-4.228-1.26-4.228-2.576v-.056c0-.98.84-1.708 2.52-1.708s3.332.728 5.096 1.932l2.24-3.248c-2.016-1.596-4.396-2.492-7.28-2.492-4.032 0-6.86 2.352-6.86 5.908v.056c0 3.864 2.52 5.012 6.496 5.992 3.276.812 3.948 1.4 3.948 2.492v.056c0 1.148-1.036 1.848-2.828 1.848-2.24 0-4.06-.924-5.852-2.38l-2.548 3.052c2.352 2.128 5.32 3.136 8.316 3.136z"/><path id="E" d="M131.933 116h2.134v-2.332h.946l1.551 2.332h2.453l-1.837-2.684c.957-.407 1.584-1.188 1.584-2.376v-.022c0-.759-.231-1.342-.682-1.793-.517-.517-1.331-.825-2.508-.825h-3.641v7.7zm2.134-4.004v-1.859h1.408c.704 0 1.155.308 1.155.924v.022c0 .561-.429.913-1.144.913h-1.419z"/><path id="F" d="M114.9 127h5.24v-1.1h-4.01v-1.88h3.51v-1.1h-3.51v-1.82h3.96V120h-5.19v7z"/><path id="G" d="M150.912 127.1c1.47 0 2.5-.78 2.5-2.09v-.02c0-1.16-.76-1.69-2.24-2.05-1.35-.32-1.67-.56-1.67-1.1v-.02c0-.46.42-.83 1.14-.83.64 0 1.27.25 1.9.72l.66-.93c-.71-.57-1.52-.88-2.54-.88-1.39 0-2.39.83-2.39 2.03v.02c0 1.29.84 1.73 2.33 2.09 1.3.3 1.58.57 1.58 1.07v.02c0 .52-.48.88-1.24.88-.86 0-1.54-.33-2.21-.91l-.74.88a4.31 4.31 0 0 0 2.92 1.12z"/><path id="H" d="M58.313 255.09c1.323 0 2.25-.702 2.25-1.881v-.018c0-1.044-.684-1.521-2.016-1.845-1.215-.288-1.503-.504-1.503-.99v-.018c0-.414.378-.747 1.026-.747.576 0 1.143.225 1.71.648l.594-.837a3.49 3.49 0 0 0-2.286-.792c-1.251 0-2.151.747-2.151 1.827v.018c0 1.161.756 1.557 2.097 1.881 1.17.27 1.422.513 1.422.963v.018c0 .468-.432.792-1.116.792-.774 0-1.386-.297-1.989-.819l-.666.792a3.88 3.88 0 0 0 2.628 1.008z"/><path id="I" d="M99.337 255.108c1.935 0 3.303-1.485 3.303-3.258v-.018c0-1.773-1.35-3.24-3.285-3.24s-3.303 1.485-3.303 3.258v.018c0 1.773 1.35 3.24 3.285 3.24zm.018-1.026c-1.251 0-2.142-1.008-2.142-2.232v-.018c0-1.224.873-2.223 2.124-2.223s2.142 1.017 2.142 2.241v.018c0 1.224-.873 2.214-2.124 2.214z"/><path id="J" d="M130.507 295.103c1.58 0 2.628-1.392 2.628-3.11v-.017c0-1.718-1.039-3.092-2.611-3.092-1.581 0-2.629 1.391-2.629 3.109v.018c0 1.718 1.031 3.092 2.612 3.092zm.017-.953c-.937 0-1.538-.971-1.538-2.157v-.017c0-1.194.593-2.139 1.521-2.139s1.537.971 1.537 2.156v.018c0 1.177-.584 2.139-1.52 2.139z"/><path id="K" d="M155.5 295.103c1.066 0 1.916-.429 2.509-.936v-2.526h-2.56v.919h1.537v1.126c-.369.275-.884.455-1.451.455-1.229 0-2.045-.911-2.045-2.148v-.017c0-1.151.842-2.121 1.95-2.121.765 0 1.22.249 1.684.644l.67-.799c-.619-.524-1.263-.816-2.311-.816-1.812 0-3.101 1.426-3.101 3.109v.018c0 1.752 1.237 3.092 3.118 3.092z"/><path id="L" d="M157.31 177.136c-2.28 0-3.876-.722-5.814-2.28l-3.078 4.446c2.28 1.862 4.826 3.154 8.74 3.154 7.562 0 11.628-5.89 11.628-14.516v-.076c0-5.244-1.254-8.132-3.154-10.032-2.014-2.014-4.142-2.888-7.676-2.888-6.004 0-10.146 3.952-10.146 9.31v.076c0 5.358 3.724 8.588 9.5 8.588 2.28 0 4.028-.646 5.396-1.824-.19 2.28-1.406 6.042-5.396 6.042zm.95-9.082c-2.888 0-4.636-1.596-4.636-3.99v-.076c0-2.394 1.634-4.028 4.522-4.028 2.926 0 4.674 1.672 4.674 4.066v.076c0 2.28-1.672 3.952-4.56 3.952z"/><path id="M" d="M65.746 223h4.496v-.944h-3.441v-1.613h3.012v-.944h-3.012v-1.561h3.398v-.944h-4.453V223z"/><path id="N" d="M81.071 330.656c1.261 0 2.158-.507 2.808-1.287l-.923-.819c-.546.533-1.092.819-1.859.819-1.014 0-1.807-.624-1.976-1.742h5.044l.026-.442c0-1.976-1.105-3.692-3.289-3.692-1.963 0-3.354 1.612-3.354 3.575v.026c0 2.119 1.534 3.562 3.523 3.562zm-1.963-4.069c.143-1.066.819-1.807 1.781-1.807 1.04 0 1.638.793 1.742 1.807h-3.523z"/><path id="O" d="M87.864 330.63c1.43 0 2.548-.715 2.548-2.158v-.026c0-1.235-1.131-1.69-2.132-2.002-.806-.26-1.547-.468-1.547-.975v-.026c0-.39.351-.676.962-.676.572 0 1.274.247 1.937.65l.624-1.118a4.76 4.76 0 0 0-2.522-.78c-1.365 0-2.444.793-2.444 2.093v.026c0 1.313 1.131 1.729 2.145 2.015.806.247 1.534.429 1.534.962v.026c0 .455-.39.741-1.066.741-.702 0-1.495-.286-2.249-.845l-.702 1.066c.858.676 1.937 1.027 2.912 1.027z"/><path id="P" d="M91.764 332.58h1.573v-3.146c.481.637 1.196 1.209 2.34 1.209 1.625 0 3.185-1.287 3.185-3.562v-.026c0-2.288-1.573-3.562-3.185-3.562-1.118 0-1.833.572-2.34 1.287v-1.144h-1.573v8.944zm3.536-3.302c-1.066 0-2.002-.884-2.002-2.197v-.026c0-1.313.936-2.197 2.002-2.197s1.963.871 1.963 2.197v.026c0 1.352-.884 2.197-1.963 2.197z"/><path id="Q" d="M155.695 330.643c1.053 0 1.768-.442 2.236-1.001v.858h1.534v-4.069c0-.897-.234-1.625-.741-2.119-.481-.494-1.248-.767-2.275-.767-1.092 0-1.833.221-2.587.559l.416 1.235c.624-.26 1.196-.429 1.963-.429 1.105 0 1.703.52 1.703 1.495v.169c-.533-.169-1.079-.286-1.846-.286-1.677 0-2.834.728-2.834 2.21v.026c0 1.378 1.144 2.119 2.431 2.119zm.442-1.144c-.754 0-1.339-.377-1.339-1.04v-.026c0-.715.598-1.144 1.612-1.144a4.36 4.36 0 0 1 1.56.273v.468c0 .871-.793 1.469-1.833 1.469z"/><path id="R" d="M128.476 348.621c.891 0 1.496-.374 1.892-.847v.726h1.298v-3.443c0-.759-.198-1.375-.627-1.793-.407-.418-1.056-.649-1.925-.649-.924 0-1.551.187-2.189.473l.352 1.045c.528-.22 1.012-.363 1.661-.363.935 0 1.441.44 1.441 1.265v.143a4.85 4.85 0 0 0-1.562-.242c-1.419 0-2.398.616-2.398 1.87v.022c0 1.166.968 1.793 2.057 1.793zm.374-.968c-.638 0-1.133-.319-1.133-.88v-.022c0-.605.506-.968 1.364-.968a3.69 3.69 0 0 1 1.32.231v.396c0 .737-.671 1.243-1.551 1.243z"/><path id="S" d="M147.124 348.632c1.793 0 3.113-1.375 3.113-3.025v-.022c0-1.661-1.309-3.014-3.091-3.014s-3.102 1.375-3.102 3.036v.022c0 1.65 1.309 3.003 3.08 3.003zm.022-1.166c-1.034 0-1.771-.847-1.771-1.859v-.022c0-1.012.682-1.848 1.749-1.848 1.045 0 1.782.847 1.782 1.87v.022c0 1.001-.682 1.837-1.76 1.837z"/><path id="T" d="M85.952 346.824c-1.02 0-1.734-.323-2.601-1.02l-1.377 1.989c1.02.833 2.159 1.411 3.91 1.411 3.383 0 5.202-2.635 5.202-6.494v-.034c0-2.346-.561-3.638-1.411-4.488-.901-.901-1.853-1.292-3.434-1.292-2.686 0-4.539 1.768-4.539 4.165v.034c0 2.397 1.666 3.842 4.25 3.842 1.02 0 1.802-.289 2.414-.816-.085 1.02-.629 2.703-2.414 2.703zm.425-4.063c-1.292 0-2.074-.714-2.074-1.785v-.034c0-1.071.731-1.802 2.023-1.802 1.309 0 2.091.748 2.091 1.819v.034c0 1.02-.748 1.768-2.04 1.768z"/><path id="U" d="M85.211 13.56c-3.88 0-7 2.96-7 6.84s3.12 6.84 7 6.84 7.04-2.96 7.04-6.84-3.16-6.84-7.04-6.84zm.02 2.5c2.42 0 4.24 1.8 4.24 4.34 0 2.56-1.82 4.34-4.24 4.34-2.46 0-4.24-1.78-4.24-4.34 0-2.54 1.78-4.34 4.24-4.34z"/><path id="V" d="M125.538 27h2.9l-5.88-13.44h-.9l-5.9 13.44h2.9l.74-1.72h5.4l.74 1.72zm-1.7-3.94h-3.48l1.74-4.44 1.74 4.44z"/></defs></svg>