<svg xmlns="http://www.w3.org/2000/svg" width="260" height="253" fill="none" xmlns:v="https://vecta.io/nano"><path d="M0 8a8 8 0 0 1 8-8h244a8 8 0 0 1 8 8v40H0V8z" fill="#e92070"/><path d="M31.71 15.528c0 1.067-.389 1.947-1.168 2.64-.779.683-1.739 1.024-2.88 1.024-.875 0-1.659-.213-2.352-.64-.683-.427-1.205-1.013-1.568-1.76l1.504-1.056c.629.971 1.413 1.456 2.352 1.456.555 0 1.008-.144 1.36-.432.352-.299.528-.699.528-1.2 0-1.013-.72-1.52-2.16-1.52h-2.464v-5.6h6.24v1.952h-4.16v1.92c.427-.085.827-.128 1.2-.128.971 0 1.808.304 2.512.912.704.597 1.056 1.408 1.056 2.432zm1.623-1.888c0-1.621.357-2.923 1.072-3.904.715-.992 1.755-1.488 3.12-1.488s2.4.496 3.104 1.488c.715.981 1.072 2.283 1.072 3.904 0 1.632-.363 2.965-1.088 4s-1.755 1.552-3.088 1.552c-1.344 0-2.379-.517-3.104-1.552s-1.088-2.368-1.088-4zm6.144.016c0-2.272-.651-3.408-1.952-3.408-1.312 0-1.968 1.136-1.968 3.408 0 2.357.656 3.536 1.968 3.536 1.301 0 1.952-1.179 1.952-3.536zm4.812-.912c-.533-.512-.8-1.136-.8-1.872s.267-1.355.8-1.856c.533-.512 1.179-.768 1.936-.768a2.67 2.67 0 0 1 1.92.768c.533.501.8 1.12.8 1.856s-.267 1.36-.8 1.872a2.67 2.67 0 0 1-1.92.768c-.757 0-1.403-.256-1.936-.768zM45.586 19L51.65 8.44h1.744L47.314 19h-1.728zm1.696-8.128c0-.331-.101-.603-.304-.816-.192-.213-.437-.32-.736-.32-.32 0-.581.107-.784.32-.192.213-.288.485-.288.816 0 .341.096.619.288.832s.453.32.784.32c.299 0 .544-.107.736-.32.203-.213.304-.491.304-.832zm3.536 7.536c-.533-.512-.8-1.136-.8-1.872s.267-1.355.8-1.856a2.67 2.67 0 0 1 1.92-.768 2.67 2.67 0 0 1 1.92.768 2.42 2.42 0 0 1 .816 1.856c0 .736-.267 1.36-.8 1.872s-1.179.768-1.936.768a2.67 2.67 0 0 1-1.92-.768zm2.672-1.056c.203-.213.304-.485.304-.816s-.101-.603-.304-.816c-.192-.213-.437-.32-.736-.32-.331 0-.592.107-.784.32-.192.203-.288.475-.288.816s.096.619.288.832c.192.203.453.304.784.304.299 0 .544-.107.736-.32zM62.075 19V8.44h3.456c1.685-.021 3.072.464 4.16 1.456 1.088.981 1.621 2.245 1.6 3.792.021 1.536-.517 2.811-1.616 3.824s-2.48 1.509-4.144 1.488h-3.456zm2.16-1.952h1.28c1.067 0 1.925-.304 2.576-.912.651-.619.976-1.435.976-2.448 0-1.024-.32-1.829-.96-2.416s-1.504-.88-2.592-.88h-1.28v6.656zm8.279-3.328c-.021-1.515.528-2.811 1.648-3.888a5.35 5.35 0 0 1 3.984-1.584c1.003 0 1.909.235 2.72.704a5 5 0 0 1 1.936 1.92l-1.632 1.152c-.757-1.184-1.765-1.776-3.024-1.776-.981 0-1.797.331-2.448.992-.64.661-.96 1.493-.96 2.496s.32 1.829.96 2.48c.651.651 1.467.976 2.448.976 1.259 0 2.267-.592 3.024-1.776l1.632 1.152a5 5 0 0 1-1.92 1.936c-.821.459-1.739.688-2.752.688-1.547.032-2.88-.491-4-1.568-1.109-1.088-1.648-2.389-1.616-3.904zM87.022 19v-8.608h-3.376V8.44h8.928v1.952h-3.392V19h-2.16zm6.164-5.28c-.021-1.504.523-2.8 1.632-3.888 1.12-1.088 2.443-1.616 3.968-1.584 1.525-.032 2.848.496 3.968 1.584 1.131 1.088 1.685 2.384 1.664 3.888.021 1.504-.533 2.8-1.664 3.888-1.12 1.088-2.443 1.616-3.968 1.584-1.525.032-2.848-.496-3.968-1.584-1.109-1.088-1.653-2.384-1.632-3.888zm9.008 0c0-1.003-.325-1.829-.976-2.48-.64-.661-1.445-.992-2.416-.992-.981 0-1.792.325-2.432.976s-.96 1.483-.96 2.496.32 1.845.96 2.496 1.451.976 2.432.976c.971 0 1.776-.325 2.416-.976.651-.651.976-1.483.976-2.496zm3.089 3.984c0-.416.144-.768.432-1.056s.646-.432 1.072-.432c.416 0 .763.144 1.04.432.288.288.432.64.432 1.056 0 .427-.138.784-.416 1.072a1.43 1.43 0 0 1-1.056.416c-.427 0-.784-.139-1.072-.416-.288-.288-.432-.645-.432-1.072zM114.716 19V8.44h3.968c1.109 0 2.021.315 2.736.944s1.072 1.451 1.072 2.464c0 1.003-.357 1.824-1.072 2.464s-1.627.96-2.736.96h-1.808V19h-2.16zm2.16-5.616h1.808c.501 0 .891-.139 1.168-.416.288-.288.432-.661.432-1.12 0-.448-.149-.811-.448-1.088-.288-.277-.672-.416-1.152-.416h-1.808v3.04zm6.732.336c-.021-1.504.523-2.8 1.632-3.888 1.12-1.088 2.443-1.616 3.968-1.584 1.525-.032 2.848.496 3.968 1.584 1.131 1.088 1.685 2.384 1.664 3.888.021 1.504-.533 2.8-1.664 3.888-1.12 1.088-2.443 1.616-3.968 1.584-1.525.032-2.848-.496-3.968-1.584-1.109-1.088-1.653-2.384-1.632-3.888zm9.008 0c0-1.003-.325-1.829-.976-2.48-.64-.661-1.445-.992-2.416-.992-.981 0-1.792.325-2.432.976s-.96 1.483-.96 2.496.32 1.845.96 2.496 1.451.976 2.432.976c.971 0 1.776-.325 2.416-.976.651-.651.976-1.483.976-2.496zM145.581 19h-2.432l-2.736-3.728h-1.584V19h-2.16V8.44h3.968c1.109 0 2.021.315 2.736.944s1.072 1.451 1.072 2.464c0 .661-.165 1.259-.496 1.792-.32.523-.773.928-1.36 1.216L145.581 19zm-6.752-8.656v3.024h1.808c.501 0 .891-.139 1.168-.416.288-.277.432-.645.432-1.104 0-.448-.149-.811-.448-1.088-.288-.277-.672-.416-1.152-.416h-1.808zM148.881 19v-8.608h-3.376V8.44h8.928v1.952h-3.392V19h-2.16zm12.589 0l-.592-1.376h-4.32L155.966 19h-2.32l4.72-10.752h.72L163.79 19h-2.32zm-1.344-3.152l-1.408-3.568-1.408 3.568h2.816zm11.938-7.408h2.16v10.752h-.72l-6.112-6.528V19h-2.16V8.248h.704l6.128 6.496V8.44zM176.638 19V8.44h3.456c1.685-.021 3.072.464 4.16 1.456 1.088.981 1.621 2.245 1.6 3.792.021 1.536-.517 2.811-1.616 3.824s-2.48 1.509-4.144 1.488h-3.456zm2.16-1.952h1.28c1.067 0 1.925-.304 2.576-.912.651-.619.976-1.435.976-2.448 0-1.024-.32-1.829-.96-2.416s-1.504-.88-2.592-.88h-1.28v6.656zm8.279-3.328c-.022-1.504.522-2.8 1.632-3.888 1.12-1.088 2.442-1.616 3.968-1.584 1.525-.032 2.848.496 3.968 1.584 1.13 1.088 1.685 2.384 1.664 3.888.021 1.504-.534 2.8-1.664 3.888-1.12 1.088-2.443 1.616-3.968 1.584-1.526.032-2.848-.496-3.968-1.584-1.11-1.088-1.654-2.384-1.632-3.888zm9.008 0c0-1.003-.326-1.829-.976-2.48-.64-.661-1.446-.992-2.416-.992-.982 0-1.792.325-2.432.976s-.96 1.483-.96 2.496.32 1.845.96 2.496 1.45.976 2.432.976c.97 0 1.776-.325 2.416-.976.65-.651.976-1.483.976-2.496zm8.441.912V8.44h2.16v6.352c0 .757.214 1.349.64 1.776.427.416.987.624 1.68.624.704 0 1.264-.208 1.68-.624.427-.427.64-1.019.64-1.776V8.44h2.16v6.192c0 1.376-.421 2.48-1.264 3.312s-1.914 1.248-3.216 1.248c-1.312 0-2.389-.416-3.232-1.248-.832-.832-1.248-1.936-1.248-3.312zm18.131-6.192h2.16v10.752h-.72l-6.112-6.528V19h-2.16V8.248h.704l6.128 6.496V8.44zM234.048 19l-.592-1.376h-4.32L228.544 19h-2.32l4.72-10.752h.72L236.368 19h-2.32zm-1.344-3.152l-1.408-3.568-1.408 3.568h2.816zM22.693 39V28.44h2.16v8.608h4.624V39h-6.784zm8.391 0V28.44h2.16V39h-2.16zm.24-11.584l1.168-2.976h2.592v.384l-2.192 2.592h-1.568zm11.17 1.024h2.16v10.752h-.72l-6.112-6.528V39h-2.16V28.248h.704l6.128 6.496V28.44zM47.068 39V28.44h7.104v1.952h-4.944v2.144h3.632v1.84h-3.632v2.672h5.136V39h-7.296zm15.988 0l-.592-1.376h-4.32L57.551 39h-2.32l4.72-10.752h.72L65.375 39h-2.32zm-1.344-3.152l-1.408-3.568-1.408 3.568h2.816zM76.524 39l-.592-1.376h-4.32L71.02 39H68.7l4.72-10.752h.72L78.844 39h-2.32zm-1.344-3.152l-1.408-3.568-1.408 3.568h2.816zM80.286 39V28.44h3.456c1.685-.021 3.072.464 4.16 1.456 1.088.981 1.621 2.245 1.6 3.792.021 1.536-.517 2.811-1.616 3.824s-2.48 1.509-4.144 1.488h-3.456zm2.16-1.952h1.28c1.067 0 1.925-.304 2.576-.912.651-.619.976-1.435.976-2.448 0-1.024-.32-1.829-.96-2.416s-1.504-.88-2.592-.88h-1.28v6.656zM91.333 39V28.44h2.16V39h-2.16zm3.97-5.28c-.021-1.515.528-2.811 1.648-3.888a5.35 5.35 0 0 1 3.984-1.584c1.003 0 1.91.235 2.72.704a4.99 4.99 0 0 1 1.936 1.92l-1.632 1.152c-.757-1.184-1.765-1.776-3.024-1.776-.981 0-1.797.331-2.448.992-.64.661-.96 1.493-.96 2.496s.32 1.829.96 2.48c.651.651 1.467.976 2.448.976 1.259 0 2.267-.592 3.024-1.776l1.632 1.152a4.99 4.99 0 0 1-1.92 1.936c-.821.459-1.738.688-2.752.688a5.4 5.4 0 0 1-4-1.568c-1.109-1.088-1.648-2.389-1.616-3.904zM107.427 39V28.44h2.16V39h-2.16zm3.97-5.28c-.021-1.504.523-2.8 1.632-3.888 1.12-1.088 2.443-1.616 3.968-1.584 1.525-.032 2.848.496 3.968 1.584 1.131 1.088 1.685 2.384 1.664 3.888.021 1.504-.533 2.8-1.664 3.888-1.12 1.088-2.443 1.616-3.968 1.584-1.525.032-2.848-.496-3.968-1.584-1.109-1.088-1.653-2.384-1.632-3.888zm9.008 0c0-1.003-.325-1.829-.976-2.48-.64-.661-1.445-.992-2.416-.992-.981 0-1.792.325-2.432.976s-.96 1.483-.96 2.496.32 1.845.96 2.496 1.451.976 2.432.976c.971 0 1.776-.325 2.416-.976.651-.651.976-1.483.976-2.496zm10.885-5.28h2.16v10.752h-.72l-6.112-6.528V39h-2.16V28.248h.704l6.128 6.496V28.44zM142.68 39l-.592-1.376h-4.32L137.176 39h-2.32l4.72-10.752h.72L145 39h-2.32zm-1.344-3.152l-1.408-3.568-1.408 3.568h2.816zM146.443 39V28.44h2.16v8.608h4.624V39h-6.784zm12.078 0V28.44h3.968c1.109 0 2.021.315 2.736.944s1.072 1.451 1.072 2.464c0 1.003-.358 1.824-1.072 2.464s-1.627.96-2.736.96h-1.808V39h-2.16zm2.16-5.616h1.808c.501 0 .89-.139 1.168-.416.288-.288.432-.661.432-1.12 0-.448-.15-.811-.448-1.088-.288-.277-.672-.416-1.152-.416h-1.808v3.04zm6.732.336c-.022-1.504.522-2.8 1.632-3.888 1.12-1.088 2.442-1.616 3.968-1.584 1.525-.032 2.848.496 3.968 1.584 1.13 1.088 1.685 2.384 1.664 3.888.021 1.504-.534 2.8-1.664 3.888-1.12 1.088-2.443 1.616-3.968 1.584-1.526.032-2.848-.496-3.968-1.584-1.11-1.088-1.654-2.384-1.632-3.888zm9.008 0c0-1.003-.326-1.829-.976-2.48-.64-.661-1.446-.992-2.416-.992-.982 0-1.792.325-2.432.976s-.96 1.483-.96 2.496.32 1.845.96 2.496 1.45.976 2.432.976c.97 0 1.776-.325 2.416-.976.65-.651.976-1.483.976-2.496zM189.386 39h-2.432l-2.736-3.728h-1.584V39h-2.16V28.44h3.968c1.109 0 2.021.315 2.736.944s1.072 1.451 1.072 2.464c0 .661-.166 1.259-.496 1.792-.32.523-.774.928-1.36 1.216L189.386 39zm-6.752-8.656v3.024h1.808c.501 0 .89-.139 1.168-.416.288-.277.432-.645.432-1.104 0-.448-.15-.811-.448-1.088-.288-.277-.672-.416-1.152-.416h-1.808zm15.583-1.904h.72V39h-2.16v-8l-2 .64-.512-1.904 3.952-1.296zM212.118 39l-.592-1.376h-4.32L206.614 39h-2.32l4.72-10.752h.72L214.438 39h-2.32zm-1.344-3.152l-1.408-3.568-1.408 3.568h2.816zm11.938-7.408h2.16v10.752h-.72l-6.112-6.528V39h-2.16V28.248h.704l6.128 6.496V28.44zm-2.208-1.392l-.48-.256c-.309-.181-.544-.272-.704-.272-.299 0-.448.176-.448.528v.192h-1.648l-.032-.544c0-.629.176-1.141.528-1.536.352-.405.795-.608 1.328-.608.373 0 .768.112 1.184.336l.48.288c.277.181.517.272.72.272.299 0 .448-.181.448-.544v-.192h1.648l.032.528c0 .64-.176 1.163-.528 1.568-.352.395-.789.592-1.312.592-.384 0-.789-.117-1.216-.352zm6.174 6.672c-.021-1.504.523-2.8 1.632-3.888 1.12-1.088 2.443-1.616 3.968-1.584 1.526-.032 2.848.496 3.968 1.584 1.131 1.088 1.686 2.384 1.664 3.888.022 1.504-.533 2.8-1.664 3.888-1.12 1.088-2.442 1.616-3.968 1.584-1.525.032-2.848-.496-3.968-1.584-1.109-1.088-1.653-2.384-1.632-3.888zm9.008 0c0-1.003-.325-1.829-.976-2.48-.64-.661-1.445-.992-2.416-.992-.981 0-1.792.325-2.432.976s-.96 1.483-.96 2.496.32 1.845.96 2.496 1.451.976 2.432.976c.971 0 1.776-.325 2.416-.976.651-.651.976-1.483.976-2.496zM0 48h260v197a8 8 0 0 1-8 8H8a8 8 0 0 1-8-8V48z" fill="#fff"/><path d="M27.894 237.711h3.393c2.86 0 4.836-1.989 4.836-4.55v-.026c0-2.561-1.976-4.524-4.836-4.524h-3.393v9.1zm3.393-7.644c1.911 0 3.159 1.313 3.159 3.094v.026c0 1.781-1.248 3.068-3.159 3.068h-1.794v-6.188h1.794zm9.48 7.8c1.261 0 2.158-.507 2.808-1.287l-.923-.819c-.546.533-1.092.819-1.859.819-1.014 0-1.807-.624-1.976-1.742h5.044l.026-.442c0-1.976-1.105-3.692-3.289-3.692-1.963 0-3.354 1.612-3.354 3.575v.026c0 2.119 1.534 3.562 3.523 3.562zm-1.963-4.069c.143-1.066.819-1.807 1.781-1.807 1.04 0 1.638.793 1.742 1.807h-3.523zm8.756 4.043c1.43 0 2.548-.715 2.548-2.158v-.026c0-1.235-1.131-1.69-2.132-2.002-.806-.26-1.547-.468-1.547-.975v-.026c0-.39.351-.676.962-.676.572 0 1.274.247 1.937.65l.624-1.118a4.76 4.76 0 0 0-2.522-.78c-1.365 0-2.444.793-2.444 2.093v.026c0 1.313 1.131 1.729 2.145 2.015.806.247 1.534.429 1.534.962v.026c0 .455-.39.741-1.066.741-.702 0-1.495-.286-2.249-.845l-.702 1.066c.858.676 1.937 1.027 2.912 1.027zm6.734.013c1.118 0 1.833-.572 2.34-1.287v1.144h1.573v-9.49h-1.573v3.692c-.494-.65-1.209-1.209-2.34-1.209-1.638 0-3.185 1.287-3.185 3.562v.026c0 2.275 1.573 3.562 3.185 3.562zm.377-1.365c-1.066 0-1.976-.871-1.976-2.197v-.026c0-1.365.897-2.197 1.976-2.197 1.053 0 1.989.871 1.989 2.197v.026c0 1.313-.936 2.197-1.989 2.197zm8.397 1.378c1.261 0 2.158-.507 2.808-1.287l-.923-.819c-.546.533-1.092.819-1.859.819-1.014 0-1.807-.624-1.976-1.742h5.044l.026-.442c0-1.976-1.105-3.692-3.289-3.692-1.963 0-3.354 1.612-3.354 3.575v.026c0 2.119 1.534 3.562 3.523 3.562zm-1.963-4.069c.143-1.066.819-1.807 1.781-1.807 1.04 0 1.638.793 1.742 1.807h-3.523zm13.186 4.069c1.261 0 2.158-.507 2.808-1.287l-.923-.819c-.546.533-1.092.819-1.859.819-1.014 0-1.807-.624-1.976-1.742h5.044l.026-.442c0-1.976-1.105-3.692-3.289-3.692-1.963 0-3.354 1.612-3.354 3.575v.026c0 2.119 1.534 3.562 3.523 3.562zm-1.963-4.069c.143-1.066.819-1.807 1.781-1.807 1.04 0 1.638.793 1.742 1.807h-3.523zm6.494 3.913h1.573v-9.49h-1.573v9.49zm7.006 0H87.4v-3.874c0-1.053.598-1.703 1.469-1.703s1.391.598 1.391 1.664v3.913h1.573v-3.874c0-1.105.611-1.703 1.469-1.703.884 0 1.391.585 1.391 1.677v3.9h1.573v-4.381c0-1.677-.91-2.626-2.405-2.626-1.04 0-1.768.481-2.314 1.209-.364-.728-1.066-1.209-2.054-1.209-1.053 0-1.651.572-2.093 1.183v-1.04h-1.573v6.864zm15.239.156c1.261 0 2.158-.507 2.808-1.287l-.923-.819c-.546.533-1.092.819-1.859.819-1.014 0-1.807-.624-1.976-1.742h5.044l.026-.442c0-1.976-1.105-3.692-3.289-3.692-1.963 0-3.354 1.612-3.354 3.575v.026c0 2.119 1.534 3.562 3.523 3.562zm-1.963-4.069c.143-1.066.819-1.807 1.781-1.807 1.04 0 1.638.793 1.742 1.807h-3.523zm8.755 4.043c1.43 0 2.548-.715 2.548-2.158v-.026c0-1.235-1.131-1.69-2.132-2.002-.806-.26-1.547-.468-1.547-.975v-.026c0-.39.351-.676.962-.676.572 0 1.274.247 1.937.65l.624-1.118a4.76 4.76 0 0 0-2.522-.78c-1.365 0-2.444.793-2.444 2.093v.026c0 1.313 1.131 1.729 2.145 2.015.806.247 1.534.429 1.534.962v.026c0 .455-.39.741-1.066.741-.702 0-1.495-.286-2.249-.845l-.702 1.066c.858.676 1.937 1.027 2.912 1.027zm8.864-.13h1.586v-9.165h-1.105l-2.457.78.338 1.3 1.638-.455v7.54zm6.623.156c1.898 0 3.185-1.209 3.185-2.886v-.026c0-1.677-1.3-2.379-2.678-2.548l2.535-2.6v-1.196h-6.019v1.391h3.939l-2.457 2.613.26 1.001h.741c1.274 0 2.093.507 2.093 1.404v.026c0 .832-.676 1.378-1.573 1.378-1.014 0-1.742-.429-2.392-1.196l-1.118 1.04c.767.936 1.898 1.599 3.484 1.599zm10.711-.026c1.43 0 2.548-.715 2.548-2.158v-.026c0-1.235-1.131-1.69-2.132-2.002-.806-.26-1.547-.468-1.547-.975v-.026c0-.39.351-.676.962-.676.572 0 1.274.247 1.937.65l.624-1.118a4.76 4.76 0 0 0-2.522-.78c-1.365 0-2.444.793-2.444 2.093v.026c0 1.313 1.131 1.729 2.145 2.015.806.247 1.534.429 1.534.962v.026c0 .455-.39.741-1.066.741-.702 0-1.495-.286-2.249-.845l-.702 1.066c.858.676 1.937 1.027 2.912 1.027zm6.266.013c1.066 0 1.703-.559 2.145-1.209v1.066h1.586v-6.864h-1.586v3.874c0 1.066-.637 1.69-1.547 1.69-.936 0-1.469-.598-1.469-1.664v-3.9h-1.573v4.368c0 1.599.897 2.639 2.444 2.639zm9.349 0c1.625 0 3.185-1.287 3.185-3.562v-.026c0-2.288-1.573-3.562-3.185-3.562-1.118 0-1.833.572-2.34 1.287v-3.77h-1.573v9.49h1.573v-1.066c.481.637 1.196 1.209 2.34 1.209zm-.377-1.365c-1.066 0-2.002-.884-2.002-2.197v-.026c0-1.313.936-2.197 2.002-2.197s1.963.871 1.963 2.197v.026c0 1.352-.884 2.197-1.963 2.197zm8.071 1.378c1.261 0 2.158-.507 2.808-1.287l-.923-.819c-.546.533-1.092.819-1.859.819-1.014 0-1.807-.624-1.976-1.742h5.044l.026-.442c0-1.976-1.105-3.692-3.289-3.692-1.963 0-3.354 1.612-3.354 3.575v.026c0 2.119 1.534 3.562 3.523 3.562zm-1.963-4.069c.143-1.066.819-1.807 1.781-1.807 1.04 0 1.638.793 1.742 1.807h-3.523zm12.017 4.056c1.053 0 1.768-.442 2.236-1.001v.858h1.534v-4.069c0-.897-.234-1.625-.741-2.119-.481-.494-1.248-.767-2.275-.767-1.092 0-1.833.221-2.587.559l.416 1.235c.624-.26 1.196-.429 1.963-.429 1.105 0 1.703.52 1.703 1.495v.169c-.533-.169-1.079-.286-1.846-.286-1.677 0-2.834.728-2.834 2.21v.026c0 1.378 1.144 2.119 2.431 2.119zm.442-1.144c-.754 0-1.339-.377-1.339-1.04v-.026c0-.715.598-1.144 1.612-1.144a4.36 4.36 0 0 1 1.56.273v.468c0 .871-.793 1.469-1.833 1.469zm14.881-7.085c-.728-.533-1.508-.871-2.444-.988v-.78h-1.131v.754c-1.625.143-2.73 1.092-2.73 2.483v.026c0 1.469.884 2.171 2.782 2.665v2.561c-.845-.143-1.547-.533-2.288-1.144l-.832 1.196c.871.702 1.937 1.157 3.068 1.287v1.3h1.131v-1.274c1.651-.156 2.769-1.105 2.769-2.522v-.026c0-1.391-.845-2.171-2.821-2.665v-2.496c.598.13 1.196.429 1.768.845l.728-1.222zm-1.209 5.629v.026c0 .624-.455 1.027-1.287 1.118v-2.366c1.001.299 1.287.65 1.287 1.222zm-3.562-4.238v-.013c0-.572.416-1.001 1.248-1.079v2.301c-1.001-.312-1.248-.663-1.248-1.209zm6.209 6.695h6.578v-1.404h-4.329l1.872-1.56c1.612-1.313 2.366-2.093 2.366-3.523v-.026c0-1.625-1.222-2.717-3.003-2.717-1.625 0-2.483.689-3.354 1.898l1.144.897c.689-.91 1.261-1.365 2.093-1.365s1.469.52 1.469 1.417c0 .819-.455 1.391-1.703 2.457l-3.133 2.665v1.261zm11.027.156c2.015 0 3.38-1.222 3.38-3.081v-.026c0-1.924-1.404-2.86-3.172-2.86-.611 0-1.014.104-1.443.26l.143-2.132h4.069v-1.417h-5.447l-.26 4.459.962.637c.468-.221 1.027-.403 1.677-.403 1.105 0 1.885.585 1.885 1.508v.026c0 .949-.715 1.573-1.807 1.573-.845 0-1.612-.416-2.34-1.092l-.988 1.157c.858.832 1.95 1.391 3.341 1.391zm4.772-.156h1.729v-1.794h-1.729v1.794zm6.273-1.3c-.78 0-1.391-.286-2.08-.858l-.871 1.222c.767.637 1.651 1.092 2.912 1.092 2.457 0 3.9-2.028 3.9-4.953v-.026c0-1.794-.429-2.795-1.092-3.471-.65-.637-1.391-.962-2.535-.962-2.015 0-3.393 1.365-3.393 3.146v.026c0 1.755 1.287 2.886 3.224 2.886.936 0 1.638-.364 2.145-.975-.013 1.209-.598 2.873-2.21 2.873zm.299-3.237c-1.131 0-1.859-.676-1.859-1.625v-.026c0-.936.676-1.69 1.807-1.69 1.157 0 1.898.728 1.898 1.677v.026c0 .884-.689 1.638-1.846 1.638zm7.972 3.237c-.78 0-1.391-.286-2.08-.858l-.871 1.222c.767.637 1.651 1.092 2.912 1.092 2.457 0 3.9-2.028 3.9-4.953v-.026c0-1.794-.429-2.795-1.092-3.471-.65-.637-1.391-.962-2.535-.962-2.015 0-3.393 1.365-3.393 3.146v.026c0 1.755 1.287 2.886 3.224 2.886.936 0 1.638-.364 2.145-.975-.013 1.209-.598 2.873-2.21 2.873zm.299-3.237c-1.131 0-1.859-.676-1.859-1.625v-.026c0-.936.676-1.69 1.807-1.69 1.157 0 1.898.728 1.898 1.677v.026c0 .884-.689 1.638-1.846 1.638zm8.74 4.693c2.392 0 3.978-2.106 3.978-4.706v-.026c0-2.6-1.573-4.68-3.952-4.68-2.392 0-3.978 2.106-3.978 4.706v.026c0 2.6 1.56 4.68 3.952 4.68zm.026-1.443c-1.417 0-2.327-1.469-2.327-3.263v-.026c0-1.807.897-3.237 2.301-3.237s2.327 1.469 2.327 3.263v.026c0 1.781-.884 3.237-2.301 3.237z" fill="#76489b"/><path d="M16 221.28h226v8" stroke="#e92070"/><path d="M34.274 68v-9.24h3.248c.887 0 1.601.252 2.142.756.541.495.812 1.134.812 1.918 0 .793-.271 1.442-.812 1.946s-1.255.756-2.142.756h-2.156V68h-1.092zm1.092-4.844h2.128c.579 0 1.031-.154 1.358-.462s.49-.723.49-1.246c0-.513-.163-.924-.49-1.232-.327-.317-.779-.476-1.358-.476h-2.128v3.416zM42.299 68v-9.24h1.092v8.26h4.382V68h-5.474zm13.494 0l-.784-1.876h-4.536L49.689 68h-1.148l4.004-9.394h.406L56.955 68h-1.162zm-1.204-2.856l-1.848-4.55-1.848 4.55h3.696zm10.347-6.384h1.092v9.394h-.392l-5.88-7.084V68h-1.092v-9.394h.392l5.88 7.098V58.76zm6.822 4.62c-.028-1.325.443-2.459 1.414-3.402.98-.943 2.156-1.405 3.528-1.386 1.652 0 2.949.667 3.892 2.002L79.249 61.7c-.653-.905-1.512-1.358-2.576-1.358-.877 0-1.591.285-2.142.854s-.826 1.297-.826 2.184c0 .905.285 1.647.854 2.226s1.311.868 2.226.868c1.073 0 1.885-.383 2.436-1.148v-.756h-2.548v-1.638h4.438v2.73c-.429.756-1.031 1.363-1.806 1.82-.765.457-1.633.686-2.604.686a4.72 4.72 0 0 1-3.5-1.372c-.98-.952-1.461-2.091-1.442-3.416zM82.75 68v-9.24h1.89V68h-1.89zm3.474-4.62c-.028-1.325.443-2.459 1.414-3.402.98-.943 2.156-1.405 3.528-1.386 1.652 0 2.949.667 3.892 2.002L93.713 61.7c-.653-.905-1.512-1.358-2.576-1.358-.877 0-1.591.285-2.142.854s-.826 1.297-.826 2.184c0 .905.285 1.647.854 2.226s1.311.868 2.226.868c1.073 0 1.885-.383 2.436-1.148v-.756h-2.548v-1.638h4.438v2.73c-.429.756-1.031 1.363-1.806 1.82-.765.457-1.633.686-2.604.686a4.72 4.72 0 0 1-3.5-1.372c-.98-.952-1.461-2.091-1.442-3.416zM103.042 68l-.518-1.204h-3.78L98.226 68h-2.03l4.13-9.408h.63L105.072 68h-2.03zm-1.176-2.758l-1.232-3.122-1.232 3.122h2.464zm3.755.882l1.302-.98c.654.896 1.41 1.344 2.268 1.344.411 0 .733-.089.966-.266.234-.187.35-.439.35-.756 0-.261-.079-.462-.238-.602-.158-.149-.471-.331-.938-.546l-.994-.448c-1.493-.663-2.24-1.549-2.24-2.66 0-.784.29-1.414.868-1.89.579-.485 1.312-.728 2.198-.728.691 0 1.298.159 1.82.476.523.308.934.733 1.232 1.274l-1.288.994c-.476-.709-1.064-1.064-1.764-1.064-.336 0-.611.079-.826.238s-.322.378-.322.658c0 .233.075.425.224.574.159.14.444.303.854.49l1.05.462c.794.355 1.372.742 1.736 1.162.364.411.546.924.546 1.54 0 .831-.303 1.503-.91 2.016-.606.504-1.381.756-2.324.756a4.1 4.1 0 0 1-2.1-.546c-.616-.364-1.106-.863-1.47-1.498zm19.262-7.364l-3.178 5.6V68h-1.89v-3.626l-3.192-5.614h2.1l2.044 3.668 2.03-3.668h2.086zm13.093-.168h.616V68h-1.89v-4.928l-2.324 2.912h-.616l-2.324-2.912V68h-1.89v-9.408h.616l3.906 4.998 3.906-4.998zM140.718 68v-9.24h1.89V68h-1.89zm9.984-9.24h1.89v9.408h-.63l-5.348-5.712V68h-1.89v-9.408h.616l5.362 5.684V58.76zm3.919 5.418V58.76h1.89v5.558c0 .663.186 1.181.56 1.554.373.364.863.546 1.47.546.616 0 1.106-.182 1.47-.546.373-.373.56-.891.56-1.554V58.76h1.89v5.418c0 1.204-.369 2.17-1.106 2.898s-1.676 1.092-2.814 1.092c-1.148 0-2.091-.364-2.828-1.092-.728-.728-1.092-1.694-1.092-2.898zM166.593 68v-7.532h-2.954V58.76h7.812v1.708h-2.968V68h-1.89zm5.394-4.62c-.019-1.316.457-2.45 1.428-3.402.98-.952 2.137-1.414 3.472-1.386 1.335-.028 2.492.434 3.472 1.386.989.952 1.475 2.086 1.456 3.402.019 1.316-.467 2.45-1.456 3.402-.98.952-2.137 1.414-3.472 1.386-1.335.028-2.492-.434-3.472-1.386-.971-.952-1.447-2.086-1.428-3.402zm7.882 0c0-.877-.285-1.601-.854-2.17-.56-.579-1.265-.868-2.114-.868-.859 0-1.568.285-2.128.854s-.84 1.297-.84 2.184.28 1.615.84 2.184 1.269.854 2.128.854c.849 0 1.554-.285 2.114-.854.569-.569.854-1.297.854-2.184zm2.903 2.744l1.302-.98c.653.896 1.409 1.344 2.268 1.344.41 0 .732-.089.966-.266.233-.187.35-.439.35-.756 0-.261-.08-.462-.238-.602-.159-.149-.472-.331-.938-.546l-.994-.448c-1.494-.663-2.24-1.549-2.24-2.66 0-.784.289-1.414.868-1.89.578-.485 1.311-.728 2.198-.728.69 0 1.297.159 1.82.476.522.308.933.733 1.232 1.274l-1.288.994c-.476-.709-1.064-1.064-1.764-1.064-.336 0-.612.079-.826.238a.77.77 0 0 0-.322.658c0 .233.074.425.224.574.158.14.443.303.854.49l1.05.462c.793.355 1.372.742 1.736 1.162.364.411.546.924.546 1.54 0 .831-.304 1.503-.91 2.016-.607.504-1.382.756-2.324.756-.775 0-1.475-.182-2.1-.546-.616-.364-1.106-.863-1.47-1.498z" fill="#491966"/><path d="M30.508 104V78.92h6.536v19.19h10.374V104h-16.91zm20.336 0V78.92h6.536V104h-6.536zm31.719-7.448c0 2.153-.811 3.939-2.432 5.358-1.596 1.393-3.61 2.09-6.042 2.09H62.385V78.92h9.044c2.432 0 4.446.697 6.042 2.09 1.621 1.368 2.432 3.141 2.432 5.32 0 1.697-.507 3.103-1.52 4.218 2.787 1.14 4.18 3.141 4.18 6.004zM71.011 84.43h-2.356v4.408h2.356c.785 0 1.393-.203 1.824-.608.456-.405.684-.937.684-1.596s-.228-1.191-.684-1.596c-.431-.405-1.039-.608-1.824-.608zm2.66 14.06c1.672 0 2.508-.735 2.508-2.204s-.836-2.204-2.508-2.204h-5.016v4.408h5.016zM108.29 104h-7.296l-5.662-7.79h-2.698V104h-6.536V78.92h9.842c2.812 0 5.13.798 6.954 2.394 1.824 1.571 2.736 3.648 2.736 6.232 0 3.141-1.317 5.523-3.952 7.144l6.612 9.31zM92.634 84.62v5.89h3.344c.912 0 1.634-.266 2.166-.798.557-.557.836-1.279.836-2.166s-.279-1.596-.836-2.128c-.532-.532-1.254-.798-2.166-.798h-3.344zM110.887 104V78.92h17.404v5.89h-10.868v3.458h7.752v5.472h-7.752v4.37h11.324V104h-17.86zm20.298-5.168l4.408-3.344c.81 1.064 1.646 1.875 2.508 2.432.861.532 1.887.798 3.078.798 1.722 0 2.584-.608 2.584-1.824 0-.532-.165-.937-.494-1.216s-1.014-.646-2.052-1.102l-2.584-1.14c-4.231-1.875-6.346-4.395-6.346-7.562 0-2.204.81-3.99 2.432-5.358 1.646-1.368 3.762-2.052 6.346-2.052 4.053 0 6.916 1.685 8.588 5.054l-4.37 3.344c-.634-.937-1.267-1.609-1.9-2.014-.634-.431-1.381-.646-2.242-.646-1.495 0-2.242.532-2.242 1.596 0 .456.152.836.456 1.14.329.279.899.583 1.71.912l2.888 1.216c2.229.937 3.85 2.001 4.864 3.192 1.038 1.165 1.558 2.622 1.558 4.37 0 2.381-.874 4.281-2.622 5.7-1.723 1.419-3.914 2.128-6.574 2.128-2.23 0-4.231-.494-6.004-1.482-1.748-1.013-3.078-2.394-3.99-4.142z" fill="#e92070"/><g clip-path="url(#A)"><rect x="16" y="120" width="226" height="42" rx="8" fill="#f4f4f7"/><path d="M53 150.92l1.36-4.96a10.13 10.13 0 0 1-1.36-5.04c0-5.44 4.48-9.92 9.92-9.92s10 4.48 10 9.92-4.56 10-10 10c-1.68 0-3.36-.56-4.88-1.36L53 150.92z" fill="#fff" stroke="#cccdd1" stroke-width=".5" stroke-miterlimit="10"/><path d="M58.36 147.8l.32.16c1.28.8 2.72 1.28 4.32 1.28 4.48 0 8.24-3.76 8.24-8.32s-3.76-8.16-8.32-8.16-8.24 3.68-8.24 8.16c0 1.6.48 3.12 1.28 4.4l.24.32-.8 2.88 2.96-.72z" fill="#009e56"/><path d="M60.28 136.28h-.64c-.24 0-.4.08-.56.24-.32.24-.8.8-.96 1.44-.24 1.04.16 2.24 1.04 3.52.88 1.2 2.64 3.2 5.6 4.08.96.24 1.68.08 2.32-.24.48-.32.8-.8.88-1.28l.08-.48c0-.16 0-.32-.16-.4l-2.16-.96c-.16-.08-.32 0-.4.08l-.88 1.12c-.08.08-.16.08-.24.08-.56-.24-2.56-1.04-3.6-3.12v-.24l.8-.96c.08-.08.08-.24.08-.32l-.96-2.24c0-.16-.16-.32-.24-.32z" fill="#fff"/><path d="M80.682 138h5.863v-1.87h-3.729v-5.83h-2.134v7.7zm6.844 0h2.134v-7.7h-2.134v7.7zm3.544 0h3.971c1.837 0 2.915-.803 2.915-2.123v-.022c0-1.045-.594-1.573-1.529-1.881.682-.297 1.188-.825 1.188-1.716v-.022c0-.528-.187-.935-.495-1.254-.451-.44-1.133-.682-2.101-.682H91.07v7.7zm4.444-5.302c0 .451-.374.671-1.023.671h-1.342v-1.353h1.397c.627 0 .968.231.968.66v.022zm.308 2.86v.022c0 .451-.363.704-1.023.704h-1.65v-1.419h1.628c.715 0 1.045.275 1.045.693zM98.933 138h2.134v-2.332h.946l1.551 2.332h2.453l-1.837-2.684c.957-.407 1.584-1.188 1.584-2.376v-.022c0-.759-.231-1.342-.682-1.793-.517-.517-1.331-.825-2.508-.825h-3.641v7.7zm2.134-4.004v-1.859h1.408c.704 0 1.155.308 1.155.924v.022c0 .561-.429.913-1.144.913h-1.419zm5.772 4.004h6.248v-1.815h-4.136v-1.221h3.696v-1.683h-3.696v-1.177h4.081V130.3h-6.193v7.7zm10.399 0h6.248v-1.815h-4.136v-1.221h3.696v-1.683h-3.696v-1.177h4.081V130.3h-6.193v7.7zm7.347 0h2.112v-4.224l3.3 4.224h1.859v-7.7h-2.112v4.07l-3.168-4.07h-1.991v7.7zm11.688 0h2.134v-2.332h.946l1.551 2.332h2.453l-1.837-2.684c.957-.407 1.584-1.188 1.584-2.376v-.022c0-.759-.231-1.342-.682-1.793-.517-.517-1.331-.825-2.508-.825h-3.641v7.7zm2.134-4.004v-1.859h1.408c.704 0 1.155.308 1.155.924v.022c0 .561-.429.913-1.144.913h-1.419zm9.655 4.158c2.376 0 4.158-1.793 4.158-4.004v-.022c0-2.211-1.76-3.982-4.136-3.982s-4.158 1.793-4.158 4.004v.022c0 2.211 1.76 3.982 4.136 3.982zm.022-1.925c-1.177 0-1.98-.968-1.98-2.079v-.022c0-1.111.781-2.057 1.958-2.057s1.969.957 1.969 2.079v.022c0 1.111-.781 2.057-1.947 2.057zm4.138 1.771h2.233l.55-1.386h2.981l.55 1.386h2.288l-3.278-7.755h-2.057L152.222 138zm3.41-3.047l.869-2.178.858 2.178h-1.727zm5.939 3.047h2.09v-4.411l1.958 3.003h.044l1.969-3.014V138h2.123v-7.7H167.5l-1.837 2.981-1.837-2.981h-2.255v7.7zm9.604 0h2.134v-7.7h-2.134v7.7zm3.544 0h2.112v-4.224l3.3 4.224h1.859v-7.7h-2.112v4.07l-3.168-4.07h-1.991v7.7zm12.564.154c1.408 0 2.53-.517 3.344-1.199v-3.454h-3.531v1.562h1.507v.935c-.308.209-.704.319-1.232.319-1.221 0-2.09-.891-2.09-2.145v-.022c0-1.177.858-2.101 1.969-2.101.77 0 1.309.264 1.859.726l1.254-1.518c-.814-.704-1.771-1.111-3.124-1.111-2.376 0-4.136 1.76-4.136 4.004v.022c0 2.332 1.782 3.982 4.18 3.982zM81.089 151h5.621v-.792h-4.752v-2.695h4.202v-.792h-4.202v-2.629h4.697v-.792h-5.566v7.7zm7.369 0h.847v-6.314L94.277 151h.693v-7.7h-.847v6.171l-4.851-6.171h-.814v7.7zm11.988 0h.847v-6.226l2.805 4.114h.044l2.805-4.125V151h.869v-7.7h-.88l-2.805 4.202-2.805-4.202h-.88v7.7zm8.89 0h.891l.913-2.035h4.191l.902 2.035h.935l-3.509-7.755h-.814L109.336 151zm2.145-2.816l1.76-3.927 1.749 3.927h-3.509zm1.419-5.676h.704l1.265-1.023-.869-.396-1.1 1.419zm8.276 8.602c1.529 0 2.629-.858 2.629-2.178v-.022c0-1.177-.792-1.793-2.508-2.178-1.705-.352-2.09-.77-2.09-1.496v-.022c0-.704.627-1.243 1.639-1.243.792 0 1.507.253 2.222.836l.506-.671c-.792-.627-1.573-.946-2.706-.946-1.463 0-2.53.902-2.53 2.101v.022c0 1.265.814 1.837 2.585 2.222 1.617.352 2.002.748 2.002 1.463v.022c0 .759-.671 1.309-1.716 1.309-1.067 0-1.837-.352-2.64-1.089l-.539.638c.924.836 1.914 1.232 3.146 1.232zm7.694-.11h2.673c2.42 0 4.092-1.683 4.092-3.85v-.022c0-2.167-1.672-3.828-4.092-3.828h-2.673v7.7zm2.673-6.897c1.947 0 3.19 1.342 3.19 3.047v.022c0 1.716-1.243 3.025-3.19 3.025h-1.804v-6.094h1.804zm5.932 6.897h5.621v-.792h-4.752v-2.695h4.202v-.792h-4.202v-2.629h4.697v-.792h-5.566v7.7zm12.911.132c1.617 0 2.75-1.023 2.75-2.53v-.022c0-1.463-1.166-2.354-2.662-2.354a3.29 3.29 0 0 0-1.518.341l.165-2.464h3.674v-.803h-4.433l-.22 3.751.583.385c.451-.253.957-.44 1.617-.44 1.111 0 1.914.649 1.914 1.617v.022c0 .979-.759 1.705-1.859 1.705-.792 0-1.518-.396-2.189-1.056l-.572.627c.704.704 1.65 1.221 2.75 1.221zm7.329 0c1.98 0 3.256-1.826 3.256-3.982v-.022c0-2.156-1.254-3.96-3.234-3.96s-3.267 1.826-3.267 3.982v.022c0 2.156 1.254 3.96 3.245 3.96zm.022-.792c-1.452 0-2.365-1.518-2.365-3.19v-.022c0-1.694.902-3.168 2.343-3.168s2.354 1.518 2.354 3.19v.022c0 1.683-.88 3.168-2.332 3.168zm8.301.66h.869v-2.717h1.87c1.639 0 3.025-.858 3.025-2.519v-.022c0-1.518-1.144-2.442-2.882-2.442h-2.882v7.7zm.869-3.509v-3.388h1.947c1.243 0 2.068.572 2.068 1.672v.022c0 1.012-.836 1.694-2.112 1.694h-1.903zm5.045 3.509h.891l.913-2.035h4.191l.902 2.035h.935l-3.509-7.755h-.814L171.952 151zm2.145-2.816l1.76-3.927 1.749 3.927h-3.509zM181.38 151h.869v-7.7h-.869v7.7zm5.764.11c1.529 0 2.629-.858 2.629-2.178v-.022c0-1.177-.792-1.793-2.508-2.178-1.705-.352-2.09-.77-2.09-1.496v-.022c0-.704.627-1.243 1.639-1.243.792 0 1.507.253 2.222.836l.506-.671c-.792-.627-1.573-.946-2.706-.946-1.463 0-2.53.902-2.53 2.101v.022c0 1.265.814 1.837 2.585 2.222 1.617.352 2.002.748 2.002 1.463v.022c0 .759-.671 1.309-1.716 1.309-1.067 0-1.837-.352-2.64-1.089l-.539.638c.924.836 1.914 1.232 3.146 1.232zm4.396-.11h5.621v-.792h-4.752v-2.695h4.202v-.792h-4.202v-2.629h4.697v-.792h-5.566v7.7zm10.009.11c1.529 0 2.629-.858 2.629-2.178v-.022c0-1.177-.792-1.793-2.508-2.178-1.705-.352-2.09-.77-2.09-1.496v-.022c0-.704.627-1.243 1.639-1.243.792 0 1.507.253 2.222.836l.506-.671c-.792-.627-1.573-.946-2.706-.946-1.463 0-2.53.902-2.53 2.101v.022c0 1.265.814 1.837 2.585 2.222 1.617.352 2.002.748 2.002 1.463v.022c0 .759-.671 1.309-1.716 1.309-1.067 0-1.837-.352-2.64-1.089l-.539.638c.924.836 1.914 1.232 3.146 1.232z" fill="#7c6c8a"/></g><path d="M24.456 209.012v4.75h-5.472v-4.864c-2.888-.735-5.029-2.419-6.422-5.054l4.332-3.306c1.317 2.001 3.027 3.002 5.13 3.002 1.571 0 2.356-.456 2.356-1.368 0-.38-.165-.684-.494-.912-.329-.253-.925-.532-1.786-.836l-2.546-.836c-1.9-.659-3.357-1.583-4.37-2.774s-1.52-2.571-1.52-4.142.481-2.926 1.444-4.066 2.255-1.938 3.876-2.394v-4.636h5.472v4.56c2.457.608 4.307 2.103 5.548 4.484l-4.332 3.306c-1.064-1.571-2.343-2.356-3.838-2.356-1.191 0-1.786.38-1.786 1.14 0 .608.633 1.127 1.9 1.558l2.85.874c3.977 1.368 5.966 3.673 5.966 6.916 0 1.799-.57 3.306-1.71 4.522s-2.673 2.027-4.598 2.432zm18.204-24.092h2.09V210h-6.536v-17.328l-4.256 1.406-1.558-5.776 10.26-3.382zm18.204 19.608h7.752V210l-19.19.038v-1.33l9.006-9.842c2.001-2.179 3.002-4.028 3.002-5.548 0-.887-.241-1.583-.722-2.09s-1.115-.76-1.9-.76-1.419.266-1.9.798c-.456.532-.684 1.267-.684 2.204a9.77 9.77 0 0 0 .152 1.672h-6.574c-.177-.684-.266-1.393-.266-2.128-.051-2.229.823-4.218 2.622-5.966 1.824-1.773 4.079-2.635 6.764-2.584 2.609 0 4.788.785 6.536 2.356 1.773 1.571 2.66 3.534 2.66 5.89 0 1.647-.431 3.217-1.292 4.712-.861 1.469-2.255 3.217-4.18 5.244l-1.786 1.862zm11.956 4.712c-.811-.811-1.216-1.824-1.216-3.04s.405-2.229 1.216-3.04 1.849-1.216 3.116-1.216c1.216 0 2.217.405 3.002 1.216.811.811 1.216 1.824 1.216 3.04s-.405 2.229-1.216 3.04c-.785.811-1.786 1.216-3.002 1.216-1.267 0-2.305-.405-3.116-1.216zm28.11-15.428c0 1.393-.278 2.635-.836 3.724-.532 1.089-1.393 2.445-2.584 4.066L91.24 210h-7.714l5.586-7.562c-2.027-.279-3.787-1.216-5.282-2.812-1.469-1.621-2.204-3.585-2.204-5.89-.051-2.584.912-4.788 2.888-6.612s4.231-2.711 6.764-2.66a9.5 9.5 0 0 1 6.764 2.698c1.925 1.773 2.888 3.99 2.888 6.65zm-6.46-.038c0-.937-.317-1.723-.95-2.356-.608-.633-1.355-.95-2.242-.95a3.11 3.11 0 0 0-2.28.95c-.608.633-.912 1.419-.912 2.356s.304 1.71.912 2.318c.633.608 1.393.912 2.28.912.912 0 1.672-.304 2.28-.912a3.22 3.22 0 0 0 .912-2.318zm28.132.038c0 1.393-.279 2.635-.836 3.724-.532 1.089-1.393 2.445-2.584 4.066l-6.27 8.398h-7.714l5.586-7.562c-2.027-.279-3.787-1.216-5.282-2.812-1.469-1.621-2.204-3.585-2.204-5.89-.051-2.584.912-4.788 2.888-6.612s4.231-2.711 6.764-2.66a9.5 9.5 0 0 1 6.764 2.698c1.925 1.773 2.888 3.99 2.888 6.65zm-6.46-.038c0-.937-.317-1.723-.95-2.356-.608-.633-1.355-.95-2.242-.95s-1.647.317-2.28.95c-.608.633-.912 1.419-.912 2.356s.304 1.71.912 2.318c.633.608 1.393.912 2.28.912.912 0 1.672-.304 2.28-.912a3.22 3.22 0 0 0 .912-2.318zm27.79 7.79c0 2.559-.963 4.687-2.888 6.384-1.925 1.672-4.307 2.508-7.144 2.508-2.204 0-4.167-.532-5.89-1.596-1.697-1.064-2.977-2.533-3.838-4.408l4.522-3.192c.76 1.14 1.507 1.963 2.242 2.47.76.481 1.659.722 2.698.722 1.089 0 1.963-.241 2.622-.722.659-.507.988-1.203.988-2.09 0-1.697-1.444-2.546-4.332-2.546h-5.966V184.92h15.542v5.89h-9.348v2.926c.887-.177 1.685-.266 2.394-.266 2.179-.051 4.129.697 5.852 2.242 1.748 1.545 2.597 3.496 2.546 5.852z" fill="#76489b"/><path d="M146.576 205.32c-.024-1.128.372-2.096 1.188-2.904.824-.808 1.8-1.204 2.928-1.188.696 0 1.332.152 1.908.456.584.304 1.044.72 1.38 1.248l-.696.552c-.648-.928-1.508-1.392-2.58-1.392-.896 0-1.648.308-2.256.924-.6.616-.9 1.384-.9 2.304s.3 1.688.9 2.304c.608.616 1.36.924 2.256.924 1.072 0 1.932-.464 2.58-1.392l.696.552c-.336.528-.796.944-1.38 1.248-.576.304-1.212.456-1.908.456-1.128.016-2.104-.38-2.928-1.188-.816-.808-1.212-1.776-1.188-2.904zm13.344.36v3.6h-.864v-.756c-.448.592-1.104.888-1.968.888-.608 0-1.1-.148-1.476-.444-.376-.304-.564-.704-.564-1.2s.192-.892.576-1.188.892-.444 1.524-.444h1.848v-.504c0-.472-.128-.836-.384-1.092-.248-.256-.592-.384-1.032-.384-.656 0-1.224.312-1.704.936l-.612-.504c.52-.856 1.312-1.284 2.376-1.284.704 0 1.26.208 1.668.624.408.408.612.992.612 1.752zm-.924 1.356v-.144h-1.74c-.84 0-1.26.276-1.26.828a.81.81 0 0 0 .336.684c.232.16.524.24.876.24.488 0 .908-.156 1.26-.468s.528-.692.528-1.14zm5.991-3.6v.816h-.348c-.512 0-.948.156-1.308.468-.352.312-.528.728-.528 1.248v3.312h-.924v-5.844h.864v.828c.432-.584 1.036-.876 1.812-.876a1.88 1.88 0 0 1 .432.048zm5.863 0h.876v5.28c0 .88-.256 1.576-.768 2.088s-1.204.768-2.076.768c-1.08 0-1.996-.376-2.748-1.128l.54-.648c.704.616 1.432.924 2.184.924.608 0 1.084-.172 1.428-.516.344-.336.516-.816.516-1.44v-.516a2.37 2.37 0 0 1-.936.72 3.05 3.05 0 0 1-1.236.252c-.824 0-1.508-.28-2.052-.84s-.816-1.264-.816-2.112c0-.84.272-1.544.816-2.112.552-.568 1.236-.852 2.052-.852a2.88 2.88 0 0 1 1.284.288c.4.184.712.444.936.78v-.936zm-.036 2.832c0-.664-.2-1.176-.6-1.536-.392-.368-.872-.552-1.44-.552-.6 0-1.096.2-1.488.6-.392.392-.588.892-.588 1.5 0 .616.196 1.12.588 1.512.392.384.888.576 1.488.576.576 0 1.06-.18 1.452-.54.392-.368.588-.888.588-1.56zm2.516.084c-.016-.832.28-1.552.888-2.16.616-.608 1.34-.904 2.172-.888a2.88 2.88 0 0 1 2.172.888c.608.608.904 1.328.888 2.16.016.824-.284 1.544-.9 2.16-.616.608-1.34.904-2.172.888-.832.016-1.552-.28-2.16-.888-.608-.616-.904-1.336-.888-2.16zm5.172.012c0-.624-.204-1.148-.612-1.572-.4-.424-.9-.636-1.5-.636s-1.104.212-1.512.636c-.4.416-.6.94-.6 1.572 0 .616.2 1.136.6 1.56a2.02 2.02 0 0 0 1.5.624 2 2 0 0 0 1.5-.636c.416-.424.624-.94.624-1.548zm7.004-4.26v1.332h1.464v.828h-1.464v5.016h-.924v-5.016h-.84v-.828h.84v-1.392c0-.624.168-1.096.504-1.416.344-.32.82-.48 1.428-.48a2.83 2.83 0 0 1 .732.096v.78c-.192-.024-.364-.036-.516-.036-.408 0-.716.088-.924.264-.2.168-.3.452-.3.852zm2.741 7.176v-5.844h.924v5.844h-.924zm-.228-8.076a.62.62 0 0 1 .204-.468.67.67 0 0 1 .492-.204c.184 0 .344.068.48.204a.62.62 0 0 1 .204.468.63.63 0 0 1-.204.48.65.65 0 0 1-.48.192.69.69 0 0 1-.492-.192.63.63 0 0 1-.204-.48zm1.441 10.272v-.78l.54.036c.4 0 .7-.088.9-.264s.3-.46.3-.852v-6.18h.924v6.24c0 .624-.172 1.096-.516 1.416-.336.32-.804.48-1.404.48-.256 0-.504-.032-.744-.096zm1.512-10.272a.62.62 0 0 1 .204-.468.67.67 0 0 1 .492-.204c.184 0 .344.068.48.204a.62.62 0 0 1 .204.468.63.63 0 0 1-.204.48.65.65 0 0 1-.48.192.69.69 0 0 1-.492-.192.63.63 0 0 1-.204-.48zm2.761 5.148c-.016-.832.28-1.552.888-2.16.616-.608 1.34-.904 2.172-.888a2.88 2.88 0 0 1 2.172.888c.608.608.904 1.328.888 2.16.016.824-.284 1.544-.9 2.16-.616.608-1.34.904-2.172.888-.832.016-1.552-.28-2.16-.888-.608-.616-.904-1.336-.888-2.16zm5.172.012c0-.624-.204-1.148-.612-1.572-.4-.424-.9-.636-1.5-.636s-1.104.212-1.512.636c-.4.416-.6.94-.6 1.572 0 .616.2 1.136.6 1.56a2.02 2.02 0 0 0 1.5.624 2 2 0 0 0 1.5-.636c.416-.424.624-.94.624-1.548zm12.967-5.136h.324v8.052h-.936v-5.676l-2.532 3.432h-.336l-2.544-3.456v5.7h-.936v-8.052h.336l3.3 4.572 3.324-4.572zm7.538 5.412h-4.62c.056.576.284 1.04.684 1.392s.888.528 1.464.528c.664 0 1.26-.264 1.788-.792l.54.624c-.656.68-1.436 1.02-2.34 1.02-.872 0-1.608-.292-2.208-.876-.592-.592-.888-1.316-.888-2.172a2.98 2.98 0 0 1 .864-2.16 2.85 2.85 0 0 1 2.124-.9c.76 0 1.392.248 1.896.744.512.496.768 1.128.768 1.896 0 .224-.024.456-.072.696zm-4.584-.816h3.708c-.008-.512-.176-.92-.504-1.224s-.74-.456-1.236-.456a1.88 1.88 0 0 0-1.272.468c-.36.304-.592.708-.696 1.212zm11.116-.216v3.672h-.924v-3.564c0-.464-.132-.84-.396-1.128-.256-.288-.608-.432-1.056-.432s-.816.148-1.104.444c-.288.288-.432.66-.432 1.116v3.564h-.924v-5.844h.864v.624c.456-.504 1.056-.756 1.8-.756.672 0 1.2.212 1.584.636.392.416.588.972.588 1.668zm1.409 2.664l.588-.612c.304.312.58.54.828.684.256.144.54.216.852.216.328 0 .596-.072.804-.216a.72.72 0 0 0 .312-.612c0-.224-.076-.396-.228-.516-.144-.128-.408-.268-.792-.42l-.564-.24c-.504-.208-.872-.436-1.104-.684s-.348-.56-.348-.936c0-.496.184-.892.552-1.188.376-.296.848-.444 1.416-.444a2.43 2.43 0 0 1 1.956.924l-.564.576c-.432-.432-.912-.648-1.44-.648-.296 0-.532.064-.708.192s-.264.308-.264.54c0 .184.064.336.192.456.136.112.388.244.756.396l.54.228c.56.24.956.492 1.188.756.24.256.36.58.36.972 0 .544-.2.968-.6 1.272-.392.296-.876.444-1.452.444a2.74 2.74 0 0 1-2.28-1.14zm5.929-1.32v-3.516h.912v3.576c0 .464.14.84.42 1.128.288.28.652.42 1.092.42.432 0 .788-.144 1.068-.432s.42-.66.42-1.116v-3.576h.924v3.516c0 .728-.232 1.32-.696 1.776-.456.456-1.028.684-1.716.684-.696 0-1.276-.228-1.74-.684-.456-.456-.684-1.048-.684-1.776zm11.167-1.272v3.6h-.864v-.756c-.448.592-1.104.888-1.968.888-.608 0-1.1-.148-1.476-.444-.376-.304-.564-.704-.564-1.2s.192-.892.576-1.188.892-.444 1.524-.444h1.848v-.504c0-.472-.128-.836-.384-1.092-.248-.256-.592-.384-1.032-.384-.656 0-1.224.312-1.704.936l-.612-.504c.52-.856 1.312-1.284 2.376-1.284.704 0 1.26.208 1.668.624.408.408.612.992.612 1.752zm-.924 1.356v-.144h-1.74c-.84 0-1.26.276-1.26.828a.81.81 0 0 0 .336.684c.232.16.524.24.876.24.488 0 .908-.156 1.26-.468s.528-.692.528-1.14zm2.884 2.244v-9h.924v9h-.924z" fill="#491966"/><defs><clipPath id="A"><rect x="16" y="120" width="226" height="42" rx="8" fill="#fff"/></clipPath></defs></svg>