<svg xmlns="http://www.w3.org/2000/svg" xmlns:xlink="http://www.w3.org/1999/xlink" width="254" height="329" fill="none" xmlns:v="https://vecta.io/nano"><style><![CDATA[.B{fill-rule:evenodd}.C{fill:#7c6c8a}.D{fill:#4f008c}.E{fill:#fff}.F{fill:#e92070}.G{stroke:#7c6c8a}.H{stroke-linecap:square}]]></style><path d="M0 50H250V329H0V50Z" class="D"/><path d="M4 40H254V325H4V40Z" class="E"/><path d="M4 10C4 4.477 8.477 0 14 0h230a10 10 0 0 1 10 10v30H4V10z" fill="#f4f4f7"/><g class="F"><use xlink:href="#C"/><use xlink:href="#C" x="12.898"/><use xlink:href="#D"/><path d="M115.753 68V50.684h-3.718V68h3.718z"/><use xlink:href="#D" x="19.678"/><path d="M142.789 68l-4.03-17.316h-4.16L130.543 68h3.484l.728-3.432h3.588l.728 3.432h3.718zm-4.94-6.188h-2.548l1.326-6.318 1.222 6.318zm16.785 1.378c0-2.522-1.69-3.874-4.108-5.2-2.21-1.144-3.198-1.82-3.198-3.042 0-1.04.702-1.716 1.794-1.716 1.3 0 1.95.91 1.95 2.08v.546h3.354v-.702c0-2.756-2.106-4.888-5.278-4.888-3.536 0-5.434 2.392-5.434 5.044s2.21 4.03 4.29 5.148c2.002 1.04 2.99 1.794 2.99 3.042 0 1.196-.65 1.95-1.976 1.95-1.352 0-2.08-.78-2.08-2.236v-.572h-3.406v.884c0 2.964 2.158 4.914 5.564 4.914 3.458 0 5.538-2.444 5.538-5.252zM65.4 50v18h-3.461V54.937c-1.432.783-2.745 1.324-3.939 1.565v-2.529c2.805-.602 4.715-1.926 5.848-3.973H65.4z"/></g><path d="M22.74 60.191v-1.71c0-1.9-1.121-3.135-3.249-3.135h-4.579V68h2.717v-4.693h1.862c2.128 0 3.249-1.235 3.249-3.116zm-2.603.038c0 .684-.266 1.064-.969 1.064h-1.539v-3.819h1.539c.703 0 .969.38.969 1.064v1.691zM31.03 68v-2.337h-4.161V55.346h-2.717V68h6.878zm9.343 0l-2.945-12.654h-3.04L31.424 68h2.546l.532-2.508h2.622L37.656 68h2.717zm-3.61-4.522h-1.862l.969-4.617.893 4.617zM49.808 68V55.346h-2.451v7.258l-1.026-2.071-2.717-5.187h-2.261V68h2.489v-7.144l1.083 2.071L47.718 68h2.09z" class="D"/><path d="M243.5 60h.5v-1h-.5v1zm-68.354-.854a.5.5 0 0 0 0 .707l3.182 3.182a.5.5 0 1 0 .708-.707l-2.829-2.828 2.829-2.828a.5.5 0 1 0-.708-.707l-3.182 3.182zM243.5 59h-68v1h68v-1z" fill="#ff2083"/><g class="D"><path d="M25.863 94V82.678h-3.247l-1.343 5.763-.425 1.989-.408-1.989-1.36-5.763h-3.264V94h2.176v-8.024l.544 2.567L19.828 94h1.819l1.36-5.457.561-2.567V94h2.295zm3.555 0V82.678h-2.431V94h2.431zm8.718 0V82.678h-2.193v6.494l-.918-1.853-2.431-4.641h-2.023V94h2.227v-6.392l.969 1.853L36.266 94h1.87zm8.476-2.89v-8.432h-2.363v8.398c0 .765-.459 1.19-1.275 1.19-.799 0-1.241-.425-1.241-1.19v-8.398h-2.465v8.432c0 1.887 1.564 3.179 3.706 3.179 2.159 0 3.638-1.292 3.638-3.179zm7.819-6.358v-2.074h-7.31v2.074h2.448V94H52v-9.248h2.431z"/><path d="M62.147 90.821v-4.964c0-2.006-1.377-3.451-3.723-3.451-2.329 0-3.723 1.445-3.723 3.451v4.964c0 2.023 1.394 3.468 3.723 3.468 2.346 0 3.723-1.445 3.723-3.468zm-2.448.136c0 .765-.459 1.275-1.275 1.275-.799 0-1.258-.51-1.258-1.275v-5.236c0-.765.459-1.275 1.258-1.275.816 0 1.275.51 1.275 1.275v5.236z"/><use xlink:href="#E"/><path d="M79.446 94v-2.091h-3.723v-9.231h-2.431V94h6.154zm2.965 0V82.678H79.98V94h2.431zm8.208-2.601v-1.088c0-1.054-.442-1.853-1.649-2.108 1.156-.204 1.581-1.037 1.581-2.108v-.816c0-1.615-1.003-2.601-2.839-2.601h-4.148V94h4.199c1.836 0 2.856-.969 2.856-2.601zm-2.38-4.913c0 .663-.34.986-.969.986h-1.258v-2.89h1.36c.629 0 .867.357.867.918v.986zm.051 4.709c0 .561-.238.901-.867.901h-1.411v-2.941h1.309c.629 0 .969.34.969 1.003v1.037zm10.822 2.873v-.714c-.306-.272-.476-.629-.476-1.156v-1.853c0-.782-.493-1.632-1.513-1.87 1.02-.272 1.462-.969 1.462-1.887v-1.224c0-1.632-1.105-2.686-2.941-2.686h-4.08V94h2.431v-4.624h1.309c.697 0 1.003.51 1.003 1.105v1.853c0 1.054.374 1.734 1.36 1.734h1.445zm-2.873-7.378c0 .68-.34 1.003-.969 1.003h-1.275v-3.111h1.377c.629 0 .867.357.867.918v1.19zm9.732 7.31v-2.125h-3.876v-2.839h2.669V87.2h-2.669v-2.482h3.876v-2.04h-6.307V94h6.307z"/><use xlink:href="#E" x="43.582"/><path d="M157.33 88v-1.599h-2.847v-7.059h-1.859V88h4.706zm2.65 0v-8.658h-1.859V88h1.859zm6.659-1.989v-.832c0-.806-.338-1.417-1.261-1.612.884-.156 1.209-.793 1.209-1.612v-.624c0-1.235-.767-1.989-2.171-1.989h-3.172V88h3.211c1.404 0 2.184-.741 2.184-1.989zm-1.82-3.757c0 .507-.26.754-.741.754h-.962v-2.21h1.04c.481 0 .663.273.663.702v.754zm.039 3.601c0 .429-.182.689-.663.689h-1.079v-2.249h1.001c.481 0 .741.26.741.767v.793z"/><use xlink:href="#F"/><path d="M179.143 88v-1.625h-2.964v-2.171h2.041V82.8h-2.041v-1.898h2.964v-1.56h-4.823V88h4.823zm8.074 0v-1.625h-2.964v-2.171h2.041V82.8h-2.041v-1.898h2.964v-1.56h-4.823V88h4.823zm6.777 0v-8.658h-1.677v4.966l-.702-1.417-1.859-3.549h-1.547V88h1.703v-4.888l.741 1.417L192.564 88h1.43z"/><use xlink:href="#F" x="29.77"/><path d="M209.694 85.569v-3.796c0-1.534-1.053-2.639-2.847-2.639-1.781 0-2.847 1.105-2.847 2.639v3.796c0 1.547 1.066 2.652 2.847 2.652 1.794 0 2.847-1.105 2.847-2.652zm-1.872.104c0 .585-.351.975-.975.975-.611 0-.962-.39-.962-.975v-4.004c0-.585.351-.975.962-.975.624 0 .975.39.975.975v4.004zM216.256 88l-2.015-8.658h-2.08L210.133 88h1.742l.364-1.716h1.794l.364 1.716h1.859zm-2.47-3.094h-1.274l.663-3.159.611 3.159zM224.609 88v-8.658h-2.483l-1.027 4.407-.325 1.521-.312-1.521-1.04-4.407h-2.496V88h1.664v-6.136l.416 1.963.988 4.173h1.391l1.04-4.173.429-1.963V88h1.755zm3.1 0v-8.658h-1.859V88h1.859zm7.049 0v-8.658h-1.677v4.966l-.702-1.417-1.859-3.549h-1.547V88h1.703v-4.888l.741 1.417L233.328 88h1.43zm6.864 0v-4.446h-2.782v1.274h1.014v.897c0 .468-.338.923-1.027.923-.663 0-1.014-.455-1.014-.923v-4.108c0-.481.325-.923 1.001-.923.689 0 .975.416.975.897v.702h1.794v-.65c0-1.352-.936-2.509-2.782-2.509s-2.873 1.222-2.873 2.509v4.056c0 1.339.871 2.522 2.587 2.522.819 0 1.521-.364 1.859-1.014l.234.793h1.014z"/><use xlink:href="#G"/><path d="M161.71 97v-7.326h-1.232v4.345l-.484-1.166-1.353-3.179h-1.177V97h1.254v-4.29l.517 1.166L160.654 97h1.056zm9.813 0v-7.326h-1.826l-.748 3.718-.242 1.353-.231-1.353-.759-3.718h-1.837V97h1.221v-5.313l.286 1.595.737 3.718h1.034l.781-3.718.297-1.595V97h1.287zm5.738 0l-1.463-7.326h-1.529L172.795 97h1.276l.264-1.441h1.298l.242 1.441h1.386zm-1.804-2.519h-.935l.495-2.827.44 2.827zm.748-6.732h-1.122l-.407 1.507h.649l.88-1.507z"/><use xlink:href="#H"/><path d="M190.465 95.086v-3.432c0-1.155-.715-1.98-2.002-1.98h-2.112V97h2.112c1.287 0 2.002-.748 2.002-1.914zm-1.375-.066c0 .517-.22.803-.726.803h-.649v-4.972h.649c.506 0 .726.286.726.814v3.355z"/><use xlink:href="#G" x="39.633"/><path d="M203.151 89.674h-3.41l-.209 3.817 1.1.165c.088-.308.341-.583.737-.583.319 0 .55.231.55.594v1.65c0 .462-.231.715-.671.715-.429 0-.671-.297-.671-.748v-.473h-1.133v.616c0 .869.594 1.738 1.782 1.738 1.199 0 1.936-.715 1.936-1.804v-1.903c0-.803-.495-1.364-1.265-1.364-.572 0-.99.22-1.243.572l.121-1.837h1.529c.583 0 .781-.341.847-1.155zm5.427 5.588v-3.839c0-1.144-.759-1.903-1.958-1.903-1.188 0-1.947.759-1.947 1.903v3.839c0 1.133.759 1.903 1.947 1.903 1.199 0 1.958-.77 1.958-1.903zm-1.254.088c0 .352-.264.638-.704.638-.429 0-.693-.286-.693-.638v-4.026c0-.352.264-.638.693-.638.44 0 .704.286.704.638v4.026zm9.295-2.794v-1.232c0-1.056-.627-1.65-1.661-1.65h-2.255V97h1.364v-2.805h.891c1.034 0 1.661-.594 1.661-1.639zm-1.32.033c0 .363-.143.55-.484.55h-.748v-2.343h.748c.341 0 .484.187.484.55v1.243zM221.828 97l-1.463-7.326h-1.529L217.362 97h1.276l.264-1.441h1.298l.242 1.441h1.386zm-1.804-2.519h-.935l.495-2.827.44 2.827zM224.48 97v-7.326h-1.364V97h1.364z"/><use xlink:href="#H" x="47.668"/><use xlink:href="#G" x="79.09"/><use xlink:href="#H" x="58.006"/></g><path d="M126.54 89.319v-1.871h-2.345V85h-1.85v2.447H120v1.871h2.345v2.447h1.85v-2.447h2.345z" class="F"/><g class="B"><path d="M134.533 94.6l.3.166C136.067 95.534 137.5 96 139 96c4.366 0 8-3.633 8-8.067S143.366 80 138.966 80 131 83.533 131 87.933c0 1.533.433 3.034 1.233 4.3l.2.3-.766 2.8 2.866-.733z" fill="#00a655"/><path d="M136.4 83.467l-.634-.034c-.2 0-.399.067-.533.2-.3.267-.8.767-.933 1.434-.234 1 .133 2.2 1 3.4s2.533 3.133 5.466 3.967c.934.267 1.667.1 2.267-.266.467-.3.767-.767.867-1.267l.1-.466c.033-.133-.033-.3-.167-.367l-2.1-.967c-.133-.067-.299-.034-.4.1l-.833 1.067a.26.26 0 0 1-.267.066c-.566-.2-2.467-1-3.5-3-.033-.1-.033-.2.034-.267l.8-.9c.066-.1.099-.233.066-.334l-.967-2.166a.29.29 0 0 0-.266-.2z" fill="#fefefe"/></g><path d="M14 101h230v40H14z" class="D"/><path d="M87.994 121.698a7.7 7.7 0 0 1-7.698 7.698c-4.24 0-7.698-3.438-7.698-7.698 0-4.239 3.439-7.698 7.698-7.698 4.24 0 7.698 3.459 7.698 7.698z" fill="#0076f4"/><path d="M81.995 118.24h.977v-1.642c-.176-.018-.742-.078-1.426-.078-1.426 0-2.384.86-2.384 2.423v1.349h-1.602v1.836h1.602v4.709h1.915v-4.709h1.602l.234-1.836h-1.837v-1.173c0-.508.137-.879.918-.879z" class="E"/><path d="M111.389 121.698a7.7 7.7 0 0 1-7.698 7.698c-4.239 0-7.698-3.438-7.698-7.698 0-4.239 3.439-7.698 7.698-7.698s7.698 3.459 7.698 7.698z" fill="#00a8f2"/><path d="M107.208 120.272c-.058 3.009-1.973 5.1-4.885 5.217-1.191.058-2.051-.332-2.852-.782.859.137 1.992-.194 2.579-.723-.86-.058-1.387-.527-1.661-1.25.274.059.528 0 .723 0-.8-.254-1.329-.723-1.387-1.759.196.137.469.196.723.196-.586-.332-.996-1.583-.528-2.365.86.919 1.915 1.701 3.635 1.838-.469-1.838 2.052-2.814 3.048-1.563.468-.059.801-.255 1.133-.392-.137.45-.391.723-.723.977.332-.058.664-.137.918-.254-.058.333-.391.606-.723.86z" class="E"/><path d="M64.597 121.698a7.7 7.7 0 0 1-7.698 7.698c-4.24 0-7.698-3.438-7.698-7.698 0-4.239 3.439-7.698 7.698-7.698s7.698 3.459 7.698 7.698z" fill="#fdf700"/><path d="M52.912 123.711c.273-.039.528-.137.762-.293.195-.117.371-.274.528-.469.274-.313.41-.626.43-.664v-.02c.078-.137.078-.254.039-.352-.078-.195-.332-.274-.528-.332l-.039-.019c-.039 0-.059-.02-.078-.04-.137-.059-.215-.097-.274-.156-.078-.078-.098-.137-.078-.196s.059-.117.137-.155c.098-.059.215-.079.293-.04.254.117.449.157.586.078.039-.02.059-.058.059-.097 0-.059-.02-.117-.02-.196v-.02c-.039-.547-.078-1.23.098-1.621.137-.273.293-.508.488-.703.176-.156.352-.293.586-.372.391-.175.742-.195.918-.195h.156c.176 0 .528.02.918.195a2.34 2.34 0 0 1 .586.372c.195.195.371.41.488.703.176.391.137 1.074.098 1.603v.038c0 .039-.02.079-.02.118v.058c0 .039.02.079.059.097a.36.36 0 0 0 .156.04h.019c.117 0 .234-.04.391-.098.059-.019.098-.019.137-.019.059 0 .098.019.156.039.117.038.195.137.195.214 0 .04-.02.079-.078.137s-.156.117-.293.176c-.02.02-.059.02-.078.02l-.039.02c-.176.058-.43.136-.527.331-.039.098-.039.216.039.372v.02c.098.214.625 1.25 1.719 1.426.039.02.078.038.078.097v.04c-.039.077-.098.136-.234.194a2.61 2.61 0 0 1-.782.196c-.039.02-.059.039-.078.059-.02.038-.039.097-.059.195l-.02.059c-.02.039-.02.097-.039.137-.02.059-.059.077-.117.077-.039 0-.078 0-.176-.018-.117-.02-.274-.059-.449-.059-.117 0-.215 0-.332.039-.215.038-.43.175-.645.312-.293.196-.606.43-1.094.43h-.098c-.488 0-.801-.234-1.114-.43-.195-.137-.391-.274-.625-.312-.098-.02-.215-.039-.332-.039-.195 0-.332.039-.449.059h-.02c-.059.018-.117.018-.176.018s-.098-.018-.137-.077l-.078-.176-.019-.04-.059-.195c-.02-.039-.039-.059-.078-.059a5.35 5.35 0 0 1-.801-.194c-.117-.059-.195-.118-.234-.176-.02-.02-.02-.04-.02-.04v-.039c.137-.02.156-.038.195-.058z" stroke="#201712" stroke-width=".222" class="E"/><path d="M33.601 129.201c4.198 0 7.601-3.404 7.601-7.601a7.6 7.6 0 1 0-15.201 0c0 4.197 3.403 7.601 7.6 7.601z" fill="url(#B)"/><g class="E"><path d="M31.626 117.262h3.927c1.348 0 2.423 1.076 2.423 2.404v3.888c0 1.309-1.094 2.384-2.423 2.384h-3.927c-1.329-.019-2.423-1.075-2.423-2.404v-3.887c0-1.309 1.094-2.385 2.423-2.385zm3.929 7.914c.899 0 1.641-.723 1.641-1.622v-3.888c0-.899-.742-1.622-1.641-1.622h-3.927c-.899 0-1.641.723-1.641 1.622v3.888c0 .899.742 1.622 1.641 1.622h3.927zm-4.22-3.576c0-1.23 1.016-2.228 2.266-2.228a2.26 2.26 0 0 1 2.267 2.228c0 1.231-1.016 2.227-2.267 2.227s-2.266-.996-2.266-2.227zm.78 0a1.48 1.48 0 0 0 1.485 1.465 1.48 1.48 0 0 0 1.485-1.465 1.48 1.48 0 0 0-1.485-1.465 1.48 1.48 0 0 0-1.485 1.465z" class="B"/><path d="M35.944 118.708a.63.63 0 0 0-.41.157.6.6 0 0 0-.176.39c0 .157.059.293.176.392.098.097.254.155.41.155s.293-.058.41-.155c.098-.099.176-.255.176-.392a.49.49 0 0 0-.176-.39.63.63 0 0 0-.41-.157zM139.3 123v-3.92h-6.12v-9.4h-5.48V123h11.6zm9.321 0v-13.32h-5.48V123h5.48zm17.095-3.28v-.5c0-1.42-.78-2.52-2.84-2.92 1.98-.38 2.8-1.64 2.8-2.92V113c0-1.88-1.34-3.32-4.46-3.32h-8.2V123h8.32c3.1 0 4.38-1.44 4.38-3.28zm-5.34-5.2c0 .54-.32.76-1.02.76h-.84v-2.2h.84c.7 0 1.02.22 1.02.74v.7zm0 4.36c0 .54-.32.76-1.02.76h-.84v-2.2h.84c.7 0 1.02.22 1.02.76v.68zm22.631 4.12v-.14a3.69 3.69 0 0 1-.6-2.08v-1.7c0-1.22-.6-2.3-2.36-2.52 1.62-.36 2.44-1.42 2.44-2.7v-.8c0-1.98-1.72-3.38-4.72-3.38h-8.04V123h5.48v-4.86h.84c.82 0 1 .44 1 1.14v1.66c0 1.08.54 2.06 1.22 2.06h4.74zm-5.94-8.24c0 .58-.3.88-1.02.88h-.84v-2.52h.84c.72 0 1.02.22 1.02.8v.84zm21.305 8.24v-3.94h-6.16v-1.64h3.88V115h-3.88v-1.64h6.16v-3.68h-11.66V123h11.66zm16.535-4.12c0-4.38-7.5-4.12-7.5-5.5 0-.44.44-.64 1.1-.64 1.06 0 2.64.58 4.04 1.48l2.36-2.6c-1.3-1.22-3.36-2.36-6.56-2.36-3.98 0-5.98 2-5.98 4.38 0 4.4 7.34 4.28 7.34 5.66 0 .46-.42.64-1.3.64-1.22 0-3.14-.76-4.6-1.9l-2.32 2.94c1.54 1.4 4.16 2.44 7.06 2.44 4.24 0 6.36-1.98 6.36-4.54z"/><use xlink:href="#I"/><path d="M137.093 133v-7.326h-1.419v4.202l-.594-1.199-1.573-3.003h-1.309V133h1.441v-4.136l.627 1.199 1.617 2.937h1.21z"/><use xlink:href="#J"/><use xlink:href="#I" x="17.358"/><path d="M154.33 130.888v-3.014c0-1.221-.814-2.2-2.332-2.2h-2.442V133h2.442c1.518 0 2.332-.88 2.332-2.112zm-1.573-.121c0 .583-.275.924-.88.924h-.748v-4.708h.748c.605 0 .88.341.88.924v2.86zm8.314.627v-1.166h-.693v-4.554h-1.232l-2.794 4.708v1.012h2.695V133h1.331v-1.606h.693zm-2.024-1.166h-1.342l1.342-2.31v2.31z"/><path d="M166.245 133v-3.762h-2.354v1.078h.858v.759c0 .396-.286.781-.869.781-.561 0-.858-.385-.858-.781v-3.476c0-.407.275-.781.847-.781.583 0 .825.352.825.759v.594h1.518v-.55c0-1.144-.792-2.123-2.354-2.123s-2.431 1.034-2.431 2.123v3.432c0 1.133.737 2.134 2.189 2.134.693 0 1.287-.308 1.573-.858l.198.671h.858z"/><use xlink:href="#K"/><path d="M178.03 133l-1.705-7.326h-1.76L172.849 133h1.474l.308-1.452h1.518l.308 1.452h1.573zm-2.09-2.618h-1.078l.561-2.673.517 2.673z"/><use xlink:href="#J" x="38.774"/><path d="M188.347 133l-1.705-7.326h-1.76L183.166 133h1.474l.308-1.452h1.518l.308 1.452h1.573zm-2.09-2.618h-1.078l.561-2.673.517 2.673zm8.535.583c0-1.067-.715-1.639-1.738-2.2-.935-.484-1.353-.77-1.353-1.287 0-.44.297-.726.759-.726.55 0 .825.385.825.88v.231h1.419v-.297c0-1.166-.891-2.068-2.233-2.068-1.496 0-2.299 1.012-2.299 2.134s.935 1.705 1.815 2.178c.847.44 1.265.759 1.265 1.287 0 .506-.275.825-.836.825-.572 0-.88-.33-.88-.946v-.242h-1.441v.374c0 1.254.913 2.079 2.354 2.079 1.463 0 2.343-1.034 2.343-2.222zm2.153 2.035v-7.326h-1.573V133h1.573z"/><use xlink:href="#I" x="70.236"/><path d="M208.935 133v-7.326h-2.101l-.869 3.729-.275 1.287-.264-1.287-.88-3.729h-2.112V133h1.408v-5.192l.352 1.661.836 3.531h1.177l.88-3.531.363-1.661V133h1.485z"/><use xlink:href="#K" x="41.138"/><use xlink:href="#J" x="75.264"/><use xlink:href="#I" x="92.622"/></g><path d="M14 287v22.5h230V287" stroke="#e92070"/><path d="M80.001 233.32h2.16V265h-6.48v-24l-6 1.92-1.536-5.712 11.856-3.888zm31.698 10.8c0 1.76-.352 3.328-1.056 4.704-.64 1.344-1.744 3.088-3.312 5.232L99.459 265h-7.68l7.344-10.176h-.24c-2.688.064-5.12-.96-7.296-3.072-2.176-2.144-3.232-4.704-3.168-7.68-.064-3.136 1.072-5.824 3.408-8.064 2.368-2.24 5.104-3.328 8.208-3.264 3.168 0 5.904 1.088 8.208 3.264s3.456 4.88 3.456 8.112zm-7.968 3.744c1.024-1.024 1.536-2.288 1.536-3.792s-.512-2.768-1.536-3.792c-.992-1.056-2.224-1.584-3.696-1.584-1.44 0-2.672.512-3.696 1.536s-1.536 2.304-1.536 3.84c0 1.504.512 2.768 1.536 3.792s2.256 1.536 3.696 1.536c1.472 0 2.704-.512 3.696-1.536zm9.634 13.248c0-1.248.432-2.304 1.296-3.168s1.936-1.296 3.216-1.296c1.248 0 2.288.432 3.12 1.296.864.864 1.296 1.92 1.296 3.168 0 1.28-.416 2.352-1.248 3.216-.832.832-1.888 1.248-3.168 1.248s-2.352-.416-3.216-1.248c-.864-.864-1.296-1.936-1.296-3.216zm35.412-16.992c0 1.76-.352 3.328-1.056 4.704-.64 1.344-1.744 3.088-3.312 5.232L136.537 265h-7.68l7.344-10.176h-.24c-2.688.064-5.12-.96-7.296-3.072-2.176-2.144-3.232-4.704-3.168-7.68-.064-3.136 1.072-5.824 3.408-8.064 2.368-2.24 5.104-3.328 8.208-3.264 3.168 0 5.904 1.088 8.208 3.264s3.456 4.88 3.456 8.112zm-7.968 3.744c1.024-1.024 1.536-2.288 1.536-3.792s-.512-2.768-1.536-3.792c-.992-1.056-2.224-1.584-3.696-1.584-1.44 0-2.672.512-3.696 1.536s-1.536 2.304-1.536 3.84c0 1.504.512 2.768 1.536 3.792s2.256 1.536 3.696 1.536c1.472 0 2.704-.512 3.696-1.536zm34.921-3.744c0 1.76-.352 3.328-1.056 4.704-.64 1.344-1.744 3.088-3.312 5.232L163.49 265h-7.68l7.344-10.176h-.24c-2.688.064-5.12-.96-7.296-3.072-2.176-2.144-3.232-4.704-3.168-7.68-.064-3.136 1.072-5.824 3.408-8.064 2.368-2.24 5.104-3.328 8.208-3.264 3.168 0 5.904 1.088 8.208 3.264s3.456 4.88 3.456 8.112zm-7.968 3.744c1.024-1.024 1.536-2.288 1.536-3.792s-.512-2.768-1.536-3.792c-.992-1.056-2.224-1.584-3.696-1.584-1.44 0-2.672.512-3.696 1.536s-1.536 2.304-1.536 3.84c0 1.504.512 2.768 1.536 3.792s2.256 1.536 3.696 1.536c1.472 0 2.704-.512 3.696-1.536zm12.457 1.056c0-4.864 1.072-8.768 3.216-11.712 2.144-2.976 5.264-4.464 9.36-4.464s7.2 1.488 9.312 4.464c2.144 2.944 3.216 6.848 3.216 11.712 0 4.896-1.088 8.896-3.264 12s-5.264 4.656-9.264 4.656c-4.032 0-7.136-1.552-9.312-4.656s-3.264-7.104-3.264-12zm18.432.048c0-6.816-1.952-10.224-5.856-10.224-3.936 0-5.904 3.408-5.904 10.224 0 7.072 1.968 10.608 5.904 10.608 3.904 0 5.856-3.536 5.856-10.608z" class="F"/><g class="D"><path d="M108.121 275.092v-.972h-1.332v.96c0 .468-.264.792-.804.792s-.816-.324-.816-.768v-4.2c0-.444.276-.768.816-.768s.804.324.804.792v.96h1.332v-.972c0-1.2-.744-2.088-2.16-2.088-1.428 0-2.304.96-2.304 2.196v3.96c0 1.236.876 2.196 2.304 2.196 1.416 0 2.16-.888 2.16-2.088zm6.168 1.908l-1.596-7.992h-1.668L109.417 277h1.392l.288-1.572h1.416l.264 1.572h1.512zm-1.968-2.748h-1.02l.54-3.084.48 3.084zm8.129 2.796v-.444c-.18-.192-.288-.444-.288-.816v-1.464c0-.516-.3-1.044-.924-1.212.624-.192.9-.636.9-1.236v-1.128c0-1.116-.732-1.74-1.824-1.74h-2.46V277h1.488v-3.312h.78c.42 0 .612.312.612.684v1.5c0 .696.228 1.176.816 1.176h.9zm-1.764-5.1c0 .432-.204.636-.588.636h-.756v-2.352h.816c.372 0 .528.216.528.576v1.14zM126.58 277v-4.056h-2.22v1.08h.78v1.116c0 .396-.264.744-.792.744-.516 0-.792-.348-.792-.744v-4.26a.71.71 0 0 1 .78-.744c.528 0 .768.336.768.72v.888h1.428v-.828c0-1.128-.768-2.076-2.208-2.076s-2.28.984-2.28 2.076v4.176c0 1.152.732 2.088 2.052 2.088.648 0 1.2-.288 1.464-.816l.204.636h.816z"/><use xlink:href="#L"/><path d="M141.457 270.256v-1.248h-3.732V277h1.488v-3.396h1.656v-1.248h-1.656v-2.1h2.244zM144.62 277v-7.992h-1.488V277h1.488zm6.039-1.968v-6.024h-1.5v6.12c0 .492-.24.744-.672.744s-.684-.252-.684-.744v-1.308h-1.428v1.284c0 1.26.804 2.076 2.136 2.076 1.368 0 2.148-.876 2.148-2.148z"/><use xlink:href="#L" x="24.172"/><path d="M168.053 277v-7.992h-1.992l-.816 4.056-.264 1.476-.252-1.476-.828-4.056h-2.004V277h1.332v-5.796l.312 1.74.804 4.056h1.128l.852-4.056.324-1.74V277h1.404zm5.844 0v-1.332h-2.328v-2.22h1.608v-1.176h-1.608v-1.98h2.328v-1.284h-3.816V277h3.816zm6.421 0v-7.992h-1.344v4.74l-.528-1.272-1.476-3.468h-1.284V277h1.368v-4.68l.564 1.272 1.548 3.408h1.152zm6.228-2.028c0-1.08-.672-1.8-1.62-2.508-.888-.648-1.284-.996-1.284-1.668a.67.67 0 0 1 .72-.72c.504 0 .756.36.756.852v.48h1.356v-.516c0-1.188-.84-2.052-2.1-2.052-1.44 0-2.184.996-2.184 2.148 0 1.116.888 1.908 1.704 2.496.792.588 1.2 1.02 1.2 1.656 0 .492-.264.804-.792.804-.54 0-.816-.324-.816-.912v-.468h-1.368v.552c0 1.248.852 2.064 2.22 2.064 1.32 0 2.208-.924 2.208-2.208zm6.244.18v-6.144h-1.452v6.144c0 .468-.264.732-.756.732-.48 0-.744-.264-.744-.732v-6.144h-1.512v6.144c0 1.2.96 2.028 2.256 2.028s2.208-.828 2.208-2.028zm6.402 1.848l-1.596-7.992h-1.668L194.32 277h1.392l.288-1.572h1.416l.264 1.572h1.512zm-1.968-2.748h-1.02l.54-3.084.48 3.084zm7.253 2.748v-1.32h-2.232v-6.672h-1.488V277h3.72z"/></g><path d="M56.886 257.645v2.196h-2.124v-2.232c-1.452-.324-2.514-1.134-3.186-2.43l1.638-1.224c.696 1.092 1.602 1.638 2.718 1.638.48 0 .858-.09 1.134-.27.288-.18.432-.444.432-.792a.8.8 0 0 0-.324-.666c-.204-.18-.558-.372-1.062-.576l-1.224-.45c-1.788-.672-2.682-1.716-2.682-3.132a2.73 2.73 0 0 1 .702-1.872c.468-.528 1.086-.882 1.854-1.062v-2.16h2.124v2.124c1.2.252 2.094.942 2.682 2.07l-1.62 1.224c-.552-.816-1.242-1.224-2.07-1.224-.384 0-.696.078-.936.234s-.36.384-.36.684c0 .252.09.462.27.63.192.156.504.324.936.504l1.35.468c1.824.672 2.736 1.728 2.736 3.168 0 .828-.27 1.524-.81 2.088s-1.266.918-2.178 1.062z" class="F"/><g class="D"><path d="M91.778 157l-2.136-7.992h-1.344L86.186 157h1.248l.492-2.064h2.052l.516 2.064h1.284zm-2.064-3.12h-1.536l.756-3.144.78 3.144z"/><use xlink:href="#M"/><path d="M103.388 157v-1.14h-3.048v-2.532h2.196v-1.08h-2.196v-2.1h3.048v-1.14h-4.32V157h4.32z"/><use xlink:href="#N"/><path d="M117.793 157l-2.136-7.992h-1.344L112.201 157h1.248l.492-2.064h2.052l.516 2.064h1.284zm-2.064-3.12h-1.536l.756-3.144.78 3.144zm.576-7.068h-1.212l-.54 1.716h.744l1.008-1.716z"/><use xlink:href="#O"/><path d="M131.308 150.16v-1.152h-5.16v1.152h1.944V157h1.272v-6.84h1.944zm5.221 6.84v-1.14h-3.048v-2.532h2.196v-1.08h-2.196v-2.1h3.048v-1.14h-4.32V157h4.32z"/><use xlink:href="#M" x="47.32"/><path d="M151.262 157l-2.136-7.992h-1.344L145.67 157h1.248l.492-2.064h2.052l.516 2.064h1.284zm-2.064-3.12h-1.536l.756-3.144.78 3.144z"/><use xlink:href="#N" x="47.567"/><path d="M165.468 154.612v-3.216c0-1.464-.78-2.58-2.58-2.58-1.788 0-2.58 1.116-2.58 2.58v3.216c0 1.476.792 2.592 2.58 2.592 1.8 0 2.58-1.116 2.58-2.592zm-1.272.084c0 .816-.408 1.392-1.308 1.392-.888 0-1.296-.576-1.296-1.392v-3.384c0-.816.408-1.392 1.296-1.392.9 0 1.308.576 1.308 1.392v3.384z"/><use xlink:href="#O" x="48.27"/><path d="M64.298 208v-7.992h-.48c0 .24-.12.468-.468.468V208h.948z"/><use xlink:href="#P"/><use xlink:href="#P" x="5.547"/><use xlink:href="#Q"/><path d="M86.909 208v-7.992h-1.008V208h1.008z"/><use xlink:href="#Q" x="8.679"/><use xlink:href="#R"/><use xlink:href="#S"/><path d="M110.512 204.328v-.756h-1.032v-1.14h-.768v1.14h-1.044v.756h1.044v1.14h.768v-1.14h1.032zm7.86-4.32h-3.144l-.192 4.116.816.144c.12-.42.408-.804.924-.804.396 0 .648.264.648.708v2.244c0 .576-.288.876-.804.876s-.78-.36-.78-.876v-.708h-.828v.792c0 .864.528 1.644 1.608 1.644 1.092 0 1.728-.672 1.728-1.704v-2.388c0-.768-.468-1.32-1.224-1.32-.6 0-1.008.228-1.224.564l.132-2.388h1.548c.564 0 .756-.168.792-.9z"/><use xlink:href="#P" x="53.66"/><use xlink:href="#Q" x="48.113"/><path d="M135.023 208v-7.992h-1.008V208h1.008z"/><use xlink:href="#Q" x="56.793"/><use xlink:href="#R" x="48.113"/><use xlink:href="#S" x="48.113"/><path d="M159.033 208v-.912h-2.136v-2.808h1.548v-.876h-1.548v-2.484h2.136v-.912h-3.132V208h3.132zm5.693 0v-7.992h-.948v5.388l-.492-1.356-1.572-4.032h-.852V208h.948v-5.316l.528 1.344 1.668 3.972h.72zm8.598.072v-.708c-.204 0-.276-.096-.276-.312v-1.704c0-.576-.264-1.116-.888-1.248.636-.156.852-.588.852-1.272v-1.212c0-1.104-.576-1.608-1.596-1.608h-1.956V208h1.008v-3.504h.9c.468 0 .684.312.684.792v1.824c0 .744.276.96 1.008.96h.264zm-1.308-5.16c0 .504-.264.78-.708.78h-.84v-2.784h.936c.432 0 .612.252.612.672v1.332zm6.158 5.088v-.912h-2.136v-2.808h1.548v-.876h-1.548v-2.484h2.136v-.912h-3.132V208h3.132zm5.549-1.956v-4.08c0-1.176-.54-1.956-1.8-1.956h-1.908V208h1.908c1.26 0 1.8-.78 1.8-1.956zm-.996.012c0 .66-.252 1.008-.852 1.008h-.852v-6.12h.852c.6 0 .852.348.852 1.02v4.092zm8.903.216v-.84h-.588v-5.424h-.792l-2.304 5.544v.72h2.244V208h.852v-1.728h.588zm-1.44-.84h-1.296l1.296-3.192v3.192z"/><use xlink:href="#Q" x="112.984"/></g><g class="F"><path d="M84.017 177v-7.866h-4.922v2.254h1.794v1.587c0 .828-.598 1.633-1.817 1.633-1.173 0-1.794-.805-1.794-1.633v-7.268c0-.851.575-1.633 1.771-1.633 1.219 0 1.725.736 1.725 1.587v1.242h3.174v-1.15c0-2.392-1.656-4.439-4.922-4.439s-5.083 2.162-5.083 4.439v7.176c0 2.369 1.541 4.462 4.577 4.462 1.449 0 2.691-.644 3.289-1.794l.414 1.403h1.794zm5.258 0v-15.318h-3.289V177h3.289zm12.149 0v-7.866h-4.922v2.254h1.794v1.587c0 .828-.598 1.633-1.817 1.633-1.173 0-1.794-.805-1.794-1.633v-7.268c0-.851.575-1.633 1.771-1.633 1.219 0 1.725.736 1.725 1.587v1.242h3.174v-1.15c0-2.392-1.656-4.439-4.922-4.439s-5.083 2.162-5.083 4.439v7.176c0 2.369 1.541 4.462 4.577 4.462 1.449 0 2.691-.644 3.289-1.794L99.63 177h1.794zm11.767 0l-3.565-15.318h-3.68L102.358 177h3.082l.644-3.036h3.174l.644 3.036h3.289zm-4.37-5.474h-2.254l1.173-5.589 1.081 5.589z"/><use xlink:href="#T"/><path d="M137.729 177v-2.829h-5.037v-12.489h-3.289V177h8.326zm4.689 0v-15.318h-3.289V177h3.289zm11.781-3.519v-1.472c0-1.426-.598-2.507-2.231-2.852 1.564-.276 2.139-1.403 2.139-2.852v-1.104c0-2.185-1.357-3.519-3.841-3.519h-5.612V177h5.681c2.484 0 3.864-1.311 3.864-3.519zm-3.22-6.647c0 .897-.46 1.334-1.311 1.334h-1.702v-3.91h1.84c.851 0 1.173.483 1.173 1.242v1.334zm.069 6.371c0 .759-.322 1.219-1.173 1.219h-1.909v-3.979h1.771c.851 0 1.311.46 1.311 1.357v1.403zm15.318 3.887v-.966c-.414-.368-.644-.851-.644-1.564v-2.507c0-1.058-.667-2.208-2.047-2.53 1.38-.368 1.978-1.311 1.978-2.553v-1.656c0-2.208-1.495-3.634-3.979-3.634h-5.52V177h3.289v-6.256h1.771c.943 0 1.357.69 1.357 1.495v2.507c0 1.426.506 2.346 1.84 2.346h1.955zm-3.887-9.982c0 .92-.46 1.357-1.311 1.357h-1.725v-4.209h1.863c.851 0 1.173.483 1.173 1.242v1.61zm13.843 9.89v-2.875h-5.244v-3.841h3.611V167.8h-3.611v-3.358h5.244v-2.76h-8.533V177h8.533z"/><use xlink:href="#T" x="63.699"/></g><g fill="#381551"><path d="M81.916 185.547v-2.07c0-2.3-1.357-3.795-3.933-3.795H72.44V195h3.289v-5.681h2.254c2.576 0 3.933-1.495 3.933-3.772zm-3.151.046c0 .828-.322 1.288-1.173 1.288h-1.863v-4.623h1.863c.851 0 1.173.46 1.173 1.288v2.047zM92.183 195l-3.565-15.318h-3.68L81.35 195h3.082l.644-3.036h3.174l.644 3.036h3.289zm-4.37-5.474h-2.254l1.173-5.589 1.081 5.589z"/><use xlink:href="#U"/><path d="M113.801 195l-3.565-15.318h-3.68L102.968 195h3.082l.644-3.036h3.174l.644 3.036h3.289zm-4.37-5.474h-2.254l1.173-5.589 1.081 5.589z"/><use xlink:href="#T" x="3.652" y="18"/><path d="M131.847 195v-15.318h-3.289V195h3.289zm10.269 0v-2.875h-5.244v-3.841h3.611V185.8h-3.611v-3.358h5.244v-2.76h-8.533V195h8.533zm14.847 0v-15.318h-4.393l-1.817 7.797-.575 2.691-.552-2.691-1.84-7.797h-4.416V195h2.944v-10.856l.736 3.473 1.748 7.383h2.461l1.84-7.383.759-3.473V195h3.105zm11.173-9.453v-2.07c0-2.3-1.357-3.795-3.933-3.795h-5.543V195h3.289v-5.681h2.254c2.576 0 3.933-1.495 3.933-3.772zm-3.151.046c0 .828-.322 1.288-1.173 1.288h-1.863v-4.623h1.863c.851 0 1.173.46 1.173 1.288v2.047z"/><use xlink:href="#U" x="76.478"/><path d="M189.013 195v-2.875h-5.244v-3.841h3.611V185.8h-3.611v-3.358h5.244v-2.76h-8.533V195h8.533z"/></g><path d="M59.905 18.194c-.866-1.146-1.945-1.83-3.53-1.83-2.368 0-3.805 1.508-3.805 3.701 0 2.253 1.522 3.802 4.017 3.802 1.332 0 2.389-.443 3.065-1.187v-.623h-3.256v-2.976h6.892v4.183c-1.247 2.112-3.742 3.68-6.849 3.68-4.27 0-7.589-2.957-7.589-6.879 0-3.902 3.298-6.879 7.589-6.879 2.579 0 4.651 1.066 6.004 2.957l-2.537 2.052z" class="B C"/><mask id="A" mask-type="alpha" maskUnits="userSpaceOnUse" x="38" y="8" width="83" height="24"><path d="M38 32h82.346V8H38v24z" class="B E"/></mask><g mask="url(#A)"><path d="M117.702 24.763v-.532.532z" class="B C"/><path d="M117.702 24.763v-.532" class="G H"/><path d="M116.584 23.698h0z" class="B C"/><path d="M116.584 23.698h.559" class="G H"/><g class="B C"><path d="M64.726 26.701h3.636V13.427h-3.636v13.275zm15.918-8.507c-.866-1.146-1.945-1.83-3.53-1.83-2.368 0-3.806 1.508-3.806 3.701 0 2.253 1.522 3.802 4.017 3.802 1.332 0 2.389-.443 3.065-1.187v-.623h-3.256v-2.976h6.892v4.183c-1.247 2.112-3.742 3.68-6.849 3.68-4.27 0-7.589-2.957-7.589-6.879 0-3.902 3.298-6.879 7.589-6.879 2.579 0 4.651 1.066 6.004 2.957l-2.537 2.052zm9.662 1.548l-1.226 3.077h2.431l-1.205-3.077zm2.495 5.853h-5.01l-.507 1.106h-3.911l6.342-13.516h1.163l6.341 13.516h-3.911l-.507-1.106zm14.122-9.734l-2.431 1.77c-.634-.885-1.248-1.408-2.304-1.408-.719 0-1.247.241-1.247.845 0 .503.337.744 1.204 1.086l1.607.644c2.325.925 3.573 2.051 3.573 4.002 0 2.614-2.242 4.143-5.117 4.143-2.557 0-4.566-1.186-5.559-2.977l2.452-1.769c.677.865 1.543 1.709 3.107 1.709.973 0 1.438-.321 1.438-.965 0-.624-.444-.825-1.416-1.227l-1.438-.603c-2.22-.925-3.53-2.132-3.53-4.002 0-2.373 2.051-3.923 4.883-3.923 2.432 0 3.974 1.147 4.778 2.675z"/></g><g class="G"><use xlink:href="#V"/><path d="M117.422 23.432h.559v.532h-.559z" class="C"/><use xlink:href="#W"/></g><use xlink:href="#X" class="B C"/><g class="G"><use xlink:href="#X" stroke-width="2"/><use xlink:href="#V"/><use xlink:href="#W"/></g><use xlink:href="#X" class="B C"/><use xlink:href="#X" stroke-width="2" class="G"/></g><path d="M148.892 17.81c.646 0 1.23-.14 1.753-.422s.93-.67 1.222-1.168l-1.039-.698c-.482.717-1.124 1.076-1.925 1.076-.625 0-1.143-.197-1.554-.591s-.617-.895-.617-1.502.206-1.111.617-1.512.929-.601 1.554-.601c.801 0 1.443.359 1.925 1.076l1.039-.698a3.16 3.16 0 0 0-1.227-1.168c-.52-.281-1.099-.422-1.737-.422a3.51 3.51 0 0 0-2.537.955c-.713.656-1.063 1.443-1.05 2.36-.02.918.325 1.704 1.034 2.36s1.557.974 2.542.955zm-8.744-.116l.377-.834h2.751l.377.834h1.477l-2.995-6.514h-.458l-3.006 6.514h1.477zm-10.318-.412c-.441.352-1.005.528-1.691.528-.564 0-1.071-.126-1.523-.378a2.86 2.86 0 0 1-1.075-1.037l.948-.678c.475.62 1.025.93 1.65.93.299 0 .533-.063.703-.189a.61.61 0 0 0 .255-.519.53.53 0 0 0-.173-.422c-.116-.1-.343-.225-.683-.373l-.723-.31c-1.087-.459-1.63-1.073-1.63-1.842a1.59 1.59 0 0 1 .631-1.313c.421-.333.955-.499 1.6-.499.502 0 .944.108 1.324.325a2.37 2.37 0 0 1 .897.887l-.937.688c-.347-.491-.775-.737-1.284-.737-.245 0-.445.055-.601.165s-.235.262-.235.456a.5.5 0 0 0 .169.393c.112.1.317.215.616.344l.764.32c.577.246.998.512 1.263.8a1.52 1.52 0 0 1 .398 1.071 1.69 1.69 0 0 1-.663 1.391zm6.33-.771v1.183h-4.646v-6.398h4.523v1.183h-3.148v1.299h2.313v1.115h-2.313v1.619h3.271zm5.741-2.889l-.897 2.162h1.793l-.896-2.162zm15.786 3.431c-.537.504-1.219.756-2.048.756-.835 0-1.52-.252-2.053-.756s-.8-1.173-.8-2.006v-3.751h1.376v3.848c0 .459.136.816.407 1.071s.629.383 1.07.383c.448 0 .807-.128 1.075-.383s.402-.612.402-1.071v-3.848h1.376v3.751c0 .834-.269 1.502-.805 2.006zm3.477.64v-3.412l1.691 2.016h.448l1.692-2.016v3.412h1.375v-6.514h-.448l-2.843 3.46-2.842-3.46h-.449v6.514h1.376zm11.403-.64c-.537.504-1.219.756-2.048.756-.835 0-1.52-.252-2.053-.756s-.799-1.173-.799-2.006v-3.751h1.375v3.848c0 .459.136.816.407 1.071s.629.383 1.07.383c.448 0 .807-.128 1.075-.383s.402-.612.402-1.071v-3.848h1.376v3.751c0 .834-.268 1.502-.805 2.006zm6.421.64v-1.183h-2.945v-5.215h-1.375v6.398h4.32zm2.04-.834l-.377.834h-1.477l3.005-6.514h.459l2.995 6.514h-1.477l-.377-.834h-2.751zm.479-1.076l.897-2.162.896 2.162h-1.793zm10.578-4.488v6.514h-.459l-3.892-3.955v3.839h-1.375v-6.514h.448l3.902 3.936v-3.819h1.376zm5.384 6.398v-2.259h1.151c.707 0 1.287-.194 1.742-.582a1.87 1.87 0 0 0 .683-1.493 1.85 1.85 0 0 0-.683-1.493c-.455-.381-1.035-.572-1.742-.572h-2.526v6.398h1.375zm0-3.403h1.151c.319 0 .569-.086.749-.257s.27-.396.27-.674c0-.271-.093-.491-.28-.659s-.433-.252-.739-.252h-1.151v1.842zm4.506 3.403l.377-.834h2.75l.377.834h1.478l-2.996-6.514h-.458l-3.006 6.514h1.478zm1.752-4.071l-.896 2.162h1.793l-.897-2.162zm5.331 4.071v-2.259h1.008l1.743 2.259h1.548l-1.905-2.511c.374-.175.664-.422.871-.742s.311-.68.311-1.081c0-.614-.228-1.112-.683-1.493s-1.036-.572-1.742-.572h-2.527v6.398h1.376zm0-3.412h1.151c.32 0 .569-.084.749-.252s.27-.391.27-.669c0-.271-.093-.491-.28-.659s-.433-.252-.739-.252h-1.151v1.832zm5.789 3.412l.377-.834h2.751l.377.834h1.477l-2.995-6.514h-.459l-3.005 6.514h1.477zm1.753-4.071l-.897 2.162h1.793l-.896-2.162zm-85.267 14.976v-1.33h-3.679v-1.821h2.601v-1.254h-2.601v-1.461h3.541v-1.33h-5.089v7.197h5.227zm6.01-1.33v1.33h-4.86v-7.197h1.547v5.867h3.313zm4.947 1.33V24.76l1.903 2.268h.504l1.903-2.268v3.839h1.547V21.27h-.504l-3.198 3.893-3.198-3.893h-.504v7.328h1.547zm12.635-1.33v1.33h-5.227v-7.197h5.089v1.33h-3.541v1.461h2.601v1.254h-2.601v1.821h3.679zm3.546 1.461c.771 0 1.406-.198 1.902-.594a1.9 1.9 0 0 0 .745-1.565c0-.48-.149-.881-.447-1.205s-.772-.623-1.421-.9l-.86-.36c-.336-.145-.567-.274-.693-.387s-.189-.26-.189-.442c0-.218.088-.389.263-.513s.402-.185.677-.185c.573 0 1.054.276 1.444.829l1.054-.774c-.244-.422-.58-.754-1.008-.998s-.925-.365-1.49-.365c-.726 0-1.326.187-1.8.562a1.79 1.79 0 0 0-.71 1.478c0 .865.611 1.556 1.833 2.072l.814.349c.382.167.638.307.768.42s.195.271.195.474c0 .247-.096.442-.287.583s-.454.213-.79.213c-.703 0-1.322-.349-1.857-1.047l-1.066.763a3.22 3.22 0 0 0 1.209 1.167c.508.284 1.079.425 1.714.425zm11.136-.594c-.497.396-1.131.594-1.903.594-.634 0-1.205-.142-1.713-.425a3.22 3.22 0 0 1-1.209-1.167l1.066-.763c.534.698 1.153 1.047 1.856 1.047.337 0 .6-.071.791-.213s.287-.336.287-.583c0-.204-.065-.362-.195-.474s-.386-.253-.768-.42l-.814-.349c-1.222-.516-1.834-1.207-1.834-2.072a1.79 1.79 0 0 1 .711-1.478c.474-.374 1.074-.562 1.799-.562.566 0 1.063.122 1.49.365a2.67 2.67 0 0 1 1.009.998l-1.054.774c-.39-.552-.872-.829-1.445-.829-.275 0-.5.062-.676.185a.59.59 0 0 0-.263.513c0 .182.063.329.189.442s.357.242.693.387l.86.36c.649.276 1.123.576 1.421.9s.447.725.447 1.205a1.9 1.9 0 0 1-.745 1.565zm3.465.464v-7.197h-1.547v7.197h1.547zm7.282-.403c-.626.356-1.337.534-2.131.534-1.108.022-2.064-.336-2.866-1.074s-1.196-1.623-1.18-2.655c-.023-1.032.364-1.916 1.163-2.65s1.759-1.094 2.883-1.08c1.352 0 2.414.52 3.186 1.559l-1.1.861a2.52 2.52 0 0 0-2.109-1.058c-.719 0-1.303.222-1.754.665s-.676 1.011-.676 1.701c0 .705.233 1.283.699 1.734s1.074.676 1.822.676c.879 0 1.544-.298 1.995-.894v-.589H178.2v-1.276h3.633v2.127c-.352.589-.844 1.061-1.479 1.418zm5.769.534c.933 0 1.701-.284 2.304-.851s.906-1.319.906-2.257v-4.22h-1.548v4.329c0 .516-.151.918-.452 1.205s-.705.431-1.21.431c-.496 0-.897-.143-1.203-.431s-.458-.689-.458-1.205v-4.329h-1.548v4.22c0 .938.3 1.69.9 2.257s1.37.851 2.309.851zm6.239-7.328v7.197h-1.547v-7.197h1.547zm6.767 7.197v-1.33h-3.68v-1.821h2.602v-1.254h-2.602v-1.461h3.542v-1.33h-5.089v7.197h5.227zm7.591-7.197v7.328h-.516l-4.378-4.449v4.318h-1.547V21.27h.504l4.39 4.427v-4.297h1.547zm4.794 7.197v-5.867h2.43v-1.33h-6.395v1.33h2.418v5.867h1.547zm8.486-1.33v1.33h-5.227v-7.197h5.089v1.33h-3.541v1.461h2.602v1.254h-2.602v1.821H220z" class="B C"/><defs><radialGradient id="B" cx="0" cy="0" r="1" gradientUnits="userSpaceOnUse" gradientTransform="translate(30.4116 129.171) scale(15.341 15.3408)"><stop stop-color="#f9d173"/><stop offset=".246" stop-color="#ec9f55"/><stop offset=".379" stop-color="#ea5c3c"/><stop offset=".7" stop-color="#bc3082"/><stop offset=".972" stop-color="#6068ab"/><stop offset=".985" stop-color="#5c6bad"/></radialGradient><path id="C" d="M78.817 63.424v-8.138c0-3.016-2.054-5.018-5.33-5.018-3.302 0-5.33 2.002-5.33 5.018v8.138c0 2.99 2.028 5.018 5.33 5.018 3.276 0 5.33-2.028 5.33-5.018zm-3.38.182c0 .962-.702 1.742-1.95 1.742-1.222 0-1.95-.78-1.95-1.742v-8.528c0-.962.728-1.742 1.95-1.742 1.248 0 1.95.78 1.95 1.742v8.528z"/><path id="D" d="M109.809 68v-8.892h-5.564v2.548h2.028v1.794c0 .936-.676 1.846-2.054 1.846-1.326 0-2.028-.91-2.028-1.846v-8.216c0-.962.65-1.846 2.002-1.846 1.378 0 1.95.832 1.95 1.794v1.404h3.588v-1.3c0-2.704-1.872-5.018-5.564-5.018s-5.746 2.444-5.746 5.018v8.112c0 2.678 1.742 5.044 5.174 5.044 1.638 0 3.042-.728 3.718-2.028l.468 1.586h2.028z"/><path id="E" d="M70.054 90.855c0-1.649-1.105-2.533-2.686-3.4-1.445-.748-2.091-1.19-2.091-1.989 0-.68.459-1.122 1.173-1.122.85 0 1.275.595 1.275 1.36v.357h2.193v-.459c0-1.802-1.377-3.196-3.451-3.196-2.312 0-3.553 1.564-3.553 3.298s1.445 2.635 2.805 3.366c1.309.68 1.955 1.173 1.955 1.989 0 .782-.425 1.275-1.292 1.275-.884 0-1.36-.51-1.36-1.462v-.374h-2.227v.578c0 1.938 1.411 3.213 3.638 3.213 2.261 0 3.621-1.598 3.621-3.434z"/><path id="F" d="M173.516 88.052v-.546c-.234-.208-.364-.481-.364-.884v-1.417c0-.598-.377-1.248-1.157-1.43.78-.208 1.118-.741 1.118-1.443v-.936c0-1.248-.845-2.054-2.249-2.054h-3.12V88h1.859v-3.536h1.001c.533 0 .767.39.767.845v1.417c0 .806.286 1.326 1.04 1.326h1.105zm-2.197-5.642c0 .52-.26.767-.741.767h-.975v-2.379h1.053c.481 0 .663.273.663.702v.91z"/><path id="G" d="M155.971 97v-1.221h-2.134v-2.035h1.474v-1.078h-1.474v-1.815h2.134v-1.177h-3.498V97h3.498z"/><path id="H" d="M182.388 95.141c0-.99-.616-1.65-1.485-2.299-.814-.594-1.177-.913-1.177-1.529 0-.407.264-.66.66-.66.462 0 .693.33.693.781v.44h1.243v-.473c0-1.089-.77-1.881-1.925-1.881-1.32 0-2.002.913-2.002 1.969 0 1.023.814 1.749 1.562 2.288.726.539 1.1.935 1.1 1.518 0 .451-.242.737-.726.737-.495 0-.748-.297-.748-.836v-.429h-1.254v.506c0 1.144.781 1.892 2.035 1.892 1.21 0 2.024-.847 2.024-2.024z"/><path id="I" d="M131.609 133v-1.375h-2.508v-1.837h1.727V128.6h-1.727v-1.606h2.508v-1.32h-4.081V133h4.081z"/><path id="J" d="M144.456 133.044v-.462c-.198-.176-.308-.407-.308-.748v-1.199a1.23 1.23 0 0 0-.979-1.21c.66-.176.946-.627.946-1.221v-.792c0-1.056-.715-1.738-1.903-1.738h-2.64V133h1.573v-2.992h.847c.451 0 .649.33.649.715v1.199c0 .682.242 1.122.88 1.122h.935zm-1.859-4.774c0 .44-.22.649-.627.649h-.825v-2.013h.891c.407 0 .561.231.561.594v.77z"/><path id="K" d="M173.13 128.479v-.99c0-1.1-.649-1.815-1.881-1.815h-2.651V133h1.573v-2.717h1.078c1.232 0 1.881-.715 1.881-1.804zm-1.507.022c0 .396-.154.616-.561.616h-.891v-2.211h.891c.407 0 .561.22.561.616v.979z"/><path id="L" d="M132.935 274.996v-3.984c0-1.26-.864-2.172-2.268-2.172-1.392 0-2.268.912-2.268 2.172v3.984c0 1.272.876 2.184 2.268 2.184 1.404 0 2.268-.912 2.268-2.184zm-1.5.096c0 .468-.276.78-.768.78-.48 0-.756-.312-.756-.78v-4.176c0-.468.276-.78.756-.78.492 0 .768.312.768.78v4.176z"/><path id="M" d="M97.699 154.648v-3.288c0-1.296-.768-2.352-2.472-2.352h-2.616V157h2.616c1.704 0 2.472-1.056 2.472-2.352zm-1.272-.12c0 .828-.408 1.332-1.308 1.332h-1.236v-5.712h1.236c.9 0 1.308.504 1.308 1.344v3.036z"/><path id="N" d="M111.369 157v-7.992h-1.764l-1.26 5.004-.384 1.608-.384-1.596-1.284-5.016h-1.764V157h1.14v-6.312l.396 1.584 1.236 4.728h1.26l1.272-4.728.396-1.584V157h1.14z"/><path id="O" d="M123.308 154.828c0-1.092-.576-1.692-1.98-2.364-1.368-.66-1.704-.948-1.704-1.584 0-.564.36-.996 1.092-.996.924 0 1.296.624 1.296 1.356v.132h1.224v-.312c0-1.296-.972-2.244-2.484-2.244-1.524 0-2.4.984-2.4 2.184 0 1.272 1.08 1.908 2.148 2.4 1.2.552 1.524.9 1.524 1.572s-.42 1.152-1.224 1.152c-.852 0-1.296-.456-1.296-1.416v-.132h-1.26v.384c0 1.284 1.008 2.244 2.52 2.244 1.524 0 2.544-1.032 2.544-2.376z"/><path id="P" d="M70.078 206.32v-4.632c0-1.092-.708-1.824-1.788-1.824-1.092 0-1.8.732-1.8 1.824v4.632c0 1.092.708 1.824 1.8 1.824 1.08 0 1.788-.732 1.788-1.824zm-.936.144c0 .444-.336.804-.852.804-.528 0-.864-.36-.864-.804v-4.92c0-.432.336-.804.864-.804.516 0 .852.372.852.804v4.92z"/><path id="Q" d="M83.956 208v-4.032h-1.812v.852h.852v1.536c0 .48-.288.9-.888.9-.612 0-.888-.42-.888-.9v-4.704c0-.444.288-.876.888-.876.588 0 .852.408.852.864v.912h.936v-.78c0-1.128-.564-1.908-1.788-1.908s-1.884.852-1.884 1.908v4.464c0 1.14.648 1.908 1.728 1.908.612 0 1.092-.228 1.32-.684l.216.54h.468z"/><path id="R" d="M98.181 208l-1.488-7.992h-1.056l-1.5 7.992h.948l.336-1.836h1.416l.324 1.836h1.02zm-1.5-2.724h-1.104l.564-3.42.54 3.42z"/><path id="S" d="M103.268 206.2c0-.972-.48-1.728-1.404-2.556-.936-.852-1.248-1.308-1.248-2.088 0-.504.276-.816.804-.816.588 0 .852.42.852 1.032v.636h.948v-.744c0-1.056-.696-1.8-1.776-1.8-1.188 0-1.812.816-1.812 1.884 0 1.044.804 1.968 1.536 2.616.816.732 1.116 1.272 1.116 2.016 0 .552-.288.924-.876.924-.564 0-.876-.384-.876-1.056v-.624h-.984v.732c0 1.044.732 1.788 1.86 1.788.996 0 1.86-.648 1.86-1.944z"/><path id="T" d="M123.67 172.745c0-2.231-1.495-3.427-3.634-4.6-1.955-1.012-2.829-1.61-2.829-2.691 0-.92.621-1.518 1.587-1.518 1.15 0 1.725.805 1.725 1.84v.483h2.967v-.621c0-2.438-1.863-4.324-4.669-4.324-3.128 0-4.807 2.116-4.807 4.462s1.955 3.565 3.795 4.554c1.771.92 2.645 1.587 2.645 2.691 0 1.058-.575 1.725-1.748 1.725-1.196 0-1.84-.69-1.84-1.978v-.506h-3.013v.782c0 2.622 1.909 4.347 4.922 4.347 3.059 0 4.899-2.162 4.899-4.646z"/><path id="U" d="M103.08 195.092v-.966c-.414-.368-.644-.851-.644-1.564v-2.507c0-1.058-.667-2.208-2.047-2.53 1.38-.368 1.978-1.311 1.978-2.553v-1.656c0-2.208-1.495-3.634-3.979-3.634h-5.52V195h3.289v-6.256h1.771c.943 0 1.357.69 1.357 1.495v2.507c0 1.426.506 2.346 1.84 2.346h1.955zm-3.887-9.982c0 .92-.46 1.357-1.311 1.357h-1.725v-4.209h1.863c.851 0 1.173.483 1.173 1.242v1.61z"/><path id="V" d="M117.231 23.833l-2.439.879-.152-.348 3.215-1.386c.133-.054.435-.017.483.068l1.631 3.015-.399.187-1.32-2.269-1.073 1.814c-2.38 3.909-6.007 5.889-10.695 5.901l-54.678.002c-6.409-.019-11.376-4.397-12.1-10.402-.034-.278-.004-.563.203-.861.323 1.138.552 2.308.987 3.406 1.624 4.098 4.686 6.582 9.295 7.208 1.048.142 2.117.207 3.176.208l52.76.001c4.707-.006 8.321-1.948 10.714-5.842.259-.42.428-.89.64-1.337l-.248-.244z"/><path id="W" d="M118.316 19.639l-.285-1.388c-.582-4.455-4.272-8.286-8.948-9.204-1.033-.203-2.105-.326-3.16-.327l-53.606-.008c-4.495.001-8.029 1.723-10.484 5.335-.393.577-.713 1.316-1.036 1.935.015.016.084-.05.098-.033l.177.201 2.465-.93.157.365-3.649 1.636-1.678-3.391.39-.192 1.31 2.358c.227-.337.389-.529.499-.746 2.286-4.49 6.017-6.946 11.29-6.957l54.778-.011c6.49.006 11.692 4.789 12.025 10.985.006.113-.059.229-.091.344l-.253.028z"/><path id="X" d="M40.796 15.982l-.559.532h-.559.559v.532"/></defs></svg>