<svg width="256" height="295" xmlns="http://www.w3.org/2000/svg"><defs><radialGradient cx="29.022%" cy="99.807%" fx="29.022%" fy="99.807%" r="100.922%" gradientTransform="matrix(.99999 0 0 1 0 0)" id="a"><stop stop-color="#F9D173" offset="0%"/><stop stop-color="#EC9F55" offset="24.63%"/><stop stop-color="#EA5C3C" offset="37.93%"/><stop stop-color="#BC3082" offset="69.95%"/><stop stop-color="#6068AB" offset="97.24%"/><stop stop-color="#5C6BAD" offset="98.52%"/></radialGradient></defs><g fill="none" fill-rule="evenodd"><rect fill="#FFF" width="256" height="295" rx="10"/><path d="M13.44 114v-3.728h1.808c1.11 0 2.021-.32 2.736-.96.715-.64 1.072-1.461 1.072-2.464 0-1.013-.357-1.835-1.072-2.464-.715-.63-1.627-.944-2.736-.944H11.28V114h2.16zm1.808-5.616H13.44v-3.04h1.808c.48 0 .867.139 1.16.416.293.277.44.64.44 1.088 0 .459-.141.83-.424 1.112-.283.283-.675.424-1.176.424zM27.568 114v-1.952h-4.624v-8.608h-2.16V114h6.784zm2.912 0l.592-1.376h4.32l.592 1.376h2.32L33.6 103.248h-.72L28.16 114h2.32zm4.16-3.152h-2.816l1.408-3.568 1.408 3.568zm14.096 3.344V103.44h-2.16v6.304l-6.128-6.496h-.704V114h2.16v-6.336l6.112 6.528h.72z" fill="#4D008C" fill-rule="nonzero"/><g fill-rule="nonzero"><path d="M113.513 239.276h109.64a4.96 4.96 0 004.963-4.963v-14.71a4.96 4.96 0 00-4.964-4.962H113.514v24.635z" fill="#FF0081"/><path d="M223.192 239.618H21.266A5.27 5.27 0 0116 234.353v-14.79a5.27 5.27 0 015.266-5.266h201.926a5.27 5.27 0 015.266 5.266v14.79c0 2.885-2.36 5.265-5.266 5.265zM21.266 214.963a4.59 4.59 0 00-4.58 4.58v14.789a4.59 4.59 0 004.58 4.58h201.926a4.59 4.59 0 004.58-4.58v-14.789a4.59 4.59 0 00-4.58-4.58H21.266z" fill="#FF0081"/><path d="M92.812 226.14c0 4.38-3.551 7.95-7.95 7.95-4.378 0-7.949-3.55-7.949-7.95 0-4.377 3.551-7.95 7.95-7.95 4.378 0 7.949 3.573 7.949 7.95z" fill="#0076F4"/><path d="M86.618 222.57h1.009v-1.696c-.182-.019-.767-.08-1.473-.08-1.473 0-2.462.888-2.462 2.502v1.392h-1.654v1.896h1.654v4.863h1.978v-4.863h1.654l.242-1.896H85.67v-1.21c0-.525.14-.908.948-.908z" fill="#FFF"/><path d="M110.99 226.14c0 4.38-3.55 7.95-7.949 7.95-4.378 0-7.95-3.55-7.95-7.95 0-4.377 3.552-7.95 7.95-7.95 4.4 0 7.95 3.573 7.95 7.95z" fill="#00A8F2"/><path d="M106.673 224.668c-.06 3.107-2.037 5.266-5.044 5.387-1.23.06-2.119-.343-2.945-.807.887.141 2.057-.201 2.663-.747-.888-.06-1.433-.544-1.716-1.291.283.06.546 0 .747 0-.827-.263-1.372-.747-1.433-1.816.202.141.485.202.747.202-.605-.343-1.029-1.635-.545-2.442.888.949 1.977 1.756 3.754 1.897-.485-1.897 2.118-2.905 3.147-1.614.484-.06.827-.262 1.17-.404-.142.465-.403.747-.747 1.01.344-.061.686-.142.949-.263-.06.343-.404.625-.747.888z" fill="#FFF"/><path d="M74.552 226.14c0 4.38-3.55 7.95-7.95 7.95-4.378 0-7.949-3.55-7.949-7.95 0-4.377 3.551-7.95 7.95-7.95 4.398 0 7.95 3.573 7.95 7.95z" fill="#FDF700"/><path d="M62.487 228.22c.282-.04.544-.142.787-.303.201-.121.383-.284.544-.484.283-.324.424-.647.444-.687v-.02c.08-.142.08-.263.04-.363-.08-.202-.342-.283-.544-.344l-.04-.02c-.04 0-.061-.02-.081-.04-.142-.06-.222-.1-.283-.161-.08-.081-.1-.142-.08-.202.02-.06.06-.121.14-.161.102-.06.223-.081.303-.041.263.12.465.162.606.08.04-.02.06-.06.06-.1 0-.06-.02-.12-.02-.202v-.02c-.04-.565-.08-1.27.1-1.675.142-.282.304-.524.505-.726.182-.16.364-.302.606-.383a2.32 2.32 0 01.948-.202h.161a2.399 2.399 0 011.554.586c.202.201.383.423.504.725.182.404.142 1.11.101 1.655v.04c0 .04-.02.081-.02.121v.06c0 .04.02.082.06.101.041.02.101.041.162.041h.02c.121 0 .242-.04.404-.101.06-.02.1-.02.141-.02.06 0 .1.02.161.04.121.04.202.142.202.222 0 .04-.02.08-.08.141a.986.986 0 01-.303.182c-.02.02-.06.02-.08.02l-.041.02c-.182.061-.444.141-.545.343-.04.1-.04.223.04.384v.02c.101.222.646 1.292 1.776 1.473.04.02.08.04.08.1v.042c-.04.08-.1.14-.242.2a2.705 2.705 0 01-.807.203c-.04.02-.06.04-.08.06-.02.04-.04.1-.06.202l-.021.06c-.02.04-.02.101-.04.142-.02.06-.06.08-.121.08-.04 0-.081 0-.182-.02-.121-.02-.283-.06-.464-.06-.121 0-.222 0-.343.04-.222.04-.444.182-.666.323-.303.202-.625.444-1.13.444h-.1c-.505 0-.828-.242-1.15-.444-.203-.141-.404-.283-.646-.323-.101-.02-.222-.04-.343-.04-.202 0-.343.04-.464.06h-.02c-.061.02-.122.02-.182.02s-.101-.02-.141-.08c-.04-.08-.06-.12-.081-.181l-.02-.041a1.271 1.271 0 00-.06-.202c-.021-.04-.041-.06-.082-.06a5.507 5.507 0 01-.827-.202.625.625 0 01-.242-.181c-.02-.02-.02-.041-.02-.041v-.04c.141-.021.161-.04.202-.06z" stroke="#201712" stroke-width=".222" fill="#FFF"/><g><path d="M20.701 234.09l1.09-3.975a8.066 8.066 0 01-1.09-4.035c0-4.338 3.571-7.888 7.93-7.888 4.358 0 7.97 3.57 7.97 7.888 0 4.339-3.612 8.01-7.97 8.01-1.372 0-2.684-.443-3.874-1.09l-4.056 1.09z" fill="#FFF"/><path d="M24.979 231.568l.242.142c1.009.625 2.199 1.008 3.43 1.008 3.591 0 6.577-2.985 6.577-6.638 0-3.652-2.986-6.517-6.597-6.517-3.612 0-6.558 2.906-6.558 6.517 0 1.251.363 2.502 1.009 3.53l.161.244-.625 2.3 2.36-.586z" fill="#00A655"/><path d="M26.512 222.428l-.525-.02a.708.708 0 00-.443.162c-.243.221-.666.625-.767 1.17-.202.827.1 1.816.827 2.804.706.989 2.078 2.583 4.5 3.269.766.222 1.371.08 1.856-.222.383-.242.625-.625.706-1.049l.08-.383c.02-.102-.02-.242-.14-.303l-1.736-.788c-.1-.06-.242-.019-.323.081l-.686.868c-.06.06-.141.081-.222.06-.464-.16-2.038-.827-2.885-2.46-.02-.082-.02-.163.02-.223l.666-.747c.06-.08.08-.2.06-.282l-.786-1.775a.217.217 0 00-.202-.162z" fill="#FFF"/></g><g><path d="M7.849 15.697A7.85 7.85 0 107.848 0a7.85 7.85 0 000 15.698z" fill="url(#a)" transform="translate(40.03 218.292)"/><path d="M49.897 221.661H45.84c-1.372 0-2.502 1.11-2.502 2.462v4.015c0 1.372 1.13 2.462 2.502 2.482h4.056c1.372 0 2.502-1.11 2.502-2.461v-4.015a2.485 2.485 0 00-2.502-2.483zm1.695 6.498c0 .928-.767 1.674-1.695 1.674H45.84c-.928 0-1.695-.746-1.695-1.674v-4.015c0-.93.767-1.676 1.695-1.676h4.056c.928 0 1.695.747 1.695 1.676v4.015z" fill="#FFF"/><path d="M47.879 223.84c-1.291 0-2.34 1.03-2.34 2.3 0 1.272 1.049 2.3 2.34 2.3s2.34-1.028 2.34-2.3a2.334 2.334 0 00-2.34-2.3zm0 3.814a1.529 1.529 0 01-1.533-1.514c0-.826.686-1.512 1.533-1.512.847 0 1.533.686 1.533 1.512 0 .828-.686 1.514-1.533 1.514zM50.3 223.154a.648.648 0 00-.424.162c-.1.1-.181.263-.181.403 0 .162.06.303.181.404.101.1.263.161.424.161.162 0 .303-.06.424-.16a.624.624 0 00.182-.405.507.507 0 00-.182-.403.648.648 0 00-.424-.162z" fill="#FFF"/></g><g fill="#FFF"><path d="M194.643 219.039h-3.45v1.775h2.603v.97h-2.603v2.198h3.57v1.009h-4.7v-6.94h4.56v.988zM201.341 218.03v7.061h-.383l-4.238-4.801v4.7h-1.11v-7.06h.384l4.217 4.8v-4.68h1.13zM194.44 233.829l-1.976-2.684h-1.27v2.684h-1.112v-6.942h2.543c1.413 0 2.36.867 2.36 2.119 0 .908-.503 1.634-1.33 1.957l2.077 2.866h-1.291zm-3.247-3.673h1.392c.786 0 1.23-.464 1.23-1.13 0-.665-.444-1.15-1.23-1.15h-1.392v2.28zM200.857 227.896h-3.45v1.776h2.602v.968h-2.602v2.199h3.571v1.009h-4.7v-6.94h4.559v.988zM207.777 230.357c0 2.018-1.493 3.491-3.772 3.491h-2.18v-6.94h2.18c2.28-.021 3.772 1.392 3.772 3.45zm-4.842-2.461v4.943h1.049c1.635 0 2.644-1.05 2.644-2.482 0-1.492-1.01-2.461-2.644-2.461h-1.05zM216.373 232.617h-.949v1.212h-1.11v-1.212h-3.47v-.302l2.22-5.428h1.15l-1.957 4.782h2.058v-2.138h1.11v2.138h.948zM223.192 228.22l-.807.665c-.484-.686-1.17-1.09-2.077-1.09-1.493 0-2.502 1.09-2.502 2.562 0 1.493 1.049 2.604 2.562 2.604.928 0 1.654-.425 2.078-1.05v-.747h-2.138v-.988h3.247v1.957c-.605 1.09-1.816 1.836-3.247 1.836-2.058 0-3.653-1.554-3.653-3.591 0-2.038 1.614-3.592 3.653-3.592 1.23-.02 2.219.526 2.884 1.433zM120.958 231.65h7.183v2.258h-9.705v-15.697h2.522zM131.813 233.908h-2.522v-15.697h2.522zM146.482 229.35c0 2.642-1.998 4.558-5.085 4.558H134.658v-15.697h5.508c2.846 0 4.702 1.735 4.702 4.177 0 1.21-.485 2.24-1.332 2.945 1.836.626 2.946 2.079 2.946 4.016zm-9.342-8.92v4.238h2.764c1.594 0 2.421-.888 2.421-2.138 0-1.251-.827-2.1-2.42-2.1h-2.765zm6.8 8.859c0-1.474-.97-2.442-2.765-2.442h-4.035v4.882h4.035c1.776-.02 2.765-.968 2.765-2.44zM158.163 233.908l-4.459-6.052h-2.884v6.052h-2.523v-15.697h5.73c3.189 0 5.327 1.958 5.327 4.803 0 2.058-1.15 3.691-3.027 4.419l4.701 6.456h-2.865v.02zm-7.343-8.292h3.167c1.775 0 2.785-1.07 2.785-2.562 0-1.514-.989-2.582-2.785-2.582h-3.167v5.144zM172.408 220.491h-7.788v4.016h5.872v2.179h-5.872v4.963h8.09v2.26h-10.592V218.21h10.31v2.28zM184.232 220.774l-1.756 1.352c-.807-1.21-1.957-1.897-3.309-1.897-1.25 0-2.381.626-2.381 1.897 0 1.19.909 1.614 2.18 2.24l1.755.806c2.381 1.09 3.753 2.3 3.753 4.46 0 2.783-2.26 4.539-5.246 4.539-2.624 0-4.722-1.332-5.912-3.39l1.776-1.352c.907 1.312 2.159 2.502 4.115 2.502 1.614 0 2.704-.827 2.704-2.179 0-1.23-.928-1.714-2.3-2.36l-1.735-.808c-2.018-.928-3.652-2.138-3.652-4.358 0-2.582 2.24-4.257 4.943-4.257 2.3 0 4.117 1.19 5.065 2.805z"/></g></g><g fill="#4F008C" fill-rule="nonzero"><path d="M205.98 199.097v-8.619l3.947 5.172h.747l3.926-5.151v8.598h2.201v-13.936h-.747l-5.753 7.664-5.753-7.664h-.769v13.936h2.202zm13.978 0V185.39h-2.201v13.707h2.201zm12.254.229V185.39h-2.202v9.242l-8.328-9.47h-.769v13.935h2.202v-9.283l8.35 9.512h.747zM164.89 199.559v-13.667h-1.138l-5.591 1.843.849 3.147 2.32-.766v9.443h3.56zm6.098.248c1.794 0 3.188-.67 4.182-2.008.994-1.34 1.491-3.065 1.491-5.177 0-2.085-.493-3.77-1.48-5.053-.987-1.284-2.385-1.926-4.193-1.926-1.809 0-3.207.642-4.194 1.926-.987 1.284-1.48 2.968-1.48 5.053 0 2.112.497 3.838 1.49 5.177.995 1.339 2.389 2.008 4.184 2.008zm0-3.272c-1.353 0-2.03-1.297-2.03-3.893 0-1.283.166-2.226.497-2.826.331-.6.842-.901 1.533-.901.69 0 1.2.3 1.532.9.331.601.497 1.544.497 2.827 0 2.596-.677 3.893-2.03 3.893zm11.149 3.272c1.795 0 3.189-.67 4.183-2.008.994-1.34 1.49-3.065 1.49-5.177 0-2.085-.493-3.77-1.48-5.053-.987-1.284-2.385-1.926-4.193-1.926-1.809 0-3.206.642-4.193 1.926-.988 1.284-1.481 2.968-1.481 5.053 0 2.112.497 3.838 1.49 5.177.995 1.339 2.39 2.008 4.184 2.008zm0-3.272c-1.353 0-2.03-1.297-2.03-3.893 0-1.283.166-2.226.498-2.826.33-.6.842-.901 1.532-.901.69 0 1.2.3 1.532.9.332.601.497 1.544.497 2.827 0 2.596-.676 3.893-2.03 3.893zm11.15 3.272c1.794 0 3.188-.67 4.182-2.008.994-1.34 1.491-3.065 1.491-5.177 0-2.085-.493-3.77-1.48-5.053-.988-1.284-2.385-1.926-4.194-1.926-1.808 0-3.206.642-4.193 1.926-.987 1.284-1.48 2.968-1.48 5.053 0 2.112.496 3.838 1.49 5.177.994 1.339 2.389 2.008 4.183 2.008zm0-3.272c-1.354 0-2.03-1.297-2.03-3.893 0-1.283.166-2.226.497-2.826.331-.6.842-.901 1.532-.901.69 0 1.201.3 1.533.9.33.601.497 1.544.497 2.827 0 2.596-.677 3.893-2.03 3.893z"/></g><path stroke="#4F008C" stroke-linecap="square" d="M148.463 182.516v21.29"/><g fill-rule="nonzero"><path d="M20.74 161v-29.04h-2.42l-11.88 3.916 1.804 6.688 4.928-1.628V161h7.568zm14.582.528c3.286 0 6.043-.975 8.272-2.926 2.23-1.95 3.344-4.407 3.344-7.37.059-2.728-.916-4.987-2.926-6.776-2.009-1.79-4.275-2.655-6.798-2.596-.821 0-1.745.103-2.772.308v-3.388h10.824v-6.82H27.27v16.412h6.908c3.344 0 5.016.983 5.016 2.948 0 1.027-.381 1.826-1.144 2.398-.762.572-1.774.858-3.036.858-1.202 0-2.236-.286-3.102-.858-.865-.572-1.738-1.518-2.618-2.838l-5.236 3.696c.998 2.17 2.486 3.872 4.466 5.104 1.98 1.232 4.246 1.848 6.798 1.848zM87.74 161v-29.04h-2.42l-11.88 3.916 1.804 6.688 4.928-1.628V161h7.568zm14.582.528c3.286 0 6.043-.975 8.272-2.926 2.23-1.95 3.344-4.407 3.344-7.37.059-2.728-.916-4.987-2.926-6.776-2.009-1.79-4.275-2.655-6.798-2.596-.821 0-1.745.103-2.772.308v-3.388h10.824v-6.82H94.27v16.412h6.908c3.344 0 5.016.983 5.016 2.948 0 1.027-.381 1.826-1.144 2.398-.762.572-1.774.858-3.036.858-1.202 0-2.236-.286-3.102-.858-.865-.572-1.738-1.518-2.618-2.838l-5.236 3.696c.998 2.17 2.486 3.872 4.466 5.104 1.98 1.232 4.246 1.848 6.798 1.848zM139.164 162.517l.425-.001c3.04 0 5.791-.717 8.256-2.15 2.466-1.462 4.358-3.368 5.677-5.719v-8.944h-14.018v6.364h6.621v1.333c-1.462 1.691-3.54 2.537-6.234 2.537-2.494 0-4.48-.745-5.956-2.236-1.476-1.49-2.215-3.454-2.215-5.891 0-2.408.696-4.329 2.086-5.762 1.39-1.433 3.275-2.15 5.654-2.15 2.925 0 5.318 1.304 7.182 3.913l5.16-4.386c-2.838-4.214-6.91-6.321-12.212-6.321-4.272-.057-7.927 1.362-10.965 4.257-3.04 2.895-4.53 6.378-4.472 10.449-.058 4.1 1.433 7.59 4.472 10.47 3.038 2.882 6.693 4.293 10.965 4.236h-.426zm23.638-.517v-28.38h-7.396V162h7.396zm16.897.517l.425-.001c3.039 0 5.79-.717 8.256-2.15 2.465-1.462 4.358-3.368 5.676-5.719v-8.944h-14.018v6.364h6.622v1.333c-1.462 1.691-3.54 2.537-6.235 2.537-2.494 0-4.479-.745-5.955-2.236-1.477-1.49-2.215-3.454-2.215-5.891 0-2.408.695-4.329 2.086-5.762 1.39-1.433 3.275-2.15 5.654-2.15 2.924 0 5.318 1.304 7.181 3.913l5.16-4.386c-2.838-4.214-6.909-6.321-12.212-6.321-4.271-.057-7.926 1.362-10.965 4.257-3.038 2.895-4.53 6.378-4.472 10.449v.408c.044 3.923 1.535 7.278 4.472 10.063 3.039 2.88 6.694 4.292 10.965 4.235h-.425zm21.015-.517l1.032-2.365h10.191l1.032 2.365h7.955l-12.9-28.896h-2.365L192.759 162h7.955zm8.6-8.299h-4.945l2.494-6.579 2.451 6.579zm21.45 8.815c3.01 0 5.497-.803 7.46-2.408 1.964-1.605 2.946-3.755 2.946-6.45 0-1.978-.58-3.633-1.742-4.966-1.16-1.333-3.002-2.53-5.525-3.591l-3.268-1.376c-.917-.373-1.555-.724-1.914-1.053-.358-.33-.537-.753-.537-1.269 0-1.204.846-1.806 2.537-1.806.975 0 1.82.237 2.537.71.716.473 1.433 1.24 2.15 2.3l4.945-3.784c-1.892-3.813-5.132-5.719-9.718-5.719-2.924 0-5.31.774-7.16 2.322-1.849 1.548-2.773 3.569-2.773 6.063 0 3.583 2.393 6.436 7.18 8.557l2.925 1.29c1.175.516 1.95.932 2.322 1.247.373.315.559.774.559 1.376 0 1.376-.975 2.064-2.924 2.064-1.347 0-2.508-.308-3.483-.925-.975-.616-1.92-1.526-2.838-2.73l-4.988 3.784c1.032 1.978 2.544 3.533 4.536 4.665 1.993 1.133 4.25 1.699 6.773 1.699z" fill="#4D008C"/><path fill="#FF0081" d="M64.375 153.8v-5.88h5.67v-5.04h-5.67V137h-5.67v5.88H53v5.04h5.705v5.88z"/></g><path d="M13.549 199v-5.796h3.234c1.33 0 2.401-.378 3.213-1.134.812-.756 1.218-1.729 1.218-2.919 0-1.176-.406-2.138-1.218-2.887-.812-.75-1.883-1.124-3.213-1.124h-4.872V199h1.638zm3.192-7.266h-3.192v-5.124h3.192c.868 0 1.547.234 2.037.703.49.47.735 1.089.735 1.859 0 .784-.245 1.407-.735 1.869-.49.462-1.169.693-2.037.693zm13.175 7.498l.307-.001c1.96.028 3.661-.665 5.103-2.079 1.442-1.414 2.142-3.108 2.1-5.082v-.31c-.034-1.842-.734-3.432-2.1-4.772-1.442-1.414-3.143-2.107-5.103-2.079-1.974-.028-3.675.665-5.103 2.079-1.428 1.414-2.121 3.108-2.079 5.082-.042 1.96.655 3.654 2.09 5.082 1.435 1.428 3.132 2.121 5.092 2.079h-.307zm.328-1.513c-1.568 0-2.877-.542-3.927-1.627-1.05-1.086-1.575-2.433-1.575-4.043 0-1.61.525-2.95 1.575-4.022 1.05-1.07 2.359-1.606 3.927-1.606 1.526-.028 2.828.511 3.906 1.617 1.078 1.106 1.603 2.443 1.575 4.011.028 1.582-.497 2.93-1.575 4.042-1.078 1.113-2.38 1.656-3.906 1.628zM41.983 199v-5.817h2.961L49.249 199h1.911l-4.431-6.006c.91-.266 1.624-.739 2.142-1.418.518-.678.777-1.487.777-2.425 0-1.176-.406-2.138-1.218-2.887-.812-.75-1.883-1.124-3.213-1.124h-4.872V199h1.638zm3.171-7.287h-3.171v-5.103h3.171c.868 0 1.55.234 2.047.703.498.47.746 1.089.746 1.859 0 .784-.245 1.404-.735 1.859-.49.455-1.176.682-2.058.682zm18.123 7.539c1.386 0 2.583-.476 3.591-1.428s1.512-2.128 1.512-3.528c.028-1.302-.434-2.418-1.386-3.35-.952-.93-2.023-1.382-3.213-1.354h-.084l3.192-4.452H63.55l-3.465 4.788c-.882 1.218-1.435 2.163-1.659 2.835-.154.49-.231.994-.231 1.512-.028 1.386.473 2.569 1.502 3.549s2.222 1.456 3.58 1.428zm0-2.604a2.178 2.178 0 01-1.627-.682c-.441-.456-.662-1.012-.662-1.67 0-.658.22-1.211.662-1.659a2.194 2.194 0 011.627-.672c.644 0 1.187.22 1.627.661.442.441.662.998.662 1.67 0 .672-.224 1.232-.672 1.68-.434.448-.973.672-1.617.672zM79.489 199v-7.392l3.486 4.368h.924l3.486-4.368V199h2.835v-14.112h-.924l-5.859 7.497-5.859-7.497h-.924V199h2.835zm23.499 0v-2.562h-6.741v-3.507h4.767v-2.415h-4.767v-2.814h6.489v-2.562h-9.324V199h9.576zm6.846.252c1.414 0 2.576-.381 3.486-1.144.91-.763 1.365-1.768 1.365-3.014 0-.924-.273-1.697-.819-2.32-.546-.623-1.414-1.201-2.604-1.733l-1.575-.693c-.616-.28-1.04-.528-1.27-.745-.231-.218-.347-.501-.347-.851 0-.42.161-.749.483-.987.322-.238.735-.357 1.239-.357 1.05 0 1.932.532 2.646 1.596l1.932-1.491a5.026 5.026 0 00-1.848-1.921c-.784-.47-1.694-.704-2.73-.704-1.33 0-2.429.36-3.297 1.081-.868.721-1.302 1.67-1.302 2.846 0 1.666 1.12 2.996 3.36 3.99l1.491.672c.7.322 1.169.591 1.407.808.238.218.357.522.357.914 0 .476-.175.85-.525 1.124-.35.273-.833.409-1.449.409-1.288 0-2.422-.672-3.402-2.016l-1.953 1.47a6.04 6.04 0 002.216 2.247c.93.546 1.977.819 3.139.819zM126.76 199v-2.562h-6.741v-3.507h4.767v-2.415h-4.767v-2.814h6.489v-2.562h-9.324V199h9.576zm6.846.252c1.414 0 2.576-.381 3.486-1.144.91-.763 1.365-1.768 1.365-3.014 0-.924-.273-1.697-.819-2.32-.546-.623-1.414-1.201-2.604-1.733l-1.575-.693c-.616-.28-1.04-.528-1.27-.745-.231-.218-.347-.501-.347-.851 0-.42.161-.749.483-.987.322-.238.735-.357 1.239-.357 1.05 0 1.932.532 2.646 1.596l1.932-1.491a5.026 5.026 0 00-1.848-1.921c-.784-.47-1.694-.704-2.73-.704-1.33 0-2.429.36-3.297 1.081-.868.721-1.302 1.67-1.302 2.846 0 1.666 1.12 2.996 3.36 3.99l1.491.672c.7.322 1.169.591 1.407.808.238.218.357.522.357.914 0 .476-.175.85-.525 1.124-.35.273-.833.409-1.449.409-1.288 0-2.422-.672-3.402-2.016l-1.953 1.47a6.04 6.04 0 002.215 2.247c.931.546 1.978.819 3.14.819z" fill="#4F008C" fill-rule="nonzero"/><g fill="#4A0A8E" fill-rule="nonzero"><path d="M33.468 89.696c4.331 0 7.966-1.286 10.904-3.857 2.94-2.571 4.408-5.81 4.408-9.715.078-3.596-1.208-6.573-3.857-8.932-2.648-2.359-5.635-3.5-8.96-3.422-1.083 0-2.301.135-3.655.406V59.71h14.268v-8.99H22.854v21.634h9.106c4.408 0 6.612 1.295 6.612 3.886 0 1.353-.502 2.407-1.508 3.161-1.005.754-2.339 1.131-4.002 1.131-1.585 0-2.948-.377-4.088-1.131-1.141-.754-2.291-2.001-3.451-3.741l-6.902 4.872c1.314 2.861 3.277 5.104 5.887 6.728 2.61 1.624 5.597 2.436 8.96 2.436zm36.062 0c5.027 0 8.932-1.875 11.716-5.626 2.784-3.75 4.176-8.584 4.176-14.5 0-5.839-1.382-10.556-4.147-14.152-2.765-3.596-6.68-5.394-11.745-5.394-5.065 0-8.98 1.798-11.745 5.394-2.765 3.596-4.147 8.313-4.147 14.152 0 5.916 1.392 10.75 4.176 14.5 2.784 3.75 6.69 5.626 11.716 5.626zm0-9.164c-3.79 0-5.684-3.635-5.684-10.904 0-3.596.464-6.235 1.392-7.917.928-1.682 2.359-2.523 4.292-2.523 1.933 0 3.364.841 4.292 2.523.928 1.682 1.392 4.321 1.392 7.917 0 7.27-1.895 10.904-5.684 10.904zM96.176 61.181c1.385 0 2.573-.486 3.565-1.457.992-.971 1.488-2.15 1.488-3.534 0-1.385-.496-2.563-1.488-3.534-.992-.971-2.18-1.457-3.565-1.457-1.405 0-2.604.486-3.596 1.457-.992.971-1.488 2.15-1.488 3.534 0 1.385.496 2.563 1.488 3.534.992.971 2.19 1.457 3.596 1.457zM97.323 72l11.718-20.46h-2.14L95.185 72h2.139zm-1.147-12.586c-.889 0-1.622-.305-2.201-.915-.579-.61-.868-1.379-.868-2.309 0-.93.29-1.7.868-2.31.579-.61 1.312-.914 2.2-.914.89 0 1.623.31 2.202.93.579.62.868 1.385.868 2.294 0 .91-.29 1.674-.868 2.294-.579.62-1.312.93-2.201.93zm11.842 12.896c1.405 0 2.604-.486 3.596-1.457.992-.971 1.488-2.15 1.488-3.534 0-1.385-.496-2.563-1.488-3.534-.992-.971-2.19-1.457-3.596-1.457-1.405 0-2.594.486-3.565 1.457-.971.971-1.457 2.15-1.457 3.534 0 1.385.486 2.563 1.457 3.534.971.971 2.16 1.457 3.565 1.457zm.03-1.798c-.888 0-1.621-.305-2.2-.915-.579-.61-.868-1.369-.868-2.278 0-.93.29-1.7.868-2.31.579-.61 1.312-.914 2.2-.914.869 0 1.592.305 2.17.914.58.61.869 1.38.869 2.31 0 .91-.29 1.669-.868 2.278-.579.61-1.302.915-2.17.915zM93.443 87c1.456.019 2.665-.415 3.626-1.302.961-.887 1.433-2.002 1.414-3.346.019-1.353-.448-2.462-1.4-3.325s-2.165-1.286-3.64-1.267h-3.024V87h3.024zm-.014-1.708h-1.12v-5.824h1.12c.952 0 1.708.257 2.268.77.56.513.84 1.218.84 2.114 0 .887-.285 1.598-.854 2.135-.57.537-1.32.805-2.254.805zm10.945 1.876c.886 0 1.689-.203 2.407-.609a4.325 4.325 0 001.68-1.687l-1.427-1.008c-.663 1.036-1.545 1.554-2.647 1.554-.858 0-1.57-.285-2.135-.854-.564-.57-.846-1.293-.846-2.17s.282-1.605.846-2.184c.565-.579 1.277-.868 2.136-.868 1.1 0 1.983.518 2.645 1.554l1.428-1.008a4.438 4.438 0 00-1.686-1.687c-.715-.406-1.51-.609-2.388-.609-1.344-.028-2.505.432-3.486 1.379-.98.947-1.46 2.084-1.441 3.409-.028 1.325.445 2.462 1.42 3.409.976.947 2.14 1.407 3.494 1.379zM113.96 87v-7.532h2.968V77.76h-7.812v1.708h2.954V87h1.89zm8.577.167c1.224-.035 2.295-.496 3.214-1.385.985-.952 1.468-2.086 1.45-3.402.018-1.316-.465-2.45-1.45-3.402-.984-.952-2.144-1.414-3.479-1.386-1.334-.028-2.49.434-3.465 1.386-.975.952-1.453 2.086-1.434 3.402-.02 1.316.46 2.45 1.434 3.402.976.952 2.13 1.414 3.465 1.386h.265zm-.25-1.749c-.86 0-1.569-.285-2.129-.854-.56-.57-.84-1.297-.84-2.184 0-.887.28-1.615.84-2.184.56-.57 1.27-.854 2.129-.854.849 0 1.556.287 2.12.861.565.574.847 1.3.847 2.177 0 .887-.282 1.615-.847 2.184-.564.57-1.271.854-2.12.854zM146.993 66v-1.615h-5.78v-3.553h4.199v-1.564h-4.199v-2.873h5.576V54.78h-7.378V66h7.582zm10.77.187V54.78h-1.802v7.565l-6.817-7.752h-.629V66h1.802v-7.599l6.834 7.786h.612zm10.966 0c1.349 0 2.45-.425 3.306-1.275.856-.85 1.284-2 1.284-3.451V54.78h-1.802v6.8c0 .93-.255 1.655-.765 2.176-.51.521-1.184.782-2.023.782-.85 0-1.533-.26-2.049-.782-.515-.521-.773-1.247-.773-2.176v-6.8h-1.802v6.681c0 1.45.428 2.601 1.283 3.451.856.85 1.97 1.275 3.34 1.275zm15.972 0V54.78h-1.802v7.565l-6.817-7.752h-.63V66h1.803v-7.599l6.834 7.786h.612zm8.263-.187v-4.335h2.295c1.122 0 2.037-.323 2.745-.969.709-.646 1.063-1.473 1.063-2.482 0-1.009-.352-1.833-1.054-2.473-.703-.64-1.62-.961-2.754-.961h-4.097V66h1.802zm2.26-5.933h-2.26v-3.689h2.26c.624 0 1.112.167 1.463.502.351.334.527.784.527 1.351s-.176 1.014-.527 1.343c-.352.329-.839.493-1.462.493zM207.44 66v-1.615h-5.134V54.78h-1.802V66h6.936zm2.134 0l.799-1.87h5.049l.799 1.87h1.938l-4.947-11.407h-.612L207.653 66h1.92zm5.202-3.417h-3.757l1.887-4.641 1.87 4.641zm13.847 3.604V54.78h-1.802v7.565l-6.817-7.752h-.63V66h1.803v-7.599l6.834 7.786h.612zM142.93 83c1.813 0 3.284-.527 4.411-1.581 1.128-1.054 1.692-2.403 1.692-4.046 0-1.666-.561-3.015-1.683-4.046-1.122-1.031-2.595-1.547-4.42-1.547h-3.519V83h3.519zm-.017-1.615h-1.7v-7.973h1.7c1.303 0 2.34.36 3.111 1.08.77.72 1.156 1.68 1.156 2.881 0 1.19-.388 2.156-1.165 2.898-.776.743-1.81 1.114-3.102 1.114zM158.188 83v-1.615h-5.78v-3.553h4.199v-1.564h-4.199v-2.873h5.576V71.78h-7.378V83h7.582zm9.86 1.649v-2.074c.862-.136 1.548-.47 2.058-1.003.51-.533.765-1.19.765-1.972 0-1.36-.861-2.357-2.584-2.992l-1.275-.442c-.408-.17-.7-.331-.876-.484a.743.743 0 01-.263-.587c0-.283.113-.499.34-.646.227-.147.521-.221.884-.221.782 0 1.434.385 1.955 1.156l1.53-1.156c-.555-1.065-1.4-1.717-2.533-1.955v-2.006h-2.006v2.04c-.725.17-1.31.504-1.751 1.003a2.578 2.578 0 00-.663 1.768c0 1.337.844 2.323 2.533 2.958l1.156.425c.476.193.813.371 1.011.536a.79.79 0 01.298.637c0 .329-.133.578-.4.748-.266.17-.626.255-1.08.255-1.053 0-1.909-.516-2.566-1.547l-1.547 1.156c.635 1.224 1.638 1.989 3.009 2.295v2.108h2.006zM175.64 83l2.788-3.876c.555-.76.946-1.377 1.173-1.853.25-.487.374-1.043.374-1.666 0-1.145-.408-2.102-1.224-2.873a4.09 4.09 0 00-2.907-1.156c-1.1-.023-2.066.363-2.899 1.156-.833.793-1.238 1.745-1.215 2.856-.023 1.054.351 1.958 1.122 2.712.77.753 1.632 1.119 2.584 1.096h.085L172.92 83h2.72zm.204-5.525c-.51 0-.946-.181-1.31-.544a1.825 1.825 0 01-.543-1.343c0-.544.181-.997.544-1.36a1.785 1.785 0 011.309-.544c.521 0 .96.184 1.317.552.357.369.536.82.536 1.352 0 .533-.181.98-.544 1.343a1.749 1.749 0 01-1.31.544zm5.755 5.729c.453 0 .827-.15 1.122-.45.295-.3.442-.678.442-1.131 0-.442-.15-.816-.45-1.122a1.498 1.498 0 00-1.114-.459c-.453 0-.833.153-1.14.459-.305.306-.458.68-.458 1.122 0 .453.153.83.459 1.13.306.3.686.451 1.139.451zm6.027-.204l2.788-3.876c.555-.76.946-1.377 1.173-1.853.25-.487.374-1.043.374-1.666 0-1.145-.408-2.102-1.224-2.873a4.09 4.09 0 00-2.907-1.156c-1.1-.023-2.066.363-2.899 1.156-.833.793-1.238 1.745-1.215 2.856-.023 1.054.351 1.958 1.122 2.712.77.753 1.632 1.119 2.584 1.096h.085L184.906 83h2.72zm.204-5.525c-.51 0-.947-.181-1.31-.544a1.825 1.825 0 01-.543-1.343c0-.544.181-.997.544-1.36a1.785 1.785 0 011.309-.544c.521 0 .96.184 1.317.552.357.369.536.82.536 1.352 0 .533-.181.98-.544 1.343a1.749 1.749 0 01-1.31.544zM196.61 83l2.789-3.876c.555-.76.946-1.377 1.173-1.853.25-.487.374-1.043.374-1.666 0-1.145-.408-2.102-1.224-2.873a4.09 4.09 0 00-2.907-1.156c-1.1-.023-2.066.363-2.899 1.156-.833.793-1.238 1.745-1.215 2.856-.023 1.054.351 1.958 1.122 2.712.77.753 1.632 1.119 2.584 1.096h.085L193.89 83h2.72zm.205-5.525c-.51 0-.947-.181-1.31-.544a1.825 1.825 0 01-.543-1.343c0-.544.181-.997.544-1.36a1.785 1.785 0 011.309-.544c.521 0 .96.184 1.317.552.357.369.536.82.536 1.352 0 .533-.182.98-.544 1.343a1.749 1.749 0 01-1.31.544zm9.614 5.729c1.416 0 2.51-.55 3.28-1.649.771-1.1 1.157-2.516 1.157-4.25 0-1.723-.38-3.105-1.14-4.148-.747-1.054-1.847-1.581-3.297-1.581-1.45 0-2.556.527-3.315 1.581-.76 1.043-1.14 2.425-1.14 4.148 0 1.734.386 3.15 1.157 4.25.77 1.1 1.87 1.649 3.298 1.649zm0-2.125c-1.394 0-2.091-1.252-2.091-3.757 0-2.414.697-3.621 2.09-3.621 1.383 0 2.075 1.207 2.075 3.621 0 2.505-.692 3.757-2.074 3.757z"/></g><path d="M185 20h44c5.523 0 10 4.751 10 10.613V39m0 208v20.04c0 4.397-4.477 7.96-10 7.96H18c-5.523 0-10-3.563-10-7.96v-19.556M8 39v-8.468C8 24.715 12.477 20 18 20h44" stroke="#FF0081"/><path d="M73.36 18.224a1.41 1.41 0 001.048-.432 1.45 1.45 0 00.424-1.056c0-.427-.141-.781-.424-1.064a1.424 1.424 0 00-1.048-.424c-.437 0-.797.141-1.08.424-.282.283-.424.637-.424 1.064 0 .416.142.768.424 1.056.283.288.643.432 1.08.432zM74.624 26l-.4-6.56h-1.76L72.048 26h2.576zm3.916 0l.592-1.376h4.32L84.044 26h2.32L81.66 15.248h-.72L76.22 26h2.32zm4.16-3.152h-2.816l1.408-3.568 1.408 3.568zM89.864 26v-3.728h1.808c1.11 0 2.022-.32 2.736-.96.715-.64 1.072-1.461 1.072-2.464 0-1.013-.357-1.835-1.072-2.464-.714-.63-1.626-.944-2.736-.944h-3.968V26h2.16zm1.808-5.616h-1.808v-3.04h1.808c.48 0 .867.139 1.16.416.294.277.44.64.44 1.088 0 .459-.141.83-.424 1.112-.282.283-.674.424-1.176.424zM99.268 26v-3.728h1.584L103.588 26h2.432l-2.992-4.144a3.246 3.246 0 001.368-1.224 3.332 3.332 0 00.488-1.784c0-1.013-.357-1.835-1.072-2.464-.714-.63-1.626-.944-2.736-.944h-3.968V26h2.16zm1.808-5.632h-1.808v-3.024h1.808c.48 0 .867.139 1.16.416.294.277.44.64.44 1.088 0 .459-.141.827-.424 1.104-.282.277-.674.416-1.176.416zm11.208 5.823c1.407-.035 2.637-.563 3.692-1.583 1.126-1.088 1.678-2.384 1.656-3.888.022-1.504-.53-2.8-1.656-3.888-1.125-1.088-2.45-1.616-3.976-1.584-1.525-.032-2.845.496-3.96 1.584-1.114 1.088-1.661 2.384-1.64 3.888-.021 1.504.526 2.8 1.64 3.888 1.115 1.088 2.435 1.616 3.96 1.584h.284zm-.268-1.999c-.981 0-1.792-.325-2.432-.976-.64-.65-.96-1.483-.96-2.496s.32-1.845.96-2.496c.64-.65 1.451-.976 2.432-.976.971 0 1.779.328 2.424.984.646.656.968 1.485.968 2.488 0 1.013-.322 1.845-.968 2.496-.645.65-1.453.976-2.424.976zm11.452 2l4.704-10.752h-2.432l-2.624 6.4-2.64-6.4h-2.448l4.72 10.752h.72zm13.34-.192v-1.952h-5.136v-2.672h3.632v-1.84h-3.632v-2.144h4.944V15.44h-7.104V26h7.296zm6.54.192c1.014 0 1.931-.232 2.752-.696a4.943 4.943 0 001.92-1.928l-1.632-1.152c-.757 1.184-1.765 1.776-3.024 1.776-.981 0-1.794-.325-2.44-.976-.645-.65-.968-1.477-.968-2.48s.323-1.835.968-2.496c.646-.661 1.459-.992 2.44-.992 1.259 0 2.267.592 3.024 1.776l1.632-1.152a5.071 5.071 0 00-1.928-1.928c-.816-.464-1.725-.696-2.728-.696-1.536-.032-2.864.493-3.984 1.576-1.12 1.083-1.669 2.381-1.648 3.896-.032 1.515.51 2.813 1.624 3.896 1.115 1.083 2.446 1.608 3.992 1.576zM151.92 26v-4.56h4.672V26h2.16V15.44h-2.16v4.048h-4.672V15.44h-2.16V26h2.16zm10.46 0l.592-1.376h4.32l.592 1.376h2.32L165.5 15.248h-.72L160.06 26h2.32zm4.16-3.152h-2.816l1.408-3.568 1.408 3.568zm7.208-.478l.375-6.27h-2.415l.39 6.27h1.65zm-.795 3.81c.39 0 .718-.133.983-.398s.397-.597.397-.997c0-.39-.132-.72-.397-.99a1.322 1.322 0 00-.983-.405c-.41 0-.747.135-1.012.405s-.398.6-.398.99c0 .4.133.732.398.997s.602.398 1.012.398z" fill="#4D008C" fill-rule="nonzero"/><path d="M70.19 104.32l.49.87-.435.246L63.906 109H239v1H63.91l6.335 3.564.436.245-.49.872-.436-.245-8-4.5-.775-.436.775-.436 8-4.5.436-.245z" fill="#FF2083" fill-rule="nonzero"/></g></svg>