<svg xmlns="http://www.w3.org/2000/svg" xmlns:xlink="http://www.w3.org/1999/xlink" width="254" height="257" fill="none" xmlns:v="https://vecta.io/nano"><path d="M0 79H250V257H0V79Z" fill="#4f008c"/><path d="M4 0H254V253H4V0Z" fill="#fff"/><g fill="#4f008c"><path d="M50.962 16.296v-1.952h-6.88v1.952h2.304V25h2.288v-8.704h2.288zM58.86 25v-2h-3.648v-2.672h2.512V18.6h-2.512v-2.336h3.648v-1.92h-5.936V25h5.936zm13.106.064v-.672c-.288-.256-.448-.592-.448-1.088V21.56a1.79 1.79 0 0 0-1.424-1.76c.96-.256 1.376-.912 1.376-1.776v-1.152c0-1.536-1.04-2.528-2.768-2.528h-3.84V25h2.288v-4.352h1.232c.656 0 .944.48.944 1.04v1.744c0 .992.352 1.632 1.28 1.632h1.36zm-2.704-6.944c0 .64-.32.944-.912.944h-1.2v-2.928h1.296c.592 0 .816.336.816.864v1.12zM79.892 25v-2h-3.648v-2.672h2.512V18.6h-2.512v-2.336h3.648v-1.92h-5.936V25h5.936zm9.085 0v-5.472h-3.424v1.568H86.8V22.2c0 .576-.416 1.136-1.264 1.136-.816 0-1.248-.56-1.248-1.136v-5.056c0-.592.4-1.136 1.232-1.136.848 0 1.2.512 1.2 1.104v.864h2.208v-.8c0-1.664-1.152-3.088-3.424-3.088s-3.536 1.504-3.536 3.088v4.992c0 1.648 1.072 3.104 3.184 3.104 1.008 0 1.872-.448 2.288-1.248l.288.976h1.248zm9.185 0l-2.48-10.656h-2.56L90.626 25h2.144l.448-2.112h2.208L95.874 25h2.288zm-3.04-3.808h-1.568l.816-3.888.752 3.888zM105.78 25v-1.968h-3.504v-8.688h-2.288V25h5.792zm8.867 0l-2.48-10.656h-2.56L107.1 25h2.144l.448-2.112h2.208l.45 2.112h2.288zm-3.04-3.808h-1.568l.816-3.888.752 3.888zM125.927 25V14.344h-3.056l-1.264 5.424-.4 1.872-.384-1.872-1.28-5.424h-3.072V25h2.048v-7.552l.512 2.416L120.247 25h1.712l1.28-5.136.528-2.416V25h2.16z"/><use xlink:href="#B"/><path d="M144.264 22.04c0-1.552-1.04-2.384-2.528-3.2-1.36-.704-1.968-1.12-1.968-1.872 0-.64.432-1.056 1.104-1.056.8 0 1.2.56 1.2 1.28v.336h2.064v-.432c0-1.696-1.296-3.008-3.248-3.008-2.176 0-3.344 1.472-3.344 3.104s1.36 2.48 2.64 3.168c1.232.64 1.84 1.104 1.84 1.872 0 .736-.4 1.2-1.216 1.2-.832 0-1.28-.48-1.28-1.376v-.352h-2.096v.544c0 1.824 1.328 3.024 3.424 3.024 2.128 0 3.408-1.504 3.408-3.232zm12.884.24v-7.936h-2.224v7.904c0 .72-.432 1.12-1.2 1.12-.752 0-1.168-.4-1.168-1.12v-7.904h-2.32v7.936c0 1.776 1.472 2.992 3.488 2.992 2.032 0 3.424-1.216 3.424-2.992zM166.8 25V14.344h-2.064v6.112l-.864-1.744-2.288-4.368H159.7V25h2.096v-6.016l.912 1.744L165.05 25h1.76zm12.935-6.576v-1.44c0-1.6-.944-2.64-2.736-2.64h-3.856V25h2.288v-3.952H177c1.792 0 2.736-1.04 2.736-2.624zm-2.192.032c0 .576-.224.896-.816.896h-1.296v-3.216h1.296c.592 0 .816.32.816.896v1.424zM187.716 25v-1.968h-3.504v-8.688h-2.288V25h5.792zm8.868 0l-2.48-10.656h-2.56L189.048 25h2.144l.448-2.112h2.208l.448 2.112h2.288zm-3.04-3.808h-1.568l.816-3.888.752 3.888zM205.53 25V14.344h-2.064v6.112l-.864-1.744-2.288-4.368H198.4V25h2.096v-6.016l.912 1.744L203.77 25h1.76zM53.806 43v-2h-3.648v-2.672h2.512V36.6h-2.512v-2.336h3.648v-1.92H47.87V43h5.936zm9.26 0l-2.512-5.536 2.48-5.12h-2.256L59.3 35.912l-1.36-3.568h-2.4l2.4 5.248L55.37 43h2.24l1.584-3.664L60.65 43h2.416zm8.494-2.832v-1.04h-2.048v.992c0 .736-.432 1.216-1.28 1.216s-1.28-.496-1.28-1.168v-4.976c0-.688.432-1.184 1.28-1.184s1.28.48 1.28 1.216v.992h2.048v-1.04c0-1.776-1.136-3.104-3.36-3.104-2.256 0-3.568 1.456-3.568 3.296v4.608c0 1.84 1.312 3.296 3.568 3.296 2.224 0 3.36-1.328 3.36-3.104zM79.6 43v-1.968h-3.504v-8.688h-2.288V43H79.6zm8.744-2.72v-7.936H86.12v7.904c0 .72-.432 1.12-1.2 1.12-.752 0-1.168-.4-1.168-1.12v-7.904h-2.32v7.936c0 1.776 1.472 2.992 3.488 2.992 2.032 0 3.424-1.216 3.424-2.992zm9.036-.24c0-1.552-1.04-2.384-2.528-3.2-1.36-.704-1.968-1.12-1.968-1.872 0-.64.432-1.056 1.104-1.056.8 0 1.2.56 1.2 1.28v.336h2.064v-.432c0-1.696-1.296-3.008-3.248-3.008-2.176 0-3.344 1.472-3.344 3.104s1.36 2.48 2.64 3.168c1.232.64 1.84 1.104 1.84 1.872 0 .736-.4 1.2-1.216 1.2-.832 0-1.28-.48-1.28-1.376v-.352H90.55v.544c0 1.824 1.328 3.024 3.424 3.024 2.128 0 3.408-1.504 3.408-3.232zm4.496 2.96V32.344h-2.288V43h2.288zm9.58-10.656h-2.24l-1.552 7.248-1.552-7.248h-2.352L106.496 43h2.176l2.784-10.656z"/><use xlink:href="#B" x="-15.368" y="18"/><use xlink:href="#C"/><use xlink:href="#B" x="6.508" y="18"/><use xlink:href="#D"/><use xlink:href="#C" x="30.969"/><path d="M172.232 43l-2.48-10.656h-2.56L164.696 43h2.144l.448-2.112h2.208l.448 2.112h2.288zm-3.04-3.808h-1.568l.816-3.888.752 3.888z"/><use xlink:href="#D" x="29.78"/><path d="M189.967 43l-2.48-10.656h-2.56L182.43 43h2.144l.448-2.112h2.208l.45 2.112h2.288zm-3.04-3.808h-1.568l.816-3.888.752 3.888zm14.933-4.896v-1.952h-6.88v1.952h2.304V43h2.288v-8.704h2.288zM206.1 43V32.344h-2.288V43h2.288z"/></g><g fill="#e92070"><path d="M77.518 115.204v-2.756H75.88v-10.764h-2.912l-6.604 11.128v2.392h6.37V119h3.146v-3.796h1.638zm-4.784-2.756h-3.172l3.172-5.46v5.46zm16.926 1.976v-8.138c0-3.016-2.054-5.018-5.33-5.018-3.302 0-5.33 2.002-5.33 5.018v8.138c0 3 2.028 5.018 5.33 5.018 3.276 0 5.33-2.028 5.33-5.018zm-3.38.182c0 .962-.702 1.742-1.95 1.742-1.222 0-1.95-.78-1.95-1.742v-8.528c0-.962.728-1.742 1.95-1.742 1.248 0 1.95.78 1.95 1.742v8.528z"/><use xlink:href="#E"/><path d="M113.698 119v-17.316h-3.718V119h3.718z"/><use xlink:href="#E" x="19.678"/><path d="M140.734 119l-4.03-17.316h-4.16L128.488 119h3.484l.728-3.432h3.588l.728 3.432h3.718zm-4.94-6.188h-2.548l1.326-6.318 1.222 6.318zm16.786 1.388c0-2.522-1.7-3.874-4.108-5.2-2.2-1.144-3.198-1.82-3.198-3.042 0-1.04.702-1.716 1.794-1.716 1.3 0 1.95.9 1.95 2.08v.546h3.354v-.702c0-2.756-2.106-4.888-5.278-4.888-3.536 0-5.434 2.392-5.434 5.044s2.2 4.03 4.3 5.148c2.002 1.04 3 1.794 3 3.042 0 1.196-.65 1.95-1.976 1.95-1.352 0-2.08-.78-2.08-2.236v-.572h-3.406v.884c0 2.964 2.158 4.914 5.564 4.914 3.458 0 5.538-2.444 5.538-5.252z"/></g><path d="M30.74 111.2v-1.7c0-1.9-1.12-3.135-3.25-3.135H22.9V119h2.717v-4.693h1.862c2.128 0 3.25-1.235 3.25-3.116zm-2.603.038c0 .684-.266 1.064-.97 1.064h-1.54v-3.82h1.54c.703 0 .97.38.97 1.064v1.7zM39.03 119v-2.337h-4.16v-10.317h-2.717V119h6.878zm9.343 0l-2.945-12.654h-3.04L39.424 119h2.546l.532-2.508h2.622l.532 2.508h2.717zm-3.6-4.522H42.9l.97-4.617.893 4.617zM57.807 119v-12.654h-2.45v7.258l-1.026-2.07-2.717-5.187h-2.26V119h2.5v-7.144l1.083 2.07 2.8 5.074h2.1z" fill="#4f008c"/><path d="M235.5 111h.5v-1h-.5v1zm-68.354-.854a.5.5 0 0 0 0 .708l3.182 3.182a.5.5 0 1 0 .708-.708l-2.83-2.828 2.83-2.828a.5.5 0 1 0-.708-.708l-3.182 3.182zM235.5 110h-68v1h68v-1z" fill="#ff2083"/><g fill="#e92070"><path d="M40.406 79V68.056h-6.848v3.136h2.496V73.4c0 1.152-.832 2.272-2.528 2.272-1.632 0-2.496-1.12-2.496-2.272V63.288c0-1.184.8-2.272 2.464-2.272 1.696 0 2.4 1.024 2.4 2.208v1.728H40.3v-1.6c0-3.328-2.304-6.176-6.848-6.176S26.4 60.184 26.4 63.352v9.984c0 3.296 2.144 6.208 6.368 6.208 2.016 0 3.744-.896 4.576-2.496L37.9 79h2.496zm16.947.128v-1.344c-.576-.512-.896-1.184-.896-2.176V72.12c0-1.472-.928-3.072-2.848-3.52 1.92-.512 2.752-1.824 2.752-3.552v-2.304c0-3.072-2.08-5.056-5.536-5.056h-7.68V79h4.576v-8.704h2.464c1.312 0 1.888.96 1.888 2.08v3.488c0 1.984.704 3.264 2.56 3.264h2.72zM51.945 65.24c0 1.28-.64 1.888-1.824 1.888h-2.4v-5.856h2.592c1.184 0 1.632.672 1.632 1.728v2.24zM72.965 79l-4.96-21.312h-5.12L57.893 79h4.288l.896-4.224h4.416L68.4 79h4.576zm-6.08-7.616H63.75l1.632-7.776 1.504 7.776zm19.275-9.792v-3.904H72.4v3.904h4.608V79h4.576V61.592h4.576zM92.66 79V57.688h-4.576V79h4.576zm16.102-5.92c0-3.104-2.08-4.768-5.056-6.4-2.72-1.408-3.936-2.24-3.936-3.744 0-1.28.864-2.112 2.208-2.112 1.6 0 2.4 1.12 2.4 2.56v.672h4.128v-.864c0-3.392-2.592-6.016-6.496-6.016-4.352 0-6.688 2.944-6.688 6.208s2.72 4.96 5.28 6.336c2.464 1.28 3.68 2.208 3.68 3.744 0 1.472-.8 2.4-2.432 2.4-1.664 0-2.56-.96-2.56-2.752v-.704h-4.192v1.088c0 3.648 2.656 6.048 6.848 6.048 4.256 0 6.816-3.008 6.816-6.464zm21.16-7.232v-2.88c0-3.2-1.888-5.28-5.472-5.28h-7.712V79h4.576v-7.904h3.136c3.584 0 5.472-2.08 5.472-5.248zm-4.384.064c0 1.152-.448 1.792-1.632 1.792h-2.592v-6.432h2.592c1.184 0 1.632.64 1.632 1.792v2.848z"/><use xlink:href="#F"/><path d="M163.135 79.128v-1.344c-.576-.512-.896-1.184-.896-2.176V72.12c0-1.472-.928-3.072-2.848-3.52 1.92-.512 2.752-1.824 2.752-3.552v-2.304c0-3.072-2.08-5.056-5.536-5.056h-7.68V79h4.576v-8.704h2.464c1.312 0 1.888.96 1.888 2.08v3.488c0 1.984.704 3.264 2.56 3.264h2.72zm-5.408-13.888c0 1.28-.64 1.888-1.824 1.888h-2.4v-5.856h2.592c1.184 0 1.632.672 1.632 1.728v2.24zM175.733 79V57.688h-2.336c0 .992-.48 1.92-1.888 1.92V79h4.224zm23.107 0l-4.96-21.312h-5.12L183.768 79h4.288l.896-4.224h4.416l.896 4.224h4.576zm-6.08-7.616h-3.136l1.632-7.776 1.504 7.776zM214.73 79V57.688h-4.13v12.224l-1.728-3.488-4.576-8.736h-3.808V79h4.192V66.968l1.824 3.488L211.2 79h3.52zm-2.496-25.824c0-.576-.192-1.024-.48-1.44h-1.472v.768c0 .512-.224.8-.768.8-.928 0-2.368-1.6-4.128-1.6-1.824 0-2.656 1.12-2.656 2.72 0 .576.16.992.48 1.408h1.472v-.768c0-.48.224-.8.736-.8.96 0 2.4 1.632 4.128 1.632 1.856 0 2.688-1.12 2.688-2.72z"/><use xlink:href="#F" x="85.531"/><path d="M176 57v22h-4.2V63.17c-1.742.978-3.338 1.655-4.8 1.956v-3.16c3.41-.753 5.734-2.408 7.113-4.967H176z"/></g><g fill="#4f008c"><path d="M28.717 136.56c0-1.44-.795-2.805-2.985-2.805-1.905 0-2.82 1.32-2.82 2.685v.9h1.785v-.7c0-.75.315-1.2 1.08-1.2.705 0 1.065.405 1.065 1.125s-.48 1.38-1.77 2.43c-1.9 1.56-2.355 2.745-2.355 4.395v.6h5.925v-1.77h-3.72c0-.57.27-1.275 1.335-2.07 1.77-1.365 2.46-2.385 2.46-3.6z"/><use xlink:href="#G"/><use xlink:href="#G" x="7.442"/><use xlink:href="#G" x="14.884"/><path d="M63.683 144v-10h-2.865l-1.185 5.085-.375 1.755-.36-1.755-1.2-5.085h-2.88v10h1.92v-7.08l.48 2.265 1.14 4.815h1.605l1.2-4.815.495-2.265V144h2.025zm3.577 0v-10h-2.145v10h2.145zm8.134 0v-10H73.46v5.73l-.8-1.635L70.504 134H68.72v10h1.965v-5.64l.855 1.635L73.744 144h1.65zm7.92-2.55V134H81.23v7.4c0 .675-.405 1.05-1.125 1.05-.705 0-1.095-.375-1.095-1.05V134h-2.175v7.44c0 1.665 1.38 2.805 3.27 2.805 1.905 0 3.2-1.14 3.2-2.805zm7.34-5.6V134h-6.45v1.83h2.16V144h2.145v-8.16h2.145zm7.25 5.355v-4.38c0-1.77-1.215-3.045-3.285-3.045-2.055 0-3.285 1.275-3.285 3.045v4.38c0 1.785 1.23 3.06 3.285 3.06 2.07 0 3.285-1.275 3.285-3.06zm-2.16.12c0 .675-.405 1.125-1.125 1.125-.705 0-1.1-.45-1.1-1.125v-4.62c0-.675.405-1.125 1.1-1.125.72 0 1.125.45 1.125 1.125v4.62zm9.578-.1c0-1.455-.975-2.235-2.37-3-1.275-.66-1.845-1.05-1.845-1.755 0-.6.405-1 1.035-1 .75 0 1.125.525 1.125 1.2v.315h1.935v-.405c0-1.6-1.215-2.82-3.045-2.82-2.04 0-3.135 1.38-3.135 2.9s1.275 2.325 2.475 2.97c1.155.6 1.725 1.035 1.725 1.755 0 .7-.375 1.125-1.14 1.125-.78 0-1.2-.45-1.2-1.3v-.33h-1.965v.5c0 1.7 1.245 2.835 3.2 2.835 1.995 0 3.195-1.4 3.195-3.03zM142.826 146v-15.984h-3.432V146h3.432zm11.022 0v-2.952h-5.256v-13.032h-3.432V146h8.688zm4.892 0v-15.984h-3.432V146h3.432zm16.518 0v-15.984h-4.584l-1.896 8.136-.6 2.808-.576-2.808-1.92-8.136h-4.608V146h3.072v-11.328l.768 3.624 1.824 7.704h2.568l1.92-7.704.792-3.624V146h3.24zm5.724 0v-15.984h-3.432V146h3.432zm11.766-13.056v-2.928h-10.32v2.928h3.456V146h3.432v-13.056h3.432zM203.64 146l-3.72-15.984h-3.84L192.337 146h3.216l.672-3.168h3.312l.672 3.168h3.432zm-4.56-5.712h-2.352l1.224-5.832 1.128 5.832zm16.214 1.104v-6.576c0-2.664-1.776-4.8-5.088-4.8h-5.328V146h5.328c3.312 0 5.088-1.92 5.088-4.608zm-3.432-.264c0 1.272-.6 2.016-1.92 2.016H208.3v-10.272h1.632c1.32 0 1.92.744 1.92 2.016v6.24zm15.923.384v-7.008c0-2.832-1.944-4.872-5.256-4.872-3.288 0-5.256 2.04-5.256 4.872v7.008c0 2.856 1.968 4.896 5.256 4.896 3.312 0 5.256-2.04 5.256-4.896zm-3.456.192c0 1.08-.648 1.8-1.8 1.8-1.128 0-1.776-.72-1.776-1.8v-7.392c0-1.08.648-1.8 1.776-1.8 1.152 0 1.8.72 1.8 1.8v7.392z"/></g><path d="M114.772 139.32v-1.872h-2.344V135h-1.85v2.447h-2.345v1.872h2.345v2.447h1.85v-2.447h2.344z" fill="#e92070"/><g fill-rule="evenodd"><path d="M123.533 144.6l.3.167c1.234.767 2.667 1.233 4.167 1.233 4.366 0 8-3.633 8-8.067S132.366 130 127.966 130 120 133.533 120 137.933c0 1.534.433 3.034 1.233 4.3l.2.3-.766 2.8 2.866-.733z" fill="#00a655"/><path d="M125.4 133.467l-.634-.034c-.2 0-.4.067-.533.2-.3.267-.8.767-.933 1.434-.234 1 .133 2.2 1 3.4s2.533 3.133 5.466 3.966c.934.267 1.667.1 2.267-.266.467-.3.767-.767.867-1.267l.1-.466c.033-.134-.033-.3-.167-.367l-2.1-.967a.32.32 0 0 0-.4.1l-.833 1.067a.26.26 0 0 1-.267.066c-.566-.2-2.467-1-3.5-3-.033-.1-.033-.2.034-.267l.8-.9c.066-.1.1-.233.066-.334l-.967-2.166a.29.29 0 0 0-.266-.2" fill="#fefefe"/></g><path fill="#4f008c" d="M23 152h206v40H23z"/><path d="M92.994 172.698a7.7 7.7 0 0 1-7.698 7.698c-4.24 0-7.698-3.438-7.698-7.698 0-4.24 3.44-7.698 7.698-7.698 4.24 0 7.698 3.46 7.698 7.698z" fill="#0076f4"/><path d="M86.995 169.24h.977v-1.642c-.176-.018-.742-.078-1.426-.078-1.426 0-2.384.86-2.384 2.423v1.35H82.56v1.836h1.602v4.71h1.915v-4.71h1.602l.234-1.836h-1.837v-1.173c0-.508.137-.88.918-.88z" fill="#fff"/><use xlink:href="#H" fill="#00a8f2"/><path d="M112.208 171.272c-.058 3.01-1.973 5.1-4.885 5.217-1.19.058-2.05-.332-2.852-.782.86.137 1.992-.194 2.58-.723-.86-.058-1.387-.527-1.66-1.25.274.06.528 0 .723 0-.8-.254-1.33-.723-1.387-1.76.195.137.47.196.723.196-.586-.332-.996-1.583-.528-2.365.86.92 1.915 1.7 3.635 1.838-.47-1.838 2.052-2.814 3.048-1.564.468-.058.8-.254 1.133-.39-.137.45-.39.723-.723.977.332-.058.664-.137.918-.254-.058.333-.39.606-.723.86z" fill="#fff"/><use xlink:href="#H" x="-46.793" fill="#fdf700"/><path d="M57.912 174.71c.273-.04.528-.137.762-.293.195-.117.37-.274.528-.47.274-.313.4-.626.43-.664v-.02c.078-.137.078-.254.04-.352-.078-.195-.332-.274-.528-.332l-.04-.02c-.04 0-.06-.02-.078-.04-.137-.06-.215-.097-.274-.156-.078-.078-.098-.137-.078-.196s.06-.117.137-.155c.098-.06.215-.08.293-.04.254.117.45.157.586.078.04-.02.06-.058.06-.097 0-.06-.02-.117-.02-.196v-.02c-.04-.547-.078-1.23.098-1.62.137-.273.293-.508.488-.703.176-.156.352-.293.586-.372.39-.175.742-.195.918-.195h.156c.176 0 .528.02.918.195a2.34 2.34 0 0 1 .586.372c.195.195.37.4.488.703.176.39.137 1.074.098 1.603v.038c0 .04-.02.08-.02.117v.06c0 .04.02.08.06.097a.36.36 0 0 0 .156.04h.02c.117 0 .234-.04.39-.098.06-.02.098-.02.137-.02.06 0 .098.02.156.04.117.038.195.137.195.214 0 .04-.02.08-.078.137s-.156.117-.293.176c-.02.02-.06.02-.078.02l-.04.02c-.176.058-.43.136-.528.33-.04.098-.04.216.04.372v.02c.098.214.625 1.25 1.72 1.426.04.02.078.038.078.097v.04c-.04.077-.098.136-.234.194a2.61 2.61 0 0 1-.782.196c-.04.02-.06.04-.078.06-.02.038-.04.097-.06.195l-.02.06c-.02.04-.02.097-.04.137-.02.058-.06.077-.117.077-.04 0-.078 0-.176-.02-.117-.02-.274-.058-.45-.058-.117 0-.215 0-.332.04-.215.038-.43.175-.645.312-.293.196-.606.43-1.094.43h-.098c-.488 0-.8-.234-1.114-.43-.195-.137-.39-.274-.625-.312-.098-.02-.215-.04-.332-.04-.195 0-.332.04-.45.058h-.02c-.06.02-.117.02-.176.02s-.098-.02-.137-.077l-.078-.176-.02-.04-.06-.195c-.02-.04-.04-.06-.078-.06a5.35 5.35 0 0 1-.801-.194c-.117-.06-.195-.118-.234-.176-.02-.02-.02-.04-.02-.04v-.04c.137-.02.156-.038.195-.058z" fill="#fff" stroke="#201712" stroke-width=".222"/><path d="M38.6 180.2c4.198 0 7.6-3.404 7.6-7.6a7.6 7.6 0 1 0-15.201 0c0 4.197 3.403 7.6 7.6 7.6z" fill="url(#A)"/><g fill="#fff"><path d="M36.626 168.262h3.927c1.348 0 2.423 1.076 2.423 2.404v3.888c0 1.3-1.094 2.383-2.423 2.383h-3.927c-1.33-.018-2.423-1.074-2.423-2.403v-3.888c0-1.308 1.094-2.384 2.423-2.384zm3.93 7.914c.9 0 1.64-.723 1.64-1.622v-3.888c0-.9-.742-1.622-1.64-1.622H36.63c-.9 0-1.64.722-1.64 1.622v3.888c0 .9.742 1.622 1.64 1.622h3.927zm-4.22-3.576c0-1.23 1.016-2.228 2.266-2.228a2.26 2.26 0 0 1 2.267 2.228c0 1.23-1.016 2.227-2.267 2.227s-2.266-.996-2.266-2.227zm.78 0a1.48 1.48 0 0 0 1.485 1.465 1.48 1.48 0 0 0 1.485-1.465 1.48 1.48 0 0 0-1.485-1.465 1.48 1.48 0 0 0-1.485 1.465z" fill-rule="evenodd"/><path d="M40.944 169.708a.63.63 0 0 0-.41.157.6.6 0 0 0-.176.39.5.5 0 0 0 .176.392.59.59 0 0 0 .4.155c.146 0 .293-.058.4-.155.098-.1.176-.255.176-.392a.49.49 0 0 0-.176-.39.63.63 0 0 0-.41-.157zM137.3 174v-3.92h-6.12v-9.4h-5.48V174h11.6zm10.32 0v-13.32h-5.48V174h5.48zm18.096-3.28v-.5c0-1.42-.78-2.52-2.84-2.92 1.98-.38 2.8-1.64 2.8-2.92V164c0-1.88-1.34-3.32-4.46-3.32h-8.2V174h8.32c3.1 0 4.38-1.44 4.38-3.28zm-5.34-5.2c0 .54-.32.76-1.02.76h-.84v-2.2h.84c.7 0 1.02.22 1.02.74v.7zm0 4.36c0 .54-.32.76-1.02.76h-.84v-2.2h.84c.7 0 1.02.22 1.02.76v.68zm23.63 4.12v-.14a3.69 3.69 0 0 1-.6-2.08v-1.7c0-1.22-.6-2.3-2.36-2.52 1.62-.36 2.44-1.42 2.44-2.7v-.8c0-1.98-1.72-3.38-4.72-3.38h-8.04V174h5.48v-4.86h.84c.82 0 1 .44 1 1.14v1.66c0 1.08.54 2.06 1.22 2.06h4.74zm-5.94-8.24c0 .58-.3.88-1.02.88h-.84v-2.52h.84c.72 0 1.02.22 1.02.8v.84zm22.305 8.24v-3.94h-6.16v-1.64h3.88V166h-3.88v-1.64h6.16v-3.68h-11.66V174h11.66zm17.535-4.12c0-4.38-7.5-4.12-7.5-5.5 0-.44.44-.64 1.1-.64 1.06 0 2.64.58 4.04 1.48l2.36-2.6c-1.3-1.22-3.36-2.36-6.56-2.36-3.98 0-5.98 2-5.98 4.38 0 4.4 7.34 4.28 7.34 5.66 0 .46-.42.64-1.3.64-1.22 0-3.14-.76-4.6-1.9l-2.32 2.94c1.54 1.4 4.16 2.44 7.06 2.44 4.24 0 6.36-1.98 6.36-4.54zM129.6 184v-1.375h-2.5v-1.837h1.727V179.6H127.1v-1.606h2.508v-1.32h-4.08V184h4.08zm5.483 0v-7.326h-1.42v4.202l-.594-1.2-1.573-3.003h-1.3V184h1.44v-4.136l.627 1.2L133.88 184h1.2z"/><use xlink:href="#I"/><use xlink:href="#J"/><path d="M152.33 181.888v-3.014c0-1.22-.814-2.2-2.332-2.2h-2.442V184h2.442c1.518 0 2.332-.88 2.332-2.112zm-1.573-.12c0 .583-.275.924-.88.924h-.748v-4.708h.748c.605 0 .88.34.88.924v2.86zm8.313.626v-1.166h-.693v-4.554h-1.232l-2.794 4.708v1.012h2.695V184h1.33v-1.606h.693zm-2.024-1.166h-1.342l1.342-2.3v2.3z"/><path d="M164.245 184v-3.762h-2.354v1.078h.858v.76c0 .396-.286.78-.87.78-.56 0-.858-.385-.858-.78V178.6c0-.407.275-.78.847-.78.583 0 .825.352.825.76v.594h1.518v-.55c0-1.144-.792-2.123-2.354-2.123s-2.43 1.034-2.43 2.123v3.432c0 1.133.737 2.134 2.19 2.134.693 0 1.287-.308 1.573-.858l.198.67h.858z"/><use xlink:href="#K"/><path d="M176.03 184l-1.705-7.326h-1.76L170.85 184h1.474l.308-1.452h1.518l.308 1.452h1.573zm-2.1-2.618h-1.078l.56-2.673.517 2.673z"/><use xlink:href="#I" x="38.774"/><path d="M186.347 184l-1.705-7.326h-1.76L181.166 184h1.474l.308-1.452h1.518l.308 1.452h1.573zm-2.1-2.618h-1.078l.56-2.673.517 2.673zm8.545.583c0-1.067-.715-1.64-1.738-2.2-.935-.484-1.353-.77-1.353-1.287 0-.44.297-.726.76-.726.55 0 .825.385.825.88v.23h1.42v-.297c0-1.166-.9-2.068-2.233-2.068-1.496 0-2.3 1.012-2.3 2.134s.935 1.705 1.815 2.178c.847.44 1.265.76 1.265 1.287 0 .506-.275.825-.836.825-.572 0-.88-.33-.88-.946v-.242h-1.44v.374c0 1.254.913 2.08 2.354 2.08 1.463 0 2.343-1.034 2.343-2.222zm2.153 2.035v-7.326h-1.573V184h1.573z"/><use xlink:href="#J" x="52.878"/><path d="M206.935 184v-7.326h-2.1l-.87 3.73-.275 1.287-.264-1.287-.88-3.73h-2.112V184h1.408v-5.192l.352 1.66.836 3.53h1.177l.88-3.53.363-1.66V184h1.485z"/><use xlink:href="#K" x="41.138"/><use xlink:href="#I" x="75.264"/><use xlink:href="#J" x="75.263"/></g><g fill="#4d008c"><path d="M48.742 213.776v-2.096c0-1.536-1.04-2.336-2.32-2.336h-3.488V220h2.464v-3.872h1.024c1.28 0 2.32-.816 2.32-2.352zm-2.304.064c0 .352-.16.512-.432.512h-.608v-3.072h.608c.272 0 .432.144.432.512v2.048z"/><use xlink:href="#L"/><path d="M63.587 220v-2.176h-2.752v-2.368h1.792v-1.84h-1.792v-2.208h2.752v-2.064H58.37V220h5.216z"/><use xlink:href="#M"/><path d="M75.632 220v-10.656h-2.464V220h2.464zm8.1-2.544v-5.568c0-1.648-1.344-2.768-3.072-2.768-1.744 0-3.088 1.12-3.088 2.768v5.568c0 1.664 1.344 2.784 3.088 2.784 1.728 0 3.072-1.12 3.072-2.784zm-2.512.144c0 .336-.256.528-.56.528s-.576-.192-.576-.528v-5.856c0-.336.272-.528.576-.528s.56.192.56.528v5.856zm13.936 2.4v-.048c-.16-.512-.304-1.056-.304-1.728v-1.952c0-.56-.4-1.12-1.04-1.424.64-.304.992-.88.992-1.408v-1.856c0-1.44-1.168-2.24-2.368-2.24H88.98V220h2.464v-4.208h.56c.352 0 .528.336.528.608v1.952c0 .72.192 1.648.576 1.648h2.048zm-2.688-6.48c0 .368-.144.512-.416.512h-.608v-2.752h.608c.272 0 .416.144.416.512v1.728zm9.556 6.48v-2.176h-2.752v-2.368h1.792v-1.84h-1.792v-2.208h2.752v-2.064H96.8V220h5.216zm6.887-8.688v-1.968h-5.056V220h2.464v-4.384h1.792v-1.968h-1.792v-2.336h2.592zM115.8 220v-2.176h-2.752v-2.368h1.792v-1.84h-1.792v-2.208h2.752v-2.064h-5.216V220h5.216z"/><use xlink:href="#L" x="67.077"/><path d="M130.665 220v-2.176h-2.752v-2.368h1.792v-1.84h-1.792v-2.208h2.752v-2.064h-5.216V220h5.216zm8.15 0v-10.656h-2.16v5.488l-.576-1.52-1.408-3.968h-2.176V220h2.176v-5.424l.608 1.504 1.504 3.92h2.032z"/><use xlink:href="#M" x="75.468"/><path d="M151.1 220v-10.656h-2.464V220h2.464zm8.037 0l-1.824-10.656h-2.848L152.6 220h2.224l.224-1.6h1.456l.16 1.6h2.464zm-2.848-3.424h-.96l.544-3.872.416 3.872zm9.82-7.376c-1.44.32-2.16 1.584-2.16 2.912 0 1.456 1.088 2.512 2.016 3.312 1.168.992 1.408 1.408 1.408 2.08 0 .608-.256.816-.736.816s-.768-.272-.768-.832v-.784h-1.984v.768c0 1.504.816 2.48 2.224 2.704v1.104h1.344v-1.104c1.376-.288 2.192-1.504 2.192-2.928 0-1.504-1.072-2.512-2.032-3.392-.864-.816-1.408-1.2-1.408-2.08 0-.56.368-.736.704-.736.32 0 .608.208.608.736v.784h2v-.688c0-1.36-.832-2.448-2.064-2.688v-1.12H166.1v1.136zm21 10.8v-2.256h-1.792V220h1.792z"/><use xlink:href="#N"/><use xlink:href="#N" x="7.671"/><path d="M210.067 217.472v-5.584c0-1.664-1.104-2.768-2.848-2.768-1.728 0-2.848 1.104-2.848 2.768v5.584c0 1.648 1.12 2.768 2.848 2.768 1.744 0 2.848-1.12 2.848-2.768zm-2.24.112c0 .32-.208.56-.608.56-.384 0-.608-.24-.608-.56v-5.824c0-.32.224-.544.608-.544.4 0 .608.224.608.544v5.824z"/></g><path d="M177 209v11h-2.34v-7.983c-.967.478-1.855.8-2.66.956v-1.545c1.895-.368 3.185-1.177 3.952-2.428H177zm6 0v11h-2.34v-7.983c-.967.478-1.855.8-2.66.956v-1.545c1.895-.368 3.185-1.177 3.952-2.428H183z" fill="#4f008c"/><path d="M17 219v22.5h218.5V219" stroke="#e92070"/><defs><radialGradient id="A" cx="0" cy="0" r="1" gradientUnits="userSpaceOnUse" gradientTransform="translate(35.4116 180.171) scale(15.341 15.3408)"><stop stop-color="#f9d173"/><stop offset=".246" stop-color="#ec9f55"/><stop offset=".379" stop-color="#ea5c3c"/><stop offset=".7" stop-color="#bc3082"/><stop offset=".972" stop-color="#6068ab"/><stop offset=".985" stop-color="#5c6bad"/></radialGradient><path id="B" d="M135.352 22.008v-4.672c0-1.888-1.296-3.248-3.504-3.248-2.192 0-3.504 1.36-3.504 3.248v4.672c0 1.904 1.312 3.264 3.504 3.264 2.208 0 3.504-1.36 3.504-3.264zm-2.304.128c0 .72-.432 1.2-1.2 1.2-.752 0-1.184-.48-1.184-1.2v-4.928c0-.72.432-1.2 1.184-1.2.768 0 1.2.48 1.2 1.2v4.928z"/><path id="C" d="M132.774 36.424v-1.44c0-1.6-.944-2.64-2.736-2.64h-3.856V43h2.288v-3.952h1.568c1.792 0 2.736-1.04 2.736-2.624zm-2.192.032c0 .576-.224.896-.816.896h-1.296v-3.216h1.296c.592 0 .816.32.816.896v1.424z"/><path id="D" d="M151.38 43.064v-.672c-.288-.256-.448-.592-.448-1.088V39.56a1.79 1.79 0 0 0-1.424-1.76c.96-.256 1.376-.912 1.376-1.776v-1.152c0-1.536-1.04-2.528-2.768-2.528h-3.84V43h2.288v-4.352h1.232c.656 0 .944.48.944 1.04v1.744c0 .992.352 1.632 1.28 1.632h1.36zm-2.704-6.944c0 .64-.32.944-.912.944h-1.2v-2.928h1.296c.592 0 .816.336.816.864v1.12z"/><path id="E" d="M107.755 119v-8.892h-5.564v2.548h2.028v1.794c0 .936-.676 1.846-2.054 1.846-1.326 0-2.028-.9-2.028-1.846v-8.216c0-.962.65-1.846 2.002-1.846 1.378 0 1.95.832 1.95 1.794v1.404h3.588v-1.3c0-2.704-1.872-5.018-5.564-5.018s-5.746 2.444-5.746 5.018v8.112c0 2.678 1.742 5.044 5.174 5.044 1.638 0 3.042-.728 3.718-2.028l.468 1.586h2.028z"/><path id="F" d="M146.094 73.016v-9.344c0-3.776-2.592-6.496-7.008-6.496-4.384 0-7.008 2.72-7.008 6.496v9.344c0 3.808 2.624 6.528 7.008 6.528 4.416 0 7.008-2.72 7.008-6.528zm-4.608.256c0 1.44-.864 2.4-2.4 2.4-1.504 0-2.368-.96-2.368-2.4v-9.856c0-1.44.864-2.4 2.368-2.4 1.536 0 2.4.96 2.4 2.4v9.856z"/><path id="G" d="M35.96 141.36v-4.695c0-1.74-1.185-2.895-3.075-2.895-1.905 0-3.075 1.155-3.075 2.895v4.695c0 1.725 1.17 2.895 3.075 2.895 1.9 0 3.075-1.17 3.075-2.895zm-1.95.105c0 .555-.405 1.005-1.125 1.005-.705 0-1.125-.45-1.125-1.005v-4.92c0-.555.42-1.005 1.125-1.005.72 0 1.125.45 1.125 1.005v4.92z"/><path id="H" d="M116.39 172.698a7.7 7.7 0 0 1-7.698 7.698c-4.24 0-7.698-3.438-7.698-7.698 0-4.24 3.44-7.698 7.698-7.698s7.698 3.46 7.698 7.698z"/><path id="I" d="M142.456 184.044v-.462c-.198-.176-.308-.407-.308-.748v-1.2a1.23 1.23 0 0 0-.979-1.21c.66-.176.946-.627.946-1.22v-.792c0-1.056-.715-1.738-1.903-1.738h-2.64V184h1.573v-2.992h.847c.45 0 .65.33.65.715v1.2c0 .682.242 1.122.88 1.122h.935zm-1.86-4.774c0 .44-.22.65-.627.65h-.825v-2.013h.89c.407 0 .56.23.56.594v.77z"/><path id="J" d="M146.967 184v-1.375h-2.508v-1.837h1.727V179.6h-1.727v-1.606h2.508v-1.32h-4.08V184h4.08z"/><path id="K" d="M171.13 179.48v-1c0-1.1-.65-1.815-1.88-1.815h-2.65V184h1.573v-2.717h1.078c1.232 0 1.88-.715 1.88-1.804zm-1.507.022c0 .396-.154.616-.56.616h-.89v-2.21h.89c.407 0 .56.22.56.616v.98z"/><path id="L" d="M56.72 220v-.048c-.16-.512-.304-1.056-.304-1.728v-1.952c0-.56-.4-1.12-1.04-1.424.64-.304.992-.88.992-1.408v-1.856c0-1.44-1.168-2.24-2.368-2.24h-3.456V220h2.464v-4.208h.56c.352 0 .528.336.528.608v1.952c0 .72.192 1.648.576 1.648h2.048zm-2.688-6.48c0 .368-.144.512-.416.512h-.608v-2.752h.608c.272 0 .416.144.416.512v1.728z"/><path id="M" d="M71.308 217.456v-1.408h-2.16v1.44c0 .368-.24.64-.688.64s-.672-.272-.672-.64v-5.632c0-.368.224-.64.672-.64s.688.272.688.64v1.44h2.16v-1.408c0-1.648-1.088-2.784-2.848-2.784-1.824 0-3.184 1.184-3.184 2.928v5.28c0 1.76 1.36 2.928 3.184 2.928 1.76 0 2.848-1.12 2.848-2.784z"/><path id="N" d="M194.676 217.456v-5.568c0-1.648-1.104-2.768-2.832-2.768-1.744 0-2.832 1.12-2.832 2.768v2.208c0 1.12.704 1.904 1.92 1.904.736 0 1.2-.352 1.52-.752v2.288c0 .384-.192.656-.752.656-.544 0-.72-.288-.72-.752v-.544h-1.968v.816c0 1.232.976 2.528 2.72 2.528 1.728 0 2.944-1.136 2.944-2.784zm-2.224-3.52c0 .304-.224.528-.608.528s-.608-.224-.608-.528v-2.24c0-.304.224-.544.608-.544s.608.24.608.544v2.24z"/></defs></svg>