<svg width="256" height="307" xmlns="http://www.w3.org/2000/svg"><defs><radialGradient cx="29.022%" cy="99.807%" fx="29.022%" fy="99.807%" r="100.922%" gradientTransform="matrix(.99999 0 0 1 0 0)" id="a"><stop stop-color="#F9D173" offset="0%"/><stop stop-color="#EC9F55" offset="24.63%"/><stop stop-color="#EA5C3C" offset="37.93%"/><stop stop-color="#BC3082" offset="69.95%"/><stop stop-color="#6068AB" offset="97.24%"/><stop stop-color="#5C6BAD" offset="98.52%"/></radialGradient></defs><g fill="none" fill-rule="evenodd"><rect fill="#FFF" width="256" height="307" rx="10"/><g fill-rule="nonzero"><path d="M44.084 180.617h-4.818a4.926 4.926 0 01-4.93-4.931v-20.748a4.926 4.926 0 014.93-4.93h4.818a4.926 4.926 0 014.93 4.93v20.767c0 2.708-2.203 4.912-4.93 4.912z" fill="#FF0081"/><path d="M43.039 172.343v2.895h-2.802v-2.932c-1.905-.411-3.324-1.55-4.202-3.193l2.167-1.606c.877 1.382 2.054 2.166 3.585 2.166 1.158 0 2.055-.448 2.055-1.401 0-.821-.766-1.214-1.83-1.643l-1.607-.598c-2.11-.784-3.53-2.11-3.53-4.127 0-1.961 1.401-3.361 3.362-3.847v-2.876h2.802V158c1.68.336 2.82 1.382 3.53 2.708l-2.13 1.606c-.765-1.12-1.606-1.606-2.726-1.606-.86 0-1.7.317-1.7 1.214 0 .766.635 1.12 1.588 1.494l1.774.616c2.371.878 3.604 2.204 3.604 4.165 0 2.278-1.662 3.772-3.94 4.145z" fill="#FFF"/></g><path d="M215 225h14c5.523 0 10 4.477 10 10v50c0 5.523-4.477 10-10 10H18c-5.523 0-10-4.477-10-10v-50c0-5.523 4.477-10 10-10h14" stroke="#FF0081"/><g fill-rule="nonzero"><path d="M35.403 286.18c1.07 0 1.97-.322 2.7-.967.73-.645 1.095-1.468 1.095-2.468 0-.96-.33-1.722-.99-2.287-.66-.566-1.445-.848-2.355-.848-.35 0-.725.04-1.125.12v-1.8h3.9v-1.83h-5.85v5.25h2.31c1.35 0 2.025.475 2.025 1.425 0 .47-.165.842-.495 1.117-.33.275-.755.413-1.275.413-.88 0-1.615-.455-2.205-1.365l-1.41.99c.34.7.832 1.25 1.477 1.65.645.4 1.378.6 2.198.6zm6.585 0c.4 0 .73-.133.99-.397.26-.265.39-.598.39-.998 0-.39-.133-.72-.398-.99a1.322 1.322 0 00-.982-.405c-.4 0-.735.135-1.005.405-.27.27-.405.6-.405.99 0 .4.135.732.405.998.27.265.605.397 1.005.397zm6.12-.18l2.46-3.42c.49-.67.834-1.215 1.034-1.635.22-.43.33-.92.33-1.47 0-1.01-.36-1.855-1.08-2.535a3.609 3.609 0 00-2.565-1.02c-.97-.02-1.822.32-2.557 1.02-.735.7-1.093 1.54-1.073 2.52-.02.93.31 1.727.99 2.392.68.665 1.44.988 2.28.968h.075L45.707 286h2.4zm.18-4.875c-.45 0-.835-.16-1.155-.48a1.61 1.61 0 01-.48-1.185c0-.48.16-.88.48-1.2.32-.32.705-.48 1.155-.48.46 0 .847.163 1.162.488.315.325.473.722.473 1.192s-.16.865-.48 1.185c-.31.32-.696.48-1.155.48zm8.25 4.875l2.46-3.42c.49-.67.835-1.215 1.035-1.635.22-.43.33-.92.33-1.47 0-1.01-.36-1.855-1.08-2.535a3.609 3.609 0 00-2.566-1.02c-.97-.02-1.822.32-2.557 1.02-.735.7-1.093 1.54-1.073 2.52-.02.93.31 1.727.99 2.392.68.665 1.44.988 2.28.968h.075L54.137 286h2.4zm.18-4.875c-.45 0-.836-.16-1.156-.48a1.61 1.61 0 01-.48-1.185c0-.48.16-.88.48-1.2.32-.32.706-.48 1.156-.48.46 0 .847.163 1.162.488.315.325.472.722.472 1.192s-.16.865-.48 1.185c-.31.32-.694.48-1.154.48zm8.204 5.055c1.07 0 1.97-.322 2.7-.967.73-.645 1.096-1.468 1.096-2.468 0-.96-.33-1.722-.99-2.287-.66-.566-1.446-.848-2.355-.848-.35 0-.726.04-1.126.12v-1.8h3.9v-1.83h-5.85v5.25h2.31c1.35 0 2.026.475 2.026 1.425 0 .47-.165.842-.495 1.117-.33.275-.755.413-1.275.413-.88 0-1.615-.455-2.205-1.365l-1.41.99c.34.7.832 1.25 1.477 1.65.645.4 1.378.6 2.198.6zm11.836-.18v-5.28l2.49 3.12h.66l2.49-3.12V286h2.025v-10.08h-.66l-4.185 5.355-4.185-5.355h-.66V286h2.025zm16.785 0v-1.83h-4.816v-2.505h3.405v-1.725h-3.405v-2.01h4.635v-1.83h-6.66v9.9h6.84zm10.184.18V276.1h-2.025v5.91l-5.745-6.09h-.66V286h2.025v-5.94l5.73 6.12h.675zm5.4 0c1.01 0 1.84-.272 2.49-.817.65-.545.975-1.263.975-2.153 0-.66-.195-1.212-.585-1.657-.39-.445-1.01-.858-1.86-1.238l-1.125-.495c-.44-.2-.742-.378-.907-.533a.795.795 0 01-.248-.607c0-.3.115-.535.345-.705.23-.17.525-.255.885-.255.75 0 1.38.38 1.89 1.14l1.38-1.065a3.59 3.59 0 00-1.32-1.373c-.56-.335-1.21-.502-1.95-.502-.95 0-1.735.257-2.355.772-.62.515-.93 1.193-.93 2.033 0 1.19.8 2.14 2.4 2.85l1.065.48c.5.23.835.422 1.005.578.17.155.255.372.255.652 0 .34-.125.607-.375.802-.25.195-.595.293-1.035.293-.92 0-1.73-.48-2.43-1.44l-1.395 1.05c.39.68.918 1.215 1.583 1.605.665.39 1.412.585 2.242.585zm9.36 0c1.22 0 2.225-.39 3.015-1.17.79-.78 1.185-1.815 1.185-3.105V276.1h-2.025v5.955c0 .71-.197 1.262-.592 1.657-.395.395-.923.593-1.583.593-.65 0-1.175-.198-1.575-.593-.4-.395-.6-.947-.6-1.657V276.1h-2.025v5.805c0 1.29.393 2.325 1.178 3.105.785.78 1.792 1.17 3.022 1.17zm7.62-.18l.555-1.29h4.05l.555 1.29h2.175l-4.41-10.08h-.675L123.934 286h2.175zm3.9-2.955h-2.64l1.32-3.345 1.32 3.345zM141.153 286v-1.83h-4.334v-8.07h-2.026v9.9h6.36zm7.726 0v-3.495h1.695c1.04 0 1.894-.3 2.564-.9.67-.6 1.006-1.37 1.006-2.31 0-.95-.335-1.72-1.006-2.31-.67-.59-1.525-.885-2.564-.885h-3.72v9.9h2.024zm1.695-5.265h-1.696v-2.85h1.695c.45 0 .813.13 1.088.39.275.26.412.6.412 1.02 0 .43-.132.777-.397 1.042s-.633.398-1.103.398zm10.135 5.444c1.32-.033 2.473-.528 3.462-1.484 1.055-1.02 1.572-2.235 1.552-3.645.02-1.41-.497-2.625-1.552-3.645-1.055-1.02-2.298-1.515-3.728-1.485-1.43-.03-2.667.465-3.712 1.485-1.045 1.02-1.558 2.235-1.538 3.645-.02 1.41.493 2.625 1.538 3.645s2.282 1.515 3.712 1.485h.266zm-.25-1.874c-.92 0-1.68-.305-2.28-.915-.6-.61-.9-1.39-.9-2.34s.3-1.73.9-2.34c.6-.61 1.36-.915 2.28-.915.91 0 1.667.308 2.272.923.605.615.907 1.392.907 2.332 0 .95-.302 1.73-.907 2.34-.605.61-1.363.915-2.273.915zm9 1.695v-3.495h1.484l2.565 3.495h2.28l-2.805-3.885c.55-.27.978-.652 1.283-1.147a3.124 3.124 0 00.457-1.673c0-.95-.335-1.72-1.005-2.31-.67-.59-1.525-.885-2.565-.885h-3.72v9.9h2.025zm1.694-5.28h-1.695v-2.835h1.695c.45 0 .813.13 1.088.39.275.26.412.6.412 1.02 0 .43-.132.775-.397 1.035-.265.26-.633.39-1.103.39zm13.59 5.28v-9.9h-.675l-3.705 1.215.48 1.785 1.875-.6v7.5h2.025zm7.935 0l.555-1.29h4.05l.555 1.29h2.175l-4.41-10.08h-.675L190.502 286h2.175zm3.9-2.955h-2.64l1.32-3.345 1.32 3.345zm10.26-7.92c.49 0 .9-.188 1.23-.563.33-.375.495-.862.495-1.462 0-.03-.01-.195-.03-.495h-1.545v.18c0 .34-.14.51-.42.51-.19 0-.415-.085-.675-.255l-.45-.27c-.39-.21-.76-.315-1.11-.315-.5 0-.915.188-1.245.563-.33.375-.495.857-.495 1.447 0 .029.006.123.016.285l.014.225h1.545v-.18c0-.33.14-.495.42-.495.15 0 .37.085.66.255l.45.24c.4.22.78.33 1.14.33zm2.955 11.055V276.1h-2.025v5.91l-5.745-6.09h-.66V286h2.025v-5.94l5.73 6.12h.675zm7.211 0c1.32-.034 2.473-.529 3.462-1.485 1.055-1.02 1.572-2.235 1.552-3.645.02-1.41-.497-2.625-1.552-3.645-1.055-1.02-2.298-1.515-3.728-1.485-1.43-.03-2.667.465-3.712 1.485-1.045 1.02-1.558 2.235-1.538 3.645-.02 1.41.493 2.625 1.538 3.645s2.282 1.515 3.712 1.485h.266zm-.25-1.875c-.92 0-1.68-.305-2.28-.915-.6-.61-.9-1.39-.9-2.34s.3-1.73.9-2.34c.6-.61 1.36-.915 2.28-.915.91 0 1.667.308 2.272.923.605.615.907 1.392.907 2.332 0 .95-.302 1.73-.907 2.34-.605.61-1.363.915-2.273.915z" fill="#4D008C"/><path d="M26.88 284.065v1.19h-1.152v-1.205A2.506 2.506 0 0124 282.737l.89-.66c.362.567.846.89 1.475.89.476 0 .845-.184.845-.576 0-.338-.315-.5-.753-.676l-.66-.246c-.868-.322-1.451-.867-1.451-1.697 0-.806.575-1.382 1.382-1.582v-1.182h1.152v1.16c.69.137 1.16.568 1.451 1.113l-.875.66c-.315-.46-.66-.66-1.122-.66-.353 0-.698.13-.698.5 0 .314.26.46.652.613l.73.254c.975.36 1.482.906 1.482 1.712 0 .937-.683 1.551-1.62 1.705z" fill="#FF0081"/><g fill="#FF0081"><path d="M50.265 267.54c3.36 0 6.18-.998 8.46-2.992 2.28-1.995 3.42-4.508 3.42-7.538.06-2.79-.937-5.1-2.992-6.93-2.055-1.83-4.373-2.715-6.953-2.655-.84 0-1.785.105-2.835.315v-3.465h11.07V237.3H42.03v16.785h7.065c3.42 0 5.13 1.005 5.13 3.015 0 1.05-.39 1.867-1.17 2.452-.78.585-1.815.878-3.105.878-1.23 0-2.287-.293-3.172-.878-.885-.585-1.778-1.552-2.678-2.902l-5.355 3.78c1.02 2.22 2.543 3.96 4.568 5.22 2.025 1.26 4.342 1.89 6.952 1.89zm27.06 0c3.9 0 6.93-1.455 9.09-4.365s3.24-6.66 3.24-11.25c0-4.53-1.072-8.19-3.218-10.98-2.145-2.79-5.182-4.185-9.112-4.185-3.93 0-6.968 1.395-9.113 4.185-2.144 2.79-3.217 6.45-3.217 10.98 0 4.59 1.08 8.34 3.24 11.25s5.19 4.365 9.09 4.365zm0-7.11c-2.94 0-4.41-2.82-4.41-8.46 0-2.79.36-4.837 1.08-6.142.72-1.306 1.83-1.958 3.33-1.958s2.61.652 3.33 1.957c.72 1.305 1.08 3.353 1.08 6.143 0 5.64-1.47 8.46-4.41 8.46zM101.87 256.62c1.36 0 2.53-.475 3.51-1.425.98-.95 1.47-2.105 1.47-3.465 0-1.34-.49-2.485-1.47-3.435-.98-.95-2.15-1.425-3.51-1.425-1.4 0-2.59.475-3.57 1.425-.98.95-1.47 2.095-1.47 3.435 0 1.38.49 2.54 1.47 3.48s2.17 1.41 3.57 1.41zm1.56 10.38l11.37-19.8h-2.67L100.79 267h2.64zm-1.56-12.63c-.74 0-1.34-.25-1.8-.75-.46-.5-.69-1.13-.69-1.89s.235-1.39.705-1.89 1.065-.75 1.785-.75c.7 0 1.29.255 1.77.765s.72 1.135.72 1.875c0 .76-.24 1.39-.72 1.89s-1.07.75-1.77.75zm11.82 12.93c1.38 0 2.56-.475 3.54-1.425.98-.95 1.47-2.095 1.47-3.435 0-1.38-.49-2.54-1.47-3.48s-2.16-1.41-3.54-1.41-2.555.47-3.525 1.41c-.97.94-1.455 2.1-1.455 3.48 0 1.34.485 2.485 1.455 3.435.97.95 2.145 1.425 3.525 1.425zm.03-2.25c-.74 0-1.34-.245-1.8-.735-.46-.49-.69-1.115-.69-1.875 0-.78.23-1.415.69-1.905.46-.49 1.06-.735 1.8-.735.7 0 1.285.25 1.755.75s.705 1.13.705 1.89c0 .74-.235 1.36-.705 1.86s-1.055.75-1.755.75zm22.31 1.95c3.2 0 5.795-.93 7.785-2.79 1.99-1.86 2.985-4.24 2.985-7.14 0-2.94-.99-5.32-2.97-7.14-1.98-1.82-4.58-2.73-7.8-2.73h-6.21V267h6.21zm-.03-2.85h-3v-14.07h3c2.3 0 4.13.635 5.49 1.905 1.36 1.27 2.04 2.965 2.04 5.085 0 2.1-.685 3.805-2.055 5.115s-3.195 1.965-5.475 1.965zm22.99 3.18c1.82 0 3.475-.405 4.965-1.215a9.148 9.148 0 003.525-3.345l-2.4-1.77c-1.46 2.28-3.48 3.42-6.06 3.42-2.04 0-3.74-.695-5.1-2.085-1.36-1.39-2.04-3.135-2.04-5.235 0-2.1.68-3.845 2.04-5.235 1.36-1.39 3.06-2.085 5.1-2.085 2.58 0 4.6 1.14 6.06 3.42l2.4-1.77c-.86-1.4-2.04-2.51-3.54-3.33-1.5-.82-3.15-1.23-4.95-1.23-2.84-.04-5.3.95-7.38 2.97-2.08 2.02-3.09 4.44-3.03 7.26-.06 2.82.95 5.24 3.03 7.26 2.08 2.02 4.54 3.01 7.38 2.97zm19.33-.33v-16.95h6.69v-2.85h-16.53v2.85h6.66V267h3.18zm17.94.33c2.674-.044 5.012-1.034 7.015-2.97 2.09-2.02 3.105-4.44 3.045-7.26.06-2.82-.955-5.24-3.045-7.26-2.09-2.02-4.545-3.01-7.365-2.97-2.84-.04-5.29.95-7.35 2.97-2.06 2.02-3.07 4.44-3.03 7.26-.06 2.82.945 5.24 3.015 7.26 2.07 2.02 4.525 3.01 7.365 2.97h.35zm-.32-2.91c-2.06 0-3.76-.695-5.1-2.085-1.34-1.39-2.01-3.145-2.01-5.265 0-2.1.675-3.84 2.025-5.22 1.35-1.38 3.045-2.07 5.085-2.07 2.02 0 3.71.695 5.07 2.085 1.36 1.39 2.04 3.125 2.04 5.205 0 2.1-.68 3.85-2.04 5.25-1.36 1.4-3.05 2.1-5.07 2.1zm14.17 2.91c.66 0 1.21-.22 1.65-.66.44-.44.66-.99.66-1.65 0-.68-.22-1.24-.66-1.68-.44-.44-.99-.66-1.65-.66-.66 0-1.22.225-1.68.675-.46.45-.69 1.005-.69 1.665 0 .66.23 1.21.69 1.65.46.44 1.02.66 1.68.66z"/></g></g><path d="M40.252 229.121c.703 0 1.285-.194 1.743-.583.458-.389.688-.895.688-1.518 0-.47-.138-.862-.413-1.177-.275-.315-.717-.612-1.326-.891l-.814-.374a.978.978 0 00-.099-.055 67.889 67.889 0 00-.428-.22 1.534 1.534 0 01-.232-.17.597.597 0 01-.203-.264 1.41 1.41 0 01-.05-.325c0-.279.103-.495.308-.649.206-.154.47-.231.792-.231.624 0 1.133.293 1.53.88l.813-.627a2.512 2.512 0 00-.962-.946 2.752 2.752 0 00-1.38-.352c-.646 0-1.189.183-1.629.55-.44.367-.66.84-.66 1.419 0 .462.142.849.424 1.16.282.312.706.596 1.27.853l.803.374c.404.19.682.358.836.5.154.144.231.34.231.589a.893.893 0 01-.346.737c-.231.183-.534.275-.908.275-.74 0-1.375-.385-1.903-1.155l-.825.627a3.102 3.102 0 002.739 1.573zm7.292 0c1.035.015 1.935-.348 2.701-1.089.766-.74 1.139-1.628 1.117-2.662.021-1.034-.35-1.921-1.117-2.662-.766-.74-1.666-1.104-2.7-1.089-1.042-.015-1.94.348-2.696 1.089-.755.74-1.125 1.628-1.11 2.662-.022 1.034.346 1.921 1.105 2.662.759.74 1.66 1.104 2.7 1.089zm.012-1.067c-.756 0-1.38-.255-1.87-.764-.492-.51-.737-1.154-.737-1.931 0-.77.247-1.408.742-1.914s1.116-.759 1.864-.759c.741 0 1.36.255 1.86.765.498.51.748 1.145.748 1.908 0 .77-.25 1.412-.748 1.925-.5.513-1.119.77-1.86.77zm9.69.946v-1.045h-3.322v-6.215h-1.166V229h4.488zm2.343 0v-7.26h-1.166V229h1.166zm5.203.121c.668 0 1.275-.149 1.821-.446a3.354 3.354 0 001.293-1.226l-.88-.649c-.536.836-1.277 1.254-2.223 1.254-.748 0-1.37-.255-1.87-.764-.498-.51-.748-1.15-.748-1.92s.25-1.41.748-1.92c.5-.51 1.122-.764 1.87-.764.946 0 1.687.418 2.222 1.254l.88-.649a3.412 3.412 0 00-1.298-1.221 3.722 3.722 0 00-1.815-.451c-1.04-.015-1.943.348-2.706 1.089-.762.74-1.133 1.628-1.11 2.662-.023 1.034.348 1.921 1.11 2.662.763.74 1.665 1.104 2.706 1.089zm5.676-.121v-7.26h-1.166V229h1.166zm4.697 0v-6.215h2.453v-1.045h-6.06v1.045h2.441V229h1.166zm4.114 0l.517-1.21h3.267l.517 1.21h1.254l-3.2-7.381h-.397l-3.2 7.381h1.242zm3.366-2.211h-2.43l1.22-3.003 1.21 3.003zM93.975 229v-1.045h-3.74v-2.299h2.717v-1.012h-2.717v-1.859h3.608v-1.045H89.07V229h4.906zm3.575.121c.704 0 1.286-.194 1.744-.583.458-.389.687-.895.687-1.518 0-.47-.137-.862-.412-1.177-.275-.315-.717-.612-1.326-.891l-.814-.374a.978.978 0 00-.099-.055 67.889 67.889 0 00-.429-.22 1.534 1.534 0 01-.23-.17.597.597 0 01-.204-.264 1.41 1.41 0 01-.05-.325c0-.279.103-.495.308-.649.206-.154.47-.231.792-.231.624 0 1.133.293 1.53.88l.813-.627a2.512 2.512 0 00-.962-.946 2.752 2.752 0 00-1.38-.352c-.646 0-1.189.183-1.629.55-.44.367-.66.84-.66 1.419 0 .462.142.849.424 1.16.282.312.706.596 1.27.853l.803.374c.404.19.682.358.836.5.154.144.231.34.231.589a.893.893 0 01-.346.737c-.231.183-.534.275-.908.275-.74 0-1.375-.385-1.903-1.155l-.825.627a3.102 3.102 0 002.739 1.573zm6.798-.121v-6.215h2.453v-1.045h-6.06v1.045h2.441V229h1.166zm8.448 0v-1.045h-3.74v-2.299h2.717v-1.012h-2.717v-1.859h3.608v-1.045h-4.774V229h4.906zm5.6 0v-2.805h1.484c.726 0 1.319-.209 1.777-.627.458-.418.687-.953.687-1.606 0-.653-.227-1.186-.682-1.6-.454-.415-1.048-.622-1.782-.622h-2.65V229h1.165zm1.462-3.839h-1.463v-2.387h1.463c.404 0 .72.108.946.325.228.216.341.507.341.874s-.113.656-.34.869c-.228.213-.543.319-.947.319zM128.13 229v-1.045h-3.322v-6.215h-1.166V229h4.488zm1.75 0l.516-1.21h3.268l.517 1.21h1.253l-3.2-7.381h-.396L128.637 229h1.243zm3.365-2.211h-2.43l1.22-3.003 1.21 3.003zm9.328 2.332v-7.381h-1.166v4.895l-4.41-5.016h-.408V229h1.166v-4.917l4.422 5.038h.396zm7.997-.121v-2.926l2.508-4.334h-1.287l-1.804 3.157-1.793-3.157h-1.298l2.508 4.334V229h1.166zm10.186.121c1.034.015 1.935-.348 2.701-1.089.766-.74 1.138-1.628 1.116-2.662.022-1.034-.35-1.921-1.116-2.662-.766-.74-1.667-1.104-2.7-1.089-1.042-.015-1.94.348-2.696 1.089-.755.74-1.125 1.628-1.11 2.662-.023 1.034.346 1.921 1.105 2.662.759.74 1.66 1.104 2.7 1.089zm.011-1.067c-.755 0-1.378-.255-1.87-.765-.49-.51-.737-1.153-.737-1.93 0-.77.248-1.408.743-1.914s1.116-.759 1.864-.759c.741 0 1.36.255 1.86.764.498.51.747 1.146.747 1.909 0 .77-.249 1.412-.748 1.925-.498.513-1.118.77-1.859.77zm8.316.946c.704 0 1.273-.198 1.705-.594.433-.396.65-.902.65-1.518 0-.447-.12-.832-.358-1.155-.238-.323-.57-.554-.996-.693.404-.345.605-.8.605-1.364 0-.565-.2-1.029-.599-1.392-.4-.363-.926-.544-1.579-.544h-2.54V229h3.112zm-.682-4.279h-1.287v-1.958h1.287c.36 0 .637.086.831.258.194.173.291.41.291.71 0 .308-.099.55-.297.726-.198.176-.473.264-.825.264zm.583 3.256h-1.87v-2.255h1.87c.396 0 .708.1.935.302.228.202.341.479.341.831 0 .345-.111.618-.335.82-.224.201-.537.302-.94.302zM175.64 229v-6.215h2.453v-1.045h-6.06v1.045h2.441V229h1.166zm6.325-7.964l1.42-1.837v-.209h-1.409l-.869 2.046h.858zm2.123 7.964v-1.045h-3.74v-2.299h2.717v-1.012h-2.717v-1.859h3.608v-1.045h-4.774V229h4.906zm7.337.121v-7.381h-1.166v4.895l-4.41-5.016h-.408V229h1.166v-4.917l4.422 5.038h.396zm7.832 0c.873 0 1.586-.275 2.14-.825.554-.55.83-1.294.83-2.233v-4.323h-1.166v4.4c0 .601-.165 1.07-.495 1.408-.33.337-.766.506-1.309.506-.55 0-.991-.169-1.325-.506-.334-.337-.5-.807-.5-1.408v-4.4h-1.167v4.323c0 .939.277 1.683.831 2.233.554.55 1.274.825 2.161.825zm10.703 0v-7.381h-1.166v4.895l-4.41-5.016h-.408V229h1.166v-4.917l4.422 5.038h.396z" fill="#4D008C" fill-rule="nonzero"/><g><path d="M127.336 18.008h102c5.523 0 10 3.89 10 8.688V201.32c0 4.798-4.477 8.688-10 8.688h-211c-5.523 0-10-3.89-10-8.688V26.696c0-4.799 4.477-8.688 10-8.688h2" stroke="#FF0081"/><g fill-rule="nonzero"><path d="M114.257 130.567h101.48a4.591 4.591 0 004.594-4.594v-13.614a4.591 4.591 0 00-4.594-4.594h-101.48v22.802z" fill="#FF0081"/><path d="M215.774 130.884h-186.9A4.878 4.878 0 0124 126.01v-13.689a4.878 4.878 0 014.874-4.874h186.9a4.878 4.878 0 014.874 4.874v13.689c0 2.671-2.185 4.874-4.874 4.874zm-186.9-22.821a4.248 4.248 0 00-4.24 4.24v13.688a4.248 4.248 0 004.24 4.24h186.9a4.248 4.248 0 004.238-4.24v-13.688a4.248 4.248 0 00-4.238-4.24h-186.9z" fill="#FF0081"/><path d="M95.096 118.409a7.36 7.36 0 01-7.358 7.358 7.36 7.36 0 01-7.358-7.358 7.36 7.36 0 017.358-7.358c4.052 0 7.358 3.306 7.358 7.358z" fill="#0076F4"/><path d="M89.362 115.104h.934v-1.569c-.168-.018-.71-.075-1.363-.075-1.363 0-2.278.822-2.278 2.316v1.289h-1.532v1.755h1.532v4.501h1.83v-4.501h1.531l.224-1.755h-1.755v-1.121c0-.485.13-.84.877-.84z" fill="#FFF"/><path d="M111.921 118.409a7.36 7.36 0 01-7.358 7.358 7.36 7.36 0 01-7.357-7.358 7.36 7.36 0 017.357-7.358 7.36 7.36 0 017.358 7.358z" fill="#00A8F2"/><path d="M107.925 117.046c-.055 2.876-1.885 4.874-4.668 4.986-1.14.056-1.962-.317-2.727-.747.822.131 1.905-.186 2.466-.691-.822-.056-1.326-.504-1.588-1.195.262.056.505 0 .69 0-.764-.243-1.27-.691-1.325-1.681.187.131.449.187.69.187-.56-.317-.951-1.513-.503-2.26.822.878 1.83 1.625 3.474 1.756-.448-1.756 1.96-2.689 2.913-1.494.448-.056.766-.243 1.083-.374-.131.43-.373.691-.691.934.318-.056.635-.131.878-.243-.056.318-.374.579-.691.822z" fill="#FFF"/><path d="M78.195 118.409a7.36 7.36 0 01-7.358 7.358 7.36 7.36 0 01-7.358-7.358 7.36 7.36 0 017.358-7.358 7.36 7.36 0 017.358 7.358z" fill="#FDF700"/><path d="M67.027 120.333c.262-.037.504-.131.728-.28.187-.112.355-.262.505-.448.261-.299.392-.598.41-.635v-.019c.075-.131.075-.243.038-.336-.075-.187-.318-.262-.504-.318l-.038-.018c-.037 0-.056-.019-.074-.038-.131-.056-.206-.093-.262-.149-.074-.075-.093-.131-.074-.187a.248.248 0 01.13-.149c.094-.056.206-.075.28-.038.243.112.43.15.56.075a.103.103 0 00.057-.093c0-.056-.019-.112-.019-.187v-.019c-.037-.523-.075-1.176.093-1.55.131-.261.28-.485.467-.672.168-.149.336-.28.56-.355.374-.168.71-.187.878-.187h.15a2.22 2.22 0 011.438.542c.186.187.354.392.466.672.168.374.131 1.027.094 1.532v.037c0 .037-.019.075-.019.112v.056c0 .037.019.075.056.093a.347.347 0 00.15.038h.018c.112 0 .224-.038.374-.094.056-.018.093-.018.13-.018.057 0 .094.018.15.037.112.037.187.131.187.205 0 .038-.02.075-.075.131a.913.913 0 01-.28.168c-.019.019-.056.019-.075.019l-.037.019c-.168.056-.411.13-.504.317-.038.093-.038.206.037.355v.019c.093.205.598 1.195 1.643 1.363.038.019.075.037.075.093v.038c-.037.074-.093.13-.224.186-.168.075-.411.15-.747.187a.256.256 0 00-.075.056.745.745 0 00-.056.187l-.018.056c-.02.037-.02.093-.038.131-.019.056-.056.074-.112.074-.037 0-.075 0-.168-.018-.112-.019-.261-.056-.43-.056-.112 0-.205 0-.317.037-.205.037-.41.168-.616.299-.28.187-.58.411-1.046.411H70.8c-.467 0-.766-.224-1.065-.411-.187-.131-.373-.262-.597-.299a1.621 1.621 0 00-.318-.037c-.187 0-.317.037-.43.056h-.018c-.056.018-.112.018-.168.018-.056 0-.094-.018-.131-.074-.037-.075-.056-.112-.075-.168l-.018-.038a1.177 1.177 0 00-.056-.187c-.02-.037-.038-.056-.075-.056a5.098 5.098 0 01-.766-.186.578.578 0 01-.224-.168c-.019-.019-.019-.038-.019-.038v-.037c.131-.019.15-.037.187-.056z" stroke="#201712" stroke-width=".222" fill="#FFF"/><g><path d="M28.351 125.767l1.009-3.679a7.466 7.466 0 01-1.009-3.735c0-4.015 3.306-7.301 7.34-7.301 4.033 0 7.376 3.305 7.376 7.301 0 4.016-3.343 7.414-7.376 7.414-1.27 0-2.484-.41-3.586-1.008l-3.754 1.008z" fill="#FFF"/><path d="M32.31 123.433l.224.131c.934.579 2.036.933 3.175.933 3.324 0 6.088-2.763 6.088-6.144 0-3.38-2.764-6.032-6.106-6.032-3.343 0-6.07 2.69-6.07 6.032 0 1.158.336 2.316.934 3.268l.15.225-.58 2.129 2.185-.542z" fill="#00A655"/><path d="M33.73 114.973l-.486-.019a.655.655 0 00-.41.15c-.225.205-.617.579-.71 1.083-.187.766.093 1.681.765 2.596.654.915 1.924 2.39 4.165 3.025.71.206 1.27.075 1.718-.205a1.46 1.46 0 00.654-.971l.074-.355c.019-.094-.018-.224-.13-.28l-1.606-.729c-.094-.056-.225-.018-.3.075l-.634.803a.21.21 0 01-.206.056c-.43-.149-1.886-.766-2.67-2.278-.019-.075-.019-.15.019-.206l.616-.691c.056-.074.074-.186.056-.261l-.729-1.643a.201.201 0 00-.186-.15z" fill="#FFF"/></g><g><path d="M7.265 14.529a7.265 7.265 0 10-.001-14.53 7.265 7.265 0 000 14.53z" fill="url(#a)" transform="translate(46.242 111.145)"/><path d="M55.374 114.263H51.62c-1.27 0-2.315 1.028-2.315 2.279v3.716c0 1.27 1.046 2.279 2.316 2.297h3.753c1.27 0 2.316-1.027 2.316-2.278v-3.716a2.3 2.3 0 00-2.316-2.298zm1.569 6.014c0 .859-.71 1.55-1.569 1.55H51.62c-.859 0-1.568-.691-1.568-1.55v-3.716c0-.86.71-1.551 1.569-1.551h3.753c.86 0 1.569.691 1.569 1.551v3.716z" fill="#FFF"/><path d="M53.507 116.28c-1.196 0-2.167.953-2.167 2.129 0 1.177.971 2.129 2.167 2.129 1.195 0 2.166-.952 2.166-2.129a2.16 2.16 0 00-2.166-2.129zm0 3.53c-.785 0-1.42-.635-1.42-1.401 0-.765.635-1.4 1.42-1.4.784 0 1.419.635 1.419 1.4 0 .766-.635 1.401-1.42 1.401zM55.748 115.645a.6.6 0 00-.393.15.575.575 0 00-.168.373c0 .15.056.28.168.374a.569.569 0 00.393.149c.149 0 .28-.056.392-.149a.577.577 0 00.168-.374.47.47 0 00-.168-.373.6.6 0 00-.392-.15z" fill="#FFF"/></g><g fill="#FFF"><path d="M189.349 111.836h-3.193v1.643h2.409v.897h-2.41v2.035h3.306v.934h-4.351v-6.424h4.22v.915zM195.548 110.902v6.536h-.355l-3.922-4.444v4.351h-1.027v-6.536h.355l3.903 4.444v-4.332h1.046zM189.161 125.525l-1.83-2.484h-1.175v2.484h-1.028V119.1h2.353c1.308 0 2.184.803 2.184 1.961 0 .841-.465 1.513-1.231 1.812l1.923 2.652h-1.195zm-3.006-3.399h1.288c.728 0 1.14-.43 1.14-1.046 0-.616-.412-1.065-1.14-1.065h-1.288v2.111zM195.1 120.034h-3.193v1.644h2.408v.896h-2.409v2.035h3.306v.934h-4.35v-6.424h4.22v.915zM201.505 122.312c0 1.868-1.382 3.231-3.492 3.231h-2.017v-6.424h2.017c2.11-.019 3.492 1.289 3.492 3.193zm-4.482-2.278v4.575h.971c1.513 0 2.447-.971 2.447-2.297 0-1.381-.934-2.278-2.447-2.278h-.97zM209.462 124.404h-.878v1.121h-1.027v-1.121h-3.212v-.28l2.054-5.024h1.065l-1.812 4.426h1.905v-1.979h1.027v1.979h.878zM215.774 120.333l-.747.616c-.448-.635-1.083-1.008-1.923-1.008-1.383 0-2.317 1.008-2.317 2.371 0 1.382.971 2.41 2.372 2.41.86 0 1.531-.393 1.923-.972v-.691h-1.979v-.915h3.006v1.812c-.56 1.008-1.68 1.699-3.006 1.699-1.905 0-3.38-1.438-3.38-3.324s1.493-3.324 3.38-3.324c1.14-.019 2.054.486 2.67 1.326zM121.147 123.508h6.648v2.091h-8.983V111.07h2.335zM131.195 125.599h-2.334V111.07h2.334zM144.772 121.379c0 2.446-1.85 4.22-4.706 4.22h-6.238V111.07H138.925c2.634 0 4.352 1.606 4.352 3.866 0 1.12-.448 2.073-1.232 2.726 1.7.579 2.727 1.924 2.727 3.717zm-8.647-8.255v3.922h2.559c1.475 0 2.24-.822 2.24-1.979 0-1.158-.765-1.943-2.24-1.943h-2.56zm6.294 8.199c0-1.364-.897-2.26-2.56-2.26h-3.734v4.519h3.735c1.644-.018 2.559-.896 2.559-2.259zM155.584 125.599l-4.127-5.602h-2.67v5.602h-2.335V111.07h5.304c2.95 0 4.93 1.812 4.93 4.445 0 1.905-1.064 3.417-2.801 4.09l4.35 5.976h-2.651v.018zm-6.797-7.675h2.932c1.643 0 2.577-.99 2.577-2.372 0-1.401-.915-2.39-2.577-2.39h-2.932v4.762zM168.769 113.18h-7.21v3.717h5.436v2.017h-5.435v4.594h7.489v2.091h-9.804V111.07h9.543v2.11zM179.713 113.442l-1.625 1.251c-.747-1.12-1.812-1.755-3.063-1.755-1.158 0-2.204.579-2.204 1.755 0 1.102.84 1.494 2.017 2.073l1.625.747c2.204 1.008 3.474 2.129 3.474 4.127 0 2.577-2.092 4.202-4.856 4.202-2.428 0-4.37-1.233-5.472-3.137l1.644-1.252c.84 1.214 1.998 2.316 3.809 2.316 1.494 0 2.503-.766 2.503-2.017 0-1.139-.86-1.587-2.13-2.185l-1.606-.747c-1.868-.859-3.38-1.979-3.38-4.034 0-2.39 2.073-3.94 4.575-3.94 2.13 0 3.81 1.102 4.688 2.596z"/></g></g><g fill="#4D008C" fill-rule="nonzero"><path d="M36.656 70.576c3.488 0 6.424-1.064 8.808-3.192 2.384-2.128 3.576-4.776 3.576-7.944 0-2.24-.624-4.208-1.872-5.904-1.248-1.696-2.88-2.928-4.896-3.696l6.288-9.36v-2.16H27.2v7.44h9.024l-5.616 8.352v2.112h4.512c3.648 0 5.472 1.088 5.472 3.264 0 1.088-.393 1.944-1.177 2.568-.784.624-1.816.936-3.096.936-1.216 0-2.28-.312-3.192-.936-.912-.624-1.848-1.656-2.808-3.096l-5.712 4.032c1.088 2.368 2.688 4.224 4.8 5.568 2.112 1.344 4.528 2.016 7.248 2.016zm29.156 0c4.16 0 7.391-1.552 9.695-4.656 2.304-3.104 3.456-7.104 3.456-12 0-4.832-1.144-8.736-3.431-11.712-2.288-2.976-5.529-4.464-9.72-4.464-4.193 0-7.433 1.488-9.72 4.464-2.289 2.976-3.433 6.88-3.433 11.712 0 4.896 1.152 8.896 3.456 12 2.304 3.104 5.536 4.656 9.696 4.656zm0-7.584c-3.137 0-4.705-3.008-4.705-9.024 0-2.976.384-5.16 1.152-6.552.768-1.392 1.952-2.088 3.552-2.088s2.784.696 3.552 2.088c.768 1.392 1.152 3.576 1.152 6.552 0 6.016-1.568 9.024-4.704 9.024zM106.547 70.577l.445-.001c3.391 0 6.463-.8 9.215-2.4 2.753-1.632 4.865-3.76 6.337-6.384v-9.984h-15.648v7.104h7.391V60.4c-1.632 1.888-3.952 2.832-6.96 2.832-2.784 0-5-.832-6.647-2.496-1.648-1.664-2.473-3.856-2.473-6.576 0-2.688.777-4.832 2.329-6.432 1.552-1.6 3.656-2.4 6.311-2.4 3.265 0 5.937 1.456 8.017 4.368l5.76-4.896c-3.168-4.704-7.712-7.056-13.632-7.056-4.769-.064-8.849 1.52-12.24 4.752-3.392 3.232-5.056 7.12-4.992 11.664-.065 4.576 1.6 8.472 4.992 11.688 3.392 3.216 7.472 4.792 12.24 4.728l-.445.001zM132.904 70V38.32h-8.256V70h8.256zm18.89.577l.445-.001c3.392 0 6.464-.8 9.216-2.4 2.752-1.632 4.864-3.76 6.336-6.384v-9.984h-15.648v7.104h7.392V60.4c-1.632 1.888-3.952 2.832-6.96 2.832-2.784 0-5-.832-6.648-2.496-1.648-1.664-2.472-3.856-2.472-6.576 0-2.688.776-4.832 2.328-6.432 1.552-1.6 3.656-2.4 6.312-2.4 3.264 0 5.936 1.456 8.016 4.368l5.76-4.896c-3.168-4.704-7.712-7.056-13.632-7.056-4.768-.064-8.848 1.52-12.24 4.752-3.392 3.232-5.056 7.12-4.992 11.664-.064 4.576 1.6 8.472 4.992 11.688 3.392 3.216 7.472 4.792 12.24 4.728l-.444.001zm23.43-.577l1.151-2.64h11.376l1.153 2.64h8.88l-14.4-32.256h-2.64L166.344 70h8.88zm9.6-9.264h-5.52l2.784-7.344 2.736 7.344zm23.944 9.84c3.36 0 6.136-.896 8.328-2.688 2.191-1.792 3.287-4.192 3.287-7.2 0-2.208-.648-4.056-1.944-5.544-1.296-1.488-3.351-2.824-6.167-4.008l-3.648-1.536c-1.024-.416-1.737-.808-2.136-1.176-.4-.368-.6-.84-.6-1.416 0-1.344.944-2.016 2.832-2.016 1.088 0 2.031.264 2.832.792.8.528 1.6 1.384 2.4 2.568l5.52-4.224c-2.113-4.256-5.728-6.384-10.849-6.384-3.263 0-5.927.864-7.992 2.592-2.064 1.728-3.095 3.984-3.095 6.768 0 4 2.672 7.184 8.016 9.552l3.264 1.44c1.311.576 2.175 1.04 2.591 1.392.416.352.624.864.624 1.536 0 1.536-1.088 2.304-3.263 2.304-1.505 0-2.8-.344-3.888-1.032-1.088-.688-2.144-1.704-3.168-3.048l-5.569 4.224c1.153 2.208 2.84 3.944 5.065 5.208 2.224 1.264 4.744 1.896 7.56 1.896z"/></g><path d="M106.015 103.894l1.813-6.573c-1.179-2.04-1.813-4.306-1.813-6.663 0-7.163 5.893-13.055 13.1-13.055s13.191 5.892 13.191 13.055c0 7.162-5.984 13.236-13.191 13.236-2.267 0-4.442-.725-6.391-1.813l-6.709 1.813z" fill="#FEFEFE"/><path d="M113.086 99.724l.408.226c1.678 1.043 3.627 1.677 5.667 1.677 5.937 0 10.879-4.94 10.879-10.97 0-6.028-4.942-10.788-10.925-10.788-5.984 0-10.833 4.805-10.833 10.789 0 2.085.59 4.125 1.676 5.847l.272.408-1.042 3.808 3.898-.997z" fill="#129F5C"/><path d="M115.625 84.584l-.862-.046c-.272 0-.543.09-.725.272-.408.363-1.088 1.043-1.27 1.95-.316 1.36.182 2.991 1.361 4.623 1.179 1.632 3.445 4.261 7.434 5.394 1.27.363 2.266.136 3.082-.362a2.672 2.672 0 001.179-1.723l.136-.634a.456.456 0 00-.227-.499l-2.855-1.314a.433.433 0 00-.545.135l-1.132 1.451a.354.354 0 01-.363.09c-.77-.271-3.355-1.36-4.76-4.079-.045-.136-.045-.272.046-.363l1.088-1.223c.09-.137.135-.318.09-.454l-1.315-2.946a.394.394 0 00-.362-.272" fill="#FEFEFE"/><g fill="#4F008C" fill-rule="nonzero"><path d="M138.814 93.34V80.652h-2.596V93.34h2.596zm10.028 0v-2.345h-5.556V80.652h-2.595V93.34h8.15zm3.492 0V80.652h-2.595V93.34h2.595zm4.473 0v-6.767l3.19 3.999h.846l3.192-3.999v6.767h2.595V80.422h-.846l-5.363 6.862-5.364-6.862h-.846V93.34h2.596zm14.315 0V80.652h-2.596V93.34h2.596zm7.336 0V82.998h4.076v-2.346h-10.727v2.346h4.056V93.34h2.595zm4.896 0l.711-1.653h5.19l.712 1.653h2.787l-5.651-12.918h-.866l-5.67 12.918h2.787zm4.998-3.787h-3.383l1.691-4.287 1.692 4.287zm9.26 3.787c1.998.025 3.658-.57 4.978-1.788 1.32-1.217 1.967-2.749 1.942-4.594.025-1.859-.615-3.38-1.923-4.566-1.307-1.185-2.973-1.765-4.998-1.74h-4.152V93.34h4.152zm-.02-2.345h-1.538v-7.997h1.538c1.307 0 2.345.352 3.114 1.057.77.705 1.154 1.672 1.154 2.903 0 1.217-.391 2.194-1.173 2.931-.782.737-1.813 1.106-3.095 1.106zm14.104 2.575c1.832.039 3.424-.595 4.777-1.903 1.352-1.307 2.015-2.864 1.99-4.67.025-1.808-.638-3.365-1.99-4.672-1.353-1.307-2.945-1.942-4.777-1.903-1.833-.039-3.419.596-4.758 1.903-1.34 1.307-1.996 2.864-1.97 4.671-.026 1.807.63 3.364 1.97 4.671 1.339 1.308 2.925 1.942 4.758 1.903zm.019-2.402c-1.18 0-2.153-.391-2.922-1.173-.77-.782-1.154-1.781-1.154-2.999 0-1.217.385-2.217 1.154-2.999.769-.781 1.743-1.172 2.922-1.172 1.166 0 2.137.394 2.912 1.182.775.788 1.163 1.784 1.163 2.99 0 1.217-.388 2.216-1.163 2.998s-1.746 1.173-2.912 1.173zM136.324 97.847a.733.733 0 00.74-.75.717.717 0 00-.211-.529.717.717 0 00-.529-.211.733.733 0 00-.75.74.733.733 0 00.75.75zm.606 4.96l-.193-4.038h-.836l-.192 4.037h1.22zm2.2 0v-6.344h-1.018v6.343h1.019zm6.248.105v-6.45h-1.018v4.278l-3.855-4.383h-.355v6.45h1.018V98.51l3.864 4.402h.346zm3.98 0c.583 0 1.113-.13 1.59-.39.478-.259.854-.616 1.13-1.07l-.77-.568c-.467.73-1.114 1.096-1.94 1.096-.654 0-1.2-.223-1.635-.668-.436-.446-.653-1.005-.653-1.678 0-.672.217-1.231.653-1.677.436-.445.98-.668 1.634-.668.827 0 1.474.365 1.942 1.096l.769-.567a2.981 2.981 0 00-1.134-1.067 3.252 3.252 0 00-1.586-.394c-.91-.013-1.698.304-2.365.951-.666.648-.99 1.423-.97 2.326-.02.904.304 1.68.97 2.327.667.647 1.455.964 2.365.951zm7.285-.106v-.913h-2.903v-5.43h-1.018v6.343h3.921zm2.903.106c.762 0 1.386-.24 1.87-.72.483-.481.725-1.132.725-1.952v-3.777h-1.019v3.844c0 .526-.144.936-.432 1.23-.289.295-.67.443-1.144.443-.48 0-.867-.148-1.158-.442-.292-.295-.438-.705-.438-1.23v-3.845h-1.018v3.777c0 .82.241 1.47.725 1.951.484.48 1.114.721 1.889.721zm6.238-.106v-2.556l2.191-3.787h-1.124l-1.577 2.758-1.566-2.758h-1.134l2.191 3.787v2.556h1.019zm6.978 0v-.913h-3.268v-2.009h2.374V99h-2.374v-1.624h3.153v-.913h-4.172v6.343h4.287zm6.642 0v-.913H176.5v-5.43h-1.019v6.343h3.922zm4.373 0v-.913h-2.903v-5.43h-1.019v6.343h3.922zm.951 0l.452-1.057h2.855l.452 1.057h1.095l-2.797-6.45h-.346l-2.797 6.45h1.086zm2.942-1.932h-2.125l1.067-2.624 1.058 2.624zm3.364 1.932v-3.989l1.826 2.394h.346l1.817-2.384v3.98h1.018v-6.45h-.346l-2.662 3.547-2.663-3.547h-.355v6.45h1.019zm6.526 0l.452-1.057h2.854l.452 1.057h1.096l-2.797-6.45h-.346l-2.797 6.45h1.086zm2.941-1.932h-2.124l1.067-2.624 1.057 2.624zm4.335 1.932c1.025 0 1.857-.298 2.494-.894.638-.595.957-1.358.957-2.287 0-.942-.318-1.705-.952-2.288-.634-.583-1.467-.874-2.499-.874h-1.99v6.343h1.99zm-.01-.913h-.96v-4.508h.96c.737 0 1.324.204 1.76.61.435.408.653.95.653 1.63 0 .673-.22 1.219-.658 1.639-.44.42-1.024.63-1.755.63zm4.441.913l.452-1.057h2.854l.452 1.057h1.096l-2.797-6.45h-.346l-2.797 6.45h1.086zm2.941-1.932h-2.124l1.067-2.624 1.057 2.624zm4.239 2.038c.615 0 1.123-.17 1.523-.51.4-.339.601-.781.601-1.326 0-.41-.12-.753-.36-1.028-.24-.276-.627-.535-1.159-.779l-.71-.327a.855.855 0 00-.087-.048 59.322 59.322 0 00-.375-.192 1.34 1.34 0 01-.202-.149.521.521 0 01-.178-.23 1.231 1.231 0 01-.043-.284c0-.244.09-.433.269-.567.18-.135.41-.202.692-.202.545 0 .99.256 1.336.769l.711-.548a2.195 2.195 0 00-.84-.827 2.405 2.405 0 00-1.207-.307c-.564 0-1.038.16-1.422.48a1.54 1.54 0 00-.577 1.24c0 .404.123.742.37 1.014.247.273.617.521 1.11.745l.702.327c.352.167.596.313.73.437.135.125.202.297.202.515 0 .269-.1.483-.303.644-.202.16-.466.24-.793.24-.647 0-1.201-.336-1.663-1.01l-.72.549a2.71 2.71 0 002.393 1.374zm4.037-2.268l.182-4.181h-1.21l.192 4.18h.836zm-.414 2.268c.212 0 .388-.07.53-.211a.717.717 0 00.21-.529.73.73 0 00-.21-.538.717.717 0 00-.53-.212.733.733 0 00-.75.75.733.733 0 00.75.74z"/></g><g><path d="M25.05 98.165l9.708-.02v-2.768h-3.922l.904-.941c.974-1.026 1.679-1.913 2.114-2.663.436-.75.654-1.541.654-2.374 0-1.192-.445-2.185-1.336-2.98-.89-.794-1.996-1.191-3.316-1.191-1.359-.026-2.496.406-3.412 1.297-.917.89-1.362 1.9-1.336 3.028 0 .371.045.73.134 1.076h3.326a4.94 4.94 0 01-.077-.846c0-.474.119-.845.356-1.114.237-.27.554-.404.951-.404.398 0 .718.128.961.384.244.257.366.61.366 1.058 0 .769-.507 1.704-1.519 2.806l-4.556 4.979v.673zm14.61.211c1.666 0 2.96-.621 3.883-1.864s1.384-2.845 1.384-4.806c0-1.935-.458-3.499-1.374-4.69-.917-1.193-2.214-1.788-3.893-1.788-1.679 0-2.977.595-3.893 1.787-.916 1.192-1.374 2.756-1.374 4.69 0 1.962.461 3.564 1.384 4.807.922 1.243 2.217 1.864 3.883 1.864zm0-3.037c-1.256 0-1.884-1.205-1.884-3.614 0-1.192.154-2.066.461-2.624.308-.557.782-.836 1.423-.836.64 0 1.115.279 1.422.836.308.558.462 1.432.462 2.624 0 2.41-.628 3.614-1.884 3.614zm10.15 3.037c1.666 0 2.96-.621 3.883-1.864s1.384-2.845 1.384-4.806c0-1.935-.458-3.499-1.375-4.69-.916-1.193-2.213-1.788-3.892-1.788-1.68 0-2.977.595-3.893 1.787-.916 1.192-1.374 2.756-1.374 4.69 0 1.962.46 3.564 1.384 4.807.922 1.243 2.217 1.864 3.883 1.864zm0-3.037c-1.256 0-1.884-1.205-1.884-3.614 0-1.192.154-2.066.461-2.624.308-.557.782-.836 1.423-.836.64 0 1.115.279 1.422.836.308.558.462 1.432.462 2.624 0 2.41-.628 3.614-1.884 3.614zm10.15 3.037c1.666 0 2.96-.621 3.883-1.864.922-1.243 1.384-2.845 1.384-4.806 0-1.935-.458-3.499-1.375-4.69-.916-1.193-2.214-1.788-3.892-1.788-1.68 0-2.977.595-3.893 1.787-.916 1.192-1.375 2.756-1.375 4.69 0 1.962.462 3.564 1.385 4.807.922 1.243 2.217 1.864 3.883 1.864zm0-3.037c-1.256 0-1.884-1.205-1.884-3.614 0-1.192.154-2.066.461-2.624.308-.557.782-.836 1.423-.836.64 0 1.115.279 1.422.836.308.558.462 1.432.462 2.624 0 2.41-.628 3.614-1.884 3.614zm10.63 2.807v-7.978l3.653 4.787h.692l3.633-4.768v7.959h2.037v-12.9h-.692L74.59 92.34l-5.325-7.093h-.712v12.899h2.038zm12.937 0V85.458H81.49v12.688h2.037zm11.342.211V85.458h-2.038v8.555l-7.708-8.766h-.711v12.899h2.037v-8.593l7.728 8.804h.692z" fill="#4F008C" fill-rule="nonzero"/><path stroke="#4F008C" stroke-linecap="square" d="M100.326 81.18v19.705"/></g><g fill="#4D008C" fill-rule="nonzero"><path d="M77.771 184.008v-40.26h-3.355l-16.47 5.429 2.501 9.272 6.832-2.257v27.816h10.492zm22.01 0v-40.26h-3.354l-16.47 5.429 2.5 9.272 6.833-2.257v27.816h10.492zm10.239.732c1.952 0 3.568-.65 4.85-1.952 1.28-1.302 1.92-2.928 1.92-4.88s-.64-3.579-1.92-4.88c-1.282-1.302-2.898-1.952-4.85-1.952-2.034 0-3.7.65-5.002 1.952-1.302 1.301-1.952 2.928-1.952 4.88s.65 3.578 1.952 4.88c1.301 1.301 2.968 1.952 5.002 1.952zm21.218-.732l10.065-13.481c1.91-2.603 3.294-4.779 4.148-6.527.894-1.749 1.342-3.742 1.342-5.978 0-4.27-1.536-7.839-4.606-10.706-3.07-2.867-6.7-4.3-10.888-4.3-4.067-.082-7.686 1.342-10.858 4.27-3.172 2.928-4.718 6.466-4.636 10.614 0 3.7 1.19 6.842 3.568 9.424 2.38 2.583 5.195 4.097 8.449 4.545l-8.967 12.139h12.383zm.06-20.862c-1.423 0-2.633-.488-3.629-1.464s-1.494-2.217-1.494-3.721c0-1.505.498-2.766 1.494-3.782.996-1.017 2.206-1.525 3.63-1.525 1.423 0 2.633.508 3.63 1.525.995 1.016 1.494 2.277 1.494 3.782 0 1.464-.488 2.694-1.464 3.69-.976.997-2.196 1.495-3.66 1.495zm31.405 20.862l10.065-13.481c1.912-2.603 3.294-4.779 4.148-6.527.895-1.749 1.342-3.742 1.342-5.978 0-4.27-1.535-7.839-4.605-10.706-3.07-2.867-6.7-4.3-10.889-4.3-4.066-.082-7.686 1.342-10.858 4.27-3.172 2.928-4.717 6.466-4.636 10.614 0 3.7 1.19 6.842 3.569 9.424 2.379 2.583 5.195 4.097 8.448 4.545l-8.967 12.139h12.383zm.061-20.862c-1.423 0-2.633-.488-3.63-1.464-.995-.976-1.494-2.217-1.494-3.721 0-1.505.499-2.766 1.495-3.782.996-1.017 2.206-1.525 3.63-1.525 1.423 0 2.633.508 3.629 1.525.996 1.016 1.494 2.277 1.494 3.782 0 1.464-.488 2.694-1.464 3.69-.976.997-2.196 1.495-3.66 1.495zm33.845 21.594c5.287 0 9.394-1.973 12.322-5.917 2.928-3.945 4.392-9.028 4.392-15.25 0-6.14-1.454-11.102-4.361-14.884-2.908-3.782-7.025-5.673-12.353-5.673-5.327 0-9.445 1.89-12.352 5.673-2.908 3.782-4.362 8.743-4.362 14.884 0 6.222 1.464 11.305 4.392 15.25 2.928 3.944 7.036 5.917 12.322 5.917zm0-9.638c-3.985 0-5.978-3.823-5.978-11.468 0-3.782.488-6.558 1.464-8.327.976-1.769 2.48-2.653 4.514-2.653 2.034 0 3.538.884 4.514 2.653.976 1.77 1.464 4.545 1.464 8.327 0 7.645-1.992 11.468-5.978 11.468z"/></g><path d="M161.11 196v-2.33h1.13c.693 0 1.263-.2 1.71-.6.447-.4.67-.913.67-1.54 0-.633-.223-1.147-.67-1.54-.447-.393-1.017-.59-1.71-.59h-2.48v6.6h1.35zm1.13-3.51h-1.13v-1.9h1.13c.3 0 .542.087.725.26.183.173.275.4.275.68 0 .287-.088.518-.265.695-.177.177-.422.265-.735.265zm6.738 3.63c.954.02 1.782-.31 2.485-.99.704-.68 1.049-1.49 1.035-2.43.014-.94-.331-1.75-1.035-2.43-.703-.68-1.531-1.01-2.485-.99-.953-.02-1.778.31-2.475.99-.696.68-1.038 1.49-1.025 2.43-.013.94.329 1.75 1.025 2.43.697.68 1.522 1.01 2.475.99zm.01-1.25c-.613 0-1.12-.203-1.52-.61-.4-.407-.6-.927-.6-1.56s.2-1.153.6-1.56c.4-.407.907-.61 1.52-.61.607 0 1.112.205 1.515.615.404.41.605.928.605 1.555 0 .633-.201 1.153-.605 1.56-.403.407-.908.61-1.515.61zm6.159 1.13v-2.33h.99l1.71 2.33h1.52l-1.87-2.59a2.029 2.029 0 001.16-1.88c0-.633-.224-1.147-.67-1.54-.447-.393-1.017-.59-1.71-.59h-2.48v6.6h1.35zm1.13-3.52h-1.13v-1.89h1.13c.3 0 .541.087.725.26.183.173.275.4.275.68 0 .287-.089.517-.265.69-.177.173-.422.26-.735.26zm9.376 3.52v-6.6h-.45l-2.47.81.32 1.19 1.25-.4v5h1.35zm5.107 0l.37-.86h2.7l.37.86h1.45l-2.94-6.72h-.45l-2.95 6.72h1.45zm2.6-1.97h-1.76l.88-2.23.88 2.23zm6.998-5.28c.327 0 .6-.125.82-.375.22-.25.33-.575.33-.975 0-.02-.006-.13-.02-.33h-1.03v.12c0 .227-.093.34-.28.34-.126 0-.276-.057-.45-.17l-.3-.18c-.26-.14-.506-.21-.74-.21-.333 0-.61.125-.83.375-.22.25-.33.572-.33.965 0 .027.007.14.02.34h1.03v-.12c0-.22.094-.33.28-.33.1 0 .247.057.44.17l.3.16c.267.147.52.22.76.22zm1.97 7.37v-6.72h-1.35v3.94l-3.83-4.06h-.44V196h1.35v-3.96l3.82 4.08h.45zm4.789 0c.953.02 1.781-.31 2.485-.99.703-.68 1.048-1.49 1.035-2.43.013-.94-.332-1.75-1.035-2.43-.704-.68-1.532-1.01-2.485-.99-.954-.02-1.779.31-2.475.99-.697.68-1.039 1.49-1.025 2.43-.014.94.328 1.75 1.025 2.43.696.68 1.521 1.01 2.475.99zm.01-1.25c-.614 0-1.12-.203-1.52-.61-.4-.407-.6-.927-.6-1.56s.2-1.153.6-1.56c.4-.407.906-.61 1.52-.61.606 0 1.111.205 1.515.615.403.41.605.928.605 1.555 0 .633-.202 1.153-.605 1.56-.404.407-.909.61-1.515.61zM34.431 23.192V12.44h-2.16v6.304l-6.127-6.496h-.704V23h2.16v-6.336l6.112 6.528h.72zm6.7 0c1.302 0 2.374-.416 3.217-1.248.842-.832 1.264-1.936 1.264-3.312V12.44h-2.16v6.352c0 .757-.211 1.347-.632 1.768-.422.421-.984.632-1.688.632-.694 0-1.254-.21-1.68-.632-.427-.421-.64-1.01-.64-1.768V12.44h-2.16v6.192c0 1.376.418 2.48 1.255 3.312.838.832 1.913 1.248 3.225 1.248zM55.145 23v-1.952h-5.136v-2.672h3.632v-1.84h-3.633v-2.144h4.945V12.44h-7.104V23h7.296zm6.204.192l4.704-10.752h-2.433l-2.623 6.4-2.64-6.4h-2.448l4.72 10.752h.72zm11 0c1.406-.036 2.636-.564 3.692-1.584 1.125-1.088 1.677-2.384 1.656-3.888.02-1.504-.531-2.8-1.656-3.888-1.126-1.088-2.451-1.616-3.977-1.584-1.525-.032-2.845.496-3.96 1.584-1.114 1.088-1.66 2.384-1.64 3.888-.02 1.504.526 2.8 1.64 3.888 1.115 1.088 2.435 1.616 3.96 1.584h.284zm-.268-2c-.982 0-1.793-.325-2.433-.976-.64-.65-.96-1.483-.96-2.496s.32-1.845.96-2.496c.64-.65 1.451-.976 2.433-.976.97 0 1.778.328 2.424.984.645.656.968 1.485.968 2.488 0 1.013-.323 1.845-.968 2.496-.646.65-1.454.976-2.425.976zM85.96 23v-3.728h1.807c1.11 0 2.022-.32 2.736-.96.715-.64 1.072-1.461 1.072-2.464 0-1.013-.357-1.835-1.072-2.464-.714-.63-1.626-.944-2.736-.944H83.8V23h2.16zm1.807-5.616H85.96v-3.04h1.808c.48 0 .867.139 1.16.416.294.277.44.64.44 1.088 0 .459-.14.83-.424 1.112-.282.283-.674.424-1.176.424zM99.987 23v-1.952h-4.624V12.44h-2.16V23h6.784zm2.813 0l.591-1.376h4.32l.592 1.376h2.32l-4.704-10.752h-.72L100.48 23h2.32zm4.16-3.152h-2.817l1.408-3.568 1.408 3.568zm13.995 3.344V12.44h-2.16v6.304l-6.128-6.496h-.704V23h2.16v-6.336l6.112 6.528h.72z" fill="#4D008C" fill-rule="nonzero"/></g></g></svg>