<svg xmlns="http://www.w3.org/2000/svg" xmlns:xlink="http://www.w3.org/1999/xlink" width="254" height="252" fill="none" xmlns:v="https://vecta.io/nano"><path d="M0 50H250V252H0V50Z" fill="#4f008c"/><path d="M4 40H254V247H4V40Z" fill="#fff"/><path d="M74.298 63.424v-8.138c0-3.016-2.054-5.018-5.33-5.018-3.302 0-5.33 2.002-5.33 5.018v8.138c0 2.99 2.028 5.018 5.33 5.018 3.276 0 5.33-2.028 5.33-5.018zm-3.38.182c0 .962-.702 1.742-1.95 1.742-1.222 0-1.95-.78-1.95-1.742v-8.528c0-.962.728-1.742 1.95-1.742 1.248 0 1.95.78 1.95 1.742v8.528zM92.391 68v-8.892h-5.564v2.548h2.028v1.794c0 .936-.676 1.846-2.054 1.846-1.326 0-2.028-.91-2.028-1.846v-8.216c0-.962.65-1.846 2.002-1.846 1.378 0 1.95.832 1.95 1.794v1.404h3.588v-1.3c0-2.704-1.872-5.018-5.564-5.018s-5.746 2.444-5.746 5.018v8.112c0 2.678 1.742 5.044 5.174 5.044 1.638 0 3.042-.728 3.718-2.028L90.363 68h2.028zm5.944 0V50.684h-3.718V68h3.718zm13.734 0v-8.892h-5.564v2.548h2.028v1.794c0 .936-.676 1.846-2.054 1.846-1.326 0-2.028-.91-2.028-1.846v-8.216c0-.962.65-1.846 2.002-1.846 1.378 0 1.95.832 1.95 1.794v1.404h3.588v-1.3c0-2.704-1.872-5.018-5.564-5.018s-5.746 2.444-5.746 5.018v8.112c0 2.678 1.742 5.044 5.174 5.044 1.638 0 3.042-.728 3.718-2.028l.468 1.586h2.028zm13.302 0l-4.03-17.316h-4.16L113.125 68h3.484l.728-3.432h3.588l.728 3.432h3.718zm-4.94-6.188h-2.548l1.326-6.318 1.222 6.318zm16.785 1.378c0-2.522-1.69-3.874-4.108-5.2-2.21-1.144-3.198-1.82-3.198-3.042 0-1.04.702-1.716 1.794-1.716 1.3 0 1.95.91 1.95 2.08v.546h3.354v-.702c0-2.756-2.106-4.888-5.278-4.888-3.536 0-5.434 2.392-5.434 5.044s2.21 4.03 4.29 5.148c2.002 1.04 2.99 1.794 2.99 3.042 0 1.196-.65 1.95-1.976 1.95-1.352 0-2.08-.78-2.08-2.236v-.572h-3.406v.884c0 2.964 2.158 4.914 5.564 4.914 3.458 0 5.538-2.444 5.538-5.252z" fill="#e92070"/><path d="M22.74 60.191v-1.71c0-1.9-1.121-3.135-3.249-3.135h-4.579V68h2.717v-4.693h1.862c2.128 0 3.249-1.235 3.249-3.116zm-2.603.038c0 .684-.266 1.064-.969 1.064h-1.539v-3.819h1.539c.703 0 .969.38.969 1.064v1.691zM31.03 68v-2.337h-4.161V55.346h-2.717V68h6.878zm9.343 0l-2.945-12.654h-3.04L31.424 68h2.546l.532-2.508h2.622L37.656 68h2.717zm-3.61-4.522h-1.862l.969-4.617.893 4.617zM49.808 68V55.346h-2.451v7.258l-1.026-2.071-2.717-5.187h-2.261V68h2.489v-7.144l1.083 2.071L47.718 68h2.09z" fill="#4f008c"/><path d="M243.5 60h.5v-1h-.5v1zm-68.354-.854a.5.5 0 0 0 0 .707l3.182 3.182a.5.5 0 1 0 .708-.707l-2.829-2.828 2.829-2.828a.5.5 0 1 0-.708-.707l-3.182 3.182zM243.5 59h-68v1h68v-1z" fill="#ff2083"/><g fill="#4f008c"><path d="M22.531 88.518v-1.802H21.46v-7.038h-1.904l-4.318 7.276v1.564h4.165V91h2.057v-2.482h1.071zm-3.128-1.802h-2.074l2.074-3.57v3.57z"/><use xlink:href="#B"/><use xlink:href="#B" x="7.933"/><path d="M51.455 91V79.678h-3.247l-1.343 5.763-.425 1.989-.408-1.989-1.36-5.763h-3.264V91h2.176v-8.024l.544 2.567L45.42 91h1.819l1.36-5.457.561-2.567V91h2.295zm3.555 0V79.678h-2.431V91h2.431zm8.718 0V79.678h-2.193v6.494l-.918-1.853-2.431-4.641h-2.023V91h2.227v-6.392l.969 1.853L61.858 91h1.87zm8.476-2.89v-8.432h-2.363v8.398c0 .765-.459 1.19-1.275 1.19-.799 0-1.241-.425-1.241-1.19v-8.398H64.86v8.432c0 1.887 1.564 3.179 3.706 3.179 2.159 0 3.638-1.292 3.638-3.179zm7.818-6.358v-2.074h-7.31v2.074h2.448V91h2.431v-9.248h2.431z"/><path d="M87.739 87.821v-4.964c0-2.006-1.377-3.451-3.723-3.451-2.329 0-3.723 1.445-3.723 3.451v4.964c0 2.023 1.394 3.468 3.723 3.468 2.346 0 3.723-1.445 3.723-3.468zm-2.448.136c0 .765-.459 1.275-1.275 1.275-.799 0-1.258-.51-1.258-1.275v-5.236c0-.765.459-1.275 1.258-1.275.816 0 1.275.51 1.275 1.275v5.236zm10.355-.102c0-1.649-1.105-2.533-2.686-3.4-1.445-.748-2.091-1.19-2.091-1.989 0-.68.459-1.122 1.173-1.122.85 0 1.275.595 1.275 1.36v.357h2.193v-.459c0-1.802-1.377-3.196-3.451-3.196-2.312 0-3.553 1.564-3.553 3.298s1.445 2.635 2.805 3.366c1.309.68 1.955 1.173 1.955 1.989 0 .782-.425 1.275-1.292 1.275-.884 0-1.36-.51-1.36-1.462v-.374h-2.227v.578c0 1.938 1.411 3.213 3.638 3.213 2.261 0 3.621-1.598 3.621-3.434zM145.483 85v-8.658h-1.859V85h1.859zm6.17 0v-1.599h-2.847v-7.059h-1.859V85h4.706zm2.85 0v-8.658h-1.859V85h1.859zm9.147 0v-8.658h-2.483l-1.027 4.407-.325 1.521-.312-1.521-1.04-4.407h-2.496V85h1.664v-6.136l.416 1.963.988 4.173h1.391l1.04-4.173.429-1.963V85h1.755zm3.301 0v-8.658h-1.859V85h1.859zm6.573-7.072v-1.586h-5.59v1.586h1.872V85h1.859v-7.072h1.859zM179.625 85l-2.015-8.658h-2.08L173.502 85h1.742l.364-1.716h1.794l.364 1.716h1.859zm-2.47-3.094h-1.274l.663-3.159.611 3.159zm8.982.598v-3.562c0-1.443-.962-2.6-2.756-2.6h-2.886V85h2.886c1.794 0 2.756-1.04 2.756-2.496zm-1.859-.143c0 .689-.325 1.092-1.04 1.092h-.884v-5.564h.884c.715 0 1.04.403 1.04 1.092v3.38zm8.824.208v-3.796c0-1.534-1.053-2.639-2.847-2.639-1.781 0-2.847 1.105-2.847 2.639v3.796c0 1.547 1.066 2.652 2.847 2.652 1.794 0 2.847-1.105 2.847-2.652zm-1.872.104c0 .585-.351.975-.975.975-.611 0-.962-.39-.962-.975v-4.004c0-.585.351-.975.962-.975.624 0 .975.39.975.975v4.004zM144.837 94v-7.326h-1.364V94h1.364zm5.191 0v-7.326h-1.232v4.345l-.484-1.166-1.353-3.179h-1.177V94h1.254v-4.29l.517 1.166L148.972 94h1.056zm4.958-1.749v-.891h-1.221v.88c0 .429-.242.726-.737.726s-.748-.297-.748-.704v-3.85c0-.407.253-.704.748-.704s.737.297.737.726v.88h1.221v-.891c0-1.1-.682-1.914-1.98-1.914-1.309 0-2.112.88-2.112 2.013v3.63c0 1.133.803 2.013 2.112 2.013 1.298 0 1.98-.814 1.98-1.914zM159.161 94v-1.21h-2.046v-6.116h-1.364V94h3.41zm4.592-1.694v-5.632h-1.331v5.632c0 .429-.242.671-.693.671-.44 0-.682-.242-.682-.671v-5.632h-1.386v5.632c0 1.1.88 1.859 2.068 1.859s2.024-.759 2.024-1.859zm5.083-5.632h-1.364l-.902 2.981-.946-2.981h-1.43l1.617 4.334V94h1.364v-2.992l1.661-4.334zM172.763 94v-1.221h-2.134v-2.035h1.474v-1.078h-1.474v-1.815h2.134v-1.177h-3.498V94h3.498zm5.831 0v-1.21h-2.046v-6.116h-1.364V94h3.41zm4.018 0v-1.21h-2.046v-6.116h-1.364V94h3.41zm4.676 0l-1.463-7.326h-1.529L182.822 94h1.276l.264-1.441h1.298l.242 1.441h1.386zm-1.804-2.519h-.935l.495-2.827.44 2.827zM193.449 94v-7.326h-1.826l-.748 3.718-.242 1.353-.231-1.353-.759-3.718h-1.837V94h1.221v-5.313l.286 1.595.737 3.718h1.034l.781-3.718.297-1.595V94h1.287zm4.968 0l-1.463-7.326h-1.529L193.951 94h1.276l.264-1.441h1.298l.242 1.441h1.386zm-1.804-2.519h-.935l.495-2.827.44 2.827zm6.436.605v-3.432c0-1.155-.715-1.98-2.002-1.98h-2.112V94h2.112c1.287 0 2.002-.748 2.002-1.914zm-1.375-.066c0 .517-.22.803-.726.803h-.649v-4.972h.649c.506 0 .726.286.726.814v3.355zM207.87 94l-1.463-7.326h-1.529L203.404 94h1.276l.264-1.441h1.298l.242 1.441h1.386zm-1.804-2.519h-.935l.495-2.827.44 2.827zm6.161.66c0-.99-.616-1.65-1.485-2.299-.814-.594-1.177-.913-1.177-1.529 0-.407.264-.66.66-.66.462 0 .693.33.693.781v.44h1.243v-.473c0-1.089-.77-1.881-1.925-1.881-1.32 0-2.002.913-2.002 1.969 0 1.023.814 1.749 1.562 2.288.726.539 1.1.935 1.1 1.518 0 .451-.242.737-.726.737-.495 0-.748-.297-.748-.836v-.429h-1.254v.506c0 1.144.781 1.892 2.035 1.892 1.21 0 2.024-.847 2.024-2.024z"/></g><path d="M114.54 86.319v-1.871h-2.345V82h-1.85v2.447H108v1.871h2.345v2.447h1.85v-2.447h2.345z" fill="#e92070"/><g fill-rule="evenodd"><path d="M125.533 91.6l.3.166C127.067 92.534 128.5 93 130 93c4.366 0 8-3.633 8-8.067S134.366 77 129.966 77 122 80.533 122 84.933c0 1.533.433 3.034 1.233 4.3l.2.3-.766 2.8 2.866-.733z" fill="#00a655"/><path d="M127.4 80.467l-.634-.034c-.2 0-.399.067-.533.2-.3.267-.8.767-.933 1.434-.234 1 .133 2.2 1 3.4s2.533 3.133 5.466 3.967c.934.267 1.667.1 2.267-.266.467-.3.767-.767.867-1.267l.1-.466c.033-.133-.033-.3-.167-.367l-2.1-.967c-.133-.067-.299-.034-.4.1l-.833 1.067a.26.26 0 0 1-.267.066c-.566-.2-2.467-1-3.5-3-.033-.1-.033-.2.034-.267l.8-.9c.066-.1.099-.233.066-.334l-.967-2.166a.29.29 0 0 0-.266-.2z" fill="#fefefe"/></g><path fill="#4f008c" d="M14 101h230v40H14z"/><path d="M87.994 121.698a7.7 7.7 0 0 1-7.698 7.698c-4.24 0-7.698-3.438-7.698-7.698 0-4.239 3.439-7.698 7.698-7.698 4.24 0 7.698 3.459 7.698 7.698z" fill="#0076f4"/><path d="M81.995 118.24h.977v-1.642c-.176-.018-.742-.078-1.426-.078-1.426 0-2.384.86-2.384 2.423v1.349h-1.602v1.836h1.602v4.709h1.915v-4.709h1.602l.234-1.836h-1.837v-1.173c0-.508.137-.879.918-.879z" fill="#fff"/><path d="M111.389 121.698a7.7 7.7 0 0 1-7.698 7.698c-4.239 0-7.698-3.438-7.698-7.698 0-4.239 3.439-7.698 7.698-7.698s7.698 3.459 7.698 7.698z" fill="#00a8f2"/><path d="M107.208 120.272c-.058 3.009-1.973 5.1-4.885 5.217-1.191.058-2.051-.332-2.852-.782.859.137 1.992-.194 2.579-.723-.86-.058-1.387-.527-1.661-1.25.274.059.528 0 .723 0-.8-.254-1.329-.723-1.387-1.759.196.137.469.196.723.196-.586-.332-.996-1.583-.528-2.365.86.919 1.915 1.701 3.635 1.838-.469-1.838 2.052-2.814 3.048-1.563.468-.059.801-.255 1.133-.392-.137.45-.391.723-.723.977.332-.058.664-.137.918-.254-.058.333-.391.606-.723.86z" fill="#fff"/><path d="M64.597 121.698a7.7 7.7 0 0 1-7.698 7.698c-4.24 0-7.698-3.438-7.698-7.698 0-4.239 3.439-7.698 7.698-7.698s7.698 3.459 7.698 7.698z" fill="#fdf700"/><path d="M52.912 123.711c.273-.039.528-.137.762-.293.195-.117.371-.274.528-.469.274-.313.41-.626.43-.664v-.02c.078-.137.078-.254.039-.352-.078-.195-.332-.274-.528-.332l-.039-.019c-.039 0-.059-.02-.078-.04-.137-.059-.215-.097-.274-.156-.078-.078-.098-.137-.078-.196s.059-.117.137-.155c.098-.059.215-.079.293-.04.254.117.449.157.586.078.039-.02.059-.058.059-.097 0-.059-.02-.117-.02-.196v-.02c-.039-.547-.078-1.23.098-1.621.137-.273.293-.508.488-.703.176-.156.352-.293.586-.372.391-.175.742-.195.918-.195h.156c.176 0 .528.02.918.195a2.34 2.34 0 0 1 .586.372c.195.195.371.41.488.703.176.391.137 1.074.098 1.603v.038c0 .039-.02.079-.02.118v.058c0 .039.02.079.059.097a.36.36 0 0 0 .156.04h.019c.117 0 .234-.04.391-.098.059-.019.098-.019.137-.019.059 0 .098.019.156.039.117.038.195.137.195.214 0 .04-.02.079-.078.137s-.156.117-.293.176c-.02.02-.059.02-.078.02l-.039.02c-.176.058-.43.136-.527.331-.039.098-.039.216.039.372v.02c.098.214.625 1.25 1.719 1.426.039.02.078.038.078.097v.04c-.039.077-.098.136-.234.194a2.61 2.61 0 0 1-.782.196c-.039.02-.059.039-.078.059-.02.038-.039.097-.059.195l-.02.059c-.02.039-.02.097-.039.137-.02.059-.059.077-.117.077-.039 0-.078 0-.176-.018-.117-.02-.274-.059-.449-.059-.117 0-.215 0-.332.039-.215.038-.43.175-.645.312-.293.196-.606.43-1.094.43h-.098c-.488 0-.801-.234-1.114-.43-.195-.137-.391-.274-.625-.312-.098-.02-.215-.039-.332-.039-.195 0-.332.039-.449.059h-.02c-.059.018-.117.018-.176.018s-.098-.018-.137-.077l-.078-.176-.019-.04-.059-.195c-.02-.039-.039-.059-.078-.059a5.35 5.35 0 0 1-.801-.194c-.117-.059-.195-.118-.234-.176-.02-.02-.02-.04-.02-.04v-.039c.137-.02.156-.038.195-.058z" fill="#fff" stroke="#201712" stroke-width=".222"/><path d="M33.601 129.201c4.198 0 7.601-3.404 7.601-7.601a7.6 7.6 0 1 0-15.201 0c0 4.197 3.403 7.601 7.6 7.601z" fill="url(#A)"/><g fill="#fff"><path d="M31.626 117.262h3.927c1.348 0 2.423 1.076 2.423 2.404v3.888c0 1.309-1.094 2.384-2.423 2.384h-3.927c-1.329-.019-2.423-1.075-2.423-2.404v-3.887c0-1.309 1.094-2.385 2.423-2.385zm3.929 7.914c.899 0 1.641-.723 1.641-1.622v-3.888c0-.899-.742-1.622-1.641-1.622h-3.927c-.899 0-1.641.723-1.641 1.622v3.888c0 .899.742 1.622 1.641 1.622h3.927zm-4.22-3.576c0-1.23 1.016-2.228 2.266-2.228a2.26 2.26 0 0 1 2.267 2.228c0 1.231-1.016 2.227-2.267 2.227s-2.266-.996-2.266-2.227zm.78 0a1.48 1.48 0 0 0 1.485 1.465 1.48 1.48 0 0 0 1.485-1.465 1.48 1.48 0 0 0-1.485-1.465 1.48 1.48 0 0 0-1.485 1.465z" fill-rule="evenodd"/><path d="M35.944 118.708a.63.63 0 0 0-.41.157.6.6 0 0 0-.176.39c0 .157.059.293.176.392.098.097.254.155.41.155s.293-.058.41-.155c.098-.099.176-.255.176-.392a.49.49 0 0 0-.176-.39.63.63 0 0 0-.41-.157zM142.3 123v-3.92h-6.12v-9.4h-5.48V123h11.6zm9.321 0v-13.32h-5.48V123h5.48zm17.095-3.28v-.5c0-1.42-.78-2.52-2.84-2.92 1.98-.38 2.8-1.64 2.8-2.92V113c0-1.88-1.34-3.32-4.46-3.32h-8.2V123h8.32c3.1 0 4.38-1.44 4.38-3.28zm-5.34-5.2c0 .54-.32.76-1.02.76h-.84v-2.2h.84c.7 0 1.02.22 1.02.74v.7zm0 4.36c0 .54-.32.76-1.02.76h-.84v-2.2h.84c.7 0 1.02.22 1.02.76v.68zm22.631 4.12v-.14a3.69 3.69 0 0 1-.6-2.08v-1.7c0-1.22-.6-2.3-2.36-2.52 1.62-.36 2.44-1.42 2.44-2.7v-.8c0-1.98-1.72-3.38-4.72-3.38h-8.04V123h5.48v-4.86h.84c.82 0 1 .44 1 1.14v1.66c0 1.08.54 2.06 1.22 2.06h4.74zm-5.94-8.24c0 .58-.3.88-1.02.88h-.84v-2.52h.84c.72 0 1.02.22 1.02.8v.84zm21.305 8.24v-3.94h-6.16v-1.64h3.88V115h-3.88v-1.64h6.16v-3.68h-11.66V123h11.66zm16.535-4.12c0-4.38-7.5-4.12-7.5-5.5 0-.44.44-.64 1.1-.64 1.06 0 2.64.58 4.04 1.48l2.36-2.6c-1.3-1.22-3.36-2.36-6.56-2.36-3.98 0-5.98 2-5.98 4.38 0 4.4 7.34 4.28 7.34 5.66 0 .46-.42.64-1.3.64-1.22 0-3.14-.76-4.6-1.9l-2.32 2.94c1.54 1.4 4.16 2.44 7.06 2.44 4.24 0 6.36-1.98 6.36-4.54z"/></g><path d="M14 209v22.5h230V209" stroke="#e92070"/><g fill="#fff"><path d="M135.52 129.068v-1.08c0-1.2-.708-1.98-2.052-1.98h-2.892V134h1.716v-2.964h1.176c1.344 0 2.052-.78 2.052-1.968zm-1.644.024c0 .432-.168.672-.612.672h-.972v-2.412h.972c.444 0 .612.24.612.672v1.068z"/><use xlink:href="#C"/><use xlink:href="#D"/><path d="M161.472 134l-1.86-7.992h-1.92L155.82 134h1.608l.336-1.584h1.656l.336 1.584h1.716zm-2.28-2.856h-1.176l.612-2.916.564 2.916zm8.139 2.856v-7.992h-1.548v4.584l-.648-1.308-1.716-3.276h-1.428V134h1.572v-4.512l.684 1.308 1.764 3.204h1.32zm-.936-9.684a.91.91 0 0 0-.18-.54h-.552v.288c0 .192-.084.3-.288.3-.348 0-.888-.6-1.548-.6-.684 0-.996.42-.996 1.02 0 .216.06.372.18.528h.552v-.288c0-.18.084-.3.276-.3.36 0 .9.612 1.548.612.696 0 1.008-.42 1.008-1.02z"/><use xlink:href="#C" x="32.083"/><path d="M180.967 134v-1.5h-2.736v-2.004h1.884V129.2h-1.884v-1.752h2.736v-1.44h-4.452V134h4.452zm6.155 0v-7.992h-1.548v4.584l-.648-1.308-1.716-3.276h-1.428V134h1.572v-4.512l.684 1.308 1.764 3.204h1.32z"/><use xlink:href="#D" x="47.726"/><path d="M200.594 134v-1.5h-2.736v-2.004h1.884V129.2h-1.884v-1.752h2.736v-1.44h-4.452V134h4.452zm6.024-2.304v-3.288c0-1.332-.888-2.4-2.544-2.4h-2.664V134h2.664c1.656 0 2.544-.96 2.544-2.304zm-1.716-.132c0 .636-.3 1.008-.96 1.008h-.816v-5.136h.816c.66 0 .96.372.96 1.008v3.12zm9.415.684v-1.272h-.756v-4.968h-1.344l-3.048 5.136v1.104h2.94V134h1.452v-1.752h.756zm-2.208-1.272h-1.464l1.464-2.52v2.52zm8.024 3.024v-4.104h-2.568v1.176h.936v.828c0 .432-.312.852-.948.852-.612 0-.936-.42-.936-.852v-3.792c0-.444.3-.852.924-.852.636 0 .9.384.9.828v.648h1.656v-.6c0-1.248-.864-2.316-2.568-2.316s-2.652 1.128-2.652 2.316v3.744c0 1.236.804 2.328 2.388 2.328.756 0 1.404-.336 1.716-.936l.216.732h.936zm-67.033-8v8.267h-1.45v-6c-.6.36-1.15.608-1.65.719v-1.161c1.175-.277 1.975-.885 2.45-1.825h.65z"/></g><path d="M78.496 160.32h22.272v1.728L86.272 192h-7.056l12.864-25.824H78.496v-5.856zm20.869 27.792c0-1.248.432-2.304 1.296-3.168s1.936-1.296 3.216-1.296c1.248 0 2.288.432 3.12 1.296.864.864 1.296 1.92 1.296 3.168 0 1.28-.416 2.352-1.248 3.216-.832.832-1.888 1.248-3.168 1.248s-2.352-.416-3.216-1.248c-.864-.864-1.296-1.936-1.296-3.216zm35.412-16.992c0 1.76-.352 3.328-1.056 4.704-.64 1.344-1.744 3.088-3.312 5.232L122.537 192h-7.68l7.344-10.176h-.24c-2.688.064-5.12-.96-7.296-3.072-2.176-2.144-3.232-4.704-3.168-7.68-.064-3.136 1.072-5.824 3.408-8.064 2.368-2.24 5.104-3.328 8.208-3.264 3.168 0 5.904 1.088 8.208 3.264s3.456 4.88 3.456 8.112zm-7.968 3.744c1.024-1.024 1.536-2.288 1.536-3.792s-.512-2.768-1.536-3.792c-.992-1.056-2.224-1.584-3.696-1.584-1.44 0-2.672.512-3.696 1.536s-1.536 2.304-1.536 3.84c0 1.504.512 2.768 1.536 3.792s2.256 1.536 3.696 1.536c1.472 0 2.704-.512 3.696-1.536zm34.921-3.744c0 1.76-.352 3.328-1.056 4.704-.64 1.344-1.744 3.088-3.312 5.232L149.49 192h-7.68l7.344-10.176h-.24c-2.688.064-5.12-.96-7.296-3.072-2.176-2.144-3.232-4.704-3.168-7.68-.064-3.136 1.072-5.824 3.408-8.064 2.368-2.24 5.104-3.328 8.208-3.264 3.168 0 5.904 1.088 8.208 3.264s3.456 4.88 3.456 8.112zm-7.968 3.744c1.024-1.024 1.536-2.288 1.536-3.792s-.512-2.768-1.536-3.792c-.992-1.056-2.224-1.584-3.696-1.584-1.44 0-2.672.512-3.696 1.536s-1.536 2.304-1.536 3.84c0 1.504.512 2.768 1.536 3.792s2.256 1.536 3.696 1.536c1.472 0 2.704-.512 3.696-1.536zm12.457 1.056c0-4.864 1.072-8.768 3.216-11.712 2.144-2.976 5.264-4.464 9.36-4.464s7.2 1.488 9.312 4.464c2.144 2.944 3.216 6.848 3.216 11.712 0 4.896-1.088 8.896-3.264 12s-5.264 4.656-9.264 4.656c-4.032 0-7.136-1.552-9.312-4.656s-3.264-7.104-3.264-12zm18.432.048c0-6.816-1.952-10.224-5.856-10.224-3.936 0-5.904 3.408-5.904 10.224 0 7.072 1.968 10.608 5.904 10.608 3.904 0 5.856-3.536 5.856-10.608z" fill="#e92070"/><g fill="#4f008c"><path d="M94.121 202.092v-.972h-1.332v.96c0 .468-.264.792-.804.792s-.816-.324-.816-.768v-4.2c0-.444.276-.768.816-.768s.804.324.804.792v.96h1.332v-.972c0-1.2-.744-2.088-2.16-2.088-1.428 0-2.304.96-2.304 2.196v3.96c0 1.236.876 2.196 2.304 2.196 1.416 0 2.16-.888 2.16-2.088zm6.168 1.908l-1.596-7.992h-1.668L95.417 204h1.392l.288-1.572h1.416l.264 1.572h1.512zm-1.968-2.748h-1.02l.54-3.084.48 3.084zm8.129 2.796v-.444c-.18-.192-.288-.444-.288-.816v-1.464c0-.516-.3-1.044-.924-1.212.624-.192.9-.636.9-1.236v-1.128c0-1.116-.732-1.74-1.824-1.74h-2.46V204h1.488v-3.312h.78c.42 0 .612.312.612.684v1.5c0 .696.228 1.176.816 1.176h.9zm-1.764-5.1c0 .432-.204.636-.588.636h-.756v-2.352h.816c.372 0 .528.216.528.576v1.14zM112.58 204v-4.056h-2.22v1.08h.78v1.116c0 .396-.264.744-.792.744-.516 0-.792-.348-.792-.744v-4.26a.71.71 0 0 1 .78-.744c.528 0 .768.336.768.72v.888h1.428v-.828c0-1.128-.768-2.076-2.208-2.076s-2.28.984-2.28 2.076v4.176c0 1.152.732 2.088 2.052 2.088.648 0 1.2-.288 1.464-.816l.204.636h.816z"/><use xlink:href="#E"/><path d="M127.457 197.256v-1.248h-3.732V204h1.488v-3.396h1.656v-1.248h-1.656v-2.1h2.244zM130.62 204v-7.992h-1.488V204h1.488zm6.039-1.968v-6.024h-1.5v6.12c0 .492-.24.744-.672.744s-.684-.252-.684-.744v-1.308h-1.428v1.284c0 1.26.804 2.076 2.136 2.076 1.368 0 2.148-.876 2.148-2.148z"/><use xlink:href="#E" x="24.172"/><path d="M154.053 204v-7.992h-1.992l-.816 4.056-.264 1.476-.252-1.476-.828-4.056h-2.004V204h1.332v-5.796l.312 1.74.804 4.056h1.128l.852-4.056.324-1.74V204h1.404zm5.844 0v-1.332h-2.328v-2.22h1.608v-1.176h-1.608v-1.98h2.328v-1.284h-3.816V204h3.816zm6.421 0v-7.992h-1.344v4.74l-.528-1.272-1.476-3.468h-1.284V204h1.368v-4.68l.564 1.272 1.548 3.408h1.152zm6.228-2.028c0-1.08-.672-1.8-1.62-2.508-.888-.648-1.284-.996-1.284-1.668a.67.67 0 0 1 .72-.72c.504 0 .756.36.756.852v.48h1.356v-.516c0-1.188-.84-2.052-2.1-2.052-1.44 0-2.184.996-2.184 2.148 0 1.116.888 1.908 1.704 2.496.792.588 1.2 1.02 1.2 1.656 0 .492-.264.804-.792.804-.54 0-.816-.324-.816-.912v-.468h-1.368v.552c0 1.248.852 2.064 2.22 2.064 1.32 0 2.208-.924 2.208-2.208zm6.244.18v-6.144h-1.452v6.144c0 .468-.264.732-.756.732-.48 0-.744-.264-.744-.732v-6.144h-1.512v6.144c0 1.2.96 2.028 2.256 2.028s2.208-.828 2.208-2.028zm6.402 1.848l-1.596-7.992h-1.668L180.32 204h1.392l.288-1.572h1.416l.264 1.572h1.512zm-1.968-2.748h-1.02l.54-3.084.48 3.084zm7.253 2.748v-1.32h-2.232v-6.672h-1.488V204h3.72z"/></g><path d="M65.886 184.645v2.196h-2.124v-2.232c-1.452-.324-2.514-1.134-3.186-2.43l1.638-1.224c.696 1.092 1.602 1.638 2.718 1.638.48 0 .858-.09 1.134-.27.288-.18.432-.444.432-.792a.8.8 0 0 0-.324-.666c-.204-.18-.558-.372-1.062-.576l-1.224-.45c-1.788-.672-2.682-1.716-2.682-3.132a2.73 2.73 0 0 1 .702-1.872c.468-.528 1.086-.882 1.854-1.062v-2.16h2.124v2.124c1.2.252 2.094.942 2.682 2.07l-1.62 1.224c-.552-.816-1.242-1.224-2.07-1.224-.384 0-.696.078-.936.234s-.36.384-.36.684c0 .252.09.462.27.63.192.156.504.324.936.504l1.35.468c1.824.672 2.736 1.728 2.736 3.168 0 .828-.27 1.524-.81 2.088s-1.266.918-2.178 1.062zM4 10A10 10 0 0 1 14 0h230a10 10 0 0 1 10 10v30H4V10z" fill="#e92070"/><g fill="#fff"><path d="M57.924 18V8.76h3.626c1.036 0 1.89.294 2.562.882.672.579 1.008 1.344 1.008 2.296 0 .933-.341 1.699-1.022 2.296s-1.531.896-2.548.896h-1.218V18h-2.408zm2.408-4.97h1.232c.336 0 .602-.098.798-.294.205-.205.308-.471.308-.798s-.103-.588-.308-.784c-.196-.196-.462-.294-.798-.294h-1.232v2.17zM66.428 18V8.76h2.408v7.07h3.822V18h-6.23zm13.176 0l-.336-.77H75.95l-.336.77h-2.59l4.2-9.408h.77l4.2 9.408h-2.59zm-1.19-2.702l-.798-2.142-.812 2.142h1.61zM88.93 8.76h2.408v9.408h-.77l-5.012-4.858V18h-2.408V8.592h.77l5.012 4.788V8.76zM97.107 18V8.76h3.626c1.036 0 1.89.294 2.562.882.672.579 1.008 1.344 1.008 2.296 0 .933-.34 1.699-1.022 2.296s-1.53.896-2.548.896h-1.218V18h-2.408zm2.408-4.97h1.232c.336 0 .602-.098.798-.294.206-.205.308-.471.308-.798s-.102-.588-.308-.784c-.196-.196-.462-.294-.798-.294h-1.232v2.17zM113.787 18h-2.688l-2.086-2.87h-.994V18h-2.408V8.76h3.626c1.036 0 1.89.294 2.562.882.672.579 1.008 1.344 1.008 2.296 0 1.157-.485 2.035-1.456 2.632l2.436 3.43zm-5.768-7.14v2.17h1.232c.336 0 .602-.098.798-.294.206-.205.308-.471.308-.798s-.102-.588-.308-.784c-.196-.196-.462-.294-.798-.294h-1.232z"/><use xlink:href="#F"/><path d="M134.046 8.592h.77V18h-2.408v-3.878l-1.918 2.24h-.77l-1.904-2.226V18h-2.408V8.592h.77l3.934 4.802 3.934-4.802z"/><use xlink:href="#F" x="22.121"/><path d="M147.053 13.38c-.018-1.325.467-2.459 1.456-3.402a4.78 4.78 0 0 1 3.542-1.386c.924 0 1.755.219 2.492.658.738.429 1.316 1.036 1.736 1.82l-1.834 1.246c-.597-1.008-1.4-1.512-2.408-1.512-.737 0-1.344.238-1.82.714-.466.476-.7 1.101-.7 1.876 0 .756.234 1.377.7 1.862.486.467 1.092.7 1.82.7 1.008 0 1.811-.504 2.408-1.512l1.834 1.246c-.42.784-.998 1.395-1.736 1.834-.737.429-1.572.644-2.506.644a4.88 4.88 0 0 1-3.542-1.386c-.989-.943-1.47-2.077-1.442-3.402zM157.646 18V8.76h2.408V18h-2.408zm3.776-4.62c-.028-1.316.453-2.45 1.442-3.402a4.79 4.79 0 0 1 3.528-1.386c1.354-.028 2.53.434 3.528 1.386 1.008.952 1.498 2.086 1.47 3.402.028 1.325-.462 2.459-1.47 3.402a4.86 4.86 0 0 1-3.528 1.386c-1.362.019-2.538-.443-3.528-1.386s-1.47-2.077-1.442-3.402zm7.504 0c0-.756-.242-1.372-.728-1.848-.476-.485-1.073-.728-1.792-.728-.746 0-1.353.238-1.82.714s-.7 1.097-.7 1.862.234 1.391.7 1.876c.467.467 1.074.7 1.82.7.728 0 1.33-.238 1.806-.714s.714-1.097.714-1.862zm9.624-4.62h2.408v9.408h-.77l-5.012-4.858V18h-2.408V8.592h.77l5.012 4.788V8.76zm9.937 9.24l-.336-.77h-3.318l-.336.77h-2.59l4.2-9.408h.77l4.2 9.408h-2.59zm-1.19-2.702l-.798-2.142-.812 2.142h1.61zM192.031 18V8.76h2.408v7.07h3.822V18h-6.23zM53.672 25.08H55.1l-3.492 8.052h-.432l-3.492-8.052h1.428l2.28 5.508 2.28-5.508z"/><use xlink:href="#G"/><path d="M63.979 27.108h1.164v5.28c0 .92-.268 1.632-.804 2.136-.528.512-1.244.768-2.148.768a4.02 4.02 0 0 1-2.832-1.116l.696-.876c.696.56 1.384.84 2.064.84.544 0 .972-.144 1.284-.432.32-.288.48-.704.48-1.248v-.42c-.464.56-1.128.84-1.992.84-.824 0-1.508-.276-2.052-.828-.544-.56-.816-1.268-.816-2.124s.272-1.56.816-2.112c.544-.56 1.228-.84 2.052-.84.936 0 1.632.324 2.088.972v-.84zm-.084 2.808c0-.576-.168-1.02-.504-1.332-.336-.32-.76-.48-1.272-.48s-.94.168-1.284.504-.516.776-.516 1.32c0 .552.172 1 .516 1.344a1.79 1.79 0 0 0 1.284.504c.488 0 .904-.16 1.248-.48.352-.328.528-.788.528-1.38zm8.374.552h-4.392c.08.48.292.86.636 1.14.352.272.78.408 1.284.408.624 0 1.196-.232 1.716-.696l.6.864c-.664.632-1.448.948-2.352.948-.896 0-1.648-.292-2.256-.876a2.94 2.94 0 0 1-.912-2.196c-.016-.848.28-1.576.888-2.184.608-.616 1.328-.916 2.16-.9.776 0 1.424.26 1.944.78.52.512.78 1.152.78 1.92a3.8 3.8 0 0 1-.096.792zm-4.368-.984h3.204c-.008-.44-.156-.788-.444-1.044-.288-.264-.644-.396-1.068-.396a1.64 1.64 0 0 0-1.092.396c-.304.256-.504.604-.6 1.044z"/><use xlink:href="#H"/><path d="M80.339 30.048c-.016-.84.288-1.564.912-2.172.624-.616 1.36-.916 2.208-.9 1.104 0 1.932.456 2.484 1.368l-.888.696c-.416-.6-.944-.9-1.584-.9a1.75 1.75 0 0 0-1.32.552c-.352.368-.528.82-.528 1.356 0 .544.176 1 .528 1.368a1.75 1.75 0 0 0 1.32.552c.624 0 1.152-.296 1.584-.888l.888.684c-.264.432-.612.768-1.044 1.008s-.912.36-1.44.36a3.04 3.04 0 0 1-2.22-.9 2.97 2.97 0 0 1-.9-2.184z"/><use xlink:href="#G" x="31.055"/><path d="M95.094 29.436V33h-1.176v-.66c-.44.528-1.068.792-1.884.792-.616 0-1.112-.156-1.488-.468s-.564-.724-.564-1.236.196-.92.588-1.224.92-.456 1.584-.456h1.668v-.384c0-.408-.112-.72-.336-.936-.216-.216-.524-.324-.924-.324-.6 0-1.144.292-1.632.876l-.732-.744c.576-.84 1.404-1.26 2.484-1.26.736 0 1.32.216 1.752.648.44.432.66 1.036.66 1.812zm-1.272 1.332v-.108H92.31c-.696 0-1.044.24-1.044.72 0 .24.092.432.276.576.192.136.444.204.756.204.432 0 .792-.132 1.08-.396.296-.264.444-.596.444-.996zm11.537-1.452V33h-1.26v-3.504c0-.408-.116-.736-.348-.984-.232-.256-.544-.384-.936-.384s-.716.128-.972.384c-.248.256-.372.584-.372.984V33h-1.26v-9h1.26v3.696c.408-.48.976-.72 1.704-.72.664 0 1.192.216 1.584.648.4.424.6.988.6 1.692z"/><use xlink:href="#I"/><path d="M112.995 31.992l.72-.792c.536.56 1.088.84 1.656.84.28 0 .508-.056.684-.168.176-.12.264-.284.264-.492 0-.16-.06-.288-.18-.384-.12-.104-.336-.22-.648-.348l-.6-.252c-.536-.224-.928-.464-1.176-.72-.24-.264-.36-.596-.36-.996 0-.52.192-.932.576-1.236.392-.312.892-.468 1.5-.468.848 0 1.528.304 2.04.912l-.684.78c-.384-.4-.844-.6-1.38-.6s-.804.188-.804.564a.49.49 0 0 0 .168.372c.112.096.316.204.612.324l.564.228c.568.24.976.496 1.224.768.256.264.384.6.384 1.008 0 .568-.208 1.012-.624 1.332-.416.312-.936.468-1.56.468-1 0-1.792-.38-2.376-1.14zm9.517-.06V33c-.416.088-.764.132-1.044.132-.688 0-1.224-.172-1.608-.516-.376-.344-.564-.856-.564-1.536V28.2h-.96v-1.092h.96V25.56h1.272v1.548h1.752V28.2h-1.752v2.772c0 .368.092.632.276.792.192.152.488.228.888.228a9.22 9.22 0 0 0 .78-.06z"/><use xlink:href="#I" x="16.676"/><use xlink:href="#J"/><path d="M140.429 33v-9h1.26v9h-1.26zm11.462-2.544c0 .784-.284 1.428-.852 1.932-.56.496-1.24.744-2.04.744-.624 0-1.176-.152-1.656-.456-.48-.312-.856-.732-1.128-1.26l.888-.624c.512.784 1.132 1.176 1.86 1.176.48 0 .868-.136 1.164-.408.304-.28.456-.644.456-1.092s-.16-.792-.48-1.032c-.312-.24-.76-.36-1.344-.36h-.876v-.348l1.848-2.484h-2.952V25.08h4.932v.348l-1.92 2.592c.576.096 1.072.356 1.488.78.408.416.612.968.612 1.656zm3.623-5.376h.444V33h-1.272v-6.42l-1.608.516-.312-1.116 2.748-.9zM165.905 24h1.272v9h-1.176v-.84c-.456.648-1.144.972-2.064.972-.824 0-1.512-.292-2.064-.876-.544-.592-.816-1.324-.816-2.196-.016-.864.256-1.596.816-2.196a2.62 2.62 0 0 1 2.064-.888c.848 0 1.504.284 1.968.852V24zm-.492 7.476c.344-.336.516-.808.516-1.416s-.176-1.08-.528-1.416a1.7 1.7 0 0 0-1.248-.516 1.74 1.74 0 0 0-1.296.54c-.344.36-.516.82-.516 1.38s.172 1.024.516 1.392c.344.36.776.54 1.296.54.496 0 .916-.168 1.26-.504z"/><use xlink:href="#J" x="35.414"/><use xlink:href="#J" x="45.621"/><use xlink:href="#H" x="112.243"/><use xlink:href="#J" x="59.367"/><path d="M203.169 27.108v1.116h-.384c-.512 0-.928.144-1.248.432s-.48.688-.48 1.2V33h-1.26v-5.892h1.176v.768a2.09 2.09 0 0 1 1.716-.828c.16 0 .32.02.48.06zm.638 2.94c-.016-.84.284-1.564.9-2.172.624-.616 1.36-.916 2.208-.9.856-.016 1.596.284 2.22.9s.928 1.34.912 2.172c.016.84-.288 1.568-.912 2.184s-1.364.916-2.22.9c-.848.016-1.584-.284-2.208-.9-.616-.624-.916-1.352-.9-2.184zm4.944.012c0-.544-.176-1-.528-1.368-.352-.376-.784-.564-1.296-.564a1.72 1.72 0 0 0-1.308.564c-.352.368-.528.824-.528 1.368s.172 1 .516 1.368c.352.36.788.54 1.308.54s.956-.184 1.308-.552.528-.82.528-1.356z"/></g><path d="M61.4 50v18h-3.461V54.937c-1.432.783-2.745 1.324-3.939 1.565v-2.529c2.805-.602 4.715-1.926 5.848-3.973H61.4z" fill="#e92070"/><defs><radialGradient id="A" cx="0" cy="0" r="1" gradientUnits="userSpaceOnUse" gradientTransform="translate(30.4116 129.171) scale(15.341 15.3408)"><stop stop-color="#f9d173"/><stop offset=".246" stop-color="#ec9f55"/><stop offset=".379" stop-color="#ea5c3c"/><stop offset=".7" stop-color="#bc3082"/><stop offset=".972" stop-color="#6068ab"/><stop offset=".985" stop-color="#5c6bad"/></radialGradient><path id="B" d="M29.971 88.008v-5.321c0-1.972-1.343-3.281-3.485-3.281-2.159 0-3.485 1.309-3.485 3.281v5.321c0 1.955 1.326 3.281 3.485 3.281 2.142 0 3.485-1.326 3.485-3.281zm-2.21.119c0 .629-.459 1.139-1.275 1.139-.799 0-1.275-.51-1.275-1.139v-5.576c0-.629.476-1.139 1.275-1.139.816 0 1.275.51 1.275 1.139v5.576z"/><path id="C" d="M141.484 131.756v-3.504c0-1.416-.972-2.436-2.628-2.436-1.644 0-2.628 1.02-2.628 2.436v3.504c0 1.428.984 2.448 2.628 2.448 1.656 0 2.628-1.02 2.628-2.448zm-1.728.096c0 .54-.324.9-.9.9-.564 0-.888-.36-.888-.9v-3.696c0-.54.324-.9.888-.9.576 0 .9.36.9.9v3.696z"/><path id="D" d="M147.774 134.048v-.504c-.216-.192-.336-.444-.336-.816v-1.308c0-.552-.348-1.152-1.068-1.32.72-.192 1.032-.684 1.032-1.332v-.864c0-1.152-.78-1.896-2.076-1.896h-2.88V134h1.716v-3.264h.924c.492 0 .708.36.708.78v1.308c0 .744.264 1.224.96 1.224h1.02zm-2.028-5.208c0 .48-.24.708-.684.708h-.9v-2.196h.972c.444 0 .612.252.612.648v.84z"/><path id="E" d="M118.935 201.996v-3.984c0-1.26-.864-2.172-2.268-2.172-1.392 0-2.268.912-2.268 2.172v3.984c0 1.272.876 2.184 2.268 2.184 1.404 0 2.268-.912 2.268-2.184zm-1.5.096c0 .468-.276.78-.768.78-.48 0-.756-.312-.756-.78v-4.176c0-.468.276-.78.756-.78.492 0 .768.312.768.78v4.176z"/><path id="F" d="M114.063 13.38c-.028-1.316.453-2.45 1.442-3.402a4.79 4.79 0 0 1 3.528-1.386 4.79 4.79 0 0 1 3.528 1.386c1.008.952 1.498 2.086 1.47 3.402.028 1.325-.462 2.459-1.47 3.402-.999.943-2.175 1.405-3.528 1.386-1.363.019-2.539-.443-3.528-1.386s-1.47-2.077-1.442-3.402zm7.504 0c0-.756-.243-1.372-.728-1.848-.476-.485-1.073-.728-1.792-.728-.747 0-1.353.238-1.82.714s-.7 1.097-.7 1.862.233 1.391.7 1.876c.467.467 1.073.7 1.82.7.728 0 1.33-.238 1.806-.714s.714-1.097.714-1.862z"/><path id="G" d="M56.277 33v-5.892h1.26V33h-1.26zm.024-7.5a.78.78 0 0 1-.252-.588.78.78 0 0 1 .252-.588c.168-.168.372-.252.612-.252a.82.82 0 0 1 .6.252.78.78 0 0 1 .252.588.78.78 0 0 1-.252.588.84.84 0 0 1-.6.24c-.24 0-.444-.08-.612-.24z"/><path id="H" d="M78.956 29.316V33h-1.26v-3.516c0-.408-.12-.736-.36-.984-.232-.256-.54-.384-.924-.384-.392 0-.716.128-.972.384-.248.256-.372.584-.372.984V33h-1.26v-5.892h1.176v.576c.448-.472 1.036-.708 1.764-.708.68 0 1.216.212 1.608.636.4.424.6.992.6 1.704z"/><path id="I" d="M111.793 29.436V33h-1.176v-.66c-.44.528-1.068.792-1.884.792-.616 0-1.112-.156-1.488-.468s-.564-.724-.564-1.236.196-.92.588-1.224.92-.456 1.584-.456h1.668v-.384c0-.408-.112-.72-.336-.936-.216-.216-.524-.324-.924-.324-.6 0-1.144.292-1.632.876l-.732-.744c.576-.84 1.404-1.26 2.484-1.26.736 0 1.32.216 1.752.648.44.432.66 1.036.66 1.812zm-1.272 1.332v-.108h-1.512c-.696 0-1.044.24-1.044.72 0 .24.092.432.276.576.192.136.444.204.756.204.432 0 .792-.132 1.08-.396.296-.264.444-.596.444-.996z"/><path id="J" d="M138.89 30.468h-4.392c.08.48.292.86.636 1.14.352.272.78.408 1.284.408.624 0 1.196-.232 1.716-.696l.6.864c-.664.632-1.448.948-2.352.948-.896 0-1.648-.292-2.256-.876a2.94 2.94 0 0 1-.912-2.196c-.016-.848.28-1.576.888-2.184.608-.616 1.328-.916 2.16-.9.776 0 1.424.26 1.944.78.52.512.78 1.152.78 1.92 0 .232-.032.496-.096.792zm-4.368-.984h3.204c-.008-.44-.156-.788-.444-1.044-.288-.264-.644-.396-1.068-.396a1.64 1.64 0 0 0-1.092.396c-.304.256-.504.604-.6 1.044z"/></defs></svg>