<svg xmlns="http://www.w3.org/2000/svg" xmlns:xlink="http://www.w3.org/1999/xlink" width="260" height="426" fill="none" xmlns:v="https://vecta.io/nano"><path fill="#eff1f3" d="M0 48h260v43H0z"/><path d="M26.744 78l3.016-17.16h4.836c2.531 0 4.602.745 6.214 2.236 1.629 1.491 2.444 3.397 2.444 5.72.035 2.635-.919 4.836-2.86 6.604s-4.377 2.635-7.306 2.6h-6.344zm4.056-3.146l2.522-.026c1.872 0 3.397-.546 4.576-1.638s1.768-2.496 1.768-4.212c0-1.525-.485-2.73-1.456-3.614-.953-.901-2.245-1.352-3.874-1.352h-1.638L30.8 74.854zm14.569-4.836a8.56 8.56 0 0 1 1.3-4.732 9.75 9.75 0 0 1 3.614-3.51c1.525-.867 3.137-1.283 4.836-1.248 2.392-.035 4.394.754 6.006 2.366 1.629 1.612 2.427 3.588 2.392 5.928.035 1.681-.399 3.267-1.3 4.758a9.96 9.96 0 0 1-3.64 3.51c-1.508.849-3.111 1.257-4.81 1.222-2.375.035-4.377-.754-6.006-2.366s-2.427-3.588-2.392-5.928zm14.534-1.066c0-1.525-.468-2.765-1.404-3.718-.936-.971-2.149-1.456-3.64-1.456-1.647 0-3.042.589-4.186 1.768-1.127 1.161-1.69 2.6-1.69 4.316 0 1.543.468 2.799 1.404 3.77.936.953 2.141 1.43 3.614 1.43 1.647 0 3.042-.589 4.186-1.768 1.144-1.196 1.716-2.643 1.716-4.342zm19.222 3.9c0 1.491-.581 2.721-1.742 3.692-1.144.971-2.617 1.456-4.42 1.456h-7.93l3.016-17.16h5.564c1.525 0 2.747.425 3.666 1.274.936.832 1.404 1.933 1.404 3.302 0 1.543-.598 2.739-1.794 3.588 1.491.832 2.236 2.115 2.236 3.848zm-6.032-9.022h-2.184l-.702 3.952h2.548c.745 0 1.335-.191 1.768-.572s.65-.901.65-1.56c0-.572-.182-1.014-.546-1.326-.364-.329-.875-.494-1.534-.494zm2.548 8.918c0-.641-.199-1.144-.598-1.508s-.953-.546-1.664-.546h-3.692l-.754 4.29h4.004c.849 0 1.508-.191 1.976-.572.485-.399.728-.953.728-1.664zM81.157 78l3.016-17.16h3.51l-2.47 13.988h7.514L92.181 78H81.157zm13.635 0l3.016-17.16h11.544l-.546 3.172h-8.06l-.624 3.484h5.928l-.52 2.99h-5.928l-.754 4.342h8.346L106.647 78H94.791zm22.217 0l3.016-17.16h4.836c2.531 0 4.602.745 6.214 2.236 1.629 1.491 2.444 3.397 2.444 5.72.035 2.635-.919 4.836-2.86 6.604s-4.377 2.635-7.306 2.6h-6.344zm4.056-3.146l2.522-.026c1.872 0 3.397-.546 4.576-1.638s1.768-2.496 1.768-4.212c0-1.525-.485-2.73-1.456-3.614-.953-.901-2.245-1.352-3.874-1.352h-1.638l-1.898 10.842zM135.061 78l3.016-17.16h11.544l-.546 3.172h-8.06l-.624 3.484h5.928l-.52 2.99h-5.928l-.754 4.342h8.346L146.917 78h-11.856zm22.789-7.982c-.07-2.565.884-4.801 2.86-6.708s4.298-2.834 6.968-2.782c1.56 0 2.955.355 4.186 1.066 1.23.693 2.218 1.699 2.964 3.016l-2.652 1.95c-1.127-1.855-2.696-2.782-4.706-2.782-1.716 0-3.146.581-4.29 1.742s-1.716 2.617-1.716 4.368c0 1.595.476 2.869 1.43 3.822s2.201 1.43 3.744 1.43c1.75 0 3.215-.607 4.394-1.82l.312-1.69h-4.732l.546-3.042h8.242l-.988 5.59c-.85 1.265-2.002 2.279-3.458 3.042-1.422.728-2.956 1.092-4.602 1.092-2.427.035-4.464-.745-6.11-2.34-1.63-1.612-2.427-3.597-2.392-5.954zM176.778 78l3.016-17.16h3.51L180.288 78h-3.51zm8.011-7.982c-.069-2.565.884-4.801 2.86-6.708s4.299-2.834 6.968-2.782c1.56 0 2.955.355 4.186 1.066 1.231.693 2.219 1.699 2.964 3.016l-2.652 1.95c-1.127-1.855-2.695-2.782-4.706-2.782-1.716 0-3.146.581-4.29 1.742s-1.716 2.617-1.716 4.368c0 1.595.477 2.869 1.43 3.822s2.201 1.43 3.744 1.43c1.751 0 3.215-.607 4.394-1.82l.312-1.69h-4.732l.546-3.042h8.242l-.988 5.59c-.849 1.265-2.002 2.279-3.458 3.042-1.421.728-2.955 1.092-4.602 1.092-2.427.035-4.463-.745-6.11-2.34-1.629-1.612-2.427-3.597-2.392-5.954zM214.721 78l-.572-2.236h-6.942L205.855 78h-3.978l10.738-17.472h1.17L218.361 78h-3.64zm-1.326-5.122l-1.222-5.668-3.224 5.668h4.446zm6.559 1.17l2.6-1.664c1.162 1.837 2.6 2.756 4.316 2.756.746 0 1.335-.165 1.768-.494.434-.347.65-.806.65-1.378 0-.451-.156-.832-.468-1.144-.294-.329-.797-.676-1.508-1.04l-1.768-.936c-2.236-1.196-3.354-2.713-3.354-4.55 0-1.473.555-2.687 1.664-3.64 1.127-.953 2.54-1.43 4.238-1.43 2.531 0 4.438 1.135 5.72 3.406l-2.626 1.716c-.901-1.3-1.993-1.95-3.276-1.95-.676 0-1.213.147-1.612.442-.381.295-.572.711-.572 1.248 0 .416.13.771.39 1.066s.711.624 1.352.988l1.872.962c2.306 1.196 3.458 2.704 3.458 4.524 0 1.525-.58 2.808-1.742 3.848-1.161 1.023-2.6 1.534-4.316 1.534-3.033 0-5.295-1.421-6.786-4.264z" fill="#491966"/><path d="M0 8a8 8 0 0 1 8-8h244a8 8 0 0 1 8 8v40H0V8z" fill="#e92070"/><path d="M31.71 15.528c0 1.067-.389 1.947-1.168 2.64-.779.683-1.739 1.024-2.88 1.024-.875 0-1.659-.213-2.352-.64-.683-.427-1.205-1.013-1.568-1.76l1.504-1.056c.629.971 1.413 1.456 2.352 1.456.555 0 1.008-.144 1.36-.432.352-.299.528-.699.528-1.2 0-1.013-.72-1.52-2.16-1.52h-2.464v-5.6h6.24v1.952h-4.16v1.92c.427-.085.827-.128 1.2-.128.971 0 1.808.304 2.512.912.704.597 1.056 1.408 1.056 2.432zm1.623-1.888c0-1.621.357-2.923 1.072-3.904.715-.992 1.755-1.488 3.12-1.488s2.4.496 3.104 1.488c.715.981 1.072 2.283 1.072 3.904 0 1.632-.363 2.965-1.088 4s-1.755 1.552-3.088 1.552c-1.344 0-2.379-.517-3.104-1.552s-1.088-2.368-1.088-4zm6.144.016c0-2.272-.651-3.408-1.952-3.408-1.312 0-1.968 1.136-1.968 3.408 0 2.357.656 3.536 1.968 3.536 1.301 0 1.952-1.179 1.952-3.536zm4.812-.912c-.533-.512-.8-1.136-.8-1.872s.267-1.355.8-1.856c.533-.512 1.179-.768 1.936-.768a2.67 2.67 0 0 1 1.92.768c.533.501.8 1.12.8 1.856s-.267 1.36-.8 1.872a2.67 2.67 0 0 1-1.92.768c-.757 0-1.403-.256-1.936-.768zM45.586 19L51.65 8.44h1.744L47.314 19h-1.728zm1.696-8.128c0-.331-.101-.603-.304-.816-.192-.213-.437-.32-.736-.32-.32 0-.581.107-.784.32-.192.213-.288.485-.288.816 0 .341.096.619.288.832s.453.32.784.32c.299 0 .544-.107.736-.32.203-.213.304-.491.304-.832zm3.536 7.536c-.533-.512-.8-1.136-.8-1.872s.267-1.355.8-1.856a2.67 2.67 0 0 1 1.92-.768 2.67 2.67 0 0 1 1.92.768 2.42 2.42 0 0 1 .816 1.856c0 .736-.267 1.36-.8 1.872s-1.179.768-1.936.768a2.67 2.67 0 0 1-1.92-.768zm2.672-1.056c.203-.213.304-.485.304-.816s-.101-.603-.304-.816c-.192-.213-.437-.32-.736-.32-.331 0-.592.107-.784.32-.192.203-.288.475-.288.816s.096.619.288.832c.192.203.453.304.784.304.299 0 .544-.107.736-.32zM62.075 19V8.44h3.456c1.685-.021 3.072.464 4.16 1.456 1.088.981 1.621 2.245 1.6 3.792.021 1.536-.517 2.811-1.616 3.824s-2.48 1.509-4.144 1.488h-3.456zm2.16-1.952h1.28c1.067 0 1.925-.304 2.576-.912.651-.619.976-1.435.976-2.448 0-1.024-.32-1.829-.96-2.416s-1.504-.88-2.592-.88h-1.28v6.656zm8.279-3.328c-.021-1.515.528-2.811 1.648-3.888a5.35 5.35 0 0 1 3.984-1.584c1.003 0 1.909.235 2.72.704a5 5 0 0 1 1.936 1.92l-1.632 1.152c-.757-1.184-1.765-1.776-3.024-1.776-.981 0-1.797.331-2.448.992-.64.661-.96 1.493-.96 2.496s.32 1.829.96 2.48c.651.651 1.467.976 2.448.976 1.259 0 2.267-.592 3.024-1.776l1.632 1.152a5 5 0 0 1-1.92 1.936c-.821.459-1.739.688-2.752.688-1.547.032-2.88-.491-4-1.568-1.109-1.088-1.648-2.389-1.616-3.904zM87.022 19v-8.608h-3.376V8.44h8.928v1.952h-3.392V19h-2.16zm6.164-5.28c-.021-1.504.523-2.8 1.632-3.888 1.12-1.088 2.443-1.616 3.968-1.584 1.525-.032 2.848.496 3.968 1.584 1.131 1.088 1.685 2.384 1.664 3.888.021 1.504-.533 2.8-1.664 3.888-1.12 1.088-2.443 1.616-3.968 1.584-1.525.032-2.848-.496-3.968-1.584-1.109-1.088-1.653-2.384-1.632-3.888zm9.008 0c0-1.003-.325-1.829-.976-2.48-.64-.661-1.445-.992-2.416-.992-.981 0-1.792.325-2.432.976s-.96 1.483-.96 2.496.32 1.845.96 2.496 1.451.976 2.432.976c.971 0 1.776-.325 2.416-.976.651-.651.976-1.483.976-2.496zm3.089 3.984c0-.416.144-.768.432-1.056s.646-.432 1.072-.432c.416 0 .763.144 1.04.432.288.288.432.64.432 1.056 0 .427-.138.784-.416 1.072a1.43 1.43 0 0 1-1.056.416c-.427 0-.784-.139-1.072-.416-.288-.288-.432-.645-.432-1.072zM114.716 19V8.44h3.968c1.109 0 2.021.315 2.736.944s1.072 1.451 1.072 2.464c0 1.003-.357 1.824-1.072 2.464s-1.627.96-2.736.96h-1.808V19h-2.16zm2.16-5.616h1.808c.501 0 .891-.139 1.168-.416.288-.288.432-.661.432-1.12 0-.448-.149-.811-.448-1.088-.288-.277-.672-.416-1.152-.416h-1.808v3.04zm6.732.336c-.021-1.504.523-2.8 1.632-3.888 1.12-1.088 2.443-1.616 3.968-1.584 1.525-.032 2.848.496 3.968 1.584 1.131 1.088 1.685 2.384 1.664 3.888.021 1.504-.533 2.8-1.664 3.888-1.12 1.088-2.443 1.616-3.968 1.584-1.525.032-2.848-.496-3.968-1.584-1.109-1.088-1.653-2.384-1.632-3.888zm9.008 0c0-1.003-.325-1.829-.976-2.48-.64-.661-1.445-.992-2.416-.992-.981 0-1.792.325-2.432.976s-.96 1.483-.96 2.496.32 1.845.96 2.496 1.451.976 2.432.976c.971 0 1.776-.325 2.416-.976.651-.651.976-1.483.976-2.496zM145.581 19h-2.432l-2.736-3.728h-1.584V19h-2.16V8.44h3.968c1.109 0 2.021.315 2.736.944s1.072 1.451 1.072 2.464c0 .661-.165 1.259-.496 1.792-.32.523-.773.928-1.36 1.216L145.581 19zm-6.752-8.656v3.024h1.808c.501 0 .891-.139 1.168-.416.288-.277.432-.645.432-1.104 0-.448-.149-.811-.448-1.088-.288-.277-.672-.416-1.152-.416h-1.808zM148.881 19v-8.608h-3.376V8.44h8.928v1.952h-3.392V19h-2.16zm12.589 0l-.592-1.376h-4.32L155.966 19h-2.32l4.72-10.752h.72L163.79 19h-2.32zm-1.344-3.152l-1.408-3.568-1.408 3.568h2.816zm11.938-7.408h2.16v10.752h-.72l-6.112-6.528V19h-2.16V8.248h.704l6.128 6.496V8.44zM176.638 19V8.44h3.456c1.685-.021 3.072.464 4.16 1.456 1.088.981 1.621 2.245 1.6 3.792.021 1.536-.517 2.811-1.616 3.824s-2.48 1.509-4.144 1.488h-3.456zm2.16-1.952h1.28c1.067 0 1.925-.304 2.576-.912.651-.619.976-1.435.976-2.448 0-1.024-.32-1.829-.96-2.416s-1.504-.88-2.592-.88h-1.28v6.656zm8.279-3.328c-.022-1.504.522-2.8 1.632-3.888 1.12-1.088 2.442-1.616 3.968-1.584 1.525-.032 2.848.496 3.968 1.584 1.13 1.088 1.685 2.384 1.664 3.888.021 1.504-.534 2.8-1.664 3.888-1.12 1.088-2.443 1.616-3.968 1.584-1.526.032-2.848-.496-3.968-1.584-1.11-1.088-1.654-2.384-1.632-3.888zm9.008 0c0-1.003-.326-1.829-.976-2.48-.64-.661-1.446-.992-2.416-.992-.982 0-1.792.325-2.432.976s-.96 1.483-.96 2.496.32 1.845.96 2.496 1.45.976 2.432.976c.97 0 1.776-.325 2.416-.976.65-.651.976-1.483.976-2.496zm8.441.912V8.44h2.16v6.352c0 .757.214 1.349.64 1.776.427.416.987.624 1.68.624.704 0 1.264-.208 1.68-.624.427-.427.64-1.019.64-1.776V8.44h2.16v6.192c0 1.376-.421 2.48-1.264 3.312s-1.914 1.248-3.216 1.248c-1.312 0-2.389-.416-3.232-1.248-.832-.832-1.248-1.936-1.248-3.312zm18.131-6.192h2.16v10.752h-.72l-6.112-6.528V19h-2.16V8.248h.704l6.128 6.496V8.44zM234.048 19l-.592-1.376h-4.32L228.544 19h-2.32l4.72-10.752h.72L236.368 19h-2.32zm-1.344-3.152l-1.408-3.568-1.408 3.568h2.816zM22.693 39V28.44h2.16v8.608h4.624V39h-6.784zm8.391 0V28.44h2.16V39h-2.16zm.24-11.584l1.168-2.976h2.592v.384l-2.192 2.592h-1.568zm11.17 1.024h2.16v10.752h-.72l-6.112-6.528V39h-2.16V28.248h.704l6.128 6.496V28.44zM47.068 39V28.44h7.104v1.952h-4.944v2.144h3.632v1.84h-3.632v2.672h5.136V39h-7.296zm15.988 0l-.592-1.376h-4.32L57.551 39h-2.32l4.72-10.752h.72L65.375 39h-2.32zm-1.344-3.152l-1.408-3.568-1.408 3.568h2.816zM76.524 39l-.592-1.376h-4.32L71.02 39H68.7l4.72-10.752h.72L78.844 39h-2.32zm-1.344-3.152l-1.408-3.568-1.408 3.568h2.816zM80.286 39V28.44h3.456c1.685-.021 3.072.464 4.16 1.456 1.088.981 1.621 2.245 1.6 3.792.021 1.536-.517 2.811-1.616 3.824s-2.48 1.509-4.144 1.488h-3.456zm2.16-1.952h1.28c1.067 0 1.925-.304 2.576-.912.651-.619.976-1.435.976-2.448 0-1.024-.32-1.829-.96-2.416s-1.504-.88-2.592-.88h-1.28v6.656zM91.333 39V28.44h2.16V39h-2.16zm3.97-5.28c-.021-1.515.528-2.811 1.648-3.888a5.35 5.35 0 0 1 3.984-1.584c1.003 0 1.91.235 2.72.704a4.99 4.99 0 0 1 1.936 1.92l-1.632 1.152c-.757-1.184-1.765-1.776-3.024-1.776-.981 0-1.797.331-2.448.992-.64.661-.96 1.493-.96 2.496s.32 1.829.96 2.48c.651.651 1.467.976 2.448.976 1.259 0 2.267-.592 3.024-1.776l1.632 1.152a4.99 4.99 0 0 1-1.92 1.936c-.821.459-1.738.688-2.752.688a5.4 5.4 0 0 1-4-1.568c-1.109-1.088-1.648-2.389-1.616-3.904zM107.427 39V28.44h2.16V39h-2.16zm3.97-5.28c-.021-1.504.523-2.8 1.632-3.888 1.12-1.088 2.443-1.616 3.968-1.584 1.525-.032 2.848.496 3.968 1.584 1.131 1.088 1.685 2.384 1.664 3.888.021 1.504-.533 2.8-1.664 3.888-1.12 1.088-2.443 1.616-3.968 1.584-1.525.032-2.848-.496-3.968-1.584-1.109-1.088-1.653-2.384-1.632-3.888zm9.008 0c0-1.003-.325-1.829-.976-2.48-.64-.661-1.445-.992-2.416-.992-.981 0-1.792.325-2.432.976s-.96 1.483-.96 2.496.32 1.845.96 2.496 1.451.976 2.432.976c.971 0 1.776-.325 2.416-.976.651-.651.976-1.483.976-2.496zm10.885-5.28h2.16v10.752h-.72l-6.112-6.528V39h-2.16V28.248h.704l6.128 6.496V28.44zM142.68 39l-.592-1.376h-4.32L137.176 39h-2.32l4.72-10.752h.72L145 39h-2.32zm-1.344-3.152l-1.408-3.568-1.408 3.568h2.816zM146.443 39V28.44h2.16v8.608h4.624V39h-6.784zm12.078 0V28.44h3.968c1.109 0 2.021.315 2.736.944s1.072 1.451 1.072 2.464c0 1.003-.358 1.824-1.072 2.464s-1.627.96-2.736.96h-1.808V39h-2.16zm2.16-5.616h1.808c.501 0 .89-.139 1.168-.416.288-.288.432-.661.432-1.12 0-.448-.15-.811-.448-1.088-.288-.277-.672-.416-1.152-.416h-1.808v3.04zm6.732.336c-.022-1.504.522-2.8 1.632-3.888 1.12-1.088 2.442-1.616 3.968-1.584 1.525-.032 2.848.496 3.968 1.584 1.13 1.088 1.685 2.384 1.664 3.888.021 1.504-.534 2.8-1.664 3.888-1.12 1.088-2.443 1.616-3.968 1.584-1.526.032-2.848-.496-3.968-1.584-1.11-1.088-1.654-2.384-1.632-3.888zm9.008 0c0-1.003-.326-1.829-.976-2.48-.64-.661-1.446-.992-2.416-.992-.982 0-1.792.325-2.432.976s-.96 1.483-.96 2.496.32 1.845.96 2.496 1.45.976 2.432.976c.97 0 1.776-.325 2.416-.976.65-.651.976-1.483.976-2.496zM189.386 39h-2.432l-2.736-3.728h-1.584V39h-2.16V28.44h3.968c1.109 0 2.021.315 2.736.944s1.072 1.451 1.072 2.464c0 .661-.166 1.259-.496 1.792-.32.523-.774.928-1.36 1.216L189.386 39zm-6.752-8.656v3.024h1.808c.501 0 .89-.139 1.168-.416.288-.277.432-.645.432-1.104 0-.448-.15-.811-.448-1.088-.288-.277-.672-.416-1.152-.416h-1.808zm15.583-1.904h.72V39h-2.16v-8l-2 .64-.512-1.904 3.952-1.296zM212.118 39l-.592-1.376h-4.32L206.614 39h-2.32l4.72-10.752h.72L214.438 39h-2.32zm-1.344-3.152l-1.408-3.568-1.408 3.568h2.816zm11.938-7.408h2.16v10.752h-.72l-6.112-6.528V39h-2.16V28.248h.704l6.128 6.496V28.44zm-2.208-1.392l-.48-.256c-.309-.181-.544-.272-.704-.272-.299 0-.448.176-.448.528v.192h-1.648l-.032-.544c0-.629.176-1.141.528-1.536.352-.405.795-.608 1.328-.608.373 0 .768.112 1.184.336l.48.288c.277.181.517.272.72.272.299 0 .448-.181.448-.544v-.192h1.648l.032.528c0 .64-.176 1.163-.528 1.568-.352.395-.789.592-1.312.592-.384 0-.789-.117-1.216-.352zm6.174 6.672c-.021-1.504.523-2.8 1.632-3.888 1.12-1.088 2.443-1.616 3.968-1.584 1.526-.032 2.848.496 3.968 1.584 1.131 1.088 1.686 2.384 1.664 3.888.022 1.504-.533 2.8-1.664 3.888-1.12 1.088-2.442 1.616-3.968 1.584-1.525.032-2.848-.496-3.968-1.584-1.109-1.088-1.653-2.384-1.632-3.888zm9.008 0c0-1.003-.325-1.829-.976-2.48-.64-.661-1.445-.992-2.416-.992-.981 0-1.792.325-2.432.976s-.96 1.483-.96 2.496.32 1.845.96 2.496 1.451.976 2.432.976c.971 0 1.776-.325 2.416-.976.651-.651.976-1.483.976-2.496zM0 91h260v327a8 8 0 0 1-8 8H8a8 8 0 0 1-8-8V91z" fill="#fff"/><path d="M29.151 410.711h3.393c2.86 0 4.836-1.989 4.836-4.55v-.026c0-2.561-1.976-4.524-4.836-4.524h-3.393v9.1zm3.393-7.644c1.911 0 3.159 1.313 3.159 3.094v.026c0 1.781-1.248 3.068-3.159 3.068H30.75v-6.188h1.794zm9.48 7.8c1.261 0 2.158-.507 2.808-1.287l-.923-.819c-.546.533-1.092.819-1.859.819-1.014 0-1.807-.624-1.976-1.742h5.044l.026-.442c0-1.976-1.105-3.692-3.289-3.692-1.963 0-3.354 1.612-3.354 3.575v.026c0 2.119 1.534 3.562 3.523 3.562zm-1.963-4.069c.143-1.066.819-1.807 1.781-1.807 1.04 0 1.638.793 1.742 1.807h-3.523zm8.756 4.043c1.43 0 2.548-.715 2.548-2.158v-.026c0-1.235-1.131-1.69-2.132-2.002-.806-.26-1.547-.468-1.547-.975v-.026c0-.39.351-.676.962-.676.572 0 1.274.247 1.937.65l.624-1.118a4.76 4.76 0 0 0-2.522-.78c-1.365 0-2.444.793-2.444 2.093v.026c0 1.313 1.131 1.729 2.145 2.015.806.247 1.534.429 1.534.962v.026c0 .455-.39.741-1.066.741-.702 0-1.495-.286-2.249-.845l-.702 1.066c.858.676 1.937 1.027 2.912 1.027zm6.734.013c1.118 0 1.833-.572 2.34-1.287v1.144h1.573v-9.49H57.89v3.692c-.494-.65-1.209-1.209-2.34-1.209-1.638 0-3.185 1.287-3.185 3.562v.026c0 2.275 1.573 3.562 3.185 3.562zm.377-1.365c-1.066 0-1.976-.871-1.976-2.197v-.026c0-1.365.897-2.197 1.976-2.197 1.053 0 1.989.871 1.989 2.197v.026c0 1.313-.936 2.197-1.989 2.197zm8.397 1.378c1.261 0 2.158-.507 2.808-1.287l-.923-.819c-.546.533-1.092.819-1.859.819-1.014 0-1.807-.624-1.976-1.742h5.044l.026-.442c0-1.976-1.105-3.692-3.289-3.692-1.963 0-3.354 1.612-3.354 3.575v.026c0 2.119 1.534 3.562 3.523 3.562zm-1.963-4.069c.143-1.066.819-1.807 1.781-1.807 1.04 0 1.638.793 1.742 1.807h-3.523zm13.186 4.069c1.261 0 2.158-.507 2.808-1.287l-.923-.819c-.546.533-1.092.819-1.859.819-1.014 0-1.807-.624-1.976-1.742h5.044l.026-.442c0-1.976-1.105-3.692-3.289-3.692-1.963 0-3.354 1.612-3.354 3.575v.026c0 2.119 1.534 3.562 3.523 3.562zm-1.963-4.069c.143-1.066.819-1.807 1.781-1.807 1.04 0 1.638.793 1.742 1.807h-3.523zm6.494 3.913h1.573v-9.49h-1.573v9.49zm7.006 0h1.573v-3.874c0-1.053.598-1.703 1.469-1.703s1.391.598 1.391 1.664v3.913h1.573v-3.874c0-1.105.611-1.703 1.469-1.703.884 0 1.391.585 1.391 1.677v3.9h1.573v-4.381c0-1.677-.91-2.626-2.405-2.626-1.04 0-1.768.481-2.314 1.209-.364-.728-1.066-1.209-2.054-1.209-1.053 0-1.651.572-2.093 1.183v-1.04h-1.573v6.864zm15.239.156c1.261 0 2.158-.507 2.808-1.287l-.923-.819c-.546.533-1.092.819-1.859.819-1.014 0-1.807-.624-1.976-1.742h5.044l.026-.442c0-1.976-1.105-3.692-3.289-3.692-1.963 0-3.354 1.612-3.354 3.575v.026c0 2.119 1.534 3.562 3.523 3.562zm-1.963-4.069c.143-1.066.819-1.807 1.781-1.807 1.04 0 1.638.793 1.742 1.807h-3.523zm8.755 4.043c1.43 0 2.548-.715 2.548-2.158v-.026c0-1.235-1.131-1.69-2.132-2.002-.806-.26-1.547-.468-1.547-.975v-.026c0-.39.351-.676.962-.676.572 0 1.274.247 1.937.65l.624-1.118a4.76 4.76 0 0 0-2.522-.78c-1.365 0-2.444.793-2.444 2.093v.026c0 1.313 1.131 1.729 2.145 2.015.806.247 1.534.429 1.534.962v.026c0 .455-.39.741-1.066.741-.702 0-1.495-.286-2.249-.845l-.702 1.066c.858.676 1.937 1.027 2.912 1.027zm8.863-.13h1.586v-9.165h-1.105l-2.457.78.338 1.3 1.638-.455v7.54zm6.624.156c1.898 0 3.185-1.209 3.185-2.886v-.026c0-1.677-1.3-2.379-2.678-2.548l2.535-2.6v-1.196h-6.019v1.391h3.939l-2.457 2.613.26 1.001h.741c1.274 0 2.093.507 2.093 1.404v.026c0 .832-.676 1.378-1.573 1.378-1.014 0-1.742-.429-2.392-1.196l-1.118 1.04c.767.936 1.898 1.599 3.484 1.599zm10.711-.026c1.43 0 2.548-.715 2.548-2.158v-.026c0-1.235-1.131-1.69-2.132-2.002-.806-.26-1.547-.468-1.547-.975v-.026c0-.39.351-.676.962-.676.572 0 1.274.247 1.937.65l.624-1.118a4.76 4.76 0 0 0-2.522-.78c-1.365 0-2.444.793-2.444 2.093v.026c0 1.313 1.131 1.729 2.145 2.015.806.247 1.534.429 1.534.962v.026c0 .455-.39.741-1.066.741-.702 0-1.495-.286-2.249-.845l-.702 1.066c.858.676 1.937 1.027 2.912 1.027zm6.266.013c1.066 0 1.703-.559 2.145-1.209v1.066h1.586v-6.864h-1.586v3.874c0 1.066-.637 1.69-1.547 1.69-.936 0-1.469-.598-1.469-1.664v-3.9h-1.573v4.368c0 1.599.897 2.639 2.444 2.639zm9.349 0c1.625 0 3.185-1.287 3.185-3.562v-.026c0-2.288-1.573-3.562-3.185-3.562-1.118 0-1.833.572-2.34 1.287v-3.77h-1.573v9.49h1.573v-1.066c.481.637 1.196 1.209 2.34 1.209zm-.377-1.365c-1.066 0-2.002-.884-2.002-2.197v-.026c0-1.313.936-2.197 2.002-2.197s1.963.871 1.963 2.197v.026c0 1.352-.884 2.197-1.963 2.197zm8.071 1.378c1.261 0 2.158-.507 2.808-1.287l-.923-.819c-.546.533-1.092.819-1.859.819-1.014 0-1.807-.624-1.976-1.742h5.044l.026-.442c0-1.976-1.105-3.692-3.289-3.692-1.963 0-3.354 1.612-3.354 3.575v.026c0 2.119 1.534 3.562 3.523 3.562zm-1.963-4.069c.143-1.066.819-1.807 1.781-1.807 1.04 0 1.638.793 1.742 1.807h-3.523zm12.016 4.056c1.053 0 1.768-.442 2.236-1.001v.858h1.534v-4.069c0-.897-.234-1.625-.741-2.119-.481-.494-1.248-.767-2.275-.767-1.092 0-1.833.221-2.587.559l.416 1.235c.624-.26 1.196-.429 1.963-.429 1.105 0 1.703.52 1.703 1.495v.169c-.533-.169-1.079-.286-1.846-.286-1.677 0-2.834.728-2.834 2.21v.026c0 1.378 1.144 2.119 2.431 2.119zm.442-1.144c-.754 0-1.339-.377-1.339-1.04v-.026c0-.715.598-1.144 1.612-1.144a4.36 4.36 0 0 1 1.56.273v.468c0 .871-.793 1.469-1.833 1.469zm14.882-7.085c-.728-.533-1.508-.871-2.444-.988v-.78h-1.131v.754c-1.625.143-2.73 1.092-2.73 2.483v.026c0 1.469.884 2.171 2.782 2.665v2.561c-.845-.143-1.547-.533-2.288-1.144l-.832 1.196c.871.702 1.937 1.157 3.068 1.287v1.3h1.131v-1.274c1.651-.156 2.769-1.105 2.769-2.522v-.026c0-1.391-.845-2.171-2.821-2.665v-2.496c.598.13 1.196.429 1.768.845l.728-1.222zm-1.209 5.629v.026c0 .624-.455 1.027-1.287 1.118v-2.366c1.001.299 1.287.65 1.287 1.222zm-3.562-4.238v-.013c0-.572.416-1.001 1.248-1.079v2.301c-1.001-.312-1.248-.663-1.248-1.209zm7.886 6.695h1.586v-9.165h-1.105l-2.457.78.338 1.3 1.638-.455v7.54zm6.506-1.3c-.78 0-1.391-.286-2.08-.858l-.871 1.222c.767.637 1.651 1.092 2.912 1.092 2.457 0 3.9-2.028 3.9-4.953v-.026c0-1.794-.429-2.795-1.092-3.471-.65-.637-1.391-.962-2.535-.962-2.015 0-3.393 1.365-3.393 3.146v.026c0 1.755 1.287 2.886 3.224 2.886.936 0 1.638-.364 2.145-.975-.013 1.209-.598 2.873-2.21 2.873zm.299-3.237c-1.131 0-1.859-.676-1.859-1.625v-.026c0-.936.676-1.69 1.807-1.69 1.157 0 1.898.728 1.898 1.677v.026c0 .884-.689 1.638-1.846 1.638zm4.803 4.537h1.729v-1.794h-1.729v1.794zm6.273-1.3c-.78 0-1.391-.286-2.08-.858l-.871 1.222c.767.637 1.651 1.092 2.912 1.092 2.457 0 3.9-2.028 3.9-4.953v-.026c0-1.794-.429-2.795-1.092-3.471-.65-.637-1.391-.962-2.535-.962-2.015 0-3.393 1.365-3.393 3.146v.026c0 1.755 1.287 2.886 3.224 2.886.936 0 1.638-.364 2.145-.975-.013 1.209-.598 2.873-2.21 2.873zm.299-3.237c-1.131 0-1.859-.676-1.859-1.625v-.026c0-.936.676-1.69 1.807-1.69 1.157 0 1.898.728 1.898 1.677v.026c0 .884-.689 1.638-1.846 1.638zm7.973 3.237c-.78 0-1.391-.286-2.08-.858l-.871 1.222c.767.637 1.651 1.092 2.912 1.092 2.457 0 3.9-2.028 3.9-4.953v-.026c0-1.794-.429-2.795-1.092-3.471-.65-.637-1.391-.962-2.535-.962-2.015 0-3.393 1.365-3.393 3.146v.026c0 1.755 1.287 2.886 3.224 2.886.936 0 1.638-.364 2.145-.975-.013 1.209-.598 2.873-2.21 2.873zm.299-3.237c-1.131 0-1.859-.676-1.859-1.625v-.026c0-.936.676-1.69 1.807-1.69 1.157 0 1.898.728 1.898 1.677v.026c0 .884-.689 1.638-1.846 1.638zm8.739 4.693c2.392 0 3.978-2.106 3.978-4.706v-.026c0-2.6-1.573-4.68-3.952-4.68-2.392 0-3.978 2.106-3.978 4.706v.026c0 2.6 1.56 4.68 3.952 4.68zm.026-1.443c-1.417 0-2.327-1.469-2.327-3.263v-.026c0-1.807.897-3.237 2.301-3.237s2.327 1.469 2.327 3.263v.026c0 1.781-.884 3.237-2.301 3.237z" fill="#76489b"/><path d="M16 394.28h226v8" stroke="#e92070"/><path d="M34.623 111v-9.24h3.248c.887 0 1.601.252 2.142.756.541.495.812 1.134.812 1.918 0 .793-.271 1.442-.812 1.946s-1.255.756-2.142.756h-2.156V111h-1.092zm1.092-4.844h2.128c.579 0 1.031-.154 1.358-.462s.49-.723.49-1.246c0-.513-.163-.924-.49-1.232-.327-.317-.779-.476-1.358-.476h-2.128v3.416zM42.648 111v-9.24h1.092v8.26h4.382v.98h-5.474zm13.494 0l-.784-1.876h-4.536L50.038 111H48.89l4.004-9.394h.406L57.304 111h-1.162zm-1.204-2.856l-1.848-4.55-1.848 4.55h3.696zm10.347-6.384h1.092v9.394h-.392l-5.88-7.084V111h-1.092v-9.394h.392l5.88 7.098v-6.944z" fill="#491966"/><path d="M41.072 141.528h7.752V147l-19.19.038v-1.33l9.006-9.842c2.001-2.179 3.002-4.028 3.002-5.548 0-.887-.241-1.583-.722-2.09s-1.115-.76-1.9-.76-1.419.266-1.9.798c-.456.532-.684 1.267-.684 2.204a9.77 9.77 0 0 0 .152 1.672h-6.574c-.177-.684-.266-1.393-.266-2.128-.051-2.229.823-4.218 2.622-5.966 1.824-1.773 4.079-2.635 6.764-2.584 2.609 0 4.788.785 6.536 2.356 1.773 1.571 2.66 3.534 2.66 5.89 0 1.647-.431 3.217-1.292 4.712-.861 1.469-2.255 3.217-4.18 5.244l-1.786 1.862zm29.816-2.964c0 2.559-.963 4.687-2.888 6.384-1.925 1.672-4.307 2.508-7.144 2.508-2.204 0-4.167-.532-5.89-1.596-1.697-1.064-2.977-2.533-3.838-4.408l4.522-3.192c.76 1.14 1.507 1.963 2.242 2.47.76.481 1.659.722 2.698.722 1.089 0 1.963-.241 2.622-.722.659-.507.988-1.203.988-2.09 0-1.697-1.444-2.546-4.332-2.546h-5.966V121.92h15.542v5.89h-9.348v2.926c.887-.177 1.685-.266 2.394-.266 2.179-.051 4.129.697 5.852 2.242 1.748 1.545 2.597 3.496 2.546 5.852zm3.432-4.294c0-3.825.899-6.916 2.698-9.272 1.824-2.356 4.395-3.534 7.714-3.534s5.877 1.178 7.676 3.534c1.824 2.356 2.736 5.447 2.736 9.272 0 3.876-.912 7.043-2.736 9.5s-4.383 3.686-7.676 3.686-5.852-1.229-7.676-3.686-2.736-5.624-2.736-9.5zm14.136.038c0-2.356-.304-4.079-.912-5.168-.608-1.115-1.545-1.672-2.812-1.672s-2.204.557-2.812 1.672c-.608 1.089-.912 2.812-.912 5.168 0 4.763 1.241 7.144 3.724 7.144s3.724-2.381 3.724-7.144z" fill="#e92070"/><path d="M108.927 134.46c-.051-3.597 1.267-6.675 3.952-9.234s5.915-3.813 9.69-3.762c4.687 0 8.284 1.862 10.792 5.586l-4.56 3.876c-1.647-2.305-3.762-3.458-6.346-3.458-2.103 0-3.775.633-5.016 1.9-1.216 1.267-1.824 2.964-1.824 5.092 0 2.153.646 3.889 1.938 5.206 1.317 1.317 3.078 1.976 5.282 1.976 2.381 0 4.218-.747 5.51-2.242v-1.178h-5.852v-5.624h12.388v7.904c-1.165 2.077-2.837 3.762-5.016 5.054-2.179 1.267-4.611 1.9-7.296 1.9-3.775.051-7.005-1.191-9.69-3.724-2.685-2.559-4.003-5.649-3.952-9.272zM138.608 147v-25.08h6.536V147h-6.536zm10.249-12.54c-.051-3.597 1.266-6.675 3.952-9.234s5.915-3.813 9.69-3.762c4.686 0 8.284 1.862 10.792 5.586l-4.56 3.876c-1.647-2.305-3.762-3.458-6.346-3.458-2.103 0-3.775.633-5.016 1.9-1.216 1.267-1.824 2.964-1.824 5.092 0 2.153.646 3.889 1.938 5.206 1.317 1.317 3.078 1.976 5.282 1.976 2.381 0 4.218-.747 5.51-2.242v-1.178h-5.852v-5.624h12.388v7.904c-1.166 2.077-2.838 3.762-5.016 5.054-2.179 1.267-4.611 1.9-7.296 1.9-3.775.051-7.005-1.191-9.69-3.724-2.686-2.559-4.003-5.649-3.952-9.272zM193.594 147l-.912-2.09h-9.006l-.912 2.09h-7.03l11.4-25.536h2.09l11.4 25.536h-7.03zm-3.23-7.334l-2.166-5.814-2.204 5.814h4.37zm11.031 2.166l4.408-3.344c.811 1.064 1.647 1.875 2.508 2.432.862.532 1.888.798 3.078.798 1.723 0 2.584-.608 2.584-1.824 0-.532-.164-.937-.494-1.216s-1.013-.646-2.052-1.102l-2.584-1.14c-4.23-1.875-6.346-4.395-6.346-7.562 0-2.204.811-3.99 2.432-5.358 1.647-1.368 3.762-2.052 6.346-2.052 4.054 0 6.916 1.685 8.588 5.054l-4.37 3.344c-.633-.937-1.266-1.609-1.9-2.014-.633-.431-1.38-.646-2.242-.646-1.494 0-2.242.532-2.242 1.596 0 .456.152.836.456 1.14.33.279.9.583 1.71.912l2.888 1.216c2.23.937 3.851 2.001 4.864 3.192 1.039 1.165 1.558 2.622 1.558 4.37 0 2.381-.874 4.281-2.622 5.7-1.722 1.419-3.914 2.128-6.574 2.128-2.229 0-4.23-.494-6.004-1.482-1.748-1.013-3.078-2.394-3.99-4.142z" fill="#491966"/><rect x="16" y="163" width="226" height="176" rx="8" fill="#f4f4f7"/><path d="M35.1 226h-1.824l-2.052-2.796h-1.188V226h-1.62v-7.92h2.976c.832 0 1.516.236 2.052.708s.804 1.088.804 1.848c0 .496-.124.944-.372 1.344-.24.392-.58.696-1.02.912L35.1 226zm-5.064-6.492v2.268h1.356c.376 0 .668-.104.876-.312.216-.208.324-.484.324-.828 0-.336-.112-.608-.336-.816-.216-.208-.504-.312-.864-.312h-1.356zM36.092 226v-7.92h5.328v1.464h-3.708v1.608h2.724v1.38h-2.724v2.004h3.852V226h-5.472zm6.879 0v-7.92h2.592c1.264-.016 2.304.348 3.12 1.092.816.736 1.216 1.684 1.2 2.844.016 1.152-.388 2.108-1.212 2.868s-1.86 1.132-3.108 1.116h-2.592zm1.62-1.464h.96c.8 0 1.444-.228 1.932-.684.488-.464.732-1.076.732-1.836 0-.768-.24-1.372-.72-1.812s-1.128-.66-1.944-.66h-.96v4.992zM51.256 226v-7.92h5.328v1.464h-3.708v1.608H55.6v1.38h-2.724v2.004h3.852V226h-5.472zm6.327-1.608l1.116-.84c.56.768 1.208 1.152 1.944 1.152.352 0 .628-.076.828-.228.2-.16.3-.376.3-.648 0-.224-.068-.396-.204-.516-.136-.128-.404-.284-.804-.468l-.852-.384c-1.28-.568-1.92-1.328-1.92-2.28 0-.672.248-1.212.744-1.62.496-.416 1.124-.624 1.884-.624.592 0 1.112.136 1.56.408a2.83 2.83 0 0 1 1.056 1.092l-1.104.852c-.408-.608-.912-.912-1.512-.912-.288 0-.524.068-.708.204a.66.66 0 0 0-.276.564c0 .2.064.364.192.492.136.12.38.26.732.42l.9.396c.68.304 1.176.636 1.488.996.312.352.468.792.468 1.32 0 .712-.26 1.288-.78 1.728-.52.432-1.184.648-1.992.648-.664 0-1.264-.156-1.8-.468-.528-.312-.948-.74-1.26-1.284zm10.066 0l1.116-.84c.56.768 1.208 1.152 1.944 1.152.352 0 .628-.076.828-.228.2-.16.3-.376.3-.648 0-.224-.068-.396-.204-.516-.136-.128-.404-.284-.804-.468l-.852-.384c-1.28-.568-1.92-1.328-1.92-2.28 0-.672.248-1.212.744-1.62.496-.416 1.124-.624 1.884-.624.592 0 1.112.136 1.56.408a2.83 2.83 0 0 1 1.056 1.092l-1.104.852c-.408-.608-.912-.912-1.512-.912-.288 0-.524.068-.708.204a.66.66 0 0 0-.276.564c0 .2.064.364.192.492.136.12.38.26.732.42l.9.396c.68.304 1.176.636 1.488.996.312.352.468.792.468 1.32 0 .712-.26 1.288-.78 1.728-.52.432-1.184.648-1.992.648-.664 0-1.264-.156-1.8-.468-.528-.312-.948-.74-1.26-1.284zm6.799-2.352c-.016-1.128.392-2.1 1.224-2.916.84-.816 1.832-1.212 2.976-1.188 1.144-.024 2.136.372 2.976 1.188.848.816 1.264 1.788 1.248 2.916.016 1.128-.4 2.1-1.248 2.916-.84.816-1.832 1.212-2.976 1.188-1.144.024-2.136-.372-2.976-1.188-.832-.816-1.24-1.788-1.224-2.916zm6.756 0c0-.752-.244-1.372-.732-1.86-.48-.496-1.084-.744-1.812-.744-.736 0-1.344.244-1.824.732s-.72 1.112-.72 1.872.24 1.384.72 1.872 1.088.732 1.824.732c.728 0 1.332-.244 1.812-.732.488-.488.732-1.112.732-1.872zm2.584 0c-.016-1.136.396-2.108 1.236-2.916.84-.816 1.836-1.212 2.988-1.188.752 0 1.432.176 2.04.528a3.75 3.75 0 0 1 1.452 1.44l-1.224.864c-.568-.888-1.324-1.332-2.268-1.332-.736 0-1.348.248-1.836.744-.48.496-.72 1.12-.72 1.872s.24 1.372.72 1.86c.488.488 1.1.732 1.836.732.944 0 1.7-.444 2.268-1.332l1.224.864a3.75 3.75 0 0 1-1.44 1.452 4.16 4.16 0 0 1-2.064.516c-1.16.024-2.16-.368-3-1.176-.832-.816-1.236-1.792-1.212-2.928zm9.093 3.96v-7.92h1.62V226h-1.62zm8.545 0l-.444-1.032h-3.24L97.298 226h-1.74l3.54-8.064h.54l3.528 8.064h-1.74zm-1.008-2.364l-1.056-2.676-1.056 2.676h2.112zm3.83 2.364v-7.92h1.62v6.456h3.468V226h-5.088zm6.293 0v-7.92h5.328v1.464h-3.708v1.608h2.724v1.38h-2.724v2.004h3.852V226h-5.472zm6.327-1.608l1.116-.84c.56.768 1.208 1.152 1.944 1.152.352 0 .628-.076.828-.228.2-.16.3-.376.3-.648 0-.224-.068-.396-.204-.516-.136-.128-.404-.284-.804-.468l-.852-.384c-1.28-.568-1.92-1.328-1.92-2.28 0-.672.248-1.212.744-1.62.496-.416 1.124-.624 1.884-.624.592 0 1.112.136 1.56.408a2.83 2.83 0 0 1 1.056 1.092l-1.104.852c-.408-.608-.912-.912-1.512-.912-.288 0-.524.068-.708.204a.66.66 0 0 0-.276.564c0 .2.064.364.192.492.136.12.38.26.732.42l.9.396c.68.304 1.176.636 1.488.996.312.352.468.792.468 1.32 0 .712-.26 1.288-.78 1.728-.52.432-1.184.648-1.992.648-.664 0-1.264-.156-1.8-.468-.528-.312-.948-.74-1.26-1.284zm16.51-6.312l-2.724 4.8V226h-1.62v-3.108l-2.736-4.812h1.8l1.752 3.144 1.74-3.144h1.788zm8.513 7.92l-.444-1.032h-3.24l-.444 1.032h-1.74l3.54-8.064h.54l3.528 8.064h-1.74zm-1.008-2.364l-1.056-2.676-1.056 2.676h2.112zm3.83 2.364v-7.92h2.976c.832 0 1.516.236 2.052.708s.804 1.088.804 1.848c0 .752-.268 1.368-.804 1.848s-1.22.72-2.052.72h-1.356V226h-1.62zm1.62-4.212h1.356c.376 0 .668-.104.876-.312.216-.216.324-.496.324-.84 0-.336-.112-.608-.336-.816-.216-.208-.504-.312-.864-.312h-1.356v2.28zm5.505 4.212v-7.92h2.976c.832 0 1.516.236 2.052.708s.804 1.088.804 1.848c0 .752-.268 1.368-.804 1.848s-1.22.72-2.052.72h-1.356V226h-1.62zm1.62-4.212h1.356c.376 0 .668-.104.876-.312.216-.216.324-.496.324-.84 0-.336-.112-.608-.336-.816-.216-.208-.504-.312-.864-.312h-1.356v2.28zm4.894 2.604l1.116-.84c.56.768 1.208 1.152 1.944 1.152.352 0 .628-.076.828-.228.2-.16.3-.376.3-.648 0-.224-.068-.396-.204-.516-.136-.128-.404-.284-.804-.468l-.852-.384c-1.28-.568-1.92-1.328-1.92-2.28 0-.672.248-1.212.744-1.62.496-.416 1.124-.624 1.884-.624.592 0 1.112.136 1.56.408a2.83 2.83 0 0 1 1.056 1.092l-1.104.852c-.408-.608-.912-.912-1.512-.912-.288 0-.524.068-.708.204a.66.66 0 0 0-.276.564c0 .2.064.364.192.492.136.12.38.26.732.42l.9.396c.68.304 1.176.636 1.488.996.312.352.468.792.468 1.32 0 .712-.26 1.288-.78 1.728-.52.432-1.184.648-1.992.648-.664 0-1.264-.156-1.8-.468-.528-.312-.948-.74-1.26-1.284zM168.971 226v-7.92h2.592c1.264-.016 2.304.348 3.12 1.092.816.736 1.216 1.684 1.2 2.844.016 1.152-.388 2.108-1.212 2.868s-1.86 1.132-3.108 1.116h-2.592zm1.62-1.464h.96c.8 0 1.444-.228 1.932-.684.488-.464.732-1.076.732-1.836 0-.768-.24-1.372-.72-1.812s-1.128-.66-1.944-.66h-.96v4.992zm6.665 1.464v-7.92h5.328v1.464h-3.708v1.608h2.724v1.38h-2.724v2.004h3.852V226h-5.472zm17.466-8.064h.528V226h-1.62v-4.224l-1.992 2.496h-.528l-1.992-2.496V226h-1.62v-8.064h.528l3.348 4.284 3.348-4.284zm2.278 4.788v-4.644h1.62v4.764c0 .568.16 1.012.48 1.332.32.312.74.468 1.26.468.528 0 .948-.156 1.26-.468.32-.32.48-.764.48-1.332v-4.764h1.62v4.644c0 1.032-.316 1.86-.948 2.484s-1.436.936-2.412.936c-.984 0-1.792-.312-2.424-.936-.624-.624-.936-1.452-.936-2.484zm2.724-5.412l.876-2.232h1.944v.288l-1.644 1.944h-1.176zm5.14 7.08l1.116-.84c.56.768 1.208 1.152 1.944 1.152.352 0 .628-.076.828-.228.2-.16.3-.376.3-.648 0-.224-.068-.396-.204-.516-.136-.128-.404-.284-.804-.468l-.852-.384c-1.28-.568-1.92-1.328-1.92-2.28 0-.672.248-1.212.744-1.62.496-.416 1.124-.624 1.884-.624.592 0 1.112.136 1.56.408a2.83 2.83 0 0 1 1.056 1.092l-1.104.852c-.408-.608-.912-.912-1.512-.912-.288 0-.524.068-.708.204a.66.66 0 0 0-.276.564c0 .2.064.364.192.492.136.12.38.26.732.42l.9.396c.68.304 1.176.636 1.488.996.312.352.468.792.468 1.32 0 .712-.26 1.288-.78 1.728-.52.432-1.184.648-1.992.648-.664 0-1.264-.156-1.8-.468-.528-.312-.948-.74-1.26-1.284zm7.255 1.608v-7.92h1.62V226h-1.62zm2.978-3.96c-.016-1.136.396-2.108 1.236-2.916.84-.816 1.836-1.212 2.988-1.188.752 0 1.432.176 2.04.528a3.75 3.75 0 0 1 1.452 1.44l-1.224.864c-.568-.888-1.324-1.332-2.268-1.332-.736 0-1.348.248-1.836.744-.48.496-.72 1.12-.72 1.872s.24 1.372.72 1.86c.488.488 1.1.732 1.836.732.944 0 1.7-.444 2.268-1.332l1.224.864a3.75 3.75 0 0 1-1.44 1.452 4.16 4.16 0 0 1-2.064.516c-1.16.024-2.16-.368-3-1.176-.832-.816-1.236-1.792-1.212-2.928zm14.087 3.96l-.444-1.032h-3.24l-.444 1.032h-1.74l3.54-8.064h.54l3.528 8.064h-1.74zm-1.008-2.364l-1.056-2.676-1.056 2.676h2.112zM35.938 244v-11.88h2.43v9.684h5.202V244h-7.632zm9.44 0v-11.88h2.43V244h-2.43zm14.348-3.492c0 1.02-.366 1.86-1.098 2.52-.732.648-1.668.972-2.808.972h-5.292v-11.88h4.212c1.104 0 2.004.312 2.7.936.708.612 1.062 1.404 1.062 2.376 0 .876-.294 1.59-.882 2.142 1.404.516 2.106 1.494 2.106 2.934zm-5.184-6.3h-1.674v2.718h1.674c.492 0 .87-.12 1.134-.36.276-.24.414-.576.414-1.008 0-.42-.138-.75-.414-.99-.264-.24-.642-.36-1.134-.36zm2.79 6.21c0-.456-.15-.816-.45-1.08-.3-.276-.714-.414-1.242-.414h-2.772v2.988h2.772c.528 0 .942-.132 1.242-.396s.45-.63.45-1.098zM71.734 244h-2.736l-3.078-4.194h-1.782V244h-2.43v-11.88h4.464c1.248 0 2.274.354 3.078 1.062s1.206 1.632 1.206 2.772c0 .744-.186 1.416-.558 2.016-.36.588-.87 1.044-1.53 1.368L71.734 244zm-7.596-9.738v3.402h2.034c.564 0 1.002-.156 1.314-.468.324-.312.486-.726.486-1.242 0-.504-.168-.912-.504-1.224-.324-.312-.756-.468-1.296-.468h-2.034zM73.222 244v-11.88h7.992v2.196h-5.562v2.412h4.086v2.07h-4.086v3.006h5.778V244h-8.208zm9.49-2.412l1.674-1.26c.84 1.152 1.812 1.728 2.916 1.728.528 0 .942-.114 1.242-.342.3-.24.45-.564.45-.972 0-.336-.102-.594-.306-.774-.204-.192-.606-.426-1.206-.702l-1.278-.576c-1.92-.852-2.88-1.992-2.88-3.42 0-1.008.372-1.818 1.116-2.43.744-.624 1.686-.936 2.826-.936.888 0 1.668.204 2.34.612a4.24 4.24 0 0 1 1.584 1.638l-1.656 1.278c-.612-.912-1.368-1.368-2.268-1.368-.432 0-.786.102-1.062.306s-.414.486-.414.846c0 .3.096.546.288.738.204.18.57.39 1.098.63l1.35.594c1.02.456 1.764.954 2.232 1.494.468.528.702 1.188.702 1.98 0 1.068-.39 1.932-1.17 2.592-.78.648-1.776.972-2.988.972-.996 0-1.896-.234-2.7-.702-.792-.468-1.422-1.11-1.89-1.926zM98.64 244v-11.88h4.463c1.248 0 2.274.354 3.078 1.062s1.206 1.632 1.206 2.772c0 1.128-.402 2.052-1.206 2.772s-1.83 1.08-3.078 1.08h-2.034V244h-2.43zm2.43-6.318h2.034c.564 0 1.002-.156 1.314-.468.324-.324.486-.744.486-1.26 0-.504-.168-.912-.504-1.224-.324-.312-.756-.468-1.296-.468h-2.034v3.42zM115.554 244l-.666-1.548h-4.86l-.666 1.548h-2.61l5.31-12.096h.81L118.164 244h-2.61zm-1.512-3.546l-1.584-4.014-1.584 4.014h3.168zm15.77 3.546h-2.736l-3.078-4.194h-1.782V244h-2.43v-11.88h4.464c1.248 0 2.274.354 3.078 1.062s1.206 1.632 1.206 2.772c0 .744-.186 1.416-.558 2.016-.36.588-.87 1.044-1.53 1.368l3.366 4.662zm-7.596-9.738v3.402h2.034c.564 0 1.002-.156 1.314-.468.324-.312.486-.726.486-1.242 0-.504-.168-.912-.504-1.224-.324-.312-.756-.468-1.296-.468h-2.034zM138.968 244l-.666-1.548h-4.86l-.666 1.548h-2.61l5.31-12.096h.81L141.578 244h-2.61zm-1.512-3.546l-1.584-4.014-1.584 4.014h3.168zm9.064 1.134l1.674-1.26c.84 1.152 1.812 1.728 2.916 1.728.528 0 .942-.114 1.242-.342.3-.24.45-.564.45-.972 0-.336-.102-.594-.306-.774-.204-.192-.606-.426-1.206-.702l-1.278-.576c-1.92-.852-2.88-1.992-2.88-3.42 0-1.008.372-1.818 1.116-2.43.744-.624 1.686-.936 2.826-.936.888 0 1.668.204 2.34.612a4.24 4.24 0 0 1 1.584 1.638l-1.656 1.278c-.612-.912-1.368-1.368-2.268-1.368-.432 0-.786.102-1.062.306s-.414.486-.414.846c0 .3.096.546.288.738.204.18.57.39 1.098.63l1.35.594c1.02.456 1.764.954 2.232 1.494.468.528.702 1.188.702 1.98 0 1.068-.39 1.932-1.17 2.592-.78.648-1.776.972-2.988.972-.996 0-1.896-.234-2.7-.702-.792-.468-1.422-1.11-1.89-1.926zM157.403 244v-11.88h2.43V244h-2.43zm5.151 0v-11.88h7.992v2.196h-5.562v2.412h4.086v2.07h-4.086v3.006h5.778V244h-8.208zm21.154-12.096h.792V244h-2.43v-6.336l-2.988 3.744h-.792l-2.988-3.744V244h-2.43v-12.096h.792l5.022 6.426 5.022-6.426zM187.233 244v-11.88h4.464c1.248 0 2.274.354 3.078 1.062s1.206 1.632 1.206 2.772c0 1.128-.402 2.052-1.206 2.772s-1.83 1.08-3.078 1.08h-2.034V244h-2.43zm2.43-6.318h2.034c.564 0 1.002-.156 1.314-.468.324-.324.486-.744.486-1.26 0-.504-.168-.912-.504-1.224-.324-.312-.756-.468-1.296-.468h-2.034v3.42zM207.947 244h-2.736l-3.078-4.194h-1.782V244h-2.43v-11.88h4.464c1.248 0 2.274.354 3.078 1.062s1.206 1.632 1.206 2.772c0 .744-.186 1.416-.558 2.016-.36.588-.87 1.044-1.53 1.368l3.366 4.662zm-7.596-9.738v3.402h2.034c.564 0 1.002-.156 1.314-.468.324-.312.486-.726.486-1.242 0-.504-.168-.912-.504-1.224-.324-.312-.756-.468-1.296-.468h-2.034zm9.083 9.738v-11.88h7.992v2.196h-5.562v2.412h4.086v2.07h-4.086v3.006h5.778V244h-8.208zm9.797-1.458c0-.468.162-.864.486-1.188s.726-.486 1.206-.486c.468 0 .858.162 1.17.486.324.324.486.72.486 1.188a1.67 1.67 0 0 1-.468 1.206c-.312.312-.708.468-1.188.468a1.67 1.67 0 0 1-1.206-.468c-.324-.324-.486-.726-.486-1.206z" fill="#491966"/><path d="M190.841 265.37c0 5.103-4.137 9.263-9.262 9.263-5.102 0-9.263-4.136-9.263-9.263a9.27 9.27 0 0 1 9.263-9.262c5.101 0 9.262 4.162 9.262 9.262z" fill="#0076f4"/><path d="M183.624 261.21h1.175v-1.975a16.12 16.12 0 0 0-1.716-.095c-1.716 0-2.868 1.035-2.868 2.916v1.622h-1.928v2.21h1.928v5.666h2.304v-5.666h1.928l.282-2.21h-2.21v-1.411c0-.61.165-1.057 1.105-1.057z" fill="#fff"/><path d="M227.366 265.37c0 5.103-4.136 9.263-9.262 9.263-5.101 0-9.263-4.136-9.263-9.263a9.27 9.27 0 0 1 9.263-9.262c5.126 0 9.262 4.162 9.262 9.262z" fill="#00a8f2"/><path d="M222.336 263.655c-.07 3.62-2.374 6.135-5.878 6.276-1.434.071-2.468-.399-3.431-.94 1.033.165 2.397-.234 3.103-.87-1.035-.07-1.67-.634-1.999-1.504.329.07.635 0 .87 0-.964-.306-1.599-.87-1.67-2.116.236.164.565.235.87.235-.705-.399-1.198-1.905-.634-2.845 1.034 1.105 2.303 2.046 4.373 2.21-.564-2.21 2.469-3.385 3.667-1.88.564-.071.964-.306 1.363-.471-.164.541-.469.87-.869 1.176.4-.071.799-.165 1.105-.306-.071.4-.471.729-.87 1.035z" fill="#fff"/><path d="M154.316 265.37a9.27 9.27 0 0 1-9.263 9.263c-5.101 0-9.262-4.136-9.262-9.263a9.27 9.27 0 0 1 9.262-9.262 9.27 9.27 0 0 1 9.263 9.262z" fill="#fdf700"/><path d="M140.257 267.792c.329-.046.635-.165.917-.352.235-.141.447-.33.635-.564.329-.376.494-.753.517-.799v-.024c.094-.165.094-.306.047-.423-.094-.236-.4-.33-.635-.401l-.047-.022c-.047 0-.07-.024-.094-.048-.164-.071-.258-.117-.329-.188-.094-.094-.117-.165-.094-.235s.071-.141.165-.188c.117-.07.258-.094.352-.048.306.141.541.189.706.095a.13.13 0 0 0 .07-.117c0-.071-.023-.141-.023-.236v-.024c-.047-.658-.094-1.48.117-1.951.165-.328.353-.61.588-.846.212-.187.423-.352.705-.447a2.71 2.71 0 0 1 1.105-.235h.188a2.71 2.71 0 0 1 1.105.235c.259.119.494.26.706.447.235.236.446.494.587.846.212.471.165 1.293.118 1.929v.046c0 .047-.024.095-.024.141v.071c0 .046.024.094.071.117s.117.048.188.048h.023c.141 0 .282-.048.47-.119.071-.022.118-.022.165-.022.071 0 .118.022.188.046.141.047.235.165.235.258 0 .048-.023.095-.094.165s-.188.141-.352.212c-.024.024-.071.024-.094.024l-.048.024c-.211.07-.517.163-.634.399-.047.117-.047.259.047.447v.024c.117.258.752 1.504 2.069 1.715.047.024.094.047.094.117v.048c-.047.093-.118.164-.282.234-.212.095-.518.189-.941.236a.33.33 0 0 0-.094.07c-.023.047-.047.117-.07.236l-.024.07c-.023.047-.023.117-.047.165-.023.071-.07.093-.141.093-.047 0-.094 0-.212-.022-.141-.024-.329-.071-.54-.071-.141 0-.259 0-.4.047-.258.046-.517.211-.776.376-.352.236-.729.518-1.316.518h-.071-.023-.024c-.588 0-.964-.282-1.34-.518-.235-.165-.47-.33-.752-.376a2.04 2.04 0 0 0-.4-.047c-.235 0-.4.047-.541.071h-.023c-.071.022-.141.022-.212.022s-.117-.022-.164-.093l-.094-.211-.024-.048c-.023-.095-.047-.188-.07-.236s-.047-.07-.094-.07c-.424-.071-.753-.164-.964-.234-.141-.071-.235-.141-.282-.212-.024-.024-.024-.048-.024-.048v-.046c.165-.024.188-.047.235-.071z" fill="#fff" stroke="#201712" stroke-width=".222"/><path d="M108.645 274.398a9.15 9.15 0 0 0 9.145-9.146c0-5.05-4.094-9.144-9.145-9.144s-9.145 4.094-9.145 9.144a9.15 9.15 0 0 0 9.145 9.146z" fill="url(#B)"/><g fill="#fff"><path d="M106.271 260.033h4.725c1.622 0 2.916 1.294 2.916 2.893v4.678c0 1.575-1.317 2.867-2.916 2.867h-4.725c-1.599-.022-2.915-1.292-2.915-2.891v-4.678c0-1.575 1.316-2.869 2.915-2.869zm4.725 9.522c1.082 0 1.975-.87 1.975-1.951v-4.678c0-1.083-.893-1.953-1.975-1.953h-4.725c-1.082 0-1.975.87-1.975 1.953v4.678c0 1.081.893 1.951 1.975 1.951h4.725zm-5.078-4.303c0-1.48 1.223-2.68 2.727-2.68a2.72 2.72 0 0 1 2.727 2.68c0 1.482-1.222 2.68-2.727 2.68s-2.727-1.198-2.727-2.68zm.941 0c0 .964.799 1.764 1.786 1.764s1.787-.8 1.787-1.764-.799-1.762-1.787-1.762a1.78 1.78 0 0 0-1.786 1.762z" fill-rule="evenodd"/><path d="M111.467 261.773c-.189 0-.353.07-.494.188-.118.117-.212.306-.212.47 0 .189.071.352.212.471.117.117.305.187.494.187a.76.76 0 0 0 .493-.187c.118-.119.212-.306.212-.471a.59.59 0 0 0-.212-.47c-.141-.118-.305-.188-.493-.188z"/></g><mask id="A" mask-type="alpha" maskUnits="userSpaceOnUse" x="63" y="256" width="19" height="19"><circle cx="72.5" cy="265.371" r="9" fill="#c4c4c4"/></mask><g mask="url(#A)"><path d="M81.5 256.371h-18v18h18v-18z" fill="url(#C)"/><path d="M77.696 261.669l-1.611 8.111s-.222.556-.833.306l-3.722-2.861-1.361-.639-2.278-.778s-.361-.111-.389-.389.389-.417.389-.417l9.056-3.527s.75-.334.75.194z" fill="#fff"/><path d="M71.251 269.697s-.111 0-.25-.445l-.833-2.666 5.445-3.472s.305-.195.305 0c0 0 .056.027-.111.194s-4.278 3.861-4.278 3.861" fill="#cadfec"/><path d="M72.973 268.308l-1.472 1.333s-.111.084-.25.028l.278-2.472" fill="#aacbe1"/></g><g fill-rule="evenodd"><path d="M31.475 272.425l.337.187C33.2 273.475 34.813 274 36.5 274c4.912 0 9-4.087 9-9.075S41.412 256 36.462 256s-8.962 3.975-8.962 8.925a9.09 9.09 0 0 0 1.387 4.838l.225.337-.862 3.15 3.225-.825z" fill="#00a655"/><path d="M33.575 259.9l-.713-.038c-.225 0-.45.075-.6.225-.337.301-.9.863-1.05 1.613-.262 1.125.15 2.475 1.125 3.825s2.85 3.525 6.15 4.463c1.05.3 1.875.112 2.55-.3a2.21 2.21 0 0 0 .975-1.426l.113-.524a.38.38 0 0 0-.188-.413l-2.362-1.087c-.15-.075-.338-.038-.45.112l-.937 1.2c-.075.075-.188.113-.3.075-.637-.225-2.775-1.125-3.938-3.375-.037-.113-.037-.225.038-.3l.9-1.012c.075-.113.112-.263.075-.375l-1.088-2.438c-.037-.112-.149-.225-.3-.225" fill="#fefefe"/></g><path d="M81.023 289.663c-.071 0-.106.036-.106.106l-.176 1.41.176 1.411c0 .07.035.106.106.106.035 0 .106-.036.106-.106l.212-1.411-.212-1.41c-.035-.07-.071-.106-.106-.106zm1.058-.775c0-.071-.035-.106-.106-.106s-.106.035-.106.106l-.247 2.291.247 2.257c0 .07.035.106.106.106s.106-.036.106-.106l.282-2.257-.282-2.291zm3.949-2.116c-.106 0-.176.071-.176.177l-.212 4.23.212 2.75c0 .106.106.177.176.177.106 0 .176-.071.211-.177l.212-2.75-.212-4.23c0-.106-.106-.177-.211-.177zm-2.045 1.446c-.07 0-.141.07-.141.141l-.212 2.82.212 2.715c0 .071.07.141.141.141s.141-.07.141-.141l.247-2.715-.247-2.82c0-.071-.071-.141-.141-.141zm4.125 5.888a.24.24 0 0 0 .247-.247l.212-2.68-.176-5.641a.24.24 0 1 0-.494 0l-.176 5.641.176 2.68c0 .141.106.247.211.247zm4.266.035c.176 0 .317-.141.317-.317l.141-2.609-.141-6.523c0-.176-.141-.317-.317-.317s-.317.141-.317.317l-.141 6.487.106 2.609c.035.177.176.353.353.353zm-2.151-.035c.141 0 .282-.106.282-.282l.176-2.645-.176-5.676c0-.141-.141-.282-.282-.282s-.282.106-.282.282l-.141 5.676.141 2.645c0 .176.141.282.282.282zm-5.218-.035c.106 0 .176-.071.176-.177l.247-2.75-.247-2.609c0-.106-.07-.176-.176-.176s-.176.07-.176.176l-.212 2.609.212 2.75c0 .106.07.177.176.177zm-2.045-.142c.07 0 .106-.035.141-.141l.282-2.644-.282-2.715c0-.07-.07-.141-.141-.141s-.106.036-.141.141l-.247 2.715.247 2.644c.035.106.07.141.141.141zm8.356-8.496c-.176 0-.317.141-.317.317l-.141 5.465.141 2.644c0 .176.141.317.317.317s.282-.141.317-.317l.141-2.644-.141-5.465c-.035-.212-.141-.317-.317-.317zm-4.231 8.673c.106 0 .212-.106.212-.212l.212-2.715-.212-5.182c0-.106-.106-.212-.212-.212s-.212.106-.212.212l-.176 5.182.176 2.715c0 .141.07.212.212.212zm2.362-.247l.176-2.68-.176-5.817a.24.24 0 1 0-.494 0l-.176 5.817.176 2.68a.24.24 0 0 0 .247.247c.106 0 .212-.106.247-.247zm13.75-6.029c-.423 0-.846.071-1.234.247-.247-2.856-2.644-5.077-5.535-5.077-.705 0-1.41.141-2.01.388-.247.106-.317.176-.317.388v10.012a.41.41 0 0 0 .353.388h8.743c1.728 0 3.138-1.41 3.138-3.138 0-1.798-1.41-3.208-3.138-3.208zm-9.731-4.09c-.176 0-.353.141-.353.353l-.141 7.086.141 2.574c0 .176.141.353.353.353.176 0 .353-.141.353-.353l.141-2.574-.141-7.086a.38.38 0 0 0-.353-.353zm-10.189 12.375c-.388-.07-.458-.141-.458-.282 0-.105.07-.211.353-.211a.63.63 0 0 1 .529.247l.353-.318c-.212-.247-.493-.352-.846-.352-.458 0-.846.247-.846.705s.317.599.74.705c.458.106.529.176.529.317 0 .177-.141.247-.423.247a.74.74 0 0 1-.599-.282l-.352.317c.176.247.529.423.917.423.635 0 .917-.317.917-.74-.035-.529-.458-.67-.811-.776zm2.151-.916c-.635 0-1.022.493-1.022 1.198s.388 1.199 1.022 1.199 1.022-.493 1.022-1.199-.388-1.198-1.022-1.198zm0 1.939c-.388 0-.529-.317-.529-.741s.141-.74.529-.74.529.317.529.74-.141.741-.529.741zm2.926-.6c0 .388-.176.6-.494.6-.282 0-.494-.247-.494-.6v-1.304h-.458v1.304c0 .67.388 1.058.952 1.058.599 0 .952-.388.952-1.058v-1.304h-.458v1.304zm2.503-.317v.529c-.035-.071-.106-.176-.176-.282l-.846-1.234h-.458v2.362h.458v-1.022-.529c.035.07.106.176.176.282l.846 1.269h.423v-2.362h-.458l.035.987zm1.798-.987h-.74v2.362h.705c.599 0 1.199-.352 1.199-1.163 0-.882-.494-1.199-1.163-1.199zm-.035 1.869h-.247v-1.446h.247c.493 0 .705.247.705.705s-.212.741-.705.741zm2.644-1.446c.212 0 .353.106.423.247l.423-.212c-.141-.317-.423-.529-.846-.529-.599 0-1.058.494-1.058 1.199 0 .741.423 1.199 1.022 1.199.423 0 .705-.212.881-.529l-.388-.247c-.141.212-.247.282-.458.282-.353 0-.564-.317-.564-.74 0-.353.212-.67.564-.67zm1.763-.423h-.458v2.362h1.41v-.458h-.952v-1.904zm2.151-.035c-.635 0-1.022.493-1.022 1.198s.388 1.199 1.022 1.199 1.022-.493 1.022-1.199-.352-1.198-1.022-1.198zm0 1.939c-.388 0-.529-.317-.529-.741s.141-.74.529-.74.529.317.529.74c.035.424-.141.741-.529.741zm2.926-.6c0 .388-.176.6-.493.6-.282 0-.494-.247-.494-.6v-1.304h-.458v1.304c0 .67.388 1.058.952 1.058.599 0 .952-.388.952-1.058v-1.304h-.459v1.304zm1.798-1.304h-.74v2.362h.705c.599 0 1.199-.352 1.199-1.163 0-.882-.494-1.199-1.164-1.199zm-.035 1.904h-.247v-1.446h.247c.494 0 .705.247.705.705 0 .424-.211.741-.705.741z" fill="url(#D)"/><path d="M142.721 285l1.093 1.022-1.093 1.093a13.88 13.88 0 0 0-1.022-1.022l-1.093 1.093 1.022 1.022-1.057 1.058-1.023-1.022 1.023-1.023-1.093-1.093-1.023 1.023-1.128-1.129 1.058-1.022h.035l1.058.987 1.058-.987h.035l1.093 1.058.987-.987.035-.036c0-.035 0-.035.035-.035zm-4.512 11.846v-3.949h.141l1.727.036c1.093.105 1.728.846 1.763 1.904.035 1.022-.634 1.798-1.657 2.009-.035 0-.07.035-.141.035l-1.833-.035zm.881-.811c.282 0 .564.036.811 0 .529-.07.917-.493.987-1.022.035-.6-.247-1.128-.775-1.269-.318-.106-.67-.071-1.023-.141v2.432zm4.513.811l1.551-3.702c.071-.211.176-.317.423-.282.212.035.458-.035.635.035.141.106.176.353.246.565l1.305 3.173c.035.07.035.141.07.176h-1.022a5.48 5.48 0 0 0-.247-.705c0-.036-.106-.071-.141-.071h-1.445a.26.26 0 0 0-.141.071 5.48 5.48 0 0 0-.247.705c-.317.035-.67.035-.987.035zm2.679-1.516l-.564-1.516-.564 1.516h1.128zm-17.945-2.468h3.244v.776h-1.129v.176 2.926c0 .036 0 .071.036.106h-.917v-3.208h-1.163c-.071-.247-.071-.529-.071-.776zm21.859 3.984c0-.07.036-.176.036-.247v-3.455-.247h.916v3.174h1.587v.775h-2.539zm-15.936 0v-3.702-.247h.916v3.949h-.916z" fill="#0e141d"/><path d="M181.046 290.01h-1.375v.811h1.375v-.811z" fill="#00956a"/><path d="M181.046 291.103h-1.375v.81h1.375v-.81z" fill="url(#E)"/><path d="M181.046 292.196h-1.375v.81h1.375v-.81z" fill="url(#F)"/><path d="M176.11 293.324h-1.375v.811h1.375v-.811z" fill="url(#G)"/><path d="M177.767 293.324h-1.375v.811h1.375v-.811z" fill="url(#H)"/><path d="M179.424 293.324h-1.375v.811h1.375v-.811z" fill="url(#I)"/><path d="M181.046 293.324h-1.375v.811h1.375v-.811z" fill="url(#J)"/><path d="M179.424 292.196h-1.375v.81h1.375v-.81z" fill="url(#K)"/><path d="M177.767 292.196h-1.375v.81h1.375v-.81z" fill="url(#L)"/><path d="M177.767 291.103h-1.375v.81h1.375v-.81z" fill="url(#M)"/><g fill="#0e141d"><path d="M193.138 293.253c-.599 0-1.093-.352-1.093-.987h2.786c.035-.176.07-.317.07-.494 0-1.128-.775-1.868-1.904-1.868-1.234 0-2.044.952-2.044 2.115 0 1.305.916 2.186 2.185 2.186.952 0 1.622-.493 1.94-1.269l-.952-.388c-.177.458-.494.705-.988.705zm-.141-2.433c.494 0 .847.283.847.67v.036h-1.763c.07-.459.458-.706.916-.706z"/><path d="M198.744 290.926v-.916h-3.596v.952h2.186l-2.256 2.221v.952h3.737v-.988h-2.327l2.256-2.221zm6.699.423v.212h1.057c.036-.141.036-.282.036-.423 0-.705-.459-1.234-1.164-1.234-.493 0-.811.247-.987.599v-.529h-1.128v4.125h1.128v-2.644c0-.423.212-.635.564-.635.282 0 .494.212.494.529z"/><path d="M185.417 290.609c-.247-.423-.705-.705-1.304-.705-1.128 0-1.939.881-1.975 2.15 0 1.27.811 2.116 1.975 2.116.599 0 1.057-.247 1.304-.67v.599h1.058V288h-1.128l.07 2.609zm-1.057 2.644c-.6 0-1.093-.458-1.093-1.199s.493-1.198 1.093-1.198 1.093.458 1.093 1.198-.494 1.199-1.093 1.199zm16.711 0c-.599 0-1.093-.352-1.093-.987h2.785c.036-.176.071-.317.071-.494 0-1.128-.776-1.868-1.904-1.868-1.234 0-2.045.952-2.045 2.115 0 1.305.917 2.186 2.186 2.186.952 0 1.622-.493 1.939-1.269l-.952-.388c-.176.494-.493.705-.987.705zm-.176-2.433c.493 0 .846.283.846.67v.036h-1.763c.106-.423.494-.706.917-.706zm-11.882 2.433c-.599 0-1.093-.352-1.093-.987h2.786c.035-.176.07-.317.035-.494 0-1.128-.776-1.868-1.904-1.868-1.234 0-2.045.952-2.045 2.115 0 1.305.917 2.186 2.186 2.186.952 0 1.622-.493 1.939-1.269l-.952-.388c-.106.458-.423.705-.952.705zm-.141-2.433c.494 0 .846.283.846.67v.036h-1.762c.105-.459.458-.706.916-.706z"/></g><path d="M34.908 297.891a6.95 6.95 0 0 0 6.946-6.945A6.95 6.95 0 0 0 34.908 284a6.95 6.95 0 0 0-6.945 6.946c0 3.835 3.11 6.945 6.945 6.945z" fill="#12985d"/><g fill="#0e141d"><path d="M35.437 288.583l-.846.635c-.282-.423-.635-.67-1.128-.67-.388 0-.74.176-.74.564 0 .353.247.494.705.67l.67.282c.952.423 1.481.882 1.481 1.728 0 1.093-.917 1.798-2.08 1.798-1.022 0-1.869-.529-2.292-1.305l.846-.634c.317.458.74.881 1.446.881.529 0 .846-.247.846-.67 0-.388-.282-.529-.74-.74l-.635-.282c-.846-.388-1.445-.882-1.445-1.728 0-1.022.846-1.692 1.974-1.692.952.035 1.622.494 1.939 1.163zm5.429 2.68c0 1.34-.917 2.362-2.151 2.362a1.86 1.86 0 0 1-1.34-.529v2.045h-1.234v-6.099h1.128v.564c.317-.423.811-.67 1.446-.67 1.234 0 2.151.987 2.151 2.327zm-1.269.035c0-.776-.529-1.234-1.163-1.234-.564 0-1.128.353-1.128 1.234 0 .846.564 1.234 1.128 1.234.67-.035 1.163-.494 1.163-1.234zm6.311 0c0 1.34-1.093 2.327-2.398 2.327-1.34 0-2.397-1.022-2.397-2.327s1.058-2.327 2.397-2.327a2.32 2.32 0 0 1 2.398 2.327zm-3.561 0c0 .705.494 1.199 1.163 1.199s1.163-.529 1.163-1.199c0-.705-.494-1.234-1.163-1.234-.705 0-1.163.529-1.163 1.234z"/><path d="M49.258 292.497v1.022c-.247.071-.529.106-.846.106-1.093 0-1.798-.529-1.798-1.692v-1.869h-.705v-1.022h.705v-1.128h1.234v1.128h1.269v1.022h-1.269v1.763c0 .529.282.705.846.705.141 0 .317 0 .564-.035zm1.833-5.077c0 .423-.353.74-.776.74s-.776-.317-.776-.74.352-.776.776-.776c.423.036.776.353.776.776zm-.176 6.099H49.68v-4.477h1.234v4.477zm2.185-5.077v.635h.987v1.022H53.1v3.456h-1.234v-3.456h-.635v-1.022h.635v-.74c0-1.164.67-1.693 1.727-1.693.282 0 .494.036.67.106v1.022c-.141-.035-.247-.035-.352-.035-.529 0-.811.177-.811.705z"/><path d="M58.741 289.042l-2.151 4.865c-.423.917-.952 1.34-1.763 1.34-.247 0-.564-.035-.776-.106v-1.022c.212.035.388.035.529.035.388 0 .705-.106.917-.599l.141-.282-1.728-4.196h1.305l1.093 2.926 1.163-2.926 1.269-.035z"/></g><g fill="#7c6c8a"><path d="M202.779 329.516l-1.363-1.364c-.051-.05-.101-.05-.152 0s-.05.101 0 .152l1.111 1.111H61.95 31.794a3.73 3.73 0 0 1-3.738-3.738v-3.687-3.031-3.031-3.687a3.73 3.73 0 0 1 3.738-3.738H51.04c.101 0 .152-.05.152-.152s-.05-.151-.152-.151H31.794c-2.273 0-4.091 1.818-4.091 4.091v3.688 6.061 3.688c0 2.273 1.819 4.091 4.092 4.091h31.015 139.566l-1.111 1.112s-.05.05-.05.101.05.101.101.101.05 0 .101-.051l1.363-1.364c.051-.05.051-.151 0-.202z"/><path d="M201.314 331.283c-.101 0-.152-.05-.202-.101s-.101-.151-.101-.202c0-.101.05-.151.101-.202l.808-.808H31.794a4.29 4.29 0 0 1-4.294-4.294v-13.385a4.29 4.29 0 0 1 4.294-4.294h19.245c.202 0 .354.152.354.354s-.152.353-.354.353H31.794c-1.97 0-3.586 1.617-3.586 3.587v3.687 3.031 3.233 3.485a3.6 3.6 0 0 0 3.586 3.586H201.92l-.808-.808c-.051-.05-.101-.151-.101-.202a.38.38 0 0 1 .101-.202.31.31 0 0 1 .404 0l1.364 1.364c.05.05.101.151.101.202s-.051.152-.101.202l-1.364 1.364c-.051.05-.152.05-.202.05zm23.893-23.133h-31.015-139.97l1.111-1.112s.05-.05.05-.101a.11.11 0 0 0-.101-.101c-.05 0-.05 0-.101.051l-1.364 1.364c-.05.05-.05.101 0 .151l1.364 1.364c.05.05.101.05.151 0s.05-.101 0-.152l-1.111-1.111H195h30.156a3.73 3.73 0 0 1 3.738 3.738v3.687 3.031 3.031 3.687a3.73 3.73 0 0 1-3.738 3.738h-19.245c-.101 0-.152.051-.152.152s.051.151.152.151h19.245c2.273 0 4.092-1.818 4.092-4.091v-3.688-6.061-3.687c0-2.223-1.819-4.041-4.041-4.041z"/><path d="M225.206 329.92h-19.245c-.202 0-.353-.152-.353-.354s.151-.354.353-.354h19.245c1.97 0 3.587-1.616 3.587-3.586v-3.687-3.031-3.233-3.485c0-1.97-1.617-3.587-3.587-3.587h-29.903H54.676l.808.808c.101.102.101.304 0 .455a.31.31 0 0 1-.404 0l-1.364-1.364a.38.38 0 0 1-.101-.202c0-.101.05-.151.101-.202l1.364-1.364c.05-.05.101-.101.202-.101.152 0 .303.152.303.303 0 .101-.05.152-.101.202l-.808.809h139.516 31.014a4.29 4.29 0 0 1 4.294 4.293v13.386c-.051 2.374-1.97 4.294-4.294 4.294zm-194.23-11.774c0-2.389 1.912-4.3 4.462-4.3 1.487 0 2.497.424 3.347 1.168l-1.328 1.592c-.584-.478-1.169-.796-2.019-.796-1.169 0-2.125 1.009-2.125 2.23 0 1.327.956 2.282 2.231 2.282.584 0 1.009-.106 1.328-.318v-1.009h-1.647v-1.646h3.825v3.663c-.903.744-2.072 1.275-3.612 1.275-2.55.106-4.462-1.646-4.462-4.141zm9.031-4.513h2.338v1.646h-2.338v-1.646zm.053 2.23h2.231v6.317H40.06v-6.317h0zm3.188 7.538l.744-1.486c.691.371 1.381.584 2.231.584 1.116 0 1.647-.531 1.647-1.54v-.265c-.478.531-1.009.955-1.966.955-1.594 0-2.869-1.114-2.869-2.919s1.328-2.973 2.763-2.973c1.009 0 1.541.371 2.019.902v-.743h2.284v4.831c0 1.168-.266 2.017-.85 2.548-.584.584-1.487.903-2.815.903-1.222-.107-2.231-.372-3.187-.797zm4.675-4.671c0-.744-.531-1.275-1.328-1.275-.744 0-1.328.531-1.328 1.221s.531 1.221 1.328 1.221 1.328-.477 1.328-1.167zm2.869 1.645c0-1.327 1.009-2.017 2.497-2.017.584 0 1.169.106 1.541.265v-.106c0-.69-.425-1.061-1.275-1.061-.691 0-1.222.106-1.753.371l-.478-1.539c.744-.319 1.487-.478 2.603-.478 1.169 0 1.913.265 2.444.796.478.478.691 1.115.691 2.017v3.663h-2.231v-.69a2.55 2.55 0 0 1-1.912.797c-1.222-.054-2.125-.744-2.125-2.018zm4.037-.477v-.319c-.212-.106-.531-.159-.903-.159-.637 0-1.009.318-1.009.796 0 .425.319.69.797.69.691.053 1.116-.371 1.116-1.008zm2.656 1.486l.85-1.327c.744.478 1.541.743 2.178.743.372 0 .584-.106.584-.319 0-.265-.372-.371-1.062-.53-1.275-.319-2.284-.744-2.284-2.018 0-1.327 1.116-2.07 2.55-2.07.956 0 1.912.265 2.656.743l-.744 1.38c-.637-.371-1.381-.584-1.912-.584-.319 0-.531.107-.531.319 0 .265.372.372 1.062.584 1.275.318 2.284.796 2.284 2.017 0 1.38-1.062 2.124-2.603 2.124-1.116-.106-2.178-.425-3.028-1.062zm9.889.335c1.261 0 2.145-.669 2.145-1.793v-.017c0-.996-.652-1.45-1.922-1.759-1.158-.275-1.433-.481-1.433-.944v-.017c0-.395.36-.712.978-.712.549 0 1.09.214 1.63.617l.566-.797a3.32 3.32 0 0 0-2.179-.755c-1.193 0-2.051.712-2.051 1.741v.017c0 1.107.721 1.485 1.999 1.794 1.115.257 1.356.489 1.356.918v.017c0 .446-.412.755-1.064.755-.738 0-1.321-.283-1.896-.781l-.635.755c.721.644 1.587.961 2.505.961zm2.871-.086h4.496v-.943H71.3v-1.614h3.012v-.943H71.3v-1.562h3.398v-.944h-4.453v6.006zm6.776 0h1.081l.618-1.45h2.84l.609 1.45h1.115l-2.643-6.049h-.978l-2.643 6.049zm2.085-2.385l1.03-2.402 1.038 2.402h-2.068zm7.105 2.488c1.124 0 1.81-.412 2.437-1.064l-.678-.686c-.515.48-.987.772-1.725.772-1.15 0-1.982-.952-1.982-2.128v-.017c0-1.175.841-2.119 1.982-2.119.686 0 1.201.3 1.682.746l.678-.78c-.575-.55-1.244-.936-2.351-.936-1.819 0-3.097 1.399-3.097 3.106v.017c0 1.725 1.304 3.089 3.055 3.089zm5.494-.008c1.57 0 2.583-.901 2.583-2.694v-3.407h-1.055v3.458c0 1.107-.575 1.665-1.51 1.665-.944 0-1.519-.592-1.519-1.708v-3.415h-1.055v3.458c0 1.742.995 2.643 2.557 2.643zm3.516-.095h1.038v-4.29l1.879 2.815h.034l1.896-2.832v4.307h1.055v-6.006H100l-1.827 2.84-1.828-2.84h-1.124v6.006zm9.397.095c1.57 0 2.583-.901 2.583-2.694v-3.407h-1.056v3.458c0 1.107-.575 1.665-1.51 1.665-.944 0-1.519-.592-1.519-1.708v-3.415h-1.055v3.458c0 1.742.995 2.643 2.557 2.643zm3.516-.095h4.213v-.961h-3.157v-5.045h-1.056v6.006zm4.283 0h1.081l.618-1.45h2.84l.609 1.45h1.115l-2.642-6.049h-.978l-2.643 6.049zm2.085-2.385l1.029-2.402 1.039 2.402h-2.068zm4.693 2.385h1.039v-4.273l3.312 4.273h.883v-6.006h-1.038v4.153l-3.217-4.153h-.979v6.006zm8.322 0h1.055v-1.93h1.193c1.321 0 2.402-.704 2.402-2.051v-.017c0-1.21-.875-2.008-2.282-2.008h-2.368v6.006zm1.055-2.883v-2.162h1.227c.789 0 1.296.369 1.296 1.073v.017c0 .626-.498 1.072-1.296 1.072h-1.227zm3.043 2.883h1.081l.618-1.45h2.84l.609 1.45h1.115l-2.642-6.049h-.978l-2.643 6.049zm2.085-2.385l1.03-2.402 1.038 2.402H133.7zm4.694 2.385h1.055v-2.093h1.321l1.476 2.093h1.253l-1.622-2.273c.832-.241 1.424-.833 1.424-1.819v-.018c0-.523-.18-.969-.497-1.295-.386-.378-.978-.601-1.733-.601h-2.677v6.006zm1.055-3.028v-2.017h1.536c.781 0 1.244.352 1.244.996v.017c0 .609-.481 1.004-1.236 1.004h-1.544zm4.115 3.028h1.081l.618-1.45h2.84l.609 1.45h1.116l-2.643-6.049h-.978l-2.643 6.049zm2.085-2.385l1.03-2.402 1.038 2.402h-2.068zm6.751 2.385h4.496v-.943h-3.44v-1.614h3.011v-.943h-3.011v-1.562h3.397v-.944H152.4v6.006zm5.234 0h4.212v-.961h-3.157v-5.045h-1.055v6.006zm6.855 0h1.038v-4.29l1.879 2.815h.034l1.896-2.832v4.307h1.056v-6.006h-1.124l-1.828 2.84-1.828-2.84h-1.123v6.006zm6.934 0h4.495v-.943h-3.44v-1.614h3.011v-.943h-3.011v-1.562h3.398v-.944h-4.453v6.006zm7.335.086c1.261 0 2.145-.669 2.145-1.793v-.017c0-.996-.652-1.45-1.922-1.759-1.158-.275-1.433-.481-1.433-.944v-.017c0-.395.36-.712.978-.712.549 0 1.09.214 1.63.617l.567-.797c-.61-.49-1.305-.755-2.18-.755-1.192 0-2.05.712-2.05 1.741v.017c0 1.107.72 1.485 1.999 1.794 1.115.257 1.355.489 1.355.918v.017c0 .446-.411.755-1.063.755-.738 0-1.322-.283-1.897-.781l-.635.755a3.7 3.7 0 0 0 2.506.961zm7.031 0c1.261 0 2.145-.669 2.145-1.793v-.017c0-.996-.652-1.45-1.922-1.759-1.159-.275-1.433-.481-1.433-.944v-.017c0-.395.36-.712.978-.712.549 0 1.09.214 1.63.617l.567-.797c-.61-.49-1.305-.755-2.18-.755-1.192 0-2.05.712-2.05 1.741v.017c0 1.107.72 1.485 1.999 1.794 1.115.257 1.355.489 1.355.918v.017c0 .446-.411.755-1.064.755-.737 0-1.321-.283-1.896-.781l-.635.755a3.7 3.7 0 0 0 2.506.961zm2.931-.086h1.055v-6.006h-1.055v6.006zm4.997.103a3.83 3.83 0 0 0 2.505-.935v-2.522h-2.557v.918h1.536v1.124c-.369.274-.884.454-1.45.454-1.227 0-2.042-.909-2.042-2.145v-.017c0-1.15.841-2.119 1.948-2.119.763 0 1.218.249 1.681.643l.67-.798c-.618-.523-1.262-.815-2.308-.815-1.811 0-3.098 1.425-3.098 3.106v.017c0 1.751 1.236 3.089 3.115 3.089zm5.827-.008c1.57 0 2.583-.901 2.583-2.694v-3.407h-1.056v3.458c0 1.107-.574 1.665-1.51 1.665-.943 0-1.518-.592-1.518-1.708v-3.415h-1.056v3.458c0 1.742.996 2.643 2.557 2.643zm3.577-.095h1.055v-6.006h-1.055v6.006zm2.148 0h4.496v-.943h-3.441v-1.614h3.012v-.943h-3.012v-1.562h3.398v-.944h-4.453v6.006zm5.233 0h1.038v-4.273l3.312 4.273h.884v-6.006h-1.038v4.153l-3.218-4.153h-.978v6.006zm7.74 0h1.064v-5.028h1.904v-.978h-4.873v.978h1.905v5.028zm3.573 0h4.496v-.943h-3.441v-1.614h3.012v-.943h-3.012v-1.562h3.398v-.944h-4.453v6.006z"/></g><path d="M27 193.92l1.36-4.96a10.13 10.13 0 0 1-1.36-5.04c0-5.44 4.48-9.92 9.92-9.92s10 4.48 10 9.92-4.56 10-10 10c-1.68 0-3.36-.56-4.88-1.36L27 193.92z" fill="#fff" stroke="#cccdd1" stroke-width=".5" stroke-miterlimit="10"/><path d="M32.36 190.8l.32.16c1.28.8 2.72 1.28 4.32 1.28 4.48 0 8.24-3.76 8.24-8.32s-3.76-8.16-8.32-8.16-8.24 3.68-8.24 8.16c0 1.6.48 3.12 1.28 4.4l.24.32-.8 2.88 2.96-.72z" fill="#009e56"/><path d="M34.28 179.28h-.64c-.24 0-.4.08-.56.24-.32.24-.8.8-.96 1.44-.24 1.04.16 2.24 1.04 3.52.88 1.2 2.64 3.2 5.6 4.08.96.24 1.68.08 2.32-.24.48-.32.8-.8.88-1.28l.08-.48c0-.16 0-.32-.16-.4l-2.16-.96c-.16-.08-.32 0-.4.08l-.88 1.12c-.08.08-.16.08-.24.08-.56-.24-2.56-1.04-3.6-3.12v-.24l.8-.96c.08-.08.08-.24.08-.32l-.96-2.24c0-.16-.16-.32-.24-.32z" fill="#fff"/><path d="M54.682 181h5.863v-1.87h-3.729v-5.83h-2.134v7.7zm6.844 0h2.134v-7.7h-2.134v7.7zm3.544 0h3.971c1.837 0 2.915-.803 2.915-2.123v-.022c0-1.045-.594-1.573-1.529-1.881.682-.297 1.188-.825 1.188-1.716v-.022c0-.528-.187-.935-.495-1.254-.451-.44-1.133-.682-2.101-.682H65.07v7.7zm4.444-5.302c0 .451-.374.671-1.023.671h-1.342v-1.353h1.397c.627 0 .968.231.968.66v.022zm.308 2.86v.022c0 .451-.363.704-1.023.704h-1.65v-1.419h1.628c.715 0 1.045.275 1.045.693zM72.933 181h2.134v-2.332h.946L77.564 181h2.453l-1.837-2.684c.957-.407 1.584-1.188 1.584-2.376v-.022c0-.759-.231-1.342-.682-1.793-.517-.517-1.331-.825-2.508-.825h-3.641v7.7zm2.134-4.004v-1.859h1.408c.704 0 1.155.308 1.155.924v.022c0 .561-.429.913-1.144.913h-1.419zM80.839 181h6.248v-1.815h-4.136v-1.221h3.696v-1.683h-3.696v-1.177h4.081V173.3h-6.193v7.7zm10.398 0h6.248v-1.815H93.35v-1.221h3.696v-1.683H93.35v-1.177h4.081V173.3h-6.193v7.7zm7.348 0h2.112v-4.224l3.3 4.224h1.859v-7.7h-2.112v4.07l-3.168-4.07h-1.991v7.7zm11.688 0h2.134v-2.332h.946l1.551 2.332h2.453l-1.837-2.684c.957-.407 1.584-1.188 1.584-2.376v-.022c0-.759-.231-1.342-.682-1.793-.517-.517-1.331-.825-2.508-.825h-3.641v7.7zm2.134-4.004v-1.859h1.408c.704 0 1.155.308 1.155.924v.022c0 .561-.429.913-1.144.913h-1.419zm9.655 4.158c2.376 0 4.158-1.793 4.158-4.004v-.022c0-2.211-1.76-3.982-4.136-3.982s-4.158 1.793-4.158 4.004v.022c0 2.211 1.76 3.982 4.136 3.982zm.022-1.925c-1.177 0-1.98-.968-1.98-2.079v-.022c0-1.111.781-2.057 1.958-2.057s1.969.957 1.969 2.079v.022c0 1.111-.781 2.057-1.947 2.057zm4.138 1.771h2.233l.55-1.386h2.981l.55 1.386h2.288l-3.278-7.755h-2.057L126.222 181zm3.41-3.047l.869-2.178.858 2.178h-1.727zm5.939 3.047h2.09v-4.411l1.958 3.003h.044l1.969-3.014V181h2.123v-7.7H141.5l-1.837 2.981-1.837-2.981h-2.255v7.7zm9.604 0h2.134v-7.7h-2.134v7.7zm3.544 0h2.112v-4.224l3.3 4.224h1.859v-7.7h-2.112v4.07l-3.168-4.07h-1.991v7.7zm12.564.154c1.408 0 2.53-.517 3.344-1.199v-3.454h-3.531v1.562h1.507v.935c-.308.209-.704.319-1.232.319-1.221 0-2.09-.891-2.09-2.145v-.022c0-1.177.858-2.101 1.969-2.101.77 0 1.309.264 1.859.726l1.254-1.518c-.814-.704-1.771-1.111-3.124-1.111-2.376 0-4.136 1.76-4.136 4.004v.022c0 2.332 1.782 3.982 4.18 3.982zM55.089 194h5.621v-.792h-4.752v-2.695h4.202v-.792h-4.202v-2.629h4.697v-.792h-5.566v7.7zm7.369 0h.847v-6.314L68.277 194h.693v-7.7h-.847v6.171l-4.851-6.171h-.814v7.7zm11.988 0h.847v-6.226l2.805 4.114h.044l2.805-4.125V194h.869v-7.7h-.88l-2.805 4.202-2.805-4.202h-.88v7.7zm8.89 0h.891l.913-2.035h4.191l.902 2.035h.935l-3.509-7.755h-.814L83.336 194zm2.145-2.816l1.76-3.927 1.749 3.927h-3.509zm1.419-5.676h.704l1.265-1.023-.869-.396-1.1 1.419zm8.276 8.602c1.529 0 2.629-.858 2.629-2.178v-.022c0-1.177-.792-1.793-2.508-2.178-1.705-.352-2.09-.77-2.09-1.496v-.022c0-.704.627-1.243 1.639-1.243.792 0 1.507.253 2.222.836l.506-.671c-.792-.627-1.573-.946-2.706-.946-1.463 0-2.53.902-2.53 2.101v.022c0 1.265.814 1.837 2.585 2.222 1.617.352 2.002.748 2.002 1.463v.022c0 .759-.671 1.309-1.716 1.309-1.067 0-1.837-.352-2.64-1.089l-.539.638c.924.836 1.914 1.232 3.146 1.232zm7.694-.11h2.673c2.42 0 4.092-1.683 4.092-3.85v-.022c0-2.167-1.672-3.828-4.092-3.828h-2.673v7.7zm2.673-6.897c1.947 0 3.19 1.342 3.19 3.047v.022c0 1.716-1.243 3.025-3.19 3.025h-1.804v-6.094h1.804zm5.932 6.897h5.621v-.792h-4.752v-2.695h4.202v-.792h-4.202v-2.629h4.697v-.792h-5.566v7.7zm12.911.132c1.617 0 2.75-1.023 2.75-2.53v-.022c0-1.463-1.166-2.354-2.662-2.354a3.29 3.29 0 0 0-1.518.341l.165-2.464h3.674v-.803h-4.433l-.22 3.751.583.385c.451-.253.957-.44 1.617-.44 1.111 0 1.914.649 1.914 1.617v.022c0 .979-.759 1.705-1.859 1.705-.792 0-1.518-.396-2.189-1.056l-.572.627c.704.704 1.65 1.221 2.75 1.221zm7.329 0c1.98 0 3.256-1.826 3.256-3.982v-.022c0-2.156-1.254-3.96-3.234-3.96s-3.267 1.826-3.267 3.982v.022c0 2.156 1.254 3.96 3.245 3.96zm.022-.792c-1.452 0-2.365-1.518-2.365-3.19v-.022c0-1.694.902-3.168 2.343-3.168s2.354 1.518 2.354 3.19v.022c0 1.683-.88 3.168-2.332 3.168zm8.301.66h.869v-2.717h1.87c1.639 0 3.025-.858 3.025-2.519v-.022c0-1.518-1.144-2.442-2.882-2.442h-2.882v7.7zm.869-3.509v-3.388h1.947c1.243 0 2.068.572 2.068 1.672v.022c0 1.012-.836 1.694-2.112 1.694h-1.903zm5.045 3.509h.891l.913-2.035h4.191l.902 2.035h.935l-3.509-7.755h-.814L145.952 194zm2.145-2.816l1.76-3.927 1.749 3.927h-3.509zM155.38 194h.869v-7.7h-.869v7.7zm5.764.11c1.529 0 2.629-.858 2.629-2.178v-.022c0-1.177-.792-1.793-2.508-2.178-1.705-.352-2.09-.77-2.09-1.496v-.022c0-.704.627-1.243 1.639-1.243.792 0 1.507.253 2.222.836l.506-.671c-.792-.627-1.573-.946-2.706-.946-1.463 0-2.53.902-2.53 2.101v.022c0 1.265.814 1.837 2.585 2.222 1.617.352 2.002.748 2.002 1.463v.022c0 .759-.671 1.309-1.716 1.309-1.067 0-1.837-.352-2.64-1.089l-.539.638c.924.836 1.914 1.232 3.146 1.232zm4.396-.11h5.621v-.792h-4.752v-2.695h4.202v-.792h-4.202v-2.629h4.697v-.792h-5.566v7.7zm10.009.11c1.529 0 2.629-.858 2.629-2.178v-.022c0-1.177-.792-1.793-2.508-2.178-1.705-.352-2.09-.77-2.09-1.496v-.022c0-.704.627-1.243 1.639-1.243.792 0 1.507.253 2.222.836l.506-.671c-.792-.627-1.573-.946-2.706-.946-1.463 0-2.53.902-2.53 2.101v.022c0 1.265.814 1.837 2.585 2.222 1.617.352 2.002.748 2.002 1.463v.022c0 .759-.671 1.309-1.716 1.309-1.067 0-1.837-.352-2.64-1.089l-.539.638c.924.836 1.914 1.232 3.146 1.232z" fill="#7c6c8a"/><path stroke="#ccc4d2" d="M27 204.5h203"/><path d="M34.826 382.292v4.75h-5.472v-4.864c-2.888-.735-5.029-2.419-6.422-5.054l4.332-3.306c1.317 2.001 3.027 3.002 5.13 3.002 1.571 0 2.356-.456 2.356-1.368 0-.38-.165-.684-.494-.912-.329-.253-.925-.532-1.786-.836l-2.546-.836c-1.9-.659-3.357-1.583-4.37-2.774s-1.52-2.571-1.52-4.142.481-2.926 1.444-4.066 2.255-1.938 3.876-2.394v-4.636h5.472v4.56c2.457.608 4.307 2.103 5.548 4.484l-4.332 3.306c-1.064-1.571-2.343-2.356-3.838-2.356-1.191 0-1.786.38-1.786 1.14 0 .608.633 1.127 1.9 1.558l2.85.874c3.977 1.368 5.966 3.673 5.966 6.916 0 1.799-.57 3.306-1.71 4.522s-2.673 2.027-4.598 2.432zm28.046-15.2c0 1.393-.279 2.635-.836 3.724-.532 1.089-1.393 2.445-2.584 4.066l-6.27 8.398h-7.714l5.586-7.562c-2.027-.279-3.787-1.216-5.282-2.812-1.469-1.621-2.204-3.585-2.204-5.89-.051-2.584.912-4.788 2.888-6.612s4.231-2.711 6.764-2.66a9.5 9.5 0 0 1 6.764 2.698c1.925 1.773 2.888 3.99 2.888 6.65zm-6.46-.038c0-.937-.317-1.723-.95-2.356-.608-.633-1.355-.95-2.242-.95a3.11 3.11 0 0 0-2.28.95c-.608.633-.912 1.419-.912 2.356s.304 1.71.912 2.318c.633.608 1.393.912 2.28.912.912 0 1.672-.304 2.28-.912a3.22 3.22 0 0 0 .912-2.318zm8.037 15.466c-.811-.811-1.216-1.824-1.216-3.04s.405-2.229 1.216-3.04 1.849-1.216 3.116-1.216c1.216 0 2.217.405 3.002 1.216.811.811 1.216 1.824 1.216 3.04s-.405 2.229-1.216 3.04c-.785.811-1.786 1.216-3.002 1.216-1.267 0-2.305-.405-3.116-1.216zm28.11-15.428c0 1.393-.279 2.635-.836 3.724-.532 1.089-1.393 2.445-2.584 4.066l-6.27 8.398h-7.714l5.586-7.562c-2.027-.279-3.787-1.216-5.282-2.812-1.469-1.621-2.204-3.585-2.204-5.89-.051-2.584.912-4.788 2.888-6.612s4.231-2.711 6.764-2.66a9.5 9.5 0 0 1 6.764 2.698c1.925 1.773 2.888 3.99 2.888 6.65zm-6.46-.038c0-.937-.317-1.723-.95-2.356-.608-.633-1.355-.95-2.242-.95a3.11 3.11 0 0 0-2.28.95c-.608.633-.912 1.419-.912 2.356s.304 1.71.912 2.318c.633.608 1.393.912 2.28.912.912 0 1.672-.304 2.28-.912a3.22 3.22 0 0 0 .912-2.318zm28.132.038c0 1.393-.279 2.635-.836 3.724-.532 1.089-1.393 2.445-2.584 4.066l-6.27 8.398h-7.714l5.586-7.562c-2.027-.279-3.787-1.216-5.282-2.812-1.469-1.621-2.204-3.585-2.204-5.89-.051-2.584.912-4.788 2.888-6.612s4.231-2.711 6.764-2.66a9.5 9.5 0 0 1 6.764 2.698c1.925 1.773 2.888 3.99 2.888 6.65zm-6.46-.038c0-.937-.317-1.723-.95-2.356-.608-.633-1.355-.95-2.242-.95s-1.647.317-2.28.95c-.608.633-.912 1.419-.912 2.356s.304 1.71.912 2.318c.633.608 1.393.912 2.28.912.912 0 1.672-.304 2.28-.912a3.22 3.22 0 0 0 .912-2.318zm27.79 7.79c0 2.559-.963 4.687-2.888 6.384-1.925 1.672-4.307 2.508-7.144 2.508-2.204 0-4.167-.532-5.89-1.596-1.697-1.064-2.977-2.533-3.838-4.408l4.522-3.192c.76 1.14 1.507 1.963 2.242 2.47.76.481 1.659.722 2.698.722 1.089 0 1.963-.241 2.622-.722.659-.507.988-1.203.988-2.09 0-1.697-1.444-2.546-4.332-2.546h-5.966V358.2h15.542v5.89h-9.348v2.926c.887-.177 1.685-.266 2.394-.266 2.179-.051 4.129.697 5.852 2.242 1.748 1.545 2.597 3.496 2.546 5.852z" fill="#76489b"/><path d="M143.576 378.32c-.024-1.128.372-2.096 1.188-2.904.824-.808 1.8-1.204 2.928-1.188.696 0 1.332.152 1.908.456.584.304 1.044.72 1.38 1.248l-.696.552c-.648-.928-1.508-1.392-2.58-1.392-.896 0-1.648.308-2.256.924-.6.616-.9 1.384-.9 2.304s.3 1.688.9 2.304c.608.616 1.36.924 2.256.924 1.072 0 1.932-.464 2.58-1.392l.696.552c-.336.528-.796.944-1.38 1.248-.576.304-1.212.456-1.908.456-1.128.016-2.104-.38-2.928-1.188-.816-.808-1.212-1.776-1.188-2.904zm13.344.36v3.6h-.864v-.756c-.448.592-1.104.888-1.968.888-.608 0-1.1-.148-1.476-.444-.376-.304-.564-.704-.564-1.2s.192-.892.576-1.188.892-.444 1.524-.444h1.848v-.504c0-.472-.128-.836-.384-1.092-.248-.256-.592-.384-1.032-.384-.656 0-1.224.312-1.704.936l-.612-.504c.52-.856 1.312-1.284 2.376-1.284.704 0 1.26.208 1.668.624.408.408.612.992.612 1.752zm-.924 1.356v-.144h-1.74c-.84 0-1.26.276-1.26.828a.81.81 0 0 0 .336.684c.232.16.524.24.876.24.488 0 .908-.156 1.26-.468s.528-.692.528-1.14zm5.991-3.6v.816h-.348c-.512 0-.948.156-1.308.468-.352.312-.528.728-.528 1.248v3.312h-.924v-5.844h.864v.828c.432-.584 1.036-.876 1.812-.876a1.88 1.88 0 0 1 .432.048zm5.863 0h.876v5.28c0 .88-.256 1.576-.768 2.088s-1.204.768-2.076.768c-1.08 0-1.996-.376-2.748-1.128l.54-.648c.704.616 1.432.924 2.184.924.608 0 1.084-.172 1.428-.516.344-.336.516-.816.516-1.44v-.516a2.37 2.37 0 0 1-.936.72 3.05 3.05 0 0 1-1.236.252c-.824 0-1.508-.28-2.052-.84s-.816-1.264-.816-2.112c0-.84.272-1.544.816-2.112.552-.568 1.236-.852 2.052-.852a2.88 2.88 0 0 1 1.284.288c.4.184.712.444.936.78v-.936zm-.036 2.832c0-.664-.2-1.176-.6-1.536-.392-.368-.872-.552-1.44-.552-.6 0-1.096.2-1.488.6-.392.392-.588.892-.588 1.5 0 .616.196 1.12.588 1.512.392.384.888.576 1.488.576.576 0 1.06-.18 1.452-.54.392-.368.588-.888.588-1.56zm2.516.084c-.016-.832.28-1.552.888-2.16.616-.608 1.34-.904 2.172-.888a2.88 2.88 0 0 1 2.172.888c.608.608.904 1.328.888 2.16.016.824-.284 1.544-.9 2.16-.616.608-1.34.904-2.172.888-.832.016-1.552-.28-2.16-.888-.608-.616-.904-1.336-.888-2.16zm5.172.012c0-.624-.204-1.148-.612-1.572-.4-.424-.9-.636-1.5-.636s-1.104.212-1.512.636c-.4.416-.6.94-.6 1.572 0 .616.2 1.136.6 1.56a2.02 2.02 0 0 0 1.5.624 2 2 0 0 0 1.5-.636c.416-.424.624-.94.624-1.548zm7.004-4.26v1.332h1.464v.828h-1.464v5.016h-.924v-5.016h-.84v-.828h.84v-1.392c0-.624.168-1.096.504-1.416.344-.32.82-.48 1.428-.48a2.83 2.83 0 0 1 .732.096v.78c-.192-.024-.364-.036-.516-.036-.408 0-.716.088-.924.264-.2.168-.3.452-.3.852zm2.741 7.176v-5.844h.924v5.844h-.924zm-.228-8.076a.62.62 0 0 1 .204-.468.67.67 0 0 1 .492-.204c.184 0 .344.068.48.204a.62.62 0 0 1 .204.468.63.63 0 0 1-.204.48.65.65 0 0 1-.48.192.69.69 0 0 1-.492-.192.63.63 0 0 1-.204-.48zm1.441 10.272v-.78l.54.036c.4 0 .7-.088.9-.264s.3-.46.3-.852v-6.18h.924v6.24c0 .624-.172 1.096-.516 1.416-.336.32-.804.48-1.404.48-.256 0-.504-.032-.744-.096zm1.512-10.272a.62.62 0 0 1 .204-.468.67.67 0 0 1 .492-.204c.184 0 .344.068.48.204a.62.62 0 0 1 .204.468.63.63 0 0 1-.204.48.65.65 0 0 1-.48.192.69.69 0 0 1-.492-.192.63.63 0 0 1-.204-.48zm2.761 5.148c-.016-.832.28-1.552.888-2.16.616-.608 1.34-.904 2.172-.888a2.88 2.88 0 0 1 2.172.888c.608.608.904 1.328.888 2.16.016.824-.284 1.544-.9 2.16-.616.608-1.34.904-2.172.888-.832.016-1.552-.28-2.16-.888-.608-.616-.904-1.336-.888-2.16zm5.172.012c0-.624-.204-1.148-.612-1.572-.4-.424-.9-.636-1.5-.636s-1.104.212-1.512.636c-.4.416-.6.94-.6 1.572 0 .616.2 1.136.6 1.56a2.02 2.02 0 0 0 1.5.624 2 2 0 0 0 1.5-.636c.416-.424.624-.94.624-1.548zm12.967-5.136h.324v8.052h-.936v-5.676l-2.532 3.432h-.336l-2.544-3.456v5.7h-.936v-8.052h.336l3.3 4.572 3.324-4.572zm7.538 5.412h-4.62c.056.576.284 1.04.684 1.392s.888.528 1.464.528c.664 0 1.26-.264 1.788-.792l.54.624c-.656.68-1.436 1.02-2.34 1.02-.872 0-1.608-.292-2.208-.876-.592-.592-.888-1.316-.888-2.172a2.98 2.98 0 0 1 .864-2.16 2.85 2.85 0 0 1 2.124-.9c.76 0 1.392.248 1.896.744.512.496.768 1.128.768 1.896 0 .224-.024.456-.072.696zm-4.584-.816h3.708c-.008-.512-.176-.92-.504-1.224s-.74-.456-1.236-.456a1.88 1.88 0 0 0-1.272.468c-.36.304-.592.708-.696 1.212zm11.116-.216v3.672h-.924v-3.564c0-.464-.132-.84-.396-1.128-.256-.288-.608-.432-1.056-.432s-.816.148-1.104.444c-.288.288-.432.66-.432 1.116v3.564h-.924v-5.844h.864v.624c.456-.504 1.056-.756 1.8-.756.672 0 1.2.212 1.584.636.392.416.588.972.588 1.668zm1.409 2.664l.588-.612c.304.312.58.54.828.684.256.144.54.216.852.216.328 0 .596-.072.804-.216a.72.72 0 0 0 .312-.612c0-.224-.076-.396-.228-.516-.144-.128-.408-.268-.792-.42l-.564-.24c-.504-.208-.872-.436-1.104-.684s-.348-.56-.348-.936c0-.496.184-.892.552-1.188.376-.296.848-.444 1.416-.444a2.43 2.43 0 0 1 1.956.924l-.564.576c-.432-.432-.912-.648-1.44-.648-.296 0-.532.064-.708.192s-.264.308-.264.54c0 .184.064.336.192.456.136.112.388.244.756.396l.54.228c.56.24.956.492 1.188.756.24.256.36.58.36.972 0 .544-.2.968-.6 1.272-.392.296-.876.444-1.452.444a2.74 2.74 0 0 1-2.28-1.14zm5.929-1.32v-3.516h.912v3.576c0 .464.14.84.42 1.128.288.28.652.42 1.092.42.432 0 .788-.144 1.068-.432s.42-.66.42-1.116v-3.576h.924v3.516c0 .728-.232 1.32-.696 1.776-.456.456-1.028.684-1.716.684-.696 0-1.276-.228-1.74-.684-.456-.456-.684-1.048-.684-1.776zm11.167-1.272v3.6h-.864v-.756c-.448.592-1.104.888-1.968.888-.608 0-1.1-.148-1.476-.444-.376-.304-.564-.704-.564-1.2s.192-.892.576-1.188.892-.444 1.524-.444h1.848v-.504c0-.472-.128-.836-.384-1.092-.248-.256-.592-.384-1.032-.384-.656 0-1.224.312-1.704.936l-.612-.504c.52-.856 1.312-1.284 2.376-1.284.704 0 1.26.208 1.668.624.408.408.612.992.612 1.752zm-.924 1.356v-.144h-1.74c-.84 0-1.26.276-1.26.828a.81.81 0 0 0 .336.684c.232.16.524.24.876.24.488 0 .908-.156 1.26-.468s.528-.692.528-1.14zm2.884 2.244v-9h.924v9h-.924z" fill="#491966"/><defs><radialGradient id="B" cx="0" cy="0" r="1" gradientTransform="translate(104.808 274.363) scale(18.4589 18.4587)" xlink:href="#N"><stop stop-color="#f9d173"/><stop offset=".246" stop-color="#ec9f55"/><stop offset=".379" stop-color="#ea5c3c"/><stop offset=".7" stop-color="#bc3082"/><stop offset=".972" stop-color="#6068ab"/><stop offset=".985" stop-color="#5c6bad"/></radialGradient><linearGradient id="C" x1="72.506" y1="256.38" x2="72.506" y2="274.319" xlink:href="#N"><stop stop-color="#00bae7"/><stop offset="1" stop-color="#00a3dc"/></linearGradient><linearGradient id="D" x1="94.414" y1="282.774" x2="92.738" y2="298.633" xlink:href="#N"><stop stop-color="#ff9d33"/><stop offset="1" stop-color="#ff4a2c"/></linearGradient><linearGradient id="E" x1="180.462" y1="292.004" x2="180.285" y2="290.999" xlink:href="#N"><stop stop-color="#008190"/><stop offset=".04" stop-color="#00838e"/><stop offset=".39" stop-color="#008f7b"/><stop offset=".72" stop-color="#00926f"/><stop offset="1" stop-color="#00926a"/></linearGradient><linearGradient id="F" x1="179.671" y1="292.966" x2="181.075" y2="292.251" xlink:href="#N"><stop stop-color="#28418b"/><stop offset="1" stop-color="#0080a3"/></linearGradient><linearGradient id="G" x1="174.75" y1="293.713" x2="176.113" y2="293.714" xlink:href="#N"><stop stop-color="#e49e3c"/><stop offset="1" stop-color="#e08c3a"/></linearGradient><linearGradient id="H" x1="176.397" y1="293.714" x2="177.76" y2="293.715" xlink:href="#N"><stop stop-color="#e08c3a"/><stop offset="1" stop-color="#cd435e"/></linearGradient><linearGradient id="I" x1="178.044" y1="293.715" x2="179.407" y2="293.716" xlink:href="#N"><stop stop-color="#b13275"/><stop offset="1" stop-color="#423886"/></linearGradient><linearGradient id="J" x1="179.691" y1="293.716" x2="181.054" y2="293.717" xlink:href="#N"><stop stop-color="#28418b"/><stop offset="1" stop-color="#0a6ba6"/></linearGradient><linearGradient id="K" x1="177.991" y1="292.822" x2="179.461" y2="292.393" xlink:href="#N"><stop stop-color="#b13275"/><stop offset="1" stop-color="#333d89"/></linearGradient><linearGradient id="L" x1="176.35" y1="292.341" x2="177.808" y2="292.873" xlink:href="#N"><stop stop-color="#f0c144"/><stop offset="1" stop-color="#cd435e"/></linearGradient><linearGradient id="M" x1="176.514" y1="290.977" x2="177.645" y2="292.022" xlink:href="#N"><stop stop-color="#f0c543"/><stop offset="1" stop-color="#d9764b"/></linearGradient><linearGradient id="N" gradientUnits="userSpaceOnUse"/></defs></svg>