<svg xmlns="http://www.w3.org/2000/svg" xmlns:xlink="http://www.w3.org/1999/xlink" width="254" height="252" fill="none" xmlns:v="https://vecta.io/nano"><style><![CDATA[.B{fill-rule:evenodd}.C{fill:#7c6c8a}.D{fill:#fff}.E{fill:#4f008c}.F{stroke:#7c6c8a}.G{fill:#e92070}.H{stroke-linecap:square}]]></style><path d="M0 50H250V252H0V50Z" class="E"/><path d="M4 40H254V247H4V40Z" class="D"/><path d="M4 10C4 4.477 8.477 0 14 0h230a10 10 0 0 1 10 10v30H4V10z" fill="#f4f4f7"/><path d="M69.518 64.204v-2.756H67.88V50.684h-2.912l-6.604 11.128v2.392h6.37V68h3.146v-3.796h1.638zm-4.784-2.756h-3.172l3.172-5.46v5.46zm16.927 1.976v-8.138c0-3.016-2.054-5.018-5.33-5.018-3.302 0-5.33 2.002-5.33 5.018v8.138c0 2.99 2.028 5.018 5.33 5.018 3.276 0 5.33-2.028 5.33-5.018zm-3.38.182c0 .962-.702 1.742-1.95 1.742-1.222 0-1.95-.78-1.95-1.742v-8.528c0-.962.728-1.742 1.95-1.742 1.248 0 1.95.78 1.95 1.742v8.528zM99.755 68v-8.892h-5.564v2.548h2.028v1.794c0 .936-.676 1.846-2.054 1.846-1.326 0-2.028-.91-2.028-1.846v-8.216c0-.962.65-1.846 2.002-1.846 1.378 0 1.95.832 1.95 1.794v1.404h3.588v-1.3c0-2.704-1.872-5.018-5.564-5.018s-5.746 2.444-5.746 5.018v8.112c0 2.678 1.742 5.044 5.174 5.044 1.638 0 3.042-.728 3.718-2.028L97.727 68h2.028zm5.943 0V50.684h-3.718V68h3.718zm13.735 0v-8.892h-5.564v2.548h2.028v1.794c0 .936-.676 1.846-2.054 1.846-1.326 0-2.028-.91-2.028-1.846v-8.216c0-.962.65-1.846 2.002-1.846 1.378 0 1.95.832 1.95 1.794v1.404h3.588v-1.3c0-2.704-1.872-5.018-5.564-5.018s-5.746 2.444-5.746 5.018v8.112c0 2.678 1.742 5.044 5.174 5.044 1.638 0 3.042-.728 3.718-2.028l.468 1.586h2.028zm13.301 0l-4.03-17.316h-4.16L120.488 68h3.484l.728-3.432h3.588l.728 3.432h3.718zm-4.94-6.188h-2.548l1.326-6.318 1.222 6.318zm16.785 1.378c0-2.522-1.69-3.874-4.108-5.2-2.21-1.144-3.198-1.82-3.198-3.042 0-1.04.702-1.716 1.794-1.716 1.3 0 1.95.91 1.95 2.08v.546h3.354v-.702c0-2.756-2.106-4.888-5.278-4.888-3.536 0-5.434 2.392-5.434 5.044s2.21 4.03 4.29 5.148c2.002 1.04 2.99 1.794 2.99 3.042 0 1.196-.65 1.95-1.976 1.95-1.352 0-2.08-.78-2.08-2.236v-.572h-3.406v.884c0 2.964 2.158 4.914 5.564 4.914 3.458 0 5.538-2.444 5.538-5.252z" class="G"/><path d="M22.74 60.191v-1.71c0-1.9-1.121-3.135-3.249-3.135h-4.579V68h2.717v-4.693h1.862c2.128 0 3.249-1.235 3.249-3.116zm-2.603.038c0 .684-.266 1.064-.969 1.064h-1.539v-3.819h1.539c.703 0 .969.38.969 1.064v1.691zM31.03 68v-2.337h-4.161V55.346h-2.717V68h6.878zm9.343 0l-2.945-12.654h-3.04L31.424 68h2.546l.532-2.508h2.622L37.656 68h2.717zm-3.61-4.522h-1.862l.969-4.617.893 4.617zM49.808 68V55.346h-2.451v7.258l-1.026-2.071-2.717-5.187h-2.261V68h2.489v-7.144l1.083 2.071L47.718 68h2.09z" class="E"/><path d="M243.5 60h.5v-1h-.5v1zm-68.354-.854a.5.5 0 0 0 0 .707l3.182 3.182a.5.5 0 1 0 .708-.707l-2.829-2.828 2.829-2.828a.5.5 0 1 0-.708-.707l-3.182 3.182zM243.5 59h-68v1h68v-1z" fill="#ff2083"/><g class="E"><path d="M22.31 85.568c0-1.632-.901-3.179-3.383-3.179-2.159 0-3.196 1.496-3.196 3.043v1.02h2.023v-.782c0-.85.357-1.36 1.224-1.36.799 0 1.207.459 1.207 1.275s-.544 1.564-2.006 2.754c-2.142 1.768-2.669 3.111-2.669 4.981V94h6.715v-2.006h-4.216c0-.646.306-1.445 1.513-2.346 2.006-1.547 2.788-2.703 2.788-4.08z"/><use xlink:href="#C"/><use xlink:href="#C" x="8.434"/><use xlink:href="#C" x="16.868"/><path d="M61.938 94V82.678h-3.247l-1.343 5.763-.425 1.989-.408-1.989-1.36-5.763h-3.264V94h2.176v-8.024l.544 2.567L55.903 94h1.819l1.36-5.457.561-2.567V94h2.295zm4.055 0V82.678h-2.431V94h2.431zm9.218 0V82.678h-2.193v6.494l-.918-1.853-2.431-4.641h-2.023V94h2.227v-6.392l.969 1.853L73.341 94h1.87zm8.976-2.89v-8.432h-2.363v8.398c0 .765-.459 1.19-1.275 1.19-.799 0-1.241-.425-1.241-1.19v-8.398h-2.465v8.432c0 1.887 1.564 3.179 3.706 3.179 2.159 0 3.638-1.292 3.638-3.179zm8.319-6.358v-2.074h-7.31v2.074h2.448V94h2.431v-9.248h2.431zm8.216 6.069v-4.964c0-2.006-1.377-3.451-3.723-3.451-2.329 0-3.723 1.445-3.723 3.451v4.964c0 2.023 1.394 3.468 3.723 3.468 2.346 0 3.723-1.445 3.723-3.468zm-2.448.136c0 .765-.459 1.275-1.275 1.275-.799 0-1.258-.51-1.258-1.275v-5.236c0-.765.459-1.275 1.258-1.275.816 0 1.275.51 1.275 1.275v5.236zm10.855-.102c0-1.649-1.105-2.533-2.686-3.4-1.445-.748-2.091-1.19-2.091-1.989 0-.68.459-1.122 1.173-1.122.85 0 1.275.595 1.275 1.36v.357h2.193v-.459c0-1.802-1.377-3.196-3.451-3.196-2.312 0-3.553 1.564-3.553 3.298s1.445 2.635 2.805 3.366c1.309.68 1.955 1.173 1.955 1.989 0 .782-.425 1.275-1.292 1.275-.884 0-1.36-.51-1.36-1.462v-.374h-2.227v.578c0 1.938 1.411 3.213 3.638 3.213 2.261 0 3.621-1.598 3.621-3.434zM162.483 88v-8.658h-1.859V88h1.859zm6.17 0v-1.599h-2.847v-7.059h-1.859V88h4.706zm2.85 0v-8.658h-1.859V88h1.859zm9.147 0v-8.658h-2.483l-1.027 4.407-.325 1.521-.312-1.521-1.04-4.407h-2.496V88h1.664v-6.136l.416 1.963.988 4.173h1.391l1.04-4.173.429-1.963V88h1.755zm3.301 0v-8.658h-1.859V88h1.859zm6.573-7.072v-1.586h-5.59v1.586h1.872V88h1.859v-7.072h1.859zM196.625 88l-2.015-8.658h-2.08L190.502 88h1.742l.364-1.716h1.794l.364 1.716h1.859zm-2.47-3.094h-1.274l.663-3.159.611 3.159zm8.982.598v-3.562c0-1.443-.962-2.6-2.756-2.6h-2.886V88h2.886c1.794 0 2.756-1.04 2.756-2.496zm-1.859-.143c0 .689-.325 1.092-1.04 1.092h-.884v-5.564h.884c.715 0 1.04.403 1.04 1.092v3.38zm8.824.208v-3.796c0-1.534-1.053-2.639-2.847-2.639-1.781 0-2.847 1.105-2.847 2.639v3.796c0 1.547 1.066 2.652 2.847 2.652 1.794 0 2.847-1.105 2.847-2.652zm-1.872.104c0 .585-.351.975-.975.975-.611 0-.962-.39-.962-.975v-4.004c0-.585.351-.975.962-.975.624 0 .975.39.975.975v4.004zM161.837 97v-7.326h-1.364V97h1.364zm5.191 0v-7.326h-1.232v4.345l-.484-1.166-1.353-3.179h-1.177V97h1.254v-4.29l.517 1.166L165.972 97h1.056zm4.958-1.749v-.891h-1.221v.88c0 .429-.242.726-.737.726s-.748-.297-.748-.704v-3.85c0-.407.253-.704.748-.704s.737.297.737.726v.88h1.221v-.891c0-1.1-.682-1.914-1.98-1.914-1.309 0-2.112.88-2.112 2.013v3.63c0 1.133.803 2.013 2.112 2.013 1.298 0 1.98-.814 1.98-1.914zM176.161 97v-1.21h-2.046v-6.116h-1.364V97h3.41zm4.592-1.694v-5.632h-1.331v5.632c0 .429-.242.671-.693.671-.44 0-.682-.242-.682-.671v-5.632h-1.386v5.632c0 1.1.88 1.859 2.068 1.859s2.024-.759 2.024-1.859zm5.083-5.632h-1.364l-.902 2.981-.946-2.981h-1.43l1.617 4.334V97h1.364v-2.992l1.661-4.334zM189.763 97v-1.221h-2.134v-2.035h1.474v-1.078h-1.474v-1.815h2.134v-1.177h-3.498V97h3.498zm5.831 0v-1.21h-2.046v-6.116h-1.364V97h3.41zm4.017 0v-1.21h-2.046v-6.116h-1.364V97h3.41zm4.677 0l-1.463-7.326h-1.529L199.822 97h1.276l.264-1.441h1.298l.242 1.441h1.386zm-1.804-2.519h-.935l.495-2.827.44 2.827zM210.449 97v-7.326h-1.826l-.748 3.718-.242 1.353-.231-1.353-.759-3.718h-1.837V97h1.221v-5.313l.286 1.595.737 3.718h1.034l.781-3.718.297-1.595V97h1.287zm4.968 0l-1.463-7.326h-1.529L210.951 97h1.276l.264-1.441h1.298l.242 1.441h1.386zm-1.804-2.519h-.935l.495-2.827.44 2.827zm6.436.605v-3.432c0-1.155-.715-1.98-2.002-1.98h-2.112V97h2.112c1.287 0 2.002-.748 2.002-1.914zm-1.375-.066c0 .517-.22.803-.726.803h-.649v-4.972h.649c.506 0 .726.286.726.814v3.355zM224.87 97l-1.463-7.326h-1.529L220.404 97h1.276l.264-1.441h1.298l.242 1.441h1.386zm-1.804-2.519h-.935l.495-2.827.44 2.827zm6.161.66c0-.99-.616-1.65-1.485-2.299-.814-.594-1.177-.913-1.177-1.529 0-.407.264-.66.66-.66.462 0 .693.33.693.781v.44h1.243v-.473c0-1.089-.77-1.881-1.925-1.881-1.32 0-2.002.913-2.002 1.969 0 1.023.814 1.749 1.562 2.288.726.539 1.1.935 1.1 1.518 0 .451-.242.737-.726.737-.495 0-.748-.297-.748-.836v-.429h-1.254v.506c0 1.144.781 1.892 2.035 1.892 1.21 0 2.024-.847 2.024-2.024z"/></g><path d="M128.54 89.319v-1.871h-2.345V85h-1.85v2.447H122v1.871h2.345v2.447h1.85v-2.447h2.345z" class="G"/><g class="B"><path d="M141.533 94.6l.3.166C143.067 95.534 144.5 96 146 96c4.366 0 8-3.633 8-8.067S150.366 80 145.966 80 138 83.533 138 87.933c0 1.533.433 3.034 1.233 4.3l.2.3-.766 2.8 2.866-.733z" fill="#00a655"/><path d="M143.4 83.467l-.634-.034c-.2 0-.399.067-.533.2-.3.267-.8.767-.933 1.434-.234 1 .133 2.2 1 3.4s2.533 3.133 5.466 3.967c.934.267 1.667.1 2.267-.266.467-.3.767-.767.867-1.267l.1-.466c.033-.133-.033-.3-.167-.367l-2.1-.967c-.133-.067-.299-.034-.4.1l-.833 1.067a.26.26 0 0 1-.267.066c-.566-.2-2.467-1-3.5-3-.033-.1-.033-.2.034-.267l.8-.9c.066-.1.099-.233.066-.334l-.967-2.166a.29.29 0 0 0-.266-.2z" fill="#fefefe"/></g><path d="M14 101h230v40H14z" class="E"/><path d="M87.994 121.698a7.7 7.7 0 0 1-7.698 7.698c-4.24 0-7.698-3.438-7.698-7.698 0-4.239 3.439-7.698 7.698-7.698 4.24 0 7.698 3.459 7.698 7.698z" fill="#0076f4"/><path d="M81.995 118.24h.977v-1.642c-.176-.018-.742-.078-1.426-.078-1.426 0-2.384.86-2.384 2.423v1.349h-1.602v1.836h1.602v4.709h1.915v-4.709h1.602l.234-1.836h-1.837v-1.173c0-.508.137-.879.918-.879z" class="D"/><path d="M111.389 121.698a7.7 7.7 0 0 1-7.698 7.698c-4.239 0-7.698-3.438-7.698-7.698 0-4.239 3.439-7.698 7.698-7.698s7.698 3.459 7.698 7.698z" fill="#00a8f2"/><path d="M107.208 120.272c-.058 3.009-1.973 5.1-4.885 5.217-1.191.058-2.051-.332-2.852-.782.859.137 1.992-.194 2.579-.723-.86-.058-1.387-.527-1.661-1.25.274.059.528 0 .723 0-.8-.254-1.329-.723-1.387-1.759.196.137.469.196.723.196-.586-.332-.996-1.583-.528-2.365.86.919 1.915 1.701 3.635 1.838-.469-1.838 2.052-2.814 3.048-1.563.468-.059.801-.255 1.133-.392-.137.45-.391.723-.723.977.332-.058.664-.137.918-.254-.058.333-.391.606-.723.86z" class="D"/><path d="M64.597 121.698a7.7 7.7 0 0 1-7.698 7.698c-4.24 0-7.698-3.438-7.698-7.698 0-4.239 3.439-7.698 7.698-7.698s7.698 3.459 7.698 7.698z" fill="#fdf700"/><path d="M52.912 123.711c.273-.039.528-.137.762-.293.195-.117.371-.274.528-.469.274-.313.41-.626.43-.664v-.02c.078-.137.078-.254.039-.352-.078-.195-.332-.274-.528-.332l-.039-.019c-.039 0-.059-.02-.078-.04-.137-.059-.215-.097-.274-.156-.078-.078-.098-.137-.078-.196s.059-.117.137-.155c.098-.059.215-.079.293-.04.254.117.449.157.586.078.039-.02.059-.058.059-.097 0-.059-.02-.117-.02-.196v-.02c-.039-.547-.078-1.23.098-1.621.137-.273.293-.508.488-.703.176-.156.352-.293.586-.372.391-.175.742-.195.918-.195h.156c.176 0 .528.02.918.195a2.34 2.34 0 0 1 .586.372c.195.195.371.41.488.703.176.391.137 1.074.098 1.603v.038c0 .039-.02.079-.02.118v.058c0 .039.02.079.059.097a.36.36 0 0 0 .156.04h.019c.117 0 .234-.04.391-.098.059-.019.098-.019.137-.019.059 0 .098.019.156.039.117.038.195.137.195.214 0 .04-.02.079-.078.137s-.156.117-.293.176c-.02.02-.059.02-.078.02l-.039.02c-.176.058-.43.136-.527.331-.039.098-.039.216.039.372v.02c.098.214.625 1.25 1.719 1.426.039.02.078.038.078.097v.04c-.039.077-.098.136-.234.194a2.61 2.61 0 0 1-.782.196c-.039.02-.059.039-.078.059-.02.038-.039.097-.059.195l-.02.059c-.02.039-.02.097-.039.137-.02.059-.059.077-.117.077-.039 0-.078 0-.176-.018-.117-.02-.274-.059-.449-.059-.117 0-.215 0-.332.039-.215.038-.43.175-.645.312-.293.196-.606.43-1.094.43h-.098c-.488 0-.801-.234-1.114-.43-.195-.137-.391-.274-.625-.312-.098-.02-.215-.039-.332-.039-.195 0-.332.039-.449.059h-.02c-.059.018-.117.018-.176.018s-.098-.018-.137-.077l-.078-.176-.019-.04-.059-.195c-.02-.039-.039-.059-.078-.059a5.35 5.35 0 0 1-.801-.194c-.117-.059-.195-.118-.234-.176-.02-.02-.02-.04-.02-.04v-.039c.137-.02.156-.038.195-.058z" stroke="#201712" stroke-width=".222" class="D"/><path d="M33.601 129.201c4.198 0 7.601-3.404 7.601-7.601a7.6 7.6 0 1 0-15.201 0c0 4.197 3.403 7.601 7.6 7.601z" fill="url(#B)"/><g class="D"><path d="M31.626 117.262h3.927c1.348 0 2.423 1.076 2.423 2.404v3.888c0 1.309-1.094 2.384-2.423 2.384h-3.927c-1.329-.019-2.423-1.075-2.423-2.404v-3.887c0-1.309 1.094-2.385 2.423-2.385zm3.929 7.914c.899 0 1.641-.723 1.641-1.622v-3.888c0-.899-.742-1.622-1.641-1.622h-3.927c-.899 0-1.641.723-1.641 1.622v3.888c0 .899.742 1.622 1.641 1.622h3.927zm-4.22-3.576c0-1.23 1.016-2.228 2.266-2.228a2.26 2.26 0 0 1 2.267 2.228c0 1.231-1.016 2.227-2.267 2.227s-2.266-.996-2.266-2.227zm.78 0a1.48 1.48 0 0 0 1.485 1.465 1.48 1.48 0 0 0 1.485-1.465 1.48 1.48 0 0 0-1.485-1.465 1.48 1.48 0 0 0-1.485 1.465z" class="B"/><path d="M35.944 118.708a.63.63 0 0 0-.41.157.6.6 0 0 0-.176.39c0 .157.059.293.176.392.098.097.254.155.41.155s.293-.058.41-.155c.098-.099.176-.255.176-.392a.49.49 0 0 0-.176-.39.63.63 0 0 0-.41-.157zM137.3 123v-3.92h-6.12v-9.4h-5.48V123h11.6zm9.321 0v-13.32h-5.48V123h5.48zm17.095-3.28v-.5c0-1.42-.78-2.52-2.84-2.92 1.98-.38 2.8-1.64 2.8-2.92V113c0-1.88-1.34-3.32-4.46-3.32h-8.2V123h8.32c3.1 0 4.38-1.44 4.38-3.28zm-5.34-5.2c0 .54-.32.76-1.02.76h-.84v-2.2h.84c.7 0 1.02.22 1.02.74v.7zm0 4.36c0 .54-.32.76-1.02.76h-.84v-2.2h.84c.7 0 1.02.22 1.02.76v.68zm22.631 4.12v-.14a3.69 3.69 0 0 1-.6-2.08v-1.7c0-1.22-.6-2.3-2.36-2.52 1.62-.36 2.44-1.42 2.44-2.7v-.8c0-1.98-1.72-3.38-4.72-3.38h-8.04V123h5.48v-4.86h.84c.82 0 1 .44 1 1.14v1.66c0 1.08.54 2.06 1.22 2.06h4.74zm-5.94-8.24c0 .58-.3.88-1.02.88h-.84v-2.52h.84c.72 0 1.02.22 1.02.8v.84zm21.305 8.24v-3.94h-6.16v-1.64h3.88V115h-3.88v-1.64h6.16v-3.68h-11.66V123h11.66zm16.535-4.12c0-4.38-7.5-4.12-7.5-5.5 0-.44.44-.64 1.1-.64 1.06 0 2.64.58 4.04 1.48l2.36-2.6c-1.3-1.22-3.36-2.36-6.56-2.36-3.98 0-5.98 2-5.98 4.38 0 4.4 7.34 4.28 7.34 5.66 0 .46-.42.64-1.3.64-1.22 0-3.14-.76-4.6-1.9l-2.32 2.94c1.54 1.4 4.16 2.44 7.06 2.44 4.24 0 6.36-1.98 6.36-4.54z"/><use xlink:href="#D"/><path d="M135.783 134v-7.992h-1.548v4.584l-.648-1.308-1.716-3.276h-1.428V134h1.572v-4.512l.684 1.308 1.764 3.204h1.32z"/><use xlink:href="#E"/><use xlink:href="#D" x="18.027"/><path d="M153.678 131.696v-3.288c0-1.332-.888-2.4-2.544-2.4h-2.664V134h2.664c1.656 0 2.544-.96 2.544-2.304zm-1.716-.132c0 .636-.3 1.008-.96 1.008h-.816v-5.136h.816c.66 0 .96.372.96 1.008v3.12zm8.616.684v-1.272h-.756v-4.968h-1.344l-3.048 5.136v1.104h2.94V134h1.452v-1.752h.756zm-2.208-1.272h-1.464l1.464-2.52v2.52z"/><path d="M165.994 134v-4.104h-2.568v1.176h.936v.828c0 .432-.312.852-.948.852-.612 0-.936-.42-.936-.852v-3.792c0-.444.3-.852.924-.852.636 0 .9.384.9.828v.648h1.656v-.6c0-1.248-.864-2.316-2.568-2.316s-2.652 1.128-2.652 2.316v3.744c0 1.236.804 2.328 2.388 2.328.756 0 1.404-.336 1.716-.936l.216.732h.936z"/><use xlink:href="#F"/><path d="M178.168 134l-1.86-7.992h-1.92L172.516 134h1.608l.336-1.584h1.656l.336 1.584h1.716zm-2.28-2.856h-1.176l.612-2.916.564 2.916z"/><use xlink:href="#E" x="40.254"/><path d="M188.969 134l-1.86-7.992h-1.92L183.317 134h1.608l.336-1.584h1.656l.336 1.584h1.716zm-2.28-2.856h-1.176l.612-2.916.564 2.916zm8.857.636c0-1.164-.78-1.788-1.896-2.4-1.02-.528-1.476-.84-1.476-1.404 0-.48.324-.792.828-.792.6 0 .9.42.9.96v.252h1.548v-.324c0-1.272-.972-2.256-2.436-2.256-1.632 0-2.508 1.104-2.508 2.328s1.02 1.86 1.98 2.376c.924.48 1.38.828 1.38 1.404 0 .552-.3.9-.912.9-.624 0-.96-.36-.96-1.032v-.264h-1.572v.408c0 1.368.996 2.268 2.568 2.268 1.596 0 2.556-1.128 2.556-2.424zm2.121 2.22v-7.992h-1.716V134h1.716z"/><use xlink:href="#D" x="72.758"/><path d="M210.293 134v-7.992h-2.292l-.948 4.068-.3 1.404-.288-1.404-.96-4.068h-2.304V134h1.536v-5.664l.384 1.812.912 3.852h1.284l.96-3.852.396-1.812V134h1.62z"/><use xlink:href="#F" x="42.832"/><use xlink:href="#E" x="78.242"/><use xlink:href="#D" x="96.269"/></g><path d="M14 209v22.5h230V209" stroke="#e92070"/><path d="M82.298 160.32h2.16V192h-6.48v-24l-6 1.92-1.536-5.712 11.856-3.888zm19.266 0h2.16V192h-6.48v-24l-6 1.92-1.536-5.712 11.856-3.888zm8.801 27.792c0-1.248.432-2.304 1.296-3.168s1.936-1.296 3.216-1.296c1.248 0 2.288.432 3.12 1.296.864.864 1.296 1.92 1.296 3.168 0 1.28-.416 2.352-1.248 3.216-.832.832-1.888 1.248-3.168 1.248s-2.352-.416-3.216-1.248c-.864-.864-1.296-1.936-1.296-3.216zm35.412-16.992c0 1.76-.352 3.328-1.056 4.704-.64 1.344-1.744 3.088-3.312 5.232L133.537 192h-7.68l7.344-10.176h-.24c-2.688.064-5.12-.96-7.296-3.072-2.176-2.144-3.232-4.704-3.168-7.68-.064-3.136 1.072-5.824 3.408-8.064 2.368-2.24 5.104-3.328 8.208-3.264 3.168 0 5.904 1.088 8.208 3.264s3.456 4.88 3.456 8.112zm-7.968 3.744c1.024-1.024 1.536-2.288 1.536-3.792s-.512-2.768-1.536-3.792c-.992-1.056-2.224-1.584-3.696-1.584-1.44 0-2.672.512-3.696 1.536s-1.536 2.304-1.536 3.84c0 1.504.512 2.768 1.536 3.792s2.256 1.536 3.696 1.536c1.472 0 2.704-.512 3.696-1.536zm34.921-3.744c0 1.76-.352 3.328-1.056 4.704-.64 1.344-1.744 3.088-3.312 5.232L160.49 192h-7.68l7.344-10.176h-.24c-2.688.064-5.12-.96-7.296-3.072-2.176-2.144-3.232-4.704-3.168-7.68-.064-3.136 1.072-5.824 3.408-8.064 2.368-2.24 5.104-3.328 8.208-3.264 3.168 0 5.904 1.088 8.208 3.264s3.456 4.88 3.456 8.112zm-7.968 3.744c1.024-1.024 1.536-2.288 1.536-3.792s-.512-2.768-1.536-3.792c-.992-1.056-2.224-1.584-3.696-1.584-1.44 0-2.672.512-3.696 1.536s-1.536 2.304-1.536 3.84c0 1.504.512 2.768 1.536 3.792s2.256 1.536 3.696 1.536c1.472 0 2.704-.512 3.696-1.536zm12.457 1.056c0-4.864 1.072-8.768 3.216-11.712 2.144-2.976 5.264-4.464 9.36-4.464s7.2 1.488 9.312 4.464c2.144 2.944 3.216 6.848 3.216 11.712 0 4.896-1.088 8.896-3.264 12s-5.264 4.656-9.264 4.656c-4.032 0-7.136-1.552-9.312-4.656s-3.264-7.104-3.264-12zm18.432.048c0-6.816-1.952-10.224-5.856-10.224-3.936 0-5.904 3.408-5.904 10.224 0 7.072 1.968 10.608 5.904 10.608 3.904 0 5.856-3.536 5.856-10.608z" class="G"/><g class="E"><path d="M105.121 202.092v-.972h-1.332v.96c0 .468-.264.792-.804.792s-.816-.324-.816-.768v-4.2c0-.444.276-.768.816-.768s.804.324.804.792v.96h1.332v-.972c0-1.2-.744-2.088-2.16-2.088-1.428 0-2.304.96-2.304 2.196v3.96c0 1.236.876 2.196 2.304 2.196 1.416 0 2.16-.888 2.16-2.088zm6.168 1.908l-1.596-7.992h-1.668L106.417 204h1.392l.288-1.572h1.416l.264 1.572h1.512zm-1.968-2.748h-1.02l.54-3.084.48 3.084zm8.129 2.796v-.444c-.18-.192-.288-.444-.288-.816v-1.464c0-.516-.3-1.044-.924-1.212.624-.192.9-.636.9-1.236v-1.128c0-1.116-.732-1.74-1.824-1.74h-2.46V204h1.488v-3.312h.78c.42 0 .612.312.612.684v1.5c0 .696.228 1.176.816 1.176h.9zm-1.764-5.1c0 .432-.204.636-.588.636h-.756v-2.352h.816c.372 0 .528.216.528.576v1.14zM123.58 204v-4.056h-2.22v1.08h.78v1.116c0 .396-.264.744-.792.744-.516 0-.792-.348-.792-.744v-4.26a.71.71 0 0 1 .78-.744c.528 0 .768.336.768.72v.888h1.428v-.828c0-1.128-.768-2.076-2.208-2.076s-2.28.984-2.28 2.076v4.176c0 1.152.732 2.088 2.052 2.088.648 0 1.2-.288 1.464-.816l.204.636h.816z"/><use xlink:href="#G"/><path d="M138.457 197.256v-1.248h-3.732V204h1.488v-3.396h1.656v-1.248h-1.656v-2.1h2.244zM141.62 204v-7.992h-1.488V204h1.488zm6.039-1.968v-6.024h-1.5v6.12c0 .492-.24.744-.672.744s-.684-.252-.684-.744v-1.308h-1.428v1.284c0 1.26.804 2.076 2.136 2.076 1.368 0 2.148-.876 2.148-2.148z"/><use xlink:href="#G" x="24.172"/><path d="M165.053 204v-7.992h-1.992l-.816 4.056-.264 1.476-.252-1.476-.828-4.056h-2.004V204h1.332v-5.796l.312 1.74.804 4.056h1.128l.852-4.056.324-1.74V204h1.404zm5.844 0v-1.332h-2.328v-2.22h1.608v-1.176h-1.608v-1.98h2.328v-1.284h-3.816V204h3.816zm6.421 0v-7.992h-1.344v4.74l-.528-1.272-1.476-3.468h-1.284V204h1.368v-4.68l.564 1.272 1.548 3.408h1.152zm6.228-2.028c0-1.08-.672-1.8-1.62-2.508-.888-.648-1.284-.996-1.284-1.668a.67.67 0 0 1 .72-.72c.504 0 .756.36.756.852v.48h1.356v-.516c0-1.188-.84-2.052-2.1-2.052-1.44 0-2.184.996-2.184 2.148 0 1.116.888 1.908 1.704 2.496.792.588 1.2 1.02 1.2 1.656 0 .492-.264.804-.792.804-.54 0-.816-.324-.816-.912v-.468h-1.368v.552c0 1.248.852 2.064 2.22 2.064 1.32 0 2.208-.924 2.208-2.208zm6.244.18v-6.144h-1.452v6.144c0 .468-.264.732-.756.732-.48 0-.744-.264-.744-.732v-6.144h-1.512v6.144c0 1.2.96 2.028 2.256 2.028s2.208-.828 2.208-2.028zm6.402 1.848l-1.596-7.992h-1.668L191.32 204h1.392l.288-1.572h1.416l.264 1.572h1.512zm-1.968-2.748h-1.02l.54-3.084.48 3.084zm7.253 2.748v-1.32h-2.232v-6.672h-1.488V204h3.72z"/></g><path d="M58.886 184.645v2.196h-2.124v-2.232c-1.452-.324-2.514-1.134-3.186-2.43l1.638-1.224c.696 1.092 1.602 1.638 2.718 1.638.48 0 .858-.09 1.134-.27.288-.18.432-.444.432-.792a.8.8 0 0 0-.324-.666c-.204-.18-.558-.372-1.062-.576l-1.224-.45c-1.788-.672-2.682-1.716-2.682-3.132a2.73 2.73 0 0 1 .702-1.872c.468-.528 1.086-.882 1.854-1.062v-2.16h2.124v2.124c1.2.252 2.094.942 2.682 2.07l-1.62 1.224c-.552-.816-1.242-1.224-2.07-1.224-.384 0-.696.078-.936.234s-.36.384-.36.684c0 .252.09.462.27.63.192.156.504.324.936.504l1.35.468c1.824.672 2.736 1.728 2.736 3.168 0 .828-.27 1.524-.81 2.088s-1.266.918-2.178 1.062z" class="G"/><path d="M59.905 18.194c-.866-1.146-1.945-1.83-3.53-1.83-2.368 0-3.805 1.508-3.805 3.701 0 2.253 1.522 3.802 4.017 3.802 1.332 0 2.389-.443 3.065-1.187v-.623h-3.256v-2.976h6.892v4.183c-1.247 2.112-3.742 3.68-6.849 3.68-4.27 0-7.589-2.957-7.589-6.879 0-3.902 3.298-6.879 7.589-6.879 2.579 0 4.651 1.066 6.004 2.957l-2.537 2.052z" class="B C"/><mask id="A" mask-type="alpha" maskUnits="userSpaceOnUse" x="38" y="8" width="83" height="24"><path d="M38 32h82.346V8H38v24z" class="B D"/></mask><g mask="url(#A)"><path d="M117.702 24.763v-.532.532z" class="B C"/><path d="M117.702 24.763v-.532" class="F H"/><path d="M116.584 23.698h0z" class="B C"/><path d="M116.584 23.698h.559" class="F H"/><g class="B C"><path d="M64.726 26.701h3.636V13.427h-3.636v13.275zm15.918-8.507c-.866-1.146-1.945-1.83-3.53-1.83-2.368 0-3.806 1.508-3.806 3.701 0 2.253 1.522 3.802 4.017 3.802 1.332 0 2.389-.443 3.065-1.187v-.623h-3.256v-2.976h6.892v4.183c-1.247 2.112-3.742 3.68-6.849 3.68-4.27 0-7.589-2.957-7.589-6.879 0-3.902 3.298-6.879 7.589-6.879 2.579 0 4.651 1.066 6.004 2.957l-2.537 2.052zm9.662 1.548l-1.226 3.077h2.431l-1.205-3.077zm2.495 5.853h-5.01l-.507 1.106h-3.911l6.342-13.516h1.163l6.341 13.516h-3.911l-.507-1.106zm14.122-9.734l-2.431 1.77c-.634-.885-1.248-1.408-2.304-1.408-.719 0-1.247.241-1.247.845 0 .503.337.744 1.204 1.086l1.607.644c2.325.925 3.573 2.051 3.573 4.002 0 2.614-2.242 4.143-5.117 4.143-2.557 0-4.566-1.186-5.559-2.977l2.452-1.769c.677.865 1.543 1.709 3.107 1.709.973 0 1.438-.321 1.438-.965 0-.624-.444-.825-1.416-1.227l-1.438-.603c-2.22-.925-3.53-2.132-3.53-4.002 0-2.373 2.051-3.923 4.883-3.923 2.432 0 3.974 1.147 4.778 2.675z"/></g><g class="F"><use xlink:href="#H"/><path d="M117.422 23.432h.559v.532h-.559z" class="C"/><use xlink:href="#I"/></g><use xlink:href="#J" class="B C"/><g class="F"><use xlink:href="#J" stroke-width="2"/><use xlink:href="#H"/><use xlink:href="#I"/></g><use xlink:href="#J" class="B C"/><use xlink:href="#J" stroke-width="2" class="F"/></g><path d="M148.892 17.81c.646 0 1.23-.14 1.753-.422s.93-.67 1.222-1.168l-1.039-.698c-.482.717-1.124 1.076-1.925 1.076-.625 0-1.143-.197-1.554-.591s-.617-.895-.617-1.502.206-1.111.617-1.512.929-.601 1.554-.601c.801 0 1.443.359 1.925 1.076l1.039-.698a3.16 3.16 0 0 0-1.227-1.168c-.52-.281-1.099-.422-1.737-.422a3.51 3.51 0 0 0-2.537.955c-.713.656-1.063 1.443-1.05 2.36-.02.918.325 1.704 1.034 2.36s1.557.974 2.542.955zm-8.744-.116l.377-.834h2.751l.377.834h1.477l-2.995-6.514h-.458l-3.006 6.514h1.477zm-10.318-.412c-.441.352-1.005.528-1.691.528-.564 0-1.071-.126-1.523-.378a2.86 2.86 0 0 1-1.075-1.037l.948-.678c.475.62 1.025.93 1.65.93.299 0 .533-.063.703-.189a.61.61 0 0 0 .255-.519.53.53 0 0 0-.173-.422c-.116-.1-.343-.225-.683-.373l-.723-.31c-1.087-.459-1.63-1.073-1.63-1.842a1.59 1.59 0 0 1 .631-1.313c.421-.333.955-.499 1.6-.499.502 0 .944.108 1.324.325a2.37 2.37 0 0 1 .897.887l-.937.688c-.347-.491-.775-.737-1.284-.737-.245 0-.445.055-.601.165s-.235.262-.235.456a.5.5 0 0 0 .169.393c.112.1.317.215.616.344l.764.32c.577.246.998.512 1.263.8a1.52 1.52 0 0 1 .398 1.071 1.69 1.69 0 0 1-.663 1.391zm6.33-.771v1.183h-4.646v-6.398h4.523v1.183h-3.148v1.299h2.313v1.115h-2.313v1.619h3.271zm5.741-2.889l-.897 2.162h1.793l-.896-2.162zm15.786 3.431c-.537.504-1.219.756-2.048.756-.835 0-1.52-.252-2.053-.756s-.8-1.173-.8-2.006v-3.751h1.376v3.848c0 .459.136.816.407 1.071s.629.383 1.07.383c.448 0 .807-.128 1.075-.383s.402-.612.402-1.071v-3.848h1.376v3.751c0 .834-.269 1.502-.805 2.006zm3.477.64v-3.412l1.691 2.016h.448l1.692-2.016v3.412h1.375v-6.514h-.448l-2.843 3.46-2.842-3.46h-.449v6.514h1.376zm11.403-.64c-.537.504-1.219.756-2.048.756-.835 0-1.52-.252-2.053-.756s-.799-1.173-.799-2.006v-3.751h1.375v3.848c0 .459.136.816.407 1.071s.629.383 1.07.383c.448 0 .807-.128 1.075-.383s.402-.612.402-1.071v-3.848h1.376v3.751c0 .834-.268 1.502-.805 2.006zm6.421.64v-1.183h-2.945v-5.215h-1.375v6.398h4.32zm2.04-.834l-.377.834h-1.477l3.005-6.514h.459l2.995 6.514h-1.477l-.377-.834h-2.751zm.479-1.076l.897-2.162.896 2.162h-1.793zm10.578-4.488v6.514h-.459l-3.892-3.955v3.839h-1.375v-6.514h.448l3.902 3.936v-3.819h1.376zm5.384 6.398v-2.259h1.151c.707 0 1.287-.194 1.742-.582a1.87 1.87 0 0 0 .683-1.493 1.85 1.85 0 0 0-.683-1.493c-.455-.381-1.035-.572-1.742-.572h-2.526v6.398h1.375zm0-3.403h1.151c.319 0 .569-.086.749-.257s.27-.396.27-.674c0-.271-.093-.491-.28-.659s-.433-.252-.739-.252h-1.151v1.842zm4.506 3.403l.377-.834h2.75l.377.834h1.478l-2.996-6.514h-.458l-3.006 6.514h1.478zm1.752-4.071l-.896 2.162h1.793l-.897-2.162zm5.331 4.071v-2.259h1.008l1.743 2.259h1.548l-1.905-2.511c.374-.175.664-.422.871-.742s.311-.68.311-1.081c0-.614-.228-1.112-.683-1.493s-1.036-.572-1.742-.572h-2.527v6.398h1.376zm0-3.412h1.151c.32 0 .569-.084.749-.252s.27-.391.27-.669c0-.271-.093-.491-.28-.659s-.433-.252-.739-.252h-1.151v1.832zm5.789 3.412l.377-.834h2.751l.377.834h1.477l-2.995-6.514h-.459l-3.005 6.514h1.477zm1.753-4.071l-.897 2.162h1.793l-.896-2.162zm-85.267 14.976v-1.33h-3.679v-1.821h2.601v-1.254h-2.601v-1.461h3.541v-1.33h-5.089v7.197h5.227zm6.01-1.33v1.33h-4.86v-7.197h1.547v5.867h3.313zm4.947 1.33V24.76l1.903 2.268h.504l1.903-2.268v3.839h1.547V21.27h-.504l-3.198 3.893-3.198-3.893h-.504v7.328h1.547zm12.635-1.33v1.33h-5.227v-7.197h5.089v1.33h-3.541v1.461h2.601v1.254h-2.601v1.821h3.679zm3.546 1.461c.771 0 1.406-.198 1.902-.594a1.9 1.9 0 0 0 .745-1.565c0-.48-.149-.881-.447-1.205s-.772-.623-1.421-.9l-.86-.36c-.336-.145-.567-.274-.693-.387s-.189-.26-.189-.442c0-.218.088-.389.263-.513s.402-.185.677-.185c.573 0 1.054.276 1.444.829l1.054-.774c-.244-.422-.58-.754-1.008-.998s-.925-.365-1.49-.365c-.726 0-1.326.187-1.8.562a1.79 1.79 0 0 0-.71 1.478c0 .865.611 1.556 1.833 2.072l.814.349c.382.167.638.307.768.42s.195.271.195.474c0 .247-.096.442-.287.583s-.454.213-.79.213c-.703 0-1.322-.349-1.857-1.047l-1.066.763a3.22 3.22 0 0 0 1.209 1.167c.508.284 1.079.425 1.714.425zm11.136-.594c-.497.396-1.131.594-1.903.594-.634 0-1.205-.142-1.713-.425a3.22 3.22 0 0 1-1.209-1.167l1.066-.763c.534.698 1.153 1.047 1.856 1.047.337 0 .6-.071.791-.213s.287-.336.287-.583c0-.204-.065-.362-.195-.474s-.386-.253-.768-.42l-.814-.349c-1.222-.516-1.834-1.207-1.834-2.072a1.79 1.79 0 0 1 .711-1.478c.474-.374 1.074-.562 1.799-.562.566 0 1.063.122 1.49.365a2.67 2.67 0 0 1 1.009.998l-1.054.774c-.39-.552-.872-.829-1.445-.829-.275 0-.5.062-.676.185a.59.59 0 0 0-.263.513c0 .182.063.329.189.442s.357.242.693.387l.86.36c.649.276 1.123.576 1.421.9s.447.725.447 1.205a1.9 1.9 0 0 1-.745 1.565zm3.465.464v-7.197h-1.547v7.197h1.547zm7.282-.403c-.626.356-1.337.534-2.131.534-1.108.022-2.064-.336-2.866-1.074s-1.196-1.623-1.18-2.655c-.023-1.032.364-1.916 1.163-2.65s1.759-1.094 2.883-1.08c1.352 0 2.414.52 3.186 1.559l-1.1.861a2.52 2.52 0 0 0-2.109-1.058c-.719 0-1.303.222-1.754.665s-.676 1.011-.676 1.701c0 .705.233 1.283.699 1.734s1.074.676 1.822.676c.879 0 1.544-.298 1.995-.894v-.589H178.2v-1.276h3.633v2.127c-.352.589-.844 1.061-1.479 1.418zm5.769.534c.933 0 1.701-.284 2.304-.851s.906-1.319.906-2.257v-4.22h-1.548v4.329c0 .516-.151.918-.452 1.205s-.705.431-1.21.431c-.496 0-.897-.143-1.203-.431s-.458-.689-.458-1.205v-4.329h-1.548v4.22c0 .938.3 1.69.9 2.257s1.37.851 2.309.851zm6.239-7.328v7.197h-1.547v-7.197h1.547zm6.767 7.197v-1.33h-3.68v-1.821h2.602v-1.254h-2.602v-1.461h3.542v-1.33h-5.089v7.197h5.227zm7.591-7.197v7.328h-.516l-4.378-4.449v4.318h-1.547V21.27h.504l4.39 4.427v-4.297h1.547zm4.794 7.197v-5.867h2.43v-1.33h-6.395v1.33h2.418v5.867h1.547zm8.486-1.33v1.33h-5.227v-7.197h5.089v1.33h-3.541v1.461h2.602v1.254h-2.602v1.821H220z" class="B C"/><defs><radialGradient id="B" cx="0" cy="0" r="1" gradientUnits="userSpaceOnUse" gradientTransform="translate(30.4116 129.171) scale(15.341 15.3408)"><stop stop-color="#f9d173"/><stop offset=".246" stop-color="#ec9f55"/><stop offset=".379" stop-color="#ea5c3c"/><stop offset=".7" stop-color="#bc3082"/><stop offset=".972" stop-color="#6068ab"/><stop offset=".985" stop-color="#5c6bad"/></radialGradient><path id="C" d="M30.52 91.008v-5.321c0-1.972-1.343-3.281-3.485-3.281-2.159 0-3.485 1.309-3.485 3.281v5.321c0 1.955 1.326 3.281 3.485 3.281 2.142 0 3.485-1.326 3.485-3.281zm-2.21.119c0 .629-.459 1.139-1.275 1.139-.799 0-1.275-.51-1.275-1.139v-5.576c0-.629.476-1.139 1.275-1.139.816 0 1.275.51 1.275 1.139v5.576z"/><path id="D" d="M130.028 134v-1.5h-2.736v-2.004h1.884V129.2h-1.884v-1.752h2.736v-1.44h-4.452V134h4.452z"/><path id="E" d="M143.361 134.048v-.504c-.216-.192-.336-.444-.336-.816v-1.308c0-.552-.348-1.152-1.068-1.32.72-.192 1.032-.684 1.032-1.332v-.864c0-1.152-.78-1.896-2.076-1.896h-2.88V134h1.716v-3.264h.924c.492 0 .708.36.708.78v1.308c0 .744.264 1.224.96 1.224h1.02zm-2.028-5.208c0 .48-.24.708-.684.708h-.9v-2.196h.972c.444 0 .612.252.612.648v.84z"/><path id="F" d="M173.051 129.068v-1.08c0-1.2-.708-1.98-2.052-1.98h-2.892V134h1.716v-2.964h1.176c1.344 0 2.052-.78 2.052-1.968zm-1.644.024c0 .432-.168.672-.612.672h-.972v-2.412h.972c.444 0 .612.24.612.672v1.068z"/><path id="G" d="M129.935 201.996v-3.984c0-1.26-.864-2.172-2.268-2.172-1.392 0-2.268.912-2.268 2.172v3.984c0 1.272.876 2.184 2.268 2.184 1.404 0 2.268-.912 2.268-2.184zm-1.5.096c0 .468-.276.78-.768.78-.48 0-.756-.312-.756-.78v-4.176c0-.468.276-.78.756-.78.492 0 .768.312.768.78v4.176z"/><path id="H" d="M117.231 23.833l-2.439.879-.152-.348 3.215-1.386c.133-.054.435-.017.483.068l1.631 3.015-.399.187-1.32-2.269-1.073 1.814c-2.38 3.909-6.007 5.889-10.695 5.901l-54.678.002c-6.409-.019-11.376-4.397-12.1-10.402-.034-.278-.004-.563.203-.861.323 1.138.552 2.308.987 3.406 1.624 4.098 4.686 6.582 9.295 7.208 1.048.142 2.117.207 3.176.208l52.76.001c4.707-.006 8.321-1.948 10.714-5.842.259-.42.428-.89.64-1.337l-.248-.244z"/><path id="I" d="M118.316 19.639l-.285-1.388c-.582-4.455-4.272-8.286-8.948-9.204-1.033-.203-2.105-.326-3.16-.327l-53.606-.008c-4.495.001-8.029 1.723-10.484 5.335-.393.577-.713 1.316-1.036 1.935.015.016.084-.05.098-.033l.177.201 2.465-.93.157.365-3.649 1.636-1.678-3.391.39-.192 1.31 2.358c.227-.337.389-.529.499-.746 2.286-4.49 6.017-6.946 11.29-6.957l54.778-.011c6.49.006 11.692 4.789 12.025 10.985.006.113-.059.229-.091.344l-.253.028z"/><path id="J" d="M40.796 15.982l-.559.532h-.559.559v.532"/></defs></svg>