<svg xmlns="http://www.w3.org/2000/svg" xmlns:xlink="http://www.w3.org/1999/xlink" width="252" height="325" fill="none" xmlns:v="https://vecta.io/nano"><style><![CDATA[.B{fill:#471086}.C{fill-rule:evenodd}.D{fill:#e92070}]]></style><path fill="#fff" d="M0 0h252v325H0z"/><g class="B"><path d="M9 42h228v1.129H10.076V274H9V42z" class="C"/><path d="M25.62 83h2.214v-4.05h2.502c2.772 0 5.04-1.476 5.04-4.302v-.036c0-2.538-1.836-4.212-4.788-4.212H25.62V83zm2.214-6.048v-4.536h2.574c1.656 0 2.718.774 2.718 2.25v.036c0 1.314-1.044 2.25-2.718 2.25h-2.574zM38.058 83h2.178V69.86h-2.178V83zm8.3.198c1.458 0 2.448-.612 3.096-1.386V83h2.124v-5.634c0-1.242-.324-2.25-1.026-2.934-.666-.684-1.728-1.062-3.15-1.062-1.512 0-2.538.306-3.582.774l.576 1.71c.864-.36 1.656-.594 2.718-.594 1.53 0 2.358.72 2.358 2.07v.234a7.94 7.94 0 0 0-2.556-.396c-2.322 0-3.924 1.008-3.924 3.06v.036c0 1.908 1.584 2.934 3.366 2.934zm.612-1.584c-1.044 0-1.854-.522-1.854-1.44v-.036c0-.99.828-1.584 2.232-1.584.864 0 1.602.162 2.16.378v.648c0 1.206-1.098 2.034-2.538 2.034zM54.726 83h2.178v-5.364c0-1.476.882-2.358 2.142-2.358 1.296 0 2.034.846 2.034 2.322V83h2.178v-6.066c0-2.196-1.242-3.636-3.384-3.636-1.476 0-2.358.774-2.97 1.656v-1.458h-2.178V83z"/></g><path d="M35.48 189.175l1.47-5.362a10.95 10.95 0 0 1-1.47-5.448c0-5.881 4.843-10.724 10.724-10.724s10.81 4.843 10.81 10.724-4.929 10.81-10.81 10.81c-1.816 0-3.632-.606-5.275-1.47l-5.448 1.47z" fill="#fff"/><path d="M46.204 167.978c-5.695 0-10.387 4.692-10.387 10.387a10.61 10.61 0 0 0 1.425 5.279l.07.122-1.352 4.931 5.008-1.352.117.062c1.614.849 3.375 1.431 5.119 1.431 5.695 0 10.474-4.778 10.474-10.473s-4.775-10.387-10.474-10.387zm-11.06 10.387c0-6.067 4.993-11.06 11.06-11.06s11.146 4.99 11.146 11.06-5.08 11.146-11.146 11.146c-1.844 0-3.672-.599-5.314-1.447L35 189.653l1.589-5.794a11.29 11.29 0 0 1-1.445-5.494z" fill="#cccdd1" class="C"/><path d="M41.274 185.802l.346.173c1.384.865 2.94 1.384 4.67 1.384 4.843 0 8.907-4.065 8.907-8.994s-4.065-8.821-8.994-8.821-8.907 3.978-8.907 8.821c0 1.729.519 3.372 1.384 4.756l.259.346-.865 3.113 3.2-.778z" fill="#009e56"/><path d="M43.35 173.349h-.692c-.259 0-.432.086-.605.259-.346.26-.865.865-1.038 1.557-.259 1.124.173 2.421 1.124 3.805.951 1.297 2.854 3.459 6.054 4.411 1.038.259 1.816.086 2.508-.26.519-.346.865-.865.951-1.384l.086-.518c0-.173 0-.346-.173-.433l-2.335-1.038c-.173-.086-.346 0-.432.087l-.951 1.211c-.086.086-.173.086-.259.086-.605-.259-2.767-1.124-3.892-3.373v-.259l.865-1.038c.087-.086.087-.259.087-.346l-1.038-2.421c0-.173-.173-.346-.259-.346z" fill="#fff"/><g class="B"><path d="M63.315 175.716h7.891V173.2h-5.019v-7.847h-2.872v10.363zm9.211 0h2.872v-10.363h-2.872v10.363zm4.769 0h5.344c2.472 0 3.923-1.08 3.923-2.857v-.03c0-1.406-.799-2.117-2.058-2.531.918-.4 1.599-1.11 1.599-2.31v-.029a2.33 2.33 0 0 0-.666-1.688c-.607-.592-1.525-.918-2.828-.918h-5.315v10.363zm5.981-7.135c0 .607-.503.903-1.377.903h-1.806v-1.821h1.88c.844 0 1.303.311 1.303.888v.03zm.415 3.849v.029c0 .607-.489.948-1.377.948h-2.221v-1.91h2.191c.962 0 1.406.37 1.406.933zm4.187 3.286h2.872v-3.138h1.273l2.087 3.138h3.301l-2.472-3.612c1.288-.548 2.132-1.599 2.132-3.198v-.029c0-1.022-.311-1.806-.918-2.413-.696-.696-1.791-1.111-3.375-1.111h-4.9v10.363zm2.872-5.388v-2.502h1.895c.948 0 1.554.414 1.554 1.243v.03c0 .755-.577 1.229-1.54 1.229h-1.91zm7.768 5.388h8.409v-2.442h-5.566v-1.644h4.974v-2.265h-4.974v-1.584h5.492v-2.428h-8.335v10.363zm13.995 0h8.409v-2.442h-5.567v-1.644h4.975v-2.265h-4.975v-1.584h5.493v-2.428h-8.335v10.363zm9.889 0h2.842v-5.685l4.442 5.685h2.501v-10.363h-2.842v5.478l-4.264-5.478h-2.679v10.363zm15.729 0h2.872v-3.138h1.274l2.087 3.138h3.301l-2.472-3.612c1.288-.548 2.132-1.599 2.132-3.198v-.029c0-1.022-.311-1.806-.918-2.413-.696-.696-1.791-1.111-3.375-1.111h-4.901v10.363zm2.872-5.388v-2.502h1.895c.948 0 1.555.414 1.555 1.243v.03c0 .755-.578 1.229-1.54 1.229h-1.91zm12.995 5.596c3.198 0 5.596-2.414 5.596-5.389v-.03c0-2.976-2.369-5.359-5.566-5.359s-5.597 2.413-5.597 5.389v.029c0 2.976 2.369 5.36 5.567 5.36zm.03-2.591c-1.585 0-2.665-1.303-2.665-2.798v-.03c0-1.495 1.051-2.768 2.635-2.768s2.65 1.288 2.65 2.798v.029c0 1.496-1.051 2.769-2.62 2.769zm5.568 2.383h3.005l.74-1.865h4.012l.741 1.865h3.079l-4.412-10.437h-2.768l-4.397 10.437zm4.589-4.101l1.17-2.931 1.155 2.931h-2.325zm7.993 4.101h2.813v-5.936l2.635 4.041h.06l2.65-4.056v5.951h2.857v-10.363h-3.035l-2.472 4.012-2.473-4.012h-3.035v10.363zm12.927 0h2.872v-10.363h-2.872v10.363zm4.769 0h2.843v-5.685l4.441 5.685h2.502v-10.363h-2.843v5.478l-4.263-5.478h-2.68v10.363zm16.909.208c1.895 0 3.405-.696 4.501-1.614v-4.649h-4.753v2.103h2.029v1.258c-.415.281-.948.429-1.659.429-1.643 0-2.812-1.199-2.812-2.887v-.029c0-1.584 1.154-2.828 2.65-2.828 1.036 0 1.761.355 2.502.977l1.687-2.043c-1.095-.947-2.383-1.495-4.204-1.495-3.198 0-5.567 2.369-5.567 5.389v.029c0 3.139 2.399 5.36 5.626 5.36zM64.954 190.521h7.052v-1.481h-5.397v-2.53h4.724v-1.48h-4.724v-2.45h5.33v-1.48h-6.985v9.421zm8.881 0h1.628v-6.703l5.195 6.703h1.386V181.1h-1.628v6.514L75.37 181.1h-1.534v9.421zm14.399 0h1.629v-6.73l2.947 4.415h.054l2.974-4.442v6.757h1.655V181.1H95.73l-2.867 4.454-2.867-4.454h-1.763v9.421zm10.742 0h1.696l.969-2.275h4.454l.956 2.275h1.75l-4.146-9.489h-1.534l-4.145 9.489zm3.27-3.742l1.615-3.768 1.629 3.768h-3.244zm.969-6.595h1.265l1.723-1.305-1.48-.646-1.508 1.951zm10.206 10.471c1.979 0 3.365-1.05 3.365-2.813v-.027c0-1.561-1.023-2.274-3.015-2.759-1.817-.43-2.248-.753-2.248-1.48v-.027c0-.619.566-1.117 1.535-1.117.861 0 1.709.337 2.557.969l.888-1.252c-.955-.767-2.046-1.184-3.418-1.184-1.871 0-3.217 1.117-3.217 2.732v.027c0 1.736 1.131 2.328 3.136 2.813 1.75.404 2.126.767 2.126 1.44v.027c0 .7-.646 1.184-1.668 1.184-1.158 0-2.073-.444-2.975-1.225l-.996 1.185c1.131 1.009 2.49 1.507 3.93 1.507zm9.077-.134h3.513c2.961 0 5.006-2.06 5.006-4.711v-.027c0-2.651-2.045-4.683-5.006-4.683h-3.513v9.421zm3.513-7.914c1.978 0 3.27 1.359 3.27 3.203v.027c0 1.844-1.292 3.176-3.27 3.176h-1.857v-6.406h1.857zm6.88 7.914h7.052v-1.481h-5.396v-2.53h4.724v-1.48h-4.724v-2.45h5.329v-1.48h-6.985v9.421zm15.662.161c2.086 0 3.499-1.265 3.499-3.19v-.026c0-1.992-1.453-2.961-3.283-2.961-.633 0-1.05.107-1.494.269l.148-2.207h4.212V181.1h-5.639l-.269 4.616.996.659c.484-.228 1.063-.417 1.736-.417 1.144 0 1.951.606 1.951 1.561v.027c0 .983-.74 1.629-1.87 1.629-.875 0-1.669-.431-2.423-1.131l-1.023 1.198c.889.861 2.019 1.44 3.459 1.44zm9.018 0c2.476 0 4.118-2.18 4.118-4.872v-.027c0-2.691-1.628-4.845-4.091-4.845-2.476 0-4.118 2.18-4.118 4.872v.027c0 2.692 1.615 4.845 4.091 4.845zm.027-1.494c-1.467 0-2.409-1.521-2.409-3.378v-.027c0-1.871.928-3.351 2.382-3.351s2.409 1.521 2.409 3.378v.027c0 1.844-.915 3.351-2.382 3.351zm9.83 1.333h1.656v-3.029h1.871c2.072 0 3.768-1.103 3.768-3.216v-.027c0-1.898-1.373-3.149-3.58-3.149h-3.715v9.421zm1.656-4.522v-3.392h1.924c1.239 0 2.033.579 2.033 1.682v.027c0 .983-.781 1.683-2.033 1.683h-1.924zm5.446 4.522h1.696l.969-2.275h4.454l.956 2.275h1.75l-4.146-9.489h-1.534l-4.145 9.489zm3.27-3.742l1.615-3.768 1.629 3.768H177.8zm8.13 3.742h1.655V181.1h-1.655v9.421zm7.34.134c1.978 0 3.364-1.05 3.364-2.813v-.027c0-1.561-1.022-2.274-3.014-2.759-1.817-.43-2.248-.753-2.248-1.48v-.027c0-.619.565-1.117 1.534-1.117.862 0 1.71.337 2.557.969l.889-1.252c-.956-.767-2.046-1.184-3.419-1.184-1.87 0-3.216 1.117-3.216 2.732v.027c0 1.736 1.13 2.328 3.136 2.813 1.749.404 2.126.767 2.126 1.44v.027c0 .7-.646 1.184-1.669 1.184-1.157 0-2.072-.444-2.974-1.225l-.996 1.185c1.13 1.009 2.49 1.507 3.93 1.507zm5.177-.134h7.052v-1.481h-5.397v-2.53h4.724v-1.48h-4.724v-2.45h5.329v-1.48h-6.984v9.421zm12.178.134c1.979 0 3.365-1.05 3.365-2.813v-.027c0-1.561-1.023-2.274-3.015-2.759-1.817-.43-2.247-.753-2.247-1.48v-.027c0-.619.565-1.117 1.534-1.117.861 0 1.709.337 2.557.969l.888-1.252c-.955-.767-2.045-1.184-3.418-1.184-1.871 0-3.217 1.117-3.217 2.732v.027c0 1.736 1.131 2.328 3.136 2.813 1.75.404 2.127.767 2.127 1.44v.027c0 .7-.646 1.184-1.669 1.184-1.158 0-2.073-.444-2.975-1.225l-.996 1.185c1.131 1.009 2.49 1.507 3.93 1.507z"/><path d="M224.5 209H24v-1h201.5v8.5h-1V209z" class="C"/></g><g class="D"><path d="M86.811 222.288c-2.128-1.482-4.332-2.432-7.068-2.774v-2.318h-3.952v2.204c-4.788.494-7.98 3.268-7.98 7.448v.076c0 4.56 2.698 6.536 8.17 8.056v6.042c-2.28-.456-4.104-1.52-6.194-3.078l-2.964 4.332c2.546 1.938 5.662 3.192 8.968 3.61v3.838h3.952v-3.762c4.75-.494 8.056-3.23 8.056-7.486v-.076c0-4.256-2.47-6.574-8.246-8.132v-5.776c1.558.418 3.192 1.216 4.712 2.242l2.546-4.446zm-4.56 16.492c0 1.33-.912 2.166-2.698 2.432v-5.32c2.09.76 2.698 1.558 2.698 2.812v.076zm-8.892-12.274c0-1.216.76-2.09 2.622-2.356v5.168c-2.09-.76-2.622-1.52-2.622-2.736v-.076zM91.199 246h19.684v-5.054h-11.59l4.332-3.344c4.712-3.686 6.992-5.814 6.992-10.298v-.076c0-4.978-3.686-8.208-9.158-8.208-4.75 0-7.296 1.976-9.918 5.51l4.104 3.306c1.976-2.432 3.344-3.572 5.434-3.572 2.128 0 3.572 1.178 3.572 3.458 0 2.204-1.254 3.648-4.598 6.384l-8.854 7.258V246zm33.024.456c6.118 0 10.108-3.572 10.108-9.196v-.076c0-5.966-4.142-8.512-9.31-8.512-1.482 0-2.432.19-3.496.456l.304-4.598h11.324v-5.13h-16.34l-.76 13.11 3.382 2.242c1.254-.57 2.774-.988 4.446-.988 2.774 0 4.712 1.33 4.712 3.61v.076c0 2.394-1.71 3.686-4.446 3.686-2.394 0-4.332-1.064-6.346-2.888l-3.534 4.218c2.584 2.47 5.662 3.99 9.956 3.99zm14.322-.456h6.156v-6.08h-6.156V246z"/><use xlink:href="#B"/><use xlink:href="#B" x="24.78"/><path d="M210.074 246.456c7.106 0 11.856-6.042 11.856-13.756v-.076c0-7.752-4.75-13.68-11.78-13.68-7.106 0-11.856 6.042-11.856 13.756v.076c0 7.752 4.636 13.68 11.78 13.68zm.076-5.282c-3.534 0-5.852-3.61-5.852-8.474v-.076c0-4.864 2.28-8.398 5.776-8.398s5.852 3.648 5.852 8.474v.076c0 4.864-2.242 8.398-5.776 8.398z"/></g><g class="B"><path d="M117.485 261.108c1.179 0 1.899-.432 2.556-1.116l-.711-.72c-.54.504-1.035.81-1.809.81-1.206 0-2.079-.999-2.079-2.232v-.018c0-1.233.882-2.223 2.079-2.223.72 0 1.26.315 1.764.783l.711-.819a3.28 3.28 0 0 0-2.466-.981c-1.908 0-3.249 1.467-3.249 3.258v.018c0 1.809 1.368 3.24 3.204 3.24zm3.089-.108h1.134l.648-1.521h2.979l.639 1.521h1.17l-2.772-6.345h-1.026L120.574 261zm2.187-2.502l1.08-2.52 1.089 2.52h-2.169zm5.374 2.502h1.107v-2.196h1.386l1.548 2.196h1.314l-1.701-2.385c.873-.252 1.494-.873 1.494-1.908v-.018c0-.549-.189-1.017-.522-1.359-.405-.396-1.026-.63-1.818-.63h-2.808v6.3zm1.107-3.177v-2.115h1.611c.819 0 1.305.369 1.305 1.044v.018c0 .639-.504 1.053-1.296 1.053h-1.62zm8.295 3.285c1.116 0 2.007-.45 2.628-.981v-2.646h-2.682v.963h1.611v1.179c-.387.288-.927.477-1.521.477-1.287 0-2.142-.954-2.142-2.25v-.018c0-1.206.882-2.223 2.043-2.223.801 0 1.278.261 1.764.675l.702-.837c-.648-.549-1.323-.855-2.421-.855-1.899 0-3.249 1.494-3.249 3.258v.018c0 1.836 1.296 3.24 3.267 3.24z"/><use xlink:href="#C"/><path d="M151.681 261h1.107v-2.565h3.177v-1.008h-3.177v-1.719h3.582V254.7h-4.689v6.3zm5.879 0h1.107v-6.3h-1.107v6.3zm4.099.09c.63 0 1.161-.189 1.53-.558s.594-.927.594-1.674V254.7h-1.143v4.122c0 .846-.405 1.242-.999 1.242-.531 0-.9-.27-1.269-.747l-.729.756a2.37 2.37 0 0 0 2.016 1.017z"/><use xlink:href="#C" x="23.694"/><path d="M175.374 261h1.089v-4.5l1.971 2.952h.036l1.989-2.97V261h1.107v-6.3h-1.179l-1.917 2.979-1.917-2.979h-1.179v6.3zm7.724 0h4.716v-.99h-3.609v-1.692h3.159v-.99h-3.159v-1.638h3.564v-.99h-4.671v6.3zm5.939 0h1.089v-4.482L193.6 261h.927v-6.3h-1.089v4.356l-3.375-4.356h-1.026v6.3zm9.226.09c1.323 0 2.25-.702 2.25-1.881v-.018c0-1.044-.684-1.521-2.016-1.845-1.215-.288-1.503-.504-1.503-.99v-.018c0-.414.378-.747 1.026-.747.576 0 1.143.225 1.71.648l.594-.837a3.49 3.49 0 0 0-2.286-.792c-1.251 0-2.151.747-2.151 1.827v.018c0 1.161.756 1.557 2.097 1.881 1.17.27 1.422.513 1.422.963v.018c0 .468-.432.792-1.116.792-.774 0-1.386-.297-1.989-.819l-.666.792a3.88 3.88 0 0 0 2.628 1.008zm6.044.009c1.647 0 2.709-.945 2.709-2.826V254.7h-1.107v3.627c0 1.161-.603 1.746-1.584 1.746-.99 0-1.593-.621-1.593-1.791V254.7h-1.107v3.627c0 1.827 1.044 2.772 2.682 2.772zm3.37-.099h1.134l.648-1.521h2.979l.639 1.521h1.17l-2.772-6.345h-1.026L207.677 261zm2.187-2.502l1.08-2.52 1.089 2.52h-2.169zm5.374 2.502h4.419v-1.008h-3.312V254.7h-1.107v6.3zM24.224 151H51.94v-8.84H34.312V114.6H24.224V151zm34.954 0h10.088v-36.4H59.178V151zm19.352 0h18.772c8.684 0 13.78-3.796 13.78-10.036v-.104c0-4.94-2.808-7.436-7.228-8.892 3.224-1.404 5.616-3.9 5.616-8.112v-.104c0-2.496-.884-4.42-2.34-5.928-2.132-2.08-5.356-3.224-9.932-3.224H78.53V151zm21.008-25.064c0 2.132-1.768 3.172-4.836 3.172h-6.344v-6.396h6.604c2.964 0 4.576 1.092 4.576 3.12v.104zm1.456 13.52v.104c0 2.132-1.716 3.328-4.836 3.328h-7.8v-6.708h7.696c3.38 0 4.94 1.3 4.94 3.276zM118.301 151h10.088v-11.024h4.472L140.193 151h11.596l-8.684-12.688c4.524-1.924 7.488-5.616 7.488-11.232v-.104c0-3.588-1.092-6.344-3.224-8.476-2.444-2.444-6.292-3.9-11.856-3.9h-17.212V151zm10.088-18.928v-8.788h6.656c3.328 0 5.46 1.456 5.46 4.368v.104c0 2.652-2.028 4.316-5.408 4.316h-6.708zM158.276 151h29.536v-8.58H168.26v-5.772h17.472v-7.956H168.26v-5.564h19.292V114.6h-29.276V151zm51.635.624c8.84 0 14.716-4.42 14.716-11.856v-.104c0-6.812-5.2-9.516-13.52-11.336-5.096-1.144-6.344-1.872-6.344-3.536v-.104c0-1.352 1.196-2.34 3.64-2.34 3.224 0 6.864 1.196 10.192 3.588l5.044-7.124c-3.952-3.172-8.788-4.836-14.976-4.836-8.736 0-14.092 4.888-14.092 11.648v.104c0 7.436 5.98 9.62 13.728 11.388 4.992 1.196 6.188 1.976 6.188 3.536v.104c0 1.56-1.456 2.496-4.212 2.496-4.212 0-8.164-1.508-11.804-4.368l-5.616 6.708c4.524 4.004 10.608 6.032 17.056 6.032z"/></g><g class="D"><use xlink:href="#D"/><path d="M40.304 110h3.08V96h-3.08v14z"/><use xlink:href="#D" x="24.002"/><path d="M62.966 110h3.14l1.28-3.14h5.92l1.28 3.14h3.22l-6-14.1h-2.84l-6 14.1zm5.52-5.86l1.86-4.54 1.86 4.54h-3.72z"/><use xlink:href="#E"/><path d="M104.901 110h3.08v-5.58l5.38-8.42h-3.5l-3.4 5.62-3.34-5.62h-3.6l5.38 8.48V110zm17.972 0h3.02v-9.08l3.9 5.92h.08l3.94-5.98V110h3.06V96h-3.32l-3.68 5.92-3.68-5.92h-3.32v14zm18.303 0h3.08V96h-3.08v14zm7.379 0h3.04v-8.9l6.78 8.9h2.62V96h-3.04v8.62l-6.56-8.62h-2.84v14zm22.441.22c3.76 0 6.14-2.08 6.14-6.32V96h-3.08v8.02c0 2.24-1.12 3.36-3.02 3.36s-3.02-1.16-3.02-3.46V96h-3.08v8c0 4.14 2.3 6.22 6.06 6.22zm13.337-.22h3.08V98.84h4.26V96h-11.6v2.84h4.26V110zm16.703.24c4.32 0 7.46-3.26 7.46-7.24v-.04c0-3.98-3.1-7.2-7.42-7.2s-7.46 3.26-7.46 7.24v.04c0 3.98 3.1 7.2 7.42 7.2zm.04-2.84c-2.48 0-4.24-2-4.24-4.4v-.04c0-2.4 1.72-4.36 4.2-4.36s4.24 2 4.24 4.4v.04c0 2.4-1.72 4.36-4.2 4.36z"/><use xlink:href="#E" x="131.359"/><path d="M9 6H237V40H9V6Z"/></g><path d="M44.632 17.8h-2.7V31h8.48v-2.44h-5.78V17.8zm12.788-5h-3.26l-1.44 3.72h1.96l2.74-3.24v-.48zm-2.3 5h-2.7V31h2.7V17.8zm11.563 0v7.86l-7.66-8.1h-.88V31h2.7v-7.92l7.64 8.16h.9V17.8h-2.7zm14.598 0h-8.88V31h9.12v-2.44h-6.42v-3.34h4.54v-2.3h-4.54v-2.68h6.18V17.8zM92.386 31h2.9l-5.88-13.44h-.9L82.606 31h2.9l.74-1.72h5.4l.74 1.72zm-1.7-3.94h-3.48l1.74-4.44 1.74 4.44zM109.222 31h2.9l-5.88-13.44h-.9L99.442 31h2.9l.74-1.72h5.4l.74 1.72zm-1.7-3.94h-3.48l1.74-4.44 1.74 4.44zm10.722-9.26h-4.32V31h4.32c4.24 0 7.2-2.74 7.2-6.64 0-3.96-2.96-6.56-7.2-6.56zm-.02 2.44c2.66 0 4.44 1.52 4.44 4.12 0 2.54-1.78 4.2-4.44 4.2h-1.6v-8.32h1.6zm12.209-2.44h-2.7V31h2.7V17.8zm9.303-.24c-3.94 0-7.04 2.96-7.04 6.84s3.1 6.84 7.02 6.84c2.56 0 4.7-1.26 5.84-3.28l-2.04-1.44c-.88 1.4-2.12 2.22-3.78 2.22-2.46 0-4.26-1.78-4.26-4.32 0-2.56 1.8-4.36 4.26-4.36 1.66 0 2.9.82 3.78 2.22l2.04-1.44c-1.16-2.02-3.28-3.28-5.82-3.28zm10.814.24h-2.7V31h2.7V17.8zm9.263-.24c-3.88 0-7 2.96-7 6.84s3.12 6.84 7 6.84 7.04-2.96 7.04-6.84-3.16-6.84-7.04-6.84zm.02 2.5c2.42 0 4.24 1.8 4.24 4.34 0 2.56-1.82 4.34-4.24 4.34-2.46 0-4.24-1.78-4.24-4.34 0-2.54 1.78-4.34 4.24-4.34zm17.846-2.26v7.86l-7.66-8.1h-.88V31h2.7v-7.92l7.64 8.16h.9V17.8h-2.7zM191.917 31h2.9l-5.88-13.44h-.9l-5.9 13.44h2.9l.74-1.72h5.4l.74 1.72zm-1.7-3.94h-3.48l1.74-4.44 1.74 4.44zm9.103-9.26h-2.7V31h8.48v-2.44h-5.78V17.8z" fill="#fff"/><g class="B"><path d="M68.198 295.5h3.393c2.86 0 4.836-1.989 4.836-4.55v-.026c0-2.561-1.976-4.524-4.836-4.524h-3.393v9.1zm3.393-7.644c1.911 0 3.159 1.313 3.159 3.094v.026c0 1.781-1.248 3.068-3.159 3.068h-1.794v-6.188h1.794z"/><use xlink:href="#F"/><use xlink:href="#G"/><use xlink:href="#H"/><path d="M102.591 295.643c1.066 0 1.703-.559 2.145-1.209v1.066h1.586v-6.864h-1.586v3.874c0 1.066-.637 1.69-1.547 1.69-.936 0-1.469-.598-1.469-1.664v-3.9h-1.573v4.368c0 1.599.897 2.639 2.444 2.639zm7.763-7.878h1.183l1.599-1.495-1.43-.637-1.352 2.132zm.819 7.891c1.261 0 2.158-.507 2.808-1.287l-.923-.819c-.546.533-1.092.819-1.859.819-1.014 0-1.807-.624-1.976-1.742h5.044l.026-.442c0-1.976-1.105-3.692-3.289-3.692-1.963 0-3.354 1.612-3.354 3.575v.026c0 2.119 1.534 3.562 3.523 3.562zm-1.963-4.069c.143-1.066.819-1.807 1.781-1.807 1.04 0 1.638.793 1.742 1.807h-3.523z"/><use xlink:href="#G" x="30.101"/><path d="M128.337 295.643c1.118 0 1.833-.572 2.34-1.287v1.144h1.573v-9.49h-1.573v3.692c-.494-.65-1.209-1.209-2.34-1.209-1.638 0-3.185 1.287-3.185 3.562v.026c0 2.275 1.573 3.562 3.185 3.562zm.377-1.365c-1.066 0-1.976-.871-1.976-2.197v-.026c0-1.365.897-2.197 1.976-2.197 1.053 0 1.989.871 1.989 2.197v.026c0 1.313-.936 2.197-1.989 2.197z"/><use xlink:href="#F" x="56.039"/><path d="M146.513 295.5h1.586v-9.165h-1.105l-2.457.78.338 1.3 1.638-.455v7.54z"/><use xlink:href="#I"/><path d="M161.089 295.5h1.573v-3.874c0-1.066.637-1.703 1.547-1.703.936 0 1.469.611 1.469 1.677v3.9h1.573v-4.381c0-1.586-.897-2.626-2.444-2.626-1.066 0-1.703.559-2.145 1.196v-1.053h-1.573v6.864zm4.121-7.735c.793 0 1.17-.572 1.456-1.625l-.871-.26c-.195.442-.338.65-.715.65-.208 0-.494-.117-.78-.247-.325-.13-.702-.273-1.092-.273-.793 0-1.17.572-1.456 1.612l.871.273c.195-.442.338-.65.715-.65.221 0 .494.117.78.247.325.13.702.273 1.092.273zm6.944 7.891c2.119 0 3.679-1.625 3.679-3.575v-.026c0-1.963-1.547-3.562-3.653-3.562s-3.666 1.625-3.666 3.588v.026c0 1.95 1.547 3.549 3.64 3.549zm.026-1.378c-1.222 0-2.093-1.001-2.093-2.197v-.026c0-1.196.806-2.184 2.067-2.184 1.235 0 2.106 1.001 2.106 2.21v.026c0 1.183-.806 2.171-2.08 2.171z"/><use xlink:href="#H" x="89.048"/><use xlink:href="#I" x="35.555"/><path d="M199.699 297.606c1.235 0 2.197-.299 2.821-.923.572-.572.871-1.43.871-2.587v-5.46h-1.573v1.027c-.533-.637-1.248-1.17-2.405-1.17-1.599 0-3.12 1.196-3.12 3.224v.026c0 2.015 1.508 3.211 3.12 3.211 1.131 0 1.846-.52 2.418-1.261v.533c0 1.378-.767 2.106-2.171 2.106-.936 0-1.703-.273-2.444-.728l-.585 1.183c.884.533 1.937.819 3.068.819zm.13-3.991c-1.079 0-1.95-.767-1.95-1.885v-.026c0-1.131.858-1.885 1.95-1.885s2.015.767 2.015 1.885v.026c0 1.118-.923 1.885-2.015 1.885z"/><use xlink:href="#I" x="51.386"/><use xlink:href="#G" x="126.964"/><path d="M122.632 313.632c1.441 0 2.321-.528 3.124-1.364l-.869-.88c-.66.616-1.265.99-2.211.99-1.474 0-2.541-1.221-2.541-2.728v-.022c0-1.507 1.078-2.717 2.541-2.717.88 0 1.54.385 2.156.957l.869-1.001c-.737-.704-1.595-1.199-3.014-1.199-2.332 0-3.971 1.793-3.971 3.982v.022c0 2.211 1.672 3.96 3.916 3.96z"/><use xlink:href="#J"/><path d="M133.04 313.5h1.331v-2.211c0-1.54.814-2.299 1.98-2.299h.077v-1.408c-1.023-.044-1.694.55-2.057 1.419v-1.309h-1.331v5.808zm6.748 1.782c1.045 0 1.859-.253 2.387-.781.484-.484.737-1.21.737-2.189v-4.62h-1.331v.869c-.451-.539-1.056-.99-2.035-.99-1.353 0-2.64 1.012-2.64 2.728v.022c0 1.705 1.276 2.717 2.64 2.717.957 0 1.562-.44 2.046-1.067v.451c0 1.166-.649 1.782-1.837 1.782-.792 0-1.441-.231-2.068-.616l-.495 1.001c.748.451 1.639.693 2.596.693zm.11-3.377c-.913 0-1.65-.649-1.65-1.595v-.022c0-.957.726-1.595 1.65-1.595s1.705.649 1.705 1.595v.022c0 .946-.781 1.595-1.705 1.595z"/><use xlink:href="#K"/><path d="M154.747 313.5h1.331v-4.664h1.518v-1.1h-1.54v-.319c0-.605.264-.88.77-.88.286 0 .517.055.781.143v-1.122a3.56 3.56 0 0 0-1.078-.154c-.572 0-1.001.154-1.309.462s-.473.792-.473 1.43v.429h-.737v1.111h.737v4.664zm3.641-6.699h1.43v-1.265h-1.43v1.265zm.055 6.699h1.331v-5.808h-1.331v5.808zm2.872-6.699h1.43v-1.265h-1.43v1.265zm-.297 8.492c1.078 0 1.683-.539 1.683-1.716v-5.885h-1.331v5.808c0 .506-.253.704-.627.704-.121 0-.242-.011-.374-.033v1.067a3.76 3.76 0 0 0 .649.055z"/><use xlink:href="#K" x="19.858"/><path d="M174.308 313.5h1.331v-3.278c0-.891.506-1.441 1.243-1.441s1.177.506 1.177 1.408v3.311h1.331v-3.278c0-.935.517-1.441 1.243-1.441.748 0 1.177.495 1.177 1.419v3.3h1.331v-3.707c0-1.419-.77-2.222-2.035-2.222-.88 0-1.496.407-1.958 1.023-.308-.616-.902-1.023-1.738-1.023-.891 0-1.397.484-1.771 1.001v-.88h-1.331v5.808zm12.894.132c1.067 0 1.826-.429 2.376-1.089l-.781-.693c-.462.451-.924.693-1.573.693-.858 0-1.529-.528-1.672-1.474h4.268l.022-.374c0-1.672-.935-3.124-2.783-3.124-1.661 0-2.838 1.364-2.838 3.025v.022c0 1.793 1.298 3.014 2.981 3.014zm-1.661-3.443c.121-.902.693-1.529 1.507-1.529.88 0 1.386.671 1.474 1.529h-2.981zm5.418 3.311h1.331v-3.278c0-.902.539-1.441 1.309-1.441.792 0 1.243.517 1.243 1.419v3.3h1.331v-3.707c0-1.342-.759-2.222-2.068-2.222-.902 0-1.441.473-1.815 1.012v-.891h-1.331v5.808zm8.592.11c1.21 0 2.156-.605 2.156-1.826v-.022c0-1.045-.957-1.43-1.804-1.694-.682-.22-1.309-.396-1.309-.825v-.022c0-.33.297-.572.814-.572.484 0 1.078.209 1.639.55l.528-.946c-.616-.407-1.408-.66-2.134-.66-1.155 0-2.068.671-2.068 1.771v.022c0 1.111.957 1.463 1.815 1.705.682.209 1.298.363 1.298.814v.022c0 .385-.33.627-.902.627-.594 0-1.265-.242-1.903-.715l-.594.902a4.08 4.08 0 0 0 2.464.869zm5.302.011c.902 0 1.441-.473 1.815-1.023v.902h1.342v-5.808h-1.342v3.278c0 .902-.539 1.43-1.309 1.43-.792 0-1.243-.506-1.243-1.408v-3.3h-1.331v3.696c0 1.353.759 2.233 2.068 2.233z"/><use xlink:href="#J" x="82.648"/><path d="M215.765 313.5h1.331v-8.03h-1.331v8.03z"/></g><g class="D"><path d="M54.646 303.392c-.952-.663-1.938-1.088-3.162-1.241v-1.037h-1.768v.986c-2.142.221-3.57 1.462-3.57 3.332v.034c0 2.04 1.207 2.924 3.655 3.604v2.703c-1.02-.204-1.836-.68-2.771-1.377l-1.326 1.938c1.139.867 2.533 1.428 4.012 1.615v1.717h1.768v-1.683c2.125-.221 3.604-1.445 3.604-3.349v-.034c0-1.904-1.105-2.941-3.689-3.638v-2.584c.697.187 1.428.544 2.108 1.003l1.139-1.989zm-2.04 7.378c0 .595-.408.969-1.207 1.088v-2.38c.935.34 1.207.697 1.207 1.258v.034zm-3.978-5.491c0-.544.34-.935 1.173-1.054v2.312c-.935-.34-1.173-.68-1.173-1.224v-.034zM56.439 314h8.806v-2.261H60.06l1.938-1.496c2.108-1.649 3.128-2.601 3.128-4.607v-.034c0-2.227-1.649-3.672-4.097-3.672-2.125 0-3.264.884-4.437 2.465l1.836 1.479c.884-1.088 1.496-1.598 2.431-1.598.952 0 1.598.527 1.598 1.547 0 .986-.561 1.632-2.057 2.856l-3.961 3.247V314zm14.604.204c2.737 0 4.522-1.598 4.522-4.114v-.034c0-2.669-1.853-3.808-4.165-3.808a5.82 5.82 0 0 0-1.564.204l.136-2.057h5.066V302.1h-7.31l-.34 5.865 1.513 1.003c.561-.255 1.241-.442 1.989-.442 1.241 0 2.108.595 2.108 1.615v.034c0 1.071-.765 1.649-1.989 1.649-1.071 0-1.938-.476-2.839-1.292l-1.581 1.887c1.156 1.105 2.533 1.785 4.454 1.785zM77.28 314h2.754v-2.72H77.28V314z"/><use xlink:href="#L"/><use xlink:href="#L" x="10.916"/><path d="M108.77 314.204c3.179 0 5.304-2.703 5.304-6.154v-.034c0-3.468-2.125-6.12-5.27-6.12-3.179 0-5.304 2.703-5.304 6.154v.034c0 3.468 2.074 6.12 5.27 6.12zm.034-2.363c-1.581 0-2.618-1.615-2.618-3.791v-.034c0-2.176 1.02-3.757 2.584-3.757s2.618 1.632 2.618 3.791v.034c0 2.176-1.003 3.757-2.584 3.757z"/></g><path d="M223.5 280.5H23v-1h201.5v8.5h-1v-7.5z" class="B C"/><path d="M236.773 239.49l9.097-6.224-9.097.957v5.267zM9.83 253.375v6.703l-8.018-5.461v-.899l8.018-.343z" fill="#320565"/><path d="M.947 233.276L244.127 212 246 233.405 1.86 254.616l-.913-21.34z" class="B"/><g fill="#fff"><path d="M48.74 246.852a8.03 8.03 0 0 0 5.056-2.328l-.472-5.392-5.512.482.213 2.439 2.352-.206.128 1.459c-.452.369-1.055.594-1.88.667-1.906.166-3.384-1.106-3.555-3.063l-.003-.035c-.161-1.837 1.052-3.396 2.787-3.548 1.202-.105 2.079.233 3.001.879l1.75-2.54c-1.367-.988-2.916-1.493-5.028-1.308-3.709.324-6.216 3.312-5.909 6.815l.003.034c.319 3.64 3.325 5.973 7.069 5.645zm6.873-.844l3.331-.291-.318-3.64 1.477-.129 2.74 3.428 3.829-.335-3.234-3.939c1.438-.766 2.31-2.07 2.148-3.925l-.003-.034c-.104-1.185-.544-2.063-1.309-2.706-.878-.736-2.19-1.106-4.028-.945l-5.683.497 1.052 12.019zm2.784-6.541l-.254-2.902 2.198-.192c1.099-.096 1.845.323 1.929 1.284l.003.035c.077.875-.545 1.484-1.661 1.581l-2.215.194z"/><path d="M66.621 245.045l3.486-.304.669-2.239 4.653-.407 1.048 2.088 3.572-.312-6.176-11.658-3.211.281-4.041 12.551zm4.907-5.221l1.059-3.519 1.637 3.283-2.696.236zm10.908 3.838l3.331-.292-.796-9.1 3.606-.315-.255-2.919-10.526.92.255 2.919 3.589-.314.796 9.101zm8.313-.728l3.331-.291-1.052-12.019-3.331.291 1.052 12.019zm10.1-.675c2.919-.256 4.732-1.885 4.517-4.341l-.003-.034c-.197-2.249-1.992-2.992-4.792-3.352-1.716-.231-2.149-.435-2.197-.985l-.003-.034c-.039-.447.327-.807 1.134-.878 1.065-.093 2.301.197 3.469.89l1.46-2.498c-1.396-.933-3.041-1.343-5.085-1.164-2.885.252-4.512 2.021-4.317 4.253l.003.035c.215 2.455 2.252 3.004 4.862 3.363 1.683.251 2.1.474 2.145.989l.003.035c.045.515-.409.866-1.319.946-1.391.121-2.739-.263-4.024-1.102l-1.661 2.377c1.609 1.192 3.677 1.686 5.806 1.5zm10.88-1.16l3.331-.291-.3-3.435 1.665-.145c2.971-.26 5.021-1.945 4.771-4.795l-.003-.034c-.231-2.645-2.325-4.036-5.347-3.772l-5.169.453 1.052 12.019zm2.802-6.335l-.278-3.177 1.58-.138c1.185-.104 1.97.364 2.06 1.394l.003.034c.082.945-.6 1.645-1.768 1.747l-1.597.14zm14.662 5.049c3.709-.324 6.245-3.366 5.943-6.818l-.003-.034c-.302-3.451-3.291-5.975-7-5.651s-6.245 3.367-5.943 6.818l.003.034c.302 3.452 3.291 5.976 7 5.651zm-.229-3.007c-1.837.16-3.223-1.241-3.374-2.975l-.003-.035c-.152-1.734.938-3.317 2.775-3.478s3.204 1.225 3.357 2.976l.003.035c.152 1.734-.938 3.317-2.758 3.477zm8.244 2.064l3.332-.292-.319-3.64 1.477-.129 2.739 3.428 3.829-.335-3.234-3.938c1.439-.766 2.311-2.071 2.148-3.926l-.003-.034c-.103-1.185-.544-2.063-1.309-2.706-.878-.736-2.19-1.106-4.028-.945l-5.683.497 1.051 12.02zm2.785-6.542l-.254-2.902 2.198-.192c1.099-.096 1.845.323 1.929 1.285l.003.034c.076.876-.545 1.484-1.661 1.582l-2.215.193zm15.71 4.924l3.279-.287-1.059-12.105-2.421.211-3.433 1.304.861 2.52 1.984-.658.789 9.015zm8.984-.786l3.485-.305.67-2.239 4.653-.407 1.048 2.089 3.571-.313-6.176-11.658-3.211.281-4.04 12.552zm4.906-5.222l1.06-3.519 1.636 3.283-2.696.236zm15.707-9.523c1.167-.103 1.712-.998 1.924-2.73l-1.6-.292c-.177.552-.343.826-.824.868-.258.022-.646-.065-1.123-.179-.566-.14-1.202-.292-1.769-.243-1.185.104-1.711 1.015-1.94 2.748l1.6.292c.176-.569.359-.844.84-.886.24-.021.63.083 1.107.197.583.139 1.218.274 1.785.225zm-6.191 13.483l3.296-.288-.576-6.594 5.728 6.143 2.901-.254-1.051-12.019-3.297.288.556 6.353-5.501-5.92-3.108.272 1.052 12.019zm19.392-1.454c3.709-.325 6.245-3.367 5.943-6.818l-.003-.035c-.302-3.451-3.291-5.975-7-5.65s-6.245 3.366-5.943 6.817l.003.035c.302 3.451 3.291 5.975 7 5.651zm-.229-3.008c-1.837.161-3.223-1.241-3.374-2.975l-.003-.034c-.152-1.735.938-3.318 2.775-3.479s3.204 1.225 3.357 2.977l.003.034c.152 1.734-.938 3.318-2.758 3.477z"/></g><defs ><path id="B" d="M158.31 241.136c-2.28 0-3.876-.722-5.814-2.28l-3.078 4.446c2.28 1.862 4.826 3.154 8.74 3.154 7.562 0 11.628-5.89 11.628-14.516v-.076c0-5.244-1.254-8.132-3.154-10.032-2.014-2.014-4.142-2.888-7.676-2.888-6.004 0-10.146 3.952-10.146 9.31v.076c0 5.358 3.724 8.588 9.5 8.588 2.28 0 4.028-.646 5.396-1.824-.19 2.28-1.406 6.042-5.396 6.042zm.95-9.082c-2.888 0-4.636-1.596-4.636-3.99v-.076c0-2.394 1.634-4.028 4.522-4.028 2.926 0 4.674 1.672 4.674 4.066v.076c0 2.28-1.672 3.952-4.56 3.952z"/><path id="C" d="M144.522 261.108c1.935 0 3.303-1.485 3.303-3.258v-.018c0-1.773-1.35-3.24-3.285-3.24s-3.303 1.485-3.303 3.258v.018c0 1.773 1.35 3.24 3.285 3.24zm.018-1.026c-1.251 0-2.142-1.008-2.142-2.232v-.018c0-1.224.873-2.223 2.124-2.223s2.142 1.017 2.142 2.241v.018c0 1.224-.873 2.214-2.124 2.214z"/><path id="D" d="M30.42 110.24c2.56 0 4.54-1 5.98-2.22v-6.08h-6.08v2.66h3.1v2c-.78.56-1.76.84-2.9.84-2.48 0-4.24-1.88-4.24-4.44v-.04c0-2.38 1.78-4.36 4.02-4.36 1.6 0 2.6.52 3.66 1.42l1.94-2.34c-1.44-1.24-3-1.92-5.5-1.92-4.24 0-7.34 3.26-7.34 7.24v.04c0 4.16 3 7.2 7.36 7.2z"/><path id="E" d="M85.552 110.2c3.02 0 5.14-1.56 5.14-4.34v-.04c0-2.44-1.6-3.44-4.44-4.2-2.42-.64-3.02-.9-3.02-1.84v-.04c0-.7.6-1.22 1.8-1.22s2.38.52 3.64 1.38l1.6-2.32c-1.44-1.14-3.14-1.78-5.2-1.78-2.88 0-4.9 1.68-4.9 4.22v.04c0 2.76 1.8 3.58 4.64 4.28 2.34.58 2.82 1 2.82 1.78v.04c0 .82-.74 1.32-2.02 1.32-1.6 0-2.9-.66-4.18-1.7l-1.82 2.18c1.68 1.52 3.8 2.24 5.94 2.24z"/><path id="F" d="M81.071 295.656c1.261 0 2.158-.507 2.808-1.287l-.923-.819c-.546.533-1.092.819-1.859.819-1.014 0-1.807-.624-1.976-1.742h5.044l.026-.442c0-1.976-1.105-3.692-3.289-3.692-1.963 0-3.354 1.612-3.354 3.575v.026c0 2.119 1.534 3.562 3.523 3.562zm-1.963-4.069c.143-1.066.819-1.807 1.781-1.807 1.04 0 1.638.793 1.742 1.807h-3.523z"/><path id="G" d="M87.864 295.63c1.43 0 2.548-.715 2.548-2.158v-.026c0-1.235-1.131-1.69-2.132-2.002-.806-.26-1.547-.468-1.547-.975v-.026c0-.39.351-.676.962-.676.572 0 1.274.247 1.937.65l.624-1.118a4.76 4.76 0 0 0-2.522-.78c-1.365 0-2.444.793-2.444 2.093v.026c0 1.313 1.131 1.729 2.145 2.015.806.247 1.534.429 1.534.962v.026c0 .455-.39.741-1.066.741-.702 0-1.495-.286-2.249-.845l-.702 1.066c.858.676 1.937 1.027 2.912 1.027z"/><path id="H" d="M91.764 297.58h1.573v-3.146c.481.637 1.196 1.209 2.34 1.209 1.625 0 3.185-1.287 3.185-3.562v-.026c0-2.288-1.573-3.562-3.185-3.562-1.118 0-1.833.572-2.34 1.287v-1.144h-1.573v8.944zm3.536-3.302c-1.066 0-2.002-.884-2.002-2.197v-.026c0-1.313.936-2.197 2.002-2.197s1.963.871 1.963 2.197v.026c0 1.352-.884 2.197-1.963 2.197z"/><path id="I" d="M155.695 295.643c1.053 0 1.768-.442 2.236-1.001v.858h1.534v-4.069c0-.897-.234-1.625-.741-2.119-.481-.494-1.248-.767-2.275-.767-1.092 0-1.833.221-2.587.559l.416 1.235c.624-.26 1.196-.429 1.963-.429 1.105 0 1.703.52 1.703 1.495v.169c-.533-.169-1.079-.286-1.846-.286-1.677 0-2.834.728-2.834 2.21v.026c0 1.378 1.144 2.119 2.431 2.119zm.442-1.144c-.754 0-1.339-.377-1.339-1.04v-.026c0-.715.598-1.144 1.612-1.144a4.36 4.36 0 0 1 1.56.273v.468c0 .871-.793 1.469-1.833 1.469z"/><path id="J" d="M128.476 313.621c.891 0 1.496-.374 1.892-.847v.726h1.298v-3.443c0-.759-.198-1.375-.627-1.793-.407-.418-1.056-.649-1.925-.649-.924 0-1.551.187-2.189.473l.352 1.045c.528-.22 1.012-.363 1.661-.363.935 0 1.441.44 1.441 1.265v.143a4.85 4.85 0 0 0-1.562-.242c-1.419 0-2.398.616-2.398 1.87v.022c0 1.166.968 1.793 2.057 1.793zm.374-.968c-.638 0-1.133-.319-1.133-.88v-.022c0-.605.506-.968 1.364-.968a3.69 3.69 0 0 1 1.32.231v.396c0 .737-.671 1.243-1.551 1.243z"/><path id="K" d="M147.124 313.632c1.793 0 3.113-1.375 3.113-3.025v-.022c0-1.661-1.309-3.014-3.091-3.014s-3.102 1.375-3.102 3.036v.022c0 1.65 1.309 3.003 3.08 3.003zm.022-1.166c-1.034 0-1.771-.847-1.771-1.859v-.022c0-1.012.682-1.848 1.749-1.848 1.045 0 1.782.847 1.782 1.87v.022c0 1.001-.682 1.837-1.76 1.837z"/><path id="L" d="M85.952 311.824c-1.02 0-1.734-.323-2.601-1.02l-1.377 1.989c1.02.833 2.159 1.411 3.91 1.411 3.383 0 5.202-2.635 5.202-6.494v-.034c0-2.346-.561-3.638-1.411-4.488-.901-.901-1.853-1.292-3.434-1.292-2.686 0-4.539 1.768-4.539 4.165v.034c0 2.397 1.666 3.842 4.25 3.842 1.02 0 1.802-.289 2.414-.816-.085 1.02-.629 2.703-2.414 2.703zm.425-4.063c-1.292 0-2.074-.714-2.074-1.785v-.034c0-1.071.731-1.802 2.023-1.802 1.309 0 2.091.748 2.091 1.819v.034c0 1.02-.748 1.768-2.04 1.768z"/></defs></svg>