<svg width="90" height="90" viewBox="0 0 90 90" fill="none" xmlns="http://www.w3.org/2000/svg">
<rect width="90" height="90" fill="#2D1540"/>
<mask id="mask0" mask-type="alpha" maskUnits="userSpaceOnUse" x="56" y="26" width="34" height="34">
<path d="M79.4753 26.0119L73.7237 26.6997C72.9842 26.7866 72.5797 27.2283 72.4941 27.9801L71.3839 38.8181C71.3518 39.2571 71.0231 39.2955 70.8956 38.8821L67.5151 28.5673C67.2728 27.8594 66.7809 27.5228 66.0494 27.6134L60.2898 28.2947C59.5574 28.3862 59.1075 28.8307 59.0602 29.5752L57.0064 57.7302C56.9387 58.6494 57.3985 59.1204 58.2601 59.0198L63.1162 58.4409C63.8504 58.3521 64.3404 57.8994 64.3458 57.1632L64.7432 38.9599C64.7815 38.5209 65.0996 38.4815 65.235 38.8995L69.8968 56.4983C70.0973 57.2135 70.6257 57.5464 71.3616 57.454L74.8723 57.036C75.6073 56.9446 76.0591 56.5056 76.0992 55.7602L76.9073 37.5075C76.943 37.0685 77.27 37.0282 77.3956 37.449L81.6493 55.1007C81.8097 55.8214 82.3853 56.1416 83.1195 56.0565L87.9756 55.4803C88.8363 55.3733 89.1891 54.8099 88.9236 53.9301L80.9401 26.9713C80.7637 26.3311 80.3199 26 79.6927 26C79.6196 26 79.5439 26.0046 79.4655 26.0146L79.4753 26.0119Z" fill="white"/>
</mask>
<g mask="url(#mask0)">
<path fill-rule="evenodd" clip-rule="evenodd" d="M49.3205 66.9174H96.6933V18.1143H49.3205V66.9174Z" fill="#FEFEFE"/>
</g>
<mask id="mask1" mask-type="alpha" maskUnits="userSpaceOnUse" x="-1" y="31" width="34" height="34">
<path d="M30.7544 31.815L25.8965 32.3967C25.157 32.4854 24.6732 32.9318 24.6669 33.6726L24.2695 51.8777C24.2294 52.3231 23.9069 52.3606 23.7759 51.9381L19.1168 34.3366C18.9172 33.6177 18.3861 33.2912 17.6511 33.3808L14.1369 33.7988C13.408 33.8903 12.9554 34.3293 12.9108 35.0728L12.1027 53.3237C12.0608 53.7691 11.7418 53.8066 11.6108 53.3859L7.36069 35.7341C7.19941 35.0134 6.62916 34.7024 5.88071 34.7792L1.02466 35.3573C0.178192 35.4597 -0.178215 36.0249 0.0837443 36.9103L8.06638 63.8782C8.26953 64.5915 8.79701 64.9208 9.53656 64.833L15.2899 64.1489C16.0267 64.0593 16.4339 63.6239 16.5195 62.8657L17.6297 52.0277C17.6626 51.5869 17.9896 51.5503 18.1171 51.9637L21.5003 62.2712C21.7408 62.9873 22.2309 63.3193 22.9687 63.2297L28.722 62.5392C29.4526 62.4587 29.907 62.0142 29.9516 61.2697L32.0045 33.1138C32.0704 32.2769 31.6926 31.8114 30.9753 31.8114C30.9021 31.8117 30.829 31.816 30.7562 31.8242L30.7544 31.815Z" fill="white"/>
</mask>
<g mask="url(#mask1)">
<path fill-rule="evenodd" clip-rule="evenodd" d="M-7.68057 72.7223H39.6922V23.9193H-7.68057V72.7223Z" fill="#FEFEFE"/>
</g>
<mask id="mask2" mask-type="alpha" maskUnits="userSpaceOnUse" x="33" y="29" width="23" height="33">
<path d="M45.6371 29.2624C35.9651 30.4075 34.8032 38.2474 34.592 41.154L33.7562 52.1493C33.5388 55.0468 33.5246 62.7605 43.201 61.6063C52.8775 60.4521 54.0313 52.6066 54.2479 49.6945L55.0712 38.7139C55.2743 36.0158 55.3001 29.1471 47.4868 29.1471C46.8656 29.149 46.245 29.1875 45.6281 29.2624H45.6371ZM40.9548 48.972L41.4297 42.6503C41.6863 39.2644 42.0445 37.1764 45.0686 36.817C48.0927 36.4575 48.1381 38.4962 47.8842 41.8793L47.4013 48.2083C47.1545 51.5869 46.7918 53.6776 43.7659 54.038C43.5528 54.0648 43.3382 54.0786 43.1235 54.0791C40.7418 54.0791 40.716 52.0999 40.9556 48.9729L40.9548 48.972Z" fill="white"/>
</mask>
<g mask="url(#mask2)">
<path fill-rule="evenodd" clip-rule="evenodd" d="M26.0213 69.5999H62.823V21.2633H26.0213V69.5999Z" fill="#FEFEFE"/>
</g>
</svg>
