<svg width="26" height="50" viewBox="0 0 26 50" fill="none" xmlns="http://www.w3.org/2000/svg">
<path d="M25.0688 19.8352C25.0293 19.7669 24.9724 19.7104 24.9039 19.6713C24.8354 19.6322 24.7577 19.6119 24.6788 19.6126H14.4014L19.1502 0.585449C19.1814 0.472959 19.1686 0.352812 19.1142 0.249456C19.0599 0.1461 18.9682 0.0673027 18.8577 0.0290982C18.758 -0.00754633 18.6489 -0.00963929 18.5479 0.0231559C18.4468 0.0559511 18.3598 0.121729 18.3007 0.209912L0.0575622 29.766C0.0197718 29.8366 0 29.9155 0 29.9955C0 30.0756 0.0197718 30.1544 0.0575622 30.225C0.0980659 30.2923 0.155184 30.3481 0.223454 30.3871C0.291725 30.4261 0.368862 30.4469 0.44749 30.4476H10.7249L5.99006 49.4747C5.97091 49.5777 5.98649 49.684 6.03438 49.7772C6.08226 49.8703 6.15974 49.9449 6.25466 49.9894C6.31417 50.0035 6.37619 50.0035 6.4357 49.9894C6.51065 49.9879 6.58411 49.9681 6.64964 49.9317C6.71518 49.8953 6.77082 49.8435 6.8117 49.7807L25.0548 20.2524C25.0936 20.1902 25.1154 20.1189 25.1178 20.0457C25.1202 19.9724 25.1033 19.8998 25.0688 19.8352Z" fill="#E92070"/>
</svg>
